G04*
G04 #@! TF.GenerationSoftware,Altium Limited,Altium Designer,20.0.2 (26)*
G04*
G04 Layer_Physical_Order=1*
G04 Layer_Color=255*
%FSLAX25Y25*%
%MOIN*%
G70*
G01*
G75*
%ADD19C,0.01200*%
%ADD57C,0.04000*%
%ADD58R,0.03543X0.04134*%
%ADD59R,0.09449X0.03937*%
%ADD60R,0.09449X0.12992*%
%ADD61R,0.03937X0.03543*%
%ADD62R,0.05800X0.04000*%
%ADD63R,0.04134X0.03543*%
%ADD64R,0.03900X0.04300*%
%ADD65R,0.04300X0.03900*%
%ADD66R,0.03543X0.03937*%
%ADD67R,0.05709X0.01181*%
%ADD68R,0.05709X0.02362*%
%ADD69R,0.02756X0.03937*%
%ADD70R,0.02559X0.04331*%
%ADD71R,0.02362X0.05118*%
%ADD72O,0.09843X0.02756*%
%ADD73R,0.02362X0.07874*%
%ADD74O,0.08661X0.02362*%
%ADD75C,0.01500*%
%ADD76C,0.15000*%
%ADD77C,0.03000*%
%ADD78C,0.02500*%
%ADD79C,0.02000*%
%ADD80C,0.08500*%
%ADD81C,0.06299*%
%ADD82R,0.06299X0.06299*%
%ADD83O,0.07000X0.09000*%
%ADD84R,0.07000X0.09000*%
%ADD85C,0.09843*%
%ADD86R,0.09843X0.09843*%
%ADD87C,0.14173*%
%ADD88C,0.06000*%
%ADD89R,0.09843X0.09843*%
%ADD90R,0.05906X0.05906*%
%ADD91C,0.05906*%
%ADD92R,0.03937X0.07874*%
%ADD93O,0.03937X0.07874*%
%ADD94C,0.15748*%
%ADD95C,0.02362*%
%ADD96C,0.03150*%
%ADD97C,0.11024*%
G36*
X275243Y-340754D02*
X275966Y-342107D01*
X276939Y-343292D01*
X278125Y-344266D01*
X279477Y-344988D01*
X279560Y-345014D01*
X279486Y-345514D01*
X270300D01*
Y-339646D01*
X274907D01*
X275243Y-340754D01*
D02*
G37*
G36*
X390500Y-287800D02*
Y-358000D01*
X356700Y-391800D01*
X270300D01*
Y-349286D01*
X298600D01*
X299322Y-349143D01*
X299934Y-348734D01*
X300343Y-348122D01*
X300486Y-347400D01*
Y-345366D01*
X301730Y-344988D01*
X303082Y-344266D01*
X304268Y-343292D01*
X305241Y-342107D01*
X305964Y-340754D01*
X306409Y-339286D01*
X306560Y-337760D01*
X306409Y-336233D01*
X305964Y-334766D01*
X305241Y-333413D01*
X304268Y-332227D01*
X303082Y-331254D01*
X301730Y-330531D01*
X300262Y-330086D01*
X298735Y-329936D01*
X297209Y-330086D01*
X295741Y-330531D01*
X294389Y-331254D01*
X293203Y-332227D01*
X292230Y-333413D01*
X291507Y-334766D01*
X291061Y-336233D01*
X290911Y-337760D01*
X291061Y-339286D01*
X291507Y-340754D01*
X292230Y-342107D01*
X293203Y-343292D01*
X294389Y-344266D01*
X295741Y-344988D01*
X295824Y-345014D01*
X295750Y-345514D01*
X285457D01*
X285383Y-345014D01*
X285466Y-344988D01*
X286819Y-344266D01*
X288004Y-343292D01*
X288977Y-342107D01*
X289700Y-340754D01*
X290146Y-339286D01*
X290296Y-337760D01*
X290146Y-336233D01*
X289700Y-334766D01*
X288977Y-333413D01*
X288004Y-332227D01*
X286819Y-331254D01*
X285466Y-330531D01*
X283998Y-330086D01*
X282472Y-329936D01*
X280945Y-330086D01*
X279477Y-330531D01*
X278125Y-331254D01*
X276939Y-332227D01*
X275966Y-333413D01*
X275243Y-334766D01*
X274907Y-335874D01*
X270300D01*
Y-329700D01*
X270859Y-329141D01*
X289900D01*
X290719Y-328978D01*
X291414Y-328514D01*
X292328Y-327600D01*
X327000D01*
X358000Y-296600D01*
Y-285900D01*
X388600Y-285900D01*
X390500Y-287800D01*
D02*
G37*
G36*
X117800Y-35300D02*
X121800Y-39300D01*
Y-105314D01*
X131562D01*
X133361Y-107114D01*
Y-119714D01*
X131462Y-121614D01*
X102193D01*
X101895Y-121205D01*
X101900Y-121200D01*
Y-39500D01*
X105078Y-35300D01*
X117800Y-35300D01*
D02*
G37*
G36*
X97300Y-38600D02*
X97300Y-67900D01*
X83700Y-81500D01*
X83700Y-100600D01*
X80100Y-104200D01*
X52200D01*
X51500Y-103500D01*
Y-91100D01*
X63178Y-91100D01*
X66500Y-87778D01*
X66500Y-71600D01*
X79900Y-58200D01*
Y-39400D01*
X83600Y-35700D01*
Y-35600D01*
X94300D01*
X97300Y-38600D01*
D02*
G37*
%LPC*%
G36*
X315271Y-359577D02*
X313920Y-359710D01*
X312621Y-360104D01*
X311425Y-360744D01*
X310375Y-361605D01*
X309514Y-362654D01*
X308875Y-363851D01*
X308481Y-365149D01*
X308348Y-366500D01*
X308481Y-367851D01*
X308875Y-369149D01*
X309514Y-370346D01*
X310375Y-371395D01*
X311425Y-372256D01*
X312621Y-372896D01*
X313920Y-373290D01*
X315271Y-373423D01*
X316621Y-373290D01*
X317920Y-372896D01*
X319117Y-372256D01*
X320166Y-371395D01*
X321027Y-370346D01*
X321667Y-369149D01*
X322061Y-367851D01*
X322194Y-366500D01*
X322061Y-365149D01*
X321667Y-363851D01*
X321027Y-362654D01*
X320166Y-361605D01*
X319117Y-360744D01*
X317920Y-360104D01*
X316621Y-359710D01*
X315271Y-359577D01*
D02*
G37*
G36*
X282200D02*
X280849Y-359710D01*
X279551Y-360104D01*
X278354Y-360744D01*
X277305Y-361605D01*
X276444Y-362654D01*
X275804Y-363851D01*
X275410Y-365149D01*
X275277Y-366500D01*
X275410Y-367851D01*
X275804Y-369149D01*
X276444Y-370346D01*
X277305Y-371395D01*
X278354Y-372256D01*
X279551Y-372896D01*
X280849Y-373290D01*
X282200Y-373423D01*
X283551Y-373290D01*
X284849Y-372896D01*
X286046Y-372256D01*
X287095Y-371395D01*
X287956Y-370346D01*
X288596Y-369149D01*
X288990Y-367851D01*
X289123Y-366500D01*
X288990Y-365149D01*
X288596Y-363851D01*
X287956Y-362654D01*
X287095Y-361605D01*
X286046Y-360744D01*
X284849Y-360104D01*
X283551Y-359710D01*
X282200Y-359577D01*
D02*
G37*
%LPD*%
D19*
X36580Y-385780D02*
X125120D01*
X14800Y-364000D02*
X36580Y-385780D01*
X14800Y-364000D02*
Y-108109D01*
X37880Y-383980D02*
X124320D01*
X16600Y-362700D02*
X37880Y-383980D01*
X16600Y-362700D02*
Y-108854D01*
X38800Y-382000D02*
X123500D01*
X18400Y-361600D02*
X38800Y-382000D01*
X18400Y-361600D02*
Y-109854D01*
X40300Y-380200D02*
X122700D01*
X20200Y-360100D02*
X40300Y-380200D01*
X20200Y-360100D02*
Y-110600D01*
X136900Y-296900D02*
X149000Y-284800D01*
X136900Y-305200D02*
Y-296900D01*
X134400Y-307700D02*
X136900Y-305200D01*
X139000Y-297800D02*
X151100Y-285700D01*
X139000Y-307700D02*
Y-297800D01*
X134000Y-312700D02*
X139000Y-307700D01*
X149000Y-276700D02*
X151900Y-273800D01*
X149000Y-284800D02*
Y-276700D01*
X151100Y-277600D02*
X153000Y-275700D01*
X151100Y-285700D02*
Y-277600D01*
X142926Y-281474D02*
Y-273174D01*
X131700Y-292700D02*
X142926Y-281474D01*
X126549Y-292700D02*
X131700D01*
X140700Y-280700D02*
Y-272400D01*
X133700Y-287700D02*
X140700Y-280700D01*
X126549Y-287700D02*
X133700D01*
X140700Y-272400D02*
X148300Y-264800D01*
X169900D01*
X180900Y-87243D02*
X180900Y-256900D01*
X170378Y-267422D02*
X180900Y-256900D01*
X148678Y-267422D02*
X170378D01*
X178500Y-256200D02*
Y-101300D01*
X169900Y-264800D02*
X178500Y-256200D01*
X216400Y-141400D02*
Y-135200D01*
X218900Y-142800D02*
X227400Y-151300D01*
X215000Y-142800D02*
X218900D01*
X207700Y-84400D02*
X220700Y-71400D01*
Y-61400D01*
X326021Y-138821D02*
X326200Y-139000D01*
X313279Y-138821D02*
X326021D01*
X313100Y-138643D02*
X313279Y-138821D01*
X305479Y-138621D02*
X305500Y-138643D01*
X295521Y-138621D02*
X305479D01*
X295500Y-138600D02*
X295521Y-138621D01*
X287400Y-175500D02*
Y-97000D01*
Y-175500D02*
X287800Y-175100D01*
X274443Y-84043D02*
X287400Y-97000D01*
X229743Y-171100D02*
X229771Y-171071D01*
Y-161129D01*
X229800Y-161100D01*
X227600Y-208100D02*
X230100Y-210600D01*
X199200Y-208100D02*
X227600D01*
X32590Y-333493D02*
Y-330810D01*
X45089Y-333493D02*
Y-323711D01*
X57587Y-333493D02*
Y-318887D01*
X55500Y-316800D02*
X57587Y-318887D01*
X55500Y-316800D02*
Y-312204D01*
X70086Y-333493D02*
Y-327186D01*
X82584Y-333493D02*
Y-330684D01*
X80700Y-328800D02*
X82584Y-330684D01*
X76698Y-328800D02*
X80700D01*
X65500Y-317602D02*
X76698Y-328800D01*
X79400Y-326800D02*
X93500D01*
X70500Y-317900D02*
X79400Y-326800D01*
X95083Y-333493D02*
Y-328383D01*
X93500Y-326800D02*
X95083Y-328383D01*
X82600Y-324600D02*
X105200D01*
X75500Y-317500D02*
X82600Y-324600D01*
X107581Y-333493D02*
Y-326981D01*
X105200Y-324600D02*
X107581Y-326981D01*
X112000Y-322300D02*
X120080Y-330380D01*
X85100Y-322300D02*
X112000D01*
X120080Y-333493D02*
Y-330380D01*
X80500Y-317700D02*
X85100Y-322300D01*
X50600Y-318200D02*
Y-312304D01*
X45089Y-323711D02*
X50600Y-318200D01*
X45500Y-317900D02*
Y-312204D01*
X32590Y-330810D02*
X45500Y-317900D01*
X60400Y-317500D02*
X70086Y-327186D01*
X60400Y-317500D02*
Y-312304D01*
X65500Y-317602D02*
Y-312204D01*
X70500Y-317900D02*
Y-312204D01*
X120080Y-346900D02*
Y-338808D01*
X119880Y-347100D02*
X120080Y-346900D01*
X107581Y-346929D02*
Y-338808D01*
X107410Y-347100D02*
X107581Y-346929D01*
X94940Y-339541D02*
X95083Y-339398D01*
X94940Y-347100D02*
Y-339541D01*
X95083Y-339398D02*
Y-338808D01*
X82584Y-346986D02*
Y-338808D01*
X82470Y-347100D02*
X82584Y-346986D01*
X70086Y-347014D02*
Y-338808D01*
X70000Y-347100D02*
X70086Y-347014D01*
X57587Y-347043D02*
Y-338808D01*
X57530Y-347100D02*
X57587Y-347043D01*
X45089Y-347071D02*
Y-338808D01*
X45060Y-347100D02*
X45089Y-347071D01*
X119880Y-353800D02*
X119880Y-353800D01*
X119880Y-359050D02*
Y-353800D01*
X107398Y-353812D02*
X107410Y-353800D01*
X107398Y-359050D02*
Y-353812D01*
X94915Y-353824D02*
X94940Y-353800D01*
X94915Y-359050D02*
Y-353824D01*
X82433Y-353837D02*
X82470Y-353800D01*
X82433Y-359050D02*
Y-353837D01*
X69951Y-353849D02*
X70000Y-353800D01*
X69951Y-359050D02*
Y-353849D01*
X57469Y-353861D02*
X57530Y-353800D01*
X57469Y-359050D02*
Y-353861D01*
X44987Y-353873D02*
X45060Y-353800D01*
X44987Y-359050D02*
Y-353873D01*
X32605Y-359050D02*
Y-353815D01*
X32590Y-353800D02*
X32605Y-353815D01*
X32590Y-347100D02*
Y-338808D01*
X141100Y-361800D02*
X215800D01*
X122700Y-380200D02*
X141100Y-361800D01*
X141900Y-363600D02*
X224300D01*
X123500Y-382000D02*
X141900Y-363600D01*
X142900Y-365400D02*
X227143D01*
X124320Y-383980D02*
X142900Y-365400D01*
X143700Y-367200D02*
X235185D01*
X125120Y-385780D02*
X143700Y-367200D01*
X44680Y-73168D02*
X56527Y-61321D01*
X44680Y-86120D02*
Y-73168D01*
X42880Y-65126D02*
X46685Y-61321D01*
X42880Y-85374D02*
Y-65126D01*
X36842Y-61321D02*
X40900Y-65378D01*
Y-84554D02*
Y-65378D01*
X27000Y-61321D02*
X39100Y-73421D01*
Y-83809D02*
Y-73421D01*
X216858Y-360742D02*
Y-356000D01*
X215800Y-361800D02*
X216858Y-360742D01*
X226700Y-361200D02*
Y-356000D01*
X224300Y-363600D02*
X226700Y-361200D01*
X227143Y-365400D02*
X236543Y-356000D01*
X235185Y-367200D02*
X246385Y-356000D01*
X20200Y-110600D02*
X44680Y-86120D01*
X18400Y-109854D02*
X42880Y-85374D01*
X16600Y-108854D02*
X40900Y-84554D01*
X14800Y-108109D02*
X39100Y-83809D01*
X132300Y-302700D02*
X134700Y-300300D01*
X126549Y-302700D02*
X132300D01*
X134700Y-300300D02*
Y-295800D01*
X146815Y-283685D01*
X126549Y-307700D02*
X134400D01*
X153000Y-275700D02*
X174600D01*
X151900Y-273800D02*
X173500D01*
X351700Y-102700D02*
Y-97500D01*
X347754Y-106647D02*
X351700Y-102700D01*
X346547Y-116647D02*
X349700Y-119800D01*
X340857Y-116647D02*
X346547D01*
X349700Y-152100D02*
Y-119800D01*
X339607Y-156193D02*
X344400Y-151400D01*
X342100Y-171500D02*
Y-162100D01*
X340130Y-160130D02*
X342100Y-162100D01*
X334618Y-160130D02*
X340130D01*
X334618Y-156193D02*
X339607D01*
X343700Y-158100D02*
X349700Y-152100D01*
X344400Y-151400D02*
Y-144358D01*
X80500Y-317700D02*
Y-312204D01*
X75500Y-317500D02*
Y-312204D01*
X60400Y-312304D02*
X60500Y-312204D01*
X50500D02*
X50600Y-312304D01*
X80500Y-308303D02*
X83103Y-305700D01*
X80500Y-312204D02*
Y-308303D01*
X99800Y-307700D02*
X103651D01*
X97800Y-305700D02*
X99800Y-307700D01*
X83103Y-305700D02*
X97800D01*
X241695Y-205285D02*
Y-201039D01*
X235057Y-129300D02*
Y-128926D01*
Y-135100D02*
Y-129300D01*
X283400Y-223000D02*
Y-98700D01*
X340857Y-116647D02*
X340900Y-116689D01*
X313446Y-111646D02*
X321566D01*
X313400Y-111600D02*
X313446Y-111646D01*
X300300Y-110400D02*
Y-106757D01*
Y-110400D02*
X305500Y-115600D01*
X287400Y-224800D02*
Y-175500D01*
X287800Y-175100D02*
X324500D01*
X281631Y-230569D02*
X287400Y-224800D01*
X269028Y-230569D02*
X281631D01*
X280832Y-225569D02*
X283400Y-223000D01*
X264600Y-79900D02*
X283400Y-98700D01*
X274443Y-84043D02*
Y-61400D01*
X264600Y-79900D02*
Y-61400D01*
X324500Y-175100D02*
X328857Y-170742D01*
X295200Y-171300D02*
X323400D01*
X269028Y-225569D02*
X280832D01*
X237900Y-187900D02*
Y-173600D01*
Y-187900D02*
X243072Y-193072D01*
X237262Y-173600D02*
X237900D01*
X272565Y-189135D02*
X274500Y-187200D01*
Y-178746D01*
X305500Y-138643D02*
Y-115600D01*
X313100Y-138643D02*
Y-135200D01*
X305500Y-157400D02*
Y-143957D01*
Y-157400D02*
X310199Y-162099D01*
X313100Y-148300D02*
Y-143957D01*
X310600Y-150800D02*
X313100Y-148300D01*
X310600Y-158800D02*
Y-150800D01*
X319800Y-148000D02*
X328857D01*
X317295Y-154225D02*
Y-150505D01*
X319800Y-148000D01*
X318290Y-154225D02*
X318300Y-154215D01*
X317295Y-154225D02*
X318290D01*
X317295Y-158162D02*
X322938D01*
X323067Y-158033D01*
X323400Y-171300D02*
X326500Y-168200D01*
X330187Y-154225D02*
X334618D01*
X326500Y-157912D02*
X330187Y-154225D01*
X326500Y-168200D02*
Y-157912D01*
X328857Y-170742D02*
Y-158100D01*
X334609Y-156203D02*
X334618Y-156193D01*
X330755Y-156203D02*
X334609D01*
X328857Y-158100D02*
X330755Y-156203D01*
X334618Y-158162D02*
X334628Y-158152D01*
X343648D01*
X343700Y-158100D01*
X342100Y-171500D02*
X345500Y-174900D01*
X335500D02*
Y-162108D01*
X335490Y-162099D02*
X335500Y-162108D01*
X334618Y-162099D02*
X335490D01*
X335500Y-174900D02*
X335600Y-174800D01*
X337000Y-148800D02*
Y-144257D01*
X334618Y-151182D02*
X337000Y-148800D01*
X334618Y-154225D02*
Y-151182D01*
X310600Y-158800D02*
X311930Y-160130D01*
X317295D01*
X304900Y-144557D02*
X305500Y-143957D01*
X310199Y-162099D02*
X317295D01*
X333546Y-111646D02*
X333753D01*
X332100Y-113300D02*
X333753Y-111646D01*
X340857D01*
X328400Y-128500D02*
X332100Y-124800D01*
Y-113300D01*
X313100Y-135200D02*
X319800Y-128500D01*
X328400D01*
X321400Y-116812D02*
X321566Y-116647D01*
X321400Y-121100D02*
Y-116812D01*
X321566Y-106647D02*
Y-101646D01*
X300300Y-106757D02*
X307900D01*
X321464Y-101544D02*
X321566Y-101646D01*
X308002Y-101544D02*
X321464D01*
X307900Y-101443D02*
X308002Y-101544D01*
X321566Y-101646D02*
Y-93534D01*
X323800Y-91300D02*
X329542D01*
X321566Y-93534D02*
X323800Y-91300D01*
X334858D02*
X335000Y-91443D01*
Y-96500D02*
Y-91443D01*
X332000Y-110100D02*
Y-99500D01*
X335000Y-96500D01*
X332000Y-110100D02*
X333546Y-111646D01*
X340857D02*
X356226D01*
X356500Y-111372D01*
X356550Y-104878D02*
X356600Y-104828D01*
X356550Y-111322D02*
Y-104878D01*
X356500Y-111372D02*
X356550Y-111322D01*
X353428Y-95772D02*
X356600D01*
X351700Y-97500D02*
X353428Y-95772D01*
X340857Y-106647D02*
X347754D01*
X265487Y-171100D02*
X267530Y-173143D01*
X260700Y-171100D02*
X265487D01*
X271672Y-193072D02*
X276200Y-197600D01*
X267261Y-193072D02*
X271672D01*
X276200Y-208200D02*
Y-197600D01*
X266200Y-208200D02*
Y-195050D01*
X266210Y-195040D01*
X267261D01*
Y-191103D02*
X276103D01*
X276402Y-191402D01*
X261834Y-187166D02*
X267261D01*
X256800Y-192200D02*
X261834Y-187166D01*
X256800Y-221500D02*
Y-192200D01*
X259600Y-192750D02*
X263225Y-189125D01*
X259600Y-223300D02*
Y-192750D01*
X249939Y-187166D02*
Y-181839D01*
X249900Y-181800D02*
X249939Y-181839D01*
X254700Y-190300D02*
Y-187869D01*
X249939Y-187166D02*
X253997D01*
X254700Y-187869D01*
X253906Y-191094D02*
X254700Y-190300D01*
X249939Y-191103D02*
X249948Y-191094D01*
X253906D01*
X267252Y-189125D02*
X267261Y-189135D01*
X263225Y-189125D02*
X267252D01*
X247572Y-230569D02*
X252331D01*
X259600Y-223300D01*
X252731Y-225569D02*
X256800Y-221500D01*
X247572Y-225569D02*
X252731D01*
X274500Y-178746D02*
X274656Y-178590D01*
X267261Y-189135D02*
X272565D01*
X267261Y-187166D02*
Y-178726D01*
X267530Y-178457D01*
X274590Y-173209D02*
X274656Y-173275D01*
X267596Y-173209D02*
X274590D01*
X267530Y-173143D02*
X267596Y-173209D01*
X266203Y-191103D02*
X267261D01*
X266200Y-191100D02*
X266203Y-191103D01*
X229743Y-175193D02*
Y-171100D01*
Y-175193D02*
X231400Y-176850D01*
Y-181796D02*
Y-176850D01*
X227997Y-186085D02*
Y-185199D01*
X231400Y-181796D01*
X235057Y-171395D02*
Y-171100D01*
Y-171395D02*
X237262Y-173600D01*
X243072Y-193072D02*
X249939D01*
X241695Y-201039D02*
X247694Y-195040D01*
X241400Y-205285D02*
X241695D01*
X247694Y-195040D02*
X249939D01*
X230100Y-210600D02*
X241400D01*
X218609Y-190809D02*
X226225D01*
X215506Y-187706D02*
X218609Y-190809D01*
X211643Y-187706D02*
X215506D01*
X227997Y-189038D02*
Y-186085D01*
X226225Y-190809D02*
X227997Y-189038D01*
X204556Y-186534D02*
Y-186426D01*
Y-186534D02*
X205728Y-187706D01*
X211643D01*
X199143Y-194300D02*
X199192Y-194251D01*
Y-186475D01*
X199241Y-186426D01*
X204457Y-202225D02*
Y-194300D01*
X210166D01*
X211446Y-193020D01*
X211643D01*
X214353Y-195534D02*
X220516D01*
X211839Y-193020D02*
X214353Y-195534D01*
X211643Y-193020D02*
X211839D01*
X220516Y-186085D02*
Y-179934D01*
X218315Y-177732D02*
X220516Y-179934D01*
X218315Y-177732D02*
Y-171000D01*
X268800Y-144842D02*
X268900Y-144942D01*
Y-149400D02*
Y-144942D01*
X260440Y-135391D02*
X260500Y-135451D01*
X269962Y-123400D02*
X272905Y-120457D01*
X273200D01*
X255258Y-123400D02*
X255279Y-123379D01*
Y-109953D02*
X255300Y-109932D01*
X249942Y-110289D02*
X250300Y-109932D01*
X253100Y-93542D02*
X253142Y-93500D01*
X208015Y-135200D02*
X216400D01*
X207900Y-103142D02*
X207904Y-103532D01*
X207457Y-102700D02*
X207900Y-103142D01*
X229446Y-126500D02*
X232632D01*
X237519Y-114819D02*
Y-112303D01*
X229446Y-111500D02*
X236716D01*
X237519Y-112303D01*
Y-114819D02*
X237700Y-115000D01*
X210154Y-126500D02*
X217200D01*
X210054Y-126600D02*
X210154Y-126500D01*
X204900Y-126600D02*
X210054D01*
X202700Y-135200D02*
Y-128800D01*
X204900Y-126600D01*
X217600Y-115400D02*
Y-109100D01*
X216042Y-107543D02*
X217600Y-109100D01*
X216042Y-107543D02*
Y-102700D01*
X216500Y-116500D02*
X217600Y-115400D01*
X210154Y-116500D02*
X216500D01*
X210154Y-121500D02*
Y-116500D01*
X221357Y-102700D02*
X229942D01*
X221357D02*
X221690Y-103032D01*
Y-115555D02*
Y-103032D01*
X222635Y-116500D02*
X229446D01*
X221690Y-115555D02*
X222635Y-116500D01*
X202143Y-107142D02*
X205781Y-110781D01*
X202143Y-107142D02*
Y-102700D01*
X221690Y-129890D02*
Y-123148D01*
X229148Y-121798D02*
X229446Y-121500D01*
X223040Y-121798D02*
X229148D01*
X221690Y-123148D02*
X223040Y-121798D01*
X221690Y-129890D02*
X222700Y-130900D01*
X225838D01*
X229743Y-135100D02*
Y-134805D01*
X225838Y-130900D02*
X229743Y-134805D01*
X232632Y-126500D02*
X235057Y-128926D01*
X221815Y-135300D02*
X229542D01*
X229743Y-135100D01*
X215000Y-142800D02*
X216400Y-141400D01*
X171700Y-269500D02*
X183065Y-258135D01*
X149800Y-269500D02*
X171700D01*
X144765Y-274535D02*
X149800Y-269500D01*
X144765Y-282835D02*
Y-274535D01*
X172600Y-271700D02*
X185400Y-258900D01*
X150700Y-271700D02*
X172600D01*
X146815Y-275585D02*
X150700Y-271700D01*
X146815Y-283685D02*
Y-275585D01*
X173500Y-273800D02*
X187800Y-259500D01*
X174600Y-275700D02*
X190300Y-260000D01*
Y-81400D01*
X187800Y-259500D02*
Y-63615D01*
X186285Y-62100D02*
X187800Y-63615D01*
X185400Y-74400D02*
X185400Y-258900D01*
X176443Y-65443D02*
X185400Y-74400D01*
X176443Y-65443D02*
Y-62100D01*
X156757Y-63100D02*
X180900Y-87243D01*
X166600Y-63100D02*
Y-62100D01*
Y-63100D02*
X183065Y-79565D01*
Y-258135D02*
Y-79565D01*
X156757Y-63100D02*
Y-62100D01*
X126549Y-312700D02*
X134000D01*
X142926Y-273174D02*
X148678Y-267422D01*
X129900Y-297700D02*
X144765Y-282835D01*
X126549Y-297700D02*
X129900D01*
X56600Y-283700D02*
X87500D01*
X45500Y-294800D02*
X56600Y-283700D01*
X45500Y-312204D02*
Y-294800D01*
X58200Y-286000D02*
X89000D01*
X50500Y-293700D02*
X58200Y-286000D01*
X50500Y-312204D02*
Y-293700D01*
X59600Y-288700D02*
X89900D01*
X55500Y-292800D02*
X59600Y-288700D01*
X55500Y-312204D02*
Y-292800D01*
X89000Y-286000D02*
X97300Y-277700D01*
X103651D01*
X95900Y-282700D02*
X103651D01*
X89900Y-288700D02*
X95900Y-282700D01*
X94500Y-292700D02*
X103651D01*
X92000Y-295200D02*
X94500Y-292700D01*
X72500Y-295200D02*
X92000D01*
X65400Y-302300D02*
X72500Y-295200D01*
X65400Y-312104D02*
Y-302300D01*
X75500Y-312204D02*
X75600Y-312104D01*
Y-306700D01*
X79600Y-302700D02*
X103651D01*
X75600Y-306700D02*
X79600Y-302700D01*
X76600Y-297700D02*
X103651D01*
X70500Y-312204D02*
Y-303800D01*
X76600Y-297700D01*
X65400Y-312104D02*
X65500Y-312204D01*
X95300Y-287700D02*
X103651D01*
X91900Y-291100D02*
X95300Y-287700D01*
X63100Y-291100D02*
X91900D01*
X60500Y-293700D02*
X63100Y-291100D01*
X60500Y-312204D02*
Y-293700D01*
X96800Y-274400D02*
X108489D01*
X87500Y-283700D02*
X96800Y-274400D01*
X116789Y-282700D02*
X126549D01*
X108489Y-274400D02*
X116789Y-282700D01*
X128288Y-200606D02*
X129295D01*
X94036D02*
X95095D01*
D57*
X227400Y-151300D02*
D03*
X221700Y-84200D02*
D03*
X207700Y-84400D02*
D03*
X324600Y-138900D02*
D03*
X295500Y-138600D02*
D03*
X229800Y-161100D02*
D03*
D58*
X229743Y-171100D02*
D03*
X235057D02*
D03*
X227100Y-283500D02*
D03*
X221785D02*
D03*
X329542Y-91300D02*
D03*
X334858D02*
D03*
X216458Y-216600D02*
D03*
X211142D02*
D03*
X265815Y-154337D02*
D03*
X260500D02*
D03*
X247143Y-154400D02*
D03*
X252457D02*
D03*
X229942Y-102700D02*
D03*
X235258D02*
D03*
X235057Y-135100D02*
D03*
X229743D02*
D03*
X221815Y-135300D02*
D03*
X216500D02*
D03*
X202700Y-135200D02*
D03*
X208015D02*
D03*
X204457Y-202225D02*
D03*
X199143D02*
D03*
X213000Y-171000D02*
D03*
X218315D02*
D03*
X204457Y-194300D02*
D03*
X199143D02*
D03*
X199241Y-186426D02*
D03*
X204556D02*
D03*
X202143Y-102700D02*
D03*
X207457D02*
D03*
X221357D02*
D03*
X216042D02*
D03*
D59*
X321917Y-210187D02*
D03*
Y-201132D02*
D03*
Y-192076D02*
D03*
X224849Y-253545D02*
D03*
Y-262600D02*
D03*
Y-271655D02*
D03*
D60*
X299083Y-201132D02*
D03*
X202014Y-262600D02*
D03*
D61*
X335700Y-209658D02*
D03*
Y-204343D02*
D03*
X211643Y-187706D02*
D03*
Y-193020D02*
D03*
X268800Y-144842D02*
D03*
Y-139527D02*
D03*
X237632Y-270458D02*
D03*
Y-265142D02*
D03*
X244500Y-139542D02*
D03*
Y-144858D02*
D03*
D62*
X335700Y-190300D02*
D03*
Y-198300D02*
D03*
X237931Y-258800D02*
D03*
Y-250800D02*
D03*
D63*
X120080Y-333493D02*
D03*
Y-338808D02*
D03*
X107581Y-333493D02*
D03*
Y-338808D02*
D03*
X32590Y-333493D02*
D03*
Y-338808D02*
D03*
X70086Y-333493D02*
D03*
Y-338808D02*
D03*
X57587Y-333493D02*
D03*
Y-338808D02*
D03*
X45089Y-333493D02*
D03*
Y-338808D02*
D03*
X82584Y-333493D02*
D03*
Y-338808D02*
D03*
X95083Y-333493D02*
D03*
Y-338808D02*
D03*
X344400Y-144358D02*
D03*
Y-139042D02*
D03*
X337000Y-144257D02*
D03*
Y-138943D02*
D03*
X313100Y-138643D02*
D03*
Y-143957D02*
D03*
X305500Y-138643D02*
D03*
Y-143957D02*
D03*
X307900Y-101443D02*
D03*
Y-106757D02*
D03*
X300300D02*
D03*
Y-101443D02*
D03*
X199300Y-233958D02*
D03*
Y-228643D02*
D03*
X273200Y-101943D02*
D03*
Y-107257D02*
D03*
Y-115143D02*
D03*
Y-120457D02*
D03*
X267530Y-178457D02*
D03*
Y-173143D02*
D03*
X274656Y-178590D02*
D03*
Y-173275D02*
D03*
X241400Y-205285D02*
D03*
Y-210600D02*
D03*
X230000Y-228443D02*
D03*
Y-233757D02*
D03*
D64*
X119880Y-347100D02*
D03*
Y-353800D02*
D03*
X32590Y-347100D02*
D03*
Y-353800D02*
D03*
X45060Y-347100D02*
D03*
Y-353800D02*
D03*
X57530Y-347100D02*
D03*
Y-353800D02*
D03*
X70000Y-347100D02*
D03*
Y-353800D02*
D03*
X82470Y-347100D02*
D03*
Y-353800D02*
D03*
X94940Y-347100D02*
D03*
Y-353800D02*
D03*
X107410Y-347100D02*
D03*
Y-353800D02*
D03*
D65*
X207900Y-283475D02*
D03*
X201200D02*
D03*
D66*
X265243Y-243900D02*
D03*
X270557D02*
D03*
X246042D02*
D03*
X251358D02*
D03*
X258457Y-93500D02*
D03*
X253142D02*
D03*
X249942Y-123400D02*
D03*
X255258D02*
D03*
X356600Y-95772D02*
D03*
Y-104828D02*
D03*
X356500Y-111372D02*
D03*
Y-120428D02*
D03*
D67*
X317295Y-154225D02*
D03*
Y-156193D02*
D03*
Y-158162D02*
D03*
Y-160130D02*
D03*
Y-162099D02*
D03*
X334618Y-154225D02*
D03*
Y-156193D02*
D03*
Y-158162D02*
D03*
Y-160130D02*
D03*
Y-162099D02*
D03*
X267261Y-195040D02*
D03*
Y-193072D02*
D03*
Y-191103D02*
D03*
Y-189135D02*
D03*
Y-187166D02*
D03*
X249939Y-195040D02*
D03*
Y-193072D02*
D03*
Y-191103D02*
D03*
Y-189135D02*
D03*
Y-187166D02*
D03*
D68*
X269028Y-235568D02*
D03*
Y-230569D02*
D03*
Y-225569D02*
D03*
Y-220568D02*
D03*
X247572Y-235568D02*
D03*
Y-230569D02*
D03*
Y-225569D02*
D03*
Y-220568D02*
D03*
D69*
X218000Y-227100D02*
D03*
X214260D02*
D03*
X210520D02*
D03*
X218000Y-236549D02*
D03*
X210520D02*
D03*
D70*
X227997Y-186085D02*
D03*
X224257D02*
D03*
X220516D02*
D03*
Y-195534D02*
D03*
X224257D02*
D03*
X227997D02*
D03*
X260440Y-144840D02*
D03*
X252960D02*
D03*
Y-135391D02*
D03*
X256700D02*
D03*
X260440D02*
D03*
D71*
X213240Y-143366D02*
D03*
X205760D02*
D03*
X209500Y-151634D02*
D03*
D72*
X210154Y-111500D02*
D03*
Y-116500D02*
D03*
Y-121500D02*
D03*
Y-126500D02*
D03*
X229446Y-111500D02*
D03*
Y-116500D02*
D03*
Y-121500D02*
D03*
Y-126500D02*
D03*
X321566Y-101646D02*
D03*
Y-106647D02*
D03*
Y-111646D02*
D03*
Y-116647D02*
D03*
X340857Y-101646D02*
D03*
Y-106647D02*
D03*
Y-111646D02*
D03*
Y-116647D02*
D03*
D73*
X45500Y-312204D02*
D03*
X50500D02*
D03*
X55500D02*
D03*
X60500D02*
D03*
X65500D02*
D03*
X70500D02*
D03*
X75500D02*
D03*
X80500D02*
D03*
X85500D02*
D03*
Y-275196D02*
D03*
X80500D02*
D03*
X75500D02*
D03*
X70500D02*
D03*
X65500D02*
D03*
X60500D02*
D03*
X55500D02*
D03*
X50500D02*
D03*
X45500D02*
D03*
D74*
X103651Y-277700D02*
D03*
Y-282700D02*
D03*
Y-287700D02*
D03*
Y-292700D02*
D03*
Y-297700D02*
D03*
Y-302700D02*
D03*
Y-307700D02*
D03*
Y-312700D02*
D03*
X126549Y-277700D02*
D03*
Y-282700D02*
D03*
Y-287700D02*
D03*
Y-292700D02*
D03*
Y-297700D02*
D03*
Y-302700D02*
D03*
Y-307700D02*
D03*
Y-312700D02*
D03*
D75*
X221700Y-84200D02*
X230600D01*
Y-62700D01*
X235258Y-102700D02*
Y-88858D01*
X230600Y-84200D02*
X235258Y-88858D01*
D76*
X298735Y-300965D02*
X360500Y-239200D01*
X315271Y-316106D02*
X358820Y-272557D01*
X282200Y-287700D02*
X350385Y-219515D01*
X365500D01*
X282200Y-316106D02*
Y-287700D01*
X360500Y-239200D02*
X365500D01*
X298735Y-316106D02*
Y-300965D01*
X358820Y-272557D02*
X365500D01*
D77*
X85500Y-275196D02*
Y-273078D01*
X89378Y-269200D01*
X93900D01*
X344000Y-70400D02*
X365900Y-92300D01*
X317100Y-70400D02*
X344000D01*
X365900Y-105100D02*
Y-92300D01*
X380900Y-156400D02*
Y-120100D01*
X365900Y-105100D02*
X380900Y-120100D01*
Y-156400D02*
X381000Y-156500D01*
Y-257057D02*
Y-156500D01*
X365500Y-272557D02*
X381000Y-257057D01*
X175100Y-280900D02*
X210306Y-316106D01*
X157700Y-280900D02*
X175100D01*
X344350Y-138993D02*
X344400Y-139042D01*
X337050Y-138993D02*
X344350D01*
X337000Y-138943D02*
X337050Y-138993D01*
X310500Y-201132D02*
X321917D01*
X299083D02*
X310500D01*
X337000Y-138943D02*
Y-133300D01*
X310500Y-201132D02*
Y-196800D01*
X344800Y-190300D02*
X365500Y-211000D01*
X335700Y-190300D02*
X344800D01*
X327884Y-204343D02*
X335700D01*
X324673Y-201132D02*
X327884Y-204343D01*
X321917Y-201132D02*
X324673D01*
X321917Y-192076D02*
X333024D01*
X334800Y-190300D01*
X335700D01*
X210306Y-316106D02*
X282200D01*
X208100Y-327000D02*
X289900D01*
X171000Y-289900D02*
X208100Y-327000D01*
X289900D02*
X298735Y-318165D01*
Y-316106D01*
X198600Y-173100D02*
X203300D01*
X205400Y-171000D01*
X213000D01*
D78*
X270557Y-243900D02*
X275200D01*
X214200Y-334600D02*
X227000Y-347400D01*
X298600D01*
Y-337895D01*
X298735Y-337760D01*
X230860D02*
X282472D01*
X227600Y-334500D02*
X230860Y-337760D01*
X349100Y-158100D02*
X365500Y-174500D01*
X343700Y-158100D02*
X349100D01*
X365500Y-211000D02*
Y-174500D01*
Y-219515D02*
Y-211000D01*
X313200Y-210200D02*
X313213Y-210187D01*
X313000Y-210200D02*
X313200D01*
X313213Y-210187D02*
X321917D01*
X335435Y-209922D02*
X335700Y-209658D01*
X322182Y-209922D02*
X335435D01*
X321917Y-210187D02*
X322182Y-209922D01*
X342200Y-208193D02*
Y-200064D01*
X335700Y-198300D02*
X336000Y-198600D01*
X340736D01*
X342200Y-200064D01*
X335700Y-209658D02*
X340736D01*
X342200Y-208193D01*
X93200Y-312700D02*
X103651D01*
X92800Y-312300D02*
X93200Y-312700D01*
X92704Y-312204D02*
X92800Y-312300D01*
X85500Y-312204D02*
X92704D01*
X89678Y-319000D02*
X93000D01*
X85500Y-314822D02*
X89678Y-319000D01*
X85500Y-314822D02*
Y-312204D01*
X207900Y-283475D02*
X207913Y-283487D01*
X221772D01*
X221785Y-283500D01*
X201200Y-283475D02*
X201400D01*
X203868Y-281007D01*
Y-280791D01*
X204984Y-279675D01*
X205625D01*
X214200Y-271100D01*
X268800Y-139527D02*
Y-136000D01*
X247000Y-154543D02*
X247143Y-154400D01*
X247000Y-158700D02*
Y-154543D01*
X244500Y-148500D02*
Y-144858D01*
X256700Y-140116D02*
Y-135391D01*
Y-140116D02*
X256700Y-140116D01*
X269028Y-220568D02*
X276031D01*
X276100Y-220500D01*
X103651Y-312700D02*
X111100D01*
D79*
X298600Y-201614D02*
X299083Y-201132D01*
X298600Y-219200D02*
Y-201614D01*
X282231Y-235568D02*
X298600Y-219200D01*
X269028Y-235568D02*
X282231D01*
X227100Y-283500D02*
X229942D01*
X227500Y-253545D02*
X234287D01*
X255258Y-123400D02*
X269962D01*
X202262Y-236624D02*
X210520D01*
X205727Y-143333D02*
X205760Y-143366D01*
X201333Y-143333D02*
X205727D01*
X201300Y-143300D02*
X201333Y-143333D01*
X300200Y-67700D02*
Y-56800D01*
X293000Y-49600D02*
X300200Y-56800D01*
X252185Y-49600D02*
X293000D01*
X240385Y-61400D02*
Y-60400D01*
X242885Y-57900D01*
X243885D01*
X252185Y-49600D01*
X300200Y-67700D02*
X312800Y-80300D01*
X336400D01*
X340900Y-84800D01*
Y-97300D02*
Y-84800D01*
X340857Y-101646D02*
X340900Y-101604D01*
Y-97300D01*
X356500Y-124300D02*
Y-120428D01*
Y-124300D02*
X356700Y-124500D01*
X300300Y-101443D02*
Y-96700D01*
X273200Y-101943D02*
Y-97200D01*
X265243Y-243900D02*
Y-237681D01*
X267355Y-235568D01*
X269028D01*
X126499Y-277750D02*
X126549Y-277700D01*
X118750Y-277750D02*
X126499D01*
X118700Y-277800D02*
X118750Y-277750D01*
X237800Y-245300D02*
Y-238300D01*
Y-245398D02*
Y-245300D01*
X246042Y-256457D02*
Y-243900D01*
X243700Y-258800D02*
X246042Y-256457D01*
X237931Y-258800D02*
X243700D01*
X240531Y-235568D02*
X247572D01*
X237800Y-238300D02*
X240531Y-235568D01*
X237931Y-250800D02*
Y-245530D01*
X237800Y-245398D02*
X237931Y-245530D01*
X251358Y-243900D02*
Y-237681D01*
X249245Y-235568D02*
X251358Y-237681D01*
X247572Y-235568D02*
X249245D01*
X229800Y-216000D02*
X234100D01*
X234000Y-220568D02*
X247572D01*
X214100Y-211000D02*
X224800D01*
X229800Y-216000D01*
X211142Y-216600D02*
X211914Y-215828D01*
Y-213186D01*
X214100Y-211000D01*
X224363Y-271169D02*
X224849Y-271655D01*
X214269Y-271169D02*
X224363D01*
X214200Y-271100D02*
X214269Y-271169D01*
X199143Y-208043D02*
X199200Y-208100D01*
X199131Y-208031D02*
X199143Y-208043D01*
X224257Y-186085D02*
X224536Y-185805D01*
Y-182457D01*
X227892Y-179100D01*
X224257Y-195534D02*
X224536Y-195813D01*
Y-199579D02*
Y-195813D01*
Y-199579D02*
X227157Y-202200D01*
X218000Y-236549D02*
Y-235958D01*
X220559Y-233399D01*
Y-231824D01*
X214260Y-227100D02*
X214638Y-227478D01*
Y-231218D02*
Y-227478D01*
Y-231218D02*
X215244Y-231824D01*
X218000Y-227100D02*
Y-218438D01*
X216458Y-216895D02*
X218000Y-218438D01*
X216458Y-216895D02*
Y-216600D01*
X214260Y-227100D02*
Y-222131D01*
X211914Y-219786D02*
X214260Y-222131D01*
X211914Y-219786D02*
Y-217372D01*
X211142Y-216600D02*
X211914Y-217372D01*
X234287Y-253545D02*
X237032Y-250800D01*
X237931D01*
Y-258800D02*
X238931Y-259800D01*
X241700D01*
X242800Y-260900D01*
Y-269286D02*
Y-260900D01*
X237632Y-270458D02*
X241628D01*
X242800Y-269286D01*
X224849Y-271655D02*
X236237D01*
X237435Y-270458D01*
X237632D01*
X230147Y-265142D02*
X237632D01*
X227605Y-262600D02*
X230147Y-265142D01*
X224849Y-262600D02*
X227605D01*
X218000Y-243600D02*
Y-236549D01*
X215300Y-246300D02*
X218000Y-243600D01*
X202014Y-248886D02*
X204600Y-246300D01*
X215300D01*
X202014Y-262600D02*
Y-248886D01*
Y-262600D02*
X224849D01*
X210520Y-236549D02*
Y-227100D01*
X218752Y-228443D02*
X230000D01*
X218000Y-227691D02*
X218752Y-228443D01*
X218000Y-227691D02*
Y-227100D01*
X218940Y-236624D02*
X226838D01*
X229705Y-233757D01*
X230000D01*
X199595Y-233958D02*
X202262Y-236624D01*
X199300Y-233958D02*
X199595D01*
X199250Y-228592D02*
X199300Y-228643D01*
X199250Y-228592D02*
Y-208150D01*
X199200Y-208100D02*
X199250Y-208150D01*
X74050Y-102550D02*
X74300Y-102300D01*
X74050Y-128750D02*
Y-102550D01*
X199143Y-208043D02*
Y-202225D01*
X254411Y-131100D02*
X259269D01*
X260161Y-135112D02*
X260440Y-135391D01*
X260161Y-135112D02*
Y-131992D01*
X259269Y-131100D02*
X260161Y-131992D01*
X253239Y-135112D02*
Y-132272D01*
X254411Y-131100D01*
X252960Y-135391D02*
X253239Y-135112D01*
X244500Y-138157D02*
Y-131200D01*
Y-139542D02*
Y-138157D01*
X240442Y-62700D02*
X240700Y-62958D01*
Y-82300D02*
Y-62958D01*
Y-82300D02*
X242500Y-84100D01*
Y-129200D02*
Y-84100D01*
Y-129200D02*
X244500Y-131200D01*
Y-138157D02*
X247266Y-135391D01*
X252960D01*
X265847Y-144841D02*
X268799D01*
X260441D02*
X265847D01*
X268799D02*
X268800Y-144842D01*
X260440Y-144840D02*
X260441Y-144841D01*
X265815Y-154337D02*
Y-144873D01*
X265847Y-144841D01*
X252489Y-154368D02*
X252709Y-154149D01*
X252457Y-154400D02*
X252489Y-154368D01*
X252709Y-154149D02*
Y-145091D01*
X252960Y-144840D01*
X252489Y-154368D02*
X260469D01*
X260500Y-154337D01*
X273200Y-115143D02*
Y-107257D01*
X255279Y-123379D02*
Y-109953D01*
X249942Y-123400D02*
Y-110289D01*
X258457Y-97357D02*
Y-93500D01*
X260300Y-109932D02*
Y-99200D01*
X258457Y-97357D02*
X260300Y-99200D01*
X253100Y-96900D02*
Y-93542D01*
X250300Y-99700D02*
X253100Y-96900D01*
X250300Y-109932D02*
Y-99700D01*
X197900Y-111500D02*
X210154D01*
X162800Y-257300D02*
Y-246015D01*
X158000Y-262100D02*
X162800Y-257300D01*
X88600Y-262100D02*
X158000D01*
X162800Y-246015D02*
X162934Y-245881D01*
X127998Y-83862D02*
X140650Y-96514D01*
Y-140650D02*
Y-96514D01*
Y-140650D02*
X153300Y-153300D01*
Y-181300D02*
Y-153300D01*
Y-181300D02*
X162934Y-190934D01*
X162700Y-156635D02*
X173200Y-167135D01*
Y-207600D02*
Y-167135D01*
X160500Y-220300D02*
X173200Y-207600D01*
X162934Y-200606D02*
Y-190934D01*
X106700Y-220300D02*
X160500D01*
X80500Y-270200D02*
X88600Y-262100D01*
X80500Y-275196D02*
Y-270200D01*
X128288Y-254212D02*
Y-245881D01*
X123900Y-258600D02*
X128288Y-254212D01*
X87400Y-258600D02*
X123900D01*
X75681Y-270319D02*
X87400Y-258600D01*
X75500Y-275196D02*
X75681Y-275015D01*
Y-270319D01*
X94036Y-246064D02*
Y-245881D01*
X70681Y-269419D02*
X94036Y-246064D01*
X70500Y-275196D02*
X70681Y-275015D01*
Y-269419D01*
X65500Y-275196D02*
Y-268600D01*
X85300Y-248800D02*
Y-241700D01*
X65500Y-268600D02*
X85300Y-248800D01*
Y-241700D02*
X106700Y-220300D01*
X130000Y-214000D02*
X139800Y-204200D01*
X102600Y-214000D02*
X130000D01*
X82000Y-234600D02*
X102600Y-214000D01*
X127998Y-156781D02*
Y-156697D01*
Y-156781D02*
X139800Y-168582D01*
Y-204200D02*
Y-168582D01*
X70900Y-234600D02*
X82000D01*
X67100Y-258400D02*
Y-238400D01*
X70900Y-234600D01*
X60500Y-275196D02*
Y-265000D01*
X67100Y-258400D01*
X58700Y-246178D02*
X58997Y-245881D01*
X58700Y-256800D02*
Y-246178D01*
X55500Y-275196D02*
Y-260000D01*
X58700Y-256800D01*
X92203Y-156697D02*
X93550D01*
X79400Y-169500D02*
X92203Y-156697D01*
X50500Y-275196D02*
Y-230500D01*
X79400Y-201600D01*
Y-169500D01*
X45500Y-275196D02*
Y-272440D01*
X30700Y-257640D02*
X45500Y-272440D01*
X30700Y-257640D02*
Y-239900D01*
X45000Y-225600D01*
Y-170798D02*
X59101Y-156697D01*
X45000Y-225600D02*
Y-170798D01*
X119172Y-191490D02*
Y-154872D01*
X84200Y-119900D02*
X119172Y-154872D01*
X84200Y-119900D02*
Y-106700D01*
X93550Y-97350D01*
Y-83862D01*
X119172Y-191490D02*
X128288Y-200606D01*
X58461Y-156058D02*
X59101Y-156697D01*
X93062Y-156209D02*
X93550Y-156697D01*
D80*
X59101D02*
D03*
Y-111421D02*
D03*
Y-83862D02*
D03*
X40597Y-156697D02*
D03*
X93550D02*
D03*
Y-111421D02*
D03*
Y-83862D02*
D03*
X75046Y-156697D02*
D03*
X127998D02*
D03*
Y-111421D02*
D03*
Y-83862D02*
D03*
X109494Y-156697D02*
D03*
X162700Y-156635D02*
D03*
Y-111359D02*
D03*
Y-83800D02*
D03*
X144196Y-156635D02*
D03*
X162934Y-245881D02*
D03*
Y-200606D02*
D03*
Y-173047D02*
D03*
X144430Y-245881D02*
D03*
X40493D02*
D03*
X58997Y-173047D02*
D03*
Y-200606D02*
D03*
Y-245881D02*
D03*
X109784D02*
D03*
X128288Y-173047D02*
D03*
Y-200606D02*
D03*
Y-245881D02*
D03*
X75532D02*
D03*
X94036Y-173047D02*
D03*
Y-200606D02*
D03*
Y-245881D02*
D03*
D81*
X36842Y-61321D02*
D03*
X27000D02*
D03*
X46685D02*
D03*
X236543Y-356000D02*
D03*
X246385D02*
D03*
X226700D02*
D03*
D82*
X56527Y-61321D02*
D03*
X216858Y-356000D02*
D03*
D83*
X220700Y-61400D02*
D03*
X230542D02*
D03*
X264600D02*
D03*
X274443D02*
D03*
X186285Y-62100D02*
D03*
X176443D02*
D03*
X166600D02*
D03*
X156757D02*
D03*
X146915D02*
D03*
D84*
X240385Y-61400D02*
D03*
X284285D02*
D03*
X196128Y-62100D02*
D03*
D85*
X109442Y-44300D02*
D03*
X339442D02*
D03*
X365500Y-292243D02*
D03*
Y-239200D02*
D03*
D86*
X89758Y-44300D02*
D03*
X319758D02*
D03*
D87*
X282200Y-316106D02*
D03*
X298735D02*
D03*
X315271D02*
D03*
Y-337760D02*
D03*
X298735D02*
D03*
X282472D02*
D03*
D88*
X282200Y-366500D02*
D03*
X315271D02*
D03*
D89*
X365500Y-272557D02*
D03*
Y-219515D02*
D03*
D90*
X266200Y-208200D02*
D03*
X335500Y-174900D02*
D03*
D91*
X276200Y-208200D02*
D03*
X345500Y-174900D02*
D03*
D92*
X250300Y-109932D02*
D03*
D93*
X255300D02*
D03*
X260300D02*
D03*
D94*
X381890Y-381890D02*
D03*
X11811D02*
D03*
X381890Y-86614D02*
D03*
X11811D02*
D03*
D95*
X32605Y-359050D02*
D03*
X275200Y-243900D02*
D03*
X337000Y-133300D02*
D03*
X310500Y-196800D02*
D03*
X313000Y-210200D02*
D03*
X92800Y-312300D02*
D03*
X93000Y-319000D02*
D03*
X229942Y-283500D02*
D03*
X57469Y-359050D02*
D03*
X119880D02*
D03*
X107398D02*
D03*
X94915D02*
D03*
X82433D02*
D03*
X69951D02*
D03*
X44987D02*
D03*
X201300Y-143300D02*
D03*
X260300Y-123500D02*
D03*
X313400Y-111600D02*
D03*
X283300Y-171300D02*
D03*
X356700Y-124500D02*
D03*
X300300Y-96700D02*
D03*
X273200Y-97200D02*
D03*
X268800Y-136000D02*
D03*
X247000Y-158700D02*
D03*
X244500Y-148500D02*
D03*
X256700Y-140116D02*
D03*
X276100Y-220500D02*
D03*
X118700Y-277800D02*
D03*
X111100Y-312700D02*
D03*
X295200Y-171300D02*
D03*
X328857Y-148000D02*
D03*
X323067Y-158033D02*
D03*
X343700Y-158100D02*
D03*
X321400Y-121100D02*
D03*
X340900Y-97300D02*
D03*
X237800Y-245300D02*
D03*
X260700Y-171100D02*
D03*
X276402Y-191402D02*
D03*
X249900Y-181800D02*
D03*
X234100Y-216000D02*
D03*
X234000Y-220568D02*
D03*
X227892Y-179100D02*
D03*
X227157Y-202200D02*
D03*
X220559Y-231824D02*
D03*
X215244D02*
D03*
X199200Y-208100D02*
D03*
X268900Y-149400D02*
D03*
X235057Y-129300D02*
D03*
X207904Y-103532D02*
D03*
X237700Y-115000D02*
D03*
X217200Y-126500D02*
D03*
X190300Y-81400D02*
D03*
X178500Y-101300D02*
D03*
D96*
X93900Y-269200D02*
D03*
X317100Y-70400D02*
D03*
X171000Y-289900D02*
D03*
X157700Y-280900D02*
D03*
X214200Y-334600D02*
D03*
X227600Y-334500D02*
D03*
X227500Y-253400D02*
D03*
X214200Y-271100D02*
D03*
X198600Y-173100D02*
D03*
X74050Y-128750D02*
D03*
X54800Y-102300D02*
D03*
X74300D02*
D03*
X59675D02*
D03*
X64550D02*
D03*
X69425D02*
D03*
X54700Y-97900D02*
D03*
X74200D02*
D03*
X59575D02*
D03*
X64450D02*
D03*
X69325D02*
D03*
X69425Y-93500D02*
D03*
X64550D02*
D03*
X59675D02*
D03*
X74300D02*
D03*
X54800D02*
D03*
X197900Y-111500D02*
D03*
D97*
X331200Y-301900D02*
D03*
X331100Y-270800D02*
D03*
X330000Y-234000D02*
D03*
X340600Y-224100D02*
D03*
X342300Y-260200D02*
D03*
X342400Y-291600D02*
D03*
X366900Y-338900D02*
D03*
X352000D02*
D03*
Y-325200D02*
D03*
X366900D02*
D03*
M02*
