G04*
G04 #@! TF.GenerationSoftware,Altium Limited,Altium Designer,20.0.2 (26)*
G04*
G04 Layer_Color=32896*
%FSLAX25Y25*%
%MOIN*%
G70*
G01*
G75*
%ADD12C,0.01000*%
%ADD14C,0.00787*%
%ADD15C,0.00800*%
%ADD20C,0.00600*%
G36*
X255885Y-240019D02*
X255942Y-240073D01*
X256008Y-240158D01*
X256078Y-240271D01*
X256153Y-240408D01*
X256228Y-240564D01*
X256302Y-240737D01*
X256374Y-240922D01*
X256393Y-240976D01*
X256411Y-241029D01*
X256428Y-241080D01*
X256445Y-241131D01*
X256459Y-241179D01*
X256473Y-241227D01*
X256486Y-241273D01*
X256498Y-241318D01*
X256509Y-241361D01*
X256519Y-241403D01*
X256527Y-241443D01*
X256535Y-241482D01*
X256541Y-241520D01*
X256547Y-241556D01*
X256551Y-241591D01*
X256554Y-241623D01*
X256556Y-241655D01*
X256557Y-241685D01*
X256557Y-241713D01*
X256556Y-241740D01*
X256554Y-241765D01*
X256551Y-241788D01*
X256546Y-241810D01*
X256541Y-241830D01*
X256534Y-241848D01*
X256527Y-241865D01*
X256518Y-241880D01*
X256508Y-241893D01*
X256497Y-241904D01*
X256485Y-241914D01*
X256472Y-241921D01*
X256458Y-241927D01*
X256384Y-241959D01*
X256270Y-242017D01*
X256122Y-242098D01*
X255944Y-242199D01*
X255744Y-242317D01*
X255526Y-242447D01*
X255297Y-242588D01*
X255061Y-242735D01*
X254993Y-242779D01*
X254924Y-242825D01*
X254857Y-242870D01*
X254789Y-242917D01*
X254723Y-242965D01*
X254657Y-243013D01*
X254591Y-243062D01*
X254526Y-243112D01*
X254462Y-243163D01*
X254399Y-243215D01*
X254336Y-243267D01*
X254274Y-243320D01*
X254212Y-243373D01*
X254151Y-243428D01*
X254091Y-243483D01*
X254031Y-243538D01*
X253972Y-243595D01*
X253914Y-243652D01*
X253857Y-243709D01*
X253801Y-243767D01*
X253745Y-243826D01*
X253690Y-243885D01*
X253636Y-243944D01*
X253582Y-244004D01*
X253530Y-244065D01*
X253478Y-244126D01*
X253427Y-244187D01*
X253377Y-244250D01*
X253328Y-244312D01*
X253279Y-244375D01*
X253232Y-244438D01*
X253186Y-244501D01*
X253140Y-244565D01*
X253095Y-244629D01*
X253052Y-244694D01*
X253009Y-244758D01*
X252967Y-244823D01*
X252927Y-244888D01*
X252887Y-244954D01*
X252848Y-245020D01*
X252811Y-245086D01*
X252774Y-245152D01*
X252738Y-245218D01*
X252704Y-245284D01*
X252671Y-245351D01*
X252638Y-245417D01*
X252607Y-245484D01*
X252577Y-245551D01*
X252548Y-245618D01*
X252520Y-245685D01*
X252493Y-245752D01*
X252468Y-245819D01*
X252443Y-245886D01*
X252420Y-245953D01*
X252398Y-246019D01*
X252378Y-246086D01*
X252358Y-246153D01*
X252340Y-246219D01*
X252323Y-246286D01*
X252307Y-246352D01*
X252293Y-246418D01*
X252279Y-246484D01*
X252268Y-246550D01*
X252257Y-246616D01*
X252092Y-247715D01*
X249632D01*
X249787Y-246782D01*
X249800Y-246708D01*
X249815Y-246633D01*
X249831Y-246556D01*
X249848Y-246479D01*
X249867Y-246401D01*
X249887Y-246322D01*
X249909Y-246241D01*
X249932Y-246160D01*
X249956Y-246079D01*
X249981Y-245996D01*
X250008Y-245913D01*
X250036Y-245829D01*
X250065Y-245744D01*
X250095Y-245659D01*
X250126Y-245574D01*
X250158Y-245488D01*
X250192Y-245402D01*
X250226Y-245315D01*
X250262Y-245229D01*
X250298Y-245142D01*
X250335Y-245054D01*
X250374Y-244967D01*
X250413Y-244880D01*
X250453Y-244792D01*
X250494Y-244705D01*
X250535Y-244618D01*
X250578Y-244531D01*
X250621Y-244444D01*
X250665Y-244357D01*
X250710Y-244271D01*
X250755Y-244185D01*
X250801Y-244099D01*
X250847Y-244014D01*
X250894Y-243929D01*
X250942Y-243845D01*
X250990Y-243762D01*
X251039Y-243679D01*
X251088Y-243597D01*
X251138Y-243516D01*
X251188Y-243436D01*
X251238Y-243356D01*
X251289Y-243278D01*
X251340Y-243200D01*
X251391Y-243124D01*
X251443Y-243048D01*
X251495Y-242974D01*
X251547Y-242901D01*
X251599Y-242829D01*
X251652Y-242758D01*
X251704Y-242689D01*
X251757Y-242621D01*
X251809Y-242555D01*
X251862Y-242490D01*
X251915Y-242427D01*
X251968Y-242365D01*
X252020Y-242305D01*
X252073Y-242247D01*
X252126Y-242190D01*
X252178Y-242136D01*
X252230Y-242083D01*
X252282Y-242032D01*
X252334Y-241983D01*
X252386Y-241936D01*
X252437Y-241891D01*
X252481Y-241854D01*
X252527Y-241816D01*
X252574Y-241778D01*
X252622Y-241740D01*
X252672Y-241701D01*
X252723Y-241662D01*
X252775Y-241623D01*
X252829Y-241583D01*
X252883Y-241544D01*
X252938Y-241504D01*
X252995Y-241464D01*
X253052Y-241424D01*
X253110Y-241383D01*
X253169Y-241343D01*
X253229Y-241303D01*
X253289Y-241263D01*
X253350Y-241222D01*
X253411Y-241182D01*
X253473Y-241142D01*
X253536Y-241103D01*
X253599Y-241063D01*
X253662Y-241024D01*
X253725Y-240985D01*
X253789Y-240946D01*
X253853Y-240907D01*
X253917Y-240869D01*
X253980Y-240831D01*
X254044Y-240794D01*
X254108Y-240757D01*
X254172Y-240721D01*
X254235Y-240685D01*
X254298Y-240650D01*
X254361Y-240615D01*
X254424Y-240581D01*
X254486Y-240547D01*
X254547Y-240514D01*
X254608Y-240482D01*
X254669Y-240451D01*
X254729Y-240420D01*
X254788Y-240390D01*
X254846Y-240361D01*
X254903Y-240333D01*
X254960Y-240306D01*
X255015Y-240280D01*
X255070Y-240254D01*
X255124Y-240230D01*
X255176Y-240207D01*
X255227Y-240185D01*
X255277Y-240164D01*
X255326Y-240144D01*
X255373Y-240125D01*
X255419Y-240107D01*
X255463Y-240091D01*
X255506Y-240076D01*
X255547Y-240062D01*
X255587Y-240049D01*
X255625Y-240038D01*
X255661Y-240028D01*
X255695Y-240020D01*
X255728Y-240013D01*
X255758Y-240007D01*
X255787Y-240004D01*
X255813Y-240001D01*
X255837Y-240000D01*
X255885Y-240019D01*
D02*
G37*
G36*
X255055Y-237801D02*
X255078Y-237803D01*
X255100Y-237806D01*
X255121Y-237809D01*
X255141Y-237814D01*
X255160Y-237820D01*
X255179Y-237827D01*
X255197Y-237834D01*
X255214Y-237843D01*
X255231Y-237853D01*
X255247Y-237863D01*
X255262Y-237875D01*
X255277Y-237887D01*
X255291Y-237901D01*
X255305Y-237915D01*
X255317Y-237931D01*
X255330Y-237947D01*
X255342Y-237964D01*
X255354Y-237983D01*
X255365Y-238002D01*
X255376Y-238022D01*
X255386Y-238044D01*
X255397Y-238066D01*
X255406Y-238089D01*
X255416Y-238113D01*
X255425Y-238138D01*
X255434Y-238164D01*
X255443Y-238192D01*
X255452Y-238220D01*
X255461Y-238249D01*
X255469Y-238279D01*
X255477Y-238310D01*
X255492Y-238366D01*
X255505Y-238421D01*
X255518Y-238475D01*
X255529Y-238527D01*
X255539Y-238576D01*
X255549Y-238624D01*
X255557Y-238669D01*
X255563Y-238710D01*
X255569Y-238749D01*
X255573Y-238784D01*
X255576Y-238815D01*
X255578Y-238842D01*
X255578Y-238865D01*
X255576Y-238882D01*
X255573Y-238895D01*
X255569Y-238902D01*
X255526Y-238927D01*
X255423Y-238982D01*
X255268Y-239063D01*
X255066Y-239166D01*
X254825Y-239289D01*
X254551Y-239427D01*
X254251Y-239578D01*
X253932Y-239738D01*
X253849Y-239780D01*
X253765Y-239825D01*
X253679Y-239871D01*
X253592Y-239920D01*
X253503Y-239971D01*
X253413Y-240023D01*
X253323Y-240078D01*
X253231Y-240134D01*
X253139Y-240191D01*
X253047Y-240250D01*
X252955Y-240310D01*
X252862Y-240371D01*
X252770Y-240433D01*
X252678Y-240496D01*
X252586Y-240560D01*
X252495Y-240624D01*
X252405Y-240689D01*
X252315Y-240755D01*
X252227Y-240821D01*
X252141Y-240886D01*
X252055Y-240952D01*
X251972Y-241018D01*
X251890Y-241083D01*
X251810Y-241148D01*
X251733Y-241213D01*
X251657Y-241277D01*
X251585Y-241340D01*
X251515Y-241403D01*
X251447Y-241465D01*
X251383Y-241525D01*
X251322Y-241584D01*
X251265Y-241643D01*
X251211Y-241699D01*
X251157Y-241756D01*
X251103Y-241815D01*
X251049Y-241875D01*
X250995Y-241937D01*
X250941Y-242000D01*
X250887Y-242064D01*
X250834Y-242130D01*
X250780Y-242196D01*
X250727Y-242264D01*
X250674Y-242332D01*
X250621Y-242402D01*
X250568Y-242472D01*
X250516Y-242544D01*
X250464Y-242616D01*
X250412Y-242689D01*
X250361Y-242762D01*
X250310Y-242837D01*
X250259Y-242911D01*
X250209Y-242987D01*
X250160Y-243063D01*
X250111Y-243139D01*
X250062Y-243215D01*
X250014Y-243292D01*
X249967Y-243370D01*
X249920Y-243447D01*
X249874Y-243525D01*
X249829Y-243602D01*
X249784Y-243680D01*
X249740Y-243758D01*
X249697Y-243836D01*
X249655Y-243913D01*
X249614Y-243991D01*
X249573Y-244068D01*
X249533Y-244145D01*
X249495Y-244222D01*
X249457Y-244298D01*
X249420Y-244374D01*
X249384Y-244449D01*
X249350Y-244524D01*
X249316Y-244598D01*
X249283Y-244672D01*
X249252Y-244745D01*
X249221Y-244817D01*
X249192Y-244888D01*
X249165Y-244959D01*
X249138Y-245028D01*
X249112Y-245097D01*
X249088Y-245164D01*
X249065Y-245231D01*
X249044Y-245296D01*
X249024Y-245361D01*
X249006Y-245424D01*
X248988Y-245485D01*
X248973Y-245546D01*
X248958Y-245605D01*
X248946Y-245662D01*
X248935Y-245718D01*
X248925Y-245773D01*
X248917Y-245826D01*
X248911Y-245877D01*
X248906Y-245926D01*
X248903Y-245974D01*
X248902Y-246020D01*
X248901Y-246081D01*
X248899Y-246147D01*
X248895Y-246216D01*
X248889Y-246287D01*
X248883Y-246361D01*
X248875Y-246437D01*
X248866Y-246514D01*
X248856Y-246591D01*
X248845Y-246668D01*
X248833Y-246744D01*
X248820Y-246819D01*
X248807Y-246892D01*
X248793Y-246963D01*
X248779Y-247031D01*
X248764Y-247095D01*
X248748Y-247155D01*
X248598Y-247715D01*
X247116D01*
X247289Y-246657D01*
X247304Y-246569D01*
X247319Y-246480D01*
X247335Y-246392D01*
X247352Y-246304D01*
X247369Y-246216D01*
X247387Y-246129D01*
X247406Y-246042D01*
X247425Y-245955D01*
X247445Y-245868D01*
X247465Y-245782D01*
X247486Y-245696D01*
X247507Y-245611D01*
X247529Y-245526D01*
X247552Y-245441D01*
X247575Y-245356D01*
X247599Y-245271D01*
X247624Y-245187D01*
X247649Y-245104D01*
X247674Y-245020D01*
X247701Y-244937D01*
X247727Y-244854D01*
X247755Y-244772D01*
X247783Y-244690D01*
X247811Y-244608D01*
X247841Y-244527D01*
X247870Y-244446D01*
X247901Y-244365D01*
X247932Y-244284D01*
X247963Y-244204D01*
X247995Y-244125D01*
X248027Y-244045D01*
X248061Y-243966D01*
X248094Y-243887D01*
X248129Y-243809D01*
X248164Y-243731D01*
X248199Y-243653D01*
X248235Y-243576D01*
X248271Y-243499D01*
X248308Y-243422D01*
X248346Y-243346D01*
X248384Y-243270D01*
X248423Y-243194D01*
X248462Y-243119D01*
X248502Y-243044D01*
X248542Y-242970D01*
X248583Y-242896D01*
X248625Y-242822D01*
X248667Y-242749D01*
X248709Y-242676D01*
X248752Y-242603D01*
X248796Y-242531D01*
X248840Y-242459D01*
X248885Y-242388D01*
X248930Y-242317D01*
X248976Y-242246D01*
X249022Y-242176D01*
X249069Y-242106D01*
X249116Y-242037D01*
X249164Y-241968D01*
X249213Y-241899D01*
X249262Y-241831D01*
X249311Y-241763D01*
X249361Y-241695D01*
X249412Y-241628D01*
X249463Y-241562D01*
X249514Y-241495D01*
X249566Y-241430D01*
X249619Y-241364D01*
X249672Y-241299D01*
X249725Y-241235D01*
X249779Y-241171D01*
X249834Y-241107D01*
X249889Y-241043D01*
X249945Y-240981D01*
X250001Y-240918D01*
X250057Y-240856D01*
X250114Y-240795D01*
X250172Y-240734D01*
X250230Y-240673D01*
X250289Y-240613D01*
X250348Y-240553D01*
X250407Y-240493D01*
X250467Y-240435D01*
X250528Y-240376D01*
X250589Y-240318D01*
X250651Y-240260D01*
X250712Y-240203D01*
X250775Y-240147D01*
X250838Y-240090D01*
X250901Y-240035D01*
X250965Y-239979D01*
X251030Y-239925D01*
X251095Y-239870D01*
X251160Y-239816D01*
X251226Y-239763D01*
X251292Y-239710D01*
X251359Y-239657D01*
X251426Y-239605D01*
X251494Y-239554D01*
X251562Y-239503D01*
X251630Y-239452D01*
X251699Y-239402D01*
X251769Y-239353D01*
X251839Y-239304D01*
X251909Y-239255D01*
X251980Y-239207D01*
X252051Y-239159D01*
X252123Y-239112D01*
X252196Y-239066D01*
X252268Y-239019D01*
X252341Y-238974D01*
X252415Y-238929D01*
X252489Y-238884D01*
X252563Y-238840D01*
X252638Y-238796D01*
X252714Y-238753D01*
X252789Y-238711D01*
X252866Y-238668D01*
X252942Y-238627D01*
X253019Y-238586D01*
X253097Y-238545D01*
X253175Y-238506D01*
X253253Y-238466D01*
X253332Y-238427D01*
X253411Y-238389D01*
X253491Y-238351D01*
X253571Y-238314D01*
X253652Y-238277D01*
X253717Y-238247D01*
X253781Y-238218D01*
X253844Y-238191D01*
X253904Y-238164D01*
X253963Y-238138D01*
X254021Y-238113D01*
X254077Y-238089D01*
X254131Y-238066D01*
X254184Y-238044D01*
X254235Y-238023D01*
X254285Y-238002D01*
X254333Y-237983D01*
X254380Y-237965D01*
X254425Y-237948D01*
X254469Y-237931D01*
X254512Y-237916D01*
X254553Y-237902D01*
X254593Y-237888D01*
X254632Y-237876D01*
X254669Y-237864D01*
X254706Y-237853D01*
X254741Y-237844D01*
X254775Y-237835D01*
X254807Y-237827D01*
X254839Y-237821D01*
X254870Y-237815D01*
X254899Y-237810D01*
X254928Y-237806D01*
X254955Y-237803D01*
X254981Y-237801D01*
X255007Y-237800D01*
X255031Y-237800D01*
X255055Y-237801D01*
D02*
G37*
G36*
X298047Y-247940D02*
Y-252194D01*
X300542D01*
Y-250452D01*
X300542Y-250360D01*
X300543Y-250269D01*
X300544Y-250180D01*
X300547Y-250092D01*
X300549Y-250006D01*
X300552Y-249922D01*
X300556Y-249840D01*
X300560Y-249760D01*
X300565Y-249683D01*
X300571Y-249607D01*
X300577Y-249534D01*
X300583Y-249464D01*
X300590Y-249396D01*
X300597Y-249331D01*
X300605Y-249268D01*
X300613Y-249208D01*
X300621Y-249151D01*
X300630Y-249097D01*
X300640Y-249047D01*
X300649Y-248999D01*
X300660Y-248955D01*
X300670Y-248914D01*
X300681Y-248877D01*
X300692Y-248843D01*
X300703Y-248813D01*
X300715Y-248786D01*
X300727Y-248763D01*
X300739Y-248745D01*
X300752Y-248730D01*
X300765Y-248719D01*
X300778Y-248713D01*
X300791Y-248710D01*
X300843Y-248745D01*
X300890Y-248844D01*
X300933Y-249002D01*
X300969Y-249213D01*
X300999Y-249472D01*
X301022Y-249772D01*
X301036Y-250108D01*
X301041Y-250473D01*
X301041Y-250564D01*
X301042Y-250652D01*
X301043Y-250740D01*
X301044Y-250826D01*
X301046Y-250910D01*
X301049Y-250992D01*
X301052Y-251073D01*
X301055Y-251151D01*
X301059Y-251227D01*
X301063Y-251301D01*
X301068Y-251373D01*
X301073Y-251442D01*
X301078Y-251509D01*
X301083Y-251573D01*
X301089Y-251635D01*
X301096Y-251693D01*
X301102Y-251748D01*
X301109Y-251801D01*
X301116Y-251850D01*
X301123Y-251896D01*
X301131Y-251939D01*
X301139Y-251977D01*
X301147Y-252013D01*
X301155Y-252045D01*
X301164Y-252072D01*
X301172Y-252096D01*
X301181Y-252116D01*
X301190Y-252132D01*
X301199Y-252143D01*
X301208Y-252150D01*
X301218Y-252152D01*
X301228Y-252150D01*
X301262Y-252133D01*
X301327Y-252101D01*
X301421Y-252055D01*
X301541Y-251994D01*
X301686Y-251921D01*
X301855Y-251836D01*
X302046Y-251740D01*
X302256Y-251634D01*
X302485Y-251518D01*
X302731Y-251393D01*
X302992Y-251261D01*
X303267Y-251122D01*
X303553Y-250976D01*
X303850Y-250826D01*
X304155Y-250671D01*
X304467Y-250512D01*
X304545Y-250472D01*
X304623Y-250432D01*
X304701Y-250393D01*
X304779Y-250354D01*
X304856Y-250315D01*
X304933Y-250276D01*
X305009Y-250238D01*
X305085Y-250200D01*
X305160Y-250163D01*
X305235Y-250125D01*
X305309Y-250088D01*
X305383Y-250052D01*
X305456Y-250015D01*
X305529Y-249980D01*
X305600Y-249944D01*
X305672Y-249909D01*
X305742Y-249875D01*
X305812Y-249840D01*
X305881Y-249807D01*
X305949Y-249774D01*
X306016Y-249741D01*
X306083Y-249709D01*
X306149Y-249677D01*
X306213Y-249645D01*
X306277Y-249615D01*
X306340Y-249585D01*
X306402Y-249555D01*
X306463Y-249526D01*
X306523Y-249497D01*
X306582Y-249469D01*
X306640Y-249442D01*
X306696Y-249415D01*
X306752Y-249389D01*
X306806Y-249364D01*
X306860Y-249339D01*
X306912Y-249315D01*
X306963Y-249292D01*
X307012Y-249269D01*
X307060Y-249247D01*
X307107Y-249225D01*
X307153Y-249205D01*
X307197Y-249185D01*
X307240Y-249166D01*
X307281Y-249147D01*
X307322Y-249130D01*
X307360Y-249113D01*
X307397Y-249097D01*
X307433Y-249082D01*
X307467Y-249067D01*
X307499Y-249054D01*
X307530Y-249041D01*
X307559Y-249029D01*
X307586Y-249019D01*
X307612Y-249008D01*
X307636Y-248999D01*
X307659Y-248991D01*
X307679Y-248984D01*
X307698Y-248977D01*
X307715Y-248972D01*
X307730Y-248967D01*
X307743Y-248964D01*
X307755Y-248961D01*
X307764Y-248960D01*
X307772Y-248959D01*
X307824Y-248989D01*
X307872Y-249074D01*
X307915Y-249209D01*
X307952Y-249389D01*
X307983Y-249609D01*
X308006Y-249863D01*
X308020Y-250146D01*
X308025Y-250452D01*
Y-251946D01*
X310734D01*
X310814Y-251386D01*
X310894Y-250826D01*
X322119D01*
Y-252194D01*
Y-253563D01*
X316444Y-253630D01*
X310769Y-253697D01*
Y-253194D01*
Y-252692D01*
X308025D01*
Y-254310D01*
X308025Y-254393D01*
X308024Y-254474D01*
X308024Y-254555D01*
X308022Y-254635D01*
X308021Y-254713D01*
X308019Y-254789D01*
X308017Y-254864D01*
X308015Y-254938D01*
X308012Y-255009D01*
X308010Y-255079D01*
X308006Y-255147D01*
X308003Y-255212D01*
X307999Y-255276D01*
X307996Y-255337D01*
X307992Y-255396D01*
X307987Y-255452D01*
X307983Y-255506D01*
X307978Y-255557D01*
X307973Y-255605D01*
X307968Y-255650D01*
X307963Y-255692D01*
X307958Y-255731D01*
X307952Y-255767D01*
X307947Y-255800D01*
X307941Y-255829D01*
X307935Y-255854D01*
X307929Y-255876D01*
X307923Y-255894D01*
X307916Y-255909D01*
X307910Y-255919D01*
X307903Y-255925D01*
X307897Y-255927D01*
X307805Y-255894D01*
X307592Y-255800D01*
X307271Y-255650D01*
X306856Y-255452D01*
X306361Y-255212D01*
X305799Y-254938D01*
X305185Y-254635D01*
X304533Y-254310D01*
X304450Y-254268D01*
X304367Y-254227D01*
X304284Y-254186D01*
X304203Y-254145D01*
X304121Y-254104D01*
X304040Y-254064D01*
X303960Y-254024D01*
X303880Y-253985D01*
X303801Y-253946D01*
X303723Y-253907D01*
X303645Y-253868D01*
X303568Y-253830D01*
X303491Y-253792D01*
X303415Y-253755D01*
X303341Y-253718D01*
X303266Y-253682D01*
X303193Y-253646D01*
X303120Y-253610D01*
X303049Y-253575D01*
X302978Y-253540D01*
X302908Y-253506D01*
X302840Y-253473D01*
X302772Y-253439D01*
X302705Y-253407D01*
X302639Y-253375D01*
X302574Y-253344D01*
X302511Y-253313D01*
X302448Y-253282D01*
X302387Y-253253D01*
X302327Y-253223D01*
X302268Y-253195D01*
X302210Y-253167D01*
X302153Y-253140D01*
X302098Y-253114D01*
X302044Y-253088D01*
X301992Y-253063D01*
X301940Y-253038D01*
X301890Y-253015D01*
X301842Y-252992D01*
X301795Y-252969D01*
X301749Y-252948D01*
X301705Y-252927D01*
X301663Y-252907D01*
X301622Y-252888D01*
X301583Y-252870D01*
X301545Y-252852D01*
X301508Y-252836D01*
X301474Y-252820D01*
X301441Y-252805D01*
X301410Y-252791D01*
X301381Y-252777D01*
X301353Y-252765D01*
X301327Y-252754D01*
X301303Y-252743D01*
X301281Y-252734D01*
X301261Y-252725D01*
X301242Y-252717D01*
X301226Y-252711D01*
X301211Y-252705D01*
X301199Y-252700D01*
X301188Y-252697D01*
X301180Y-252694D01*
X301173Y-252693D01*
X301169Y-252692D01*
X301143Y-252728D01*
X301119Y-252830D01*
X301097Y-252991D01*
X301078Y-253204D01*
X301063Y-253462D01*
X301051Y-253758D01*
X301043Y-254084D01*
X301041Y-254434D01*
X301040Y-254527D01*
X301039Y-254618D01*
X301038Y-254707D01*
X301036Y-254795D01*
X301033Y-254881D01*
X301030Y-254965D01*
X301026Y-255047D01*
X301022Y-255126D01*
X301017Y-255204D01*
X301011Y-255279D01*
X301006Y-255352D01*
X300999Y-255423D01*
X300992Y-255491D01*
X300985Y-255556D01*
X300977Y-255619D01*
X300969Y-255679D01*
X300961Y-255735D01*
X300952Y-255789D01*
X300942Y-255840D01*
X300933Y-255888D01*
X300923Y-255932D01*
X300912Y-255973D01*
X300901Y-256010D01*
X300890Y-256044D01*
X300879Y-256074D01*
X300867Y-256101D01*
X300855Y-256123D01*
X300843Y-256142D01*
X300830Y-256157D01*
X300817Y-256168D01*
X300804Y-256174D01*
X300791Y-256176D01*
X300739Y-256142D01*
X300692Y-256044D01*
X300649Y-255888D01*
X300613Y-255679D01*
X300583Y-255423D01*
X300560Y-255126D01*
X300547Y-254795D01*
X300542Y-254434D01*
Y-252692D01*
X298047D01*
Y-257047D01*
Y-261402D01*
X293814D01*
X293748Y-254621D01*
X293682Y-247839D01*
X293064Y-247927D01*
X292999Y-247937D01*
X292930Y-247951D01*
X292859Y-247968D01*
X292786Y-247988D01*
X292711Y-248010D01*
X292636Y-248034D01*
X292560Y-248061D01*
X292485Y-248089D01*
X292410Y-248119D01*
X292337Y-248150D01*
X292265Y-248183D01*
X292196Y-248217D01*
X292131Y-248251D01*
X292069Y-248286D01*
X292011Y-248321D01*
X291958Y-248356D01*
X291883Y-248420D01*
X291760Y-248540D01*
X291592Y-248713D01*
X291383Y-248936D01*
X291134Y-249205D01*
X290848Y-249517D01*
X290529Y-249871D01*
X290178Y-250261D01*
X289800Y-250686D01*
X289395Y-251142D01*
X288968Y-251626D01*
X288521Y-252135D01*
X288057Y-252667D01*
X287578Y-253217D01*
X287087Y-253783D01*
X286587Y-254361D01*
X281706Y-260025D01*
X280585Y-260651D01*
X279463Y-261278D01*
X276033Y-261364D01*
X272603Y-261450D01*
Y-252592D01*
Y-243733D01*
X276844D01*
Y-250452D01*
Y-257172D01*
X277551D01*
X277645Y-257169D01*
X277740Y-257160D01*
X277835Y-257145D01*
X277933Y-257122D01*
X278033Y-257091D01*
X278137Y-257050D01*
X278245Y-257001D01*
X278357Y-256941D01*
X278476Y-256869D01*
X278601Y-256786D01*
X278732Y-256691D01*
X278872Y-256581D01*
X279021Y-256458D01*
X279180Y-256320D01*
X279348Y-256167D01*
X279528Y-255997D01*
X279719Y-255810D01*
X279923Y-255605D01*
X280141Y-255382D01*
X280372Y-255140D01*
X280618Y-254877D01*
X280880Y-254594D01*
X281159Y-254290D01*
X281454Y-253963D01*
X281768Y-253613D01*
X282100Y-253240D01*
X282452Y-252842D01*
X282823Y-252420D01*
X283216Y-251971D01*
X283631Y-251496D01*
X284068Y-250993D01*
X284529Y-250463D01*
X284586Y-250397D01*
X284643Y-250332D01*
X284699Y-250266D01*
X284756Y-250201D01*
X284813Y-250135D01*
X284870Y-250070D01*
X284927Y-250005D01*
X284984Y-249940D01*
X285041Y-249875D01*
X285098Y-249810D01*
X285154Y-249746D01*
X285211Y-249681D01*
X285268Y-249617D01*
X285324Y-249553D01*
X285381Y-249488D01*
X285437Y-249425D01*
X285494Y-249361D01*
X285550Y-249297D01*
X285606Y-249234D01*
X285663Y-249170D01*
X285719Y-249107D01*
X285775Y-249044D01*
X285830Y-248981D01*
X285886Y-248919D01*
X285942Y-248856D01*
X285997Y-248794D01*
X286053Y-248732D01*
X286108Y-248671D01*
X286163Y-248609D01*
X286218Y-248548D01*
X286273Y-248487D01*
X286328Y-248426D01*
X286382Y-248365D01*
X286437Y-248305D01*
X286491Y-248245D01*
X286545Y-248185D01*
X286599Y-248126D01*
X286652Y-248067D01*
X286706Y-248008D01*
X286759Y-247949D01*
X286812Y-247891D01*
X286865Y-247833D01*
X286917Y-247775D01*
X286970Y-247718D01*
X287022Y-247661D01*
X287074Y-247604D01*
X287126Y-247548D01*
X287177Y-247491D01*
X287228Y-247436D01*
X287279Y-247380D01*
X287330Y-247325D01*
X287381Y-247271D01*
X287431Y-247216D01*
X287481Y-247162D01*
X287530Y-247109D01*
X287580Y-247056D01*
X287629Y-247003D01*
X287677Y-246950D01*
X287726Y-246898D01*
X287774Y-246847D01*
X287822Y-246796D01*
X287869Y-246745D01*
X287916Y-246694D01*
X287963Y-246645D01*
X288010Y-246595D01*
X288056Y-246546D01*
X288102Y-246498D01*
X288147Y-246449D01*
X288193Y-246402D01*
X288237Y-246355D01*
X288282Y-246308D01*
X288326Y-246262D01*
X288369Y-246216D01*
X288412Y-246170D01*
X288455Y-246126D01*
X288498Y-246081D01*
X288540Y-246038D01*
X288582Y-245994D01*
X288623Y-245952D01*
X288664Y-245910D01*
X288704Y-245868D01*
X288744Y-245827D01*
X288784Y-245786D01*
X288823Y-245746D01*
X288861Y-245706D01*
X288899Y-245668D01*
X288937Y-245629D01*
X288974Y-245591D01*
X289011Y-245554D01*
X289048Y-245517D01*
X289084Y-245481D01*
X289119Y-245446D01*
X289154Y-245411D01*
X289188Y-245377D01*
X289222Y-245343D01*
X289255Y-245310D01*
X289288Y-245278D01*
X289321Y-245246D01*
X289352Y-245215D01*
X289384Y-245184D01*
X289415Y-245154D01*
X289445Y-245125D01*
X289474Y-245097D01*
X289504Y-245069D01*
X289532Y-245042D01*
X289560Y-245015D01*
X289588Y-244989D01*
X289615Y-244964D01*
X289641Y-244940D01*
X289667Y-244916D01*
X289692Y-244893D01*
X289716Y-244870D01*
X289740Y-244849D01*
X289763Y-244828D01*
X289786Y-244808D01*
X289808Y-244788D01*
X289830Y-244770D01*
X289851Y-244752D01*
X289871Y-244735D01*
X289890Y-244718D01*
X289909Y-244702D01*
X289928Y-244688D01*
X289945Y-244673D01*
X289962Y-244660D01*
X289979Y-244648D01*
X289994Y-244636D01*
X290009Y-244625D01*
X290023Y-244615D01*
X291104Y-243858D01*
X294576Y-243772D01*
X298047Y-243686D01*
Y-247940D01*
D02*
G37*
G36*
X312827Y-243265D02*
X312893Y-243265D01*
X312960Y-243265D01*
X313026Y-243265D01*
X313092Y-243266D01*
X313158Y-243266D01*
X313224Y-243266D01*
X313290Y-243266D01*
X313356Y-243267D01*
X313422Y-243267D01*
X313488Y-243267D01*
X313553Y-243267D01*
X313619Y-243268D01*
X313685Y-243268D01*
X313750Y-243268D01*
X313816Y-243268D01*
X313881Y-243269D01*
X313947Y-243269D01*
X314012Y-243269D01*
X314077Y-243270D01*
X314142Y-243270D01*
X314207Y-243270D01*
X314272Y-243271D01*
X314337Y-243271D01*
X314402Y-243271D01*
X314467Y-243272D01*
X314531Y-243272D01*
X314596Y-243273D01*
X314660Y-243273D01*
X314725Y-243273D01*
X314789Y-243274D01*
X314853Y-243274D01*
X314917Y-243275D01*
X314981Y-243275D01*
X315045Y-243275D01*
X315109Y-243276D01*
X315173Y-243276D01*
X315237Y-243277D01*
X315300Y-243277D01*
X315364Y-243278D01*
X315427Y-243278D01*
X315490Y-243279D01*
X315553Y-243279D01*
X315616Y-243280D01*
X315679Y-243280D01*
X315742Y-243281D01*
X315805Y-243281D01*
X315867Y-243282D01*
X315930Y-243282D01*
X315992Y-243283D01*
X316055Y-243283D01*
X316117Y-243284D01*
X316179Y-243284D01*
X316241Y-243285D01*
X316302Y-243285D01*
X316364Y-243286D01*
X316425Y-243287D01*
X316487Y-243287D01*
X316548Y-243288D01*
X316609Y-243288D01*
X316670Y-243289D01*
X316731Y-243290D01*
X316792Y-243290D01*
X316852Y-243291D01*
X316913Y-243291D01*
X316973Y-243292D01*
X317033Y-243293D01*
X317093Y-243293D01*
X317153Y-243294D01*
X317213Y-243295D01*
X317272Y-243295D01*
X317332Y-243296D01*
X317391Y-243297D01*
X317450Y-243297D01*
X317509Y-243298D01*
X317568Y-243299D01*
X317627Y-243299D01*
X317686Y-243300D01*
X317744Y-243301D01*
X317802Y-243302D01*
X317860Y-243302D01*
X317918Y-243303D01*
X317976Y-243304D01*
X318033Y-243304D01*
X318091Y-243305D01*
X318148Y-243306D01*
X318205Y-243307D01*
X318262Y-243307D01*
X318319Y-243308D01*
X318375Y-243309D01*
X318432Y-243310D01*
X318488Y-243310D01*
X318544Y-243311D01*
X318600Y-243312D01*
X318655Y-243313D01*
X318711Y-243314D01*
X318766Y-243314D01*
X318821Y-243315D01*
X318876Y-243316D01*
X318931Y-243317D01*
X318986Y-243318D01*
X319040Y-243318D01*
X319094Y-243319D01*
X319148Y-243320D01*
X319202Y-243321D01*
X319255Y-243322D01*
X319309Y-243323D01*
X319362Y-243323D01*
X319415Y-243324D01*
X319468Y-243325D01*
X319520Y-243326D01*
X319573Y-243327D01*
X319625Y-243328D01*
X319677Y-243329D01*
X319729Y-243330D01*
X319780Y-243331D01*
X319832Y-243331D01*
X319883Y-243332D01*
X319934Y-243333D01*
X319985Y-243334D01*
X320035Y-243335D01*
X320085Y-243336D01*
X320135Y-243337D01*
X320185Y-243338D01*
X320235Y-243339D01*
X320284Y-243340D01*
X320333Y-243340D01*
X320382Y-243341D01*
X320431Y-243342D01*
X320479Y-243343D01*
X320528Y-243344D01*
X320576Y-243345D01*
X320623Y-243346D01*
X320671Y-243347D01*
X320718Y-243348D01*
X320765Y-243349D01*
X320812Y-243350D01*
X320859Y-243351D01*
X320905Y-243352D01*
X320951Y-243353D01*
X320997Y-243354D01*
X321042Y-243355D01*
X321088Y-243356D01*
X321133Y-243357D01*
X321178Y-243358D01*
X321222Y-243359D01*
X321267Y-243360D01*
X321311Y-243361D01*
X321355Y-243362D01*
X321398Y-243363D01*
X321442Y-243364D01*
X321484Y-243365D01*
X321527Y-243366D01*
X321570Y-243367D01*
X321612Y-243368D01*
X321654Y-243369D01*
X321696Y-243370D01*
X321737Y-243372D01*
X321778Y-243373D01*
X321819Y-243374D01*
X321860Y-243375D01*
X321900Y-243376D01*
X321940Y-243377D01*
X321980Y-243378D01*
X322020Y-243379D01*
X322059Y-243380D01*
X322098Y-243381D01*
X322136Y-243382D01*
X322175Y-243383D01*
X322213Y-243384D01*
X322251Y-243385D01*
X322288Y-243387D01*
X322325Y-243388D01*
X322362Y-243389D01*
X322399Y-243390D01*
X322435Y-243391D01*
X322471Y-243392D01*
X322507Y-243393D01*
X322543Y-243394D01*
X322578Y-243395D01*
X322612Y-243396D01*
X322647Y-243398D01*
X322681Y-243399D01*
X322715Y-243400D01*
X322749Y-243401D01*
X322782Y-243402D01*
X322815Y-243403D01*
X322848Y-243405D01*
X322880Y-243406D01*
X322912Y-243407D01*
X322944Y-243408D01*
X322975Y-243409D01*
X323006Y-243410D01*
X323037Y-243411D01*
X323067Y-243412D01*
X323097Y-243414D01*
X323127Y-243415D01*
X323157Y-243416D01*
X323186Y-243417D01*
X323215Y-243418D01*
X323243Y-243420D01*
X323271Y-243421D01*
X323299Y-243422D01*
X323326Y-243423D01*
X323354Y-243424D01*
X323380Y-243425D01*
X323407Y-243427D01*
X323433Y-243428D01*
X323459Y-243429D01*
X323484Y-243430D01*
X323509Y-243431D01*
X323534Y-243432D01*
X323558Y-243434D01*
X323582Y-243435D01*
X323606Y-243436D01*
X323629Y-243437D01*
X323652Y-243439D01*
X323675Y-243440D01*
X323697Y-243441D01*
X323719Y-243442D01*
X323741Y-243443D01*
X323762Y-243444D01*
X323782Y-243446D01*
X323803Y-243447D01*
X323823Y-243448D01*
X323843Y-243449D01*
X323862Y-243451D01*
X323881Y-243452D01*
X323900Y-243453D01*
X323918Y-243454D01*
X323936Y-243456D01*
X323953Y-243457D01*
X323970Y-243458D01*
X323987Y-243459D01*
X324003Y-243460D01*
X324019Y-243462D01*
X324035Y-243463D01*
X324050Y-243464D01*
X324065Y-243465D01*
X324079Y-243466D01*
X324093Y-243468D01*
X324107Y-243469D01*
X324120Y-243470D01*
X324133Y-243472D01*
X324145Y-243473D01*
X324157Y-243474D01*
X324169Y-243475D01*
X324180Y-243476D01*
X324191Y-243478D01*
X324202Y-243479D01*
X324212Y-243480D01*
X324221Y-243481D01*
X324231Y-243483D01*
X324239Y-243484D01*
X324248Y-243485D01*
X324256Y-243486D01*
X324263Y-243488D01*
X324334Y-243500D01*
X324403Y-243512D01*
X324472Y-243525D01*
X324540Y-243539D01*
X324607Y-243552D01*
X324674Y-243567D01*
X324740Y-243582D01*
X324805Y-243597D01*
X324870Y-243612D01*
X324934Y-243628D01*
X324997Y-243645D01*
X325059Y-243662D01*
X325121Y-243679D01*
X325182Y-243697D01*
X325243Y-243715D01*
X325303Y-243734D01*
X325362Y-243753D01*
X325420Y-243772D01*
X325478Y-243792D01*
X325535Y-243813D01*
X325592Y-243834D01*
X325647Y-243855D01*
X325702Y-243877D01*
X325757Y-243899D01*
X325811Y-243921D01*
X325864Y-243945D01*
X325916Y-243968D01*
X325968Y-243992D01*
X326019Y-244017D01*
X326069Y-244041D01*
X326119Y-244067D01*
X326168Y-244092D01*
X326216Y-244118D01*
X326264Y-244145D01*
X326311Y-244172D01*
X326357Y-244200D01*
X326402Y-244228D01*
X326447Y-244256D01*
X326492Y-244285D01*
X326535Y-244314D01*
X326578Y-244344D01*
X326621Y-244374D01*
X326662Y-244405D01*
X326703Y-244436D01*
X326743Y-244467D01*
X326783Y-244499D01*
X326822Y-244532D01*
X326860Y-244565D01*
X326898Y-244598D01*
X326935Y-244632D01*
X326971Y-244666D01*
X327007Y-244701D01*
X327042Y-244736D01*
X327076Y-244771D01*
X327110Y-244807D01*
X327143Y-244844D01*
X327175Y-244881D01*
X327206Y-244918D01*
X327238Y-244956D01*
X327268Y-244994D01*
X327297Y-245033D01*
X327326Y-245072D01*
X327355Y-245111D01*
X327383Y-245152D01*
X327856Y-245849D01*
X327928Y-251946D01*
X328000Y-258043D01*
X327537Y-258914D01*
X327507Y-258967D01*
X327477Y-259020D01*
X327444Y-259073D01*
X327410Y-259126D01*
X327374Y-259178D01*
X327337Y-259229D01*
X327298Y-259280D01*
X327257Y-259331D01*
X327216Y-259382D01*
X327172Y-259431D01*
X327127Y-259481D01*
X327080Y-259530D01*
X327032Y-259579D01*
X326983Y-259627D01*
X326932Y-259674D01*
X326879Y-259722D01*
X326825Y-259768D01*
X326770Y-259815D01*
X326713Y-259860D01*
X326655Y-259906D01*
X326595Y-259950D01*
X326533Y-259995D01*
X326471Y-260038D01*
X326407Y-260081D01*
X326341Y-260124D01*
X326274Y-260166D01*
X326206Y-260208D01*
X326136Y-260249D01*
X326065Y-260289D01*
X325993Y-260329D01*
X325919Y-260368D01*
X325844Y-260407D01*
X324613Y-261029D01*
X302413D01*
X302340Y-258976D01*
X302268Y-256923D01*
X323142D01*
X323441Y-256624D01*
X323740Y-256326D01*
Y-252377D01*
X323740Y-252325D01*
X323740Y-252272D01*
X323740Y-252220D01*
X323740Y-252168D01*
X323740Y-252116D01*
X323740Y-252064D01*
X323739Y-252012D01*
X323739Y-251960D01*
X323739Y-251909D01*
X323738Y-251858D01*
X323738Y-251806D01*
X323738Y-251755D01*
X323737Y-251705D01*
X323737Y-251654D01*
X323736Y-251604D01*
X323735Y-251553D01*
X323735Y-251503D01*
X323734Y-251453D01*
X323733Y-251403D01*
X323732Y-251354D01*
X323732Y-251305D01*
X323731Y-251255D01*
X323730Y-251207D01*
X323729Y-251158D01*
X323728Y-251109D01*
X323727Y-251061D01*
X323726Y-251013D01*
X323725Y-250965D01*
X323724Y-250918D01*
X323723Y-250870D01*
X323722Y-250823D01*
X323721Y-250776D01*
X323720Y-250729D01*
X323718Y-250683D01*
X323717Y-250637D01*
X323716Y-250591D01*
X323714Y-250545D01*
X323713Y-250500D01*
X323711Y-250455D01*
X323710Y-250410D01*
X323709Y-250365D01*
X323707Y-250321D01*
X323706Y-250277D01*
X323704Y-250233D01*
X323702Y-250190D01*
X323701Y-250146D01*
X323699Y-250103D01*
X323697Y-250061D01*
X323696Y-250019D01*
X323694Y-249977D01*
X323692Y-249935D01*
X323690Y-249893D01*
X323689Y-249852D01*
X323687Y-249812D01*
X323685Y-249771D01*
X323683Y-249731D01*
X323681Y-249692D01*
X323679Y-249652D01*
X323677Y-249613D01*
X323675Y-249574D01*
X323673Y-249536D01*
X323671Y-249498D01*
X323669Y-249460D01*
X323666Y-249423D01*
X323664Y-249386D01*
X323662Y-249349D01*
X323660Y-249313D01*
X323657Y-249277D01*
X323655Y-249242D01*
X323653Y-249207D01*
X323651Y-249172D01*
X323648Y-249138D01*
X323646Y-249104D01*
X323643Y-249070D01*
X323641Y-249037D01*
X323639Y-249004D01*
X323636Y-248972D01*
X323634Y-248940D01*
X323631Y-248908D01*
X323628Y-248877D01*
X323626Y-248847D01*
X323623Y-248816D01*
X323621Y-248786D01*
X323618Y-248757D01*
X323615Y-248728D01*
X323613Y-248700D01*
X323610Y-248672D01*
X323607Y-248644D01*
X323604Y-248617D01*
X323602Y-248590D01*
X323599Y-248564D01*
X323596Y-248538D01*
X323593Y-248513D01*
X323590Y-248488D01*
X323587Y-248463D01*
X323584Y-248439D01*
X323582Y-248416D01*
X323579Y-248393D01*
X323576Y-248371D01*
X323573Y-248348D01*
X323570Y-248327D01*
X323567Y-248306D01*
X323564Y-248286D01*
X323561Y-248266D01*
X323557Y-248246D01*
X323554Y-248227D01*
X323551Y-248209D01*
X323548Y-248191D01*
X323545Y-248173D01*
X323542Y-248156D01*
X323539Y-248140D01*
X323535Y-248124D01*
X323532Y-248109D01*
X323529Y-248094D01*
X323526Y-248080D01*
X323522Y-248067D01*
X323519Y-248054D01*
X323516Y-248041D01*
X323513Y-248029D01*
X323509Y-248018D01*
X323506Y-248007D01*
X323502Y-247997D01*
X323499Y-247987D01*
X323496Y-247978D01*
X323492Y-247970D01*
X323489Y-247962D01*
X323485Y-247954D01*
X323482Y-247948D01*
X323224Y-247466D01*
X302537D01*
Y-245351D01*
Y-243236D01*
X312827Y-243265D01*
D02*
G37*
G36*
X228763Y-243755D02*
X228834Y-243755D01*
X228905Y-243755D01*
X228976Y-243755D01*
X229047Y-243755D01*
X229118Y-243756D01*
X229188Y-243756D01*
X229259Y-243756D01*
X229330Y-243756D01*
X229400Y-243756D01*
X229470Y-243757D01*
X229541Y-243757D01*
X229611Y-243757D01*
X229681Y-243757D01*
X229751Y-243758D01*
X229821Y-243758D01*
X229891Y-243758D01*
X229961Y-243758D01*
X230030Y-243759D01*
X230100Y-243759D01*
X230170Y-243759D01*
X230239Y-243759D01*
X230308Y-243760D01*
X230377Y-243760D01*
X230446Y-243760D01*
X230515Y-243761D01*
X230584Y-243761D01*
X230653Y-243762D01*
X230721Y-243762D01*
X230790Y-243762D01*
X230858Y-243763D01*
X230927Y-243763D01*
X230995Y-243763D01*
X231063Y-243764D01*
X231131Y-243764D01*
X231199Y-243765D01*
X231266Y-243765D01*
X231334Y-243766D01*
X231401Y-243766D01*
X231469Y-243766D01*
X231536Y-243767D01*
X231603Y-243767D01*
X231670Y-243768D01*
X231737Y-243768D01*
X231803Y-243769D01*
X231870Y-243769D01*
X231936Y-243770D01*
X232002Y-243770D01*
X232069Y-243771D01*
X232135Y-243771D01*
X232200Y-243772D01*
X232266Y-243773D01*
X232332Y-243773D01*
X232397Y-243774D01*
X232462Y-243774D01*
X232527Y-243775D01*
X232592Y-243775D01*
X232657Y-243776D01*
X232721Y-243776D01*
X232786Y-243777D01*
X232850Y-243778D01*
X232914Y-243778D01*
X232978Y-243779D01*
X233042Y-243779D01*
X233106Y-243780D01*
X233169Y-243781D01*
X233233Y-243781D01*
X233296Y-243782D01*
X233359Y-243783D01*
X233422Y-243783D01*
X233484Y-243784D01*
X233547Y-243785D01*
X233609Y-243785D01*
X233671Y-243786D01*
X233733Y-243787D01*
X233795Y-243788D01*
X233856Y-243788D01*
X233918Y-243789D01*
X233979Y-243790D01*
X234040Y-243790D01*
X234101Y-243791D01*
X234161Y-243792D01*
X234222Y-243793D01*
X234282Y-243793D01*
X234342Y-243794D01*
X234402Y-243795D01*
X234462Y-243796D01*
X234521Y-243796D01*
X234581Y-243797D01*
X234640Y-243798D01*
X234699Y-243799D01*
X234757Y-243800D01*
X234816Y-243800D01*
X234874Y-243801D01*
X234932Y-243802D01*
X234990Y-243803D01*
X235048Y-243804D01*
X235105Y-243805D01*
X235162Y-243806D01*
X235219Y-243806D01*
X235276Y-243807D01*
X235332Y-243808D01*
X235389Y-243809D01*
X235445Y-243810D01*
X235501Y-243811D01*
X235556Y-243811D01*
X235612Y-243812D01*
X235667Y-243813D01*
X235722Y-243814D01*
X235777Y-243815D01*
X235831Y-243816D01*
X235886Y-243817D01*
X235940Y-243818D01*
X235994Y-243819D01*
X236047Y-243820D01*
X236100Y-243821D01*
X236154Y-243822D01*
X236206Y-243823D01*
X236259Y-243824D01*
X236311Y-243825D01*
X236364Y-243826D01*
X236415Y-243827D01*
X236467Y-243827D01*
X236518Y-243828D01*
X236569Y-243829D01*
X236620Y-243830D01*
X236671Y-243831D01*
X236721Y-243832D01*
X236771Y-243833D01*
X236821Y-243834D01*
X236871Y-243835D01*
X236920Y-243836D01*
X236969Y-243837D01*
X237018Y-243839D01*
X237067Y-243840D01*
X237115Y-243841D01*
X237163Y-243842D01*
X237210Y-243843D01*
X237258Y-243844D01*
X237305Y-243845D01*
X237352Y-243846D01*
X237399Y-243847D01*
X237445Y-243848D01*
X237491Y-243849D01*
X237537Y-243850D01*
X237582Y-243851D01*
X237627Y-243852D01*
X237672Y-243853D01*
X237717Y-243854D01*
X237761Y-243856D01*
X237805Y-243857D01*
X237849Y-243858D01*
X237893Y-243859D01*
X237936Y-243860D01*
X237979Y-243861D01*
X238021Y-243862D01*
X238063Y-243864D01*
X238105Y-243865D01*
X238147Y-243866D01*
X238188Y-243867D01*
X238229Y-243868D01*
X238270Y-243869D01*
X238311Y-243870D01*
X238351Y-243871D01*
X238391Y-243873D01*
X238430Y-243874D01*
X238469Y-243875D01*
X238508Y-243876D01*
X238547Y-243877D01*
X238585Y-243879D01*
X238623Y-243880D01*
X238661Y-243881D01*
X238698Y-243882D01*
X238735Y-243883D01*
X238771Y-243885D01*
X238808Y-243886D01*
X238844Y-243887D01*
X238879Y-243888D01*
X238915Y-243889D01*
X238950Y-243891D01*
X238984Y-243892D01*
X239019Y-243893D01*
X239053Y-243894D01*
X239086Y-243896D01*
X239120Y-243897D01*
X239153Y-243898D01*
X239185Y-243899D01*
X239217Y-243900D01*
X239249Y-243902D01*
X239281Y-243903D01*
X239312Y-243904D01*
X239343Y-243905D01*
X239373Y-243907D01*
X239404Y-243908D01*
X239433Y-243909D01*
X239463Y-243911D01*
X239492Y-243912D01*
X239521Y-243913D01*
X239549Y-243914D01*
X239577Y-243916D01*
X239605Y-243917D01*
X239632Y-243918D01*
X239659Y-243920D01*
X239685Y-243921D01*
X239711Y-243922D01*
X239737Y-243923D01*
X239763Y-243925D01*
X239788Y-243926D01*
X239812Y-243927D01*
X239837Y-243929D01*
X239861Y-243930D01*
X239884Y-243931D01*
X239907Y-243933D01*
X239930Y-243934D01*
X239953Y-243935D01*
X239975Y-243937D01*
X239996Y-243938D01*
X240017Y-243939D01*
X240038Y-243941D01*
X240059Y-243942D01*
X240079Y-243943D01*
X240098Y-243945D01*
X240118Y-243946D01*
X240137Y-243947D01*
X240155Y-243949D01*
X240173Y-243950D01*
X240191Y-243951D01*
X240208Y-243953D01*
X240225Y-243954D01*
X240241Y-243955D01*
X240257Y-243957D01*
X240273Y-243958D01*
X240288Y-243959D01*
X240303Y-243961D01*
X240317Y-243962D01*
X240331Y-243964D01*
X240345Y-243965D01*
X240358Y-243966D01*
X240371Y-243968D01*
X240383Y-243969D01*
X240395Y-243970D01*
X240406Y-243972D01*
X240417Y-243973D01*
X240428Y-243974D01*
X240438Y-243976D01*
X240448Y-243977D01*
X240457Y-243979D01*
X240466Y-243980D01*
X240474Y-243981D01*
X240482Y-243983D01*
X240490Y-243984D01*
X240497Y-243986D01*
X240504Y-243987D01*
X240510Y-243988D01*
X240516Y-243990D01*
X240521Y-243991D01*
X240526Y-243992D01*
X240604Y-244019D01*
X240688Y-244052D01*
X240778Y-244092D01*
X240872Y-244139D01*
X240970Y-244192D01*
X241071Y-244249D01*
X241175Y-244312D01*
X241279Y-244378D01*
X241384Y-244449D01*
X241490Y-244523D01*
X241594Y-244599D01*
X241696Y-244677D01*
X241796Y-244758D01*
X241892Y-244839D01*
X241985Y-244921D01*
X242072Y-245003D01*
X242893Y-245797D01*
X243156Y-247017D01*
X243171Y-247096D01*
X243187Y-247185D01*
X243201Y-247282D01*
X243216Y-247387D01*
X243230Y-247501D01*
X243243Y-247622D01*
X243256Y-247751D01*
X243268Y-247887D01*
X243280Y-248030D01*
X243291Y-248180D01*
X243302Y-248337D01*
X243312Y-248499D01*
X243322Y-248667D01*
X243331Y-248841D01*
X243339Y-249019D01*
X243348Y-249203D01*
X243355Y-249392D01*
X243363Y-249584D01*
X243369Y-249781D01*
X243375Y-249982D01*
X243381Y-250186D01*
X243386Y-250393D01*
X243391Y-250604D01*
X243395Y-250816D01*
X243399Y-251031D01*
X243402Y-251249D01*
X243405Y-251468D01*
X243407Y-251688D01*
X243408Y-251910D01*
X243410Y-252132D01*
X243410Y-252355D01*
X243410Y-252578D01*
X243410Y-252802D01*
X243409Y-253025D01*
X243408Y-253247D01*
X243406Y-253469D01*
X243404Y-253689D01*
X243401Y-253908D01*
X243397Y-254125D01*
X243393Y-254341D01*
X243389Y-254554D01*
X243384Y-254764D01*
X243379Y-254971D01*
X243373Y-255175D01*
X243366Y-255376D01*
X243359Y-255573D01*
X243352Y-255766D01*
X243344Y-255955D01*
X243336Y-256139D01*
X243327Y-256318D01*
X243318Y-256492D01*
X243308Y-256660D01*
X243297Y-256823D01*
X243286Y-256979D01*
X243275Y-257129D01*
X243263Y-257273D01*
X243251Y-257409D01*
X243238Y-257538D01*
X243224Y-257660D01*
X243210Y-257774D01*
X243196Y-257880D01*
X243181Y-257977D01*
X243166Y-258066D01*
X243150Y-258145D01*
X242882Y-259392D01*
X242031Y-260138D01*
X241986Y-260176D01*
X241939Y-260215D01*
X241890Y-260254D01*
X241840Y-260293D01*
X241788Y-260332D01*
X241734Y-260371D01*
X241679Y-260410D01*
X241623Y-260448D01*
X241566Y-260486D01*
X241508Y-260524D01*
X241448Y-260562D01*
X241388Y-260599D01*
X241328Y-260635D01*
X241267Y-260671D01*
X241205Y-260707D01*
X241143Y-260741D01*
X241081Y-260775D01*
X241019Y-260808D01*
X240956Y-260840D01*
X240894Y-260872D01*
X240833Y-260902D01*
X240771Y-260930D01*
X240710Y-260958D01*
X240650Y-260985D01*
X240591Y-261010D01*
X240532Y-261034D01*
X240474Y-261057D01*
X240418Y-261078D01*
X240362Y-261097D01*
X240308Y-261115D01*
X240255Y-261131D01*
X240204Y-261145D01*
X240135Y-261161D01*
X240045Y-261176D01*
X239934Y-261191D01*
X239803Y-261204D01*
X239652Y-261218D01*
X239481Y-261230D01*
X239290Y-261242D01*
X239079Y-261254D01*
X238849Y-261264D01*
X238599Y-261275D01*
X238330Y-261284D01*
X238041Y-261293D01*
X237733Y-261302D01*
X237406Y-261310D01*
X237060Y-261317D01*
X236696Y-261323D01*
X236312Y-261329D01*
X235911Y-261335D01*
X235490Y-261339D01*
X235052Y-261343D01*
X234596Y-261347D01*
X234121Y-261350D01*
X233629Y-261352D01*
X233119Y-261353D01*
X232591Y-261354D01*
X232046Y-261354D01*
X231483Y-261354D01*
X230903Y-261353D01*
X230306Y-261351D01*
X229693Y-261349D01*
X229062Y-261346D01*
X228414Y-261343D01*
X217600Y-261278D01*
Y-259287D01*
Y-257296D01*
X228202Y-257172D01*
X238803Y-257047D01*
X238872Y-252693D01*
X238940Y-248340D01*
X238512Y-248027D01*
X238084Y-247715D01*
X217725D01*
Y-245724D01*
Y-243733D01*
X228763Y-243755D01*
D02*
G37*
G36*
X256824Y-243019D02*
X256862Y-243024D01*
X256898Y-243033D01*
X256932Y-243045D01*
X256964Y-243061D01*
X256996Y-243081D01*
X257026Y-243104D01*
X257056Y-243131D01*
X257085Y-243162D01*
X257113Y-243196D01*
X257141Y-243234D01*
X257169Y-243276D01*
X257197Y-243322D01*
X257225Y-243371D01*
X257253Y-243425D01*
X257282Y-243482D01*
X257311Y-243544D01*
X257342Y-243609D01*
X257626Y-244231D01*
X269361D01*
Y-246217D01*
Y-248203D01*
X264184Y-248270D01*
X259008Y-248337D01*
X258942Y-255119D01*
X258876Y-261900D01*
X254651D01*
X254585Y-254870D01*
X254518Y-247839D01*
X253832Y-247761D01*
X253760Y-247751D01*
X253693Y-247741D01*
X253629Y-247728D01*
X253570Y-247714D01*
X253515Y-247698D01*
X253464Y-247679D01*
X253417Y-247659D01*
X253375Y-247636D01*
X253336Y-247611D01*
X253302Y-247583D01*
X253272Y-247552D01*
X253245Y-247518D01*
X253223Y-247482D01*
X253205Y-247442D01*
X253191Y-247399D01*
X253180Y-247352D01*
X253174Y-247302D01*
X253171Y-247248D01*
X253173Y-247190D01*
X253178Y-247129D01*
X253187Y-247063D01*
X253200Y-246992D01*
X253217Y-246918D01*
X253237Y-246839D01*
X253262Y-246755D01*
X253290Y-246667D01*
X253321Y-246573D01*
X253356Y-246475D01*
X253395Y-246371D01*
X253438Y-246262D01*
X253484Y-246147D01*
X253534Y-246027D01*
X253555Y-245977D01*
X253578Y-245926D01*
X253601Y-245876D01*
X253625Y-245825D01*
X253649Y-245775D01*
X253674Y-245724D01*
X253700Y-245674D01*
X253727Y-245623D01*
X253755Y-245573D01*
X253783Y-245523D01*
X253812Y-245473D01*
X253841Y-245422D01*
X253871Y-245373D01*
X253902Y-245323D01*
X253933Y-245273D01*
X253965Y-245223D01*
X253997Y-245174D01*
X254030Y-245125D01*
X254064Y-245076D01*
X254098Y-245028D01*
X254133Y-244979D01*
X254168Y-244931D01*
X254204Y-244883D01*
X254240Y-244835D01*
X254277Y-244788D01*
X254314Y-244741D01*
X254352Y-244694D01*
X254390Y-244648D01*
X254428Y-244602D01*
X254467Y-244557D01*
X254506Y-244512D01*
X254546Y-244467D01*
X254586Y-244422D01*
X254627Y-244378D01*
X254667Y-244335D01*
X254708Y-244292D01*
X254750Y-244250D01*
X254792Y-244208D01*
X254834Y-244166D01*
X254876Y-244125D01*
X254919Y-244085D01*
X254961Y-244045D01*
X255004Y-244005D01*
X255048Y-243967D01*
X255091Y-243929D01*
X255135Y-243891D01*
X255179Y-243854D01*
X255223Y-243818D01*
X255267Y-243782D01*
X255311Y-243747D01*
X255356Y-243713D01*
X255400Y-243680D01*
X255445Y-243647D01*
X255490Y-243615D01*
X255535Y-243583D01*
X255580Y-243553D01*
X255625Y-243523D01*
X255670Y-243494D01*
X255715Y-243466D01*
X255760Y-243439D01*
X255805Y-243412D01*
X255850Y-243387D01*
X255895Y-243362D01*
X255940Y-243338D01*
X256024Y-243295D01*
X256104Y-243254D01*
X256179Y-243217D01*
X256251Y-243183D01*
X256318Y-243152D01*
X256382Y-243124D01*
X256443Y-243099D01*
X256500Y-243077D01*
X256555Y-243059D01*
X256606Y-243044D01*
X256654Y-243032D01*
X256700Y-243024D01*
X256744Y-243019D01*
X256785Y-243017D01*
X256824Y-243019D01*
D02*
G37*
G36*
X181450Y-309889D02*
X181516Y-309919D01*
X181583Y-309950D01*
X181650Y-309981D01*
X181717Y-310013D01*
X181785Y-310045D01*
X181852Y-310078D01*
X181920Y-310111D01*
X181987Y-310144D01*
X182054Y-310178D01*
X182120Y-310211D01*
X182186Y-310244D01*
X182252Y-310278D01*
X182316Y-310312D01*
X182380Y-310345D01*
X182442Y-310378D01*
X182504Y-310411D01*
X182564Y-310443D01*
X182623Y-310475D01*
X182680Y-310507D01*
X182736Y-310538D01*
X182790Y-310569D01*
X182843Y-310599D01*
X182893Y-310629D01*
X182941Y-310657D01*
X182988Y-310685D01*
X183032Y-310712D01*
X183073Y-310738D01*
X183112Y-310763D01*
X183149Y-310787D01*
X183183Y-310809D01*
X183213Y-310831D01*
X183241Y-310851D01*
X183753Y-311234D01*
X182729Y-311097D01*
X181706Y-310960D01*
X179887Y-311315D01*
X178069Y-311671D01*
X175958Y-312658D01*
X175904Y-312683D01*
X175849Y-312708D01*
X175796Y-312733D01*
X175742Y-312758D01*
X175689Y-312782D01*
X175637Y-312807D01*
X175584Y-312831D01*
X175532Y-312855D01*
X175481Y-312878D01*
X175429Y-312901D01*
X175379Y-312924D01*
X175328Y-312947D01*
X175279Y-312969D01*
X175229Y-312992D01*
X175180Y-313014D01*
X175132Y-313035D01*
X175084Y-313056D01*
X175037Y-313077D01*
X174990Y-313098D01*
X174944Y-313118D01*
X174899Y-313138D01*
X174854Y-313158D01*
X174810Y-313177D01*
X174767Y-313196D01*
X174724Y-313214D01*
X174681Y-313232D01*
X174640Y-313250D01*
X174599Y-313268D01*
X174559Y-313284D01*
X174520Y-313301D01*
X174482Y-313317D01*
X174444Y-313333D01*
X174407Y-313348D01*
X174372Y-313363D01*
X174337Y-313377D01*
X174302Y-313391D01*
X174269Y-313405D01*
X174237Y-313418D01*
X174205Y-313431D01*
X174175Y-313443D01*
X174145Y-313454D01*
X174116Y-313465D01*
X174089Y-313476D01*
X174062Y-313486D01*
X174037Y-313496D01*
X174012Y-313505D01*
X173989Y-313513D01*
X173966Y-313521D01*
X173945Y-313529D01*
X173925Y-313536D01*
X173906Y-313542D01*
X173888Y-313548D01*
X173871Y-313553D01*
X173856Y-313558D01*
X173842Y-313562D01*
X173828Y-313565D01*
X173817Y-313568D01*
X173806Y-313570D01*
X173797Y-313572D01*
X173789Y-313573D01*
X173782Y-313573D01*
X173776Y-313573D01*
X173773Y-313572D01*
X173770Y-313570D01*
X173776Y-313529D01*
X173825Y-313438D01*
X173911Y-313305D01*
X174031Y-313134D01*
X174181Y-312932D01*
X174356Y-312703D01*
X174553Y-312454D01*
X174767Y-312191D01*
X175842Y-310885D01*
X176890Y-310201D01*
X177937Y-309516D01*
X179053Y-309413D01*
X180170Y-309309D01*
X181450Y-309889D01*
D02*
G37*
G36*
X154833Y-309341D02*
X155857Y-309783D01*
X156881Y-310225D01*
X157748Y-311027D01*
X157818Y-311093D01*
X157892Y-311165D01*
X157968Y-311242D01*
X158047Y-311324D01*
X158127Y-311410D01*
X158210Y-311500D01*
X158294Y-311593D01*
X158380Y-311690D01*
X158466Y-311788D01*
X158552Y-311889D01*
X158639Y-311991D01*
X158725Y-312095D01*
X158810Y-312199D01*
X158895Y-312303D01*
X158978Y-312407D01*
X159059Y-312510D01*
X159138Y-312612D01*
X159215Y-312712D01*
X159289Y-312810D01*
X159359Y-312905D01*
X159426Y-312998D01*
X159489Y-313087D01*
X159548Y-313171D01*
X159602Y-313252D01*
X159651Y-313327D01*
X159695Y-313398D01*
X159733Y-313462D01*
X159764Y-313520D01*
X159790Y-313571D01*
X159808Y-313615D01*
X159820Y-313652D01*
X159824Y-313680D01*
X159773Y-313672D01*
X159627Y-313619D01*
X159396Y-313525D01*
X159091Y-313396D01*
X158721Y-313235D01*
X158297Y-313047D01*
X157830Y-312836D01*
X157328Y-312606D01*
X154833Y-311457D01*
X153298Y-311223D01*
X151762Y-310989D01*
X150738Y-311131D01*
X149715Y-311274D01*
X150689Y-310641D01*
X150749Y-310603D01*
X150809Y-310565D01*
X150868Y-310527D01*
X150928Y-310490D01*
X150988Y-310454D01*
X151047Y-310418D01*
X151107Y-310382D01*
X151166Y-310347D01*
X151226Y-310313D01*
X151285Y-310279D01*
X151345Y-310246D01*
X151404Y-310213D01*
X151463Y-310181D01*
X151522Y-310149D01*
X151580Y-310118D01*
X151639Y-310087D01*
X151698Y-310057D01*
X151756Y-310028D01*
X151814Y-309999D01*
X151872Y-309970D01*
X151930Y-309943D01*
X151988Y-309916D01*
X152045Y-309889D01*
X152102Y-309863D01*
X152160Y-309838D01*
X152216Y-309813D01*
X152273Y-309788D01*
X152329Y-309765D01*
X152385Y-309741D01*
X152441Y-309719D01*
X152497Y-309697D01*
X152552Y-309676D01*
X152607Y-309655D01*
X152662Y-309635D01*
X152716Y-309616D01*
X152770Y-309597D01*
X152824Y-309579D01*
X152877Y-309561D01*
X152930Y-309544D01*
X152983Y-309528D01*
X153035Y-309512D01*
X153088Y-309497D01*
X153139Y-309483D01*
X153190Y-309469D01*
X153241Y-309456D01*
X153292Y-309444D01*
X153342Y-309432D01*
X153391Y-309421D01*
X153441Y-309410D01*
X153489Y-309401D01*
X153538Y-309392D01*
X153586Y-309383D01*
X153633Y-309375D01*
X153680Y-309368D01*
X153726Y-309362D01*
X153772Y-309356D01*
X153818Y-309351D01*
X153863Y-309347D01*
X153907Y-309343D01*
X153951Y-309341D01*
X153994Y-309338D01*
X154037Y-309337D01*
X154079Y-309336D01*
X154121Y-309336D01*
X154833Y-309341D01*
D02*
G37*
G36*
X175142Y-307607D02*
X173212Y-309485D01*
X172276Y-311225D01*
X171341Y-312965D01*
Y-313575D01*
Y-314186D01*
X171070Y-313934D01*
X170799Y-313682D01*
X170658Y-312399D01*
X170516Y-311116D01*
X170817Y-310083D01*
X171117Y-309050D01*
X172130Y-308027D01*
X173144Y-307005D01*
X174354Y-306532D01*
X174417Y-306508D01*
X174481Y-306483D01*
X174546Y-306459D01*
X174612Y-306434D01*
X174679Y-306409D01*
X174746Y-306385D01*
X174814Y-306360D01*
X174883Y-306336D01*
X174952Y-306311D01*
X175020Y-306288D01*
X175089Y-306264D01*
X175158Y-306240D01*
X175227Y-306217D01*
X175295Y-306194D01*
X175363Y-306172D01*
X175430Y-306150D01*
X175496Y-306128D01*
X175561Y-306107D01*
X175626Y-306087D01*
X175689Y-306067D01*
X175752Y-306048D01*
X175812Y-306030D01*
X175872Y-306013D01*
X175929Y-305996D01*
X175986Y-305980D01*
X176040Y-305964D01*
X176092Y-305950D01*
X176142Y-305937D01*
X176189Y-305925D01*
X176235Y-305913D01*
X176278Y-305903D01*
X176318Y-305894D01*
X177073Y-305728D01*
X175142Y-307607D01*
D02*
G37*
G36*
X156920Y-305902D02*
X157062Y-305922D01*
X157241Y-305956D01*
X157452Y-306002D01*
X157688Y-306060D01*
X157944Y-306128D01*
X158214Y-306204D01*
X159548Y-306594D01*
X160671Y-307337D01*
X161794Y-308081D01*
X162345Y-309138D01*
X162895Y-310195D01*
X162877Y-311726D01*
X162859Y-313258D01*
X162648Y-313734D01*
X162438Y-314210D01*
X162302Y-313853D01*
X162268Y-313761D01*
X162225Y-313639D01*
X162174Y-313490D01*
X162117Y-313321D01*
X162055Y-313136D01*
X161991Y-312942D01*
X161926Y-312742D01*
X161862Y-312544D01*
X161846Y-312494D01*
X161828Y-312441D01*
X161809Y-312387D01*
X161788Y-312331D01*
X161766Y-312273D01*
X161743Y-312213D01*
X161718Y-312152D01*
X161693Y-312090D01*
X161666Y-312026D01*
X161638Y-311961D01*
X161610Y-311895D01*
X161581Y-311829D01*
X161550Y-311762D01*
X161519Y-311694D01*
X161488Y-311625D01*
X161455Y-311557D01*
X161423Y-311488D01*
X161389Y-311419D01*
X161355Y-311350D01*
X161321Y-311282D01*
X161287Y-311213D01*
X161252Y-311145D01*
X161217Y-311078D01*
X161182Y-311012D01*
X161147Y-310946D01*
X161112Y-310881D01*
X161077Y-310818D01*
X161042Y-310755D01*
X161007Y-310694D01*
X160972Y-310635D01*
X160938Y-310577D01*
X160904Y-310521D01*
X160249Y-309450D01*
X158458Y-307725D01*
X158412Y-307680D01*
X158366Y-307636D01*
X158321Y-307592D01*
X158276Y-307548D01*
X158231Y-307505D01*
X158187Y-307462D01*
X158144Y-307419D01*
X158100Y-307376D01*
X158057Y-307334D01*
X158015Y-307292D01*
X157973Y-307250D01*
X157932Y-307209D01*
X157891Y-307168D01*
X157850Y-307127D01*
X157810Y-307087D01*
X157771Y-307048D01*
X157732Y-307008D01*
X157694Y-306969D01*
X157656Y-306931D01*
X157619Y-306893D01*
X157582Y-306855D01*
X157546Y-306818D01*
X157511Y-306782D01*
X157476Y-306746D01*
X157442Y-306711D01*
X157409Y-306676D01*
X157377Y-306641D01*
X157345Y-306608D01*
X157314Y-306575D01*
X157283Y-306542D01*
X157253Y-306510D01*
X157224Y-306479D01*
X157196Y-306449D01*
X157168Y-306419D01*
X157142Y-306389D01*
X157116Y-306361D01*
X157091Y-306333D01*
X157067Y-306306D01*
X157043Y-306280D01*
X157021Y-306254D01*
X156999Y-306229D01*
X156978Y-306206D01*
X156959Y-306182D01*
X156940Y-306160D01*
X156922Y-306138D01*
X156905Y-306118D01*
X156888Y-306098D01*
X156873Y-306079D01*
X156859Y-306061D01*
X156846Y-306044D01*
X156834Y-306028D01*
X156823Y-306012D01*
X156813Y-305998D01*
X156804Y-305985D01*
X156796Y-305972D01*
X156789Y-305961D01*
X156783Y-305950D01*
X156778Y-305941D01*
X156774Y-305933D01*
X156772Y-305925D01*
X156771Y-305919D01*
X156770Y-305914D01*
X156771Y-305910D01*
X156774Y-305907D01*
X156822Y-305896D01*
X156920Y-305902D01*
D02*
G37*
G36*
X152987Y-312209D02*
X153039Y-312221D01*
X153095Y-312235D01*
X153154Y-312251D01*
X153217Y-312269D01*
X153283Y-312288D01*
X153352Y-312310D01*
X153425Y-312333D01*
X153500Y-312357D01*
X153577Y-312383D01*
X153657Y-312411D01*
X153740Y-312440D01*
X153824Y-312470D01*
X153910Y-312501D01*
X153998Y-312534D01*
X154088Y-312568D01*
X154179Y-312603D01*
X154271Y-312639D01*
X154365Y-312676D01*
X154459Y-312714D01*
X154554Y-312752D01*
X154649Y-312791D01*
X154745Y-312831D01*
X154841Y-312872D01*
X154937Y-312913D01*
X155033Y-312955D01*
X155128Y-312997D01*
X155223Y-313039D01*
X155318Y-313081D01*
X155411Y-313124D01*
X155504Y-313167D01*
X155595Y-313210D01*
X155685Y-313253D01*
X157414Y-314085D01*
X159067Y-314406D01*
X160720Y-314727D01*
X158965Y-315242D01*
X157210Y-315757D01*
X156150Y-315754D01*
X155089Y-315751D01*
X153681Y-315400D01*
X152274Y-315048D01*
X150904Y-315045D01*
X149534Y-315043D01*
X147222Y-315763D01*
X147162Y-315782D01*
X147103Y-315800D01*
X147044Y-315818D01*
X146985Y-315836D01*
X146927Y-315854D01*
X146869Y-315871D01*
X146811Y-315888D01*
X146754Y-315905D01*
X146697Y-315922D01*
X146641Y-315939D01*
X146585Y-315955D01*
X146530Y-315971D01*
X146475Y-315987D01*
X146421Y-316003D01*
X146367Y-316018D01*
X146313Y-316033D01*
X146260Y-316048D01*
X146208Y-316063D01*
X146157Y-316077D01*
X146106Y-316091D01*
X146055Y-316105D01*
X146006Y-316119D01*
X145957Y-316132D01*
X145908Y-316145D01*
X145861Y-316157D01*
X145814Y-316170D01*
X145768Y-316182D01*
X145723Y-316193D01*
X145678Y-316205D01*
X145635Y-316216D01*
X145592Y-316226D01*
X145550Y-316237D01*
X145509Y-316247D01*
X145469Y-316256D01*
X145430Y-316266D01*
X145391Y-316275D01*
X145354Y-316283D01*
X145318Y-316292D01*
X145282Y-316300D01*
X145248Y-316307D01*
X145215Y-316314D01*
X145182Y-316321D01*
X145151Y-316327D01*
X145121Y-316333D01*
X145092Y-316339D01*
X145064Y-316344D01*
X145038Y-316349D01*
X145012Y-316353D01*
X144988Y-316357D01*
X144965Y-316361D01*
X144943Y-316364D01*
X144922Y-316367D01*
X144903Y-316369D01*
X144885Y-316371D01*
X144868Y-316372D01*
X144853Y-316373D01*
X144839Y-316373D01*
X144826D01*
X144815Y-316373D01*
X144805Y-316372D01*
X144796Y-316371D01*
X144789Y-316369D01*
X144784Y-316366D01*
X144780Y-316364D01*
X144787Y-316308D01*
X144860Y-316197D01*
X144992Y-316037D01*
X145176Y-315834D01*
X145405Y-315596D01*
X145675Y-315328D01*
X145978Y-315037D01*
X146309Y-314731D01*
X147968Y-313219D01*
X149097Y-312727D01*
X149156Y-312701D01*
X149217Y-312676D01*
X149279Y-312651D01*
X149342Y-312625D01*
X149407Y-312600D01*
X149472Y-312575D01*
X149539Y-312551D01*
X149606Y-312526D01*
X149674Y-312502D01*
X149743Y-312478D01*
X149812Y-312455D01*
X149881Y-312432D01*
X149950Y-312409D01*
X150020Y-312387D01*
X150089Y-312365D01*
X150158Y-312344D01*
X150226Y-312324D01*
X150294Y-312304D01*
X150362Y-312285D01*
X150429Y-312267D01*
X150495Y-312249D01*
X150559Y-312232D01*
X150623Y-312216D01*
X150685Y-312201D01*
X150746Y-312187D01*
X150806Y-312174D01*
X150863Y-312161D01*
X150919Y-312150D01*
X150973Y-312140D01*
X151025Y-312131D01*
X151075Y-312123D01*
X151122Y-312116D01*
X152018Y-311998D01*
X152987Y-312209D01*
D02*
G37*
G36*
X182930Y-312209D02*
X182980Y-312221D01*
X183033Y-312233D01*
X183086Y-312246D01*
X183141Y-312260D01*
X183197Y-312274D01*
X183254Y-312290D01*
X183311Y-312305D01*
X183370Y-312322D01*
X183429Y-312339D01*
X183489Y-312357D01*
X183549Y-312375D01*
X183610Y-312394D01*
X183670Y-312414D01*
X183731Y-312433D01*
X183792Y-312453D01*
X183853Y-312474D01*
X183914Y-312494D01*
X183974Y-312515D01*
X184033Y-312536D01*
X184092Y-312558D01*
X184151Y-312579D01*
X184208Y-312601D01*
X184265Y-312622D01*
X184320Y-312644D01*
X184375Y-312665D01*
X184428Y-312687D01*
X184480Y-312708D01*
X184530Y-312730D01*
X184579Y-312751D01*
X184625Y-312772D01*
X184671Y-312792D01*
X184714Y-312813D01*
X184757Y-312834D01*
X184803Y-312859D01*
X184851Y-312886D01*
X184902Y-312915D01*
X184955Y-312947D01*
X185011Y-312982D01*
X185069Y-313019D01*
X185128Y-313058D01*
X185190Y-313099D01*
X185254Y-313143D01*
X185319Y-313188D01*
X185387Y-313236D01*
X185456Y-313285D01*
X185526Y-313336D01*
X185598Y-313389D01*
X185671Y-313443D01*
X185745Y-313499D01*
X185820Y-313557D01*
X185897Y-313615D01*
X185974Y-313675D01*
X186052Y-313736D01*
X186130Y-313798D01*
X186210Y-313861D01*
X186290Y-313926D01*
X186370Y-313990D01*
X186451Y-314056D01*
X186531Y-314123D01*
X186612Y-314190D01*
X186693Y-314257D01*
X186774Y-314325D01*
X186855Y-314393D01*
X186935Y-314462D01*
X187015Y-314530D01*
X187095Y-314599D01*
X187174Y-314668D01*
X187252Y-314736D01*
X187330Y-314805D01*
X187406Y-314873D01*
X187482Y-314941D01*
X187557Y-315008D01*
X187630Y-315075D01*
X187702Y-315142D01*
X187773Y-315207D01*
X187843Y-315272D01*
X187910Y-315336D01*
X187977Y-315400D01*
X188041Y-315462D01*
X188104Y-315523D01*
X188164Y-315582D01*
X188223Y-315641D01*
X188279Y-315698D01*
X188333Y-315754D01*
X188385Y-315808D01*
X188434Y-315861D01*
X188481Y-315912D01*
X188525Y-315961D01*
X188567Y-316008D01*
X188605Y-316054D01*
X188641Y-316097D01*
X188673Y-316139D01*
X188703Y-316178D01*
X188729Y-316214D01*
X188752Y-316249D01*
X188771Y-316281D01*
X189007Y-316690D01*
X187276Y-316074D01*
X187222Y-316055D01*
X187170Y-316037D01*
X187117Y-316018D01*
X187065Y-316000D01*
X187014Y-315982D01*
X186963Y-315964D01*
X186913Y-315947D01*
X186863Y-315929D01*
X186813Y-315912D01*
X186764Y-315895D01*
X186715Y-315878D01*
X186667Y-315862D01*
X186619Y-315845D01*
X186571Y-315829D01*
X186524Y-315813D01*
X186477Y-315798D01*
X186431Y-315782D01*
X186385Y-315767D01*
X186339Y-315752D01*
X186294Y-315737D01*
X186249Y-315722D01*
X186205Y-315707D01*
X186161Y-315693D01*
X186117Y-315679D01*
X186074Y-315665D01*
X186031Y-315651D01*
X185988Y-315638D01*
X185945Y-315624D01*
X185903Y-315611D01*
X185862Y-315598D01*
X185820Y-315585D01*
X185779Y-315573D01*
X185738Y-315560D01*
X185698Y-315548D01*
X185658Y-315536D01*
X185618Y-315524D01*
X185578Y-315512D01*
X185539Y-315501D01*
X185500Y-315489D01*
X185461Y-315478D01*
X185422Y-315467D01*
X185384Y-315456D01*
X185346Y-315446D01*
X185308Y-315435D01*
X185271Y-315425D01*
X185233Y-315415D01*
X185196Y-315405D01*
X185160Y-315395D01*
X185123Y-315385D01*
X185087Y-315376D01*
X185050Y-315367D01*
X185014Y-315357D01*
X184979Y-315348D01*
X184943Y-315340D01*
X184908Y-315331D01*
X184872Y-315322D01*
X184837Y-315314D01*
X184802Y-315306D01*
X184768Y-315298D01*
X184733Y-315290D01*
X184699Y-315282D01*
X184665Y-315275D01*
X184631Y-315267D01*
X184597Y-315260D01*
X184563Y-315253D01*
X184529Y-315246D01*
X184496Y-315239D01*
X184462Y-315232D01*
X184429Y-315226D01*
X184396Y-315219D01*
X184363Y-315213D01*
X184329Y-315207D01*
X184297Y-315201D01*
X184264Y-315195D01*
X184231Y-315189D01*
X184198Y-315183D01*
X184166Y-315178D01*
X184133Y-315173D01*
X184101Y-315167D01*
X184068Y-315162D01*
X184036Y-315158D01*
X184004Y-315153D01*
X183972Y-315148D01*
X183939Y-315143D01*
X183907Y-315139D01*
X183875Y-315135D01*
X183843Y-315131D01*
X183810Y-315126D01*
X183778Y-315123D01*
X183746Y-315119D01*
X183714Y-315115D01*
X183682Y-315111D01*
X183650Y-315108D01*
X183617Y-315105D01*
X183585Y-315102D01*
X183553Y-315098D01*
X183521Y-315095D01*
X183488Y-315092D01*
X183456Y-315090D01*
X183424Y-315087D01*
X183391Y-315084D01*
X183359Y-315082D01*
X183326Y-315079D01*
X183293Y-315077D01*
X183261Y-315075D01*
X183228Y-315073D01*
X183195Y-315071D01*
X183162Y-315069D01*
X183129Y-315068D01*
X183096Y-315066D01*
X183062Y-315064D01*
X183029Y-315063D01*
X182995Y-315061D01*
X182961Y-315060D01*
X182928Y-315059D01*
X182894Y-315058D01*
X182860Y-315057D01*
X182825Y-315056D01*
X182791Y-315055D01*
X182756Y-315054D01*
X182722Y-315054D01*
X182687Y-315053D01*
X182652Y-315052D01*
X182616Y-315052D01*
X182581Y-315052D01*
X182545Y-315051D01*
X182510Y-315051D01*
X182474Y-315051D01*
X181194Y-315048D01*
X179786Y-315400D01*
X178378Y-315751D01*
X177318Y-315754D01*
X176257Y-315757D01*
X174503Y-315247D01*
X172748Y-314738D01*
X174351Y-314428D01*
X175954Y-314119D01*
X178062Y-313185D01*
X180170Y-312251D01*
X181066Y-312125D01*
X181962Y-311998D01*
X182930Y-312209D01*
D02*
G37*
G36*
X172122Y-315287D02*
X172183Y-315307D01*
X172251Y-315339D01*
X172322Y-315380D01*
X172396Y-315431D01*
X172469Y-315488D01*
X172539Y-315552D01*
X172605Y-315620D01*
X172642Y-315657D01*
X172690Y-315697D01*
X172749Y-315740D01*
X172817Y-315785D01*
X172894Y-315832D01*
X172979Y-315880D01*
X173072Y-315930D01*
X173171Y-315981D01*
X173276Y-316032D01*
X173386Y-316084D01*
X173500Y-316135D01*
X173618Y-316185D01*
X173738Y-316234D01*
X173860Y-316282D01*
X173984Y-316328D01*
X174108Y-316372D01*
X175307Y-316783D01*
X181578Y-316931D01*
X187848Y-317079D01*
X189197Y-317639D01*
X190545Y-318199D01*
X191792Y-319468D01*
X193039Y-320736D01*
X193842Y-322801D01*
X193863Y-322854D01*
X193883Y-322907D01*
X193904Y-322959D01*
X193924Y-323011D01*
X193943Y-323063D01*
X193963Y-323115D01*
X193982Y-323166D01*
X194001Y-323217D01*
X194020Y-323268D01*
X194039Y-323318D01*
X194058Y-323368D01*
X194076Y-323417D01*
X194094Y-323466D01*
X194111Y-323515D01*
X194129Y-323563D01*
X194146Y-323610D01*
X194163Y-323657D01*
X194179Y-323703D01*
X194196Y-323749D01*
X194212Y-323795D01*
X194227Y-323839D01*
X194243Y-323883D01*
X194258Y-323927D01*
X194272Y-323970D01*
X194287Y-324012D01*
X194301Y-324053D01*
X194315Y-324094D01*
X194328Y-324134D01*
X194341Y-324174D01*
X194354Y-324213D01*
X194367Y-324250D01*
X194378Y-324288D01*
X194390Y-324324D01*
X194402Y-324359D01*
X194412Y-324394D01*
X194423Y-324428D01*
X194433Y-324461D01*
X194443Y-324493D01*
X194452Y-324524D01*
X194461Y-324555D01*
X194470Y-324584D01*
X194478Y-324612D01*
X194485Y-324640D01*
X194493Y-324667D01*
X194500Y-324692D01*
X194506Y-324716D01*
X194512Y-324740D01*
X194518Y-324762D01*
X194523Y-324784D01*
X194527Y-324804D01*
X194531Y-324823D01*
X194535Y-324841D01*
X194538Y-324858D01*
X194541Y-324874D01*
X194543Y-324888D01*
X194545Y-324902D01*
X194546Y-324914D01*
X194547Y-324924D01*
X194547Y-324934D01*
X194546Y-324943D01*
X194546Y-324950D01*
X194544Y-324956D01*
X194542Y-324960D01*
X194540Y-324963D01*
X194498Y-324970D01*
X194421Y-324952D01*
X194311Y-324910D01*
X194174Y-324848D01*
X194015Y-324766D01*
X193837Y-324668D01*
X193645Y-324555D01*
X193444Y-324430D01*
X193391Y-324397D01*
X193333Y-324362D01*
X193271Y-324324D01*
X193204Y-324285D01*
X193133Y-324245D01*
X193058Y-324203D01*
X192980Y-324160D01*
X192898Y-324115D01*
X192814Y-324069D01*
X192726Y-324022D01*
X192635Y-323974D01*
X192541Y-323925D01*
X192445Y-323875D01*
X192347Y-323824D01*
X192246Y-323773D01*
X192144Y-323722D01*
X192040Y-323670D01*
X191934Y-323617D01*
X191827Y-323565D01*
X191719Y-323512D01*
X191611Y-323459D01*
X191501Y-323406D01*
X191391Y-323354D01*
X191280Y-323301D01*
X191170Y-323250D01*
X191059Y-323198D01*
X190949Y-323147D01*
X190839Y-323097D01*
X190729Y-323047D01*
X190621Y-322998D01*
X190514Y-322951D01*
X190407Y-322904D01*
X188360Y-322009D01*
X186056Y-321399D01*
X185996Y-321383D01*
X185935Y-321367D01*
X185872Y-321350D01*
X185807Y-321333D01*
X185741Y-321316D01*
X185674Y-321299D01*
X185605Y-321282D01*
X185536Y-321264D01*
X185465Y-321246D01*
X185393Y-321228D01*
X185319Y-321210D01*
X185245Y-321191D01*
X185170Y-321172D01*
X185093Y-321153D01*
X185016Y-321134D01*
X184938Y-321115D01*
X184858Y-321096D01*
X184778Y-321076D01*
X184698Y-321057D01*
X184616Y-321037D01*
X184534Y-321017D01*
X184451Y-320997D01*
X184368Y-320977D01*
X184283Y-320957D01*
X184199Y-320936D01*
X184113Y-320916D01*
X184028Y-320896D01*
X183942Y-320876D01*
X183855Y-320855D01*
X183768Y-320835D01*
X183681Y-320814D01*
X183594Y-320794D01*
X183506Y-320774D01*
X183419Y-320753D01*
X183331Y-320733D01*
X183243Y-320712D01*
X183155Y-320692D01*
X183067Y-320672D01*
X182979Y-320652D01*
X182891Y-320632D01*
X182803Y-320612D01*
X182715Y-320592D01*
X182628Y-320572D01*
X182540Y-320552D01*
X182453Y-320533D01*
X182367Y-320513D01*
X182281Y-320494D01*
X182195Y-320475D01*
X182109Y-320456D01*
X182024Y-320437D01*
X181940Y-320418D01*
X181856Y-320400D01*
X181772Y-320381D01*
X181690Y-320363D01*
X181608Y-320346D01*
X181527Y-320328D01*
X181446Y-320311D01*
X181367Y-320294D01*
X181288Y-320277D01*
X181210Y-320260D01*
X181133Y-320244D01*
X181057Y-320228D01*
X180982Y-320212D01*
X180908Y-320197D01*
X178064Y-319605D01*
X176685Y-318960D01*
X176600Y-318920D01*
X176514Y-318879D01*
X176428Y-318837D01*
X176343Y-318796D01*
X176258Y-318753D01*
X176173Y-318711D01*
X176088Y-318668D01*
X176004Y-318624D01*
X175920Y-318580D01*
X175837Y-318536D01*
X175754Y-318492D01*
X175671Y-318447D01*
X175589Y-318402D01*
X175507Y-318356D01*
X175426Y-318311D01*
X175345Y-318265D01*
X175265Y-318219D01*
X175185Y-318172D01*
X175105Y-318126D01*
X175027Y-318079D01*
X174948Y-318032D01*
X174871Y-317984D01*
X174794Y-317937D01*
X174717Y-317889D01*
X174642Y-317842D01*
X174567Y-317794D01*
X174493Y-317746D01*
X174419Y-317698D01*
X174346Y-317650D01*
X174274Y-317601D01*
X174203Y-317553D01*
X174132Y-317505D01*
X174063Y-317456D01*
X173994Y-317408D01*
X173926Y-317359D01*
X173859Y-317311D01*
X173793Y-317263D01*
X173728Y-317214D01*
X173663Y-317166D01*
X173600Y-317118D01*
X173538Y-317070D01*
X173476Y-317022D01*
X173416Y-316974D01*
X173357Y-316926D01*
X173298Y-316879D01*
X173241Y-316831D01*
X173185Y-316784D01*
X173130Y-316736D01*
X173076Y-316689D01*
X173024Y-316643D01*
X172973Y-316596D01*
X172922Y-316550D01*
X172873Y-316504D01*
X172826Y-316458D01*
X172779Y-316412D01*
X172734Y-316367D01*
X172690Y-316322D01*
X172647Y-316277D01*
X172606Y-316233D01*
X172566Y-316189D01*
X172528Y-316145D01*
X172491Y-316102D01*
X172455Y-316059D01*
X172421Y-316017D01*
X171837Y-315281D01*
X172069D01*
X172122Y-315287D01*
D02*
G37*
G36*
X161451Y-315310D02*
X161460Y-315311D01*
X161468Y-315313D01*
X161476Y-315317D01*
X161482Y-315321D01*
X161486Y-315327D01*
X161490Y-315333D01*
X161493Y-315341D01*
X161494Y-315350D01*
X161494Y-315360D01*
X161493Y-315371D01*
X161490Y-315384D01*
X161487Y-315397D01*
X161482Y-315412D01*
X161477Y-315427D01*
X161470Y-315444D01*
X161461Y-315462D01*
X161452Y-315481D01*
X161442Y-315501D01*
X161430Y-315522D01*
X161417Y-315545D01*
X161403Y-315568D01*
X161388Y-315593D01*
X161372Y-315618D01*
X161354Y-315645D01*
X161336Y-315673D01*
X161316Y-315703D01*
X161295Y-315733D01*
X161273Y-315764D01*
X161250Y-315797D01*
X161226Y-315830D01*
X161200Y-315865D01*
X161174Y-315901D01*
X161146Y-315938D01*
X161117Y-315976D01*
X161087Y-316016D01*
X161051Y-316062D01*
X161014Y-316108D01*
X160976Y-316154D01*
X160937Y-316201D01*
X160896Y-316247D01*
X160855Y-316294D01*
X160812Y-316340D01*
X160768Y-316387D01*
X160723Y-316433D01*
X160677Y-316480D01*
X160630Y-316527D01*
X160581Y-316573D01*
X160532Y-316620D01*
X160481Y-316667D01*
X160430Y-316714D01*
X160377Y-316761D01*
X160323Y-316808D01*
X160268Y-316854D01*
X160212Y-316901D01*
X160155Y-316948D01*
X160097Y-316995D01*
X160038Y-317042D01*
X159977Y-317089D01*
X159916Y-317136D01*
X159854Y-317183D01*
X159790Y-317230D01*
X159726Y-317277D01*
X159660Y-317324D01*
X159593Y-317371D01*
X159526Y-317418D01*
X159457Y-317465D01*
X159387Y-317512D01*
X159316Y-317559D01*
X159244Y-317605D01*
X159171Y-317652D01*
X159098Y-317699D01*
X159023Y-317746D01*
X158947Y-317793D01*
X158870Y-317840D01*
X158792Y-317887D01*
X158713Y-317933D01*
X158633Y-317980D01*
X158552Y-318027D01*
X158470Y-318073D01*
X158387Y-318120D01*
X158303Y-318166D01*
X158218Y-318213D01*
X158132Y-318260D01*
X158045Y-318306D01*
X157957Y-318352D01*
X157868Y-318399D01*
X157778Y-318445D01*
X157687Y-318491D01*
X157595Y-318537D01*
X157502Y-318583D01*
X157409Y-318629D01*
X157314Y-318675D01*
X157218Y-318721D01*
X157122Y-318767D01*
X157024Y-318813D01*
X156926Y-318858D01*
X156826Y-318904D01*
X156726Y-318949D01*
X156625Y-318995D01*
X154833Y-319793D01*
X152287Y-320278D01*
X152221Y-320291D01*
X152154Y-320304D01*
X152085Y-320318D01*
X152015Y-320331D01*
X151944Y-320346D01*
X151871Y-320360D01*
X151798Y-320375D01*
X151723Y-320391D01*
X151648Y-320406D01*
X151572Y-320422D01*
X151494Y-320439D01*
X151416Y-320455D01*
X151337Y-320472D01*
X151258Y-320489D01*
X151177Y-320507D01*
X151096Y-320525D01*
X151014Y-320543D01*
X150932Y-320561D01*
X150848Y-320579D01*
X150765Y-320598D01*
X150681Y-320617D01*
X150596Y-320636D01*
X150511Y-320656D01*
X150426Y-320675D01*
X150340Y-320695D01*
X150254Y-320715D01*
X150168Y-320735D01*
X150081Y-320755D01*
X149994Y-320775D01*
X149908Y-320796D01*
X149821Y-320816D01*
X149734Y-320837D01*
X149647Y-320858D01*
X149560Y-320879D01*
X149473Y-320900D01*
X149386Y-320921D01*
X149299Y-320942D01*
X149213Y-320963D01*
X149127Y-320985D01*
X149041Y-321006D01*
X148955Y-321027D01*
X148870Y-321048D01*
X148785Y-321070D01*
X148701Y-321091D01*
X148617Y-321112D01*
X148534Y-321133D01*
X148451Y-321155D01*
X148369Y-321176D01*
X148287Y-321197D01*
X148206Y-321218D01*
X148126Y-321239D01*
X148047Y-321260D01*
X147968Y-321281D01*
X147890Y-321302D01*
X147813Y-321322D01*
X147738Y-321342D01*
X147663Y-321363D01*
X147589Y-321383D01*
X147516Y-321403D01*
X147444Y-321423D01*
X147373Y-321443D01*
X147304Y-321462D01*
X147236Y-321481D01*
X147169Y-321501D01*
X144596Y-322238D01*
X142549Y-323192D01*
X142496Y-323217D01*
X142443Y-323241D01*
X142390Y-323266D01*
X142336Y-323291D01*
X142283Y-323317D01*
X142229Y-323342D01*
X142176Y-323368D01*
X142122Y-323393D01*
X142069Y-323419D01*
X142015Y-323445D01*
X141962Y-323470D01*
X141908Y-323496D01*
X141855Y-323522D01*
X141802Y-323548D01*
X141749Y-323574D01*
X141696Y-323600D01*
X141643Y-323626D01*
X141590Y-323652D01*
X141538Y-323678D01*
X141486Y-323704D01*
X141434Y-323730D01*
X141383Y-323755D01*
X141331Y-323781D01*
X141280Y-323807D01*
X141230Y-323832D01*
X141180Y-323857D01*
X141130Y-323883D01*
X141080Y-323908D01*
X141031Y-323933D01*
X140983Y-323958D01*
X140935Y-323982D01*
X140887Y-324007D01*
X140840Y-324031D01*
X140794Y-324055D01*
X140748Y-324079D01*
X140703Y-324103D01*
X140658Y-324126D01*
X140614Y-324149D01*
X140571Y-324172D01*
X140528Y-324195D01*
X140487Y-324217D01*
X140445Y-324239D01*
X140405Y-324261D01*
X140365Y-324283D01*
X140326Y-324304D01*
X140288Y-324324D01*
X140251Y-324345D01*
X140215Y-324365D01*
X140179Y-324384D01*
X140145Y-324404D01*
X140111Y-324423D01*
X140078Y-324441D01*
X140047Y-324459D01*
X140016Y-324477D01*
X139986Y-324494D01*
X139958Y-324511D01*
X139930Y-324527D01*
X139903Y-324543D01*
X139878Y-324558D01*
X139854Y-324573D01*
X139831Y-324587D01*
X139809Y-324601D01*
X139788Y-324614D01*
X139769Y-324627D01*
X139036Y-325109D01*
X139224Y-324300D01*
X139246Y-324211D01*
X139272Y-324112D01*
X139302Y-324004D01*
X139336Y-323887D01*
X139374Y-323764D01*
X139414Y-323634D01*
X139457Y-323500D01*
X139503Y-323362D01*
X139551Y-323220D01*
X139600Y-323078D01*
X139651Y-322934D01*
X139702Y-322790D01*
X139754Y-322648D01*
X139807Y-322509D01*
X139859Y-322373D01*
X139911Y-322241D01*
X140410Y-320991D01*
X141418Y-319806D01*
X141474Y-319740D01*
X141530Y-319676D01*
X141584Y-319613D01*
X141637Y-319551D01*
X141690Y-319492D01*
X141742Y-319433D01*
X141793Y-319376D01*
X141843Y-319321D01*
X141893Y-319267D01*
X141942Y-319214D01*
X141991Y-319162D01*
X142039Y-319112D01*
X142087Y-319062D01*
X142134Y-319015D01*
X142181Y-318968D01*
X142228Y-318922D01*
X142274Y-318877D01*
X142321Y-318834D01*
X142367Y-318791D01*
X142413Y-318750D01*
X142459Y-318709D01*
X142505Y-318670D01*
X142551Y-318631D01*
X142597Y-318593D01*
X142644Y-318556D01*
X142690Y-318520D01*
X142737Y-318484D01*
X142784Y-318449D01*
X142832Y-318415D01*
X142879Y-318382D01*
X142928Y-318350D01*
X142977Y-318317D01*
X143026Y-318286D01*
X143076Y-318255D01*
X143127Y-318225D01*
X143178Y-318195D01*
X143230Y-318165D01*
X143283Y-318136D01*
X143337Y-318108D01*
X143392Y-318079D01*
X143447Y-318051D01*
X143504Y-318023D01*
X143561Y-317996D01*
X143620Y-317969D01*
X143680Y-317942D01*
X143741Y-317915D01*
X143803Y-317888D01*
X143866Y-317862D01*
X143931Y-317835D01*
X143998Y-317809D01*
X144065Y-317783D01*
X144134Y-317756D01*
X144205Y-317730D01*
X144277Y-317703D01*
X144351Y-317676D01*
X144427Y-317650D01*
X144504Y-317622D01*
X144583Y-317595D01*
X144664Y-317568D01*
X144747Y-317540D01*
X144831Y-317512D01*
X144918Y-317484D01*
X145007Y-317455D01*
X145098Y-317426D01*
X146596Y-316947D01*
X156901D01*
X158426Y-316582D01*
X159952Y-316218D01*
X160645Y-315749D01*
X160690Y-315719D01*
X160734Y-315690D01*
X160776Y-315662D01*
X160818Y-315635D01*
X160858Y-315609D01*
X160896Y-315584D01*
X160934Y-315560D01*
X160970Y-315537D01*
X161005Y-315515D01*
X161039Y-315495D01*
X161072Y-315475D01*
X161103Y-315457D01*
X161133Y-315439D01*
X161162Y-315423D01*
X161190Y-315408D01*
X161216Y-315394D01*
X161242Y-315381D01*
X161266Y-315369D01*
X161289Y-315358D01*
X161310Y-315348D01*
X161331Y-315339D01*
X161350Y-315332D01*
X161368Y-315325D01*
X161385Y-315320D01*
X161400Y-315316D01*
X161415Y-315313D01*
X161428Y-315310D01*
X161440Y-315309D01*
X161451Y-315310D01*
D02*
G37*
G36*
X174604Y-327188D02*
X174656Y-327192D01*
X174721Y-327205D01*
X174797Y-327225D01*
X174883Y-327251D01*
X174978Y-327284D01*
X175083Y-327323D01*
X175194Y-327368D01*
X175312Y-327418D01*
X175436Y-327473D01*
X175565Y-327533D01*
X175698Y-327596D01*
X175833Y-327663D01*
X175971Y-327734D01*
X176110Y-327807D01*
X176249Y-327883D01*
X176387Y-327961D01*
X176456Y-328001D01*
X176523Y-328040D01*
X176590Y-328080D01*
X176656Y-328119D01*
X176720Y-328159D01*
X176784Y-328198D01*
X176846Y-328236D01*
X176906Y-328275D01*
X176966Y-328313D01*
X177023Y-328350D01*
X177079Y-328387D01*
X177134Y-328424D01*
X177187Y-328460D01*
X177237Y-328495D01*
X177286Y-328529D01*
X177333Y-328562D01*
X177377Y-328595D01*
X177420Y-328627D01*
X177460Y-328657D01*
X177497Y-328687D01*
X177532Y-328715D01*
X177565Y-328742D01*
X177595Y-328768D01*
X177622Y-328792D01*
X177647Y-328816D01*
X177668Y-328837D01*
X177686Y-328857D01*
X177702Y-328876D01*
X177714Y-328893D01*
X177723Y-328908D01*
X177728Y-328921D01*
X177731Y-328933D01*
X177739Y-329138D01*
X176957Y-329032D01*
X176176Y-328925D01*
X175926Y-329359D01*
X175897Y-329405D01*
X175861Y-329453D01*
X175818Y-329504D01*
X175770Y-329556D01*
X175717Y-329609D01*
X175659Y-329663D01*
X175596Y-329717D01*
X175530Y-329771D01*
X175461Y-329825D01*
X175389Y-329877D01*
X175314Y-329929D01*
X175239Y-329979D01*
X175162Y-330026D01*
X175084Y-330071D01*
X175006Y-330114D01*
X174929Y-330153D01*
X174181Y-330512D01*
X172620D01*
Y-331219D01*
Y-331925D01*
X172236Y-331788D01*
X171852Y-331651D01*
Y-332752D01*
Y-333853D01*
X172492Y-335554D01*
X172512Y-335610D01*
X172533Y-335664D01*
X172553Y-335717D01*
X172572Y-335770D01*
X172591Y-335822D01*
X172609Y-335872D01*
X172628Y-335922D01*
X172645Y-335971D01*
X172663Y-336019D01*
X172679Y-336067D01*
X172696Y-336113D01*
X172712Y-336158D01*
X172728Y-336203D01*
X172743Y-336246D01*
X172758Y-336289D01*
X172772Y-336331D01*
X172786Y-336372D01*
X172800Y-336412D01*
X172813Y-336451D01*
X172826Y-336490D01*
X172838Y-336527D01*
X172850Y-336563D01*
X172862Y-336599D01*
X172873Y-336634D01*
X172883Y-336668D01*
X172894Y-336701D01*
X172904Y-336733D01*
X172913Y-336764D01*
X172923Y-336794D01*
X172931Y-336824D01*
X172940Y-336852D01*
X172948Y-336880D01*
X172955Y-336907D01*
X172963Y-336933D01*
X172969Y-336958D01*
X172976Y-336982D01*
X172982Y-337005D01*
X172988Y-337028D01*
X172993Y-337049D01*
X172998Y-337070D01*
X173003Y-337089D01*
X173007Y-337108D01*
X173011Y-337126D01*
X173014Y-337143D01*
X173017Y-337159D01*
X173020Y-337175D01*
X173022Y-337189D01*
X173024Y-337203D01*
X173026Y-337215D01*
X173027Y-337227D01*
X173028Y-337238D01*
X173028Y-337248D01*
X173028Y-337257D01*
X173028Y-337266D01*
X173028Y-337273D01*
X173027Y-337280D01*
X173025Y-337285D01*
X173024Y-337290D01*
X173022Y-337294D01*
X173019Y-337297D01*
X173017Y-337299D01*
X173013Y-337301D01*
X173010Y-337301D01*
X173006Y-337300D01*
X173002Y-337299D01*
X172998Y-337297D01*
X172993Y-337294D01*
X172988Y-337290D01*
X172982Y-337285D01*
X172977Y-337279D01*
X172970Y-337273D01*
X172964Y-337265D01*
X172957Y-337257D01*
X172950Y-337248D01*
X172942Y-337238D01*
X172935Y-337227D01*
X172926Y-337215D01*
X172918Y-337203D01*
X172909Y-337189D01*
X172900Y-337175D01*
X172891Y-337159D01*
X172881Y-337143D01*
X172871Y-337126D01*
X172860Y-337108D01*
X172850Y-337089D01*
X172839Y-337070D01*
X172827Y-337049D01*
X172816Y-337028D01*
X172804Y-337006D01*
X172791Y-336983D01*
X172779Y-336959D01*
X172766Y-336934D01*
X172752Y-336908D01*
X172739Y-336882D01*
X172725Y-336854D01*
X172711Y-336826D01*
X172697Y-336797D01*
X172682Y-336767D01*
X172667Y-336736D01*
X172651Y-336704D01*
X172636Y-336672D01*
X172620Y-336638D01*
X172603Y-336604D01*
X172587Y-336569D01*
X172570Y-336533D01*
X172553Y-336496D01*
X172536Y-336458D01*
X172518Y-336419D01*
X172500Y-336380D01*
X172482Y-336340D01*
X172463Y-336298D01*
X172444Y-336256D01*
X172425Y-336213D01*
X172406Y-336170D01*
X172386Y-336125D01*
X172366Y-336079D01*
X172346Y-336033D01*
X172325Y-335986D01*
X172305Y-335938D01*
X172283Y-335889D01*
X172262Y-335839D01*
X172241Y-335788D01*
X172219Y-335737D01*
X172197Y-335684D01*
X172174Y-335631D01*
X172152Y-335577D01*
X172129Y-335522D01*
X172105Y-335467D01*
X171284Y-333487D01*
X171076Y-332059D01*
X170869Y-330631D01*
X171044Y-329686D01*
X171219Y-328742D01*
X171983Y-328398D01*
X172064Y-328362D01*
X172147Y-328325D01*
X172231Y-328287D01*
X172318Y-328248D01*
X172404Y-328209D01*
X172491Y-328170D01*
X172577Y-328131D01*
X172662Y-328093D01*
X172745Y-328055D01*
X172826Y-328018D01*
X172903Y-327983D01*
X172977Y-327950D01*
X173046Y-327919D01*
X173110Y-327890D01*
X173169Y-327863D01*
X173221Y-327839D01*
X173693Y-327624D01*
X174180Y-328034D01*
X174668Y-328444D01*
Y-328183D01*
X174662Y-328128D01*
X174647Y-328070D01*
X174624Y-328012D01*
X174592Y-327956D01*
X174555Y-327902D01*
X174511Y-327853D01*
X174463Y-327810D01*
X174412Y-327775D01*
X174360Y-327741D01*
X174312Y-327700D01*
X174269Y-327655D01*
X174231Y-327606D01*
X174199Y-327554D01*
X174176Y-327503D01*
X174161Y-327452D01*
X174156Y-327404D01*
Y-327180D01*
X174604Y-327188D01*
D02*
G37*
G36*
X159071Y-327180D02*
X159094Y-327182D01*
X159116Y-327184D01*
X159136Y-327186D01*
X159156Y-327190D01*
X159175Y-327195D01*
X159192Y-327200D01*
X159208Y-327207D01*
X159223Y-327214D01*
X159237Y-327222D01*
X159250Y-327231D01*
X159262Y-327241D01*
X159272Y-327252D01*
X159281Y-327263D01*
X159290Y-327276D01*
X159296Y-327290D01*
X159302Y-327304D01*
X159306Y-327319D01*
X159309Y-327335D01*
X159311Y-327352D01*
X159312Y-327371D01*
X159288Y-327467D01*
X159223Y-327588D01*
X159127Y-327718D01*
X159009Y-327842D01*
X158706Y-328124D01*
X158851Y-328258D01*
X158995Y-328393D01*
X159416Y-328001D01*
X159838Y-327609D01*
X160151Y-327838D01*
X160228Y-327887D01*
X160327Y-327939D01*
X160445Y-327992D01*
X160576Y-328045D01*
X160718Y-328096D01*
X160865Y-328143D01*
X161014Y-328185D01*
X161160Y-328221D01*
X161856Y-328376D01*
X162167Y-328908D01*
X162477Y-329441D01*
X162451Y-330988D01*
X162424Y-332535D01*
X161745Y-334521D01*
X161728Y-334571D01*
X161711Y-334620D01*
X161694Y-334668D01*
X161677Y-334716D01*
X161660Y-334764D01*
X161644Y-334810D01*
X161627Y-334856D01*
X161611Y-334902D01*
X161595Y-334947D01*
X161579Y-334991D01*
X161563Y-335034D01*
X161547Y-335077D01*
X161531Y-335119D01*
X161515Y-335161D01*
X161500Y-335202D01*
X161485Y-335242D01*
X161469Y-335281D01*
X161454Y-335320D01*
X161440Y-335358D01*
X161425Y-335396D01*
X161410Y-335433D01*
X161396Y-335469D01*
X161381Y-335504D01*
X161367Y-335539D01*
X161353Y-335573D01*
X161339Y-335607D01*
X161326Y-335640D01*
X161312Y-335671D01*
X161299Y-335703D01*
X161286Y-335734D01*
X161273Y-335764D01*
X161260Y-335793D01*
X161247Y-335822D01*
X161235Y-335849D01*
X161222Y-335877D01*
X161210Y-335903D01*
X161198Y-335929D01*
X161187Y-335954D01*
X161175Y-335978D01*
X161164Y-336002D01*
X161153Y-336025D01*
X161142Y-336047D01*
X161131Y-336069D01*
X161120Y-336089D01*
X161110Y-336109D01*
X161100Y-336129D01*
X161090Y-336147D01*
X161080Y-336165D01*
X161071Y-336182D01*
X161062Y-336199D01*
X161053Y-336214D01*
X161044Y-336229D01*
X161035Y-336243D01*
X161027Y-336257D01*
X161019Y-336269D01*
X161011Y-336281D01*
X161003Y-336292D01*
X160996Y-336303D01*
X160988Y-336312D01*
X160982Y-336321D01*
X160975Y-336329D01*
X160968Y-336337D01*
X160962Y-336343D01*
X160956Y-336349D01*
X160951Y-336354D01*
X160945Y-336358D01*
X160940Y-336362D01*
X160935Y-336364D01*
X160930Y-336366D01*
X160926Y-336367D01*
X160922Y-336368D01*
X160918Y-336367D01*
X160914Y-336366D01*
X160911Y-336364D01*
X160908Y-336361D01*
X160905Y-336358D01*
X160903Y-336353D01*
X160901Y-336348D01*
X160899Y-336342D01*
X160897Y-336335D01*
X160896Y-336327D01*
X160895Y-336319D01*
X160895Y-336310D01*
X160894Y-336300D01*
X160894Y-336289D01*
X160894Y-336277D01*
X160895Y-336264D01*
X160896Y-336251D01*
X160897Y-336237D01*
X160898Y-336222D01*
X160900Y-336206D01*
X160902Y-336189D01*
X160905Y-336172D01*
X160908Y-336153D01*
X160911Y-336134D01*
X160914Y-336114D01*
X160918Y-336093D01*
X160922Y-336071D01*
X160926Y-336049D01*
X160931Y-336026D01*
X160936Y-336001D01*
X160942Y-335976D01*
X160948Y-335950D01*
X160954Y-335923D01*
X160960Y-335895D01*
X160967Y-335867D01*
X160975Y-335837D01*
X160982Y-335807D01*
X160990Y-335776D01*
X160998Y-335744D01*
X161007Y-335711D01*
X161016Y-335677D01*
X161026Y-335642D01*
X161036Y-335607D01*
X161046Y-335570D01*
X161056Y-335533D01*
X161067Y-335494D01*
X161079Y-335455D01*
X161090Y-335415D01*
X161103Y-335374D01*
X161115Y-335332D01*
X161128Y-335290D01*
X161141Y-335246D01*
X161155Y-335201D01*
X161169Y-335156D01*
X161184Y-335110D01*
X161199Y-335062D01*
X161214Y-335014D01*
X161615Y-333757D01*
Y-332704D01*
Y-331651D01*
X161231Y-331788D01*
X160847Y-331925D01*
Y-331219D01*
Y-330512D01*
X159329D01*
X158445Y-330120D01*
X157560Y-329728D01*
X157447Y-329324D01*
X157333Y-328919D01*
X156531Y-329029D01*
X155729Y-329138D01*
X155736Y-328933D01*
X155766Y-328876D01*
X155847Y-328792D01*
X155976Y-328685D01*
X156145Y-328560D01*
X156350Y-328420D01*
X156584Y-328270D01*
X156842Y-328113D01*
X157118Y-327954D01*
X157180Y-327919D01*
X157241Y-327885D01*
X157302Y-327852D01*
X157362Y-327820D01*
X157421Y-327788D01*
X157480Y-327757D01*
X157537Y-327727D01*
X157594Y-327698D01*
X157650Y-327669D01*
X157706Y-327642D01*
X157760Y-327615D01*
X157814Y-327588D01*
X157867Y-327563D01*
X157920Y-327538D01*
X157971Y-327515D01*
X158022Y-327492D01*
X158071Y-327469D01*
X158121Y-327448D01*
X158169Y-327428D01*
X158216Y-327408D01*
X158262Y-327389D01*
X158308Y-327371D01*
X158353Y-327353D01*
X158396Y-327337D01*
X158439Y-327321D01*
X158481Y-327306D01*
X158522Y-327292D01*
X158562Y-327279D01*
X158602Y-327266D01*
X158640Y-327255D01*
X158677Y-327244D01*
X158713Y-327234D01*
X158749Y-327225D01*
X158783Y-327216D01*
X158817Y-327209D01*
X158849Y-327202D01*
X158880Y-327197D01*
X158911Y-327192D01*
X158940Y-327188D01*
X158968Y-327185D01*
X158995Y-327182D01*
X159022Y-327181D01*
X159047Y-327180D01*
X159071Y-327180D01*
D02*
G37*
G36*
X167169Y-309829D02*
X167477Y-311334D01*
X168425Y-313129D01*
X169373Y-314924D01*
X171445Y-316856D01*
X173516Y-318788D01*
X176026Y-319907D01*
X178536Y-321026D01*
X183045Y-322446D01*
X187554Y-323866D01*
X189594Y-324988D01*
X191633Y-326109D01*
X193133Y-327498D01*
X194633Y-328888D01*
X195643Y-330473D01*
X196653Y-332059D01*
X197326Y-334250D01*
X197999Y-336441D01*
X197914Y-336851D01*
X197829Y-337260D01*
X197119Y-336262D01*
X197080Y-336209D01*
X197038Y-336152D01*
X196992Y-336093D01*
X196943Y-336030D01*
X196891Y-335965D01*
X196836Y-335897D01*
X196778Y-335827D01*
X196717Y-335755D01*
X196654Y-335680D01*
X196588Y-335604D01*
X196519Y-335525D01*
X196449Y-335445D01*
X196377Y-335364D01*
X196302Y-335281D01*
X196226Y-335198D01*
X196149Y-335113D01*
X196070Y-335027D01*
X195990Y-334941D01*
X195908Y-334854D01*
X195826Y-334767D01*
X195743Y-334680D01*
X195659Y-334592D01*
X195574Y-334505D01*
X195490Y-334418D01*
X195405Y-334332D01*
X195320Y-334246D01*
X195235Y-334161D01*
X195150Y-334077D01*
X195065Y-333994D01*
X194981Y-333912D01*
X194898Y-333832D01*
X194815Y-333753D01*
X193223Y-332244D01*
X191047Y-330927D01*
X188872Y-329611D01*
X186568Y-328662D01*
X186508Y-328637D01*
X186447Y-328612D01*
X186386Y-328587D01*
X186323Y-328561D01*
X186259Y-328535D01*
X186194Y-328508D01*
X186129Y-328481D01*
X186063Y-328454D01*
X185995Y-328427D01*
X185928Y-328399D01*
X185859Y-328371D01*
X185790Y-328343D01*
X185720Y-328314D01*
X185650Y-328285D01*
X185579Y-328256D01*
X185507Y-328227D01*
X185435Y-328198D01*
X185363Y-328168D01*
X185290Y-328139D01*
X185217Y-328109D01*
X185143Y-328079D01*
X185069Y-328049D01*
X184995Y-328019D01*
X184921Y-327989D01*
X184846Y-327959D01*
X184772Y-327928D01*
X184697Y-327898D01*
X184622Y-327868D01*
X184546Y-327837D01*
X184471Y-327807D01*
X184396Y-327776D01*
X184321Y-327746D01*
X184246Y-327716D01*
X184171Y-327685D01*
X184097Y-327655D01*
X184022Y-327625D01*
X183948Y-327595D01*
X183874Y-327566D01*
X183800Y-327536D01*
X183727Y-327506D01*
X183654Y-327477D01*
X183581Y-327448D01*
X183509Y-327419D01*
X183437Y-327390D01*
X183366Y-327361D01*
X183295Y-327333D01*
X183225Y-327305D01*
X183155Y-327277D01*
X183086Y-327249D01*
X183018Y-327222D01*
X182950Y-327195D01*
X182884Y-327168D01*
X182818Y-327142D01*
X182752Y-327116D01*
X182688Y-327090D01*
X182625Y-327065D01*
X182562Y-327040D01*
X182501Y-327015D01*
X182440Y-326991D01*
X182381Y-326968D01*
X182322Y-326944D01*
X182265Y-326922D01*
X182209Y-326899D01*
X182153Y-326878D01*
X180042Y-326043D01*
Y-326508D01*
Y-326974D01*
X179466Y-326810D01*
X179390Y-326788D01*
X179318Y-326767D01*
X179252Y-326747D01*
X179190Y-326727D01*
X179133Y-326708D01*
X179080Y-326690D01*
X179033Y-326671D01*
X178989Y-326653D01*
X178951Y-326635D01*
X178917Y-326617D01*
X178888Y-326598D01*
X178863Y-326579D01*
X178843Y-326559D01*
X178827Y-326538D01*
X178816Y-326517D01*
X178809Y-326494D01*
X178806Y-326471D01*
X178808Y-326446D01*
X178814Y-326419D01*
X178825Y-326391D01*
X178840Y-326361D01*
X178858Y-326329D01*
X178882Y-326295D01*
X178909Y-326258D01*
X178941Y-326220D01*
X178976Y-326179D01*
X179016Y-326135D01*
X179060Y-326088D01*
X179108Y-326038D01*
X179160Y-325986D01*
X179216Y-325930D01*
X179275Y-325870D01*
X179875Y-325276D01*
X177423D01*
X177552Y-324860D01*
X177582Y-324767D01*
X177616Y-324665D01*
X177655Y-324556D01*
X177697Y-324443D01*
X177740Y-324330D01*
X177783Y-324221D01*
X177825Y-324119D01*
X177865Y-324027D01*
X178050Y-323610D01*
X175740D01*
X175878Y-322652D01*
X176016Y-321694D01*
X175325Y-321938D01*
X175235Y-321970D01*
X175151Y-321999D01*
X175070Y-322026D01*
X174995Y-322050D01*
X174923Y-322073D01*
X174856Y-322092D01*
X174793Y-322109D01*
X174733Y-322124D01*
X174676Y-322135D01*
X174623Y-322144D01*
X174573Y-322150D01*
X174526Y-322154D01*
X174481Y-322154D01*
X174439Y-322152D01*
X174399Y-322146D01*
X174361Y-322137D01*
X174324Y-322125D01*
X174289Y-322110D01*
X174255Y-322092D01*
X174223Y-322070D01*
X174191Y-322045D01*
X174160Y-322016D01*
X174129Y-321984D01*
X174099Y-321949D01*
X174068Y-321909D01*
X174038Y-321866D01*
X174007Y-321820D01*
X173975Y-321769D01*
X173942Y-321715D01*
X173909Y-321656D01*
X173874Y-321594D01*
X173838Y-321528D01*
X173810Y-321477D01*
X173783Y-321427D01*
X173755Y-321378D01*
X173728Y-321329D01*
X173701Y-321281D01*
X173674Y-321234D01*
X173648Y-321187D01*
X173622Y-321142D01*
X173595Y-321096D01*
X173569Y-321052D01*
X173544Y-321008D01*
X173518Y-320965D01*
X173492Y-320922D01*
X173467Y-320881D01*
X173442Y-320840D01*
X173417Y-320800D01*
X173393Y-320760D01*
X173368Y-320721D01*
X173344Y-320683D01*
X173320Y-320646D01*
X173296Y-320609D01*
X173273Y-320574D01*
X173250Y-320538D01*
X173227Y-320504D01*
X173204Y-320471D01*
X173181Y-320438D01*
X173159Y-320406D01*
X173137Y-320375D01*
X173115Y-320344D01*
X173093Y-320315D01*
X173072Y-320286D01*
X173051Y-320257D01*
X173030Y-320230D01*
X173010Y-320204D01*
X172990Y-320178D01*
X172970Y-320153D01*
X172950Y-320129D01*
X172931Y-320106D01*
X172911Y-320083D01*
X172893Y-320062D01*
X172874Y-320041D01*
X172856Y-320021D01*
X172838Y-320002D01*
X172820Y-319984D01*
X172803Y-319966D01*
X172786Y-319950D01*
X172769Y-319934D01*
X172753Y-319919D01*
X172737Y-319905D01*
X172721Y-319892D01*
X172705Y-319880D01*
X172690Y-319868D01*
X172675Y-319858D01*
X172661Y-319848D01*
X172647Y-319840D01*
X172633Y-319832D01*
X172619Y-319825D01*
X172606Y-319819D01*
X172593Y-319814D01*
X172581Y-319810D01*
X172569Y-319807D01*
X172557Y-319804D01*
X172546Y-319803D01*
X172535Y-319802D01*
X172478Y-319812D01*
X172398Y-319841D01*
X172300Y-319885D01*
X172187Y-319945D01*
X172062Y-320016D01*
X171930Y-320098D01*
X171793Y-320189D01*
X171655Y-320286D01*
X170994Y-320770D01*
X170477Y-319929D01*
X170431Y-319856D01*
X170386Y-319785D01*
X170340Y-319718D01*
X170296Y-319653D01*
X170252Y-319592D01*
X170209Y-319534D01*
X170166Y-319479D01*
X170124Y-319428D01*
X170083Y-319380D01*
X170044Y-319335D01*
X170005Y-319294D01*
X169967Y-319256D01*
X169931Y-319222D01*
X169895Y-319191D01*
X169861Y-319164D01*
X169828Y-319141D01*
X169797Y-319122D01*
X169767Y-319106D01*
X169739Y-319094D01*
X169713Y-319086D01*
X169688Y-319082D01*
X169665Y-319081D01*
X169644Y-319085D01*
X169625Y-319093D01*
X169608Y-319105D01*
X169592Y-319121D01*
X169580Y-319142D01*
X169569Y-319166D01*
X169560Y-319195D01*
X169554Y-319228D01*
X169550Y-319266D01*
X169549Y-319308D01*
X169525Y-319374D01*
X169457Y-319479D01*
X169348Y-319617D01*
X169205Y-319782D01*
X169031Y-319971D01*
X168832Y-320176D01*
X168613Y-320393D01*
X168377Y-320617D01*
X167205Y-321706D01*
X166263D01*
X164967Y-320354D01*
X164900Y-320285D01*
X164834Y-320217D01*
X164769Y-320150D01*
X164704Y-320085D01*
X164641Y-320020D01*
X164578Y-319958D01*
X164516Y-319897D01*
X164456Y-319837D01*
X164396Y-319779D01*
X164338Y-319723D01*
X164281Y-319669D01*
X164226Y-319617D01*
X164173Y-319567D01*
X164121Y-319519D01*
X164070Y-319473D01*
X164022Y-319429D01*
X163976Y-319388D01*
X163931Y-319349D01*
X163889Y-319313D01*
X163849Y-319279D01*
X163811Y-319248D01*
X163776Y-319219D01*
X163742Y-319194D01*
X163712Y-319171D01*
X163684Y-319152D01*
X163659Y-319135D01*
X163637Y-319122D01*
X163618Y-319111D01*
X163601Y-319105D01*
X163588Y-319101D01*
X163578Y-319101D01*
X163571Y-319105D01*
X163542Y-319141D01*
X163499Y-319206D01*
X163443Y-319296D01*
X163375Y-319407D01*
X163300Y-319535D01*
X163218Y-319677D01*
X163132Y-319830D01*
X163045Y-319989D01*
X162617Y-320770D01*
X162308Y-320607D01*
X162237Y-320567D01*
X162153Y-320516D01*
X162060Y-320455D01*
X161960Y-320388D01*
X161856Y-320316D01*
X161752Y-320240D01*
X161651Y-320165D01*
X161556Y-320090D01*
X161113Y-319737D01*
X160706Y-320051D01*
X160662Y-320088D01*
X160614Y-320133D01*
X160562Y-320185D01*
X160508Y-320245D01*
X160451Y-320311D01*
X160393Y-320382D01*
X160333Y-320459D01*
X160272Y-320540D01*
X160210Y-320625D01*
X160148Y-320713D01*
X160086Y-320804D01*
X160026Y-320896D01*
X159966Y-320990D01*
X159908Y-321085D01*
X159853Y-321180D01*
X159800Y-321274D01*
X159775Y-321320D01*
X159750Y-321364D01*
X159726Y-321407D01*
X159703Y-321448D01*
X159680Y-321489D01*
X159658Y-321528D01*
X159636Y-321565D01*
X159615Y-321601D01*
X159594Y-321636D01*
X159573Y-321670D01*
X159553Y-321703D01*
X159533Y-321734D01*
X159513Y-321764D01*
X159494Y-321792D01*
X159475Y-321820D01*
X159456Y-321846D01*
X159437Y-321871D01*
X159418Y-321895D01*
X159400Y-321918D01*
X159381Y-321939D01*
X159362Y-321960D01*
X159344Y-321979D01*
X159325Y-321997D01*
X159307Y-322014D01*
X159288Y-322030D01*
X159269Y-322045D01*
X159250Y-322059D01*
X159231Y-322072D01*
X159212Y-322084D01*
X159192Y-322094D01*
X159172Y-322104D01*
X159151Y-322113D01*
X159131Y-322120D01*
X159110Y-322127D01*
X159088Y-322133D01*
X159066Y-322138D01*
X159044Y-322142D01*
X159021Y-322145D01*
X158998Y-322147D01*
X158974Y-322148D01*
X158949Y-322148D01*
X158924Y-322147D01*
X158898Y-322146D01*
X158871Y-322144D01*
X158844Y-322141D01*
X158816Y-322137D01*
X158787Y-322132D01*
X158757Y-322126D01*
X158727Y-322120D01*
X158695Y-322113D01*
X158663Y-322105D01*
X158629Y-322096D01*
X158595Y-322087D01*
X158560Y-322077D01*
X158523Y-322066D01*
X158486Y-322054D01*
X158447Y-322042D01*
X158407Y-322029D01*
X158367Y-322016D01*
X158324Y-322001D01*
X158281Y-321986D01*
X158236Y-321971D01*
X158190Y-321955D01*
X158143Y-321938D01*
X157453Y-321694D01*
X157618Y-322652D01*
X157782Y-323610D01*
X155672D01*
X155840Y-324443D01*
X156008Y-325276D01*
X153592D01*
X154206Y-325884D01*
X154820Y-326491D01*
X154443Y-326713D01*
X154360Y-326758D01*
X154271Y-326800D01*
X154177Y-326837D01*
X154082Y-326871D01*
X153989Y-326899D01*
X153899Y-326920D01*
X153817Y-326933D01*
X153745Y-326939D01*
X153426Y-326942D01*
Y-326461D01*
Y-325980D01*
X152466Y-326433D01*
X152414Y-326457D01*
X152359Y-326482D01*
X152299Y-326509D01*
X152236Y-326537D01*
X152170Y-326566D01*
X152100Y-326596D01*
X152027Y-326628D01*
X151952Y-326660D01*
X151873Y-326693D01*
X151792Y-326727D01*
X151709Y-326762D01*
X151623Y-326797D01*
X151535Y-326833D01*
X151446Y-326869D01*
X151355Y-326906D01*
X151262Y-326944D01*
X151168Y-326981D01*
X151072Y-327019D01*
X150976Y-327057D01*
X150879Y-327096D01*
X150781Y-327134D01*
X150683Y-327172D01*
X150584Y-327210D01*
X150486Y-327248D01*
X150387Y-327286D01*
X150289Y-327323D01*
X150191Y-327360D01*
X150094Y-327397D01*
X149997Y-327433D01*
X149902Y-327468D01*
X149808Y-327503D01*
X149715Y-327537D01*
X149668Y-327554D01*
X149619Y-327572D01*
X149569Y-327591D01*
X149518Y-327610D01*
X149465Y-327630D01*
X149411Y-327651D01*
X149356Y-327673D01*
X149299Y-327695D01*
X149241Y-327717D01*
X149182Y-327741D01*
X149122Y-327765D01*
X149060Y-327789D01*
X148998Y-327815D01*
X148934Y-327840D01*
X148869Y-327867D01*
X148804Y-327893D01*
X148737Y-327921D01*
X148670Y-327948D01*
X148601Y-327977D01*
X148532Y-328005D01*
X148462Y-328035D01*
X148391Y-328064D01*
X148319Y-328094D01*
X148247Y-328125D01*
X148174Y-328156D01*
X148101Y-328187D01*
X148027Y-328218D01*
X147952Y-328250D01*
X147877Y-328283D01*
X147801Y-328315D01*
X147725Y-328348D01*
X147648Y-328381D01*
X147571Y-328415D01*
X147494Y-328448D01*
X147416Y-328482D01*
X147338Y-328516D01*
X147260Y-328550D01*
X147182Y-328585D01*
X147103Y-328620D01*
X147025Y-328654D01*
X146946Y-328689D01*
X146867Y-328724D01*
X146789Y-328759D01*
X146710Y-328795D01*
X146631Y-328830D01*
X146553Y-328865D01*
X146474Y-328901D01*
X146396Y-328936D01*
X146318Y-328972D01*
X146240Y-329007D01*
X146162Y-329043D01*
X146085Y-329078D01*
X146008Y-329113D01*
X145932Y-329149D01*
X145856Y-329184D01*
X145780Y-329219D01*
X145705Y-329254D01*
X145630Y-329289D01*
X145556Y-329324D01*
X145483Y-329358D01*
X145410Y-329393D01*
X145338Y-329427D01*
X145266Y-329461D01*
X145196Y-329495D01*
X142468Y-330800D01*
X140771Y-332057D01*
X140697Y-332112D01*
X140623Y-332168D01*
X140549Y-332225D01*
X140474Y-332282D01*
X140399Y-332340D01*
X140324Y-332398D01*
X140250Y-332457D01*
X140174Y-332517D01*
X140099Y-332578D01*
X140024Y-332639D01*
X139948Y-332700D01*
X139873Y-332763D01*
X139797Y-332826D01*
X139722Y-332889D01*
X139646Y-332953D01*
X139570Y-333018D01*
X139494Y-333083D01*
X139418Y-333149D01*
X139342Y-333215D01*
X139266Y-333282D01*
X139190Y-333349D01*
X139114Y-333417D01*
X139039Y-333486D01*
X138963Y-333554D01*
X138887Y-333624D01*
X138811Y-333693D01*
X138736Y-333764D01*
X138660Y-333834D01*
X138584Y-333905D01*
X138509Y-333977D01*
X138434Y-334049D01*
X138359Y-334121D01*
X138284Y-334194D01*
X138209Y-334267D01*
X138134Y-334341D01*
X138059Y-334414D01*
X137985Y-334489D01*
X137910Y-334563D01*
X137837Y-334638D01*
X137763Y-334713D01*
X137689Y-334789D01*
X137616Y-334865D01*
X137542Y-334941D01*
X137469Y-335017D01*
X137397Y-335094D01*
X137324Y-335171D01*
X137252Y-335248D01*
X137180Y-335325D01*
X137109Y-335403D01*
X137038Y-335481D01*
X136967Y-335559D01*
X136896Y-335637D01*
X136826Y-335715D01*
X136756Y-335794D01*
X136687Y-335873D01*
X136618Y-335952D01*
X136549Y-336031D01*
X136480Y-336110D01*
X136413Y-336189D01*
X136345Y-336269D01*
X136278Y-336348D01*
X136211Y-336428D01*
X136145Y-336508D01*
X136079Y-336588D01*
X135499Y-337295D01*
X135654Y-336343D01*
X135667Y-336260D01*
X135682Y-336176D01*
X135696Y-336093D01*
X135712Y-336010D01*
X135728Y-335927D01*
X135744Y-335844D01*
X135761Y-335760D01*
X135778Y-335677D01*
X135796Y-335594D01*
X135814Y-335511D01*
X135833Y-335427D01*
X135852Y-335344D01*
X135872Y-335261D01*
X135892Y-335178D01*
X135913Y-335095D01*
X135934Y-335012D01*
X135956Y-334928D01*
X135978Y-334845D01*
X136001Y-334762D01*
X136024Y-334679D01*
X136048Y-334596D01*
X136072Y-334513D01*
X136097Y-334430D01*
X136122Y-334348D01*
X136147Y-334265D01*
X136173Y-334182D01*
X136200Y-334099D01*
X136227Y-334017D01*
X136255Y-333934D01*
X136283Y-333852D01*
X136311Y-333769D01*
X136340Y-333687D01*
X136369Y-333604D01*
X136399Y-333522D01*
X136430Y-333440D01*
X136461Y-333358D01*
X136492Y-333276D01*
X136524Y-333194D01*
X136556Y-333112D01*
X136589Y-333031D01*
X136622Y-332949D01*
X136655Y-332868D01*
X136690Y-332786D01*
X136724Y-332705D01*
X136759Y-332624D01*
X136795Y-332543D01*
X136831Y-332462D01*
X136867Y-332381D01*
X136904Y-332300D01*
X136941Y-332220D01*
X136979Y-332139D01*
X137017Y-332059D01*
X137056Y-331979D01*
X137095Y-331899D01*
X137135Y-331819D01*
X137174Y-331739D01*
X137215Y-331660D01*
X137256Y-331580D01*
X137297Y-331501D01*
X137339Y-331422D01*
X137381Y-331343D01*
X137424Y-331264D01*
X137467Y-331185D01*
X137511Y-331107D01*
X138441Y-329441D01*
X140495Y-327537D01*
X142549Y-325633D01*
X144624Y-324623D01*
X146699Y-323613D01*
X150800Y-322329D01*
X154901Y-321046D01*
X157554Y-319846D01*
X160207Y-318647D01*
X161539Y-317550D01*
X162870Y-316454D01*
X164135Y-314695D01*
X165400Y-312937D01*
X165910Y-311431D01*
X165937Y-311353D01*
X165964Y-311274D01*
X165990Y-311193D01*
X166017Y-311112D01*
X166045Y-311031D01*
X166072Y-310949D01*
X166099Y-310866D01*
X166126Y-310784D01*
X166153Y-310701D01*
X166180Y-310618D01*
X166207Y-310536D01*
X166233Y-310454D01*
X166260Y-310372D01*
X166285Y-310292D01*
X166311Y-310211D01*
X166336Y-310133D01*
X166361Y-310055D01*
X166385Y-309978D01*
X166408Y-309903D01*
X166431Y-309830D01*
X166453Y-309758D01*
X166475Y-309688D01*
X166496Y-309620D01*
X166516Y-309554D01*
X166535Y-309491D01*
X166553Y-309430D01*
X166570Y-309372D01*
X166587Y-309316D01*
X166602Y-309263D01*
X166616Y-309214D01*
X166630Y-309168D01*
X166642Y-309124D01*
X166862Y-308323D01*
X167169Y-309829D01*
D02*
G37*
G36*
X171969Y-339853D02*
X171945Y-339925D01*
X171921Y-339993D01*
X171897Y-340058D01*
X171872Y-340120D01*
X171846Y-340179D01*
X171818Y-340236D01*
X171788Y-340291D01*
X171756Y-340344D01*
X171721Y-340396D01*
X171683Y-340446D01*
X171641Y-340495D01*
X171595Y-340544D01*
X171545Y-340592D01*
X171490Y-340640D01*
X171430Y-340688D01*
X171364Y-340737D01*
X171292Y-340787D01*
X171214Y-340838D01*
X171128Y-340890D01*
X171036Y-340943D01*
X170936Y-340999D01*
X170828Y-341056D01*
X170712Y-341116D01*
X170587Y-341179D01*
X170452Y-341245D01*
X170308Y-341315D01*
X170154Y-341388D01*
X169990Y-341464D01*
X169814Y-341546D01*
X169628Y-341631D01*
X169430Y-341721D01*
X169220Y-341817D01*
X167118Y-342768D01*
X167042Y-343969D01*
X166967Y-345170D01*
X168013Y-345953D01*
X169060Y-346735D01*
X169877Y-346953D01*
X170695Y-347171D01*
X171560Y-346905D01*
X172425Y-346640D01*
X172647Y-346965D01*
X172677Y-347011D01*
X172706Y-347056D01*
X172731Y-347100D01*
X172755Y-347144D01*
X172776Y-347186D01*
X172794Y-347228D01*
X172810Y-347270D01*
X172824Y-347311D01*
X172835Y-347352D01*
X172843Y-347392D01*
X172849Y-347433D01*
X172853Y-347473D01*
X172853Y-347514D01*
X172851Y-347555D01*
X172847Y-347596D01*
X172839Y-347638D01*
X172829Y-347680D01*
X172817Y-347723D01*
X172801Y-347767D01*
X172783Y-347811D01*
X172762Y-347857D01*
X172738Y-347903D01*
X172712Y-347951D01*
X172682Y-348001D01*
X172650Y-348051D01*
X172615Y-348103D01*
X172576Y-348157D01*
X172535Y-348212D01*
X172491Y-348270D01*
X172444Y-348329D01*
X172394Y-348390D01*
X172341Y-348454D01*
X171806Y-349086D01*
X170888Y-348337D01*
X170840Y-348298D01*
X170790Y-348259D01*
X170739Y-348220D01*
X170686Y-348180D01*
X170633Y-348140D01*
X170578Y-348100D01*
X170522Y-348060D01*
X170465Y-348020D01*
X170408Y-347981D01*
X170349Y-347941D01*
X170291Y-347902D01*
X170231Y-347863D01*
X170172Y-347824D01*
X170112Y-347786D01*
X170052Y-347749D01*
X169992Y-347712D01*
X169933Y-347676D01*
X169873Y-347640D01*
X169814Y-347605D01*
X169755Y-347572D01*
X169697Y-347539D01*
X169640Y-347507D01*
X169583Y-347476D01*
X169527Y-347447D01*
X169473Y-347418D01*
X169419Y-347391D01*
X169367Y-347366D01*
X169316Y-347342D01*
X169266Y-347319D01*
X169219Y-347298D01*
X169172Y-347278D01*
X169128Y-347261D01*
X168286Y-346933D01*
X165193D01*
X164076Y-347421D01*
X164018Y-347447D01*
X163960Y-347474D01*
X163900Y-347502D01*
X163840Y-347531D01*
X163779Y-347561D01*
X163719Y-347592D01*
X163657Y-347624D01*
X163596Y-347657D01*
X163535Y-347690D01*
X163474Y-347724D01*
X163413Y-347759D01*
X163352Y-347794D01*
X163292Y-347829D01*
X163232Y-347865D01*
X163173Y-347901D01*
X163115Y-347937D01*
X163057Y-347974D01*
X163001Y-348010D01*
X162945Y-348047D01*
X162891Y-348083D01*
X162838Y-348120D01*
X162786Y-348156D01*
X162736Y-348192D01*
X162688Y-348227D01*
X162641Y-348263D01*
X162596Y-348297D01*
X162553Y-348331D01*
X162512Y-348365D01*
X162473Y-348398D01*
X162437Y-348430D01*
X162403Y-348462D01*
X162371Y-348492D01*
X161783Y-349075D01*
X161315Y-348681D01*
X160847Y-348288D01*
Y-347492D01*
Y-346695D01*
X161041D01*
X161097Y-346700D01*
X161181Y-346713D01*
X161291Y-346733D01*
X161420Y-346760D01*
X161566Y-346793D01*
X161724Y-346830D01*
X161890Y-346871D01*
X162060Y-346916D01*
X162885Y-347135D01*
X163722Y-346920D01*
X164558Y-346705D01*
X165531Y-345959D01*
X166502Y-345214D01*
X166426Y-343991D01*
X166350Y-342768D01*
X164207Y-341803D01*
X162065Y-340837D01*
X161692Y-340175D01*
X161650Y-340100D01*
X161612Y-340028D01*
X161578Y-339960D01*
X161548Y-339896D01*
X161521Y-339835D01*
X161498Y-339778D01*
X161479Y-339725D01*
X161463Y-339675D01*
X161451Y-339630D01*
X161443Y-339588D01*
X161438Y-339550D01*
X161437Y-339516D01*
X161440Y-339485D01*
X161446Y-339459D01*
X161456Y-339436D01*
X161469Y-339417D01*
X161487Y-339402D01*
X161507Y-339391D01*
X161531Y-339384D01*
X161559Y-339381D01*
X161591Y-339381D01*
X161626Y-339386D01*
X161664Y-339394D01*
X161706Y-339407D01*
X161752Y-339423D01*
X161801Y-339444D01*
X161853Y-339468D01*
X161909Y-339496D01*
X161969Y-339529D01*
X162031Y-339565D01*
X162098Y-339606D01*
X162168Y-339650D01*
X162753Y-340032D01*
X163546D01*
X163633Y-340034D01*
X163730Y-340039D01*
X163835Y-340049D01*
X163949Y-340062D01*
X164068Y-340078D01*
X164194Y-340097D01*
X164324Y-340119D01*
X164458Y-340143D01*
X164594Y-340170D01*
X164732Y-340199D01*
X164871Y-340230D01*
X165009Y-340264D01*
X165146Y-340299D01*
X165280Y-340335D01*
X165410Y-340372D01*
X165537Y-340411D01*
X166734Y-340790D01*
X167931Y-340411D01*
X167993Y-340391D01*
X168057Y-340372D01*
X168122Y-340353D01*
X168188Y-340335D01*
X168255Y-340316D01*
X168322Y-340299D01*
X168391Y-340281D01*
X168459Y-340264D01*
X168528Y-340247D01*
X168598Y-340230D01*
X168667Y-340215D01*
X168737Y-340199D01*
X168806Y-340184D01*
X168875Y-340170D01*
X168944Y-340156D01*
X169012Y-340143D01*
X169080Y-340130D01*
X169146Y-340119D01*
X169212Y-340107D01*
X169277Y-340097D01*
X169341Y-340087D01*
X169404Y-340078D01*
X169465Y-340069D01*
X169524Y-340062D01*
X169582Y-340055D01*
X169638Y-340049D01*
X169692Y-340044D01*
X169744Y-340039D01*
X169794Y-340036D01*
X169842Y-340034D01*
X169887Y-340032D01*
X169930Y-340032D01*
X170731D01*
X171228Y-339682D01*
X171279Y-339647D01*
X171332Y-339612D01*
X171384Y-339578D01*
X171437Y-339546D01*
X171489Y-339515D01*
X171541Y-339486D01*
X171591Y-339459D01*
X171640Y-339433D01*
X171687Y-339410D01*
X171732Y-339389D01*
X171774Y-339371D01*
X171813Y-339356D01*
X171849Y-339343D01*
X171881Y-339334D01*
X171910Y-339328D01*
X171933Y-339325D01*
X172143Y-339318D01*
X171969Y-339853D01*
D02*
G37*
G36*
X174916Y-340758D02*
X174883Y-340810D01*
X174843Y-340866D01*
X174796Y-340924D01*
X174743Y-340985D01*
X174684Y-341047D01*
X174619Y-341110D01*
X174551Y-341175D01*
X174478Y-341239D01*
X174402Y-341304D01*
X174323Y-341368D01*
X174241Y-341430D01*
X174158Y-341491D01*
X174074Y-341550D01*
X173989Y-341606D01*
X173904Y-341660D01*
X173820Y-341709D01*
X173004Y-342172D01*
X172108Y-342154D01*
X171213Y-342137D01*
X172411Y-341739D01*
X173609Y-341341D01*
X174219Y-340805D01*
X174282Y-340751D01*
X174345Y-340698D01*
X174408Y-340646D01*
X174470Y-340597D01*
X174531Y-340550D01*
X174591Y-340506D01*
X174648Y-340465D01*
X174704Y-340427D01*
X174756Y-340392D01*
X174805Y-340361D01*
X174851Y-340335D01*
X174893Y-340312D01*
X174931Y-340294D01*
X174963Y-340281D01*
X174991Y-340272D01*
X175013Y-340270D01*
X175198D01*
X174916Y-340758D01*
D02*
G37*
G36*
X175795Y-340775D02*
X175803Y-340776D01*
X175811Y-340779D01*
X175817Y-340783D01*
X175822Y-340788D01*
X175826Y-340795D01*
X175830Y-340803D01*
X175832Y-340812D01*
X175833Y-340823D01*
X175833Y-340835D01*
X175833Y-340848D01*
X175831Y-340862D01*
X175828Y-340878D01*
X175824Y-340896D01*
X175820Y-340914D01*
X175814Y-340934D01*
X175807Y-340955D01*
X175799Y-340978D01*
X175790Y-341001D01*
X175780Y-341026D01*
X175769Y-341053D01*
X175757Y-341081D01*
X175744Y-341110D01*
X175730Y-341140D01*
X175715Y-341172D01*
X175699Y-341205D01*
X175681Y-341239D01*
X175663Y-341275D01*
X175644Y-341312D01*
X175623Y-341351D01*
X175602Y-341390D01*
X175579Y-341431D01*
X175536Y-341504D01*
X175486Y-341582D01*
X175430Y-341663D01*
X175368Y-341747D01*
X175301Y-341833D01*
X175230Y-341921D01*
X175154Y-342009D01*
X175076Y-342099D01*
X174995Y-342187D01*
X174911Y-342275D01*
X174826Y-342361D01*
X174741Y-342444D01*
X174655Y-342525D01*
X174569Y-342601D01*
X174484Y-342673D01*
X174401Y-342740D01*
X173605Y-343363D01*
X171001Y-343356D01*
X168397Y-343349D01*
X168909Y-342978D01*
X169421Y-342607D01*
X171156Y-342750D01*
X172892Y-342892D01*
X173621Y-342541D01*
X173699Y-342502D01*
X173781Y-342456D01*
X173867Y-342405D01*
X173956Y-342348D01*
X174048Y-342287D01*
X174141Y-342222D01*
X174234Y-342153D01*
X174328Y-342081D01*
X174422Y-342007D01*
X174515Y-341931D01*
X174605Y-341854D01*
X174693Y-341776D01*
X174778Y-341698D01*
X174858Y-341620D01*
X174934Y-341544D01*
X175004Y-341468D01*
X175043Y-341426D01*
X175080Y-341385D01*
X175117Y-341346D01*
X175152Y-341308D01*
X175187Y-341271D01*
X175221Y-341236D01*
X175254Y-341201D01*
X175286Y-341169D01*
X175317Y-341137D01*
X175348Y-341107D01*
X175377Y-341078D01*
X175406Y-341051D01*
X175434Y-341024D01*
X175460Y-340999D01*
X175486Y-340976D01*
X175511Y-340953D01*
X175535Y-340932D01*
X175559Y-340913D01*
X175581Y-340894D01*
X175602Y-340877D01*
X175623Y-340861D01*
X175642Y-340847D01*
X175661Y-340834D01*
X175679Y-340822D01*
X175695Y-340811D01*
X175711Y-340802D01*
X175726Y-340794D01*
X175740Y-340788D01*
X175753Y-340783D01*
X175765Y-340779D01*
X175776Y-340776D01*
X175786Y-340775D01*
X175795Y-340775D01*
D02*
G37*
G36*
X163663Y-344602D02*
X163642Y-344642D01*
X163584Y-344688D01*
X163491Y-344740D01*
X163369Y-344796D01*
X163221Y-344854D01*
X163052Y-344913D01*
X162864Y-344970D01*
X162664Y-345023D01*
X161665Y-345273D01*
X160936Y-344990D01*
X160207Y-344706D01*
X160720Y-344640D01*
X160778Y-344633D01*
X160847Y-344625D01*
X160926Y-344617D01*
X161014Y-344609D01*
X161110Y-344600D01*
X161214Y-344591D01*
X161323Y-344582D01*
X161438Y-344572D01*
X161558Y-344563D01*
X161681Y-344554D01*
X161807Y-344544D01*
X161935Y-344535D01*
X162063Y-344527D01*
X162192Y-344518D01*
X162320Y-344510D01*
X162447Y-344502D01*
X163663Y-344431D01*
Y-344602D01*
D02*
G37*
G36*
X152367Y-328857D02*
X152398Y-328934D01*
X152433Y-329016D01*
X152471Y-329102D01*
X152514Y-329192D01*
X152560Y-329284D01*
X152608Y-329378D01*
X152659Y-329473D01*
X152712Y-329568D01*
X152767Y-329663D01*
X152823Y-329758D01*
X152879Y-329850D01*
X152936Y-329940D01*
X152993Y-330027D01*
X153050Y-330110D01*
X153106Y-330189D01*
X153160Y-330262D01*
X153217Y-330337D01*
X153270Y-330410D01*
X153320Y-330481D01*
X153366Y-330551D01*
X153409Y-330618D01*
X153448Y-330684D01*
X153484Y-330749D01*
X153517Y-330813D01*
X153546Y-330876D01*
X153571Y-330938D01*
X153594Y-330999D01*
X153612Y-331060D01*
X153628Y-331120D01*
X153640Y-331181D01*
X153648Y-331241D01*
X153654Y-331302D01*
X153656Y-331363D01*
X153654Y-331424D01*
X153649Y-331486D01*
X153641Y-331549D01*
X153630Y-331613D01*
X153615Y-331678D01*
X153597Y-331745D01*
X153576Y-331813D01*
X153551Y-331883D01*
X153524Y-331954D01*
X153492Y-332028D01*
X153458Y-332104D01*
X153420Y-332182D01*
X153380Y-332263D01*
X153336Y-332346D01*
X153288Y-332433D01*
X152895Y-333139D01*
X149769Y-335444D01*
X149725Y-335476D01*
X149682Y-335508D01*
X149638Y-335541D01*
X149595Y-335573D01*
X149551Y-335605D01*
X149508Y-335637D01*
X149465Y-335669D01*
X149422Y-335701D01*
X149379Y-335733D01*
X149336Y-335765D01*
X149293Y-335797D01*
X149251Y-335828D01*
X149208Y-335860D01*
X149166Y-335892D01*
X149123Y-335923D01*
X149081Y-335955D01*
X149039Y-335986D01*
X148997Y-336018D01*
X148956Y-336049D01*
X148914Y-336081D01*
X148872Y-336112D01*
X148831Y-336143D01*
X148789Y-336174D01*
X148748Y-336205D01*
X148707Y-336237D01*
X148666Y-336267D01*
X148625Y-336298D01*
X148584Y-336329D01*
X148544Y-336360D01*
X148503Y-336391D01*
X148463Y-336422D01*
X148422Y-336453D01*
X148382Y-336483D01*
X148342Y-336514D01*
X148302Y-336544D01*
X148262Y-336575D01*
X148222Y-336606D01*
X148182Y-336636D01*
X148143Y-336666D01*
X148103Y-336697D01*
X148064Y-336727D01*
X148025Y-336757D01*
X147986Y-336787D01*
X147947Y-336818D01*
X147908Y-336847D01*
X147869Y-336878D01*
X147830Y-336908D01*
X147792Y-336937D01*
X147753Y-336967D01*
X147715Y-336997D01*
X147677Y-337027D01*
X147639Y-337057D01*
X147601Y-337086D01*
X147563Y-337116D01*
X147525Y-337146D01*
X147487Y-337175D01*
X147450Y-337205D01*
X147412Y-337234D01*
X147375Y-337263D01*
X147337Y-337293D01*
X147300Y-337322D01*
X147263Y-337351D01*
X147226Y-337381D01*
X147189Y-337410D01*
X147153Y-337439D01*
X147116Y-337468D01*
X147080Y-337497D01*
X147043Y-337526D01*
X147007Y-337555D01*
X146971Y-337584D01*
X146935Y-337612D01*
X146899Y-337641D01*
X146863Y-337670D01*
X146827Y-337699D01*
X146792Y-337727D01*
X146756Y-337756D01*
X146721Y-337784D01*
X146685Y-337813D01*
X146650Y-337841D01*
X146615Y-337870D01*
X146580Y-337898D01*
X146545Y-337926D01*
X146510Y-337955D01*
X146475Y-337983D01*
X146441Y-338011D01*
X146406Y-338039D01*
X146372Y-338067D01*
X146338Y-338095D01*
X146303Y-338123D01*
X146270Y-338151D01*
X146236Y-338179D01*
X146202Y-338207D01*
X146168Y-338235D01*
X146134Y-338263D01*
X146101Y-338290D01*
X146067Y-338318D01*
X146034Y-338346D01*
X146001Y-338373D01*
X145968Y-338401D01*
X145935Y-338428D01*
X145902Y-338456D01*
X145869Y-338483D01*
X145836Y-338510D01*
X145804Y-338538D01*
X145771Y-338565D01*
X145739Y-338592D01*
X145706Y-338619D01*
X145674Y-338647D01*
X145642Y-338674D01*
X145610Y-338701D01*
X145578Y-338728D01*
X145547Y-338755D01*
X145515Y-338782D01*
X145483Y-338809D01*
X145452Y-338836D01*
X145421Y-338862D01*
X145389Y-338889D01*
X145358Y-338916D01*
X145327Y-338942D01*
X145296Y-338969D01*
X145265Y-338996D01*
X145234Y-339022D01*
X145204Y-339049D01*
X145173Y-339075D01*
X145143Y-339102D01*
X145112Y-339128D01*
X145082Y-339154D01*
X145052Y-339181D01*
X145022Y-339207D01*
X144992Y-339233D01*
X144962Y-339259D01*
X144932Y-339285D01*
X144903Y-339312D01*
X144873Y-339338D01*
X144844Y-339364D01*
X144815Y-339390D01*
X144785Y-339416D01*
X144756Y-339441D01*
X144727Y-339467D01*
X144698Y-339493D01*
X144669Y-339519D01*
X144641Y-339545D01*
X144612Y-339570D01*
X144583Y-339596D01*
X144555Y-339622D01*
X144527Y-339647D01*
X144498Y-339673D01*
X144470Y-339698D01*
X144442Y-339724D01*
X144414Y-339749D01*
X144386Y-339774D01*
X144359Y-339800D01*
X144331Y-339825D01*
X144303Y-339850D01*
X144276Y-339876D01*
X144248Y-339901D01*
X144221Y-339926D01*
X144194Y-339951D01*
X144167Y-339976D01*
X144140Y-340001D01*
X144113Y-340026D01*
X144086Y-340051D01*
X144060Y-340076D01*
X144033Y-340101D01*
X144007Y-340126D01*
X143980Y-340150D01*
X143954Y-340175D01*
X143928Y-340200D01*
X143902Y-340225D01*
X143876Y-340249D01*
X143850Y-340274D01*
X143824Y-340299D01*
X143798Y-340323D01*
X143772Y-340348D01*
X143747Y-340372D01*
X143721Y-340396D01*
X143696Y-340421D01*
X143671Y-340445D01*
X143646Y-340470D01*
X143621Y-340494D01*
X143596Y-340518D01*
X143571Y-340542D01*
X143546Y-340566D01*
X143521Y-340591D01*
X143497Y-340615D01*
X143472Y-340639D01*
X143448Y-340663D01*
X143424Y-340687D01*
X143399Y-340711D01*
X143375Y-340735D01*
X143351Y-340759D01*
X143327Y-340782D01*
X143304Y-340806D01*
X143280Y-340830D01*
X143256Y-340854D01*
X143233Y-340878D01*
X143209Y-340901D01*
X143186Y-340925D01*
X143162Y-340949D01*
X143139Y-340972D01*
X143116Y-340996D01*
X143093Y-341019D01*
X143070Y-341043D01*
X143047Y-341066D01*
X143025Y-341090D01*
X143002Y-341113D01*
X142980Y-341136D01*
X142957Y-341160D01*
X142935Y-341183D01*
X142912Y-341206D01*
X142890Y-341229D01*
X142868Y-341253D01*
X142846Y-341276D01*
X142824Y-341299D01*
X142803Y-341322D01*
X142781Y-341345D01*
X142759Y-341368D01*
X142738Y-341391D01*
X142716Y-341414D01*
X142695Y-341437D01*
X142674Y-341460D01*
X142652Y-341483D01*
X142631Y-341505D01*
X142611Y-341528D01*
X142590Y-341551D01*
X142569Y-341574D01*
X142548Y-341596D01*
X142527Y-341619D01*
X142507Y-341642D01*
X142486Y-341664D01*
X142466Y-341687D01*
X142446Y-341709D01*
X142426Y-341732D01*
X142405Y-341754D01*
X142385Y-341777D01*
X142366Y-341799D01*
X142346Y-341822D01*
X142326Y-341844D01*
X142306Y-341866D01*
X142287Y-341889D01*
X142267Y-341911D01*
X142248Y-341933D01*
X142229Y-341955D01*
X142209Y-341978D01*
X142190Y-342000D01*
X142171Y-342022D01*
X142152Y-342044D01*
X142133Y-342066D01*
X142115Y-342088D01*
X142096Y-342110D01*
X142077Y-342132D01*
X142059Y-342154D01*
X142040Y-342176D01*
X142022Y-342198D01*
X142004Y-342219D01*
X141986Y-342241D01*
X140841Y-343618D01*
X139724Y-345655D01*
X138606Y-347692D01*
X138437Y-348741D01*
X138268Y-349789D01*
X137866D01*
X137592Y-348302D01*
X137577Y-348223D01*
X137563Y-348141D01*
X137548Y-348054D01*
X137533Y-347964D01*
X137518Y-347871D01*
X137503Y-347775D01*
X137488Y-347676D01*
X137473Y-347574D01*
X137458Y-347470D01*
X137442Y-347364D01*
X137427Y-347255D01*
X137412Y-347145D01*
X137397Y-347034D01*
X137382Y-346921D01*
X137367Y-346807D01*
X137352Y-346692D01*
X137338Y-346576D01*
X137324Y-346461D01*
X137310Y-346344D01*
X137296Y-346228D01*
X137283Y-346112D01*
X137269Y-345996D01*
X137257Y-345881D01*
X137244Y-345767D01*
X137232Y-345654D01*
X137221Y-345542D01*
X137210Y-345432D01*
X137199Y-345323D01*
X137189Y-345217D01*
X137180Y-345112D01*
X137171Y-345010D01*
X137163Y-344910D01*
X137009Y-343007D01*
X137399Y-341001D01*
X137788Y-338995D01*
X138574Y-337511D01*
X139360Y-336026D01*
X140551Y-334794D01*
X141743Y-333562D01*
X143937Y-332191D01*
X143991Y-332158D01*
X144045Y-332124D01*
X144101Y-332090D01*
X144158Y-332055D01*
X144215Y-332020D01*
X144274Y-331984D01*
X144333Y-331949D01*
X144394Y-331912D01*
X144455Y-331876D01*
X144517Y-331839D01*
X144580Y-331802D01*
X144643Y-331764D01*
X144708Y-331726D01*
X144773Y-331688D01*
X144839Y-331649D01*
X144906Y-331611D01*
X144974Y-331572D01*
X145042Y-331532D01*
X145110Y-331493D01*
X145180Y-331453D01*
X145250Y-331413D01*
X145321Y-331372D01*
X145392Y-331332D01*
X145464Y-331291D01*
X145536Y-331251D01*
X145609Y-331209D01*
X145683Y-331168D01*
X145756Y-331127D01*
X145831Y-331085D01*
X145905Y-331044D01*
X145981Y-331002D01*
X146056Y-330960D01*
X146132Y-330918D01*
X146208Y-330876D01*
X146285Y-330834D01*
X146362Y-330792D01*
X146439Y-330750D01*
X146516Y-330708D01*
X146594Y-330665D01*
X146672Y-330623D01*
X146750Y-330581D01*
X146828Y-330539D01*
X146906Y-330496D01*
X146985Y-330454D01*
X147063Y-330412D01*
X147142Y-330369D01*
X147221Y-330327D01*
X147299Y-330285D01*
X147378Y-330243D01*
X147457Y-330202D01*
X147536Y-330160D01*
X147614Y-330118D01*
X147693Y-330077D01*
X147772Y-330035D01*
X147850Y-329994D01*
X147928Y-329953D01*
X148006Y-329912D01*
X148084Y-329871D01*
X148162Y-329831D01*
X148240Y-329790D01*
X148317Y-329750D01*
X148394Y-329710D01*
X148471Y-329671D01*
X148547Y-329631D01*
X148624Y-329592D01*
X148699Y-329553D01*
X148775Y-329515D01*
X148850Y-329476D01*
X148924Y-329438D01*
X148999Y-329401D01*
X149072Y-329363D01*
X149146Y-329326D01*
X149218Y-329290D01*
X149291Y-329253D01*
X149362Y-329217D01*
X149433Y-329182D01*
X149504Y-329147D01*
X149574Y-329112D01*
X149643Y-329077D01*
X149712Y-329044D01*
X149780Y-329010D01*
X149847Y-328977D01*
X149914Y-328944D01*
X149980Y-328912D01*
X150045Y-328881D01*
X150109Y-328849D01*
X150173Y-328819D01*
X150235Y-328789D01*
X150297Y-328759D01*
X150358Y-328730D01*
X150418Y-328701D01*
X150478Y-328674D01*
X150536Y-328646D01*
X150593Y-328619D01*
X150649Y-328593D01*
X150705Y-328567D01*
X150759Y-328542D01*
X150812Y-328518D01*
X150865Y-328494D01*
X150916Y-328471D01*
X150966Y-328449D01*
X151015Y-328427D01*
X151063Y-328406D01*
X151109Y-328385D01*
X151155Y-328366D01*
X151199Y-328347D01*
X151242Y-328328D01*
X151284Y-328311D01*
X151324Y-328294D01*
X151363Y-328278D01*
X151401Y-328263D01*
X151438Y-328249D01*
X151473Y-328235D01*
X151507Y-328222D01*
X151539Y-328210D01*
X151570Y-328199D01*
X151600Y-328188D01*
X151628Y-328179D01*
X151654Y-328170D01*
X151679Y-328162D01*
X151703Y-328155D01*
X151725Y-328149D01*
X151745Y-328144D01*
X151764Y-328140D01*
X151781Y-328136D01*
X151796Y-328134D01*
X151810Y-328133D01*
X151823Y-328132D01*
X152096D01*
X152367Y-328857D01*
D02*
G37*
G36*
X181722Y-327954D02*
X181896Y-328042D01*
X182165Y-328177D01*
X182517Y-328354D01*
X182941Y-328567D01*
X183424Y-328809D01*
X183954Y-329076D01*
X184521Y-329361D01*
X184594Y-329397D01*
X184668Y-329435D01*
X184742Y-329472D01*
X184818Y-329511D01*
X184894Y-329550D01*
X184971Y-329589D01*
X185048Y-329629D01*
X185126Y-329669D01*
X185205Y-329710D01*
X185284Y-329751D01*
X185364Y-329792D01*
X185444Y-329834D01*
X185525Y-329876D01*
X185606Y-329918D01*
X185687Y-329961D01*
X185769Y-330004D01*
X185851Y-330047D01*
X185933Y-330091D01*
X186015Y-330134D01*
X186098Y-330178D01*
X186180Y-330222D01*
X186263Y-330266D01*
X186346Y-330310D01*
X186428Y-330355D01*
X186511Y-330399D01*
X186593Y-330444D01*
X186676Y-330488D01*
X186758Y-330533D01*
X186840Y-330577D01*
X186922Y-330622D01*
X187004Y-330666D01*
X187085Y-330710D01*
X187166Y-330755D01*
X187247Y-330799D01*
X187327Y-330843D01*
X187407Y-330887D01*
X187486Y-330930D01*
X187565Y-330974D01*
X187643Y-331017D01*
X187720Y-331060D01*
X187797Y-331103D01*
X187873Y-331146D01*
X187949Y-331188D01*
X188023Y-331230D01*
X188097Y-331271D01*
X188170Y-331313D01*
X188243Y-331353D01*
X188314Y-331394D01*
X188384Y-331434D01*
X188453Y-331473D01*
X188522Y-331512D01*
X188589Y-331551D01*
X188655Y-331589D01*
X188720Y-331627D01*
X188784Y-331664D01*
X188846Y-331700D01*
X188907Y-331736D01*
X188967Y-331771D01*
X189026Y-331806D01*
X189083Y-331840D01*
X189139Y-331873D01*
X189193Y-331906D01*
X189246Y-331938D01*
X189298Y-331969D01*
X191259Y-333163D01*
X192643Y-334515D01*
X192678Y-334550D01*
X192714Y-334586D01*
X192751Y-334622D01*
X192787Y-334658D01*
X192824Y-334695D01*
X192860Y-334733D01*
X192897Y-334770D01*
X192934Y-334808D01*
X192971Y-334847D01*
X193008Y-334886D01*
X193046Y-334925D01*
X193083Y-334964D01*
X193120Y-335004D01*
X193158Y-335044D01*
X193195Y-335084D01*
X193233Y-335124D01*
X193270Y-335165D01*
X193307Y-335206D01*
X193345Y-335247D01*
X193382Y-335288D01*
X193419Y-335329D01*
X193456Y-335370D01*
X193493Y-335412D01*
X193529Y-335453D01*
X193566Y-335494D01*
X193603Y-335536D01*
X193639Y-335577D01*
X193675Y-335619D01*
X193710Y-335660D01*
X193746Y-335702D01*
X193781Y-335743D01*
X193816Y-335784D01*
X193851Y-335825D01*
X193886Y-335866D01*
X193920Y-335907D01*
X193954Y-335948D01*
X193987Y-335988D01*
X194020Y-336029D01*
X194053Y-336069D01*
X194085Y-336108D01*
X194117Y-336148D01*
X194148Y-336187D01*
X194179Y-336226D01*
X194210Y-336265D01*
X194240Y-336303D01*
X194269Y-336341D01*
X194298Y-336378D01*
X194327Y-336415D01*
X194354Y-336452D01*
X194382Y-336488D01*
X194409Y-336524D01*
X194435Y-336559D01*
X194460Y-336594D01*
X194485Y-336628D01*
X194509Y-336662D01*
X194533Y-336695D01*
X194556Y-336727D01*
X194578Y-336759D01*
X194600Y-336791D01*
X194620Y-336822D01*
X194640Y-336852D01*
X194660Y-336881D01*
X194678Y-336910D01*
X194696Y-336938D01*
X195366Y-338009D01*
X195924Y-340019D01*
X196482Y-342030D01*
X196355Y-344660D01*
X196227Y-347290D01*
X195919Y-348541D01*
X195610Y-349793D01*
X195410Y-349677D01*
X195366Y-349636D01*
X195320Y-349562D01*
X195271Y-349459D01*
X195222Y-349332D01*
X195175Y-349185D01*
X195129Y-349022D01*
X195088Y-348847D01*
X195053Y-348664D01*
X194897Y-347766D01*
X194000Y-346030D01*
X193973Y-345977D01*
X193945Y-345924D01*
X193917Y-345871D01*
X193890Y-345818D01*
X193862Y-345766D01*
X193835Y-345714D01*
X193807Y-345662D01*
X193780Y-345611D01*
X193753Y-345560D01*
X193725Y-345510D01*
X193698Y-345460D01*
X193671Y-345410D01*
X193644Y-345360D01*
X193617Y-345311D01*
X193590Y-345262D01*
X193562Y-345213D01*
X193535Y-345164D01*
X193508Y-345116D01*
X193481Y-345069D01*
X193454Y-345021D01*
X193427Y-344973D01*
X193400Y-344927D01*
X193373Y-344880D01*
X193346Y-344833D01*
X193319Y-344787D01*
X193292Y-344741D01*
X193265Y-344695D01*
X193237Y-344649D01*
X193210Y-344604D01*
X193183Y-344559D01*
X193156Y-344514D01*
X193128Y-344469D01*
X193101Y-344424D01*
X193073Y-344380D01*
X193046Y-344336D01*
X193018Y-344292D01*
X192991Y-344248D01*
X192963Y-344204D01*
X192935Y-344161D01*
X192907Y-344117D01*
X192879Y-344074D01*
X192851Y-344031D01*
X192823Y-343988D01*
X192795Y-343946D01*
X192767Y-343903D01*
X192738Y-343861D01*
X192710Y-343818D01*
X192681Y-343776D01*
X192652Y-343734D01*
X192623Y-343692D01*
X192594Y-343650D01*
X192565Y-343608D01*
X192536Y-343567D01*
X192507Y-343525D01*
X192477Y-343484D01*
X192447Y-343442D01*
X192417Y-343401D01*
X192387Y-343360D01*
X192357Y-343318D01*
X192327Y-343277D01*
X192296Y-343236D01*
X192266Y-343195D01*
X192235Y-343154D01*
X192204Y-343113D01*
X192173Y-343072D01*
X192141Y-343031D01*
X192110Y-342990D01*
X192078Y-342949D01*
X192046Y-342908D01*
X192014Y-342867D01*
X191981Y-342826D01*
X191949Y-342785D01*
X191916Y-342744D01*
X191883Y-342704D01*
X191850Y-342663D01*
X191816Y-342621D01*
X191782Y-342580D01*
X191748Y-342539D01*
X191714Y-342498D01*
X191680Y-342457D01*
X191645Y-342416D01*
X191610Y-342374D01*
X191575Y-342333D01*
X191540Y-342292D01*
X191504Y-342250D01*
X191468Y-342208D01*
X191432Y-342167D01*
X191395Y-342125D01*
X191358Y-342083D01*
X191321Y-342041D01*
X191284Y-341999D01*
X191246Y-341957D01*
X191208Y-341914D01*
X191170Y-341872D01*
X191131Y-341829D01*
X191093Y-341786D01*
X191053Y-341743D01*
X191014Y-341700D01*
X190974Y-341657D01*
X190934Y-341614D01*
X190893Y-341570D01*
X190852Y-341527D01*
X190811Y-341483D01*
X190770Y-341439D01*
X190728Y-341394D01*
X190686Y-341350D01*
X190643Y-341305D01*
X190600Y-341260D01*
X190557Y-341215D01*
X190513Y-341170D01*
X190469Y-341125D01*
X190425Y-341079D01*
X190380Y-341033D01*
X190335Y-340987D01*
X190290Y-340940D01*
X190244Y-340894D01*
X190197Y-340847D01*
X190151Y-340799D01*
X190103Y-340752D01*
X190056Y-340704D01*
X190008Y-340656D01*
X189960Y-340608D01*
X189911Y-340560D01*
X189862Y-340511D01*
X189812Y-340462D01*
X189762Y-340412D01*
X189712Y-340363D01*
X189661Y-340312D01*
X187848Y-338534D01*
X184773Y-336224D01*
X184694Y-336165D01*
X184614Y-336105D01*
X184535Y-336045D01*
X184455Y-335984D01*
X184376Y-335924D01*
X184297Y-335864D01*
X184217Y-335803D01*
X184138Y-335743D01*
X184059Y-335682D01*
X183981Y-335621D01*
X183902Y-335561D01*
X183824Y-335500D01*
X183746Y-335440D01*
X183668Y-335379D01*
X183591Y-335319D01*
X183514Y-335259D01*
X183437Y-335199D01*
X183361Y-335139D01*
X183286Y-335080D01*
X183210Y-335020D01*
X183136Y-334961D01*
X183062Y-334902D01*
X182988Y-334844D01*
X182915Y-334786D01*
X182843Y-334728D01*
X182772Y-334671D01*
X182701Y-334614D01*
X182631Y-334558D01*
X182562Y-334502D01*
X182493Y-334446D01*
X182426Y-334391D01*
X182359Y-334337D01*
X182293Y-334283D01*
X182228Y-334230D01*
X182165Y-334177D01*
X182102Y-334126D01*
X182040Y-334074D01*
X181979Y-334024D01*
X181919Y-333974D01*
X181861Y-333925D01*
X181803Y-333877D01*
X181747Y-333829D01*
X181692Y-333783D01*
X181638Y-333737D01*
X181586Y-333692D01*
X181535Y-333648D01*
X181485Y-333605D01*
X181436Y-333563D01*
X181389Y-333522D01*
X181344Y-333482D01*
X181300Y-333443D01*
X181257Y-333405D01*
X181216Y-333368D01*
X181176Y-333333D01*
X181138Y-333298D01*
X181102Y-333265D01*
X181067Y-333232D01*
X181034Y-333201D01*
X181003Y-333172D01*
X180974Y-333143D01*
X180946Y-333116D01*
X180920Y-333090D01*
X180896Y-333065D01*
X180874Y-333042D01*
X180050Y-332169D01*
X179888Y-331569D01*
X179726Y-330969D01*
X180130Y-330553D01*
X180174Y-330505D01*
X180222Y-330447D01*
X180274Y-330379D01*
X180329Y-330303D01*
X180387Y-330220D01*
X180447Y-330129D01*
X180509Y-330032D01*
X180572Y-329930D01*
X180636Y-329823D01*
X180701Y-329713D01*
X180765Y-329600D01*
X180829Y-329484D01*
X180892Y-329367D01*
X180953Y-329250D01*
X181012Y-329132D01*
X181068Y-329016D01*
X181096Y-328958D01*
X181123Y-328902D01*
X181150Y-328846D01*
X181176Y-328791D01*
X181203Y-328737D01*
X181229Y-328684D01*
X181254Y-328633D01*
X181279Y-328582D01*
X181304Y-328533D01*
X181328Y-328485D01*
X181352Y-328439D01*
X181375Y-328394D01*
X181397Y-328351D01*
X181419Y-328309D01*
X181440Y-328269D01*
X181460Y-328231D01*
X181480Y-328195D01*
X181498Y-328161D01*
X181516Y-328128D01*
X181533Y-328098D01*
X181549Y-328070D01*
X181564Y-328044D01*
X181578Y-328020D01*
X181591Y-327999D01*
X181603Y-327980D01*
X181614Y-327963D01*
X181624Y-327949D01*
X181632Y-327938D01*
X181640Y-327929D01*
X181646Y-327923D01*
X181650Y-327920D01*
X181654Y-327920D01*
X181722Y-327954D01*
D02*
G37*
G36*
X180682Y-335289D02*
X180723Y-335301D01*
X180791Y-335337D01*
X180885Y-335393D01*
X181003Y-335469D01*
X181145Y-335563D01*
X181307Y-335675D01*
X181489Y-335804D01*
X181690Y-335948D01*
X181906Y-336106D01*
X182138Y-336277D01*
X182383Y-336459D01*
X182640Y-336653D01*
X182907Y-336856D01*
X183182Y-337068D01*
X183465Y-337286D01*
X183753Y-337511D01*
X183826Y-337568D01*
X183899Y-337626D01*
X183973Y-337685D01*
X184047Y-337743D01*
X184122Y-337803D01*
X184197Y-337863D01*
X184272Y-337923D01*
X184347Y-337984D01*
X184423Y-338045D01*
X184499Y-338106D01*
X184575Y-338168D01*
X184652Y-338230D01*
X184728Y-338292D01*
X184804Y-338355D01*
X184881Y-338418D01*
X184958Y-338480D01*
X185034Y-338544D01*
X185110Y-338607D01*
X185187Y-338670D01*
X185263Y-338733D01*
X185339Y-338797D01*
X185415Y-338860D01*
X185491Y-338923D01*
X185566Y-338987D01*
X185641Y-339050D01*
X185716Y-339113D01*
X185791Y-339176D01*
X185865Y-339239D01*
X185938Y-339301D01*
X186011Y-339363D01*
X186084Y-339425D01*
X186156Y-339487D01*
X186228Y-339549D01*
X186299Y-339610D01*
X186369Y-339671D01*
X186439Y-339731D01*
X186507Y-339791D01*
X186576Y-339850D01*
X186643Y-339909D01*
X186710Y-339968D01*
X186776Y-340025D01*
X186840Y-340083D01*
X186904Y-340139D01*
X186968Y-340195D01*
X187030Y-340251D01*
X187091Y-340306D01*
X187151Y-340359D01*
X187210Y-340413D01*
X187268Y-340465D01*
X187325Y-340517D01*
X187380Y-340567D01*
X187434Y-340617D01*
X187487Y-340666D01*
X187539Y-340715D01*
X187590Y-340762D01*
X187639Y-340808D01*
X187687Y-340853D01*
X187733Y-340897D01*
X187778Y-340940D01*
X187822Y-340982D01*
X187864Y-341023D01*
X187904Y-341062D01*
X187943Y-341101D01*
X187980Y-341138D01*
X189392Y-342557D01*
X190194Y-344091D01*
X190995Y-345624D01*
X191277Y-346886D01*
X191559Y-348147D01*
Y-349651D01*
Y-351155D01*
X191169Y-353234D01*
X190779Y-355314D01*
X189769Y-357520D01*
X189743Y-357577D01*
X189716Y-357635D01*
X189689Y-357694D01*
X189661Y-357753D01*
X189633Y-357812D01*
X189605Y-357872D01*
X189576Y-357933D01*
X189547Y-357994D01*
X189517Y-358056D01*
X189487Y-358118D01*
X189457Y-358180D01*
X189426Y-358243D01*
X189395Y-358306D01*
X189364Y-358369D01*
X189332Y-358432D01*
X189301Y-358496D01*
X189269Y-358560D01*
X189237Y-358624D01*
X189204Y-358688D01*
X189172Y-358753D01*
X189139Y-358817D01*
X189106Y-358881D01*
X189073Y-358946D01*
X189040Y-359011D01*
X189006Y-359075D01*
X188973Y-359139D01*
X188940Y-359204D01*
X188906Y-359268D01*
X188873Y-359332D01*
X188839Y-359396D01*
X188805Y-359459D01*
X188772Y-359523D01*
X188738Y-359585D01*
X188705Y-359648D01*
X188671Y-359711D01*
X188638Y-359773D01*
X188604Y-359834D01*
X188571Y-359895D01*
X188538Y-359956D01*
X188505Y-360016D01*
X188472Y-360076D01*
X188439Y-360136D01*
X188407Y-360194D01*
X188374Y-360252D01*
X188342Y-360310D01*
X188310Y-360366D01*
X188279Y-360422D01*
X188247Y-360477D01*
X188216Y-360532D01*
X188185Y-360586D01*
X188155Y-360639D01*
X188124Y-360691D01*
X188094Y-360742D01*
X188065Y-360792D01*
X188036Y-360842D01*
X188007Y-360890D01*
X187978Y-360938D01*
X187950Y-360984D01*
X187923Y-361029D01*
X187896Y-361073D01*
X187869Y-361117D01*
X187843Y-361159D01*
X187817Y-361199D01*
X187792Y-361239D01*
X186824Y-362752D01*
X186663Y-360019D01*
X186502Y-357286D01*
X185835Y-354957D01*
X185818Y-354897D01*
X185800Y-354836D01*
X185782Y-354774D01*
X185763Y-354711D01*
X185744Y-354648D01*
X185725Y-354584D01*
X185705Y-354520D01*
X185685Y-354454D01*
X185665Y-354389D01*
X185645Y-354323D01*
X185624Y-354256D01*
X185602Y-354189D01*
X185581Y-354122D01*
X185559Y-354054D01*
X185538Y-353986D01*
X185515Y-353918D01*
X185493Y-353849D01*
X185470Y-353780D01*
X185448Y-353711D01*
X185424Y-353642D01*
X185401Y-353572D01*
X185378Y-353503D01*
X185354Y-353433D01*
X185331Y-353363D01*
X185307Y-353294D01*
X185283Y-353224D01*
X185259Y-353154D01*
X185235Y-353085D01*
X185211Y-353015D01*
X185187Y-352946D01*
X185162Y-352877D01*
X185138Y-352808D01*
X185113Y-352740D01*
X185089Y-352671D01*
X185064Y-352603D01*
X185040Y-352536D01*
X185015Y-352468D01*
X184991Y-352401D01*
X184967Y-352335D01*
X184942Y-352269D01*
X184918Y-352203D01*
X184893Y-352138D01*
X184869Y-352074D01*
X184845Y-352010D01*
X184821Y-351947D01*
X184797Y-351885D01*
X184773Y-351823D01*
X184750Y-351762D01*
X184726Y-351702D01*
X184703Y-351642D01*
X184679Y-351584D01*
X184656Y-351526D01*
X184634Y-351469D01*
X184611Y-351413D01*
X184589Y-351358D01*
X184566Y-351304D01*
X184544Y-351251D01*
X184523Y-351199D01*
X184501Y-351148D01*
X184480Y-351098D01*
X184459Y-351050D01*
X184438Y-351003D01*
X184418Y-350956D01*
X184398Y-350911D01*
X183628Y-349194D01*
X182380Y-347409D01*
X182347Y-347363D01*
X182313Y-347315D01*
X182278Y-347266D01*
X182242Y-347217D01*
X182205Y-347166D01*
X182168Y-347114D01*
X182129Y-347062D01*
X182089Y-347008D01*
X182048Y-346954D01*
X182007Y-346899D01*
X181965Y-346843D01*
X181921Y-346786D01*
X181877Y-346728D01*
X181833Y-346670D01*
X181787Y-346611D01*
X181741Y-346551D01*
X181694Y-346491D01*
X181646Y-346430D01*
X181598Y-346369D01*
X181549Y-346307D01*
X181500Y-346245D01*
X181450Y-346182D01*
X181399Y-346119D01*
X181348Y-346055D01*
X181297Y-345991D01*
X181245Y-345926D01*
X181192Y-345862D01*
X181139Y-345797D01*
X181086Y-345731D01*
X181033Y-345666D01*
X180979Y-345601D01*
X180924Y-345535D01*
X180870Y-345469D01*
X180815Y-345403D01*
X180760Y-345337D01*
X180705Y-345271D01*
X180649Y-345204D01*
X180594Y-345139D01*
X180538Y-345073D01*
X180482Y-345007D01*
X180427Y-344941D01*
X180371Y-344875D01*
X180315Y-344810D01*
X180259Y-344745D01*
X180203Y-344680D01*
X180147Y-344615D01*
X180091Y-344551D01*
X180035Y-344486D01*
X179980Y-344423D01*
X179924Y-344360D01*
X179869Y-344297D01*
X179814Y-344234D01*
X179759Y-344173D01*
X179705Y-344111D01*
X179651Y-344051D01*
X179597Y-343990D01*
X179543Y-343931D01*
X179490Y-343872D01*
X179437Y-343814D01*
X179384Y-343756D01*
X179332Y-343700D01*
X179281Y-343644D01*
X179230Y-343588D01*
X179179Y-343534D01*
X179129Y-343480D01*
X179079Y-343427D01*
X179029Y-343373D01*
X178980Y-343320D01*
X178931Y-343267D01*
X178883Y-343214D01*
X178835Y-343161D01*
X178787Y-343108D01*
X178740Y-343056D01*
X178693Y-343004D01*
X178646Y-342952D01*
X178601Y-342901D01*
X178555Y-342850D01*
X178510Y-342800D01*
X178465Y-342749D01*
X178421Y-342700D01*
X178378Y-342650D01*
X178335Y-342601D01*
X178293Y-342553D01*
X178251Y-342505D01*
X178210Y-342457D01*
X178170Y-342410D01*
X178130Y-342364D01*
X178091Y-342318D01*
X178052Y-342272D01*
X178014Y-342228D01*
X177977Y-342184D01*
X177940Y-342140D01*
X177905Y-342097D01*
X177870Y-342055D01*
X177836Y-342014D01*
X177802Y-341973D01*
X177769Y-341933D01*
X177737Y-341893D01*
X177706Y-341855D01*
X177676Y-341817D01*
X177647Y-341780D01*
X177618Y-341744D01*
X177591Y-341708D01*
X177564Y-341674D01*
X177538Y-341640D01*
X177513Y-341608D01*
X177489Y-341576D01*
X177466Y-341545D01*
X177444Y-341515D01*
X177423Y-341486D01*
X177403Y-341458D01*
X177384Y-341431D01*
X177366Y-341406D01*
X177350Y-341381D01*
X177334Y-341357D01*
X177319Y-341334D01*
X177305Y-341313D01*
X177293Y-341292D01*
X177281Y-341273D01*
X177271Y-341255D01*
X177262Y-341238D01*
X177254Y-341222D01*
X177248Y-341208D01*
X177242Y-341195D01*
X177238Y-341182D01*
X177235Y-341172D01*
X177233Y-341162D01*
X177233Y-341154D01*
X177244Y-341057D01*
X177275Y-340933D01*
X177323Y-340786D01*
X177385Y-340619D01*
X177460Y-340439D01*
X177545Y-340248D01*
X177638Y-340052D01*
X177737Y-339854D01*
X177839Y-339659D01*
X177942Y-339472D01*
X178044Y-339296D01*
X178143Y-339137D01*
X178236Y-338998D01*
X178322Y-338884D01*
X178398Y-338800D01*
X178461Y-338749D01*
X178725Y-338597D01*
X180343Y-339750D01*
X181962Y-340902D01*
X183290Y-342428D01*
X183324Y-342467D01*
X183359Y-342508D01*
X183394Y-342550D01*
X183430Y-342592D01*
X183467Y-342635D01*
X183503Y-342679D01*
X183540Y-342724D01*
X183578Y-342770D01*
X183616Y-342816D01*
X183654Y-342863D01*
X183692Y-342911D01*
X183731Y-342959D01*
X183770Y-343008D01*
X183809Y-343057D01*
X183849Y-343107D01*
X183888Y-343158D01*
X183928Y-343209D01*
X183968Y-343261D01*
X184008Y-343313D01*
X184049Y-343365D01*
X184089Y-343418D01*
X184130Y-343471D01*
X184170Y-343525D01*
X184211Y-343579D01*
X184252Y-343633D01*
X184292Y-343687D01*
X184333Y-343742D01*
X184374Y-343797D01*
X184415Y-343852D01*
X184455Y-343908D01*
X184496Y-343963D01*
X184536Y-344019D01*
X184577Y-344074D01*
X184617Y-344130D01*
X184657Y-344186D01*
X184697Y-344242D01*
X184737Y-344297D01*
X184776Y-344353D01*
X184816Y-344409D01*
X184854Y-344464D01*
X184893Y-344520D01*
X184932Y-344575D01*
X184970Y-344630D01*
X185008Y-344685D01*
X185046Y-344740D01*
X185083Y-344794D01*
X185119Y-344848D01*
X185156Y-344902D01*
X185192Y-344956D01*
X185228Y-345009D01*
X185263Y-345062D01*
X185297Y-345114D01*
X185331Y-345166D01*
X185365Y-345218D01*
X185398Y-345269D01*
X185431Y-345319D01*
X185463Y-345369D01*
X185494Y-345419D01*
X185525Y-345467D01*
X185555Y-345515D01*
X185584Y-345563D01*
X185613Y-345610D01*
X185642Y-345656D01*
X185669Y-345702D01*
X186721Y-347450D01*
X187332Y-349274D01*
X187348Y-349321D01*
X187364Y-349370D01*
X187380Y-349418D01*
X187396Y-349468D01*
X187413Y-349518D01*
X187429Y-349569D01*
X187446Y-349620D01*
X187463Y-349672D01*
X187479Y-349724D01*
X187496Y-349777D01*
X187513Y-349831D01*
X187530Y-349885D01*
X187547Y-349939D01*
X187565Y-349994D01*
X187582Y-350049D01*
X187599Y-350104D01*
X187616Y-350160D01*
X187633Y-350216D01*
X187651Y-350272D01*
X187668Y-350329D01*
X187685Y-350386D01*
X187703Y-350443D01*
X187720Y-350500D01*
X187737Y-350557D01*
X187754Y-350615D01*
X187771Y-350672D01*
X187788Y-350729D01*
X187805Y-350787D01*
X187822Y-350845D01*
X187839Y-350902D01*
X187856Y-350959D01*
X187873Y-351017D01*
X187890Y-351074D01*
X187906Y-351131D01*
X187922Y-351188D01*
X187939Y-351245D01*
X187955Y-351301D01*
X187971Y-351358D01*
X187987Y-351413D01*
X188003Y-351469D01*
X188018Y-351524D01*
X188033Y-351579D01*
X188049Y-351634D01*
X188064Y-351688D01*
X188079Y-351742D01*
X188093Y-351796D01*
X188108Y-351848D01*
X188122Y-351901D01*
X188136Y-351952D01*
X188150Y-352004D01*
X188163Y-352054D01*
X188177Y-352104D01*
X188190Y-352153D01*
X188202Y-352202D01*
X188215Y-352250D01*
X188227Y-352297D01*
X188239Y-352344D01*
X188251Y-352389D01*
X188262Y-352434D01*
X188273Y-352478D01*
X188284Y-352521D01*
X188294Y-352564D01*
X188304Y-352605D01*
X188314Y-352645D01*
X188684Y-354192D01*
X188714Y-352748D01*
X188744Y-351305D01*
X188466Y-349910D01*
X188189Y-348515D01*
X187240Y-346468D01*
X186291Y-344421D01*
X185068Y-342827D01*
X183845Y-341233D01*
X181659Y-339331D01*
X179473Y-337429D01*
X179949Y-336351D01*
X180426Y-335274D01*
X180682Y-335289D01*
D02*
G37*
G36*
X152961Y-335294D02*
X153022Y-335356D01*
X153093Y-335454D01*
X153174Y-335585D01*
X153262Y-335742D01*
X153353Y-335923D01*
X153446Y-336123D01*
X153537Y-336337D01*
X153975Y-337402D01*
X151560Y-339609D01*
X149145Y-341817D01*
X147833Y-343687D01*
X146521Y-345558D01*
X145734Y-347843D01*
X144947Y-350127D01*
X144798Y-352100D01*
X144648Y-354073D01*
X145236D01*
Y-353278D01*
X145238Y-353187D01*
X145246Y-353080D01*
X145259Y-352958D01*
X145277Y-352821D01*
X145298Y-352672D01*
X145324Y-352512D01*
X145354Y-352342D01*
X145387Y-352164D01*
X145424Y-351978D01*
X145464Y-351788D01*
X145506Y-351592D01*
X145552Y-351395D01*
X145599Y-351195D01*
X145648Y-350995D01*
X145699Y-350797D01*
X145752Y-350601D01*
X146268Y-348718D01*
X147146Y-346994D01*
X147181Y-346925D01*
X147217Y-346857D01*
X147252Y-346788D01*
X147288Y-346720D01*
X147325Y-346651D01*
X147361Y-346583D01*
X147398Y-346515D01*
X147435Y-346448D01*
X147472Y-346380D01*
X147509Y-346312D01*
X147547Y-346245D01*
X147584Y-346178D01*
X147623Y-346111D01*
X147661Y-346044D01*
X147699Y-345978D01*
X147738Y-345911D01*
X147777Y-345845D01*
X147816Y-345779D01*
X147856Y-345712D01*
X147895Y-345647D01*
X147935Y-345581D01*
X147976Y-345515D01*
X148016Y-345450D01*
X148056Y-345385D01*
X148097Y-345320D01*
X148138Y-345255D01*
X148180Y-345190D01*
X148221Y-345126D01*
X148263Y-345061D01*
X148305Y-344997D01*
X148347Y-344933D01*
X148390Y-344869D01*
X148432Y-344805D01*
X148475Y-344742D01*
X148518Y-344678D01*
X148562Y-344615D01*
X148605Y-344552D01*
X148649Y-344489D01*
X148693Y-344426D01*
X148738Y-344364D01*
X148782Y-344301D01*
X148827Y-344239D01*
X148872Y-344177D01*
X148917Y-344115D01*
X148962Y-344053D01*
X149008Y-343992D01*
X149054Y-343930D01*
X149100Y-343869D01*
X149146Y-343808D01*
X149193Y-343747D01*
X149240Y-343686D01*
X149287Y-343625D01*
X149334Y-343565D01*
X149381Y-343505D01*
X149429Y-343445D01*
X149477Y-343385D01*
X149525Y-343325D01*
X149574Y-343265D01*
X149622Y-343206D01*
X149671Y-343147D01*
X149720Y-343088D01*
X149769Y-343029D01*
X149819Y-342970D01*
X149869Y-342911D01*
X149919Y-342853D01*
X149969Y-342795D01*
X150019Y-342737D01*
X150070Y-342679D01*
X150121Y-342621D01*
X150172Y-342563D01*
X150223Y-342506D01*
X150275Y-342449D01*
X150326Y-342391D01*
X150378Y-342335D01*
X150431Y-342278D01*
X150483Y-342221D01*
X150536Y-342165D01*
X150588Y-342109D01*
X150642Y-342053D01*
X150695Y-341997D01*
X150748Y-341941D01*
X150802Y-341886D01*
X150856Y-341830D01*
X150910Y-341775D01*
X150965Y-341720D01*
X151019Y-341665D01*
X151074Y-341611D01*
X151129Y-341556D01*
X151185Y-341502D01*
X151240Y-341448D01*
X151296Y-341394D01*
X151352Y-341340D01*
X151408Y-341286D01*
X151464Y-341233D01*
X151521Y-341179D01*
X151578Y-341126D01*
X151635Y-341073D01*
X151692Y-341021D01*
X151750Y-340968D01*
X151808Y-340916D01*
X151866Y-340863D01*
X151924Y-340811D01*
X151982Y-340760D01*
X152041Y-340708D01*
X152100Y-340656D01*
X152159Y-340605D01*
X152218Y-340554D01*
X152278Y-340503D01*
X152337Y-340452D01*
X152397Y-340401D01*
X152457Y-340351D01*
X152518Y-340301D01*
X152578Y-340251D01*
X152639Y-340201D01*
X152700Y-340151D01*
X152761Y-340101D01*
X152823Y-340052D01*
X152884Y-340003D01*
X152946Y-339954D01*
X153008Y-339905D01*
X153071Y-339856D01*
X153133Y-339808D01*
X153196Y-339759D01*
X153259Y-339711D01*
X153322Y-339663D01*
X153386Y-339615D01*
X153449Y-339568D01*
X153513Y-339520D01*
X154752Y-338603D01*
X154988Y-338738D01*
X155062Y-338794D01*
X155146Y-338882D01*
X155238Y-338997D01*
X155336Y-339135D01*
X155438Y-339293D01*
X155543Y-339466D01*
X155647Y-339651D01*
X155749Y-339843D01*
X155847Y-340037D01*
X155939Y-340232D01*
X156022Y-340421D01*
X156094Y-340601D01*
X156154Y-340769D01*
X156200Y-340919D01*
X156228Y-341048D01*
X156237Y-341153D01*
X156234Y-341579D01*
X154417Y-343482D01*
X154364Y-343538D01*
X154312Y-343593D01*
X154260Y-343648D01*
X154208Y-343702D01*
X154157Y-343757D01*
X154106Y-343811D01*
X154056Y-343864D01*
X154006Y-343918D01*
X153956Y-343971D01*
X153907Y-344024D01*
X153858Y-344077D01*
X153809Y-344130D01*
X153761Y-344182D01*
X153713Y-344234D01*
X153665Y-344286D01*
X153618Y-344338D01*
X153571Y-344389D01*
X153524Y-344441D01*
X153478Y-344492D01*
X153432Y-344543D01*
X153387Y-344593D01*
X153341Y-344644D01*
X153296Y-344694D01*
X153252Y-344744D01*
X153207Y-344795D01*
X153163Y-344844D01*
X153120Y-344894D01*
X153076Y-344944D01*
X153033Y-344993D01*
X152990Y-345042D01*
X152948Y-345092D01*
X152905Y-345141D01*
X152863Y-345189D01*
X152822Y-345238D01*
X152780Y-345287D01*
X152739Y-345336D01*
X152698Y-345384D01*
X152657Y-345432D01*
X152617Y-345481D01*
X152577Y-345529D01*
X152537Y-345577D01*
X152497Y-345625D01*
X152458Y-345673D01*
X152418Y-345721D01*
X152380Y-345769D01*
X152341Y-345816D01*
X152302Y-345864D01*
X152264Y-345912D01*
X152226Y-345959D01*
X152188Y-346007D01*
X152150Y-346055D01*
X152113Y-346102D01*
X152076Y-346150D01*
X152039Y-346197D01*
X152002Y-346245D01*
X151965Y-346292D01*
X151929Y-346340D01*
X151892Y-346387D01*
X151856Y-346434D01*
X151821Y-346482D01*
X151785Y-346530D01*
X151749Y-346577D01*
X151714Y-346625D01*
X151679Y-346672D01*
X151644Y-346720D01*
X151609Y-346768D01*
X151574Y-346815D01*
X151539Y-346863D01*
X151505Y-346911D01*
X151470Y-346959D01*
X151436Y-347007D01*
X151402Y-347055D01*
X151368Y-347103D01*
X151334Y-347152D01*
X151300Y-347200D01*
X151267Y-347248D01*
X151233Y-347297D01*
X151200Y-347346D01*
X151167Y-347394D01*
X151133Y-347443D01*
X151100Y-347492D01*
X151067Y-347541D01*
X151034Y-347591D01*
X151002Y-347640D01*
X150969Y-347690D01*
X150936Y-347739D01*
X150904Y-347789D01*
X150871Y-347839D01*
X150839Y-347889D01*
X150806Y-347940D01*
X150774Y-347990D01*
X150742Y-348041D01*
X150710Y-348092D01*
X150677Y-348143D01*
X150645Y-348194D01*
X150613Y-348245D01*
X150581Y-348297D01*
X150549Y-348349D01*
X150517Y-348401D01*
X150485Y-348453D01*
X150453Y-348506D01*
X150421Y-348558D01*
X150390Y-348611D01*
X150358Y-348665D01*
X150326Y-348718D01*
X150294Y-348772D01*
X150262Y-348826D01*
X150230Y-348880D01*
X150198Y-348935D01*
X150166Y-348989D01*
X150134Y-349044D01*
X150102Y-349100D01*
X150071Y-349155D01*
X150039Y-349211D01*
X150006Y-349268D01*
X149974Y-349324D01*
X149942Y-349381D01*
X149910Y-349438D01*
X149878Y-349495D01*
X149846Y-349553D01*
X149813Y-349611D01*
X149781Y-349670D01*
X149749Y-349728D01*
X149716Y-349787D01*
X149684Y-349847D01*
X149651Y-349907D01*
X149618Y-349967D01*
X149586Y-350027D01*
X148492Y-352050D01*
X147747Y-354787D01*
X147002Y-357524D01*
X146823Y-360142D01*
X146643Y-362760D01*
X145437Y-360728D01*
X145388Y-360646D01*
X145339Y-360564D01*
X145291Y-360482D01*
X145244Y-360400D01*
X145196Y-360318D01*
X145150Y-360237D01*
X145103Y-360156D01*
X145057Y-360075D01*
X145011Y-359994D01*
X144966Y-359913D01*
X144921Y-359833D01*
X144876Y-359752D01*
X144832Y-359672D01*
X144788Y-359592D01*
X144744Y-359512D01*
X144701Y-359433D01*
X144658Y-359353D01*
X144616Y-359274D01*
X144573Y-359195D01*
X144532Y-359116D01*
X144490Y-359037D01*
X144449Y-358958D01*
X144409Y-358879D01*
X144368Y-358801D01*
X144328Y-358723D01*
X144289Y-358645D01*
X144250Y-358567D01*
X144211Y-358489D01*
X144172Y-358411D01*
X144134Y-358334D01*
X144096Y-358256D01*
X144059Y-358179D01*
X144022Y-358102D01*
X143985Y-358025D01*
X143949Y-357948D01*
X143913Y-357871D01*
X143877Y-357795D01*
X143842Y-357718D01*
X143807Y-357642D01*
X143772Y-357565D01*
X143738Y-357489D01*
X143704Y-357413D01*
X143670Y-357337D01*
X143637Y-357262D01*
X143604Y-357186D01*
X143572Y-357110D01*
X143540Y-357035D01*
X143508Y-356960D01*
X143476Y-356884D01*
X143445Y-356809D01*
X143414Y-356734D01*
X143384Y-356659D01*
X143354Y-356584D01*
X143324Y-356509D01*
X143295Y-356435D01*
X143265Y-356360D01*
X143237Y-356286D01*
X143208Y-356211D01*
X143180Y-356137D01*
X143152Y-356062D01*
X143125Y-355988D01*
X143098Y-355914D01*
X143071Y-355840D01*
X143045Y-355766D01*
X143018Y-355692D01*
X142993Y-355618D01*
X142967Y-355545D01*
X142942Y-355471D01*
X142918Y-355397D01*
X142893Y-355324D01*
X142869Y-355250D01*
X142845Y-355177D01*
X142822Y-355103D01*
X142798Y-355030D01*
X142776Y-354957D01*
X142753Y-354883D01*
X142731Y-354810D01*
X142709Y-354737D01*
X142688Y-354664D01*
X142666Y-354591D01*
X142646Y-354518D01*
X142625Y-354445D01*
X142605Y-354372D01*
X142585Y-354299D01*
X142565Y-354226D01*
X142546Y-354153D01*
X142527Y-354080D01*
X142508Y-354007D01*
X142490Y-353935D01*
X142472Y-353862D01*
X142455Y-353789D01*
X142437Y-353716D01*
X142420Y-353644D01*
X142403Y-353571D01*
X142387Y-353498D01*
X142371Y-353426D01*
X142355Y-353353D01*
X142339Y-353280D01*
X142324Y-353207D01*
X142309Y-353135D01*
X142295Y-353062D01*
X142280Y-352990D01*
X142266Y-352917D01*
X142253Y-352844D01*
X142239Y-352771D01*
X142226Y-352699D01*
X142214Y-352626D01*
X142201Y-352553D01*
X142189Y-352481D01*
X142177Y-352408D01*
X142166Y-352335D01*
X142154Y-352262D01*
X142143Y-352189D01*
X142133Y-352117D01*
X142122Y-352044D01*
X142112Y-351971D01*
X142103Y-351898D01*
X142093Y-351825D01*
X142084Y-351752D01*
X142075Y-351679D01*
X142066Y-351606D01*
X142058Y-351533D01*
X142050Y-351460D01*
X142042Y-351386D01*
X142035Y-351313D01*
X142028Y-351240D01*
X142021Y-351167D01*
X142015Y-351093D01*
X141846Y-349165D01*
X142159Y-347438D01*
X142473Y-345710D01*
X143342Y-344095D01*
X144211Y-342480D01*
X145269Y-341362D01*
X145322Y-341307D01*
X145383Y-341246D01*
X145451Y-341180D01*
X145526Y-341109D01*
X145607Y-341033D01*
X145695Y-340953D01*
X145789Y-340868D01*
X145888Y-340778D01*
X145993Y-340685D01*
X146103Y-340588D01*
X146219Y-340488D01*
X146339Y-340384D01*
X146464Y-340277D01*
X146593Y-340166D01*
X146726Y-340053D01*
X146863Y-339937D01*
X147003Y-339819D01*
X147147Y-339699D01*
X147293Y-339577D01*
X147443Y-339453D01*
X147595Y-339327D01*
X147749Y-339200D01*
X147905Y-339072D01*
X148063Y-338942D01*
X148223Y-338812D01*
X148384Y-338682D01*
X148545Y-338550D01*
X148708Y-338419D01*
X148871Y-338288D01*
X149034Y-338157D01*
X149197Y-338026D01*
X149360Y-337896D01*
X149523Y-337767D01*
X149684Y-337639D01*
X149845Y-337512D01*
X150004Y-337387D01*
X150162Y-337263D01*
X150318Y-337141D01*
X150472Y-337021D01*
X150624Y-336903D01*
X150773Y-336788D01*
X150919Y-336675D01*
X151062Y-336565D01*
X151202Y-336458D01*
X151339Y-336355D01*
X151471Y-336255D01*
X151600Y-336158D01*
X151724Y-336066D01*
X151843Y-335977D01*
X151958Y-335893D01*
X152068Y-335813D01*
X152172Y-335738D01*
X152271Y-335667D01*
X152364Y-335602D01*
X152450Y-335542D01*
X152531Y-335487D01*
X152605Y-335438D01*
X152672Y-335396D01*
X152732Y-335359D01*
X152784Y-335328D01*
X152829Y-335304D01*
X152866Y-335286D01*
X152895Y-335275D01*
X152915Y-335272D01*
X152961Y-335294D01*
D02*
G37*
G36*
X168525Y-353616D02*
X168525Y-353694D01*
X168524Y-353778D01*
X168522Y-353869D01*
X168520Y-353965D01*
X168517Y-354068D01*
X168513Y-354175D01*
X168509Y-354288D01*
X168504Y-354406D01*
X168499Y-354528D01*
X168493Y-354655D01*
X168486Y-354785D01*
X168479Y-354920D01*
X168472Y-355057D01*
X168464Y-355198D01*
X168456Y-355342D01*
X168447Y-355488D01*
X168437Y-355637D01*
X168428Y-355788D01*
X168417Y-355940D01*
X168407Y-356094D01*
X168396Y-356250D01*
X168385Y-356406D01*
X168373Y-356563D01*
X168361Y-356720D01*
X168349Y-356878D01*
X168337Y-357035D01*
X168324Y-357192D01*
X168311Y-357348D01*
X168298Y-357503D01*
X168285Y-357657D01*
X168271Y-357809D01*
X168257Y-357959D01*
X167989Y-360856D01*
X167479Y-362471D01*
X166970Y-364085D01*
X166743Y-363955D01*
X166675Y-363907D01*
X166608Y-363842D01*
X166541Y-363760D01*
X166475Y-363662D01*
X166410Y-363547D01*
X166345Y-363415D01*
X166281Y-363268D01*
X166218Y-363105D01*
X166156Y-362926D01*
X166094Y-362732D01*
X166033Y-362523D01*
X165974Y-362299D01*
X165915Y-362060D01*
X165858Y-361808D01*
X165801Y-361541D01*
X165746Y-361260D01*
X165692Y-360966D01*
X165639Y-360659D01*
X165588Y-360338D01*
X165538Y-360004D01*
X165489Y-359658D01*
X165442Y-359299D01*
X165396Y-358929D01*
X165352Y-358546D01*
X165309Y-358152D01*
X165268Y-357746D01*
X165228Y-357329D01*
X165191Y-356901D01*
X165155Y-356462D01*
X165120Y-356013D01*
X165088Y-355554D01*
X165058Y-355084D01*
X164876Y-352169D01*
X168525D01*
Y-353616D01*
D02*
G37*
G36*
X162451Y-355979D02*
X162598Y-360142D01*
X163253Y-363148D01*
X163270Y-363226D01*
X163287Y-363303D01*
X163304Y-363380D01*
X163321Y-363457D01*
X163338Y-363535D01*
X163355Y-363612D01*
X163372Y-363688D01*
X163390Y-363765D01*
X163407Y-363841D01*
X163424Y-363917D01*
X163441Y-363992D01*
X163459Y-364068D01*
X163476Y-364142D01*
X163493Y-364217D01*
X163510Y-364291D01*
X163527Y-364365D01*
X163544Y-364438D01*
X163561Y-364510D01*
X163578Y-364582D01*
X163595Y-364653D01*
X163612Y-364724D01*
X163629Y-364794D01*
X163646Y-364864D01*
X163662Y-364933D01*
X163679Y-365001D01*
X163695Y-365068D01*
X163711Y-365135D01*
X163727Y-365200D01*
X163743Y-365265D01*
X163759Y-365329D01*
X163775Y-365392D01*
X163791Y-365454D01*
X163806Y-365515D01*
X163821Y-365576D01*
X163836Y-365635D01*
X163851Y-365693D01*
X163866Y-365750D01*
X163880Y-365806D01*
X163894Y-365861D01*
X163908Y-365914D01*
X163922Y-365967D01*
X163936Y-366018D01*
X163949Y-366068D01*
X163962Y-366117D01*
X163975Y-366164D01*
X163988Y-366210D01*
X164000Y-366255D01*
X164012Y-366298D01*
X164024Y-366340D01*
X164036Y-366381D01*
X164047Y-366419D01*
X164058Y-366457D01*
X164068Y-366493D01*
X164079Y-366527D01*
X164089Y-366560D01*
X164098Y-366591D01*
X164108Y-366620D01*
X164117Y-366648D01*
X164125Y-366674D01*
X164134Y-366698D01*
X164141Y-366721D01*
X164149Y-366741D01*
X164156Y-366760D01*
X164163Y-366777D01*
X164418Y-367401D01*
X164129D01*
X164051Y-367381D01*
X163939Y-367325D01*
X163800Y-367237D01*
X163638Y-367121D01*
X163458Y-366980D01*
X163266Y-366818D01*
X163067Y-366639D01*
X162865Y-366448D01*
X161891Y-365496D01*
X161476Y-364247D01*
X161061Y-362998D01*
X160924Y-360975D01*
X160786Y-358952D01*
X161206Y-356296D01*
X161217Y-356227D01*
X161228Y-356158D01*
X161239Y-356089D01*
X161251Y-356020D01*
X161262Y-355951D01*
X161274Y-355882D01*
X161285Y-355813D01*
X161297Y-355744D01*
X161309Y-355674D01*
X161321Y-355605D01*
X161334Y-355536D01*
X161346Y-355467D01*
X161358Y-355398D01*
X161371Y-355329D01*
X161383Y-355261D01*
X161396Y-355192D01*
X161409Y-355124D01*
X161421Y-355057D01*
X161434Y-354989D01*
X161447Y-354922D01*
X161460Y-354855D01*
X161473Y-354789D01*
X161486Y-354723D01*
X161499Y-354657D01*
X161512Y-354592D01*
X161525Y-354527D01*
X161538Y-354463D01*
X161551Y-354400D01*
X161564Y-354337D01*
X161577Y-354275D01*
X161590Y-354213D01*
X161602Y-354152D01*
X161615Y-354092D01*
X161628Y-354032D01*
X161641Y-353973D01*
X161654Y-353915D01*
X161667Y-353858D01*
X161679Y-353802D01*
X161692Y-353747D01*
X161704Y-353692D01*
X161717Y-353638D01*
X161729Y-353586D01*
X161741Y-353534D01*
X161753Y-353483D01*
X161765Y-353434D01*
X161777Y-353385D01*
X161789Y-353338D01*
X161801Y-353291D01*
X161812Y-353246D01*
X161824Y-353202D01*
X161835Y-353160D01*
X161846Y-353118D01*
X161857Y-353078D01*
X161868Y-353039D01*
X161878Y-353001D01*
X161889Y-352965D01*
X161899Y-352930D01*
X161909Y-352897D01*
X161919Y-352865D01*
X161929Y-352835D01*
X161938Y-352805D01*
X161948Y-352778D01*
X161957Y-352752D01*
X161966Y-352728D01*
X162305Y-351816D01*
X162451Y-355979D01*
D02*
G37*
G36*
X171680Y-353240D02*
X171705Y-353329D01*
X171730Y-353424D01*
X171755Y-353523D01*
X171781Y-353628D01*
X171808Y-353738D01*
X171835Y-353852D01*
X171862Y-353971D01*
X171889Y-354094D01*
X171917Y-354220D01*
X171945Y-354350D01*
X171973Y-354483D01*
X172002Y-354619D01*
X172030Y-354757D01*
X172058Y-354898D01*
X172086Y-355041D01*
X172114Y-355186D01*
X172142Y-355332D01*
X172169Y-355480D01*
X172196Y-355628D01*
X172223Y-355777D01*
X172250Y-355927D01*
X172276Y-356077D01*
X172301Y-356227D01*
X172327Y-356376D01*
X172351Y-356525D01*
X172375Y-356673D01*
X172398Y-356819D01*
X172420Y-356964D01*
X172441Y-357107D01*
X172462Y-357249D01*
X172482Y-357388D01*
X172500Y-357524D01*
X172853Y-360142D01*
X172580Y-361808D01*
X172565Y-361895D01*
X172549Y-361984D01*
X172533Y-362075D01*
X172515Y-362168D01*
X172496Y-362262D01*
X172477Y-362357D01*
X172456Y-362454D01*
X172435Y-362552D01*
X172413Y-362650D01*
X172390Y-362749D01*
X172367Y-362849D01*
X172343Y-362948D01*
X172318Y-363048D01*
X172293Y-363148D01*
X172268Y-363247D01*
X172242Y-363346D01*
X172216Y-363444D01*
X172189Y-363541D01*
X172162Y-363637D01*
X172135Y-363732D01*
X172108Y-363826D01*
X172081Y-363917D01*
X172054Y-364007D01*
X172026Y-364095D01*
X171999Y-364181D01*
X171972Y-364264D01*
X171944Y-364345D01*
X171918Y-364423D01*
X171891Y-364499D01*
X171864Y-364571D01*
X171838Y-364639D01*
X171813Y-364705D01*
X171319Y-365936D01*
X170283Y-366806D01*
X170230Y-366850D01*
X170177Y-366894D01*
X170125Y-366937D01*
X170073Y-366979D01*
X170022Y-367020D01*
X169972Y-367060D01*
X169923Y-367099D01*
X169874Y-367137D01*
X169826Y-367174D01*
X169780Y-367210D01*
X169735Y-367244D01*
X169690Y-367277D01*
X169647Y-367309D01*
X169605Y-367339D01*
X169565Y-367369D01*
X169526Y-367396D01*
X169489Y-367422D01*
X169453Y-367447D01*
X169419Y-367469D01*
X169386Y-367491D01*
X169356Y-367510D01*
X169327Y-367528D01*
X169300Y-367543D01*
X169276Y-367557D01*
X169253Y-367569D01*
X169233Y-367579D01*
X169215Y-367587D01*
X169199Y-367593D01*
X169185Y-367597D01*
X169174Y-367598D01*
X169166Y-367597D01*
X169160Y-367594D01*
X169153Y-367544D01*
X169165Y-367431D01*
X169196Y-367264D01*
X169244Y-367048D01*
X169307Y-366792D01*
X169383Y-366502D01*
X169471Y-366186D01*
X169569Y-365850D01*
X169595Y-365763D01*
X169622Y-365671D01*
X169649Y-365577D01*
X169677Y-365480D01*
X169706Y-365380D01*
X169735Y-365277D01*
X169764Y-365171D01*
X169794Y-365064D01*
X169825Y-364954D01*
X169855Y-364843D01*
X169886Y-364731D01*
X169917Y-364616D01*
X169948Y-364501D01*
X169979Y-364385D01*
X170010Y-364269D01*
X170042Y-364152D01*
X170072Y-364035D01*
X170103Y-363917D01*
X170134Y-363801D01*
X170164Y-363684D01*
X170194Y-363568D01*
X170223Y-363453D01*
X170252Y-363339D01*
X170280Y-363227D01*
X170308Y-363116D01*
X170335Y-363007D01*
X170362Y-362900D01*
X170387Y-362795D01*
X170412Y-362693D01*
X170436Y-362593D01*
X170459Y-362496D01*
X170481Y-362403D01*
X170897Y-360618D01*
X171054Y-356096D01*
X171213Y-351574D01*
X171680Y-353240D01*
D02*
G37*
G36*
X178331Y-344640D02*
X179820Y-346338D01*
X181078Y-348718D01*
X182336Y-351098D01*
X182888Y-353002D01*
X183440Y-354906D01*
X183468Y-358714D01*
X183497Y-362522D01*
X183146Y-363831D01*
X182795Y-365140D01*
X181895Y-366753D01*
X181849Y-366835D01*
X181803Y-366917D01*
X181757Y-366997D01*
X181712Y-367075D01*
X181667Y-367151D01*
X181623Y-367227D01*
X181579Y-367300D01*
X181537Y-367371D01*
X181495Y-367440D01*
X181454Y-367508D01*
X181413Y-367573D01*
X181374Y-367635D01*
X181335Y-367696D01*
X181298Y-367754D01*
X181262Y-367809D01*
X181227Y-367862D01*
X181193Y-367912D01*
X181161Y-367959D01*
X181130Y-368003D01*
X181100Y-368044D01*
X181072Y-368082D01*
X181046Y-368117D01*
X181021Y-368148D01*
X180999Y-368176D01*
X180977Y-368200D01*
X180958Y-368221D01*
X180941Y-368238D01*
X180925Y-368251D01*
X180912Y-368260D01*
X180901Y-368266D01*
X180892Y-368267D01*
X180885Y-368264D01*
X180868Y-368215D01*
X180864Y-368115D01*
X180870Y-367971D01*
X180887Y-367787D01*
X180914Y-367571D01*
X180951Y-367328D01*
X180996Y-367064D01*
X181048Y-366785D01*
X181062Y-366713D01*
X181076Y-366637D01*
X181090Y-366559D01*
X181103Y-366479D01*
X181116Y-366396D01*
X181129Y-366311D01*
X181142Y-366223D01*
X181154Y-366134D01*
X181167Y-366044D01*
X181178Y-365952D01*
X181190Y-365859D01*
X181201Y-365764D01*
X181212Y-365669D01*
X181222Y-365573D01*
X181232Y-365476D01*
X181241Y-365380D01*
X181250Y-365283D01*
X181259Y-365186D01*
X181267Y-365089D01*
X181275Y-364992D01*
X181282Y-364897D01*
X181289Y-364802D01*
X181295Y-364707D01*
X181300Y-364614D01*
X181305Y-364523D01*
X181309Y-364432D01*
X181313Y-364344D01*
X181316Y-364257D01*
X181319Y-364172D01*
X181320Y-364090D01*
X181321Y-364010D01*
X181322Y-363932D01*
Y-362456D01*
X180917Y-360466D01*
X180512Y-358476D01*
X179603Y-356215D01*
X179578Y-356154D01*
X179554Y-356094D01*
X179530Y-356034D01*
X179506Y-355975D01*
X179482Y-355916D01*
X179458Y-355857D01*
X179434Y-355799D01*
X179410Y-355741D01*
X179386Y-355684D01*
X179362Y-355627D01*
X179338Y-355570D01*
X179315Y-355514D01*
X179291Y-355458D01*
X179267Y-355402D01*
X179244Y-355347D01*
X179220Y-355292D01*
X179197Y-355237D01*
X179173Y-355182D01*
X179150Y-355128D01*
X179126Y-355074D01*
X179103Y-355021D01*
X179079Y-354967D01*
X179056Y-354914D01*
X179032Y-354862D01*
X179008Y-354809D01*
X178985Y-354757D01*
X178961Y-354704D01*
X178938Y-354653D01*
X178914Y-354601D01*
X178890Y-354549D01*
X178867Y-354498D01*
X178843Y-354447D01*
X178819Y-354396D01*
X178795Y-354345D01*
X178771Y-354294D01*
X178747Y-354244D01*
X178723Y-354194D01*
X178699Y-354144D01*
X178674Y-354093D01*
X178650Y-354043D01*
X178625Y-353994D01*
X178601Y-353944D01*
X178576Y-353894D01*
X178551Y-353844D01*
X178526Y-353795D01*
X178501Y-353746D01*
X178476Y-353696D01*
X178451Y-353647D01*
X178426Y-353597D01*
X178400Y-353548D01*
X178375Y-353499D01*
X178349Y-353450D01*
X178323Y-353400D01*
X178297Y-353351D01*
X178270Y-353302D01*
X178244Y-353253D01*
X178217Y-353203D01*
X178191Y-353154D01*
X178164Y-353105D01*
X178137Y-353055D01*
X178109Y-353006D01*
X178082Y-352956D01*
X178054Y-352907D01*
X178026Y-352857D01*
X177998Y-352807D01*
X177970Y-352757D01*
X177941Y-352707D01*
X177913Y-352657D01*
X177884Y-352607D01*
X177854Y-352556D01*
X177825Y-352506D01*
X177795Y-352455D01*
X177765Y-352404D01*
X177735Y-352353D01*
X177705Y-352302D01*
X177674Y-352251D01*
X177643Y-352199D01*
X177612Y-352147D01*
X177580Y-352095D01*
X177549Y-352043D01*
X177517Y-351991D01*
X177485Y-351938D01*
X177452Y-351885D01*
X177419Y-351832D01*
X177386Y-351779D01*
X177352Y-351725D01*
X177319Y-351671D01*
X177284Y-351617D01*
X177250Y-351562D01*
X177215Y-351507D01*
X177180Y-351452D01*
X177145Y-351396D01*
X177109Y-351341D01*
X177073Y-351285D01*
X177036Y-351228D01*
X176999Y-351171D01*
X176962Y-351114D01*
X176925Y-351056D01*
X176887Y-350998D01*
X176849Y-350940D01*
X176810Y-350881D01*
X176771Y-350822D01*
X176732Y-350763D01*
X176692Y-350703D01*
X176652Y-350642D01*
X176611Y-350581D01*
X176570Y-350520D01*
X176529Y-350458D01*
X176487Y-350396D01*
X176445Y-350334D01*
X176402Y-350270D01*
X176359Y-350207D01*
X176316Y-350143D01*
X176272Y-350078D01*
X176227Y-350013D01*
X176182Y-349947D01*
X176137Y-349881D01*
X176092Y-349814D01*
X176045Y-349747D01*
X175999Y-349679D01*
X175952Y-349611D01*
X175904Y-349542D01*
X175856Y-349472D01*
X175807Y-349402D01*
X175758Y-349332D01*
X175709Y-349260D01*
X175659Y-349188D01*
X175608Y-349116D01*
X174061Y-346895D01*
X174881Y-346298D01*
X175701Y-345702D01*
X176080Y-345020D01*
X176119Y-344948D01*
X176156Y-344871D01*
X176193Y-344792D01*
X176227Y-344709D01*
X176260Y-344624D01*
X176292Y-344539D01*
X176321Y-344452D01*
X176348Y-344365D01*
X176372Y-344279D01*
X176394Y-344194D01*
X176413Y-344111D01*
X176429Y-344030D01*
X176442Y-343953D01*
X176451Y-343879D01*
X176457Y-343810D01*
X176459Y-343746D01*
X176460Y-343685D01*
X176463Y-343625D01*
X176468Y-343566D01*
X176474Y-343508D01*
X176482Y-343452D01*
X176492Y-343397D01*
X176503Y-343346D01*
X176515Y-343297D01*
X176529Y-343251D01*
X176544Y-343208D01*
X176560Y-343170D01*
X176576Y-343135D01*
X176594Y-343106D01*
X176612Y-343081D01*
X176631Y-343061D01*
X176651Y-343047D01*
X176843Y-342941D01*
X178331Y-344640D01*
D02*
G37*
G36*
X173811Y-349331D02*
X173868Y-349384D01*
X173943Y-349466D01*
X174033Y-349575D01*
X174136Y-349708D01*
X174248Y-349859D01*
X174367Y-350026D01*
X174489Y-350206D01*
X174520Y-350254D01*
X174554Y-350305D01*
X174590Y-350359D01*
X174627Y-350417D01*
X174667Y-350478D01*
X174707Y-350541D01*
X174750Y-350608D01*
X174794Y-350676D01*
X174839Y-350748D01*
X174885Y-350821D01*
X174933Y-350897D01*
X174981Y-350974D01*
X175031Y-351053D01*
X175081Y-351133D01*
X175132Y-351215D01*
X175184Y-351299D01*
X175236Y-351383D01*
X175289Y-351468D01*
X175342Y-351554D01*
X175396Y-351641D01*
X175449Y-351728D01*
X175503Y-351816D01*
X175557Y-351904D01*
X175610Y-351991D01*
X175663Y-352079D01*
X175716Y-352166D01*
X175768Y-352252D01*
X175820Y-352338D01*
X175872Y-352424D01*
X175922Y-352508D01*
X175972Y-352591D01*
X176021Y-352673D01*
X176958Y-354248D01*
X177755Y-356461D01*
X178552Y-358674D01*
X178687Y-360836D01*
X178821Y-362998D01*
X178285Y-365078D01*
X177749Y-367159D01*
X177119Y-368291D01*
X177085Y-368350D01*
X177051Y-368410D01*
X177016Y-368471D01*
X176979Y-368533D01*
X176942Y-368596D01*
X176903Y-368659D01*
X176864Y-368723D01*
X176824Y-368787D01*
X176783Y-368852D01*
X176742Y-368916D01*
X176700Y-368981D01*
X176658Y-369046D01*
X176616Y-369110D01*
X176573Y-369174D01*
X176530Y-369238D01*
X176488Y-369301D01*
X176445Y-369363D01*
X176402Y-369425D01*
X176359Y-369485D01*
X176317Y-369545D01*
X176275Y-369603D01*
X176233Y-369661D01*
X176192Y-369717D01*
X176151Y-369771D01*
X176111Y-369824D01*
X176072Y-369875D01*
X176033Y-369924D01*
X175996Y-369971D01*
X175959Y-370016D01*
X175923Y-370059D01*
X175889Y-370099D01*
X175856Y-370137D01*
X175224Y-370851D01*
X175361Y-368472D01*
X175498Y-366092D01*
X175200Y-362315D01*
X174903Y-358538D01*
X174530Y-356724D01*
X174510Y-356628D01*
X174489Y-356528D01*
X174466Y-356425D01*
X174442Y-356317D01*
X174417Y-356206D01*
X174390Y-356092D01*
X174363Y-355975D01*
X174334Y-355855D01*
X174305Y-355733D01*
X174274Y-355609D01*
X174243Y-355482D01*
X174211Y-355354D01*
X174178Y-355225D01*
X174145Y-355094D01*
X174111Y-354962D01*
X174077Y-354830D01*
X174042Y-354697D01*
X174007Y-354564D01*
X173971Y-354432D01*
X173935Y-354299D01*
X173900Y-354167D01*
X173863Y-354036D01*
X173827Y-353906D01*
X173791Y-353777D01*
X173755Y-353649D01*
X173720Y-353524D01*
X173684Y-353401D01*
X173649Y-353280D01*
X173614Y-353161D01*
X173579Y-353045D01*
X173545Y-352933D01*
X173511Y-352823D01*
X172865Y-350737D01*
X173261Y-350025D01*
X173302Y-349953D01*
X173343Y-349882D01*
X173384Y-349814D01*
X173424Y-349749D01*
X173464Y-349687D01*
X173502Y-349628D01*
X173540Y-349573D01*
X173575Y-349522D01*
X173609Y-349476D01*
X173641Y-349435D01*
X173671Y-349399D01*
X173698Y-349369D01*
X173722Y-349345D01*
X173743Y-349328D01*
X173761Y-349317D01*
X173775Y-349313D01*
X173811Y-349331D01*
D02*
G37*
G36*
X186687Y-372562D02*
X187304Y-372964D01*
X187405Y-372681D01*
X187507Y-372398D01*
X188744D01*
Y-375254D01*
Y-378110D01*
X187208D01*
Y-376133D01*
Y-374155D01*
X186874Y-373730D01*
X186540Y-373305D01*
X185914Y-373387D01*
X185289Y-373469D01*
X185161Y-375730D01*
X185033Y-377991D01*
X184201Y-378066D01*
X183369Y-378140D01*
Y-376148D01*
Y-374155D01*
X183035Y-373730D01*
X182701Y-373305D01*
X182075Y-373387D01*
X181450Y-373469D01*
X181376Y-375790D01*
X181303Y-378110D01*
X179530D01*
Y-376123D01*
Y-374135D01*
X179813Y-373381D01*
X180096Y-372626D01*
X180564Y-372393D01*
X180615Y-372370D01*
X180671Y-372347D01*
X180731Y-372324D01*
X180795Y-372303D01*
X180863Y-372283D01*
X180933Y-372263D01*
X181005Y-372246D01*
X181079Y-372229D01*
X181154Y-372214D01*
X181229Y-372200D01*
X181305Y-372189D01*
X181379Y-372179D01*
X181453Y-372171D01*
X181525Y-372165D01*
X181594Y-372162D01*
X181660Y-372160D01*
X182289D01*
X182887Y-372611D01*
X183486Y-373062D01*
X184102Y-372611D01*
X184718Y-372160D01*
X186071D01*
X186687Y-372562D01*
D02*
G37*
G36*
X168598Y-372568D02*
X169037Y-372976D01*
Y-372687D01*
Y-372398D01*
X170573D01*
Y-375254D01*
Y-378110D01*
X169037D01*
Y-376460D01*
Y-374809D01*
X168788Y-374199D01*
X168538Y-373588D01*
X167024D01*
X166863Y-373115D01*
X166701Y-372641D01*
X166860Y-372401D01*
X167020Y-372160D01*
X168160D01*
X168598Y-372568D01*
D02*
G37*
G36*
X175231Y-372169D02*
X176075Y-372177D01*
X176666Y-372482D01*
X176729Y-372517D01*
X176795Y-372558D01*
X176864Y-372604D01*
X176935Y-372656D01*
X177008Y-372712D01*
X177081Y-372772D01*
X177155Y-372836D01*
X177229Y-372903D01*
X177303Y-372972D01*
X177375Y-373044D01*
X177445Y-373116D01*
X177514Y-373190D01*
X177579Y-373265D01*
X177641Y-373339D01*
X177699Y-373413D01*
X177752Y-373485D01*
X178247Y-374183D01*
X178245Y-375135D01*
X178243Y-376087D01*
X177927Y-376659D01*
X177891Y-376720D01*
X177850Y-376783D01*
X177804Y-376849D01*
X177752Y-376917D01*
X177697Y-376986D01*
X177638Y-377056D01*
X177576Y-377127D01*
X177510Y-377197D01*
X177443Y-377266D01*
X177374Y-377334D01*
X177304Y-377400D01*
X177234Y-377464D01*
X177163Y-377525D01*
X177092Y-377582D01*
X177022Y-377636D01*
X176953Y-377685D01*
X176296Y-378139D01*
X175270Y-378152D01*
X174245Y-378165D01*
X173412Y-377765D01*
X172580Y-377365D01*
X172216Y-376555D01*
X172179Y-376469D01*
X172143Y-376379D01*
X172108Y-376285D01*
X172075Y-376189D01*
X172043Y-376090D01*
X172013Y-375990D01*
X171985Y-375889D01*
X171959Y-375789D01*
X171936Y-375690D01*
X171915Y-375592D01*
X171897Y-375497D01*
X171882Y-375405D01*
X171870Y-375316D01*
X171861Y-375233D01*
X171855Y-375155D01*
X171853Y-375083D01*
X171854Y-374421D01*
X172354Y-373659D01*
X172853Y-372897D01*
X173620Y-372529D01*
X174386Y-372160D01*
X175231Y-372169D01*
D02*
G37*
G36*
X157132Y-344011D02*
X157315Y-345146D01*
X158340Y-346026D01*
X159365Y-346905D01*
X159274Y-347098D01*
X159226Y-347179D01*
X159124Y-347335D01*
X158974Y-347557D01*
X158783Y-347837D01*
X158556Y-348165D01*
X158301Y-348532D01*
X158024Y-348928D01*
X157730Y-349344D01*
X157692Y-349398D01*
X157654Y-349452D01*
X157616Y-349507D01*
X157577Y-349563D01*
X157537Y-349620D01*
X157498Y-349678D01*
X157458Y-349736D01*
X157417Y-349795D01*
X157377Y-349855D01*
X157336Y-349916D01*
X157295Y-349977D01*
X157253Y-350038D01*
X157212Y-350100D01*
X157170Y-350163D01*
X157128Y-350226D01*
X157086Y-350290D01*
X157043Y-350354D01*
X157001Y-350419D01*
X156958Y-350484D01*
X156916Y-350549D01*
X156873Y-350615D01*
X156830Y-350681D01*
X156788Y-350747D01*
X156745Y-350813D01*
X156702Y-350880D01*
X156659Y-350946D01*
X156617Y-351013D01*
X156574Y-351080D01*
X156532Y-351147D01*
X156489Y-351214D01*
X156447Y-351281D01*
X156405Y-351348D01*
X156363Y-351415D01*
X156322Y-351481D01*
X156280Y-351548D01*
X156239Y-351614D01*
X156198Y-351681D01*
X156157Y-351747D01*
X156117Y-351813D01*
X156077Y-351878D01*
X156037Y-351943D01*
X155997Y-352008D01*
X155958Y-352072D01*
X155920Y-352136D01*
X155881Y-352200D01*
X155843Y-352263D01*
X155806Y-352326D01*
X155769Y-352388D01*
X155733Y-352449D01*
X155697Y-352510D01*
X155662Y-352570D01*
X155627Y-352630D01*
X155593Y-352689D01*
X155559Y-352747D01*
X155526Y-352804D01*
X155494Y-352861D01*
X155462Y-352916D01*
X155431Y-352971D01*
X155400Y-353025D01*
X155371Y-353078D01*
X155342Y-353130D01*
X155314Y-353182D01*
X155286Y-353232D01*
X155259Y-353281D01*
X154242Y-355163D01*
X153456Y-357534D01*
X153436Y-357595D01*
X153415Y-357658D01*
X153395Y-357721D01*
X153374Y-357784D01*
X153354Y-357849D01*
X153333Y-357914D01*
X153313Y-357980D01*
X153292Y-358046D01*
X153272Y-358113D01*
X153251Y-358181D01*
X153230Y-358249D01*
X153210Y-358317D01*
X153189Y-358386D01*
X153169Y-358455D01*
X153148Y-358525D01*
X153128Y-358595D01*
X153108Y-358665D01*
X153087Y-358736D01*
X153067Y-358806D01*
X153047Y-358877D01*
X153027Y-358948D01*
X153007Y-359020D01*
X152987Y-359091D01*
X152967Y-359162D01*
X152948Y-359234D01*
X152928Y-359305D01*
X152909Y-359377D01*
X152890Y-359448D01*
X152871Y-359519D01*
X152852Y-359590D01*
X152833Y-359661D01*
X152815Y-359732D01*
X152797Y-359802D01*
X152779Y-359873D01*
X152761Y-359943D01*
X152743Y-360012D01*
X152726Y-360081D01*
X152709Y-360150D01*
X152692Y-360219D01*
X152675Y-360286D01*
X152659Y-360354D01*
X152643Y-360421D01*
X152627Y-360487D01*
X152612Y-360553D01*
X152597Y-360618D01*
X152582Y-360682D01*
X152567Y-360746D01*
X152553Y-360809D01*
X152539Y-360871D01*
X152526Y-360932D01*
X152513Y-360993D01*
X152500Y-361053D01*
X152487Y-361111D01*
X152475Y-361169D01*
X152463Y-361226D01*
X152452Y-361282D01*
X152441Y-361337D01*
X152431Y-361390D01*
X152421Y-361443D01*
X152411Y-361495D01*
X152402Y-361545D01*
X152393Y-361594D01*
X152385Y-361642D01*
X152377Y-361689D01*
X152084Y-363474D01*
X152241Y-365211D01*
X152398Y-366948D01*
X152665Y-367412D01*
X152932Y-367877D01*
X154458D01*
X154536Y-367876D01*
X154614Y-367876D01*
X154690Y-367875D01*
X154765Y-367874D01*
X154839Y-367873D01*
X154911Y-367871D01*
X154982Y-367869D01*
X155051Y-367867D01*
X155119Y-367864D01*
X155184Y-367862D01*
X155248Y-367859D01*
X155310Y-367856D01*
X155370Y-367852D01*
X155428Y-367849D01*
X155483Y-367845D01*
X155536Y-367841D01*
X155587Y-367836D01*
X155635Y-367832D01*
X155681Y-367828D01*
X155723Y-367823D01*
X155763Y-367818D01*
X155800Y-367813D01*
X155834Y-367807D01*
X155865Y-367802D01*
X155892Y-367796D01*
X155916Y-367791D01*
X155937Y-367785D01*
X155954Y-367779D01*
X155967Y-367773D01*
X155977Y-367767D01*
X155983Y-367761D01*
X155985Y-367755D01*
X155974Y-367695D01*
X155945Y-367572D01*
X155897Y-367392D01*
X155834Y-367164D01*
X155759Y-366894D01*
X155672Y-366591D01*
X155576Y-366262D01*
X155473Y-365915D01*
X154961Y-364197D01*
Y-361684D01*
Y-359171D01*
X155326Y-357868D01*
X155340Y-357818D01*
X155354Y-357768D01*
X155369Y-357718D01*
X155383Y-357668D01*
X155397Y-357618D01*
X155412Y-357569D01*
X155426Y-357520D01*
X155441Y-357470D01*
X155455Y-357421D01*
X155470Y-357373D01*
X155485Y-357324D01*
X155500Y-357276D01*
X155515Y-357227D01*
X155529Y-357179D01*
X155544Y-357131D01*
X155560Y-357083D01*
X155575Y-357035D01*
X155590Y-356987D01*
X155605Y-356940D01*
X155621Y-356892D01*
X155636Y-356845D01*
X155652Y-356798D01*
X155667Y-356751D01*
X155683Y-356704D01*
X155699Y-356657D01*
X155715Y-356610D01*
X155731Y-356563D01*
X155747Y-356517D01*
X155763Y-356470D01*
X155779Y-356424D01*
X155796Y-356378D01*
X155812Y-356331D01*
X155829Y-356285D01*
X155845Y-356239D01*
X155862Y-356193D01*
X155879Y-356147D01*
X155896Y-356101D01*
X155913Y-356056D01*
X155930Y-356010D01*
X155947Y-355964D01*
X155965Y-355919D01*
X155982Y-355873D01*
X156000Y-355828D01*
X156018Y-355782D01*
X156035Y-355737D01*
X156053Y-355691D01*
X156071Y-355646D01*
X156090Y-355601D01*
X156108Y-355556D01*
X156126Y-355510D01*
X156145Y-355465D01*
X156164Y-355420D01*
X156182Y-355375D01*
X156201Y-355329D01*
X156220Y-355284D01*
X156240Y-355239D01*
X156259Y-355194D01*
X156278Y-355149D01*
X156298Y-355104D01*
X156318Y-355059D01*
X156337Y-355013D01*
X156358Y-354968D01*
X156378Y-354923D01*
X156398Y-354878D01*
X156418Y-354833D01*
X156439Y-354788D01*
X156460Y-354742D01*
X156480Y-354697D01*
X156501Y-354652D01*
X156523Y-354606D01*
X156544Y-354561D01*
X156565Y-354516D01*
X156587Y-354470D01*
X156609Y-354425D01*
X156631Y-354379D01*
X156653Y-354333D01*
X156675Y-354288D01*
X156697Y-354242D01*
X156720Y-354196D01*
X156743Y-354150D01*
X156765Y-354104D01*
X156789Y-354059D01*
X156812Y-354012D01*
X156835Y-353966D01*
X156859Y-353920D01*
X156883Y-353874D01*
X156906Y-353827D01*
X156930Y-353781D01*
X156955Y-353734D01*
X156979Y-353687D01*
X157004Y-353641D01*
X157029Y-353594D01*
X157054Y-353547D01*
X157079Y-353500D01*
X157104Y-353452D01*
X157130Y-353405D01*
X157155Y-353358D01*
X157181Y-353310D01*
X157208Y-353262D01*
X157234Y-353214D01*
X157260Y-353166D01*
X157287Y-353118D01*
X157314Y-353070D01*
X157341Y-353022D01*
X157368Y-352973D01*
X157396Y-352924D01*
X157423Y-352875D01*
X157451Y-352826D01*
X157479Y-352777D01*
X157508Y-352728D01*
X157536Y-352679D01*
X157565Y-352629D01*
X157594Y-352579D01*
X157623Y-352529D01*
X157652Y-352479D01*
X157682Y-352429D01*
X157712Y-352378D01*
X157742Y-352327D01*
X157772Y-352276D01*
X157802Y-352225D01*
X157833Y-352174D01*
X157864Y-352123D01*
X157895Y-352071D01*
X157926Y-352019D01*
X157958Y-351967D01*
X157990Y-351915D01*
X158022Y-351862D01*
X158054Y-351809D01*
X158088Y-351754D01*
X158121Y-351699D01*
X158155Y-351645D01*
X158188Y-351590D01*
X158222Y-351536D01*
X158255Y-351482D01*
X158288Y-351429D01*
X158321Y-351376D01*
X158354Y-351323D01*
X158387Y-351270D01*
X158419Y-351218D01*
X158452Y-351166D01*
X158484Y-351114D01*
X158516Y-351063D01*
X158547Y-351013D01*
X158579Y-350963D01*
X158610Y-350913D01*
X158641Y-350864D01*
X158672Y-350815D01*
X158702Y-350767D01*
X158732Y-350720D01*
X158762Y-350673D01*
X158791Y-350626D01*
X158820Y-350581D01*
X158849Y-350535D01*
X158878Y-350491D01*
X158906Y-350447D01*
X158933Y-350404D01*
X158960Y-350361D01*
X158987Y-350320D01*
X159014Y-350279D01*
X159040Y-350239D01*
X159065Y-350199D01*
X159090Y-350161D01*
X159115Y-350123D01*
X159139Y-350086D01*
X159163Y-350050D01*
X159186Y-350014D01*
X159209Y-349980D01*
X159231Y-349947D01*
X159252Y-349914D01*
X159273Y-349883D01*
X159293Y-349852D01*
X159313Y-349822D01*
X159333Y-349794D01*
X159351Y-349766D01*
X159369Y-349740D01*
X159387Y-349714D01*
X159404Y-349690D01*
X159420Y-349667D01*
X159435Y-349644D01*
X159450Y-349623D01*
X159464Y-349604D01*
X159477Y-349585D01*
X159490Y-349567D01*
X159502Y-349551D01*
X159513Y-349536D01*
X159524Y-349522D01*
X159533Y-349510D01*
X159542Y-349498D01*
X159550Y-349488D01*
X159558Y-349480D01*
X159564Y-349472D01*
X159570Y-349466D01*
X159776Y-349262D01*
X160209Y-349876D01*
X160642Y-350491D01*
X159847Y-353412D01*
X159824Y-353498D01*
X159801Y-353582D01*
X159778Y-353667D01*
X159756Y-353751D01*
X159733Y-353836D01*
X159711Y-353920D01*
X159689Y-354004D01*
X159667Y-354088D01*
X159646Y-354171D01*
X159624Y-354255D01*
X159603Y-354338D01*
X159582Y-354421D01*
X159561Y-354504D01*
X159540Y-354588D01*
X159520Y-354670D01*
X159500Y-354753D01*
X159479Y-354836D01*
X159459Y-354918D01*
X159440Y-355000D01*
X159420Y-355083D01*
X159400Y-355165D01*
X159381Y-355247D01*
X159362Y-355329D01*
X159343Y-355411D01*
X159324Y-355492D01*
X159306Y-355574D01*
X159287Y-355656D01*
X159269Y-355737D01*
X159251Y-355819D01*
X159233Y-355901D01*
X159215Y-355982D01*
X159197Y-356063D01*
X159180Y-356144D01*
X159162Y-356226D01*
X159145Y-356307D01*
X159128Y-356388D01*
X159111Y-356469D01*
X159095Y-356551D01*
X159078Y-356632D01*
X159062Y-356713D01*
X159046Y-356794D01*
X159030Y-356875D01*
X159014Y-356956D01*
X158998Y-357037D01*
X158983Y-357118D01*
X158967Y-357200D01*
X158952Y-357281D01*
X158937Y-357362D01*
X158922Y-357443D01*
X158907Y-357524D01*
X158892Y-357606D01*
X158878Y-357687D01*
X158863Y-357768D01*
X158849Y-357850D01*
X158835Y-357931D01*
X158821Y-358013D01*
X158808Y-358094D01*
X158794Y-358176D01*
X158781Y-358258D01*
X158767Y-358339D01*
X158754Y-358421D01*
X158741Y-358503D01*
X158728Y-358585D01*
X158715Y-358667D01*
X158703Y-358750D01*
X158690Y-358832D01*
X158678Y-358914D01*
X158666Y-358997D01*
X158654Y-359080D01*
X158642Y-359163D01*
X158630Y-359246D01*
X158618Y-359329D01*
X158607Y-359412D01*
X158596Y-359495D01*
X158584Y-359579D01*
X158573Y-359663D01*
X158562Y-359746D01*
X158551Y-359830D01*
X158541Y-359914D01*
X158530Y-359999D01*
X158520Y-360083D01*
X158509Y-360168D01*
X158499Y-360253D01*
X158489Y-360338D01*
X158479Y-360423D01*
X158469Y-360508D01*
X158460Y-360594D01*
X158450Y-360680D01*
X158441Y-360766D01*
X158431Y-360852D01*
X158422Y-360939D01*
X158413Y-361025D01*
X158404Y-361112D01*
X158395Y-361199D01*
X158387Y-361287D01*
X158378Y-361374D01*
X158370Y-361462D01*
X158361Y-361551D01*
X158353Y-361639D01*
X158345Y-361728D01*
X158337Y-361817D01*
X158329Y-361906D01*
X158321Y-361995D01*
X158314Y-362085D01*
X158306Y-362175D01*
X158299Y-362265D01*
X158291Y-362356D01*
X158284Y-362447D01*
X158277Y-362538D01*
X158270Y-362630D01*
X158263Y-362721D01*
X158257Y-362813D01*
X158250Y-362906D01*
X158243Y-362999D01*
X158237Y-363092D01*
X158231Y-363185D01*
X158224Y-363279D01*
X158218Y-363373D01*
X158212Y-363468D01*
X158206Y-363562D01*
X158201Y-363658D01*
X158195Y-363753D01*
X158189Y-363849D01*
X158184Y-363945D01*
X158178Y-364042D01*
X158173Y-364139D01*
X158168Y-364236D01*
X158163Y-364334D01*
X157995Y-367574D01*
X158446Y-367735D01*
X158897Y-367896D01*
X162143Y-367854D01*
X165390Y-367811D01*
X165678Y-367977D01*
X165966Y-368143D01*
Y-374189D01*
Y-380235D01*
X165471Y-380482D01*
X164976Y-380728D01*
X141177D01*
X140775Y-380354D01*
X140373Y-379980D01*
Y-374214D01*
Y-368448D01*
X140680Y-368162D01*
X140987Y-367877D01*
X151950D01*
X151799Y-367460D01*
X151780Y-367407D01*
X151753Y-367334D01*
X151719Y-367242D01*
X151679Y-367133D01*
X151632Y-367009D01*
X151581Y-366869D01*
X151524Y-366717D01*
X151462Y-366552D01*
X151396Y-366376D01*
X151327Y-366191D01*
X151255Y-365998D01*
X151180Y-365798D01*
X151102Y-365592D01*
X151023Y-365382D01*
X150943Y-365168D01*
X150862Y-364953D01*
X150076Y-362863D01*
X149928Y-360550D01*
X149781Y-358238D01*
X150072Y-356047D01*
X150362Y-353856D01*
X151139Y-351646D01*
X151916Y-349435D01*
X152838Y-347887D01*
X152881Y-347816D01*
X152925Y-347744D01*
X152971Y-347670D01*
X153018Y-347595D01*
X153067Y-347518D01*
X153118Y-347440D01*
X153170Y-347360D01*
X153223Y-347280D01*
X153278Y-347198D01*
X153334Y-347115D01*
X153391Y-347031D01*
X153449Y-346947D01*
X153508Y-346861D01*
X153569Y-346775D01*
X153630Y-346688D01*
X153692Y-346601D01*
X153755Y-346513D01*
X153819Y-346424D01*
X153884Y-346335D01*
X153949Y-346246D01*
X154015Y-346157D01*
X154081Y-346067D01*
X154148Y-345978D01*
X154216Y-345888D01*
X154283Y-345799D01*
X154351Y-345709D01*
X154420Y-345620D01*
X154488Y-345531D01*
X154557Y-345443D01*
X154625Y-345355D01*
X154694Y-345267D01*
X154763Y-345180D01*
X154831Y-345094D01*
X154900Y-345008D01*
X154968Y-344924D01*
X155036Y-344840D01*
X155103Y-344757D01*
X155171Y-344675D01*
X155237Y-344594D01*
X155304Y-344515D01*
X155369Y-344437D01*
X155434Y-344359D01*
X155499Y-344284D01*
X155562Y-344210D01*
X155625Y-344137D01*
X155687Y-344067D01*
X155748Y-343997D01*
X155808Y-343930D01*
X155867Y-343864D01*
X155925Y-343801D01*
X155981Y-343739D01*
X156037Y-343680D01*
X156091Y-343622D01*
X156144Y-343567D01*
X156195Y-343515D01*
X156245Y-343464D01*
X156294Y-343416D01*
X156341Y-343371D01*
X156386Y-343328D01*
X156430Y-343288D01*
X156472Y-343250D01*
X156512Y-343216D01*
X156550Y-343184D01*
X156586Y-343155D01*
X156948Y-342876D01*
X157132Y-344011D01*
D02*
G37*
%LPC*%
G36*
X175654Y-373350D02*
X175218D01*
X175119Y-373358D01*
X175004Y-373380D01*
X174877Y-373414D01*
X174743Y-373459D01*
X174605Y-373514D01*
X174468Y-373577D01*
X174336Y-373646D01*
X174213Y-373721D01*
X173644Y-374091D01*
Y-375132D01*
Y-376172D01*
X174046Y-376546D01*
X174448Y-376920D01*
X175884D01*
X176184Y-376585D01*
X176216Y-376546D01*
X176247Y-376501D01*
X176279Y-376449D01*
X176312Y-376391D01*
X176344Y-376328D01*
X176375Y-376261D01*
X176406Y-376189D01*
X176437Y-376114D01*
X176466Y-376036D01*
X176494Y-375955D01*
X176520Y-375873D01*
X176545Y-375789D01*
X176568Y-375705D01*
X176589Y-375620D01*
X176607Y-375537D01*
X176623Y-375454D01*
X176761Y-374659D01*
X176208Y-374005D01*
X175654Y-373350D01*
D02*
G37*
G36*
X162143Y-370019D02*
X161175Y-370020D01*
X160207Y-370022D01*
X158820Y-373293D01*
X158784Y-373377D01*
X158748Y-373462D01*
X158712Y-373546D01*
X158676Y-373630D01*
X158641Y-373714D01*
X158605Y-373798D01*
X158569Y-373882D01*
X158534Y-373966D01*
X158498Y-374049D01*
X158463Y-374132D01*
X158428Y-374215D01*
X158392Y-374297D01*
X158357Y-374380D01*
X158323Y-374462D01*
X158288Y-374543D01*
X158254Y-374624D01*
X158219Y-374704D01*
X158185Y-374784D01*
X158151Y-374863D01*
X158118Y-374942D01*
X158084Y-375020D01*
X158051Y-375098D01*
X158019Y-375174D01*
X157986Y-375251D01*
X157954Y-375326D01*
X157922Y-375400D01*
X157890Y-375474D01*
X157859Y-375547D01*
X157828Y-375619D01*
X157798Y-375690D01*
X157768Y-375761D01*
X157738Y-375830D01*
X157709Y-375898D01*
X157680Y-375965D01*
X157652Y-376031D01*
X157624Y-376096D01*
X157597Y-376160D01*
X157570Y-376223D01*
X157544Y-376284D01*
X157518Y-376344D01*
X157492Y-376403D01*
X157468Y-376461D01*
X157443Y-376518D01*
X157420Y-376573D01*
X157397Y-376626D01*
X157374Y-376678D01*
X157352Y-376729D01*
X157331Y-376778D01*
X157311Y-376826D01*
X157291Y-376872D01*
X157271Y-376917D01*
X157253Y-376960D01*
X157235Y-377001D01*
X157218Y-377041D01*
X157201Y-377079D01*
X157186Y-377115D01*
X157171Y-377149D01*
X157157Y-377182D01*
X157143Y-377212D01*
X157131Y-377241D01*
X157119Y-377268D01*
X157108Y-377293D01*
X157098Y-377316D01*
X157089Y-377337D01*
X156746Y-378110D01*
X158722D01*
X159125Y-377158D01*
X159527Y-376206D01*
X162817D01*
X163219Y-377158D01*
X163622Y-378110D01*
X165441D01*
X164706Y-376266D01*
X164687Y-376218D01*
X164668Y-376169D01*
X164648Y-376119D01*
X164628Y-376069D01*
X164607Y-376017D01*
X164586Y-375965D01*
X164565Y-375912D01*
X164543Y-375859D01*
X164522Y-375805D01*
X164499Y-375750D01*
X164477Y-375694D01*
X164454Y-375638D01*
X164432Y-375582D01*
X164408Y-375524D01*
X164385Y-375467D01*
X164362Y-375409D01*
X164338Y-375350D01*
X164314Y-375291D01*
X164290Y-375232D01*
X164265Y-375172D01*
X164241Y-375112D01*
X164216Y-375052D01*
X164192Y-374991D01*
X164167Y-374931D01*
X164142Y-374869D01*
X164117Y-374808D01*
X164092Y-374747D01*
X164067Y-374685D01*
X164042Y-374624D01*
X164016Y-374562D01*
X163991Y-374500D01*
X163966Y-374439D01*
X163941Y-374377D01*
X163915Y-374316D01*
X163890Y-374254D01*
X163865Y-374193D01*
X163839Y-374131D01*
X163814Y-374070D01*
X163789Y-374009D01*
X163764Y-373949D01*
X163739Y-373888D01*
X163714Y-373828D01*
X163690Y-373768D01*
X163665Y-373709D01*
X163641Y-373650D01*
X163616Y-373591D01*
X163592Y-373533D01*
X163568Y-373475D01*
X163544Y-373418D01*
X163521Y-373361D01*
X163497Y-373305D01*
X163474Y-373249D01*
X163451Y-373194D01*
X163428Y-373139D01*
X163406Y-373086D01*
X163384Y-373033D01*
X163362Y-372980D01*
X163340Y-372929D01*
X163319Y-372878D01*
X163298Y-372828D01*
X163277Y-372779D01*
X163257Y-372730D01*
X163237Y-372683D01*
X163217Y-372636D01*
X163178Y-372544D01*
X163140Y-372452D01*
X163101Y-372361D01*
X163063Y-372269D01*
X163024Y-372179D01*
X162986Y-372088D01*
X162949Y-371999D01*
X162912Y-371910D01*
X162875Y-371823D01*
X162839Y-371737D01*
X162804Y-371652D01*
X162769Y-371569D01*
X162735Y-371487D01*
X162702Y-371407D01*
X162669Y-371329D01*
X162638Y-371253D01*
X162607Y-371180D01*
X162577Y-371108D01*
X162549Y-371040D01*
X162522Y-370973D01*
X162496Y-370910D01*
X162471Y-370849D01*
X162447Y-370792D01*
X162425Y-370738D01*
X162404Y-370687D01*
X162385Y-370639D01*
X162367Y-370595D01*
X162351Y-370555D01*
X162336Y-370519D01*
X162323Y-370487D01*
X162312Y-370459D01*
X162303Y-370435D01*
X162143Y-370019D01*
D02*
G37*
G36*
X157554D02*
X150354D01*
Y-370732D01*
Y-371446D01*
X152914D01*
Y-374778D01*
Y-378110D01*
X154705D01*
Y-374791D01*
Y-371471D01*
X156049Y-371399D01*
X157393Y-371327D01*
X157474Y-370673D01*
X157554Y-370019D01*
D02*
G37*
G36*
X149331D02*
X142932D01*
Y-370732D01*
Y-371446D01*
X147539D01*
Y-372279D01*
Y-373112D01*
X143188D01*
Y-373826D01*
Y-374540D01*
X147539D01*
Y-375611D01*
Y-376682D01*
X142676D01*
Y-377396D01*
Y-378110D01*
X149331D01*
Y-374064D01*
Y-370019D01*
D02*
G37*
%LPD*%
G36*
X161798Y-373450D02*
X161824Y-373518D01*
X161850Y-373584D01*
X161875Y-373651D01*
X161899Y-373716D01*
X161923Y-373781D01*
X161945Y-373845D01*
X161967Y-373907D01*
X161988Y-373969D01*
X162009Y-374030D01*
X162028Y-374089D01*
X162046Y-374147D01*
X162064Y-374203D01*
X162080Y-374258D01*
X162096Y-374312D01*
X162110Y-374363D01*
X162124Y-374413D01*
X162136Y-374461D01*
X162148Y-374507D01*
X162158Y-374551D01*
X162167Y-374592D01*
X162175Y-374632D01*
X162182Y-374669D01*
X162187Y-374703D01*
X162192Y-374735D01*
X162195Y-374765D01*
X162197Y-374791D01*
X162197Y-374815D01*
X162196Y-374836D01*
X162194Y-374854D01*
X162191Y-374869D01*
X162186Y-374880D01*
X162179Y-374888D01*
X162132Y-374913D01*
X162048Y-374935D01*
X161932Y-374955D01*
X161790Y-374972D01*
X161628Y-374987D01*
X161451Y-374999D01*
X161265Y-375008D01*
X161075Y-375014D01*
X160887Y-375017D01*
X160706Y-375017D01*
X160538Y-375013D01*
X160387Y-375006D01*
X160261Y-374995D01*
X160164Y-374981D01*
X160102Y-374962D01*
X160080Y-374940D01*
X160090Y-374874D01*
X160117Y-374767D01*
X160161Y-374626D01*
X160217Y-374455D01*
X160285Y-374263D01*
X160361Y-374053D01*
X160444Y-373832D01*
X160531Y-373606D01*
X160620Y-373381D01*
X160708Y-373163D01*
X160793Y-372958D01*
X160874Y-372771D01*
X160947Y-372609D01*
X161010Y-372477D01*
X161061Y-372382D01*
X161097Y-372329D01*
X161279Y-372140D01*
X161798Y-373450D01*
D02*
G37*
D12*
X37006Y-107075D02*
Y-103075D01*
X37506Y-102575D01*
X42506D01*
X43006Y-103075D01*
Y-107075D02*
Y-103075D01*
X37006Y-112575D02*
Y-109075D01*
Y-113075D02*
Y-112575D01*
Y-113075D02*
X37506Y-113575D01*
X42506D01*
X43006Y-113075D01*
Y-109075D01*
X112700Y-298900D02*
Y-289900D01*
X118700Y-298900D02*
Y-289900D01*
X220243Y-176100D02*
X229242D01*
X220243Y-182100D02*
X229242D01*
X220000Y-199200D02*
X229000D01*
X220000Y-205200D02*
X229000D01*
X236700Y-195900D02*
Y-186900D01*
X230700Y-195900D02*
Y-186900D01*
X328211Y-113646D02*
Y-104647D01*
X334211Y-113646D02*
Y-104647D01*
X253600Y-173125D02*
X262600D01*
X253600Y-179125D02*
X262600D01*
X253600Y-185025D02*
X262600D01*
X253600Y-179025D02*
X262600D01*
X321700Y-139000D02*
X330700D01*
X321700Y-145000D02*
X330700D01*
X321700Y-151000D02*
X330700D01*
X321700Y-145000D02*
X330700D01*
X216800Y-123500D02*
Y-114500D01*
X222800Y-123500D02*
Y-114500D01*
X213402Y-228824D02*
X222402D01*
X213402Y-234824D02*
X222402D01*
D14*
X44001Y-92649D02*
Y-89106D01*
X37702Y-92649D02*
Y-89106D01*
X77802Y-90949D02*
Y-87406D01*
X84101Y-90949D02*
Y-87406D01*
X111660Y-90162D02*
Y-86618D01*
X117959Y-90162D02*
Y-86618D01*
X51024Y-89811D02*
Y-89417D01*
X46299Y-89811D02*
Y-89417D01*
D15*
X322600Y-29400D02*
X318102D01*
X322600Y-32399D01*
X318102D01*
X318851Y-36898D02*
X318102Y-36148D01*
Y-34648D01*
X318851Y-33899D01*
X321850D01*
X322600Y-34648D01*
Y-36148D01*
X321850Y-36898D01*
X337402Y-29200D02*
X340401D01*
X341900Y-30700D01*
X340401Y-32199D01*
X337402D01*
X341900Y-33699D02*
X337402D01*
X338901Y-35198D01*
X337402Y-36698D01*
X341900D01*
X219102Y-34400D02*
X223600D01*
Y-36649D01*
X222850Y-37399D01*
X219851D01*
X219102Y-36649D01*
Y-34400D01*
X223600Y-38899D02*
X220601D01*
X219102Y-40398D01*
X220601Y-41898D01*
X223600D01*
X221351D01*
Y-38899D01*
X219851Y-46396D02*
X219102Y-45646D01*
Y-44147D01*
X219851Y-43397D01*
X222850D01*
X223600Y-44147D01*
Y-45646D01*
X222850Y-46396D01*
X223600Y-50895D02*
Y-47896D01*
X220601Y-50895D01*
X219851D01*
X219102Y-50145D01*
Y-48645D01*
X219851Y-47896D01*
X229302Y-35150D02*
Y-36649D01*
Y-35899D01*
X233800D01*
Y-35150D01*
Y-36649D01*
X230051Y-41898D02*
X229302Y-41148D01*
Y-39648D01*
X230051Y-38899D01*
X230801D01*
X231551Y-39648D01*
Y-41148D01*
X232300Y-41898D01*
X233050D01*
X233800Y-41148D01*
Y-39648D01*
X233050Y-38899D01*
X229302Y-46396D02*
Y-43397D01*
X233800D01*
Y-46396D01*
X231551Y-43397D02*
Y-44897D01*
X229302Y-47896D02*
Y-50895D01*
Y-49395D01*
X233800D01*
X241851Y-34400D02*
Y-37399D01*
X240351Y-35899D02*
X243350D01*
X244100Y-41898D02*
Y-38899D01*
X241101Y-41898D01*
X240351D01*
X239601Y-41148D01*
Y-39648D01*
X240351Y-38899D01*
X244100Y-45646D02*
X239601D01*
X241851Y-43397D01*
Y-46396D01*
X239601Y-47896D02*
X242600D01*
X244100Y-49395D01*
X242600Y-50895D01*
X239601D01*
X264251Y-41898D02*
X263502Y-41148D01*
Y-39648D01*
X264251Y-38899D01*
X265001D01*
X265751Y-39648D01*
Y-41148D01*
X266500Y-41898D01*
X267250D01*
X268000Y-41148D01*
Y-39648D01*
X267250Y-38899D01*
X264251Y-46396D02*
X263502Y-45646D01*
Y-44147D01*
X264251Y-43397D01*
X267250D01*
X268000Y-44147D01*
Y-45646D01*
X267250Y-46396D01*
X263502Y-47896D02*
X268000D01*
Y-50895D01*
X273251Y-41898D02*
X272501Y-41148D01*
Y-39648D01*
X273251Y-38899D01*
X274001D01*
X274751Y-39648D01*
Y-41148D01*
X275500Y-41898D01*
X276250D01*
X277000Y-41148D01*
Y-39648D01*
X276250Y-38899D01*
X272501Y-43397D02*
X277000D01*
Y-45646D01*
X276250Y-46396D01*
X273251D01*
X272501Y-45646D01*
Y-43397D01*
X277000Y-47896D02*
X274001D01*
X272501Y-49395D01*
X274001Y-50895D01*
X277000D01*
X274751D01*
Y-47896D01*
X286800Y-43397D02*
X282301D01*
X286800Y-46396D01*
X282301D01*
X283051Y-50895D02*
X282301Y-50145D01*
Y-48645D01*
X283051Y-47896D01*
X286050D01*
X286800Y-48645D01*
Y-50145D01*
X286050Y-50895D01*
X144701Y-35100D02*
X149200D01*
Y-37349D01*
X148450Y-38099D01*
X145451D01*
X144701Y-37349D01*
Y-35100D01*
Y-41848D02*
Y-40348D01*
X145451Y-39599D01*
X148450D01*
X149200Y-40348D01*
Y-41848D01*
X148450Y-42598D01*
X145451D01*
X144701Y-41848D01*
Y-44097D02*
X148450D01*
X149200Y-44847D01*
Y-46346D01*
X148450Y-47096D01*
X144701D01*
Y-48596D02*
Y-51595D01*
Y-50095D01*
X149200D01*
X154822Y-46346D02*
Y-44847D01*
X155571Y-44097D01*
X158570D01*
X159320Y-44847D01*
Y-46346D01*
X158570Y-47096D01*
X155571D01*
X154822Y-46346D01*
Y-51595D02*
Y-48596D01*
X159320D01*
Y-51595D01*
X157071Y-48596D02*
Y-50095D01*
X165691Y-38099D02*
X164942Y-37349D01*
Y-35850D01*
X165691Y-35100D01*
X166441D01*
X167191Y-35850D01*
Y-37349D01*
X167940Y-38099D01*
X168690D01*
X169440Y-37349D01*
Y-35850D01*
X168690Y-35100D01*
X164942Y-39599D02*
Y-42598D01*
Y-41098D01*
X169440D01*
X165691Y-47096D02*
X164942Y-46346D01*
Y-44847D01*
X165691Y-44097D01*
X168690D01*
X169440Y-44847D01*
Y-46346D01*
X168690Y-47096D01*
X169440Y-48596D02*
X164942D01*
Y-50845D01*
X165691Y-51595D01*
X167191D01*
X167940Y-50845D01*
Y-48596D01*
X175811Y-38099D02*
X175061Y-37349D01*
Y-35850D01*
X175811Y-35100D01*
X176561D01*
X177311Y-35850D01*
Y-37349D01*
X178060Y-38099D01*
X178810D01*
X179560Y-37349D01*
Y-35850D01*
X178810Y-35100D01*
X175061Y-39599D02*
X179560D01*
X177311D01*
Y-42598D01*
X175061D01*
X179560D01*
X175811Y-47096D02*
X175061Y-46346D01*
Y-44847D01*
X175811Y-44097D01*
X178810D01*
X179560Y-44847D01*
Y-46346D01*
X178810Y-47096D01*
X179560Y-48596D02*
X175061D01*
Y-50845D01*
X175811Y-51595D01*
X177311D01*
X178060Y-50845D01*
Y-48596D01*
X189680Y-39599D02*
X185181D01*
Y-41848D01*
X185931Y-42598D01*
X187431D01*
X188180Y-41848D01*
Y-39599D01*
Y-41098D02*
X189680Y-42598D01*
X185931Y-47096D02*
X185181Y-46346D01*
Y-44847D01*
X185931Y-44097D01*
X186681D01*
X187431Y-44847D01*
Y-46346D01*
X188180Y-47096D01*
X188930D01*
X189680Y-46346D01*
Y-44847D01*
X188930Y-44097D01*
X185181Y-48596D02*
Y-51595D01*
Y-50095D01*
X189680D01*
X195301Y-40348D02*
X199800D01*
Y-42598D01*
X199050Y-43347D01*
X196051D01*
X195301Y-42598D01*
Y-40348D01*
Y-44847D02*
Y-46346D01*
Y-45597D01*
X199800D01*
Y-44847D01*
Y-46346D01*
Y-48596D02*
X195301D01*
X199800Y-51595D01*
X195301D01*
X88501Y-52800D02*
Y-54299D01*
Y-53550D01*
X93000D01*
Y-52800D01*
Y-54299D01*
X88501Y-58798D02*
Y-57299D01*
X89251Y-56549D01*
X92250D01*
X93000Y-57299D01*
Y-58798D01*
X92250Y-59548D01*
X89251D01*
X88501Y-58798D01*
Y-61047D02*
X92250D01*
X93000Y-61797D01*
Y-63297D01*
X92250Y-64046D01*
X88501D01*
Y-65546D02*
Y-68545D01*
Y-67045D01*
X93000D01*
X108501Y-52800D02*
Y-54299D01*
Y-53550D01*
X113000D01*
Y-52800D01*
Y-54299D01*
X108501Y-56549D02*
Y-58048D01*
Y-57299D01*
X113000D01*
Y-56549D01*
Y-58048D01*
Y-60298D02*
X108501D01*
X113000Y-63297D01*
X108501D01*
X245251Y-365399D02*
X244501Y-364649D01*
Y-363150D01*
X245251Y-362400D01*
X246001D01*
X246751Y-363150D01*
Y-364649D01*
X247500Y-365399D01*
X248250D01*
X249000Y-364649D01*
Y-363150D01*
X248250Y-362400D01*
X244501Y-366898D02*
X249000D01*
Y-369148D01*
X248250Y-369898D01*
X245251D01*
X244501Y-369148D01*
Y-366898D01*
X249000Y-371397D02*
X246001D01*
X244501Y-372897D01*
X246001Y-374396D01*
X249000D01*
X246751D01*
Y-371397D01*
X249000Y-375896D02*
Y-377395D01*
Y-376645D01*
X244501D01*
X245251Y-375896D01*
X235751Y-365599D02*
X235001Y-364849D01*
Y-363350D01*
X235751Y-362600D01*
X236501D01*
X237251Y-363350D01*
Y-364849D01*
X238000Y-365599D01*
X238750D01*
X239500Y-364849D01*
Y-363350D01*
X238750Y-362600D01*
X235751Y-370098D02*
X235001Y-369348D01*
Y-367848D01*
X235751Y-367098D01*
X238750D01*
X239500Y-367848D01*
Y-369348D01*
X238750Y-370098D01*
X235001Y-371597D02*
X239500D01*
Y-374596D01*
Y-376096D02*
Y-377595D01*
Y-376845D01*
X235001D01*
X235751Y-376096D01*
X225751Y-365599D02*
X225002Y-364849D01*
Y-363350D01*
X225751Y-362600D01*
X228750D01*
X229500Y-363350D01*
Y-364849D01*
X228750Y-365599D01*
X229500Y-367098D02*
X226501D01*
X225002Y-368598D01*
X226501Y-370098D01*
X229500D01*
X227251D01*
Y-367098D01*
X229500Y-371597D02*
X225002D01*
X229500Y-374596D01*
X225002D01*
Y-376096D02*
X229500D01*
Y-379095D01*
X215451Y-365099D02*
X214702Y-364349D01*
Y-362850D01*
X215451Y-362100D01*
X218450D01*
X219200Y-362850D01*
Y-364349D01*
X218450Y-365099D01*
X219200Y-366599D02*
X216201D01*
X214702Y-368098D01*
X216201Y-369598D01*
X219200D01*
X216951D01*
Y-366599D01*
X219200Y-371097D02*
X214702D01*
X219200Y-374096D01*
X214702D01*
Y-375596D02*
X219200D01*
X216951D01*
Y-378595D01*
X214702D01*
X219200D01*
X57949Y-53501D02*
X58699Y-54251D01*
Y-55750D01*
X57949Y-56500D01*
X57199D01*
X56449Y-55750D01*
Y-54251D01*
X55699Y-53501D01*
X54950D01*
X54200Y-54251D01*
Y-55750D01*
X54950Y-56500D01*
X58699Y-52001D02*
X54200D01*
Y-49752D01*
X54950Y-49002D01*
X57949D01*
X58699Y-49752D01*
Y-52001D01*
X54200Y-47503D02*
X57199D01*
X58699Y-46003D01*
X57199Y-44504D01*
X54200D01*
X56449D01*
Y-47503D01*
X54200Y-43004D02*
Y-41505D01*
Y-42255D01*
X58699D01*
X57949Y-43004D01*
X48449Y-53701D02*
X49199Y-54451D01*
Y-55950D01*
X48449Y-56700D01*
X47699D01*
X46949Y-55950D01*
Y-54451D01*
X46200Y-53701D01*
X45450D01*
X44700Y-54451D01*
Y-55950D01*
X45450Y-56700D01*
X48449Y-49202D02*
X49199Y-49952D01*
Y-51452D01*
X48449Y-52201D01*
X45450D01*
X44700Y-51452D01*
Y-49952D01*
X45450Y-49202D01*
X49199Y-47703D02*
X44700D01*
Y-44704D01*
Y-43204D02*
Y-41705D01*
Y-42455D01*
X49199D01*
X48449Y-43204D01*
X38449Y-53701D02*
X39199Y-54451D01*
Y-55950D01*
X38449Y-56700D01*
X35450D01*
X34700Y-55950D01*
Y-54451D01*
X35450Y-53701D01*
X34700Y-52201D02*
X37699D01*
X39199Y-50702D01*
X37699Y-49202D01*
X34700D01*
X36949D01*
Y-52201D01*
X34700Y-47703D02*
X39199D01*
X34700Y-44704D01*
X39199D01*
Y-43204D02*
X34700D01*
Y-40205D01*
X28149Y-53201D02*
X28899Y-53951D01*
Y-55450D01*
X28149Y-56200D01*
X25150D01*
X24400Y-55450D01*
Y-53951D01*
X25150Y-53201D01*
X24400Y-51701D02*
X27399D01*
X28899Y-50202D01*
X27399Y-48702D01*
X24400D01*
X26649D01*
Y-51701D01*
X24400Y-47203D02*
X28899D01*
X24400Y-44204D01*
X28899D01*
Y-42704D02*
X24400D01*
X26649D01*
Y-39705D01*
X28899D01*
X24400D01*
X379551Y-266400D02*
Y-269399D01*
X377302Y-273898D02*
Y-270899D01*
X379551D01*
X378801Y-272398D01*
Y-273148D01*
X379551Y-273898D01*
X381050D01*
X381800Y-273148D01*
Y-271648D01*
X381050Y-270899D01*
X377302Y-275397D02*
X380300D01*
X381800Y-276897D01*
X380300Y-278396D01*
X377302D01*
X379451Y-212600D02*
Y-215599D01*
X377951Y-214100D02*
X380950D01*
X377202Y-220098D02*
Y-217098D01*
X379451D01*
X378701Y-218598D01*
Y-219348D01*
X379451Y-220098D01*
X380950D01*
X381700Y-219348D01*
Y-217848D01*
X380950Y-217098D01*
X377202Y-221597D02*
X380201D01*
X381700Y-223097D01*
X380201Y-224596D01*
X377202D01*
X379294Y-230479D02*
Y-233478D01*
X377795Y-231979D02*
X380794D01*
X381543Y-234978D02*
Y-236477D01*
Y-235728D01*
X377045D01*
X377795Y-234978D01*
X381543Y-241726D02*
Y-238726D01*
X378544Y-241726D01*
X377795D01*
X377045Y-240976D01*
Y-239476D01*
X377795Y-238726D01*
X377045Y-243225D02*
X380044D01*
X381543Y-244725D01*
X380044Y-246224D01*
X377045D01*
X377851Y-290299D02*
X377101Y-289549D01*
Y-288050D01*
X377851Y-287300D01*
X380850D01*
X381600Y-288050D01*
Y-289549D01*
X380850Y-290299D01*
X379351D01*
Y-288800D01*
X381600Y-291798D02*
X377101D01*
X381600Y-294798D01*
X377101D01*
Y-296297D02*
X381600D01*
Y-298546D01*
X380850Y-299296D01*
X377851D01*
X377101Y-298546D01*
Y-296297D01*
X325600Y-305351D02*
X322601D01*
X318102Y-303101D02*
X321101D01*
Y-305351D01*
X319602Y-304601D01*
X318852D01*
X318102Y-305351D01*
Y-306850D01*
X318852Y-307600D01*
X320352D01*
X321101Y-306850D01*
X316603Y-303101D02*
Y-306101D01*
X315103Y-307600D01*
X313604Y-306101D01*
Y-303101D01*
X307800Y-305151D02*
X304801D01*
X306300Y-303651D02*
Y-306650D01*
X303302Y-307400D02*
X301802D01*
X302552D01*
Y-302902D01*
X303302Y-303651D01*
X296554Y-307400D02*
X299553D01*
X296554Y-304401D01*
Y-303651D01*
X297303Y-302902D01*
X298803D01*
X299553Y-303651D01*
X295054Y-302902D02*
Y-305901D01*
X293555Y-307400D01*
X292055Y-305901D01*
Y-302902D01*
X284700Y-304951D02*
X281701D01*
X283201Y-303451D02*
Y-306450D01*
X277202Y-302701D02*
X280202D01*
Y-304951D01*
X278702Y-304201D01*
X277952D01*
X277202Y-304951D01*
Y-306450D01*
X277952Y-307200D01*
X279452D01*
X280202Y-306450D01*
X275703Y-302701D02*
Y-305700D01*
X274203Y-307200D01*
X272704Y-305700D01*
Y-302701D01*
X321101Y-348651D02*
X321851Y-347902D01*
X323350D01*
X324100Y-348651D01*
Y-351650D01*
X323350Y-352400D01*
X321851D01*
X321101Y-351650D01*
Y-350151D01*
X322601D01*
X319601Y-352400D02*
Y-347902D01*
X316602Y-352400D01*
Y-347902D01*
X315103D02*
Y-352400D01*
X312854D01*
X312104Y-351650D01*
Y-348651D01*
X312854Y-347902D01*
X315103D01*
X307050Y-348651D02*
X306300Y-347902D01*
X304801D01*
X304051Y-348651D01*
Y-351650D01*
X304801Y-352400D01*
X306300D01*
X307050Y-351650D01*
Y-348651D01*
X302552Y-347902D02*
X301052D01*
X301802D01*
Y-352400D01*
X302552D01*
X301052D01*
X295804Y-348651D02*
X296553Y-347902D01*
X298053D01*
X298803Y-348651D01*
Y-349401D01*
X298053Y-350151D01*
X296553D01*
X295804Y-350901D01*
Y-351650D01*
X296553Y-352400D01*
X298053D01*
X298803Y-351650D01*
X292055Y-347902D02*
X293554D01*
X294304Y-348651D01*
Y-351650D01*
X293554Y-352400D01*
X292055D01*
X291305Y-351650D01*
Y-348651D01*
X292055Y-347902D01*
X287100Y-350151D02*
X284101D01*
X285600Y-348651D02*
Y-351650D01*
X279602Y-347902D02*
X282601D01*
Y-350151D01*
X281102Y-349401D01*
X280352D01*
X279602Y-350151D01*
Y-351650D01*
X280352Y-352400D01*
X281852D01*
X282601Y-351650D01*
X278103Y-347902D02*
X276603D01*
X277353D01*
Y-352400D01*
X278103D01*
X276603D01*
X271355Y-348651D02*
X272105Y-347902D01*
X273604D01*
X274354Y-348651D01*
Y-349401D01*
X273604Y-350151D01*
X272105D01*
X271355Y-350901D01*
Y-351650D01*
X272105Y-352400D01*
X273604D01*
X274354Y-351650D01*
X267606Y-347902D02*
X269106D01*
X269856Y-348651D01*
Y-351650D01*
X269106Y-352400D01*
X267606D01*
X266857Y-351650D01*
Y-348651D01*
X267606Y-347902D01*
D20*
X39000Y-80100D02*
X42199D01*
Y-78500D01*
X41666Y-77967D01*
X40600D01*
X40066Y-78500D01*
Y-80100D01*
Y-79034D02*
X39000Y-77967D01*
Y-75301D02*
X42199D01*
X40600Y-76901D01*
Y-74768D01*
X41666Y-73702D02*
X42199Y-73169D01*
Y-72103D01*
X41666Y-71569D01*
X41133D01*
X40600Y-72103D01*
Y-72636D01*
Y-72103D01*
X40066Y-71569D01*
X39533D01*
X39000Y-72103D01*
Y-73169D01*
X39533Y-73702D01*
X111600Y-114000D02*
X114799D01*
Y-112400D01*
X114266Y-111867D01*
X113199D01*
X112666Y-112400D01*
Y-114000D01*
Y-112934D02*
X111600Y-111867D01*
Y-110801D02*
Y-109735D01*
Y-110268D01*
X114799D01*
X114266Y-110801D01*
Y-108135D02*
X114799Y-107602D01*
Y-106536D01*
X114266Y-106003D01*
X113733D01*
X113199Y-106536D01*
Y-107069D01*
Y-106536D01*
X112666Y-106003D01*
X112133D01*
X111600Y-106536D01*
Y-107602D01*
X112133Y-108135D01*
X77600Y-116100D02*
X80799D01*
Y-114500D01*
X80266Y-113967D01*
X79199D01*
X78666Y-114500D01*
Y-116100D01*
Y-115034D02*
X77600Y-113967D01*
Y-112901D02*
Y-111835D01*
Y-112368D01*
X80799D01*
X80266Y-112901D01*
X77600Y-108103D02*
Y-110235D01*
X79733Y-108103D01*
X80266D01*
X80799Y-108636D01*
Y-109702D01*
X80266Y-110235D01*
X47200Y-79900D02*
X50399D01*
Y-78300D01*
X49866Y-77767D01*
X48799D01*
X48266Y-78300D01*
Y-79900D01*
Y-78834D02*
X47200Y-77767D01*
Y-76701D02*
Y-75635D01*
Y-76168D01*
X50399D01*
X49866Y-76701D01*
Y-74035D02*
X50399Y-73502D01*
Y-72436D01*
X49866Y-71903D01*
X47733D01*
X47200Y-72436D01*
Y-73502D01*
X47733Y-74035D01*
X49866D01*
X42500Y-121200D02*
Y-118001D01*
X40900D01*
X40367Y-118534D01*
Y-119600D01*
X40900Y-120134D01*
X42500D01*
X41434D02*
X40367Y-121200D01*
X39301Y-120667D02*
X38768Y-121200D01*
X37701D01*
X37168Y-120667D01*
Y-118534D01*
X37701Y-118001D01*
X38768D01*
X39301Y-118534D01*
Y-119067D01*
X38768Y-119600D01*
X37168D01*
X220067Y-224734D02*
X220601Y-224201D01*
X221667D01*
X222200Y-224734D01*
Y-226867D01*
X221667Y-227400D01*
X220601D01*
X220067Y-226867D01*
X216868Y-227400D02*
X219001D01*
X216868Y-225267D01*
Y-224734D01*
X217402Y-224201D01*
X218468D01*
X219001Y-224734D01*
X215802D02*
X215269Y-224201D01*
X214203D01*
X213669Y-224734D01*
Y-226867D01*
X214203Y-227400D01*
X215269D01*
X215802Y-226867D01*
Y-224734D01*
X117467Y-284234D02*
X118000Y-283701D01*
X119067D01*
X119600Y-284234D01*
Y-286367D01*
X119067Y-286900D01*
X118000D01*
X117467Y-286367D01*
X116401Y-286900D02*
X115335D01*
X115868D01*
Y-283701D01*
X116401Y-284234D01*
X113735Y-286367D02*
X113202Y-286900D01*
X112136D01*
X111603Y-286367D01*
Y-284234D01*
X112136Y-283701D01*
X113202D01*
X113735Y-284234D01*
Y-284767D01*
X113202Y-285300D01*
X111603D01*
X332767Y-98734D02*
X333300Y-98201D01*
X334367D01*
X334900Y-98734D01*
Y-100867D01*
X334367Y-101400D01*
X333300D01*
X332767Y-100867D01*
X331701Y-101400D02*
X330635D01*
X331168D01*
Y-98201D01*
X331701Y-98734D01*
X326903Y-101400D02*
X329035D01*
X326903Y-99267D01*
Y-98734D01*
X327436Y-98201D01*
X328502D01*
X329035Y-98734D01*
X220567Y-108335D02*
X221100Y-107802D01*
X222167D01*
X222700Y-108335D01*
Y-110468D01*
X222167Y-111001D01*
X221100D01*
X220567Y-110468D01*
X219501Y-111001D02*
X218435D01*
X218968D01*
Y-107802D01*
X219501Y-108335D01*
X216835Y-111001D02*
X215769D01*
X216302D01*
Y-107802D01*
X216835Y-108335D01*
X317267Y-147234D02*
X317800Y-146701D01*
X318867D01*
X319400Y-147234D01*
Y-149367D01*
X318867Y-149900D01*
X317800D01*
X317267Y-149367D01*
X316201Y-149900D02*
X315135D01*
X315668D01*
Y-146701D01*
X316201Y-147234D01*
X313535D02*
X313002Y-146701D01*
X311936D01*
X311403Y-147234D01*
Y-149367D01*
X311936Y-149900D01*
X313002D01*
X313535Y-149367D01*
Y-147234D01*
X317267Y-140934D02*
X317800Y-140401D01*
X318867D01*
X319400Y-140934D01*
Y-143067D01*
X318867Y-143600D01*
X317800D01*
X317267Y-143067D01*
X316201D02*
X315668Y-143600D01*
X314601D01*
X314068Y-143067D01*
Y-140934D01*
X314601Y-140401D01*
X315668D01*
X316201Y-140934D01*
Y-141467D01*
X315668Y-142000D01*
X314068D01*
X225067Y-172234D02*
X225601Y-171701D01*
X226667D01*
X227200Y-172234D01*
Y-174367D01*
X226667Y-174900D01*
X225601D01*
X225067Y-174367D01*
X221868Y-171701D02*
X224001D01*
Y-173301D01*
X222935Y-172767D01*
X222401D01*
X221868Y-173301D01*
Y-174367D01*
X222401Y-174900D01*
X223468D01*
X224001Y-174367D01*
X248667Y-181134D02*
X249201Y-180601D01*
X250267D01*
X250800Y-181134D01*
Y-183267D01*
X250267Y-183800D01*
X249201D01*
X248667Y-183267D01*
X246002Y-183800D02*
Y-180601D01*
X247601Y-182201D01*
X245468D01*
X248667Y-174734D02*
X249201Y-174201D01*
X250267D01*
X250800Y-174734D01*
Y-176867D01*
X250267Y-177400D01*
X249201D01*
X248667Y-176867D01*
X247601Y-174734D02*
X247068Y-174201D01*
X246002D01*
X245468Y-174734D01*
Y-175267D01*
X246002Y-175801D01*
X246535D01*
X246002D01*
X245468Y-176334D01*
Y-176867D01*
X246002Y-177400D01*
X247068D01*
X247601Y-176867D01*
X240766Y-191867D02*
X241299Y-192401D01*
Y-193467D01*
X240766Y-194000D01*
X238633D01*
X238100Y-193467D01*
Y-192401D01*
X238633Y-191867D01*
X238100Y-188668D02*
Y-190801D01*
X240233Y-188668D01*
X240766D01*
X241299Y-189201D01*
Y-190268D01*
X240766Y-190801D01*
X224267Y-195134D02*
X224800Y-194601D01*
X225867D01*
X226400Y-195134D01*
Y-197267D01*
X225867Y-197800D01*
X224800D01*
X224267Y-197267D01*
X223201Y-197800D02*
X222135D01*
X222668D01*
Y-194601D01*
X223201Y-195134D01*
M02*
