G04*
G04 #@! TF.GenerationSoftware,Altium Limited,Altium Designer,20.0.2 (26)*
G04*
G04 Layer_Physical_Order=2*
G04 Layer_Color=16711680*
%FSLAX25Y25*%
%MOIN*%
G70*
G01*
G75*
%ADD19C,0.01200*%
%ADD61R,0.03937X0.03543*%
%ADD63R,0.04134X0.03543*%
%ADD66R,0.03543X0.03937*%
%ADD77C,0.03000*%
%ADD78C,0.02500*%
%ADD79C,0.02000*%
%ADD80C,0.08500*%
%ADD81C,0.06299*%
%ADD82R,0.06299X0.06299*%
%ADD83O,0.07000X0.09000*%
%ADD84R,0.07000X0.09000*%
%ADD85C,0.09843*%
%ADD86R,0.09843X0.09843*%
%ADD87C,0.14173*%
%ADD88C,0.06000*%
%ADD89R,0.09843X0.09843*%
%ADD90R,0.05906X0.05906*%
%ADD91C,0.05906*%
%ADD92R,0.03937X0.07874*%
%ADD93O,0.03937X0.07874*%
%ADD94C,0.15748*%
%ADD95C,0.02362*%
%ADD96C,0.03150*%
%ADD97C,0.11024*%
%ADD98R,0.07087X0.05118*%
%ADD99R,0.05512X0.04724*%
G36*
X134640Y-88929D02*
X134537Y-89177D01*
X109062D01*
Y-78280D01*
X134640D01*
Y-88929D01*
D02*
G37*
G36*
X99995D02*
X99892Y-89177D01*
X74661D01*
Y-78280D01*
X99995D01*
Y-88929D01*
D02*
G37*
G36*
X65349D02*
X65246Y-89177D01*
X37161D01*
Y-78280D01*
X65349D01*
Y-88929D01*
D02*
G37*
G36*
X121461Y-92814D02*
Y-103014D01*
X120161Y-104314D01*
X52162D01*
X48461Y-108014D01*
X48362Y-107914D01*
X35662D01*
Y-91214D01*
X119861D01*
X121461Y-92814D01*
D02*
G37*
G36*
X133361Y-107114D02*
Y-119714D01*
X131462Y-121614D01*
X131361Y-121514D01*
X36084D01*
X34849Y-120280D01*
X34861Y-120267D01*
Y-109014D01*
X48363D01*
X48461Y-109034D01*
X48560Y-109014D01*
X49461D01*
X53142Y-105334D01*
X120161D01*
X120260Y-105314D01*
X131562D01*
X133361Y-107114D01*
D02*
G37*
G36*
X373440Y-88295D02*
X373930Y-89911D01*
X374726Y-91401D01*
X375798Y-92706D01*
X377103Y-93778D01*
X378162Y-94344D01*
Y-163181D01*
Y-178241D01*
X375500Y-182500D01*
X367281D01*
X367090Y-182038D01*
X369214Y-179914D01*
X369678Y-179219D01*
X369841Y-178400D01*
Y-145300D01*
X369678Y-144481D01*
X369214Y-143786D01*
X357214Y-131786D01*
X356519Y-131322D01*
X355700Y-131159D01*
X337000D01*
X336181Y-131322D01*
X335486Y-131786D01*
X335022Y-132481D01*
X334859Y-133300D01*
X335022Y-134119D01*
X335486Y-134814D01*
X336181Y-135278D01*
X337000Y-135441D01*
X354813D01*
X365559Y-146187D01*
Y-177513D01*
X360572Y-182500D01*
X331200D01*
X331200Y-192259D01*
X312900D01*
X312081Y-192422D01*
X311386Y-192886D01*
X308986Y-195286D01*
X308522Y-195981D01*
X308359Y-196800D01*
X308522Y-197619D01*
X308986Y-198314D01*
X309681Y-198778D01*
X310500Y-198941D01*
X311319Y-198778D01*
X312014Y-198314D01*
X313787Y-196541D01*
X331200D01*
Y-209600D01*
X266800Y-274000D01*
X266800Y-329800D01*
X270600D01*
Y-329700D01*
X272700Y-327600D01*
X327300D01*
X358300Y-296600D01*
Y-285900D01*
X388900Y-285900D01*
X390800Y-287800D01*
Y-358000D01*
X357000Y-391800D01*
X270600D01*
Y-391400D01*
X25800D01*
Y-273900D01*
X32500Y-267200D01*
X91759D01*
Y-268817D01*
X91683Y-269200D01*
X91851Y-270049D01*
X92332Y-270768D01*
X93051Y-271249D01*
X93900Y-271417D01*
X94749Y-271249D01*
X95468Y-270768D01*
X95949Y-270049D01*
X96117Y-269200D01*
X96041Y-268817D01*
Y-267200D01*
X162872D01*
X168859Y-273187D01*
Y-289517D01*
X168783Y-289900D01*
X168951Y-290749D01*
X169432Y-291468D01*
X170151Y-291949D01*
X171000Y-292117D01*
X171849Y-291949D01*
X172568Y-291468D01*
X173049Y-290749D01*
X173217Y-289900D01*
X173141Y-289517D01*
Y-272300D01*
X172978Y-271481D01*
X172514Y-270786D01*
X169390Y-267662D01*
X169581Y-267200D01*
X212569D01*
Y-269627D01*
X212151Y-270251D01*
X211983Y-271100D01*
X212151Y-271949D01*
X212314Y-272192D01*
Y-333508D01*
X212151Y-333751D01*
X211983Y-334600D01*
X212151Y-335449D01*
X212632Y-336168D01*
X213351Y-336649D01*
X214200Y-336817D01*
X215049Y-336649D01*
X215768Y-336168D01*
X216249Y-335449D01*
X216417Y-334600D01*
X216249Y-333751D01*
X216086Y-333508D01*
Y-272192D01*
X216249Y-271949D01*
X216417Y-271100D01*
X216249Y-270251D01*
X215831Y-269627D01*
Y-267200D01*
X225614D01*
Y-283500D01*
Y-312900D01*
X225714Y-313403D01*
Y-333408D01*
X225551Y-333651D01*
X225383Y-334500D01*
X225551Y-335349D01*
X226032Y-336068D01*
X226751Y-336549D01*
X227600Y-336717D01*
X228449Y-336549D01*
X229168Y-336068D01*
X229649Y-335349D01*
X229817Y-334500D01*
X229649Y-333651D01*
X229486Y-333408D01*
Y-313000D01*
X229386Y-312497D01*
Y-285599D01*
X229773Y-285282D01*
X229942Y-285316D01*
X230638Y-285178D01*
X231227Y-284784D01*
X231620Y-284195D01*
X231758Y-283500D01*
X231620Y-282805D01*
X231227Y-282216D01*
X230638Y-281822D01*
X229942Y-281684D01*
X229773Y-281718D01*
X229386Y-281401D01*
Y-267200D01*
X240000D01*
X264800Y-242400D01*
Y-211853D01*
X269853D01*
Y-204547D01*
X264800D01*
Y-193033D01*
X275637D01*
X275707Y-193079D01*
X276402Y-193218D01*
X277097Y-193079D01*
X277686Y-192686D01*
X278079Y-192096D01*
X278218Y-191402D01*
X278079Y-190707D01*
X277686Y-190118D01*
X277097Y-189724D01*
X276402Y-189586D01*
X275707Y-189724D01*
X275637Y-189770D01*
X264800D01*
Y-163981D01*
X210088D01*
X206753Y-160646D01*
X206224Y-160293D01*
X205600Y-160169D01*
X195947D01*
X194862Y-159083D01*
Y-113062D01*
X196328D01*
X196332Y-113068D01*
X197051Y-113549D01*
X197900Y-113717D01*
X198749Y-113549D01*
X199468Y-113068D01*
X199949Y-112349D01*
X200117Y-111500D01*
X199949Y-110651D01*
X199468Y-109932D01*
X198749Y-109451D01*
X197900Y-109283D01*
X197051Y-109451D01*
X196531Y-109799D01*
X194862D01*
Y-88481D01*
X195062D01*
X258159D01*
Y-106370D01*
X258101Y-106445D01*
X258001Y-106482D01*
X257599D01*
X257499Y-106445D01*
X257203Y-106060D01*
X256646Y-105632D01*
X256000Y-105365D01*
Y-104479D01*
X255907Y-104011D01*
X255642Y-103614D01*
X254162Y-102135D01*
X253765Y-101870D01*
X253297Y-101777D01*
X246800D01*
X246332Y-101870D01*
X245935Y-102135D01*
X243035Y-105035D01*
X242770Y-105432D01*
X242676Y-105900D01*
Y-108293D01*
X237772Y-113198D01*
X237700Y-113184D01*
X237005Y-113322D01*
X236416Y-113716D01*
X236022Y-114305D01*
X235962Y-114608D01*
X235451Y-115119D01*
X222369D01*
Y-113971D01*
X217231D01*
Y-118714D01*
X222369D01*
Y-117566D01*
X235958D01*
X236426Y-117473D01*
X236823Y-117208D01*
X237295Y-116735D01*
X237700Y-116816D01*
X238395Y-116678D01*
X238984Y-116284D01*
X239378Y-115695D01*
X239516Y-115000D01*
X239502Y-114928D01*
X244765Y-109665D01*
X245030Y-109268D01*
X245124Y-108800D01*
Y-106407D01*
X247307Y-104224D01*
X252790D01*
X253553Y-104986D01*
Y-105940D01*
X253397Y-106060D01*
X252969Y-106617D01*
X252700Y-107266D01*
X252608Y-107963D01*
Y-111900D01*
X252700Y-112597D01*
X252969Y-113246D01*
X253397Y-113803D01*
X253954Y-114231D01*
X254603Y-114500D01*
X255300Y-114592D01*
X255997Y-114500D01*
X256646Y-114231D01*
X257203Y-113803D01*
X257499Y-113418D01*
X257599Y-113381D01*
X258001D01*
X258101Y-113418D01*
X258397Y-113803D01*
X258954Y-114231D01*
X259603Y-114500D01*
X260300Y-114592D01*
X260997Y-114500D01*
X261646Y-114231D01*
X262203Y-113803D01*
X262631Y-113246D01*
X262900Y-112597D01*
X262991Y-111900D01*
Y-107963D01*
X262900Y-107266D01*
X262631Y-106617D01*
X262441Y-106370D01*
Y-88481D01*
X282362D01*
Y-122377D01*
X261691D01*
X261584Y-122216D01*
X260995Y-121822D01*
X260300Y-121684D01*
X259605Y-121822D01*
X259016Y-122216D01*
X258622Y-122805D01*
X258484Y-123500D01*
X258622Y-124195D01*
X259016Y-124784D01*
X259605Y-125178D01*
X260300Y-125316D01*
X260995Y-125178D01*
X261525Y-124823D01*
X282362D01*
Y-159200D01*
X290662D01*
Y-124823D01*
X298800D01*
X299268Y-124730D01*
X299665Y-124465D01*
X301807Y-122324D01*
X320075D01*
X320116Y-122384D01*
X320705Y-122778D01*
X321400Y-122916D01*
X322095Y-122778D01*
X322684Y-122384D01*
X323078Y-121795D01*
X323109Y-121637D01*
X330570Y-114176D01*
X333780D01*
Y-109432D01*
X328643D01*
Y-112642D01*
X321901Y-119384D01*
X321400Y-119284D01*
X320705Y-119422D01*
X320116Y-119816D01*
X320075Y-119877D01*
X301300D01*
X300832Y-119970D01*
X300435Y-120235D01*
X298293Y-122377D01*
X290662D01*
Y-88081D01*
X290862D01*
X312176D01*
Y-110275D01*
X312116Y-110316D01*
X311722Y-110905D01*
X311584Y-111600D01*
X311722Y-112295D01*
X312116Y-112884D01*
X312705Y-113278D01*
X313400Y-113416D01*
X314095Y-113278D01*
X314684Y-112884D01*
X315078Y-112295D01*
X315216Y-111600D01*
X315078Y-110905D01*
X314684Y-110316D01*
X314623Y-110275D01*
Y-88081D01*
X373419D01*
X373440Y-88295D01*
D02*
G37*
G36*
X373700Y-230479D02*
X373700Y-259700D01*
X354800Y-259700D01*
X306300Y-308200D01*
X306300Y-325700D01*
X290400D01*
Y-296600D01*
X290300Y-295900D01*
Y-295300D01*
Y-293300D01*
X353121Y-230479D01*
X373700Y-230479D01*
D02*
G37*
G36*
X381500Y-261300D02*
Y-283478D01*
X381543Y-283522D01*
X380965Y-284100D01*
X356500D01*
Y-296400D01*
X327400Y-325500D01*
X307600D01*
Y-309800D01*
X356100Y-261300D01*
X381500Y-261300D01*
D02*
G37*
G36*
X373500Y-209672D02*
X373500Y-228900D01*
X351700D01*
X288900Y-291700D01*
X288900Y-325100D01*
X289000Y-325200D01*
X288793Y-325700D01*
X270000D01*
X269500Y-325200D01*
Y-277900D01*
X337728Y-209672D01*
X373500Y-209672D01*
D02*
G37*
%LPC*%
G36*
X340900Y-95484D02*
X340205Y-95622D01*
X339616Y-96016D01*
X339569Y-96086D01*
X339375Y-96216D01*
X331473Y-104117D01*
X328643D01*
Y-108861D01*
X333780D01*
Y-106424D01*
X341135Y-99069D01*
X341595Y-98978D01*
X342184Y-98584D01*
X342578Y-97995D01*
X342716Y-97300D01*
X342578Y-96605D01*
X342184Y-96016D01*
X341595Y-95622D01*
X340900Y-95484D01*
D02*
G37*
G36*
X207904Y-101716D02*
X207209Y-101855D01*
X206620Y-102248D01*
X206226Y-102837D01*
X206088Y-103532D01*
X206226Y-104227D01*
X206620Y-104816D01*
X206680Y-104857D01*
X206676Y-124199D01*
X206676Y-124199D01*
X206676Y-124199D01*
X206720Y-124424D01*
X206769Y-124667D01*
X206769Y-124667D01*
X206769Y-124667D01*
X206899Y-124862D01*
X207034Y-125064D01*
X207034Y-125064D01*
X207034Y-125064D01*
X213435Y-131465D01*
X213832Y-131730D01*
X214300Y-131824D01*
X233400D01*
X233868Y-131730D01*
X234265Y-131465D01*
X234688Y-131043D01*
X235057Y-131116D01*
X235752Y-130978D01*
X236342Y-130584D01*
X236735Y-129995D01*
X236874Y-129300D01*
X236735Y-128605D01*
X236342Y-128016D01*
X235752Y-127622D01*
X235057Y-127484D01*
X234363Y-127622D01*
X233773Y-128016D01*
X233380Y-128605D01*
X233309Y-128961D01*
X232893Y-129376D01*
X214807D01*
X209123Y-123692D01*
X209127Y-104857D01*
X209188Y-104816D01*
X209582Y-104227D01*
X209720Y-103532D01*
X209582Y-102837D01*
X209188Y-102248D01*
X208599Y-101855D01*
X207904Y-101716D01*
D02*
G37*
G36*
X222369Y-119286D02*
X217231D01*
Y-122496D01*
X216557Y-123170D01*
X216292Y-123567D01*
X216199Y-124035D01*
Y-125027D01*
X215916Y-125216D01*
X215522Y-125805D01*
X215384Y-126500D01*
X215522Y-127195D01*
X215916Y-127784D01*
X216505Y-128178D01*
X217200Y-128316D01*
X217895Y-128178D01*
X218484Y-127784D01*
X218878Y-127195D01*
X219016Y-126500D01*
X218878Y-125805D01*
X218646Y-125458D01*
Y-124542D01*
X219159Y-124029D01*
X222369D01*
Y-122881D01*
X242451D01*
X249077Y-129507D01*
Y-140300D01*
X249170Y-140768D01*
X249435Y-141165D01*
X258535Y-150265D01*
X258932Y-150530D01*
X259400Y-150624D01*
X267575D01*
X267616Y-150684D01*
X268205Y-151078D01*
X268900Y-151216D01*
X269595Y-151078D01*
X270184Y-150684D01*
X270578Y-150095D01*
X270716Y-149400D01*
X270578Y-148705D01*
X270184Y-148116D01*
X269595Y-147722D01*
X268900Y-147584D01*
X268205Y-147722D01*
X267616Y-148116D01*
X267575Y-148177D01*
X259907D01*
X251523Y-139793D01*
Y-129000D01*
X251430Y-128532D01*
X251165Y-128135D01*
X243823Y-120792D01*
X243426Y-120527D01*
X242957Y-120434D01*
X222369D01*
Y-119286D01*
D02*
G37*
G36*
X323542Y-140777D02*
X323074Y-140870D01*
X322677Y-141135D01*
X322412Y-141532D01*
X322319Y-142000D01*
Y-147493D01*
X322257Y-147555D01*
X321992Y-147952D01*
X321899Y-148420D01*
Y-157754D01*
X321843Y-158033D01*
X321936Y-158501D01*
X322202Y-158898D01*
X322599Y-159164D01*
X322782Y-159200D01*
X323352D01*
X323535Y-159164D01*
X323932Y-158898D01*
X323988Y-158843D01*
X324253Y-158446D01*
X324346Y-157978D01*
Y-148927D01*
X324408Y-148865D01*
X324673Y-148468D01*
X324766Y-148000D01*
Y-142000D01*
X324673Y-141532D01*
X324408Y-141135D01*
X324011Y-140870D01*
X323542Y-140777D01*
D02*
G37*
G36*
X331229Y-139432D02*
X326486D01*
Y-144569D01*
X327634D01*
Y-145431D01*
X326486D01*
Y-150568D01*
X327226D01*
Y-158100D01*
X327350Y-158724D01*
X327704Y-159254D01*
X328233Y-159607D01*
X328857Y-159731D01*
X342936D01*
X343005Y-159778D01*
X343700Y-159916D01*
X344395Y-159778D01*
X344984Y-159384D01*
X345378Y-158795D01*
X345516Y-158100D01*
X345378Y-157405D01*
X344984Y-156816D01*
X344395Y-156422D01*
X343700Y-156284D01*
X343005Y-156422D01*
X342936Y-156469D01*
X330489D01*
Y-150568D01*
X331229D01*
Y-145431D01*
X330081D01*
Y-144569D01*
X331229D01*
Y-139432D01*
D02*
G37*
G36*
X295200Y-169484D02*
X294505Y-169622D01*
X293916Y-170016D01*
X293875Y-170077D01*
X284625D01*
X284584Y-170016D01*
X283995Y-169622D01*
X283300Y-169484D01*
X282605Y-169622D01*
X282016Y-170016D01*
X281622Y-170605D01*
X281484Y-171300D01*
X281622Y-171995D01*
X282016Y-172584D01*
X282605Y-172978D01*
X283300Y-173116D01*
X283995Y-172978D01*
X284584Y-172584D01*
X284625Y-172523D01*
X293875D01*
X293916Y-172584D01*
X294505Y-172978D01*
X295200Y-173116D01*
X295895Y-172978D01*
X296484Y-172584D01*
X296878Y-171995D01*
X297016Y-171300D01*
X296878Y-170605D01*
X296484Y-170016D01*
X295895Y-169622D01*
X295200Y-169484D01*
D02*
G37*
G36*
X339153Y-171247D02*
X331847D01*
Y-178553D01*
X339153D01*
Y-171247D01*
D02*
G37*
G36*
X345500Y-171216D02*
X344546Y-171341D01*
X343658Y-171709D01*
X342895Y-172295D01*
X342309Y-173058D01*
X341941Y-173946D01*
X341816Y-174900D01*
X341941Y-175854D01*
X342309Y-176742D01*
X342895Y-177505D01*
X343658Y-178091D01*
X344546Y-178459D01*
X345500Y-178584D01*
X346454Y-178459D01*
X347342Y-178091D01*
X348105Y-177505D01*
X348691Y-176742D01*
X349059Y-175854D01*
X349184Y-174900D01*
X349059Y-173946D01*
X348691Y-173058D01*
X348105Y-172295D01*
X347342Y-171709D01*
X346454Y-171341D01*
X345500Y-171216D01*
D02*
G37*
G36*
X276200Y-204516D02*
X275246Y-204641D01*
X274358Y-205009D01*
X273595Y-205595D01*
X273009Y-206358D01*
X272641Y-207246D01*
X272516Y-208200D01*
X272641Y-209154D01*
X273009Y-210042D01*
X273595Y-210805D01*
X274358Y-211391D01*
X275246Y-211759D01*
X276200Y-211884D01*
X277154Y-211759D01*
X278042Y-211391D01*
X278805Y-210805D01*
X279391Y-210042D01*
X279759Y-209154D01*
X279884Y-208200D01*
X279759Y-207246D01*
X279391Y-206358D01*
X278805Y-205595D01*
X278042Y-205009D01*
X277154Y-204641D01*
X276200Y-204516D01*
D02*
G37*
G36*
X154600Y-275659D02*
X118700D01*
X117881Y-275822D01*
X117186Y-276286D01*
X117182Y-276291D01*
X117176Y-276293D01*
X116647Y-276646D01*
X114547Y-278747D01*
X114193Y-279276D01*
X114069Y-279900D01*
Y-289371D01*
X113131D01*
Y-294114D01*
X118269D01*
Y-289371D01*
X117331D01*
Y-280576D01*
X118088Y-279819D01*
X118700Y-279941D01*
X153713D01*
X155915Y-282143D01*
X156132Y-282468D01*
X156851Y-282949D01*
X157700Y-283117D01*
X158549Y-282949D01*
X159268Y-282468D01*
X159749Y-281749D01*
X159917Y-280900D01*
X159749Y-280051D01*
X159268Y-279332D01*
X158943Y-279115D01*
X156114Y-276286D01*
X155419Y-275822D01*
X154600Y-275659D01*
D02*
G37*
G36*
X298735Y-329936D02*
X297209Y-330086D01*
X295741Y-330531D01*
X294389Y-331254D01*
X293203Y-332227D01*
X292230Y-333413D01*
X291507Y-334766D01*
X291061Y-336233D01*
X290911Y-337760D01*
X291061Y-339286D01*
X291507Y-340754D01*
X292230Y-342107D01*
X293203Y-343292D01*
X294389Y-344266D01*
X295741Y-344988D01*
X297209Y-345434D01*
X298735Y-345584D01*
X300262Y-345434D01*
X301730Y-344988D01*
X303082Y-344266D01*
X304268Y-343292D01*
X305241Y-342107D01*
X305964Y-340754D01*
X306409Y-339286D01*
X306560Y-337760D01*
X306409Y-336233D01*
X305964Y-334766D01*
X305241Y-333413D01*
X304268Y-332227D01*
X303082Y-331254D01*
X301730Y-330531D01*
X300262Y-330086D01*
X298735Y-329936D01*
D02*
G37*
G36*
X282472D02*
X280945Y-330086D01*
X279477Y-330531D01*
X278125Y-331254D01*
X276939Y-332227D01*
X275966Y-333413D01*
X275243Y-334766D01*
X274798Y-336233D01*
X274647Y-337760D01*
X274798Y-339286D01*
X275243Y-340754D01*
X275966Y-342107D01*
X276939Y-343292D01*
X278125Y-344266D01*
X279477Y-344988D01*
X280945Y-345434D01*
X282472Y-345584D01*
X283998Y-345434D01*
X285466Y-344988D01*
X286819Y-344266D01*
X288004Y-343292D01*
X288977Y-342107D01*
X289700Y-340754D01*
X290146Y-339286D01*
X290296Y-337760D01*
X290146Y-336233D01*
X289700Y-334766D01*
X288977Y-333413D01*
X288004Y-332227D01*
X286819Y-331254D01*
X285466Y-330531D01*
D01*
X283998Y-330086D01*
X282472Y-329936D01*
D02*
G37*
G36*
X220708Y-352150D02*
X213008D01*
Y-359850D01*
X220708D01*
Y-352150D01*
D02*
G37*
G36*
X246385Y-352117D02*
X245380Y-352250D01*
X244444Y-352637D01*
X243639Y-353254D01*
X243022Y-354059D01*
X242635Y-354995D01*
X242502Y-356000D01*
X242635Y-357005D01*
X243022Y-357941D01*
X243639Y-358746D01*
X244444Y-359363D01*
X245380Y-359751D01*
X246385Y-359883D01*
X247390Y-359751D01*
X248326Y-359363D01*
X249131Y-358746D01*
X249748Y-357941D01*
X250135Y-357005D01*
X250268Y-356000D01*
X250135Y-354995D01*
X249748Y-354059D01*
X249131Y-353254D01*
X248326Y-352637D01*
X247390Y-352250D01*
X246385Y-352117D01*
D02*
G37*
G36*
X236543D02*
X235538Y-352250D01*
X234602Y-352637D01*
X233797Y-353254D01*
X233180Y-354059D01*
X232792Y-354995D01*
X232660Y-356000D01*
X232792Y-357005D01*
X233180Y-357941D01*
X233797Y-358746D01*
X234602Y-359363D01*
X235538Y-359751D01*
X236543Y-359883D01*
X237548Y-359751D01*
X238484Y-359363D01*
X239289Y-358746D01*
X239906Y-357941D01*
X240294Y-357005D01*
X240426Y-356000D01*
X240294Y-354995D01*
X239906Y-354059D01*
X239289Y-353254D01*
X238484Y-352637D01*
X237548Y-352250D01*
X236543Y-352117D01*
D02*
G37*
G36*
X226700D02*
X225695Y-352250D01*
X224759Y-352637D01*
X223954Y-353254D01*
X223337Y-354059D01*
X222950Y-354995D01*
X222817Y-356000D01*
X222950Y-357005D01*
X223337Y-357941D01*
X223954Y-358746D01*
X224759Y-359363D01*
X225695Y-359751D01*
X226700Y-359883D01*
X227705Y-359751D01*
X228641Y-359363D01*
X229446Y-358746D01*
X230063Y-357941D01*
X230451Y-357005D01*
X230583Y-356000D01*
X230451Y-354995D01*
X230063Y-354059D01*
X229446Y-353254D01*
X228641Y-352637D01*
X227705Y-352250D01*
X226700Y-352117D01*
D02*
G37*
G36*
X315271Y-359577D02*
X313920Y-359710D01*
X312621Y-360104D01*
X311425Y-360744D01*
X310375Y-361605D01*
X309514Y-362654D01*
X308875Y-363851D01*
X308481Y-365149D01*
X308348Y-366500D01*
X308481Y-367851D01*
X308875Y-369149D01*
X309514Y-370346D01*
X310375Y-371395D01*
X311425Y-372256D01*
X312621Y-372896D01*
X313920Y-373290D01*
X315271Y-373423D01*
X316621Y-373290D01*
X317920Y-372896D01*
X319117Y-372256D01*
X320166Y-371395D01*
X321027Y-370346D01*
X321667Y-369149D01*
X322061Y-367851D01*
X322194Y-366500D01*
X322061Y-365149D01*
X321667Y-363851D01*
X321027Y-362654D01*
X320166Y-361605D01*
X319117Y-360744D01*
X317920Y-360104D01*
X316621Y-359710D01*
X315271Y-359577D01*
D02*
G37*
G36*
X282200D02*
X280849Y-359710D01*
X279551Y-360104D01*
X278354Y-360744D01*
X277305Y-361605D01*
X276444Y-362654D01*
X275804Y-363851D01*
X275410Y-365149D01*
X275277Y-366500D01*
X275410Y-367851D01*
X275804Y-369149D01*
X276444Y-370346D01*
X277305Y-371395D01*
X278354Y-372256D01*
X279551Y-372896D01*
X280849Y-373290D01*
X282200Y-373423D01*
X283551Y-373290D01*
X284849Y-372896D01*
X286046Y-372256D01*
X287095Y-371395D01*
X287956Y-370346D01*
X288596Y-369149D01*
X288990Y-367851D01*
X289123Y-366500D01*
X288990Y-365149D01*
X288596Y-363851D01*
X287956Y-362654D01*
X287095Y-361605D01*
X286046Y-360744D01*
X284849Y-360104D01*
X283551Y-359710D01*
X282200Y-359577D01*
D02*
G37*
%LPD*%
D19*
X260300Y-123600D02*
X298800D01*
X250300Y-140300D02*
Y-129000D01*
X242957Y-121658D02*
X250300Y-129000D01*
X219800Y-121658D02*
X242957D01*
X298800Y-123600D02*
X301300Y-121100D01*
X260300Y-123600D02*
Y-123500D01*
X301300Y-121100D02*
X321400D01*
X313400Y-84600D02*
X339503Y-58497D01*
X339442Y-44300D02*
X339503Y-44360D01*
Y-58497D02*
Y-44360D01*
X313400Y-111600D02*
Y-84600D01*
X283300Y-171300D02*
X295200D01*
X323067Y-158033D02*
X323122Y-157978D01*
Y-148420D02*
X323542Y-148000D01*
X323122Y-157978D02*
Y-148420D01*
X323542Y-148000D02*
Y-142000D01*
X328857Y-148000D02*
Y-142000D01*
X321400Y-121100D02*
X321916D01*
X331211Y-111804D01*
X260757Y-176125D02*
Y-171157D01*
X260700Y-171100D02*
X260757Y-171157D01*
Y-182025D02*
Y-176125D01*
X255442Y-182025D02*
Y-176125D01*
X222085Y-185215D02*
Y-179100D01*
X199200Y-208100D02*
X222085Y-185215D01*
X221843Y-202397D02*
Y-202200D01*
X220671Y-203569D02*
X221843Y-202397D01*
X220474Y-203569D02*
X220671D01*
X215943Y-208100D02*
X220474Y-203569D01*
X199200Y-208100D02*
X215943D01*
X259400Y-149400D02*
X268900D01*
X250300Y-140300D02*
X259400Y-149400D01*
X246800Y-103000D02*
X253297D01*
X254776Y-109408D02*
X255300Y-109932D01*
X254776Y-109408D02*
Y-104479D01*
X253297Y-103000D02*
X254776Y-104479D01*
X243900Y-105900D02*
X246800Y-103000D01*
X237700Y-115000D02*
X243900Y-108800D01*
Y-105900D01*
X234700Y-129300D02*
X235057D01*
X233400Y-130600D02*
X234700Y-129300D01*
X214300Y-130600D02*
X233400D01*
X207899Y-124199D02*
X214300Y-130600D01*
X207899Y-124199D02*
X207904Y-103532D01*
X235958Y-116342D02*
X237300Y-115000D01*
X237700D01*
X219800Y-116342D02*
X235958D01*
X219603Y-121658D02*
X219800D01*
X218431Y-122829D02*
X219603Y-121658D01*
X218431Y-123026D02*
Y-122829D01*
X217422Y-124035D02*
X218431Y-123026D01*
X217422Y-126278D02*
Y-124035D01*
X217200Y-126500D02*
X217422Y-126278D01*
X183400Y-74500D02*
X190300Y-81400D01*
X158315Y-74500D02*
X183400D01*
X194200Y-85600D02*
Y-64028D01*
X178500Y-101300D02*
X194200Y-85600D01*
Y-64028D02*
X196128Y-62100D01*
X146915Y-63100D02*
Y-62100D01*
Y-63100D02*
X158315Y-74500D01*
D61*
X115700Y-297058D02*
D03*
Y-291742D02*
D03*
X233700Y-188742D02*
D03*
Y-194058D02*
D03*
X331211Y-111804D02*
D03*
Y-106489D02*
D03*
X219800Y-121658D02*
D03*
Y-116342D02*
D03*
D63*
X40006Y-105417D02*
D03*
Y-110732D02*
D03*
D66*
X222085Y-179100D02*
D03*
X227400D02*
D03*
X221843Y-202200D02*
D03*
X227157D02*
D03*
X255442Y-176125D02*
D03*
X260757D02*
D03*
Y-182025D02*
D03*
X255442D02*
D03*
X323542Y-142000D02*
D03*
X328857D02*
D03*
Y-148000D02*
D03*
X323542D02*
D03*
X215244Y-231824D02*
D03*
X220559D02*
D03*
D77*
X93900Y-254900D02*
X110100D01*
X75200D02*
X93900D01*
Y-269200D02*
Y-254900D01*
X144800D02*
X153600D01*
X110100D02*
X144800D01*
X144430Y-245881D02*
X144800Y-246251D01*
Y-254900D02*
Y-246251D01*
X153600Y-254900D02*
X171000Y-272300D01*
X260300Y-109932D02*
Y-87100D01*
X266800Y-80600D01*
X299100D01*
X309300Y-70400D02*
X317100D01*
X299100Y-80600D02*
X309300Y-70400D01*
X171000Y-289900D02*
Y-272300D01*
X154600Y-277800D02*
X157700Y-280900D01*
X118700Y-277800D02*
X154600D01*
X355700Y-133300D02*
X367700Y-145300D01*
X337000Y-133300D02*
X355700D01*
X351700Y-194400D02*
X367700Y-178400D01*
Y-145300D01*
X312900Y-194400D02*
X351700D01*
X310500Y-196800D02*
X312900Y-194400D01*
X102900Y-187500D02*
X109784Y-194384D01*
Y-245881D02*
Y-194384D01*
X47500Y-187500D02*
X102900D01*
X40200Y-180200D02*
X47500Y-187500D01*
X40200Y-157094D02*
X40597Y-156697D01*
X40200Y-180200D02*
Y-157094D01*
X163080Y-172900D02*
X163280Y-173100D01*
X198600D01*
X162934Y-173047D02*
X163080Y-172900D01*
X109494Y-147014D02*
X142439D01*
X144196Y-156635D02*
Y-148772D01*
X142439Y-147014D02*
X144196Y-148772D01*
X109494Y-156697D02*
Y-147014D01*
X75161D02*
X109494D01*
X39711Y-110732D02*
X40006D01*
X39439Y-111004D02*
X39711Y-110732D01*
X39439Y-111299D02*
Y-111004D01*
X30300Y-120439D02*
X39439Y-111299D01*
X30300Y-186200D02*
Y-120439D01*
X44706Y-200606D02*
X58997D01*
X30300Y-186200D02*
X44706Y-200606D01*
X136131Y-110369D02*
X162700Y-83800D01*
X129051Y-110369D02*
X136131D01*
X127998Y-111421D02*
X129051Y-110369D01*
X109784Y-245881D02*
X110100Y-246197D01*
Y-254900D02*
Y-246197D01*
X40100Y-254900D02*
X75200D01*
Y-246213D02*
X75532Y-245881D01*
X75200Y-254900D02*
Y-246213D01*
X40100Y-246274D02*
X40493Y-245881D01*
X40100Y-254900D02*
Y-246274D01*
X40262Y-147014D02*
X75161D01*
X75046Y-156697D02*
X75161Y-156581D01*
Y-147014D01*
X40262Y-156361D02*
X40597Y-156697D01*
X40262Y-156361D02*
Y-147014D01*
X94036Y-173047D02*
X128288D01*
X58997Y-173047D02*
X94036Y-173047D01*
X58900Y-173047D02*
X58997D01*
X128288Y-173047D02*
X162934D01*
D78*
X214200Y-334600D02*
Y-271100D01*
X227500Y-312900D02*
Y-283500D01*
X227600Y-334500D02*
Y-313000D01*
X227500Y-312900D02*
X227600Y-313000D01*
X227500Y-283500D02*
Y-253400D01*
X298100Y-338395D02*
X298735Y-337760D01*
X115700Y-308100D02*
Y-297058D01*
X111100Y-312700D02*
X115700Y-308100D01*
D79*
X245200Y-182000D02*
X255417D01*
X234000Y-220568D02*
Y-206300D01*
X214200Y-256600D02*
X234000Y-236800D01*
X214200Y-271100D02*
Y-256600D01*
X227500Y-283500D02*
X229942D01*
X199200Y-194900D02*
X213672Y-180428D01*
X117800Y-277800D02*
X118700D01*
X115700Y-291742D02*
Y-279900D01*
X117800Y-277800D01*
X239400Y-187800D02*
X245200Y-182000D01*
X239400Y-190600D02*
Y-187800D01*
X328857Y-158100D02*
X343700D01*
X328857D02*
Y-148000D01*
X331211Y-106489D02*
X331408D01*
X340528Y-97369D01*
X340831D01*
X340900Y-97300D01*
X237800Y-245300D02*
X243733Y-239367D01*
X262556Y-191402D02*
X276402D01*
X260757Y-193200D02*
X262556Y-191402D01*
X260757Y-193200D02*
Y-182025D01*
Y-200218D02*
Y-193200D01*
X243733Y-217242D02*
X260757Y-200218D01*
X243733Y-239367D02*
Y-217242D01*
X237543Y-188742D02*
X239400Y-190600D01*
X233700Y-188742D02*
X237543D01*
X239400Y-200900D02*
Y-190600D01*
X234000Y-206300D02*
X239400Y-200900D01*
X234000Y-236800D02*
Y-220568D01*
X255417Y-182000D02*
X255442Y-182025D01*
X167572Y-134100D02*
X195272Y-161800D01*
X79300Y-134100D02*
X167572D01*
X199200Y-208100D02*
Y-194900D01*
X205600Y-161800D02*
X213672Y-169872D01*
Y-180428D02*
Y-169872D01*
X195272Y-161800D02*
X205600D01*
X227892Y-179100D02*
X232428D01*
X233600Y-188643D02*
X233700Y-188742D01*
X233600Y-188643D02*
Y-180272D01*
X232428Y-179100D02*
X233600Y-180272D01*
X227157Y-195742D02*
X228842Y-194058D01*
X233700D01*
X227157Y-202200D02*
Y-195742D01*
Y-202200D02*
X227300Y-202343D01*
Y-216200D02*
Y-202343D01*
X220559Y-231824D02*
Y-222941D01*
X227300Y-216200D01*
X74050Y-128750D02*
X79300Y-134000D01*
Y-134100D02*
Y-134000D01*
X162700Y-111359D02*
X162772Y-111431D01*
X197831D01*
X197900Y-111500D01*
X30221Y-85679D02*
X40262D01*
X27400Y-88500D02*
X30221Y-85679D01*
X27400Y-104084D02*
Y-88500D01*
X22600Y-108884D02*
X27400Y-104084D01*
X22600Y-192100D02*
Y-108884D01*
Y-192100D02*
X39800Y-209300D01*
X85342D02*
X94036Y-200606D01*
X39800Y-209300D02*
X85342D01*
X162934Y-245881D02*
Y-245334D01*
D80*
X59101Y-156697D02*
D03*
Y-111421D02*
D03*
Y-83862D02*
D03*
X40597Y-156697D02*
D03*
X93550D02*
D03*
Y-111421D02*
D03*
Y-83862D02*
D03*
X75046Y-156697D02*
D03*
X127998D02*
D03*
Y-111421D02*
D03*
Y-83862D02*
D03*
X109494Y-156697D02*
D03*
X162700Y-156635D02*
D03*
Y-111359D02*
D03*
Y-83800D02*
D03*
X144196Y-156635D02*
D03*
X162934Y-245881D02*
D03*
Y-200606D02*
D03*
Y-173047D02*
D03*
X144430Y-245881D02*
D03*
X40493D02*
D03*
X58997Y-173047D02*
D03*
Y-200606D02*
D03*
Y-245881D02*
D03*
X109784D02*
D03*
X128288Y-173047D02*
D03*
Y-200606D02*
D03*
Y-245881D02*
D03*
X75532D02*
D03*
X94036Y-173047D02*
D03*
Y-200606D02*
D03*
Y-245881D02*
D03*
D81*
X36842Y-61321D02*
D03*
X27000D02*
D03*
X46685D02*
D03*
X236543Y-356000D02*
D03*
X246385D02*
D03*
X226700D02*
D03*
D82*
X56527Y-61321D02*
D03*
X216858Y-356000D02*
D03*
D83*
X220700Y-61400D02*
D03*
X230542D02*
D03*
X264600D02*
D03*
X274443D02*
D03*
X186285Y-62100D02*
D03*
X176443D02*
D03*
X166600D02*
D03*
X156757D02*
D03*
X146915D02*
D03*
D84*
X240385Y-61400D02*
D03*
X284285D02*
D03*
X196128Y-62100D02*
D03*
D85*
X109442Y-44300D02*
D03*
X339442D02*
D03*
X365500Y-292243D02*
D03*
Y-239200D02*
D03*
D86*
X89758Y-44300D02*
D03*
X319758D02*
D03*
D87*
X282200Y-316106D02*
D03*
X298735D02*
D03*
X315271D02*
D03*
Y-337760D02*
D03*
X298735D02*
D03*
X282472D02*
D03*
D88*
X282200Y-366500D02*
D03*
X315271D02*
D03*
D89*
X365500Y-272557D02*
D03*
Y-219515D02*
D03*
D90*
X266200Y-208200D02*
D03*
X335500Y-174900D02*
D03*
D91*
X276200Y-208200D02*
D03*
X345500Y-174900D02*
D03*
D92*
X250300Y-109932D02*
D03*
D93*
X255300D02*
D03*
X260300D02*
D03*
D94*
X381890Y-381890D02*
D03*
X11811D02*
D03*
X381890Y-86614D02*
D03*
X11811D02*
D03*
D95*
X32605Y-359050D02*
D03*
X275200Y-243900D02*
D03*
X337000Y-133300D02*
D03*
X310500Y-196800D02*
D03*
X313000Y-210200D02*
D03*
X92800Y-312300D02*
D03*
X93000Y-319000D02*
D03*
X229942Y-283500D02*
D03*
X57469Y-359050D02*
D03*
X119880D02*
D03*
X107398D02*
D03*
X94915D02*
D03*
X82433D02*
D03*
X69951D02*
D03*
X44987D02*
D03*
X201300Y-143300D02*
D03*
X260300Y-123500D02*
D03*
X313400Y-111600D02*
D03*
X283300Y-171300D02*
D03*
X356700Y-124500D02*
D03*
X300300Y-96700D02*
D03*
X273200Y-97200D02*
D03*
X268800Y-136000D02*
D03*
X247000Y-158700D02*
D03*
X244500Y-148500D02*
D03*
X256700Y-140116D02*
D03*
X276100Y-220500D02*
D03*
X118700Y-277800D02*
D03*
X111100Y-312700D02*
D03*
X295200Y-171300D02*
D03*
X328857Y-148000D02*
D03*
X323067Y-158033D02*
D03*
X343700Y-158100D02*
D03*
X321400Y-121100D02*
D03*
X340900Y-97300D02*
D03*
X237800Y-245300D02*
D03*
X260700Y-171100D02*
D03*
X276402Y-191402D02*
D03*
X249900Y-181800D02*
D03*
X234100Y-216000D02*
D03*
X234000Y-220568D02*
D03*
X227892Y-179100D02*
D03*
X227157Y-202200D02*
D03*
X220559Y-231824D02*
D03*
X215244D02*
D03*
X199200Y-208100D02*
D03*
X268900Y-149400D02*
D03*
X235057Y-129300D02*
D03*
X207904Y-103532D02*
D03*
X237700Y-115000D02*
D03*
X217200Y-126500D02*
D03*
X190300Y-81400D02*
D03*
X178500Y-101300D02*
D03*
D96*
X93900Y-269200D02*
D03*
X317100Y-70400D02*
D03*
X171000Y-289900D02*
D03*
X157700Y-280900D02*
D03*
X214200Y-334600D02*
D03*
X227600Y-334500D02*
D03*
X227500Y-253400D02*
D03*
X214200Y-271100D02*
D03*
X198600Y-173100D02*
D03*
X74050Y-128750D02*
D03*
X54800Y-102300D02*
D03*
X74300D02*
D03*
X59675D02*
D03*
X64550D02*
D03*
X69425D02*
D03*
X54700Y-97900D02*
D03*
X74200D02*
D03*
X59575D02*
D03*
X64450D02*
D03*
X69325D02*
D03*
X69425Y-93500D02*
D03*
X64550D02*
D03*
X59675D02*
D03*
X74300D02*
D03*
X54800D02*
D03*
X197900Y-111500D02*
D03*
D97*
X331200Y-301900D02*
D03*
X331100Y-270800D02*
D03*
X330000Y-234000D02*
D03*
X340600Y-224100D02*
D03*
X342300Y-260200D02*
D03*
X342400Y-291600D02*
D03*
X366900Y-338900D02*
D03*
X352000D02*
D03*
Y-325200D02*
D03*
X366900D02*
D03*
D98*
X40851Y-96783D02*
D03*
Y-84972D02*
D03*
X80951Y-83272D02*
D03*
Y-95083D02*
D03*
X114810Y-82484D02*
D03*
Y-94295D02*
D03*
D99*
X48662Y-93650D02*
D03*
Y-85579D02*
D03*
M02*
