M48
;Layer_Color=9474304
;FILE_FORMAT=2:5
INCH,TZ
;TYPE=PLATED
T1F00S00C0.01181
T2F00S00C0.01575
T3F00S00C0.02953
T4F00S00C0.03543
T5F00S00C0.03937
T6F00S00C0.04200
T7F00S00C0.04400
T8F00S00C0.05118
T9F00S00C0.07087
T10F00S00C0.11811
%
T01
X32605Y-359050
X44987
X57469
X69951
X82433
X94915
X107398
X119880
X229942Y-283500
X237800Y-245300
X234000Y-220568
X234100Y-216000
X227157Y-202200
X220559Y-231824
X215244
X275200Y-243900
X276100Y-220500
X276402Y-191402
X249900Y-181800
X310500Y-196800
X313000Y-210200
X199200Y-208100
X118700Y-277800
X111100Y-312700
X92800Y-312300
X93000Y-319000
X201300Y-143300
X207904Y-103532
X178500Y-101300
X190300Y-81400
X217200Y-126500
X235057Y-129300
X237700Y-115000
X260300Y-123500
X256700Y-140116
X268800Y-136000
X268900Y-149400
X244500Y-148500
X247000Y-158700
X260700Y-171100
X283300Y-171300
X295200
X323067Y-158033
X328857Y-148000
X337000Y-133300
X321400Y-121100
X313400Y-111600
X300300Y-96700
X273200Y-97200
X340900Y-97300
X356700Y-124500
X343700Y-158100
X227892Y-179100
T02
X214200Y-334600
X227600Y-334500
X214200Y-271100
X227500Y-253400
X171000Y-289900
X157700Y-280900
X93900Y-269200
X54800Y-102300
X54700Y-97900
X54800Y-93500
X59675
X59575Y-97900
X59675Y-102300
X64550
X64450Y-97900
X64550Y-93500
X69425
X69325Y-97900
X69425Y-102300
X74300
X74200Y-97900
X74300Y-93500
X74050Y-128750
X197900Y-111500
X198600Y-173100
X317100Y-70400
T03
X250300Y-109932
X255300
X260300
T04
X266200Y-208200
X276200
X335500Y-174900
X345500
T05
X216858Y-356000
X226700
X236543
X246385
X46685Y-61321
X36842
X27000
X56527
T06
X146915Y-62100
X156757
X166600
X176443
X186285
X196128
X220700Y-61400
X230542
X240385
X264600
X274443
X284285
T07
X58997Y-245881
X75532
X94036
X109784
X128288
X144430
X162934
Y-200606
X128288
X94036
X58997
X40493Y-245881
X40597Y-156697
X59101
X75046
X93550
X109494
X127998
X144196Y-156635
X162700
X162934Y-173047
X128288
X94036
X58997
X59101Y-111421
Y-83862
X93550
Y-111421
X127998
Y-83862
X162700Y-83800
Y-111359
T08
X365500Y-292243
Y-272557
Y-239200
Y-219515
X109442Y-44300
X89758
X319758
X339442
T09
X282472Y-337760
X298735
X315271
X352000Y-338900
X366900
Y-325200
X352000
X342400Y-291600
X331200Y-301900
X315271Y-316106
X298735
X282200
X331100Y-270800
X342300Y-260200
X340600Y-224100
X330000Y-234000
T10
X11811Y-381890
X282200Y-366500
X315271
X381890Y-381890
X11811Y-86614
X381890
M30
