G04*
G04 #@! TF.GenerationSoftware,Altium Limited,Altium Designer,20.0.2 (26)*
G04*
G04 Layer_Physical_Order=2*
G04 Layer_Color=13391121*
%FSLAX25Y25*%
%MOIN*%
G70*
G01*
G75*
%ADD14C,0.01200*%
%ADD44R,0.03150X0.03543*%
%ADD45R,0.03543X0.03150*%
%ADD46R,0.06102X0.03937*%
%ADD56C,0.05000*%
%ADD58C,0.02000*%
%ADD61C,0.07087*%
%ADD62R,0.07087X0.07087*%
%ADD63C,0.09843*%
%ADD64C,0.06000*%
%ADD65R,0.07087X0.07087*%
%ADD66C,0.11024*%
%ADD67C,0.14173*%
%ADD68C,0.06693*%
%ADD69C,0.02362*%
%ADD70C,0.03000*%
%ADD71C,0.02500*%
%ADD72R,0.04921X0.02756*%
%ADD73R,0.03937X0.03937*%
%ADD74R,0.03937X0.06102*%
%ADD75C,0.04724*%
%ADD76C,0.03000*%
G36*
X385000Y-3000D02*
X392500Y-10500D01*
Y-383500D01*
X391500D01*
X383500Y-391000D01*
X105000Y-391000D01*
Y-303730D01*
X106604Y-302127D01*
X106869Y-301730D01*
X106962Y-301261D01*
Y-266268D01*
X122861Y-250370D01*
X123268Y-250634D01*
X122895Y-251534D01*
X122768Y-252500D01*
X122895Y-253466D01*
X123268Y-254366D01*
X123861Y-255139D01*
X124634Y-255732D01*
X125534Y-256105D01*
X126500Y-256232D01*
X127466Y-256105D01*
X128366Y-255732D01*
X129139Y-255139D01*
X129732Y-254366D01*
X130105Y-253466D01*
X130232Y-252500D01*
X130105Y-251534D01*
X129732Y-250634D01*
X129139Y-249861D01*
X128366Y-249268D01*
X128258Y-249223D01*
X128358Y-248724D01*
X131500D01*
X131968Y-248630D01*
X132365Y-248365D01*
X134892Y-245839D01*
X135534Y-246105D01*
X136500Y-246232D01*
X137466Y-246105D01*
X138366Y-245732D01*
X139139Y-245139D01*
X139732Y-244366D01*
X140105Y-243466D01*
X140232Y-242500D01*
X140105Y-241534D01*
X139732Y-240634D01*
X139139Y-239861D01*
X138366Y-239268D01*
X137466Y-238895D01*
X136500Y-238768D01*
X135534Y-238895D01*
X134634Y-239268D01*
X133861Y-239861D01*
X133268Y-240634D01*
X132895Y-241534D01*
X132768Y-242500D01*
X132895Y-243466D01*
X133161Y-244108D01*
X130993Y-246276D01*
X128358D01*
X128258Y-245777D01*
X128366Y-245732D01*
X129139Y-245139D01*
X129732Y-244366D01*
X130105Y-243466D01*
X130232Y-242500D01*
X130105Y-241534D01*
X129732Y-240634D01*
X129139Y-239861D01*
X128366Y-239268D01*
X127466Y-238895D01*
X126500Y-238768D01*
X125534Y-238895D01*
X124634Y-239268D01*
X123861Y-239861D01*
X123268Y-240634D01*
X122895Y-241534D01*
X122768Y-242500D01*
X122895Y-243466D01*
X123268Y-244366D01*
X123861Y-245139D01*
X124634Y-245732D01*
X124742Y-245777D01*
X124642Y-246276D01*
X124000D01*
X123532Y-246370D01*
X123135Y-246635D01*
X105462Y-264308D01*
X105000Y-264116D01*
X105000Y-2000D01*
X385000Y-2000D01*
Y-3000D01*
D02*
G37*
%LPC*%
G36*
X381890Y-4888D02*
X380539Y-5021D01*
X379240Y-5415D01*
X378044Y-6055D01*
X376994Y-6916D01*
X376133Y-7965D01*
X375494Y-9162D01*
X375100Y-10460D01*
X374967Y-11811D01*
X375100Y-13162D01*
X375494Y-14460D01*
X376133Y-15657D01*
X376994Y-16706D01*
X378044Y-17567D01*
X379240Y-18207D01*
X380539Y-18601D01*
X381890Y-18734D01*
X383240Y-18601D01*
X384539Y-18207D01*
X385736Y-17567D01*
X386785Y-16706D01*
X387646Y-15657D01*
X388286Y-14460D01*
X388680Y-13162D01*
X388813Y-11811D01*
X388680Y-10460D01*
X388286Y-9162D01*
X387646Y-7965D01*
X386785Y-6916D01*
X385736Y-6055D01*
X384539Y-5415D01*
X383240Y-5021D01*
X381890Y-4888D01*
D02*
G37*
G36*
X261243Y-14296D02*
X252757D01*
Y-22782D01*
X261243D01*
Y-14296D01*
D02*
G37*
G36*
X248743D02*
X240257D01*
Y-22782D01*
X248743D01*
Y-14296D01*
D02*
G37*
G36*
X236243D02*
X227757D01*
Y-22782D01*
X236243D01*
Y-14296D01*
D02*
G37*
G36*
X223743D02*
X215257D01*
Y-22782D01*
X223743D01*
Y-14296D01*
D02*
G37*
G36*
X175816Y-12830D02*
X174349Y-13023D01*
X172982Y-13590D01*
X171807Y-14491D01*
X170906Y-15665D01*
X170340Y-17033D01*
X170147Y-18500D01*
X170340Y-19967D01*
X170906Y-21335D01*
X171807Y-22509D01*
X172982Y-23410D01*
X174349Y-23977D01*
X175816Y-24170D01*
X177284Y-23977D01*
X178651Y-23410D01*
X179826Y-22509D01*
X180727Y-21335D01*
X181293Y-19967D01*
X181486Y-18500D01*
X181293Y-17033D01*
X180727Y-15665D01*
X179826Y-14491D01*
X178651Y-13590D01*
X177284Y-13023D01*
X175816Y-12830D01*
D02*
G37*
G36*
X300500Y-7758D02*
X299282Y-7878D01*
X298111Y-8233D01*
X297032Y-8810D01*
X296086Y-9586D01*
X295310Y-10532D01*
X295128Y-10873D01*
X290000D01*
X289191Y-10980D01*
X288437Y-11292D01*
X287789Y-11789D01*
X267205Y-32373D01*
X213797D01*
X201026Y-19603D01*
X201171Y-18500D01*
X200978Y-17033D01*
X200412Y-15665D01*
X199511Y-14491D01*
X198336Y-13590D01*
X196969Y-13023D01*
X195501Y-12830D01*
X194034Y-13023D01*
X192667Y-13590D01*
X191492Y-14491D01*
X190591Y-15665D01*
X190025Y-17033D01*
X189832Y-18500D01*
X190025Y-19967D01*
X190591Y-21335D01*
X191492Y-22509D01*
X192667Y-23410D01*
X194034Y-23977D01*
X195501Y-24170D01*
X196604Y-24025D01*
X210291Y-37711D01*
X210938Y-38208D01*
X211692Y-38520D01*
X212501Y-38627D01*
X212502Y-38627D01*
X268500D01*
X268500Y-38627D01*
X268905Y-38574D01*
X269309Y-38520D01*
X270063Y-38208D01*
X270711Y-37711D01*
X291295Y-17127D01*
X295128D01*
X295310Y-17468D01*
X296086Y-18414D01*
X297032Y-19190D01*
X298111Y-19767D01*
X299282Y-20122D01*
X300500Y-20242D01*
X301718Y-20122D01*
X302889Y-19767D01*
X303968Y-19190D01*
X304914Y-18414D01*
X305690Y-17468D01*
X306267Y-16389D01*
X306622Y-15218D01*
X306742Y-14000D01*
X306622Y-12782D01*
X306267Y-11611D01*
X305690Y-10532D01*
X304914Y-9586D01*
X303968Y-8810D01*
X302889Y-8233D01*
X301718Y-7878D01*
X300500Y-7758D01*
D02*
G37*
G36*
X351000Y-32035D02*
X349892Y-32181D01*
X348860Y-32609D01*
X347974Y-33289D01*
X347293Y-34175D01*
X346866Y-35207D01*
X346720Y-36315D01*
X346866Y-37423D01*
X347293Y-38455D01*
X347974Y-39341D01*
X348860Y-40021D01*
X349892Y-40449D01*
X351000Y-40595D01*
X352108Y-40449D01*
X353140Y-40021D01*
X354026Y-39341D01*
X354707Y-38455D01*
X355134Y-37423D01*
X355280Y-36315D01*
X355134Y-35207D01*
X354707Y-34175D01*
X354026Y-33289D01*
X353140Y-32609D01*
X352108Y-32181D01*
X351000Y-32035D01*
D02*
G37*
G36*
X377110Y-32377D02*
X376002Y-32523D01*
X374970Y-32950D01*
X374083Y-33631D01*
X373403Y-34517D01*
X372976Y-35549D01*
X372830Y-36657D01*
X372976Y-37765D01*
X373403Y-38797D01*
X374083Y-39683D01*
X374970Y-40363D01*
X376002Y-40791D01*
X377110Y-40937D01*
X378218Y-40791D01*
X379250Y-40363D01*
X380136Y-39683D01*
X380816Y-38797D01*
X381244Y-37765D01*
X381390Y-36657D01*
X381244Y-35549D01*
X380816Y-34517D01*
X380136Y-33631D01*
X379250Y-32950D01*
X378218Y-32523D01*
X377110Y-32377D01*
D02*
G37*
G36*
X351000Y-51720D02*
X349892Y-51866D01*
X348860Y-52293D01*
X347974Y-52974D01*
X347293Y-53860D01*
X346866Y-54892D01*
X346720Y-56000D01*
X346866Y-57108D01*
X347293Y-58140D01*
X347974Y-59026D01*
X348860Y-59706D01*
X349892Y-60134D01*
X351000Y-60280D01*
X352108Y-60134D01*
X353140Y-59706D01*
X354026Y-59026D01*
X354707Y-58140D01*
X355134Y-57108D01*
X355280Y-56000D01*
X355134Y-54892D01*
X354707Y-53860D01*
X354026Y-52974D01*
X353140Y-52293D01*
X352108Y-51866D01*
X351000Y-51720D01*
D02*
G37*
G36*
X377110Y-52062D02*
X376002Y-52208D01*
X374970Y-52636D01*
X374083Y-53316D01*
X373403Y-54202D01*
X372976Y-55234D01*
X372830Y-56342D01*
X372976Y-57450D01*
X373403Y-58482D01*
X374083Y-59368D01*
X374970Y-60049D01*
X376002Y-60476D01*
X377110Y-60622D01*
X378218Y-60476D01*
X379250Y-60049D01*
X380136Y-59368D01*
X380816Y-58482D01*
X381244Y-57450D01*
X381390Y-56342D01*
X381244Y-55234D01*
X380816Y-54202D01*
X380136Y-53316D01*
X379250Y-52636D01*
X378218Y-52208D01*
X377110Y-52062D01*
D02*
G37*
G36*
X351000Y-61563D02*
X349892Y-61709D01*
X348860Y-62137D01*
X347974Y-62817D01*
X347293Y-63703D01*
X346866Y-64735D01*
X346720Y-65843D01*
X346866Y-66951D01*
X347293Y-67983D01*
X347974Y-68869D01*
X348860Y-69550D01*
X349892Y-69977D01*
X351000Y-70123D01*
X352108Y-69977D01*
X353140Y-69550D01*
X354026Y-68869D01*
X354707Y-67983D01*
X355134Y-66951D01*
X355280Y-65843D01*
X355134Y-64735D01*
X354707Y-63703D01*
X354026Y-62817D01*
X353140Y-62137D01*
X352108Y-61709D01*
X351000Y-61563D01*
D02*
G37*
G36*
X377110Y-61905D02*
X376002Y-62051D01*
X374970Y-62479D01*
X374083Y-63159D01*
X373403Y-64045D01*
X372976Y-65077D01*
X372830Y-66185D01*
X372976Y-67293D01*
X373403Y-68325D01*
X374083Y-69211D01*
X374970Y-69892D01*
X376002Y-70319D01*
X377110Y-70465D01*
X378218Y-70319D01*
X379250Y-69892D01*
X380136Y-69211D01*
X380816Y-68325D01*
X381244Y-67293D01*
X381390Y-66185D01*
X381244Y-65077D01*
X380816Y-64045D01*
X380136Y-63159D01*
X379250Y-62479D01*
X378218Y-62051D01*
X377110Y-61905D01*
D02*
G37*
G36*
X196500Y-68768D02*
X195534Y-68895D01*
X194634Y-69268D01*
X193861Y-69861D01*
X193268Y-70634D01*
X192895Y-71534D01*
X192768Y-72500D01*
X192895Y-73466D01*
X193268Y-74366D01*
X193861Y-75139D01*
X194634Y-75732D01*
X195534Y-76105D01*
X196500Y-76232D01*
X197466Y-76105D01*
X198366Y-75732D01*
X199139Y-75139D01*
X199732Y-74366D01*
X200105Y-73466D01*
X200232Y-72500D01*
X200105Y-71534D01*
X199732Y-70634D01*
X199139Y-69861D01*
X198366Y-69268D01*
X197466Y-68895D01*
X196500Y-68768D01*
D02*
G37*
G36*
X186500D02*
X185534Y-68895D01*
X184634Y-69268D01*
X183861Y-69861D01*
X183268Y-70634D01*
X182895Y-71534D01*
X182768Y-72500D01*
X182895Y-73466D01*
X183268Y-74366D01*
X183861Y-75139D01*
X184634Y-75732D01*
X185534Y-76105D01*
X186500Y-76232D01*
X187466Y-76105D01*
X188366Y-75732D01*
X189139Y-75139D01*
X189732Y-74366D01*
X190105Y-73466D01*
X190232Y-72500D01*
X190105Y-71534D01*
X189732Y-70634D01*
X189139Y-69861D01*
X188366Y-69268D01*
X187466Y-68895D01*
X186500Y-68768D01*
D02*
G37*
G36*
X176500D02*
X175534Y-68895D01*
X174634Y-69268D01*
X173861Y-69861D01*
X173268Y-70634D01*
X172895Y-71534D01*
X172768Y-72500D01*
X172895Y-73466D01*
X173268Y-74366D01*
X173861Y-75139D01*
X174634Y-75732D01*
X175534Y-76105D01*
X176500Y-76232D01*
X177466Y-76105D01*
X178366Y-75732D01*
X179139Y-75139D01*
X179732Y-74366D01*
X180105Y-73466D01*
X180232Y-72500D01*
X180105Y-71534D01*
X179732Y-70634D01*
X179139Y-69861D01*
X178366Y-69268D01*
X177466Y-68895D01*
X176500Y-68768D01*
D02*
G37*
G36*
X166500D02*
X165534Y-68895D01*
X164634Y-69268D01*
X163861Y-69861D01*
X163268Y-70634D01*
X162895Y-71534D01*
X162768Y-72500D01*
X162895Y-73466D01*
X163268Y-74366D01*
X163861Y-75139D01*
X164634Y-75732D01*
X165534Y-76105D01*
X166500Y-76232D01*
X167466Y-76105D01*
X168366Y-75732D01*
X169139Y-75139D01*
X169732Y-74366D01*
X170105Y-73466D01*
X170232Y-72500D01*
X170105Y-71534D01*
X169732Y-70634D01*
X169139Y-69861D01*
X168366Y-69268D01*
X167466Y-68895D01*
X166500Y-68768D01*
D02*
G37*
G36*
X156500D02*
X155534Y-68895D01*
X154634Y-69268D01*
X153861Y-69861D01*
X153268Y-70634D01*
X152895Y-71534D01*
X152768Y-72500D01*
X152895Y-73466D01*
X153268Y-74366D01*
X153861Y-75139D01*
X154634Y-75732D01*
X155534Y-76105D01*
X156500Y-76232D01*
X157466Y-76105D01*
X158366Y-75732D01*
X159139Y-75139D01*
X159732Y-74366D01*
X160105Y-73466D01*
X160232Y-72500D01*
X160105Y-71534D01*
X159732Y-70634D01*
X159139Y-69861D01*
X158366Y-69268D01*
X157466Y-68895D01*
X156500Y-68768D01*
D02*
G37*
G36*
X146500D02*
X145534Y-68895D01*
X144634Y-69268D01*
X143861Y-69861D01*
X143268Y-70634D01*
X142895Y-71534D01*
X142768Y-72500D01*
X142895Y-73466D01*
X143268Y-74366D01*
X143861Y-75139D01*
X144634Y-75732D01*
X145534Y-76105D01*
X146500Y-76232D01*
X147466Y-76105D01*
X148366Y-75732D01*
X149139Y-75139D01*
X149732Y-74366D01*
X150105Y-73466D01*
X150232Y-72500D01*
X150105Y-71534D01*
X149732Y-70634D01*
X149139Y-69861D01*
X148366Y-69268D01*
X147466Y-68895D01*
X146500Y-68768D01*
D02*
G37*
G36*
X351000Y-71405D02*
X349892Y-71551D01*
X348860Y-71978D01*
X347974Y-72659D01*
X347293Y-73545D01*
X346866Y-74577D01*
X346720Y-75685D01*
X346866Y-76793D01*
X347293Y-77825D01*
X347974Y-78711D01*
X348860Y-79391D01*
X349892Y-79819D01*
X351000Y-79965D01*
X352108Y-79819D01*
X353140Y-79391D01*
X354026Y-78711D01*
X354707Y-77825D01*
X355134Y-76793D01*
X355280Y-75685D01*
X355134Y-74577D01*
X354707Y-73545D01*
X354026Y-72659D01*
X353140Y-71978D01*
X352108Y-71551D01*
X351000Y-71405D01*
D02*
G37*
G36*
X377110Y-71747D02*
X376002Y-71893D01*
X374970Y-72320D01*
X374083Y-73001D01*
X373403Y-73887D01*
X372976Y-74919D01*
X372830Y-76027D01*
X372976Y-77135D01*
X373403Y-78167D01*
X374083Y-79053D01*
X374970Y-79734D01*
X376002Y-80161D01*
X377110Y-80307D01*
X378218Y-80161D01*
X379250Y-79734D01*
X380136Y-79053D01*
X380816Y-78167D01*
X381244Y-77135D01*
X381390Y-76027D01*
X381244Y-74919D01*
X380816Y-73887D01*
X380136Y-73001D01*
X379250Y-72320D01*
X378218Y-71893D01*
X377110Y-71747D01*
D02*
G37*
G36*
X286500Y-78768D02*
X285534Y-78895D01*
X284634Y-79268D01*
X283861Y-79861D01*
X283268Y-80634D01*
X282895Y-81534D01*
X282768Y-82500D01*
X282895Y-83466D01*
X283268Y-84366D01*
X283861Y-85139D01*
X284634Y-85732D01*
X285534Y-86105D01*
X286500Y-86232D01*
X287466Y-86105D01*
X288366Y-85732D01*
X289139Y-85139D01*
X289732Y-84366D01*
X290105Y-83466D01*
X290232Y-82500D01*
X290105Y-81534D01*
X289732Y-80634D01*
X289139Y-79861D01*
X288366Y-79268D01*
X287466Y-78895D01*
X286500Y-78768D01*
D02*
G37*
G36*
X276500D02*
X275534Y-78895D01*
X274634Y-79268D01*
X273861Y-79861D01*
X273268Y-80634D01*
X272895Y-81534D01*
X272768Y-82500D01*
X272895Y-83466D01*
X273268Y-84366D01*
X273861Y-85139D01*
X274634Y-85732D01*
X275534Y-86105D01*
X276500Y-86232D01*
X277466Y-86105D01*
X278366Y-85732D01*
X279139Y-85139D01*
X279732Y-84366D01*
X280105Y-83466D01*
X280232Y-82500D01*
X280105Y-81534D01*
X279732Y-80634D01*
X279139Y-79861D01*
X278366Y-79268D01*
X277466Y-78895D01*
X276500Y-78768D01*
D02*
G37*
G36*
X196500D02*
X195534Y-78895D01*
X194634Y-79268D01*
X193861Y-79861D01*
X193268Y-80634D01*
X192895Y-81534D01*
X192768Y-82500D01*
X192895Y-83466D01*
X193268Y-84366D01*
X193861Y-85139D01*
X194634Y-85732D01*
X195534Y-86105D01*
X196500Y-86232D01*
X197466Y-86105D01*
X198366Y-85732D01*
X199139Y-85139D01*
X199732Y-84366D01*
X200105Y-83466D01*
X200232Y-82500D01*
X200105Y-81534D01*
X199732Y-80634D01*
X199139Y-79861D01*
X198366Y-79268D01*
X197466Y-78895D01*
X196500Y-78768D01*
D02*
G37*
G36*
X186500D02*
X185534Y-78895D01*
X184634Y-79268D01*
X183861Y-79861D01*
X183268Y-80634D01*
X182895Y-81534D01*
X182768Y-82500D01*
X182895Y-83466D01*
X183268Y-84366D01*
X183861Y-85139D01*
X184634Y-85732D01*
X185534Y-86105D01*
X186500Y-86232D01*
X187466Y-86105D01*
X188366Y-85732D01*
X189139Y-85139D01*
X189732Y-84366D01*
X190105Y-83466D01*
X190232Y-82500D01*
X190105Y-81534D01*
X189732Y-80634D01*
X189139Y-79861D01*
X188366Y-79268D01*
X187466Y-78895D01*
X186500Y-78768D01*
D02*
G37*
G36*
X176500D02*
X175534Y-78895D01*
X174634Y-79268D01*
X173861Y-79861D01*
X173268Y-80634D01*
X172895Y-81534D01*
X172768Y-82500D01*
X172895Y-83466D01*
X173268Y-84366D01*
X173861Y-85139D01*
X174634Y-85732D01*
X175534Y-86105D01*
X176500Y-86232D01*
X177466Y-86105D01*
X178366Y-85732D01*
X179139Y-85139D01*
X179732Y-84366D01*
X180105Y-83466D01*
X180232Y-82500D01*
X180105Y-81534D01*
X179732Y-80634D01*
X179139Y-79861D01*
X178366Y-79268D01*
X177466Y-78895D01*
X176500Y-78768D01*
D02*
G37*
G36*
X166500D02*
X165534Y-78895D01*
X164634Y-79268D01*
X163861Y-79861D01*
X163268Y-80634D01*
X162895Y-81534D01*
X162768Y-82500D01*
X162895Y-83466D01*
X163268Y-84366D01*
X163861Y-85139D01*
X164634Y-85732D01*
X165534Y-86105D01*
X166500Y-86232D01*
X167466Y-86105D01*
X168366Y-85732D01*
X169139Y-85139D01*
X169732Y-84366D01*
X170105Y-83466D01*
X170232Y-82500D01*
X170105Y-81534D01*
X169732Y-80634D01*
X169139Y-79861D01*
X168366Y-79268D01*
X167466Y-78895D01*
X166500Y-78768D01*
D02*
G37*
G36*
X156500D02*
X155534Y-78895D01*
X154634Y-79268D01*
X153861Y-79861D01*
X153268Y-80634D01*
X152895Y-81534D01*
X152768Y-82500D01*
X152895Y-83466D01*
X153268Y-84366D01*
X153861Y-85139D01*
X154634Y-85732D01*
X155534Y-86105D01*
X156500Y-86232D01*
X157466Y-86105D01*
X158366Y-85732D01*
X159139Y-85139D01*
X159732Y-84366D01*
X160105Y-83466D01*
X160232Y-82500D01*
X160105Y-81534D01*
X159732Y-80634D01*
X159139Y-79861D01*
X158366Y-79268D01*
X157466Y-78895D01*
X156500Y-78768D01*
D02*
G37*
G36*
X146500D02*
X145534Y-78895D01*
X144634Y-79268D01*
X143861Y-79861D01*
X143268Y-80634D01*
X142895Y-81534D01*
X142768Y-82500D01*
X142895Y-83466D01*
X143268Y-84366D01*
X143861Y-85139D01*
X144634Y-85732D01*
X145534Y-86105D01*
X146500Y-86232D01*
X147466Y-86105D01*
X148366Y-85732D01*
X149139Y-85139D01*
X149732Y-84366D01*
X150105Y-83466D01*
X150232Y-82500D01*
X150105Y-81534D01*
X149732Y-80634D01*
X149139Y-79861D01*
X148366Y-79268D01*
X147466Y-78895D01*
X146500Y-78768D01*
D02*
G37*
G36*
X136500D02*
X135534Y-78895D01*
X134634Y-79268D01*
X133861Y-79861D01*
X133268Y-80634D01*
X132895Y-81534D01*
X132768Y-82500D01*
X132895Y-83466D01*
X133268Y-84366D01*
X133861Y-85139D01*
X134634Y-85732D01*
X135534Y-86105D01*
X136500Y-86232D01*
X137466Y-86105D01*
X138366Y-85732D01*
X139139Y-85139D01*
X139732Y-84366D01*
X140105Y-83466D01*
X140232Y-82500D01*
X140105Y-81534D01*
X139732Y-80634D01*
X139139Y-79861D01*
X138366Y-79268D01*
X137466Y-78895D01*
X136500Y-78768D01*
D02*
G37*
G36*
X126500D02*
X125534Y-78895D01*
X124634Y-79268D01*
X123861Y-79861D01*
X123268Y-80634D01*
X122895Y-81534D01*
X122768Y-82500D01*
X122895Y-83466D01*
X123268Y-84366D01*
X123861Y-85139D01*
X124634Y-85732D01*
X125534Y-86105D01*
X126500Y-86232D01*
X127466Y-86105D01*
X128366Y-85732D01*
X129139Y-85139D01*
X129732Y-84366D01*
X130105Y-83466D01*
X130232Y-82500D01*
X130105Y-81534D01*
X129732Y-80634D01*
X129139Y-79861D01*
X128366Y-79268D01*
X127466Y-78895D01*
X126500Y-78768D01*
D02*
G37*
G36*
X355237Y-81293D02*
X346751D01*
Y-89779D01*
X355237D01*
Y-87167D01*
X372861D01*
Y-90121D01*
X381347D01*
Y-81635D01*
X372861D01*
Y-83905D01*
X355237D01*
Y-81293D01*
D02*
G37*
G36*
X276500Y-98768D02*
X275534Y-98895D01*
X274634Y-99268D01*
X273861Y-99861D01*
X273268Y-100634D01*
X272895Y-101534D01*
X272768Y-102500D01*
X272895Y-103466D01*
X273268Y-104366D01*
X273861Y-105139D01*
X274634Y-105732D01*
X275534Y-106105D01*
X276500Y-106232D01*
X277466Y-106105D01*
X278366Y-105732D01*
X279139Y-105139D01*
X279732Y-104366D01*
X280105Y-103466D01*
X280232Y-102500D01*
X280105Y-101534D01*
X279732Y-100634D01*
X279139Y-99861D01*
X278366Y-99268D01*
X277466Y-98895D01*
X276500Y-98768D01*
D02*
G37*
G36*
X136500D02*
X135534Y-98895D01*
X134634Y-99268D01*
X133861Y-99861D01*
X133268Y-100634D01*
X132895Y-101534D01*
X132768Y-102500D01*
X132895Y-103466D01*
X133268Y-104366D01*
X133861Y-105139D01*
X134634Y-105732D01*
X135534Y-106105D01*
X136500Y-106232D01*
X137466Y-106105D01*
X138366Y-105732D01*
X139139Y-105139D01*
X139732Y-104366D01*
X140105Y-103466D01*
X140232Y-102500D01*
X140105Y-101534D01*
X139732Y-100634D01*
X139139Y-99861D01*
X138366Y-99268D01*
X137466Y-98895D01*
X136500Y-98768D01*
D02*
G37*
G36*
X126500D02*
X125534Y-98895D01*
X124634Y-99268D01*
X123861Y-99861D01*
X123268Y-100634D01*
X122895Y-101534D01*
X122768Y-102500D01*
X122895Y-103466D01*
X123268Y-104366D01*
X123861Y-105139D01*
X124634Y-105732D01*
X125534Y-106105D01*
X126500Y-106232D01*
X127466Y-106105D01*
X128366Y-105732D01*
X129139Y-105139D01*
X129732Y-104366D01*
X130105Y-103466D01*
X130232Y-102500D01*
X130105Y-101534D01*
X129732Y-100634D01*
X129139Y-99861D01*
X128366Y-99268D01*
X127466Y-98895D01*
X126500Y-98768D01*
D02*
G37*
G36*
X286500Y-108768D02*
X285534Y-108895D01*
X284634Y-109268D01*
X283861Y-109861D01*
X283268Y-110634D01*
X282895Y-111534D01*
X282768Y-112500D01*
X282895Y-113466D01*
X283268Y-114366D01*
X283861Y-115139D01*
X284634Y-115732D01*
X285534Y-116105D01*
X286500Y-116232D01*
X287466Y-116105D01*
X288366Y-115732D01*
X289139Y-115139D01*
X289732Y-114366D01*
X290105Y-113466D01*
X290232Y-112500D01*
X290105Y-111534D01*
X289732Y-110634D01*
X289139Y-109861D01*
X288366Y-109268D01*
X287466Y-108895D01*
X286500Y-108768D01*
D02*
G37*
G36*
X276500D02*
X275534Y-108895D01*
X274634Y-109268D01*
X273861Y-109861D01*
X273268Y-110634D01*
X272895Y-111534D01*
X272768Y-112500D01*
X272895Y-113466D01*
X273268Y-114366D01*
X273861Y-115139D01*
X274634Y-115732D01*
X275534Y-116105D01*
X276500Y-116232D01*
X277466Y-116105D01*
X278366Y-115732D01*
X279139Y-115139D01*
X279732Y-114366D01*
X280105Y-113466D01*
X280232Y-112500D01*
X280105Y-111534D01*
X279732Y-110634D01*
X279139Y-109861D01*
X278366Y-109268D01*
X277466Y-108895D01*
X276500Y-108768D01*
D02*
G37*
G36*
X136500D02*
X135534Y-108895D01*
X134634Y-109268D01*
X133861Y-109861D01*
X133268Y-110634D01*
X132895Y-111534D01*
X132768Y-112500D01*
X132895Y-113466D01*
X133268Y-114366D01*
X133861Y-115139D01*
X134634Y-115732D01*
X135534Y-116105D01*
X136500Y-116232D01*
X137466Y-116105D01*
X138366Y-115732D01*
X139139Y-115139D01*
X139732Y-114366D01*
X140105Y-113466D01*
X140232Y-112500D01*
X140105Y-111534D01*
X139732Y-110634D01*
X139139Y-109861D01*
X138366Y-109268D01*
X137466Y-108895D01*
X136500Y-108768D01*
D02*
G37*
G36*
X126500D02*
X125534Y-108895D01*
X124634Y-109268D01*
X123861Y-109861D01*
X123268Y-110634D01*
X122895Y-111534D01*
X122768Y-112500D01*
X122895Y-113466D01*
X123268Y-114366D01*
X123861Y-115139D01*
X124634Y-115732D01*
X125534Y-116105D01*
X126500Y-116232D01*
X127466Y-116105D01*
X128366Y-115732D01*
X129139Y-115139D01*
X129732Y-114366D01*
X130105Y-113466D01*
X130232Y-112500D01*
X130105Y-111534D01*
X129732Y-110634D01*
X129139Y-109861D01*
X128366Y-109268D01*
X127466Y-108895D01*
X126500Y-108768D01*
D02*
G37*
G36*
X381743Y-108257D02*
X373257D01*
Y-116743D01*
X381743D01*
Y-108257D01*
D02*
G37*
G36*
X286500Y-118768D02*
X285534Y-118895D01*
X284634Y-119268D01*
X283861Y-119861D01*
X283268Y-120634D01*
X282895Y-121534D01*
X282768Y-122500D01*
X282895Y-123466D01*
X283268Y-124366D01*
X283861Y-125139D01*
X284634Y-125732D01*
X285534Y-126105D01*
X286500Y-126232D01*
X287466Y-126105D01*
X288366Y-125732D01*
X289139Y-125139D01*
X289732Y-124366D01*
X290105Y-123466D01*
X290232Y-122500D01*
X290105Y-121534D01*
X289732Y-120634D01*
X289139Y-119861D01*
X288366Y-119268D01*
X287466Y-118895D01*
X286500Y-118768D01*
D02*
G37*
G36*
X276500D02*
X275534Y-118895D01*
X274634Y-119268D01*
X273861Y-119861D01*
X273268Y-120634D01*
X272895Y-121534D01*
X272768Y-122500D01*
X272895Y-123466D01*
X273268Y-124366D01*
X273861Y-125139D01*
X274634Y-125732D01*
X275534Y-126105D01*
X276500Y-126232D01*
X277466Y-126105D01*
X278366Y-125732D01*
X279139Y-125139D01*
X279732Y-124366D01*
X280105Y-123466D01*
X280232Y-122500D01*
X280105Y-121534D01*
X279732Y-120634D01*
X279139Y-119861D01*
X278366Y-119268D01*
X277466Y-118895D01*
X276500Y-118768D01*
D02*
G37*
G36*
X136500D02*
X135534Y-118895D01*
X134634Y-119268D01*
X133861Y-119861D01*
X133268Y-120634D01*
X132895Y-121534D01*
X132768Y-122500D01*
X132895Y-123466D01*
X133268Y-124366D01*
X133861Y-125139D01*
X134634Y-125732D01*
X135534Y-126105D01*
X136500Y-126232D01*
X137466Y-126105D01*
X138366Y-125732D01*
X139139Y-125139D01*
X139732Y-124366D01*
X140105Y-123466D01*
X140232Y-122500D01*
X140105Y-121534D01*
X139732Y-120634D01*
X139139Y-119861D01*
X138366Y-119268D01*
X137466Y-118895D01*
X136500Y-118768D01*
D02*
G37*
G36*
X126500D02*
X125534Y-118895D01*
X124634Y-119268D01*
X123861Y-119861D01*
X123268Y-120634D01*
X122895Y-121534D01*
X122768Y-122500D01*
X122895Y-123466D01*
X123268Y-124366D01*
X123861Y-125139D01*
X124634Y-125732D01*
X125534Y-126105D01*
X126500Y-126232D01*
X127466Y-126105D01*
X128366Y-125732D01*
X129139Y-125139D01*
X129732Y-124366D01*
X130105Y-123466D01*
X130232Y-122500D01*
X130105Y-121534D01*
X129732Y-120634D01*
X129139Y-119861D01*
X128366Y-119268D01*
X127466Y-118895D01*
X126500Y-118768D01*
D02*
G37*
G36*
X377500Y-118220D02*
X376392Y-118366D01*
X375360Y-118793D01*
X374474Y-119474D01*
X373794Y-120360D01*
X373366Y-121392D01*
X373220Y-122500D01*
X373366Y-123608D01*
X373794Y-124640D01*
X374474Y-125526D01*
X375360Y-126207D01*
X376392Y-126634D01*
X377500Y-126780D01*
X378608Y-126634D01*
X379640Y-126207D01*
X380526Y-125526D01*
X381206Y-124640D01*
X381634Y-123608D01*
X381780Y-122500D01*
X381634Y-121392D01*
X381206Y-120360D01*
X380526Y-119474D01*
X379640Y-118793D01*
X378608Y-118366D01*
X377500Y-118220D01*
D02*
G37*
G36*
X286500Y-128768D02*
X285534Y-128895D01*
X284634Y-129268D01*
X283861Y-129861D01*
X283268Y-130634D01*
X282895Y-131534D01*
X282768Y-132500D01*
X282895Y-133466D01*
X283268Y-134366D01*
X283861Y-135139D01*
X284634Y-135732D01*
X285534Y-136105D01*
X286500Y-136232D01*
X287466Y-136105D01*
X288366Y-135732D01*
X289139Y-135139D01*
X289732Y-134366D01*
X290105Y-133466D01*
X290232Y-132500D01*
X290105Y-131534D01*
X289732Y-130634D01*
X289139Y-129861D01*
X288366Y-129268D01*
X287466Y-128895D01*
X286500Y-128768D01*
D02*
G37*
G36*
X276500D02*
X275534Y-128895D01*
X274634Y-129268D01*
X273861Y-129861D01*
X273268Y-130634D01*
X272895Y-131534D01*
X272768Y-132500D01*
X272895Y-133466D01*
X273268Y-134366D01*
X273861Y-135139D01*
X274634Y-135732D01*
X275534Y-136105D01*
X276500Y-136232D01*
X277466Y-136105D01*
X278366Y-135732D01*
X279139Y-135139D01*
X279732Y-134366D01*
X280105Y-133466D01*
X280232Y-132500D01*
X280105Y-131534D01*
X279732Y-130634D01*
X279139Y-129861D01*
X278366Y-129268D01*
X277466Y-128895D01*
X276500Y-128768D01*
D02*
G37*
G36*
X136500D02*
X135534Y-128895D01*
X134634Y-129268D01*
X133861Y-129861D01*
X133268Y-130634D01*
X132895Y-131534D01*
X132768Y-132500D01*
X132895Y-133466D01*
X133268Y-134366D01*
X133861Y-135139D01*
X134634Y-135732D01*
X135534Y-136105D01*
X136500Y-136232D01*
X137466Y-136105D01*
X138366Y-135732D01*
X139139Y-135139D01*
X139732Y-134366D01*
X140105Y-133466D01*
X140232Y-132500D01*
X140105Y-131534D01*
X139732Y-130634D01*
X139139Y-129861D01*
X138366Y-129268D01*
X137466Y-128895D01*
X136500Y-128768D01*
D02*
G37*
G36*
X126500D02*
X125534Y-128895D01*
X124634Y-129268D01*
X123861Y-129861D01*
X123268Y-130634D01*
X122895Y-131534D01*
X122768Y-132500D01*
X122895Y-133466D01*
X123268Y-134366D01*
X123861Y-135139D01*
X124634Y-135732D01*
X125534Y-136105D01*
X126500Y-136232D01*
X127466Y-136105D01*
X128366Y-135732D01*
X129139Y-135139D01*
X129732Y-134366D01*
X130105Y-133466D01*
X130232Y-132500D01*
X130105Y-131534D01*
X129732Y-130634D01*
X129139Y-129861D01*
X128366Y-129268D01*
X127466Y-128895D01*
X126500Y-128768D01*
D02*
G37*
G36*
X377500Y-128220D02*
X376392Y-128366D01*
X375360Y-128794D01*
X374474Y-129474D01*
X373794Y-130360D01*
X373366Y-131392D01*
X373220Y-132500D01*
X373366Y-133608D01*
X373794Y-134640D01*
X374474Y-135526D01*
X375360Y-136206D01*
X376392Y-136634D01*
X377500Y-136780D01*
X378608Y-136634D01*
X379640Y-136206D01*
X380526Y-135526D01*
X381206Y-134640D01*
X381634Y-133608D01*
X381780Y-132500D01*
X381634Y-131392D01*
X381206Y-130360D01*
X380526Y-129474D01*
X379640Y-128794D01*
X378608Y-128366D01*
X377500Y-128220D01*
D02*
G37*
G36*
X276500Y-88768D02*
X275534Y-88895D01*
X274634Y-89268D01*
X273861Y-89861D01*
X273268Y-90634D01*
X272895Y-91534D01*
X272768Y-92500D01*
X272895Y-93466D01*
X273268Y-94366D01*
X273861Y-95139D01*
X274634Y-95732D01*
X275534Y-96105D01*
X276500Y-96232D01*
X276943Y-96174D01*
X279835Y-99065D01*
X280232Y-99330D01*
X280700Y-99423D01*
X283695D01*
X283813Y-99923D01*
X283268Y-100634D01*
X282895Y-101534D01*
X282768Y-102500D01*
X282895Y-103466D01*
X283268Y-104366D01*
X283861Y-105139D01*
X284634Y-105732D01*
X285534Y-106105D01*
X286500Y-106232D01*
X287466Y-106105D01*
X288366Y-105732D01*
X289139Y-105139D01*
X289732Y-104366D01*
X290105Y-103466D01*
X290232Y-102500D01*
X290105Y-101534D01*
X289732Y-100634D01*
X289187Y-99923D01*
X289305Y-99423D01*
X290193D01*
X294777Y-104007D01*
Y-136000D01*
X294870Y-136468D01*
X295135Y-136865D01*
X296698Y-138428D01*
X296684Y-138500D01*
X296822Y-139195D01*
X297216Y-139784D01*
X297805Y-140178D01*
X298500Y-140316D01*
X299195Y-140178D01*
X299784Y-139784D01*
X300178Y-139195D01*
X300316Y-138500D01*
X300178Y-137805D01*
X299784Y-137216D01*
X299195Y-136822D01*
X298500Y-136684D01*
X298429Y-136698D01*
X297223Y-135493D01*
Y-103500D01*
X297130Y-103032D01*
X296865Y-102635D01*
X291565Y-97335D01*
X291168Y-97070D01*
X290700Y-96977D01*
X281207D01*
X279239Y-95009D01*
X279732Y-94366D01*
X280105Y-93466D01*
X280232Y-92500D01*
X280105Y-91534D01*
X279732Y-90634D01*
X279139Y-89861D01*
X278366Y-89268D01*
X277466Y-88895D01*
X276500Y-88768D01*
D02*
G37*
G36*
X286500Y-138768D02*
X285534Y-138895D01*
X284634Y-139268D01*
X283861Y-139861D01*
X283268Y-140634D01*
X282895Y-141534D01*
X282768Y-142500D01*
X282895Y-143466D01*
X283268Y-144366D01*
X283861Y-145139D01*
X284634Y-145732D01*
X285534Y-146105D01*
X286500Y-146232D01*
X287466Y-146105D01*
X288366Y-145732D01*
X289139Y-145139D01*
X289732Y-144366D01*
X290105Y-143466D01*
X290232Y-142500D01*
X290105Y-141534D01*
X289732Y-140634D01*
X289139Y-139861D01*
X288366Y-139268D01*
X287466Y-138895D01*
X286500Y-138768D01*
D02*
G37*
G36*
X276500D02*
X275534Y-138895D01*
X274634Y-139268D01*
X273861Y-139861D01*
X273268Y-140634D01*
X272895Y-141534D01*
X272768Y-142500D01*
X272895Y-143466D01*
X273268Y-144366D01*
X273861Y-145139D01*
X274634Y-145732D01*
X275534Y-146105D01*
X276500Y-146232D01*
X277466Y-146105D01*
X278366Y-145732D01*
X279139Y-145139D01*
X279732Y-144366D01*
X280105Y-143466D01*
X280232Y-142500D01*
X280105Y-141534D01*
X279732Y-140634D01*
X279139Y-139861D01*
X278366Y-139268D01*
X277466Y-138895D01*
X276500Y-138768D01*
D02*
G37*
G36*
X136500D02*
X135534Y-138895D01*
X134634Y-139268D01*
X133861Y-139861D01*
X133268Y-140634D01*
X132895Y-141534D01*
X132768Y-142500D01*
X132895Y-143466D01*
X133268Y-144366D01*
X133861Y-145139D01*
X134634Y-145732D01*
X135534Y-146105D01*
X136500Y-146232D01*
X137466Y-146105D01*
X138366Y-145732D01*
X139139Y-145139D01*
X139732Y-144366D01*
X140105Y-143466D01*
X140232Y-142500D01*
X140105Y-141534D01*
X139732Y-140634D01*
X139139Y-139861D01*
X138366Y-139268D01*
X137466Y-138895D01*
X136500Y-138768D01*
D02*
G37*
G36*
X126500D02*
X125534Y-138895D01*
X124634Y-139268D01*
X123861Y-139861D01*
X123268Y-140634D01*
X122895Y-141534D01*
X122768Y-142500D01*
X122895Y-143466D01*
X123268Y-144366D01*
X123861Y-145139D01*
X124634Y-145732D01*
X125534Y-146105D01*
X126500Y-146232D01*
X127466Y-146105D01*
X128366Y-145732D01*
X129139Y-145139D01*
X129732Y-144366D01*
X130105Y-143466D01*
X130232Y-142500D01*
X130105Y-141534D01*
X129732Y-140634D01*
X129139Y-139861D01*
X128366Y-139268D01*
X127466Y-138895D01*
X126500Y-138768D01*
D02*
G37*
G36*
X377500Y-138220D02*
X376392Y-138366D01*
X375360Y-138794D01*
X374474Y-139474D01*
X373794Y-140360D01*
X373366Y-141392D01*
X373220Y-142500D01*
X373366Y-143608D01*
X373794Y-144640D01*
X374474Y-145526D01*
X375360Y-146206D01*
X376392Y-146634D01*
X377500Y-146780D01*
X378608Y-146634D01*
X379640Y-146206D01*
X380526Y-145526D01*
X381206Y-144640D01*
X381634Y-143608D01*
X381780Y-142500D01*
X381634Y-141392D01*
X381206Y-140360D01*
X380526Y-139474D01*
X379640Y-138794D01*
X378608Y-138366D01*
X377500Y-138220D01*
D02*
G37*
G36*
X286500Y-88768D02*
X285534Y-88895D01*
X284634Y-89268D01*
X283861Y-89861D01*
X283268Y-90634D01*
X282895Y-91534D01*
X282768Y-92500D01*
X282895Y-93466D01*
X283268Y-94366D01*
X283861Y-95139D01*
X284634Y-95732D01*
X285534Y-96105D01*
X286500Y-96232D01*
X287466Y-96105D01*
X288366Y-95732D01*
X289139Y-95139D01*
X289732Y-94366D01*
X289998Y-93723D01*
X291493D01*
X303020Y-105251D01*
Y-145898D01*
X302960Y-145938D01*
X302566Y-146527D01*
X302428Y-147222D01*
X302566Y-147917D01*
X302960Y-148506D01*
X303549Y-148900D01*
X304244Y-149038D01*
X304939Y-148900D01*
X305528Y-148506D01*
X305922Y-147917D01*
X306060Y-147222D01*
X305922Y-146527D01*
X305528Y-145938D01*
X305467Y-145898D01*
Y-104744D01*
X305374Y-104276D01*
X305109Y-103879D01*
X292865Y-91635D01*
X292468Y-91370D01*
X292000Y-91277D01*
X289998D01*
X289732Y-90634D01*
X289139Y-89861D01*
X288366Y-89268D01*
X287466Y-88895D01*
X286500Y-88768D01*
D02*
G37*
G36*
Y-148768D02*
X285534Y-148895D01*
X284634Y-149268D01*
X283861Y-149861D01*
X283268Y-150634D01*
X282895Y-151534D01*
X282768Y-152500D01*
X282895Y-153466D01*
X283268Y-154366D01*
X283861Y-155139D01*
X284634Y-155732D01*
X285534Y-156105D01*
X286500Y-156232D01*
X287466Y-156105D01*
X288366Y-155732D01*
X289139Y-155139D01*
X289732Y-154366D01*
X290105Y-153466D01*
X290232Y-152500D01*
X290105Y-151534D01*
X289732Y-150634D01*
X289139Y-149861D01*
X288366Y-149268D01*
X287466Y-148895D01*
X286500Y-148768D01*
D02*
G37*
G36*
X276500D02*
X275534Y-148895D01*
X274634Y-149268D01*
X273861Y-149861D01*
X273268Y-150634D01*
X272895Y-151534D01*
X272768Y-152500D01*
X272895Y-153466D01*
X273268Y-154366D01*
X273861Y-155139D01*
X274634Y-155732D01*
X275534Y-156105D01*
X276500Y-156232D01*
X277466Y-156105D01*
X278366Y-155732D01*
X279139Y-155139D01*
X279732Y-154366D01*
X280105Y-153466D01*
X280232Y-152500D01*
X280105Y-151534D01*
X279732Y-150634D01*
X279139Y-149861D01*
X278366Y-149268D01*
X277466Y-148895D01*
X276500Y-148768D01*
D02*
G37*
G36*
X136500D02*
X135534Y-148895D01*
X134634Y-149268D01*
X133861Y-149861D01*
X133268Y-150634D01*
X132895Y-151534D01*
X132768Y-152500D01*
X132895Y-153466D01*
X133268Y-154366D01*
X133861Y-155139D01*
X134634Y-155732D01*
X135534Y-156105D01*
X136500Y-156232D01*
X137466Y-156105D01*
X138366Y-155732D01*
X139139Y-155139D01*
X139732Y-154366D01*
X140105Y-153466D01*
X140232Y-152500D01*
X140105Y-151534D01*
X139732Y-150634D01*
X139139Y-149861D01*
X138366Y-149268D01*
X137466Y-148895D01*
X136500Y-148768D01*
D02*
G37*
G36*
X126500D02*
X125534Y-148895D01*
X124634Y-149268D01*
X123861Y-149861D01*
X123268Y-150634D01*
X122895Y-151534D01*
X122768Y-152500D01*
X122895Y-153466D01*
X123268Y-154366D01*
X123861Y-155139D01*
X124634Y-155732D01*
X125534Y-156105D01*
X126500Y-156232D01*
X127466Y-156105D01*
X128366Y-155732D01*
X129139Y-155139D01*
X129732Y-154366D01*
X130105Y-153466D01*
X130232Y-152500D01*
X130105Y-151534D01*
X129732Y-150634D01*
X129139Y-149861D01*
X128366Y-149268D01*
X127466Y-148895D01*
X126500Y-148768D01*
D02*
G37*
G36*
X286500Y-158768D02*
X285534Y-158895D01*
X284634Y-159268D01*
X283861Y-159861D01*
X283268Y-160634D01*
X282895Y-161534D01*
X282768Y-162500D01*
X282895Y-163466D01*
X283268Y-164366D01*
X283861Y-165139D01*
X284634Y-165732D01*
X285534Y-166105D01*
X286500Y-166232D01*
X287466Y-166105D01*
X288366Y-165732D01*
X289139Y-165139D01*
X289732Y-164366D01*
X290105Y-163466D01*
X290232Y-162500D01*
X290105Y-161534D01*
X289732Y-160634D01*
X289139Y-159861D01*
X288366Y-159268D01*
X287466Y-158895D01*
X286500Y-158768D01*
D02*
G37*
G36*
X276500D02*
X275534Y-158895D01*
X274634Y-159268D01*
X273861Y-159861D01*
X273268Y-160634D01*
X272895Y-161534D01*
X272768Y-162500D01*
X272895Y-163466D01*
X273268Y-164366D01*
X273861Y-165139D01*
X274634Y-165732D01*
X275534Y-166105D01*
X276500Y-166232D01*
X277466Y-166105D01*
X278366Y-165732D01*
X279139Y-165139D01*
X279732Y-164366D01*
X280105Y-163466D01*
X280232Y-162500D01*
X280105Y-161534D01*
X279732Y-160634D01*
X279139Y-159861D01*
X278366Y-159268D01*
X277466Y-158895D01*
X276500Y-158768D01*
D02*
G37*
G36*
X136500D02*
X135534Y-158895D01*
X134634Y-159268D01*
X133861Y-159861D01*
X133268Y-160634D01*
X132895Y-161534D01*
X132768Y-162500D01*
X132895Y-163466D01*
X133268Y-164366D01*
X133861Y-165139D01*
X134634Y-165732D01*
X135534Y-166105D01*
X136500Y-166232D01*
X137466Y-166105D01*
X138366Y-165732D01*
X139139Y-165139D01*
X139732Y-164366D01*
X140105Y-163466D01*
X140232Y-162500D01*
X140105Y-161534D01*
X139732Y-160634D01*
X139139Y-159861D01*
X138366Y-159268D01*
X137466Y-158895D01*
X136500Y-158768D01*
D02*
G37*
G36*
X126500D02*
X125534Y-158895D01*
X124634Y-159268D01*
X123861Y-159861D01*
X123268Y-160634D01*
X122895Y-161534D01*
X122768Y-162500D01*
X122895Y-163466D01*
X123268Y-164366D01*
X123861Y-165139D01*
X124634Y-165732D01*
X125534Y-166105D01*
X126500Y-166232D01*
X127466Y-166105D01*
X128366Y-165732D01*
X129139Y-165139D01*
X129732Y-164366D01*
X130105Y-163466D01*
X130232Y-162500D01*
X130105Y-161534D01*
X129732Y-160634D01*
X129139Y-159861D01*
X128366Y-159268D01*
X127466Y-158895D01*
X126500Y-158768D01*
D02*
G37*
G36*
X321430Y-163628D02*
X317080D01*
Y-168372D01*
X318306D01*
X318323Y-168454D01*
X318600Y-168869D01*
X318421Y-169369D01*
X316943D01*
Y-168849D01*
X315974D01*
X315919Y-168372D01*
X315919D01*
Y-163628D01*
X311569D01*
Y-164777D01*
X293000D01*
X292532Y-164870D01*
X292135Y-165135D01*
X288108Y-169161D01*
X287466Y-168895D01*
X286500Y-168768D01*
X285534Y-168895D01*
X284634Y-169268D01*
X283861Y-169861D01*
X283268Y-170634D01*
X282895Y-171534D01*
X282768Y-172500D01*
X282895Y-173466D01*
X283268Y-174366D01*
X283861Y-175139D01*
X284634Y-175732D01*
X285534Y-176105D01*
X286500Y-176232D01*
X287466Y-176105D01*
X288366Y-175732D01*
X289139Y-175139D01*
X289732Y-174366D01*
X290105Y-173466D01*
X290232Y-172500D01*
X290105Y-171534D01*
X289839Y-170892D01*
X293507Y-167224D01*
X311569D01*
Y-168372D01*
X311750D01*
X311806Y-168849D01*
X311806D01*
Y-176151D01*
X316943D01*
Y-172631D01*
X322236D01*
X322305Y-172678D01*
X322387Y-172694D01*
X325113Y-175420D01*
Y-180128D01*
X324570D01*
Y-184872D01*
X325113D01*
Y-186873D01*
X321500D01*
X321500Y-186873D01*
X321095Y-186926D01*
X320691Y-186980D01*
X319937Y-187292D01*
X319289Y-187789D01*
X319289Y-187789D01*
X310789Y-196289D01*
X310292Y-196937D01*
X309980Y-197691D01*
X309927Y-198095D01*
X309873Y-198500D01*
X309873Y-198500D01*
Y-203500D01*
Y-205705D01*
X306789Y-208789D01*
X306292Y-209437D01*
X305980Y-210191D01*
X305873Y-211000D01*
X305980Y-211809D01*
X306292Y-212563D01*
X306789Y-213211D01*
X307437Y-213708D01*
X308191Y-214020D01*
X309000Y-214127D01*
X309809Y-214020D01*
X310563Y-213708D01*
X311211Y-213211D01*
X315211Y-209211D01*
X315211Y-209211D01*
X315708Y-208563D01*
X316020Y-207809D01*
X316127Y-207000D01*
Y-203500D01*
Y-199795D01*
X322795Y-193127D01*
X326744D01*
X327554Y-193020D01*
X328308Y-192708D01*
X328746Y-192372D01*
X328919D01*
Y-192239D01*
X328955Y-192211D01*
X329452Y-191563D01*
X329764Y-190809D01*
X329871Y-190000D01*
X329764Y-189191D01*
X329452Y-188437D01*
X328955Y-187789D01*
X328919Y-187761D01*
Y-187628D01*
X328746D01*
X328376Y-187344D01*
Y-184872D01*
X328919D01*
Y-180128D01*
X328376D01*
Y-174744D01*
X328251Y-174120D01*
X327898Y-173591D01*
X324694Y-170387D01*
X324678Y-170305D01*
X324284Y-169716D01*
X323695Y-169322D01*
X323613Y-169306D01*
X321430Y-167123D01*
Y-163628D01*
D02*
G37*
G36*
X276500Y-168768D02*
X275534Y-168895D01*
X274634Y-169268D01*
X273861Y-169861D01*
X273268Y-170634D01*
X272895Y-171534D01*
X272768Y-172500D01*
X272895Y-173466D01*
X273268Y-174366D01*
X273861Y-175139D01*
X274634Y-175732D01*
X275534Y-176105D01*
X276500Y-176232D01*
X277466Y-176105D01*
X278366Y-175732D01*
X279139Y-175139D01*
X279732Y-174366D01*
X280105Y-173466D01*
X280232Y-172500D01*
X280105Y-171534D01*
X279732Y-170634D01*
X279139Y-169861D01*
X278366Y-169268D01*
X277466Y-168895D01*
X276500Y-168768D01*
D02*
G37*
G36*
X136500D02*
X135534Y-168895D01*
X134634Y-169268D01*
X133861Y-169861D01*
X133268Y-170634D01*
X132895Y-171534D01*
X132768Y-172500D01*
X132895Y-173466D01*
X133268Y-174366D01*
X133861Y-175139D01*
X134634Y-175732D01*
X135534Y-176105D01*
X136500Y-176232D01*
X137466Y-176105D01*
X138366Y-175732D01*
X139139Y-175139D01*
X139732Y-174366D01*
X140105Y-173466D01*
X140232Y-172500D01*
X140105Y-171534D01*
X139732Y-170634D01*
X139139Y-169861D01*
X138366Y-169268D01*
X137466Y-168895D01*
X136500Y-168768D01*
D02*
G37*
G36*
X126500D02*
X125534Y-168895D01*
X124634Y-169268D01*
X123861Y-169861D01*
X123268Y-170634D01*
X122895Y-171534D01*
X122768Y-172500D01*
X122895Y-173466D01*
X123268Y-174366D01*
X123861Y-175139D01*
X124634Y-175732D01*
X125534Y-176105D01*
X126500Y-176232D01*
X127466Y-176105D01*
X128366Y-175732D01*
X129139Y-175139D01*
X129732Y-174366D01*
X130105Y-173466D01*
X130232Y-172500D01*
X130105Y-171534D01*
X129732Y-170634D01*
X129139Y-169861D01*
X128366Y-169268D01*
X127466Y-168895D01*
X126500Y-168768D01*
D02*
G37*
G36*
X286500Y-178768D02*
X285534Y-178895D01*
X284634Y-179268D01*
X283861Y-179861D01*
X283268Y-180634D01*
X282895Y-181534D01*
X282768Y-182500D01*
X282895Y-183466D01*
X283268Y-184366D01*
X283861Y-185139D01*
X284634Y-185732D01*
X285534Y-186105D01*
X286500Y-186232D01*
X287466Y-186105D01*
X288366Y-185732D01*
X289139Y-185139D01*
X289732Y-184366D01*
X290105Y-183466D01*
X290232Y-182500D01*
X290105Y-181534D01*
X289732Y-180634D01*
X289139Y-179861D01*
X288366Y-179268D01*
X287466Y-178895D01*
X286500Y-178768D01*
D02*
G37*
G36*
X276500D02*
X275534Y-178895D01*
X274634Y-179268D01*
X273861Y-179861D01*
X273268Y-180634D01*
X272895Y-181534D01*
X272768Y-182500D01*
X272895Y-183466D01*
X273268Y-184366D01*
X273861Y-185139D01*
X274634Y-185732D01*
X275534Y-186105D01*
X276500Y-186232D01*
X277466Y-186105D01*
X278366Y-185732D01*
X279139Y-185139D01*
X279732Y-184366D01*
X280105Y-183466D01*
X280232Y-182500D01*
X280105Y-181534D01*
X279732Y-180634D01*
X279139Y-179861D01*
X278366Y-179268D01*
X277466Y-178895D01*
X276500Y-178768D01*
D02*
G37*
G36*
X136500D02*
X135534Y-178895D01*
X134634Y-179268D01*
X133861Y-179861D01*
X133268Y-180634D01*
X132895Y-181534D01*
X132768Y-182500D01*
X132895Y-183466D01*
X133268Y-184366D01*
X133861Y-185139D01*
X134634Y-185732D01*
X135534Y-186105D01*
X136500Y-186232D01*
X137466Y-186105D01*
X138366Y-185732D01*
X139139Y-185139D01*
X139732Y-184366D01*
X140105Y-183466D01*
X140232Y-182500D01*
X140105Y-181534D01*
X139732Y-180634D01*
X139139Y-179861D01*
X138366Y-179268D01*
X137466Y-178895D01*
X136500Y-178768D01*
D02*
G37*
G36*
X126500D02*
X125534Y-178895D01*
X124634Y-179268D01*
X123861Y-179861D01*
X123268Y-180634D01*
X122895Y-181534D01*
X122768Y-182500D01*
X122895Y-183466D01*
X123268Y-184366D01*
X123861Y-185139D01*
X124634Y-185732D01*
X125534Y-186105D01*
X126500Y-186232D01*
X127466Y-186105D01*
X128366Y-185732D01*
X129139Y-185139D01*
X129732Y-184366D01*
X130105Y-183466D01*
X130232Y-182500D01*
X130105Y-181534D01*
X129732Y-180634D01*
X129139Y-179861D01*
X128366Y-179268D01*
X127466Y-178895D01*
X126500Y-178768D01*
D02*
G37*
G36*
X382272Y-172096D02*
X380745Y-172246D01*
X379278Y-172691D01*
X377925Y-173414D01*
X376739Y-174387D01*
X375766Y-175573D01*
X375043Y-176926D01*
X374598Y-178394D01*
X374447Y-179920D01*
X374598Y-181446D01*
X375043Y-182914D01*
X375766Y-184267D01*
X376739Y-185453D01*
X377925Y-186426D01*
X379278Y-187149D01*
X380745Y-187594D01*
X382272Y-187744D01*
X383798Y-187594D01*
X385266Y-187149D01*
X386619Y-186426D01*
X387804Y-185453D01*
X388777Y-184267D01*
X389500Y-182914D01*
X389946Y-181446D01*
X390096Y-179920D01*
X389946Y-178394D01*
X389500Y-176926D01*
X388777Y-175573D01*
X387804Y-174387D01*
X386619Y-173414D01*
X385266Y-172691D01*
X383798Y-172246D01*
X382272Y-172096D01*
D02*
G37*
G36*
X286500Y-188768D02*
X285534Y-188895D01*
X284634Y-189268D01*
X283861Y-189861D01*
X283268Y-190634D01*
X282895Y-191534D01*
X282768Y-192500D01*
X282895Y-193466D01*
X283268Y-194366D01*
X283861Y-195139D01*
X284634Y-195732D01*
X285534Y-196105D01*
X286500Y-196232D01*
X287466Y-196105D01*
X288366Y-195732D01*
X289139Y-195139D01*
X289732Y-194366D01*
X290105Y-193466D01*
X290232Y-192500D01*
X290105Y-191534D01*
X289732Y-190634D01*
X289139Y-189861D01*
X288366Y-189268D01*
X287466Y-188895D01*
X286500Y-188768D01*
D02*
G37*
G36*
X276500D02*
X275534Y-188895D01*
X274634Y-189268D01*
X273861Y-189861D01*
X273268Y-190634D01*
X272895Y-191534D01*
X272768Y-192500D01*
X272895Y-193466D01*
X273268Y-194366D01*
X273861Y-195139D01*
X274634Y-195732D01*
X275534Y-196105D01*
X276500Y-196232D01*
X277466Y-196105D01*
X278366Y-195732D01*
X279139Y-195139D01*
X279732Y-194366D01*
X280105Y-193466D01*
X280232Y-192500D01*
X280105Y-191534D01*
X279732Y-190634D01*
X279139Y-189861D01*
X278366Y-189268D01*
X277466Y-188895D01*
X276500Y-188768D01*
D02*
G37*
G36*
X136500D02*
X135534Y-188895D01*
X134634Y-189268D01*
X133861Y-189861D01*
X133268Y-190634D01*
X132895Y-191534D01*
X132768Y-192500D01*
X132895Y-193466D01*
X133268Y-194366D01*
X133861Y-195139D01*
X134634Y-195732D01*
X135534Y-196105D01*
X136500Y-196232D01*
X137466Y-196105D01*
X138366Y-195732D01*
X139139Y-195139D01*
X139732Y-194366D01*
X140105Y-193466D01*
X140232Y-192500D01*
X140105Y-191534D01*
X139732Y-190634D01*
X139139Y-189861D01*
X138366Y-189268D01*
X137466Y-188895D01*
X136500Y-188768D01*
D02*
G37*
G36*
X126500D02*
X125534Y-188895D01*
X124634Y-189268D01*
X123861Y-189861D01*
X123268Y-190634D01*
X122895Y-191534D01*
X122768Y-192500D01*
X122895Y-193466D01*
X123268Y-194366D01*
X123861Y-195139D01*
X124634Y-195732D01*
X125534Y-196105D01*
X126500Y-196232D01*
X127466Y-196105D01*
X128366Y-195732D01*
X129139Y-195139D01*
X129732Y-194366D01*
X130105Y-193466D01*
X130232Y-192500D01*
X130105Y-191534D01*
X129732Y-190634D01*
X129139Y-189861D01*
X128366Y-189268D01*
X127466Y-188895D01*
X126500Y-188768D01*
D02*
G37*
G36*
X363728Y-194997D02*
X362672Y-195136D01*
X361687Y-195544D01*
X360842Y-196193D01*
X360193Y-197038D01*
X359786Y-198022D01*
X359647Y-199079D01*
X359786Y-200135D01*
X360193Y-201119D01*
X360842Y-201965D01*
X361687Y-202613D01*
X362672Y-203021D01*
X363728Y-203160D01*
X364784Y-203021D01*
X365769Y-202613D01*
X366614Y-201965D01*
X367263Y-201119D01*
X367670Y-200135D01*
X367809Y-199079D01*
X367670Y-198022D01*
X367263Y-197038D01*
X366614Y-196193D01*
X365769Y-195544D01*
X364784Y-195136D01*
X363728Y-194997D01*
D02*
G37*
G36*
X276500Y-198768D02*
X275534Y-198895D01*
X274634Y-199268D01*
X273861Y-199861D01*
X273268Y-200634D01*
X272895Y-201534D01*
X272768Y-202500D01*
X272895Y-203466D01*
X273268Y-204366D01*
X273861Y-205139D01*
X274634Y-205732D01*
X275534Y-206105D01*
X276500Y-206232D01*
X277466Y-206105D01*
X278366Y-205732D01*
X279139Y-205139D01*
X279732Y-204366D01*
X280105Y-203466D01*
X280232Y-202500D01*
X280105Y-201534D01*
X279732Y-200634D01*
X279139Y-199861D01*
X278366Y-199268D01*
X277466Y-198895D01*
X276500Y-198768D01*
D02*
G37*
G36*
X136500D02*
X135534Y-198895D01*
X134634Y-199268D01*
X133861Y-199861D01*
X133268Y-200634D01*
X132895Y-201534D01*
X132768Y-202500D01*
X132895Y-203466D01*
X133268Y-204366D01*
X133861Y-205139D01*
X134634Y-205732D01*
X135534Y-206105D01*
X136500Y-206232D01*
X137466Y-206105D01*
X138366Y-205732D01*
X139139Y-205139D01*
X139732Y-204366D01*
X140105Y-203466D01*
X140232Y-202500D01*
X140105Y-201534D01*
X139732Y-200634D01*
X139139Y-199861D01*
X138366Y-199268D01*
X137466Y-198895D01*
X136500Y-198768D01*
D02*
G37*
G36*
X126500D02*
X125534Y-198895D01*
X124634Y-199268D01*
X123861Y-199861D01*
X123268Y-200634D01*
X122895Y-201534D01*
X122768Y-202500D01*
X122895Y-203466D01*
X123268Y-204366D01*
X123861Y-205139D01*
X124634Y-205732D01*
X125534Y-206105D01*
X126500Y-206232D01*
X127466Y-206105D01*
X128366Y-205732D01*
X129139Y-205139D01*
X129732Y-204366D01*
X130105Y-203466D01*
X130232Y-202500D01*
X130105Y-201534D01*
X129732Y-200634D01*
X129139Y-199861D01*
X128366Y-199268D01*
X127466Y-198895D01*
X126500Y-198768D01*
D02*
G37*
G36*
X371602Y-204840D02*
X370546Y-204979D01*
X369561Y-205387D01*
X368716Y-206035D01*
X368067Y-206881D01*
X367915Y-207249D01*
X367415D01*
X367263Y-206881D01*
X366614Y-206035D01*
X365769Y-205387D01*
X364784Y-204979D01*
X363728Y-204840D01*
X362672Y-204979D01*
X361687Y-205387D01*
X360842Y-206035D01*
X360193Y-206881D01*
X359786Y-207865D01*
X359647Y-208921D01*
X359786Y-209978D01*
X360193Y-210962D01*
X360842Y-211807D01*
X361687Y-212456D01*
X362672Y-212864D01*
X363728Y-213003D01*
X364784Y-212864D01*
X365769Y-212456D01*
X366614Y-211807D01*
X367263Y-210962D01*
X367415Y-210594D01*
X367915D01*
X368067Y-210962D01*
X368716Y-211807D01*
X369561Y-212456D01*
X370546Y-212864D01*
X371602Y-213003D01*
X372658Y-212864D01*
X373643Y-212456D01*
X374488Y-211807D01*
X375137Y-210962D01*
X375544Y-209978D01*
X375683Y-208921D01*
X375544Y-207865D01*
X375137Y-206881D01*
X374488Y-206035D01*
X373643Y-205387D01*
X372658Y-204979D01*
X371602Y-204840D01*
D02*
G37*
G36*
X136500Y-208768D02*
X135534Y-208895D01*
X134634Y-209268D01*
X133861Y-209861D01*
X133268Y-210634D01*
X132895Y-211534D01*
X132768Y-212500D01*
X132895Y-213466D01*
X133268Y-214366D01*
X133861Y-215139D01*
X134634Y-215732D01*
X135534Y-216105D01*
X136500Y-216232D01*
X137466Y-216105D01*
X138366Y-215732D01*
X139139Y-215139D01*
X139732Y-214366D01*
X140105Y-213466D01*
X140232Y-212500D01*
X140105Y-211534D01*
X139732Y-210634D01*
X139139Y-209861D01*
X138366Y-209268D01*
X137466Y-208895D01*
X136500Y-208768D01*
D02*
G37*
G36*
X126500D02*
X125534Y-208895D01*
X124634Y-209268D01*
X123861Y-209861D01*
X123268Y-210634D01*
X122895Y-211534D01*
X122768Y-212500D01*
X122895Y-213466D01*
X123268Y-214366D01*
X123861Y-215139D01*
X124634Y-215732D01*
X125534Y-216105D01*
X126500Y-216232D01*
X127466Y-216105D01*
X128366Y-215732D01*
X129139Y-215139D01*
X129732Y-214366D01*
X130105Y-213466D01*
X130232Y-212500D01*
X130105Y-211534D01*
X129732Y-210634D01*
X129139Y-209861D01*
X128366Y-209268D01*
X127466Y-208895D01*
X126500Y-208768D01*
D02*
G37*
G36*
X236000Y-139373D02*
X235191Y-139480D01*
X234437Y-139792D01*
X233789Y-140289D01*
X233292Y-140937D01*
X232980Y-141691D01*
X232918Y-142160D01*
X230789Y-144289D01*
X230292Y-144937D01*
X229980Y-145691D01*
X229926Y-146095D01*
X229873Y-146500D01*
X229873Y-146500D01*
Y-147000D01*
Y-163500D01*
Y-178771D01*
X229839Y-179035D01*
X229839Y-179035D01*
Y-210240D01*
X227789Y-212289D01*
X224789Y-215289D01*
X224292Y-215937D01*
X223980Y-216691D01*
X223873Y-217500D01*
X223980Y-218309D01*
X224292Y-219063D01*
X224789Y-219711D01*
X225437Y-220208D01*
X226191Y-220520D01*
X227000Y-220627D01*
X227809Y-220520D01*
X228563Y-220208D01*
X229211Y-219711D01*
X229385Y-219537D01*
X229903Y-219726D01*
X229980Y-220309D01*
X230292Y-221063D01*
X230789Y-221711D01*
X231437Y-222208D01*
X232191Y-222520D01*
X233000Y-222627D01*
X233809Y-222520D01*
X234563Y-222208D01*
X235211Y-221711D01*
X235708Y-221063D01*
X236020Y-220309D01*
X236127Y-219500D01*
Y-215500D01*
Y-211500D01*
X236092Y-211237D01*
Y-179263D01*
X236127Y-179000D01*
Y-163500D01*
Y-147795D01*
X238711Y-145211D01*
X238711Y-145211D01*
X239208Y-144563D01*
X239520Y-143809D01*
X239627Y-143000D01*
X239520Y-142191D01*
X239208Y-141437D01*
X238711Y-140789D01*
X238711Y-140789D01*
X238211Y-140289D01*
X237563Y-139792D01*
X236809Y-139480D01*
X236000Y-139373D01*
D02*
G37*
G36*
X286500Y-198768D02*
X285534Y-198895D01*
X284634Y-199268D01*
X283861Y-199861D01*
X283268Y-200634D01*
X282895Y-201534D01*
X282768Y-202500D01*
X282895Y-203466D01*
X283268Y-204366D01*
X283861Y-205139D01*
X284634Y-205732D01*
X285534Y-206105D01*
X286500Y-206232D01*
X287466Y-206105D01*
X288108Y-205839D01*
X307135Y-224865D01*
X307532Y-225130D01*
X308000Y-225223D01*
X314675D01*
X314716Y-225284D01*
X315305Y-225678D01*
X316000Y-225816D01*
X316695Y-225678D01*
X317284Y-225284D01*
X317678Y-224695D01*
X317816Y-224000D01*
X317678Y-223305D01*
X317284Y-222716D01*
X316695Y-222322D01*
X316000Y-222184D01*
X315305Y-222322D01*
X314716Y-222716D01*
X314675Y-222777D01*
X308507D01*
X289839Y-204108D01*
X290105Y-203466D01*
X290232Y-202500D01*
X290105Y-201534D01*
X289732Y-200634D01*
X289139Y-199861D01*
X288366Y-199268D01*
X287466Y-198895D01*
X286500Y-198768D01*
D02*
G37*
G36*
X276500Y-218768D02*
X275534Y-218895D01*
X274634Y-219268D01*
X273861Y-219861D01*
X273268Y-220634D01*
X272895Y-221534D01*
X272768Y-222500D01*
X272895Y-223466D01*
X273268Y-224366D01*
X273861Y-225139D01*
X274634Y-225732D01*
X275534Y-226105D01*
X276500Y-226232D01*
X277466Y-226105D01*
X278366Y-225732D01*
X279139Y-225139D01*
X279732Y-224366D01*
X280105Y-223466D01*
X280232Y-222500D01*
X280105Y-221534D01*
X279732Y-220634D01*
X279139Y-219861D01*
X278366Y-219268D01*
X277466Y-218895D01*
X276500Y-218768D01*
D02*
G37*
G36*
X136500D02*
X135534Y-218895D01*
X134634Y-219268D01*
X133861Y-219861D01*
X133268Y-220634D01*
X132895Y-221534D01*
X132768Y-222500D01*
X132895Y-223466D01*
X133268Y-224366D01*
X133861Y-225139D01*
X134634Y-225732D01*
X135534Y-226105D01*
X136500Y-226232D01*
X137466Y-226105D01*
X138366Y-225732D01*
X139139Y-225139D01*
X139732Y-224366D01*
X140105Y-223466D01*
X140232Y-222500D01*
X140105Y-221534D01*
X139732Y-220634D01*
X139139Y-219861D01*
X138366Y-219268D01*
X137466Y-218895D01*
X136500Y-218768D01*
D02*
G37*
G36*
X126500D02*
X125534Y-218895D01*
X124634Y-219268D01*
X123861Y-219861D01*
X123268Y-220634D01*
X122895Y-221534D01*
X122768Y-222500D01*
X122895Y-223466D01*
X123268Y-224366D01*
X123861Y-225139D01*
X124634Y-225732D01*
X125534Y-226105D01*
X126500Y-226232D01*
X127466Y-226105D01*
X128366Y-225732D01*
X129139Y-225139D01*
X129732Y-224366D01*
X130105Y-223466D01*
X130232Y-222500D01*
X130105Y-221534D01*
X129732Y-220634D01*
X129139Y-219861D01*
X128366Y-219268D01*
X127466Y-218895D01*
X126500Y-218768D01*
D02*
G37*
G36*
X286500Y-208768D02*
X285534Y-208895D01*
X284634Y-209268D01*
X283861Y-209861D01*
X283268Y-210634D01*
X282895Y-211534D01*
X282768Y-212500D01*
X282895Y-213466D01*
X283268Y-214366D01*
X283861Y-215139D01*
X284634Y-215732D01*
X285534Y-216105D01*
X286500Y-216232D01*
X287466Y-216105D01*
X288366Y-215732D01*
X289139Y-215139D01*
X289732Y-214366D01*
X289743Y-214338D01*
X291108D01*
X303698Y-226928D01*
X303684Y-227000D01*
X303822Y-227695D01*
X304216Y-228284D01*
X304805Y-228678D01*
X305221Y-228760D01*
X305301Y-228777D01*
X305252Y-229276D01*
X301507D01*
X289565Y-217335D01*
X289168Y-217070D01*
X288700Y-216976D01*
X282707D01*
X279839Y-214108D01*
X280105Y-213466D01*
X280232Y-212500D01*
X280105Y-211534D01*
X279732Y-210634D01*
X279139Y-209861D01*
X278366Y-209268D01*
X277466Y-208895D01*
X276500Y-208768D01*
X275534Y-208895D01*
X274634Y-209268D01*
X273861Y-209861D01*
X273268Y-210634D01*
X272895Y-211534D01*
X272768Y-212500D01*
X272895Y-213466D01*
X273268Y-214366D01*
X273861Y-215139D01*
X274634Y-215732D01*
X275534Y-216105D01*
X276500Y-216232D01*
X277466Y-216105D01*
X278108Y-215839D01*
X281335Y-219065D01*
X281732Y-219330D01*
X282200Y-219424D01*
X283695D01*
X283813Y-219923D01*
X283268Y-220634D01*
X282895Y-221534D01*
X282768Y-222500D01*
X282895Y-223466D01*
X283268Y-224366D01*
X283861Y-225139D01*
X284634Y-225732D01*
X285534Y-226105D01*
X286500Y-226232D01*
X287466Y-226105D01*
X288366Y-225732D01*
X289139Y-225139D01*
X289732Y-224366D01*
X290105Y-223466D01*
X290232Y-222500D01*
X290182Y-222119D01*
X290655Y-221886D01*
X300135Y-231365D01*
X300532Y-231630D01*
X301000Y-231723D01*
X313675D01*
X313716Y-231784D01*
X314305Y-232178D01*
X314721Y-232260D01*
X314801Y-232277D01*
X314752Y-232776D01*
X290474D01*
X290232Y-232500D01*
X290105Y-231534D01*
X289732Y-230634D01*
X289139Y-229861D01*
X288366Y-229268D01*
X287466Y-228895D01*
X286500Y-228768D01*
X285534Y-228895D01*
X284634Y-229268D01*
X283861Y-229861D01*
X283268Y-230634D01*
X282895Y-231534D01*
X282768Y-232500D01*
X282895Y-233466D01*
X283268Y-234366D01*
X283861Y-235139D01*
X284634Y-235732D01*
X284742Y-235776D01*
X284642Y-236277D01*
X283737D01*
X280200Y-232740D01*
X280232Y-232500D01*
X280105Y-231534D01*
X279732Y-230634D01*
X279139Y-229861D01*
X278366Y-229268D01*
X277466Y-228895D01*
X276500Y-228768D01*
X275534Y-228895D01*
X274634Y-229268D01*
X273861Y-229861D01*
X273268Y-230634D01*
X272895Y-231534D01*
X272768Y-232500D01*
X272895Y-233466D01*
X273268Y-234366D01*
X273861Y-235139D01*
X274634Y-235732D01*
X274742Y-235776D01*
X274642Y-236277D01*
X227243D01*
Y-234257D01*
X218757D01*
Y-242743D01*
X227243D01*
Y-238723D01*
X274642D01*
X274742Y-239224D01*
X274634Y-239268D01*
X273861Y-239861D01*
X273268Y-240634D01*
X272895Y-241534D01*
X272768Y-242500D01*
X272895Y-243466D01*
X273161Y-244108D01*
X269993Y-247276D01*
X227086D01*
X226707Y-246360D01*
X226026Y-245474D01*
X225140Y-244794D01*
X224108Y-244366D01*
X223000Y-244220D01*
X221892Y-244366D01*
X220860Y-244794D01*
X219974Y-245474D01*
X219293Y-246360D01*
X218866Y-247392D01*
X218720Y-248500D01*
X218866Y-249608D01*
X219293Y-250640D01*
X219974Y-251526D01*
X220860Y-252206D01*
X221892Y-252634D01*
X223000Y-252780D01*
X224108Y-252634D01*
X225140Y-252206D01*
X226026Y-251526D01*
X226707Y-250640D01*
X227086Y-249724D01*
X270500D01*
X270968Y-249630D01*
X271365Y-249365D01*
X274892Y-245839D01*
X275534Y-246105D01*
X276500Y-246232D01*
X277466Y-246105D01*
X278366Y-245732D01*
X279139Y-245139D01*
X279732Y-244366D01*
X280105Y-243466D01*
X280232Y-242500D01*
X280105Y-241534D01*
X279732Y-240634D01*
X280139Y-240370D01*
X282216Y-242447D01*
X282613Y-242712D01*
X282801Y-242749D01*
X282895Y-243466D01*
X283268Y-244366D01*
X283861Y-245139D01*
X284634Y-245732D01*
X285534Y-246105D01*
X286500Y-246232D01*
X287466Y-246105D01*
X288366Y-245732D01*
X289139Y-245139D01*
X289732Y-244366D01*
X290105Y-243466D01*
X290232Y-242500D01*
X290105Y-241534D01*
X289732Y-240634D01*
X289139Y-239861D01*
X288366Y-239268D01*
X288258Y-239224D01*
X288358Y-238723D01*
X346852D01*
X356348Y-248220D01*
X356115Y-248693D01*
X355776Y-248649D01*
X354966Y-248755D01*
X354212Y-249068D01*
X353565Y-249565D01*
X353068Y-250212D01*
X352755Y-250966D01*
X352649Y-251776D01*
Y-261000D01*
X352755Y-261809D01*
X353068Y-262563D01*
X353207Y-262745D01*
Y-263568D01*
X354031D01*
X354212Y-263708D01*
X354966Y-264020D01*
X355776Y-264127D01*
X356585Y-264020D01*
X357339Y-263708D01*
X357521Y-263568D01*
X358344D01*
Y-262745D01*
X358483Y-262563D01*
X358796Y-261809D01*
X358902Y-261000D01*
Y-251776D01*
X358858Y-251437D01*
X359331Y-251203D01*
X366098Y-257970D01*
X365906Y-258432D01*
X362656D01*
Y-263568D01*
X362845D01*
Y-265535D01*
X362672Y-265558D01*
X361687Y-265965D01*
X360842Y-266614D01*
X360193Y-267459D01*
X359786Y-268444D01*
X359647Y-269500D01*
X359786Y-270556D01*
X360193Y-271541D01*
X360842Y-272386D01*
X361687Y-273035D01*
X362672Y-273442D01*
X363728Y-273581D01*
X364784Y-273442D01*
X365769Y-273035D01*
X366614Y-272386D01*
X367263Y-271541D01*
X367670Y-270556D01*
X367809Y-269500D01*
X367670Y-268444D01*
X367263Y-267459D01*
X366614Y-266614D01*
X366108Y-266226D01*
Y-263568D01*
X367793D01*
Y-261362D01*
X368255Y-261171D01*
X378628Y-271544D01*
Y-274164D01*
X383372D01*
Y-271827D01*
X383834Y-271636D01*
X385063Y-272865D01*
X385460Y-273130D01*
X385928Y-273223D01*
X387128D01*
Y-274175D01*
X391872D01*
Y-269825D01*
X387128D01*
Y-270777D01*
X386435D01*
X385195Y-269537D01*
Y-269426D01*
X385102Y-268958D01*
X384837Y-268561D01*
X349411Y-233135D01*
X349014Y-232870D01*
X348546Y-232776D01*
X315248D01*
X315199Y-232277D01*
X315279Y-232260D01*
X315695Y-232178D01*
X316284Y-231784D01*
X316678Y-231195D01*
X316816Y-230500D01*
X316678Y-229805D01*
X316284Y-229216D01*
X315695Y-228822D01*
X315000Y-228684D01*
X314305Y-228822D01*
X313716Y-229216D01*
X313675Y-229276D01*
X305748D01*
X305699Y-228777D01*
X305779Y-228760D01*
X306195Y-228678D01*
X306784Y-228284D01*
X307178Y-227695D01*
X307316Y-227000D01*
X307178Y-226305D01*
X306784Y-225716D01*
X306195Y-225322D01*
X305500Y-225184D01*
X305429Y-225198D01*
X292480Y-212249D01*
X292083Y-211984D01*
X291615Y-211891D01*
X290152D01*
X290105Y-211534D01*
X289732Y-210634D01*
X289139Y-209861D01*
X288366Y-209268D01*
X287466Y-208895D01*
X286500Y-208768D01*
D02*
G37*
G36*
X148843Y-12830D02*
X147376Y-13023D01*
X146008Y-13590D01*
X144834Y-14491D01*
X143933Y-15665D01*
X143366Y-17033D01*
X143173Y-18500D01*
X143366Y-19967D01*
X143933Y-21335D01*
X144834Y-22509D01*
X146008Y-23410D01*
X147376Y-23977D01*
X148843Y-24170D01*
X150310Y-23977D01*
X151678Y-23410D01*
X152852Y-22509D01*
X153529Y-21627D01*
X158205D01*
X202373Y-65795D01*
Y-90869D01*
X139829D01*
X139732Y-90634D01*
X139139Y-89861D01*
X138366Y-89268D01*
X137466Y-88895D01*
X136500Y-88768D01*
X135534Y-88895D01*
X134634Y-89268D01*
X133861Y-89861D01*
X133268Y-90634D01*
X133171Y-90869D01*
X129829D01*
X129732Y-90634D01*
X129139Y-89861D01*
X128366Y-89268D01*
X127466Y-88895D01*
X126500Y-88768D01*
X125534Y-88895D01*
X124634Y-89268D01*
X123861Y-89861D01*
X123268Y-90634D01*
X122895Y-91534D01*
X122768Y-92500D01*
X122895Y-93466D01*
X123268Y-94366D01*
X123861Y-95139D01*
X124634Y-95732D01*
X125534Y-96105D01*
X126500Y-96232D01*
X127466Y-96105D01*
X128366Y-95732D01*
X129139Y-95139D01*
X129732Y-94366D01*
X129829Y-94131D01*
X133171D01*
X133268Y-94366D01*
X133861Y-95139D01*
X134634Y-95732D01*
X135534Y-96105D01*
X136500Y-96232D01*
X137466Y-96105D01*
X138366Y-95732D01*
X139139Y-95139D01*
X139732Y-94366D01*
X139829Y-94131D01*
X198793D01*
X198985Y-94593D01*
X148789Y-144789D01*
X148292Y-145437D01*
X147980Y-146191D01*
X147926Y-146595D01*
X147873Y-147000D01*
X147873Y-147000D01*
Y-261500D01*
Y-265000D01*
Y-267500D01*
X147980Y-268309D01*
X148109Y-268620D01*
X147726Y-269003D01*
X147466Y-268895D01*
X146500Y-268768D01*
X145534Y-268895D01*
X144634Y-269268D01*
X143861Y-269861D01*
X143268Y-270634D01*
X142895Y-271534D01*
X142768Y-272500D01*
X142895Y-273466D01*
X143268Y-274366D01*
X143861Y-275139D01*
X144634Y-275732D01*
X145534Y-276105D01*
X146500Y-276232D01*
X147466Y-276105D01*
X148366Y-275732D01*
X149139Y-275139D01*
X149732Y-274366D01*
X150105Y-273466D01*
X150232Y-272500D01*
X150105Y-271534D01*
X149851Y-270920D01*
X150111Y-270613D01*
X150228Y-270525D01*
X151000Y-270627D01*
X151809Y-270520D01*
X152563Y-270208D01*
X153211Y-269711D01*
X153708Y-269063D01*
X154020Y-268309D01*
X154127Y-267500D01*
Y-265000D01*
Y-261500D01*
Y-148295D01*
X207711Y-94711D01*
X208208Y-94063D01*
X208520Y-93309D01*
X208574Y-92905D01*
X208627Y-92500D01*
X208627Y-92500D01*
Y-67627D01*
X261500D01*
X261500Y-67627D01*
X261905Y-67573D01*
X262309Y-67520D01*
X263063Y-67208D01*
X263711Y-66711D01*
X295545Y-34877D01*
X296044Y-34902D01*
X296086Y-34954D01*
X297032Y-35730D01*
X297373Y-35912D01*
Y-84085D01*
X297373Y-84085D01*
X297427Y-84490D01*
X297480Y-84894D01*
X297792Y-85648D01*
X298289Y-86296D01*
X314873Y-102880D01*
Y-142000D01*
Y-147051D01*
Y-154000D01*
X314873Y-154000D01*
X314927Y-154405D01*
X314980Y-154809D01*
X315292Y-155563D01*
X315789Y-156211D01*
X352373Y-192795D01*
Y-218000D01*
Y-222000D01*
Y-226500D01*
Y-230500D01*
X352480Y-231309D01*
X352792Y-232063D01*
X353289Y-232711D01*
X353937Y-233208D01*
X354691Y-233520D01*
X355500Y-233627D01*
X356309Y-233520D01*
X357063Y-233208D01*
X357711Y-232711D01*
X358208Y-232063D01*
X358520Y-231309D01*
X358627Y-230500D01*
Y-226500D01*
Y-222000D01*
Y-218000D01*
Y-191500D01*
X358627Y-191500D01*
X358520Y-190691D01*
X358208Y-189937D01*
X357711Y-189289D01*
X321127Y-152705D01*
Y-142000D01*
Y-101585D01*
X321127Y-101585D01*
X321074Y-101180D01*
X321020Y-100776D01*
X320891Y-100463D01*
X320708Y-100022D01*
X320211Y-99374D01*
X320211Y-99374D01*
X303627Y-82790D01*
Y-35912D01*
X303968Y-35730D01*
X304914Y-34954D01*
X305690Y-34008D01*
X306267Y-32929D01*
X306622Y-31758D01*
X306742Y-30540D01*
X306622Y-29322D01*
X306267Y-28151D01*
X305690Y-27072D01*
X304914Y-26126D01*
X303968Y-25350D01*
X302889Y-24773D01*
X301718Y-24418D01*
X300500Y-24298D01*
X299282Y-24418D01*
X298111Y-24773D01*
X297032Y-25350D01*
X296086Y-26126D01*
X295310Y-27072D01*
X295103Y-27460D01*
X294651Y-27520D01*
X293897Y-27832D01*
X293249Y-28329D01*
X293249Y-28329D01*
X260205Y-61373D01*
X206795D01*
X161711Y-16289D01*
X161063Y-15792D01*
X160309Y-15480D01*
X159905Y-15427D01*
X159500Y-15373D01*
X159500Y-15373D01*
X153529D01*
X152852Y-14491D01*
X151678Y-13590D01*
X150310Y-13023D01*
X148843Y-12830D01*
D02*
G37*
G36*
X382272Y-220256D02*
X380745Y-220406D01*
X379278Y-220851D01*
X377925Y-221574D01*
X376739Y-222547D01*
X375766Y-223733D01*
X375043Y-225086D01*
X374598Y-226554D01*
X374447Y-228080D01*
X374598Y-229606D01*
X375043Y-231074D01*
X375766Y-232427D01*
X376739Y-233613D01*
X377925Y-234586D01*
X379278Y-235309D01*
X380745Y-235754D01*
X382272Y-235904D01*
X383798Y-235754D01*
X385266Y-235309D01*
X386619Y-234586D01*
X387804Y-233613D01*
X388777Y-232427D01*
X389500Y-231074D01*
X389946Y-229606D01*
X390096Y-228080D01*
X389946Y-226554D01*
X389500Y-225086D01*
X388777Y-223733D01*
X387804Y-222547D01*
X386619Y-221574D01*
X385266Y-220851D01*
X383798Y-220406D01*
X382272Y-220256D01*
D02*
G37*
G36*
X136500Y-228768D02*
X135534Y-228895D01*
X134634Y-229268D01*
X133861Y-229861D01*
X133268Y-230634D01*
X132895Y-231534D01*
X132768Y-232500D01*
X132895Y-233466D01*
X133268Y-234366D01*
X133861Y-235139D01*
X134634Y-235732D01*
X135534Y-236105D01*
X136500Y-236232D01*
X137466Y-236105D01*
X138366Y-235732D01*
X139139Y-235139D01*
X139732Y-234366D01*
X140105Y-233466D01*
X140232Y-232500D01*
X140105Y-231534D01*
X139732Y-230634D01*
X139139Y-229861D01*
X138366Y-229268D01*
X137466Y-228895D01*
X136500Y-228768D01*
D02*
G37*
G36*
X126500D02*
X125534Y-228895D01*
X124634Y-229268D01*
X123861Y-229861D01*
X123268Y-230634D01*
X122895Y-231534D01*
X122768Y-232500D01*
X122895Y-233466D01*
X123268Y-234366D01*
X123861Y-235139D01*
X124634Y-235732D01*
X125534Y-236105D01*
X126500Y-236232D01*
X127466Y-236105D01*
X128366Y-235732D01*
X129139Y-235139D01*
X129732Y-234366D01*
X130105Y-233466D01*
X130232Y-232500D01*
X130105Y-231534D01*
X129732Y-230634D01*
X129139Y-229861D01*
X128366Y-229268D01*
X127466Y-228895D01*
X126500Y-228768D01*
D02*
G37*
G36*
X305500Y-246684D02*
X304805Y-246822D01*
X304574Y-246976D01*
X280800D01*
X280332Y-247070D01*
X279935Y-247335D01*
X278108Y-249161D01*
X277466Y-248895D01*
X276500Y-248768D01*
X275534Y-248895D01*
X274634Y-249268D01*
X273861Y-249861D01*
X273268Y-250634D01*
X272895Y-251534D01*
X272768Y-252500D01*
X272895Y-253466D01*
X273268Y-254366D01*
X273861Y-255139D01*
X274634Y-255732D01*
X275534Y-256105D01*
X276500Y-256232D01*
X277466Y-256105D01*
X278366Y-255732D01*
X279139Y-255139D01*
X279732Y-254366D01*
X280105Y-253466D01*
X280232Y-252500D01*
X280105Y-251534D01*
X279839Y-250892D01*
X281307Y-249424D01*
X283695D01*
X283813Y-249923D01*
X283268Y-250634D01*
X282895Y-251534D01*
X282768Y-252500D01*
X282895Y-253466D01*
X283268Y-254366D01*
X283861Y-255139D01*
X284634Y-255732D01*
X285534Y-256105D01*
X286500Y-256232D01*
X287466Y-256105D01*
X288366Y-255732D01*
X289139Y-255139D01*
X289628Y-254501D01*
X304027D01*
X304216Y-254784D01*
X304805Y-255178D01*
X305500Y-255316D01*
X306195Y-255178D01*
X306784Y-254784D01*
X307178Y-254195D01*
X307316Y-253500D01*
X307178Y-252805D01*
X306784Y-252216D01*
X306195Y-251822D01*
X305500Y-251684D01*
X304805Y-251822D01*
X304458Y-252054D01*
X290173D01*
X290105Y-251534D01*
X289732Y-250634D01*
X289187Y-249923D01*
X289305Y-249424D01*
X303975D01*
X304216Y-249784D01*
X304805Y-250178D01*
X305500Y-250316D01*
X306195Y-250178D01*
X306784Y-249784D01*
X307178Y-249195D01*
X307316Y-248500D01*
X307178Y-247805D01*
X306784Y-247216D01*
X306195Y-246822D01*
X305500Y-246684D01*
D02*
G37*
G36*
X136500Y-248768D02*
X135534Y-248895D01*
X134634Y-249268D01*
X133861Y-249861D01*
X133268Y-250634D01*
X132895Y-251534D01*
X132768Y-252500D01*
X132895Y-253466D01*
X133268Y-254366D01*
X133861Y-255139D01*
X134634Y-255732D01*
X135534Y-256105D01*
X136500Y-256232D01*
X137466Y-256105D01*
X138366Y-255732D01*
X139139Y-255139D01*
X139732Y-254366D01*
X140105Y-253466D01*
X140232Y-252500D01*
X140105Y-251534D01*
X139732Y-250634D01*
X139139Y-249861D01*
X138366Y-249268D01*
X137466Y-248895D01*
X136500Y-248768D01*
D02*
G37*
G36*
X382272Y-242517D02*
X380745Y-242667D01*
X379278Y-243113D01*
X377925Y-243836D01*
X376739Y-244809D01*
X375766Y-245994D01*
X375043Y-247347D01*
X374598Y-248815D01*
X374447Y-250341D01*
X374598Y-251868D01*
X375043Y-253335D01*
X375766Y-254688D01*
X376739Y-255874D01*
X377925Y-256847D01*
X379278Y-257570D01*
X380745Y-258015D01*
X382272Y-258166D01*
X383798Y-258015D01*
X385266Y-257570D01*
X386619Y-256847D01*
X387804Y-255874D01*
X388777Y-254688D01*
X389500Y-253335D01*
X389946Y-251868D01*
X390096Y-250341D01*
X389946Y-248815D01*
X389500Y-247347D01*
X388777Y-245994D01*
X387804Y-244809D01*
X386619Y-243836D01*
X385266Y-243113D01*
X383798Y-242667D01*
X382272Y-242517D01*
D02*
G37*
G36*
X303200Y-256977D02*
X280800D01*
X280332Y-257070D01*
X279935Y-257335D01*
X278108Y-259161D01*
X277466Y-258895D01*
X276500Y-258768D01*
X275534Y-258895D01*
X274634Y-259268D01*
X273861Y-259861D01*
X273268Y-260634D01*
X272895Y-261534D01*
X272768Y-262500D01*
X272895Y-263466D01*
X273268Y-264366D01*
X273861Y-265139D01*
X274634Y-265732D01*
X275534Y-266105D01*
X276500Y-266232D01*
X277466Y-266105D01*
X278366Y-265732D01*
X279139Y-265139D01*
X279732Y-264366D01*
X280105Y-263466D01*
X280232Y-262500D01*
X280105Y-261534D01*
X279839Y-260892D01*
X281307Y-259423D01*
X283695D01*
X283813Y-259924D01*
X283268Y-260634D01*
X282895Y-261534D01*
X282768Y-262500D01*
X282895Y-263466D01*
X283268Y-264366D01*
X283861Y-265139D01*
X284634Y-265732D01*
X285534Y-266105D01*
X286500Y-266232D01*
X287466Y-266105D01*
X288366Y-265732D01*
X289139Y-265139D01*
X289732Y-264366D01*
X289998Y-263723D01*
X300993D01*
X304198Y-266929D01*
X304184Y-267000D01*
X304322Y-267695D01*
X304716Y-268284D01*
X305305Y-268678D01*
X306000Y-268816D01*
X306695Y-268678D01*
X307284Y-268284D01*
X307678Y-267695D01*
X307816Y-267000D01*
X307678Y-266305D01*
X307284Y-265716D01*
X306695Y-265322D01*
X306000Y-265184D01*
X305928Y-265198D01*
X302365Y-261635D01*
X301968Y-261370D01*
X301500Y-261277D01*
X289998D01*
X289732Y-260634D01*
X289187Y-259924D01*
X289305Y-259423D01*
X302693D01*
X304198Y-260929D01*
X304184Y-261000D01*
X304322Y-261695D01*
X304716Y-262284D01*
X305305Y-262678D01*
X306000Y-262816D01*
X306695Y-262678D01*
X307284Y-262284D01*
X307678Y-261695D01*
X307816Y-261000D01*
X307678Y-260305D01*
X307284Y-259716D01*
X306695Y-259322D01*
X306000Y-259184D01*
X305928Y-259198D01*
X304065Y-257335D01*
X303668Y-257070D01*
X303200Y-256977D01*
D02*
G37*
G36*
X136500Y-258768D02*
X135534Y-258895D01*
X134634Y-259268D01*
X133861Y-259861D01*
X133268Y-260634D01*
X132895Y-261534D01*
X132768Y-262500D01*
X132895Y-263466D01*
X133268Y-264366D01*
X133861Y-265139D01*
X134634Y-265732D01*
X135534Y-266105D01*
X136500Y-266232D01*
X137466Y-266105D01*
X138366Y-265732D01*
X139139Y-265139D01*
X139732Y-264366D01*
X140105Y-263466D01*
X140232Y-262500D01*
X140105Y-261534D01*
X139732Y-260634D01*
X139139Y-259861D01*
X138366Y-259268D01*
X137466Y-258895D01*
X136500Y-258768D01*
D02*
G37*
G36*
X126500D02*
X125534Y-258895D01*
X124634Y-259268D01*
X123861Y-259861D01*
X123268Y-260634D01*
X122895Y-261534D01*
X122768Y-262500D01*
X122895Y-263466D01*
X123268Y-264366D01*
X123861Y-265139D01*
X124634Y-265732D01*
X125534Y-266105D01*
X126500Y-266232D01*
X127466Y-266105D01*
X128366Y-265732D01*
X129139Y-265139D01*
X129732Y-264366D01*
X130105Y-263466D01*
X130232Y-262500D01*
X130105Y-261534D01*
X129732Y-260634D01*
X129139Y-259861D01*
X128366Y-259268D01*
X127466Y-258895D01*
X126500Y-258768D01*
D02*
G37*
G36*
X211000Y-262684D02*
X210305Y-262822D01*
X209716Y-263216D01*
X209675Y-263277D01*
X183500D01*
X183032Y-263370D01*
X182635Y-263635D01*
X177385Y-268885D01*
X176500Y-268768D01*
X175534Y-268895D01*
X174634Y-269268D01*
X173861Y-269861D01*
X173268Y-270634D01*
X172895Y-271534D01*
X172768Y-272500D01*
X172895Y-273466D01*
X173268Y-274366D01*
X173861Y-275139D01*
X174634Y-275732D01*
X175534Y-276105D01*
X176500Y-276232D01*
X177466Y-276105D01*
X178366Y-275732D01*
X179139Y-275139D01*
X179732Y-274366D01*
X180105Y-273466D01*
X180232Y-272500D01*
X180105Y-271534D01*
X179732Y-270634D01*
X179456Y-270274D01*
X184007Y-265723D01*
X209675D01*
X209716Y-265784D01*
X210305Y-266178D01*
X211000Y-266316D01*
X211695Y-266178D01*
X212284Y-265784D01*
X212678Y-265195D01*
X212816Y-264500D01*
X212678Y-263805D01*
X212284Y-263216D01*
X211695Y-262822D01*
X211000Y-262684D01*
D02*
G37*
G36*
X301200Y-266976D02*
X280800D01*
X280332Y-267070D01*
X279935Y-267335D01*
X278108Y-269161D01*
X277466Y-268895D01*
X276500Y-268768D01*
X275534Y-268895D01*
X274634Y-269268D01*
X273861Y-269861D01*
X273268Y-270634D01*
X272895Y-271534D01*
X272768Y-272500D01*
X272895Y-273466D01*
X273268Y-274366D01*
X273861Y-275139D01*
X274634Y-275732D01*
X275534Y-276105D01*
X276500Y-276232D01*
X277466Y-276105D01*
X278366Y-275732D01*
X279139Y-275139D01*
X279732Y-274366D01*
X280105Y-273466D01*
X280232Y-272500D01*
X280105Y-271534D01*
X279839Y-270892D01*
X281307Y-269424D01*
X283695D01*
X283813Y-269923D01*
X283268Y-270634D01*
X282895Y-271534D01*
X282768Y-272500D01*
X282895Y-273466D01*
X283268Y-274366D01*
X283861Y-275139D01*
X284634Y-275732D01*
X285534Y-276105D01*
X286500Y-276232D01*
X287466Y-276105D01*
X288366Y-275732D01*
X289139Y-275139D01*
X289732Y-274366D01*
X289998Y-273724D01*
X292493D01*
X296993Y-278223D01*
X296760Y-278697D01*
X296244Y-278629D01*
X295435Y-278736D01*
X294681Y-279048D01*
X294033Y-279545D01*
X293536Y-280192D01*
X293224Y-280946D01*
X293117Y-281756D01*
Y-307500D01*
X293224Y-308309D01*
X293536Y-309063D01*
X293954Y-309607D01*
Y-317213D01*
X292856Y-318310D01*
X279232D01*
X271211Y-310289D01*
X270563Y-309792D01*
X269809Y-309480D01*
X269405Y-309426D01*
X269000Y-309373D01*
X269000Y-309373D01*
X253968D01*
X252871Y-308276D01*
Y-303500D01*
X252764Y-302691D01*
X252452Y-301937D01*
X252419Y-301893D01*
Y-301128D01*
X251745D01*
X251307Y-300792D01*
X250553Y-300480D01*
X249744Y-300373D01*
X248935Y-300480D01*
X248181Y-300792D01*
X247533Y-301289D01*
X247036Y-301937D01*
X246724Y-302691D01*
X246617Y-303500D01*
Y-306444D01*
X230929D01*
X230929Y-306444D01*
X230120Y-306551D01*
X229366Y-306863D01*
X228718Y-307360D01*
X228718Y-307360D01*
X225789Y-310289D01*
X225292Y-310937D01*
X224980Y-311691D01*
X224926Y-312095D01*
X224873Y-312500D01*
X224873Y-312500D01*
Y-325008D01*
X224873Y-325008D01*
X224926Y-325413D01*
X224980Y-325817D01*
X225292Y-326571D01*
X225789Y-327219D01*
X228718Y-330148D01*
X228718Y-330148D01*
X229366Y-330645D01*
X230120Y-330957D01*
X230929Y-331064D01*
X230929Y-331064D01*
X246500D01*
X247309Y-330957D01*
X248063Y-330645D01*
X248245Y-330505D01*
X250151D01*
Y-329314D01*
X250568Y-328897D01*
X252128D01*
Y-328930D01*
X256872D01*
Y-324581D01*
X252128D01*
Y-324615D01*
X249681D01*
X248862Y-324778D01*
X248167Y-325242D01*
X248129Y-325280D01*
X248063Y-325229D01*
X247309Y-324917D01*
X246500Y-324810D01*
X232224D01*
X231127Y-323713D01*
Y-313795D01*
X232224Y-312698D01*
X248449D01*
X250462Y-314711D01*
X250462Y-314711D01*
X251110Y-315208D01*
X251864Y-315520D01*
X252673Y-315627D01*
X252673Y-315627D01*
X267705D01*
X275726Y-323648D01*
X275726Y-323648D01*
X276374Y-324145D01*
X277128Y-324457D01*
X277937Y-324564D01*
X277937Y-324564D01*
X294151D01*
X294152Y-324564D01*
X294556Y-324511D01*
X294961Y-324457D01*
X295715Y-324145D01*
X296362Y-323648D01*
X299291Y-320719D01*
X299291Y-320719D01*
X299788Y-320071D01*
X300101Y-319317D01*
X300207Y-318508D01*
X300207Y-318508D01*
Y-306000D01*
X300101Y-305191D01*
X299788Y-304437D01*
X299371Y-303893D01*
Y-281756D01*
X299303Y-281241D01*
X299777Y-281007D01*
X352276Y-333507D01*
Y-342058D01*
X352370Y-342527D01*
X352635Y-342923D01*
X363570Y-353859D01*
Y-356872D01*
X367919D01*
Y-352128D01*
X365300D01*
X354724Y-341552D01*
Y-333000D01*
X354630Y-332532D01*
X354365Y-332135D01*
X293865Y-271635D01*
X293468Y-271370D01*
X293000Y-271276D01*
X289998D01*
X289732Y-270634D01*
X289187Y-269923D01*
X289305Y-269424D01*
X300693D01*
X303698Y-272428D01*
X303684Y-272500D01*
X303822Y-273195D01*
X304216Y-273784D01*
X304805Y-274178D01*
X305500Y-274316D01*
X306195Y-274178D01*
X306784Y-273784D01*
X307178Y-273195D01*
X307316Y-272500D01*
X307178Y-271805D01*
X306784Y-271216D01*
X306195Y-270822D01*
X305500Y-270684D01*
X305429Y-270698D01*
X302065Y-267335D01*
X301668Y-267070D01*
X301200Y-266976D01*
D02*
G37*
G36*
X266500Y-268768D02*
X265534Y-268895D01*
X264634Y-269268D01*
X263861Y-269861D01*
X263268Y-270634D01*
X262895Y-271534D01*
X262768Y-272500D01*
X262895Y-273466D01*
X263268Y-274366D01*
X263861Y-275139D01*
X264634Y-275732D01*
X265534Y-276105D01*
X266500Y-276232D01*
X267466Y-276105D01*
X268366Y-275732D01*
X269139Y-275139D01*
X269732Y-274366D01*
X270105Y-273466D01*
X270232Y-272500D01*
X270105Y-271534D01*
X269732Y-270634D01*
X269139Y-269861D01*
X268366Y-269268D01*
X267466Y-268895D01*
X266500Y-268768D01*
D02*
G37*
G36*
X256500D02*
X255534Y-268895D01*
X254634Y-269268D01*
X253861Y-269861D01*
X253268Y-270634D01*
X252895Y-271534D01*
X252768Y-272500D01*
X252895Y-273466D01*
X253268Y-274366D01*
X253861Y-275139D01*
X254634Y-275732D01*
X255534Y-276105D01*
X256500Y-276232D01*
X257466Y-276105D01*
X258366Y-275732D01*
X259139Y-275139D01*
X259732Y-274366D01*
X260105Y-273466D01*
X260232Y-272500D01*
X260105Y-271534D01*
X259732Y-270634D01*
X259139Y-269861D01*
X258366Y-269268D01*
X257466Y-268895D01*
X256500Y-268768D01*
D02*
G37*
G36*
X246500D02*
X245534Y-268895D01*
X244634Y-269268D01*
X243861Y-269861D01*
X243268Y-270634D01*
X242895Y-271534D01*
X242768Y-272500D01*
X242895Y-273466D01*
X243268Y-274366D01*
X243861Y-275139D01*
X244634Y-275732D01*
X245534Y-276105D01*
X246500Y-276232D01*
X247466Y-276105D01*
X248366Y-275732D01*
X249139Y-275139D01*
X249732Y-274366D01*
X250105Y-273466D01*
X250232Y-272500D01*
X250105Y-271534D01*
X249732Y-270634D01*
X249139Y-269861D01*
X248366Y-269268D01*
X247466Y-268895D01*
X246500Y-268768D01*
D02*
G37*
G36*
X236500D02*
X235534Y-268895D01*
X234634Y-269268D01*
X233861Y-269861D01*
X233268Y-270634D01*
X232895Y-271534D01*
X232768Y-272500D01*
X232895Y-273466D01*
X233268Y-274366D01*
X233861Y-275139D01*
X234634Y-275732D01*
X235534Y-276105D01*
X236500Y-276232D01*
X237466Y-276105D01*
X238366Y-275732D01*
X239139Y-275139D01*
X239732Y-274366D01*
X240105Y-273466D01*
X240232Y-272500D01*
X240105Y-271534D01*
X239732Y-270634D01*
X239139Y-269861D01*
X238366Y-269268D01*
X237466Y-268895D01*
X236500Y-268768D01*
D02*
G37*
G36*
X226500D02*
X225534Y-268895D01*
X224634Y-269268D01*
X223861Y-269861D01*
X223268Y-270634D01*
X222895Y-271534D01*
X222768Y-272500D01*
X222895Y-273466D01*
X223268Y-274366D01*
X223861Y-275139D01*
X224634Y-275732D01*
X225534Y-276105D01*
X226500Y-276232D01*
X227466Y-276105D01*
X228366Y-275732D01*
X229139Y-275139D01*
X229732Y-274366D01*
X230105Y-273466D01*
X230232Y-272500D01*
X230105Y-271534D01*
X229732Y-270634D01*
X229139Y-269861D01*
X228366Y-269268D01*
X227466Y-268895D01*
X226500Y-268768D01*
D02*
G37*
G36*
X216500D02*
X215534Y-268895D01*
X214634Y-269268D01*
X213861Y-269861D01*
X213268Y-270634D01*
X212895Y-271534D01*
X212768Y-272500D01*
X212895Y-273466D01*
X213268Y-274366D01*
X213861Y-275139D01*
X214634Y-275732D01*
X215534Y-276105D01*
X216500Y-276232D01*
X217466Y-276105D01*
X218366Y-275732D01*
X219139Y-275139D01*
X219732Y-274366D01*
X220105Y-273466D01*
X220232Y-272500D01*
X220105Y-271534D01*
X219732Y-270634D01*
X219139Y-269861D01*
X218366Y-269268D01*
X217466Y-268895D01*
X216500Y-268768D01*
D02*
G37*
G36*
X206500D02*
X205534Y-268895D01*
X204634Y-269268D01*
X203861Y-269861D01*
X203268Y-270634D01*
X202895Y-271534D01*
X202768Y-272500D01*
X202885Y-273385D01*
X200635Y-275635D01*
X200370Y-276032D01*
X200276Y-276500D01*
Y-280642D01*
X199776Y-280742D01*
X199732Y-280634D01*
X199139Y-279861D01*
X198366Y-279268D01*
X197466Y-278895D01*
X196500Y-278768D01*
X195534Y-278895D01*
X194634Y-279268D01*
X193861Y-279861D01*
X193268Y-280634D01*
X192895Y-281534D01*
X192768Y-282500D01*
X192895Y-283466D01*
X193268Y-284366D01*
X193861Y-285139D01*
X194634Y-285732D01*
X195534Y-286105D01*
X196500Y-286232D01*
X197466Y-286105D01*
X198366Y-285732D01*
X199139Y-285139D01*
X199732Y-284366D01*
X199776Y-284258D01*
X200276Y-284358D01*
Y-285790D01*
X198790Y-287277D01*
X191000D01*
X190532Y-287370D01*
X190135Y-287635D01*
X188572Y-289198D01*
X188500Y-289184D01*
X187805Y-289322D01*
X187216Y-289716D01*
X186822Y-290305D01*
X186684Y-291000D01*
X186822Y-291695D01*
X187216Y-292284D01*
X187805Y-292678D01*
X188500Y-292816D01*
X189195Y-292678D01*
X189784Y-292284D01*
X190178Y-291695D01*
X190316Y-291000D01*
X190302Y-290929D01*
X191507Y-289723D01*
X199297D01*
X199765Y-289630D01*
X200162Y-289365D01*
X202365Y-287162D01*
X202630Y-286765D01*
X202724Y-286297D01*
Y-284358D01*
X203223Y-284258D01*
X203268Y-284366D01*
X203861Y-285139D01*
X204462Y-285600D01*
X204575Y-286194D01*
X195993Y-294777D01*
X189816D01*
X189348Y-294870D01*
X188951Y-295135D01*
X185572Y-298514D01*
X185500Y-298500D01*
X184805Y-298638D01*
X184216Y-299032D01*
X183822Y-299621D01*
X183684Y-300316D01*
X183822Y-301011D01*
X184216Y-301600D01*
X184805Y-301994D01*
X185500Y-302132D01*
X186195Y-301994D01*
X186784Y-301600D01*
X187178Y-301011D01*
X187316Y-300316D01*
X187302Y-300244D01*
X190323Y-297223D01*
X196500D01*
X196968Y-297130D01*
X197365Y-296865D01*
X207365Y-286865D01*
X207630Y-286468D01*
X207723Y-286000D01*
Y-285998D01*
X208366Y-285732D01*
X209139Y-285139D01*
X209732Y-284366D01*
X210105Y-283466D01*
X210232Y-282500D01*
X210105Y-281534D01*
X209732Y-280634D01*
X209139Y-279861D01*
X208366Y-279268D01*
X207466Y-278895D01*
X206500Y-278768D01*
X205534Y-278895D01*
X204634Y-279268D01*
X203861Y-279861D01*
X203268Y-280634D01*
X203223Y-280742D01*
X202724Y-280642D01*
Y-277007D01*
X204274Y-275456D01*
X204634Y-275732D01*
X205534Y-276105D01*
X206500Y-276232D01*
X207466Y-276105D01*
X208366Y-275732D01*
X209139Y-275139D01*
X209732Y-274366D01*
X210105Y-273466D01*
X210232Y-272500D01*
X210105Y-271534D01*
X209732Y-270634D01*
X209139Y-269861D01*
X208366Y-269268D01*
X207466Y-268895D01*
X206500Y-268768D01*
D02*
G37*
G36*
X196500D02*
X195534Y-268895D01*
X194634Y-269268D01*
X193861Y-269861D01*
X193268Y-270634D01*
X192895Y-271534D01*
X192768Y-272500D01*
X192895Y-273466D01*
X193268Y-274366D01*
X193861Y-275139D01*
X194634Y-275732D01*
X195534Y-276105D01*
X196500Y-276232D01*
X197466Y-276105D01*
X198366Y-275732D01*
X199139Y-275139D01*
X199732Y-274366D01*
X200105Y-273466D01*
X200232Y-272500D01*
X200105Y-271534D01*
X199732Y-270634D01*
X199139Y-269861D01*
X198366Y-269268D01*
X197466Y-268895D01*
X196500Y-268768D01*
D02*
G37*
G36*
X186500D02*
X185534Y-268895D01*
X184634Y-269268D01*
X183861Y-269861D01*
X183268Y-270634D01*
X182895Y-271534D01*
X182768Y-272500D01*
X182895Y-273466D01*
X183268Y-274366D01*
X183861Y-275139D01*
X184634Y-275732D01*
X185534Y-276105D01*
X186500Y-276232D01*
X187466Y-276105D01*
X188366Y-275732D01*
X189139Y-275139D01*
X189732Y-274366D01*
X190105Y-273466D01*
X190232Y-272500D01*
X190105Y-271534D01*
X189732Y-270634D01*
X189139Y-269861D01*
X188366Y-269268D01*
X187466Y-268895D01*
X186500Y-268768D01*
D02*
G37*
G36*
X166500D02*
X165534Y-268895D01*
X164634Y-269268D01*
X163861Y-269861D01*
X163268Y-270634D01*
X162895Y-271534D01*
X162768Y-272500D01*
X162895Y-273466D01*
X163268Y-274366D01*
X163861Y-275139D01*
X164634Y-275732D01*
X165534Y-276105D01*
X166500Y-276232D01*
X167466Y-276105D01*
X168366Y-275732D01*
X169139Y-275139D01*
X169732Y-274366D01*
X170105Y-273466D01*
X170232Y-272500D01*
X170105Y-271534D01*
X169732Y-270634D01*
X169139Y-269861D01*
X168366Y-269268D01*
X167466Y-268895D01*
X166500Y-268768D01*
D02*
G37*
G36*
X156500D02*
X155534Y-268895D01*
X154634Y-269268D01*
X153861Y-269861D01*
X153268Y-270634D01*
X152895Y-271534D01*
X152768Y-272500D01*
X152895Y-273466D01*
X153268Y-274366D01*
X153861Y-275139D01*
X154634Y-275732D01*
X155534Y-276105D01*
X156500Y-276232D01*
X157466Y-276105D01*
X158366Y-275732D01*
X159139Y-275139D01*
X159732Y-274366D01*
X160105Y-273466D01*
X160232Y-272500D01*
X160105Y-271534D01*
X159732Y-270634D01*
X159139Y-269861D01*
X158366Y-269268D01*
X157466Y-268895D01*
X156500Y-268768D01*
D02*
G37*
G36*
X136500D02*
X135534Y-268895D01*
X134634Y-269268D01*
X133861Y-269861D01*
X133268Y-270634D01*
X132895Y-271534D01*
X132768Y-272500D01*
X132895Y-273466D01*
X133268Y-274366D01*
X133861Y-275139D01*
X134634Y-275732D01*
X135534Y-276105D01*
X136500Y-276232D01*
X137466Y-276105D01*
X138366Y-275732D01*
X139139Y-275139D01*
X139732Y-274366D01*
X140105Y-273466D01*
X140232Y-272500D01*
X140105Y-271534D01*
X139732Y-270634D01*
X139139Y-269861D01*
X138366Y-269268D01*
X137466Y-268895D01*
X136500Y-268768D01*
D02*
G37*
G36*
X126500D02*
X125534Y-268895D01*
X124634Y-269268D01*
X123861Y-269861D01*
X123268Y-270634D01*
X122895Y-271534D01*
X122768Y-272500D01*
X122895Y-273466D01*
X123268Y-274366D01*
X123861Y-275139D01*
X124634Y-275732D01*
X125534Y-276105D01*
X126500Y-276232D01*
X127466Y-276105D01*
X128366Y-275732D01*
X129139Y-275139D01*
X129732Y-274366D01*
X130105Y-273466D01*
X130232Y-272500D01*
X130105Y-271534D01*
X129732Y-270634D01*
X129139Y-269861D01*
X128366Y-269268D01*
X127466Y-268895D01*
X126500Y-268768D01*
D02*
G37*
G36*
X371602Y-275261D02*
X370546Y-275400D01*
X369561Y-275808D01*
X368716Y-276457D01*
X368067Y-277302D01*
X367915Y-277670D01*
X367415D01*
X367263Y-277302D01*
X366614Y-276457D01*
X365769Y-275808D01*
X364784Y-275400D01*
X363728Y-275261D01*
X362672Y-275400D01*
X361687Y-275808D01*
X360842Y-276457D01*
X360193Y-277302D01*
X359786Y-278286D01*
X359647Y-279343D01*
X359786Y-280399D01*
X360193Y-281383D01*
X360842Y-282229D01*
X361687Y-282877D01*
X362672Y-283285D01*
X363728Y-283424D01*
X364784Y-283285D01*
X365194Y-283115D01*
X367621Y-285543D01*
X368150Y-285896D01*
X368774Y-286020D01*
X382425D01*
X383050Y-285896D01*
X383579Y-285543D01*
X389435Y-279686D01*
X391872D01*
Y-275337D01*
X387128D01*
Y-277379D01*
X381750Y-282758D01*
X374576D01*
X374415Y-282284D01*
X374488Y-282229D01*
X375137Y-281383D01*
X375544Y-280399D01*
X375683Y-279343D01*
X375869Y-279131D01*
X378628D01*
Y-279675D01*
X383372D01*
Y-275325D01*
X378628D01*
Y-275869D01*
X374714D01*
X374090Y-275993D01*
X373980Y-276067D01*
X373643Y-275808D01*
X372658Y-275400D01*
X371602Y-275261D01*
D02*
G37*
G36*
X266500Y-278768D02*
X265534Y-278895D01*
X264634Y-279268D01*
X263861Y-279861D01*
X263268Y-280634D01*
X262895Y-281534D01*
X262768Y-282500D01*
X262895Y-283466D01*
X263268Y-284366D01*
X263861Y-285139D01*
X264634Y-285732D01*
X265534Y-286105D01*
X266500Y-286232D01*
X267466Y-286105D01*
X268366Y-285732D01*
X269139Y-285139D01*
X269732Y-284366D01*
X270105Y-283466D01*
X270232Y-282500D01*
X270105Y-281534D01*
X269732Y-280634D01*
X269139Y-279861D01*
X268366Y-279268D01*
X267466Y-278895D01*
X266500Y-278768D01*
D02*
G37*
G36*
X256500D02*
X255534Y-278895D01*
X254634Y-279268D01*
X253861Y-279861D01*
X253268Y-280634D01*
X252895Y-281534D01*
X252768Y-282500D01*
X252895Y-283466D01*
X253268Y-284366D01*
X253861Y-285139D01*
X254634Y-285732D01*
X255534Y-286105D01*
X256500Y-286232D01*
X257466Y-286105D01*
X258366Y-285732D01*
X259139Y-285139D01*
X259732Y-284366D01*
X260105Y-283466D01*
X260232Y-282500D01*
X260105Y-281534D01*
X259732Y-280634D01*
X259139Y-279861D01*
X258366Y-279268D01*
X257466Y-278895D01*
X256500Y-278768D01*
D02*
G37*
G36*
X236500D02*
X235534Y-278895D01*
X234634Y-279268D01*
X233861Y-279861D01*
X233268Y-280634D01*
X232895Y-281534D01*
X232768Y-282500D01*
X232895Y-283466D01*
X233268Y-284366D01*
X233861Y-285139D01*
X234634Y-285732D01*
X235534Y-286105D01*
X236500Y-286232D01*
X237466Y-286105D01*
X238366Y-285732D01*
X239139Y-285139D01*
X239732Y-284366D01*
X240105Y-283466D01*
X240232Y-282500D01*
X240105Y-281534D01*
X239732Y-280634D01*
X239139Y-279861D01*
X238366Y-279268D01*
X237466Y-278895D01*
X236500Y-278768D01*
D02*
G37*
G36*
X226500D02*
X225534Y-278895D01*
X224634Y-279268D01*
X223861Y-279861D01*
X223268Y-280634D01*
X222895Y-281534D01*
X222768Y-282500D01*
X222895Y-283466D01*
X223268Y-284366D01*
X223861Y-285139D01*
X224634Y-285732D01*
X225534Y-286105D01*
X226500Y-286232D01*
X227466Y-286105D01*
X228366Y-285732D01*
X229139Y-285139D01*
X229732Y-284366D01*
X230105Y-283466D01*
X230232Y-282500D01*
X230105Y-281534D01*
X229732Y-280634D01*
X229139Y-279861D01*
X228366Y-279268D01*
X227466Y-278895D01*
X226500Y-278768D01*
D02*
G37*
G36*
X216500D02*
X215534Y-278895D01*
X214634Y-279268D01*
X213861Y-279861D01*
X213268Y-280634D01*
X212895Y-281534D01*
X212768Y-282500D01*
X212895Y-283466D01*
X213268Y-284366D01*
X213861Y-285139D01*
X214634Y-285732D01*
X215534Y-286105D01*
X216500Y-286232D01*
X217466Y-286105D01*
X218366Y-285732D01*
X219139Y-285139D01*
X219732Y-284366D01*
X220105Y-283466D01*
X220232Y-282500D01*
X220105Y-281534D01*
X219732Y-280634D01*
X219139Y-279861D01*
X218366Y-279268D01*
X217466Y-278895D01*
X216500Y-278768D01*
D02*
G37*
G36*
X186500D02*
X185534Y-278895D01*
X184634Y-279268D01*
X183861Y-279861D01*
X183268Y-280634D01*
X182895Y-281534D01*
X182768Y-282500D01*
X182895Y-283466D01*
X183268Y-284366D01*
X183861Y-285139D01*
X184634Y-285732D01*
X185534Y-286105D01*
X186500Y-286232D01*
X187466Y-286105D01*
X188366Y-285732D01*
X189139Y-285139D01*
X189732Y-284366D01*
X190105Y-283466D01*
X190232Y-282500D01*
X190105Y-281534D01*
X189732Y-280634D01*
X189139Y-279861D01*
X188366Y-279268D01*
X187466Y-278895D01*
X186500Y-278768D01*
D02*
G37*
G36*
X176500D02*
X175534Y-278895D01*
X174634Y-279268D01*
X173861Y-279861D01*
X173268Y-280634D01*
X172895Y-281534D01*
X172768Y-282500D01*
X172895Y-283466D01*
X173268Y-284366D01*
X173861Y-285139D01*
X174634Y-285732D01*
X175534Y-286105D01*
X176500Y-286232D01*
X177466Y-286105D01*
X178366Y-285732D01*
X179139Y-285139D01*
X179732Y-284366D01*
X180105Y-283466D01*
X180232Y-282500D01*
X180105Y-281534D01*
X179732Y-280634D01*
X179139Y-279861D01*
X178366Y-279268D01*
X177466Y-278895D01*
X176500Y-278768D01*
D02*
G37*
G36*
X166500D02*
X165534Y-278895D01*
X164634Y-279268D01*
X163861Y-279861D01*
X163268Y-280634D01*
X162895Y-281534D01*
X162768Y-282500D01*
X162895Y-283466D01*
X163268Y-284366D01*
X163861Y-285139D01*
X164634Y-285732D01*
X165534Y-286105D01*
X166500Y-286232D01*
X167466Y-286105D01*
X168366Y-285732D01*
X169139Y-285139D01*
X169732Y-284366D01*
X170105Y-283466D01*
X170232Y-282500D01*
X170105Y-281534D01*
X169732Y-280634D01*
X169139Y-279861D01*
X168366Y-279268D01*
X167466Y-278895D01*
X166500Y-278768D01*
D02*
G37*
G36*
X156500D02*
X155534Y-278895D01*
X154634Y-279268D01*
X153861Y-279861D01*
X153268Y-280634D01*
X152895Y-281534D01*
X152768Y-282500D01*
X152895Y-283466D01*
X153268Y-284366D01*
X153861Y-285139D01*
X154634Y-285732D01*
X155534Y-286105D01*
X156500Y-286232D01*
X157466Y-286105D01*
X158366Y-285732D01*
X159139Y-285139D01*
X159732Y-284366D01*
X160105Y-283466D01*
X160232Y-282500D01*
X160105Y-281534D01*
X159732Y-280634D01*
X159139Y-279861D01*
X158366Y-279268D01*
X157466Y-278895D01*
X156500Y-278768D01*
D02*
G37*
G36*
X146500D02*
X145534Y-278895D01*
X144634Y-279268D01*
X143861Y-279861D01*
X143268Y-280634D01*
X142895Y-281534D01*
X142768Y-282500D01*
X142895Y-283466D01*
X143268Y-284366D01*
X143861Y-285139D01*
X144634Y-285732D01*
X145534Y-286105D01*
X146500Y-286232D01*
X147466Y-286105D01*
X148366Y-285732D01*
X149139Y-285139D01*
X149732Y-284366D01*
X150105Y-283466D01*
X150232Y-282500D01*
X150105Y-281534D01*
X149732Y-280634D01*
X149139Y-279861D01*
X148366Y-279268D01*
X147466Y-278895D01*
X146500Y-278768D01*
D02*
G37*
G36*
X246500D02*
X245534Y-278895D01*
X244634Y-279268D01*
X243861Y-279861D01*
X243268Y-280634D01*
X242895Y-281534D01*
X242768Y-282500D01*
X242895Y-283466D01*
X243268Y-284366D01*
X243861Y-285139D01*
X244634Y-285732D01*
X245534Y-286105D01*
X245777Y-286137D01*
Y-292000D01*
X245870Y-292468D01*
X246135Y-292865D01*
X253936Y-300666D01*
X253745Y-301128D01*
X253580D01*
Y-305872D01*
X257930D01*
Y-305021D01*
X258284Y-304784D01*
X258678Y-304195D01*
X258816Y-303500D01*
X258678Y-302805D01*
X258284Y-302216D01*
X257930Y-301979D01*
Y-301128D01*
X256979D01*
Y-300756D01*
X256886Y-300287D01*
X256621Y-299890D01*
X248223Y-291493D01*
Y-285791D01*
X248366Y-285732D01*
X249139Y-285139D01*
X249732Y-284366D01*
X250105Y-283466D01*
X250232Y-282500D01*
X250105Y-281534D01*
X249732Y-280634D01*
X249139Y-279861D01*
X248366Y-279268D01*
X247466Y-278895D01*
X246500Y-278768D01*
D02*
G37*
G36*
X382272Y-290677D02*
X380745Y-290827D01*
X379278Y-291273D01*
X377925Y-291996D01*
X376739Y-292969D01*
X375766Y-294154D01*
X375043Y-295507D01*
X374598Y-296975D01*
X374447Y-298501D01*
X374598Y-300028D01*
X375043Y-301496D01*
X375766Y-302848D01*
X376739Y-304034D01*
X377925Y-305007D01*
X379278Y-305730D01*
X380745Y-306175D01*
X382272Y-306326D01*
X383798Y-306175D01*
X385266Y-305730D01*
X386619Y-305007D01*
X387804Y-304034D01*
X388777Y-302848D01*
X389500Y-301496D01*
X389946Y-300028D01*
X390096Y-298501D01*
X389946Y-296975D01*
X389500Y-295507D01*
X388777Y-294154D01*
X387804Y-292969D01*
X386619Y-291996D01*
X385266Y-291273D01*
X383798Y-290827D01*
X382272Y-290677D01*
D02*
G37*
G36*
X383981Y-329522D02*
X377859D01*
Y-333478D01*
X381140D01*
X381298Y-333509D01*
X382531D01*
X382747Y-333725D01*
Y-337568D01*
X382202Y-337793D01*
X381315Y-338474D01*
X380635Y-339360D01*
X380208Y-340392D01*
X380062Y-341500D01*
X380208Y-342608D01*
X380635Y-343640D01*
X381315Y-344526D01*
X382202Y-345206D01*
X383234Y-345634D01*
X384342Y-345780D01*
X385449Y-345634D01*
X386482Y-345206D01*
X387368Y-344526D01*
X388048Y-343640D01*
X388476Y-342608D01*
X388622Y-341500D01*
X388476Y-340392D01*
X388048Y-339360D01*
X387368Y-338474D01*
X386482Y-337793D01*
X386009Y-337598D01*
Y-333050D01*
X385885Y-332425D01*
X385531Y-331896D01*
X384360Y-330725D01*
X383981Y-330471D01*
Y-329522D01*
D02*
G37*
G36*
X364656Y-337220D02*
X363549Y-337366D01*
X362516Y-337793D01*
X361630Y-338474D01*
X360950Y-339360D01*
X360522Y-340392D01*
X360376Y-341500D01*
X360522Y-342608D01*
X360950Y-343640D01*
X361630Y-344526D01*
X362516Y-345206D01*
X363549Y-345634D01*
X364656Y-345780D01*
X365764Y-345634D01*
X366796Y-345206D01*
X367683Y-344526D01*
X368363Y-343640D01*
X368790Y-342608D01*
X368936Y-341500D01*
X368790Y-340392D01*
X368363Y-339360D01*
X367683Y-338474D01*
X366796Y-337793D01*
X365764Y-337366D01*
X364656Y-337220D01*
D02*
G37*
G36*
X374141Y-333262D02*
X368019D01*
Y-337218D01*
X369537D01*
Y-352128D01*
X369081D01*
Y-356872D01*
X373431D01*
Y-352128D01*
X372799D01*
Y-337218D01*
X374141D01*
Y-333262D01*
D02*
G37*
G36*
X158500Y-316359D02*
X157681Y-316522D01*
X156986Y-316986D01*
X156937Y-317060D01*
X152564D01*
X152461Y-317080D01*
X149628D01*
Y-321430D01*
X154372D01*
Y-320323D01*
X156869D01*
Y-348324D01*
X131116Y-374077D01*
X130608Y-373866D01*
X129500Y-373720D01*
X128392Y-373866D01*
X127360Y-374293D01*
X126474Y-374974D01*
X125794Y-375860D01*
X125366Y-376892D01*
X125220Y-378000D01*
X125366Y-379108D01*
X125794Y-380140D01*
X126474Y-381026D01*
X127360Y-381707D01*
X128392Y-382134D01*
X129500Y-382280D01*
X130608Y-382134D01*
X131640Y-381707D01*
X132526Y-381026D01*
X133206Y-380140D01*
X133634Y-379108D01*
X133780Y-378000D01*
X133634Y-376892D01*
X133423Y-376384D01*
X159653Y-350153D01*
X160007Y-349624D01*
X160131Y-349000D01*
Y-319838D01*
X160478Y-319319D01*
X160641Y-318500D01*
X160478Y-317681D01*
X160014Y-316986D01*
X159319Y-316522D01*
X158500Y-316359D01*
D02*
G37*
G36*
X330938Y-370830D02*
X329471Y-371023D01*
X328103Y-371590D01*
X326929Y-372491D01*
X326028Y-373665D01*
X325461Y-375033D01*
X325268Y-376500D01*
X325461Y-377967D01*
X326028Y-379335D01*
X326929Y-380509D01*
X328103Y-381410D01*
X329471Y-381977D01*
X330938Y-382170D01*
X332405Y-381977D01*
X333773Y-381410D01*
X334947Y-380509D01*
X335848Y-379335D01*
X336415Y-377967D01*
X336608Y-376500D01*
X336415Y-375033D01*
X335848Y-373665D01*
X334947Y-372491D01*
X333773Y-371590D01*
X332405Y-371023D01*
X330938Y-370830D01*
D02*
G37*
G36*
X282459D02*
X280991Y-371023D01*
X279624Y-371590D01*
X278450Y-372491D01*
X277549Y-373665D01*
X276982Y-375033D01*
X276789Y-376500D01*
X276982Y-377967D01*
X277549Y-379335D01*
X278450Y-380509D01*
X279624Y-381410D01*
X280991Y-381977D01*
X282459Y-382170D01*
X283926Y-381977D01*
X285294Y-381410D01*
X286468Y-380509D01*
X287369Y-379335D01*
X287935Y-377967D01*
X288128Y-376500D01*
X287935Y-375033D01*
X287369Y-373665D01*
X286468Y-372491D01*
X285294Y-371590D01*
X283926Y-371023D01*
X282459Y-370830D01*
D02*
G37*
G36*
X233979D02*
X232512Y-371023D01*
X231144Y-371590D01*
X229970Y-372491D01*
X229069Y-373665D01*
X228503Y-375033D01*
X228310Y-376500D01*
X228503Y-377967D01*
X229069Y-379335D01*
X229970Y-380509D01*
X231144Y-381410D01*
X232512Y-381977D01*
X233979Y-382170D01*
X235447Y-381977D01*
X236814Y-381410D01*
X237988Y-380509D01*
X238890Y-379335D01*
X239456Y-377967D01*
X239649Y-376500D01*
X239456Y-375033D01*
X238890Y-373665D01*
X237988Y-372491D01*
X236814Y-371590D01*
X235447Y-371023D01*
X233979Y-370830D01*
D02*
G37*
G36*
X185500D02*
X184033Y-371023D01*
X182665Y-371590D01*
X181491Y-372491D01*
X180590Y-373665D01*
X180023Y-375033D01*
X179830Y-376500D01*
X180023Y-377967D01*
X180590Y-379335D01*
X181491Y-380509D01*
X182665Y-381410D01*
X184033Y-381977D01*
X185500Y-382170D01*
X186967Y-381977D01*
X188335Y-381410D01*
X189509Y-380509D01*
X190410Y-379335D01*
X190977Y-377967D01*
X191170Y-376500D01*
X190977Y-375033D01*
X190410Y-373665D01*
X189509Y-372491D01*
X188335Y-371590D01*
X186967Y-371023D01*
X185500Y-370830D01*
D02*
G37*
G36*
X169000Y-305184D02*
X168305Y-305322D01*
X167716Y-305716D01*
X167322Y-306305D01*
X167184Y-307000D01*
X167322Y-307695D01*
X167716Y-308284D01*
X167777Y-308325D01*
Y-357993D01*
X152013Y-373757D01*
X145257D01*
Y-382243D01*
X153743D01*
Y-375487D01*
X169865Y-359365D01*
X170130Y-358968D01*
X170223Y-358500D01*
Y-308325D01*
X170284Y-308284D01*
X170678Y-307695D01*
X170816Y-307000D01*
X170678Y-306305D01*
X170284Y-305716D01*
X169695Y-305322D01*
X169000Y-305184D01*
D02*
G37*
G36*
X139500Y-373720D02*
X138392Y-373866D01*
X137360Y-374293D01*
X136474Y-374974D01*
X135793Y-375860D01*
X135366Y-376892D01*
X135220Y-378000D01*
X135366Y-379108D01*
X135793Y-380140D01*
X136474Y-381026D01*
X137360Y-381707D01*
X138392Y-382134D01*
X139500Y-382280D01*
X140608Y-382134D01*
X141640Y-381707D01*
X142526Y-381026D01*
X143207Y-380140D01*
X143634Y-379108D01*
X143780Y-378000D01*
X143634Y-376892D01*
X143207Y-375860D01*
X142526Y-374974D01*
X141640Y-374293D01*
X140608Y-373866D01*
X139500Y-373720D01*
D02*
G37*
G36*
X381890Y-374967D02*
X380539Y-375100D01*
X379240Y-375494D01*
X378044Y-376133D01*
X376994Y-376994D01*
X376133Y-378044D01*
X375494Y-379240D01*
X375100Y-380539D01*
X374967Y-381890D01*
X375100Y-383240D01*
X375494Y-384539D01*
X376133Y-385736D01*
X376994Y-386785D01*
X378044Y-387646D01*
X379240Y-388286D01*
X380539Y-388680D01*
X381890Y-388813D01*
X383240Y-388680D01*
X384539Y-388286D01*
X385736Y-387646D01*
X386785Y-386785D01*
X387646Y-385736D01*
X388286Y-384539D01*
X388680Y-383240D01*
X388813Y-381890D01*
X388680Y-380539D01*
X388286Y-379240D01*
X387646Y-378044D01*
X386785Y-376994D01*
X385736Y-376133D01*
X384539Y-375494D01*
X383240Y-375100D01*
X381890Y-374967D01*
D02*
G37*
%LPD*%
G36*
X382167Y-269352D02*
X381976Y-269814D01*
X380359D01*
X369616Y-259072D01*
Y-258535D01*
X369523Y-258066D01*
X369258Y-257669D01*
X348224Y-236635D01*
X347827Y-236370D01*
X347358Y-236277D01*
X288358D01*
X288258Y-235776D01*
X288366Y-235732D01*
X289029Y-235224D01*
X348039D01*
X382167Y-269352D01*
D02*
G37*
D14*
X282500Y-321437D02*
X282501Y-321438D01*
X283270Y-321756D01*
X196500Y-296000D02*
X206500Y-286000D01*
X189816Y-296000D02*
X196500D01*
X185500Y-300316D02*
X189816Y-296000D01*
X206500Y-286000D02*
Y-282500D01*
X205500Y-272500D02*
X206500D01*
X201500Y-276500D02*
X205500Y-272500D01*
X201500Y-286297D02*
Y-276500D01*
X191000Y-288500D02*
X199297D01*
X201500Y-286297D01*
X188500Y-291000D02*
X191000Y-288500D01*
X95000Y-312000D02*
X105739Y-301261D01*
X183500Y-264500D02*
X211000D01*
X176500Y-271500D02*
X183500Y-264500D01*
X176500Y-272500D02*
Y-271500D01*
X124000Y-247500D02*
X131500D01*
X105739Y-265761D02*
X124000Y-247500D01*
X105739Y-301261D02*
Y-265761D01*
X131500Y-247500D02*
X136500Y-242500D01*
X347358Y-237500D02*
X368393Y-258535D01*
X283230Y-237500D02*
X347358D01*
X278230Y-232500D02*
X283230Y-237500D01*
X276500Y-232500D02*
X278230D01*
X279000Y-237500D02*
X283082Y-241582D01*
X224000Y-237500D02*
X279000D01*
X223000Y-238500D02*
X224000Y-237500D01*
X283082Y-241582D02*
X285582D01*
X223000Y-248500D02*
X270500D01*
X276500Y-242500D01*
X285582Y-241582D02*
X286500Y-242500D01*
X246203Y-315000D02*
X246500D01*
X245500Y-315703D02*
X246203Y-315000D01*
X245500Y-319063D02*
Y-315703D01*
Y-319063D02*
X246500Y-320063D01*
X236417D02*
X237500D01*
X290700Y-98200D02*
X296000Y-103500D01*
Y-136000D02*
Y-103500D01*
Y-136000D02*
X298500Y-138500D01*
X293000Y-272500D02*
X353500Y-333000D01*
Y-342058D02*
Y-333000D01*
X286500Y-272500D02*
X293000D01*
X365744Y-354500D02*
Y-354303D01*
X353500Y-342058D02*
X365744Y-354303D01*
X280800Y-268200D02*
X301200D01*
X276500Y-272500D02*
X280800Y-268200D01*
X301200D02*
X305500Y-272500D01*
X286500Y-262500D02*
X301500D01*
X306000Y-267000D01*
X276500Y-262500D02*
X280800Y-258200D01*
X303200D01*
X306000Y-261000D01*
X286500Y-252500D02*
X287278Y-253278D01*
X305278D01*
X305500Y-253500D01*
X276500Y-252500D02*
X280800Y-248200D01*
X304886D01*
X305186Y-248500D01*
X305500D01*
X291615Y-213115D02*
X305500Y-227000D01*
X287115Y-213115D02*
X291615D01*
X286500Y-212500D02*
X287115Y-213115D01*
X301000Y-230500D02*
X315000D01*
X288700Y-218200D02*
X301000Y-230500D01*
X282200Y-218200D02*
X288700D01*
X276500Y-212500D02*
X282200Y-218200D01*
X308000Y-224000D02*
X316000D01*
X286500Y-202500D02*
X308000Y-224000D01*
X348546Y-234000D02*
X383972Y-269426D01*
X288000Y-234000D02*
X348546D01*
X286500Y-232500D02*
X288000Y-234000D01*
X169000Y-358500D02*
Y-307000D01*
X149500Y-378000D02*
X169000Y-358500D01*
X286500Y-92500D02*
X292000D01*
X304244Y-104744D01*
Y-147222D02*
Y-104744D01*
X280700Y-98200D02*
X290700D01*
X276500Y-94000D02*
X280700Y-98200D01*
X276500Y-94000D02*
Y-92500D01*
X313744Y-168249D02*
Y-166000D01*
X313222D02*
X313744D01*
X313222Y-168249D02*
Y-166000D01*
Y-168249D02*
X313744D01*
X368393Y-259578D02*
Y-258535D01*
Y-259578D02*
X380803Y-271988D01*
X381000D01*
X383972Y-270043D02*
Y-269426D01*
X385928Y-272000D02*
X389500D01*
X383972Y-270043D02*
X385928Y-272000D01*
X293000Y-166000D02*
X313222D01*
X286500Y-172500D02*
X293000Y-166000D01*
X255756Y-303500D02*
Y-300756D01*
X247000Y-292000D02*
X255756Y-300756D01*
X247000Y-292000D02*
Y-283000D01*
X246500Y-282500D02*
X247000Y-283000D01*
X371602Y-279343D02*
X372523Y-278421D01*
D44*
X255755Y-303500D02*
D03*
X250244D02*
D03*
X302500Y-307500D02*
D03*
X296989D02*
D03*
X371256Y-354500D02*
D03*
X365745D02*
D03*
X332255Y-190000D02*
D03*
X326744D02*
D03*
X332255Y-182500D02*
D03*
X326744D02*
D03*
X319255Y-166000D02*
D03*
X313744D02*
D03*
X312245Y-142000D02*
D03*
X317756D02*
D03*
D45*
X254500Y-321245D02*
D03*
Y-326756D02*
D03*
X290500Y-315745D02*
D03*
Y-321256D02*
D03*
X381000Y-271989D02*
D03*
Y-277500D02*
D03*
X389500Y-272000D02*
D03*
Y-277511D02*
D03*
X152000Y-319255D02*
D03*
Y-313744D02*
D03*
D46*
X237500Y-327937D02*
D03*
Y-320063D02*
D03*
X246500Y-327937D02*
D03*
Y-320063D02*
D03*
X282500Y-321437D02*
D03*
Y-313563D02*
D03*
D56*
X296244Y-307500D02*
Y-281756D01*
X297080Y-318508D02*
Y-306000D01*
X233000Y-215500D02*
Y-211500D01*
X230000Y-214500D02*
X233000Y-211500D01*
X249744Y-309571D02*
Y-303500D01*
X232965Y-211465D02*
Y-179035D01*
X233000Y-163500D02*
Y-147000D01*
Y-146500D02*
X236500Y-143000D01*
X236000Y-142500D02*
X236500Y-143000D01*
X277937Y-321437D02*
X282500D01*
X294152D01*
X309000Y-211000D02*
X313000Y-207000D01*
X318000Y-142000D02*
Y-101585D01*
X355776Y-261000D02*
Y-251776D01*
X318000Y-154000D02*
Y-147051D01*
Y-154000D02*
Y-142000D01*
X269000Y-312500D02*
X277937Y-321437D01*
X228000Y-325008D02*
Y-312500D01*
X230929Y-309571D01*
X249744D01*
X230929Y-327937D02*
X237500D01*
X228000Y-325008D02*
X230929Y-327937D01*
X252673Y-312500D02*
X269000D01*
X355500Y-222000D02*
Y-218000D01*
X151000Y-261500D02*
Y-147000D01*
X355500Y-226500D02*
Y-222000D01*
X151000Y-265000D02*
Y-261500D01*
X249744Y-309571D02*
X252673Y-312500D01*
X151000Y-267500D02*
Y-265000D01*
Y-147000D02*
X205500Y-92500D01*
X355500Y-230500D02*
Y-226500D01*
Y-218000D02*
Y-191500D01*
X318000Y-154000D02*
X355500Y-191500D01*
X300500Y-84085D02*
Y-30540D01*
Y-84085D02*
X318000Y-101585D01*
X295460Y-30540D02*
X300500D01*
X261500Y-64500D02*
X295460Y-30540D01*
X205500Y-64500D02*
X261500D01*
X205500Y-92500D02*
Y-64500D01*
X159500Y-18500D02*
X205500Y-64500D01*
X148843Y-18500D02*
X159500D01*
X313000Y-207000D02*
Y-206500D01*
Y-203500D02*
Y-198500D01*
Y-206500D02*
Y-203500D01*
Y-198500D02*
X321500Y-190000D01*
X326744D01*
X233000Y-179000D02*
Y-163500D01*
X290000Y-14000D02*
X300500D01*
X268500Y-35500D02*
X290000Y-14000D01*
X212501Y-35500D02*
X268500D01*
X227000Y-217500D02*
X230000Y-214500D01*
X233000Y-219500D02*
Y-215500D01*
X195501Y-18500D02*
X212501Y-35500D01*
X233000Y-147000D02*
Y-146500D01*
X294152Y-321437D02*
X297080Y-318508D01*
X237500Y-327937D02*
X246500D01*
X232965Y-211465D02*
X233000Y-211500D01*
X232965Y-179035D02*
X233000Y-179000D01*
D58*
X323000Y-171037D02*
X323037D01*
X158500Y-349000D02*
Y-318500D01*
X129500Y-378000D02*
X158500Y-349000D01*
X246500Y-327937D02*
X248500D01*
X314374Y-172500D02*
Y-171968D01*
X315342Y-171000D01*
X323000D01*
X136500Y-92500D02*
X205500D01*
X364476Y-268752D02*
Y-261748D01*
X384378Y-339282D02*
Y-333050D01*
Y-339282D02*
Y-333050D01*
X323037Y-171037D02*
X326744Y-174744D01*
Y-182500D02*
Y-174744D01*
X323000Y-171037D02*
Y-171000D01*
X319830Y-167830D02*
X323000Y-171000D01*
X126500Y-92500D02*
X136500D01*
X363726Y-342431D02*
X364656Y-341500D01*
X326744Y-182500D02*
X326744Y-182500D01*
Y-190000D02*
Y-182500D01*
X326744Y-190000D02*
X326744Y-190000D01*
X364476Y-261748D02*
X365224Y-261000D01*
X363728Y-269500D02*
X364476Y-268752D01*
X371080Y-335240D02*
X371168Y-335328D01*
Y-354412D02*
Y-335328D01*
Y-354412D02*
X371256Y-354500D01*
X384378Y-339282D02*
Y-333050D01*
Y-340124D02*
Y-333050D01*
X381298Y-331878D02*
X383206D01*
X384342Y-341500D02*
X384378Y-341464D01*
Y-333050D01*
X383206Y-331878D02*
X384378Y-333050D01*
X380920Y-331500D02*
X381298Y-331878D01*
X383500Y-339282D02*
X384342Y-340124D01*
Y-341500D02*
Y-340124D01*
X389303Y-277512D02*
X389500D01*
X382425Y-284389D02*
X389303Y-277512D01*
X368774Y-284389D02*
X382425D01*
X363728Y-279343D02*
X368774Y-284389D01*
X381000Y-277500D02*
X381000Y-277500D01*
X374714Y-277500D02*
X381000D01*
X372872Y-279343D02*
X374714Y-277500D01*
X371602Y-279343D02*
X372872D01*
X350994Y-85536D02*
X376152D01*
X376494Y-85878D01*
X152564Y-318691D02*
X158309D01*
X152000Y-319256D02*
X152564Y-318691D01*
D61*
X223000Y-248500D02*
D03*
X17994Y-321851D02*
D03*
Y-331693D02*
D03*
Y-341536D02*
D03*
Y-351378D02*
D03*
Y-361221D02*
D03*
X94994D02*
D03*
Y-351378D02*
D03*
Y-341536D02*
D03*
Y-331693D02*
D03*
Y-321851D02*
D03*
X69327Y-361221D02*
D03*
Y-351378D02*
D03*
Y-341536D02*
D03*
Y-331693D02*
D03*
Y-321851D02*
D03*
X43661Y-361221D02*
D03*
Y-351378D02*
D03*
Y-341536D02*
D03*
Y-331693D02*
D03*
Y-321851D02*
D03*
X95000Y-230000D02*
D03*
Y-240000D02*
D03*
Y-250000D02*
D03*
Y-260000D02*
D03*
Y-270000D02*
D03*
Y-280000D02*
D03*
Y-290000D02*
D03*
X18000Y-230000D02*
D03*
Y-240000D02*
D03*
Y-250000D02*
D03*
Y-260000D02*
D03*
Y-270000D02*
D03*
Y-280000D02*
D03*
Y-290000D02*
D03*
X69333Y-230000D02*
D03*
Y-240000D02*
D03*
Y-250000D02*
D03*
Y-260000D02*
D03*
Y-270000D02*
D03*
Y-280000D02*
D03*
Y-290000D02*
D03*
X43667Y-230000D02*
D03*
Y-240000D02*
D03*
Y-250000D02*
D03*
Y-260000D02*
D03*
Y-270000D02*
D03*
Y-280000D02*
D03*
Y-290000D02*
D03*
X95000Y-138750D02*
D03*
Y-148750D02*
D03*
Y-158750D02*
D03*
Y-168750D02*
D03*
Y-178750D02*
D03*
Y-188750D02*
D03*
Y-198750D02*
D03*
X69333Y-138750D02*
D03*
Y-148750D02*
D03*
Y-158750D02*
D03*
Y-168750D02*
D03*
Y-178750D02*
D03*
Y-188750D02*
D03*
Y-198750D02*
D03*
X43667Y-138750D02*
D03*
Y-148750D02*
D03*
Y-158750D02*
D03*
Y-168750D02*
D03*
Y-178750D02*
D03*
Y-188750D02*
D03*
Y-198750D02*
D03*
X18000Y-138750D02*
D03*
Y-148750D02*
D03*
Y-158750D02*
D03*
Y-168750D02*
D03*
Y-178750D02*
D03*
Y-188750D02*
D03*
Y-198750D02*
D03*
X95000Y-47500D02*
D03*
Y-57500D02*
D03*
Y-67500D02*
D03*
Y-77500D02*
D03*
Y-87500D02*
D03*
Y-97500D02*
D03*
Y-107500D02*
D03*
X69333Y-47500D02*
D03*
Y-57500D02*
D03*
Y-67500D02*
D03*
Y-77500D02*
D03*
Y-87500D02*
D03*
Y-97500D02*
D03*
Y-107500D02*
D03*
X43667Y-47500D02*
D03*
Y-57500D02*
D03*
Y-67500D02*
D03*
Y-77500D02*
D03*
Y-87500D02*
D03*
Y-97500D02*
D03*
Y-107500D02*
D03*
X18000Y-47500D02*
D03*
Y-57500D02*
D03*
Y-67500D02*
D03*
Y-77500D02*
D03*
Y-87500D02*
D03*
Y-97500D02*
D03*
Y-107500D02*
D03*
X257000Y-8539D02*
D03*
X244500D02*
D03*
X232000D02*
D03*
X219500D02*
D03*
X377110Y-36657D02*
D03*
Y-46500D02*
D03*
Y-56342D02*
D03*
Y-66185D02*
D03*
Y-76027D02*
D03*
X351000Y-36315D02*
D03*
Y-46158D02*
D03*
Y-56000D02*
D03*
Y-65843D02*
D03*
Y-75685D02*
D03*
X377500Y-142500D02*
D03*
Y-132500D02*
D03*
Y-122500D02*
D03*
X384342Y-341500D02*
D03*
X364656D02*
D03*
X119500Y-378000D02*
D03*
X129500D02*
D03*
X139500D02*
D03*
D62*
X223000Y-238500D02*
D03*
X257000Y-18539D02*
D03*
X244500D02*
D03*
X232000D02*
D03*
X219500D02*
D03*
X377500Y-112500D02*
D03*
D63*
X195500Y-386500D02*
D03*
X175500D02*
D03*
Y-366500D02*
D03*
X195500D02*
D03*
X185500Y-376500D02*
D03*
X175816Y-18500D02*
D03*
X195501D02*
D03*
X129158D02*
D03*
X148843D02*
D03*
X330938Y-376500D02*
D03*
X340938Y-366500D02*
D03*
X320938D02*
D03*
Y-386500D02*
D03*
X340938D02*
D03*
X282459Y-376500D02*
D03*
X292459Y-366500D02*
D03*
X272459D02*
D03*
Y-386500D02*
D03*
X292459D02*
D03*
X233979Y-376500D02*
D03*
X243979Y-366500D02*
D03*
X223979D02*
D03*
Y-386500D02*
D03*
X243979D02*
D03*
D64*
X276500Y-72500D02*
D03*
X286500D02*
D03*
X276500Y-82500D02*
D03*
X286500D02*
D03*
X276500Y-92500D02*
D03*
X286500D02*
D03*
X276500Y-102500D02*
D03*
X286500D02*
D03*
X276500Y-112500D02*
D03*
X286500D02*
D03*
X276500Y-122500D02*
D03*
X286500D02*
D03*
X276500Y-132500D02*
D03*
X286500D02*
D03*
X276500Y-142500D02*
D03*
X286500D02*
D03*
X276500Y-152500D02*
D03*
X286500D02*
D03*
X276500Y-162500D02*
D03*
X286500D02*
D03*
X276500Y-172500D02*
D03*
X286500D02*
D03*
X276500Y-182500D02*
D03*
X286500D02*
D03*
X276500Y-192500D02*
D03*
X286500D02*
D03*
X276500Y-202500D02*
D03*
X286500D02*
D03*
X276500Y-212500D02*
D03*
X286500D02*
D03*
X276500Y-222500D02*
D03*
X286500D02*
D03*
X276500Y-232500D02*
D03*
X286500D02*
D03*
X276500Y-242500D02*
D03*
X286500D02*
D03*
X276500Y-252500D02*
D03*
X286500D02*
D03*
X276500Y-262500D02*
D03*
X286500D02*
D03*
X276500Y-272500D02*
D03*
X286500D02*
D03*
X276500Y-282500D02*
D03*
X286500D02*
D03*
X266500Y-272500D02*
D03*
Y-282500D02*
D03*
X256500Y-272500D02*
D03*
Y-282500D02*
D03*
X246500Y-272500D02*
D03*
Y-282500D02*
D03*
X236500Y-272500D02*
D03*
Y-282500D02*
D03*
X226500Y-272500D02*
D03*
Y-282500D02*
D03*
X216500Y-272500D02*
D03*
Y-282500D02*
D03*
X206500Y-272500D02*
D03*
Y-282500D02*
D03*
X196500Y-272500D02*
D03*
Y-282500D02*
D03*
X186500Y-272500D02*
D03*
Y-282500D02*
D03*
X176500Y-272500D02*
D03*
Y-282500D02*
D03*
X166500Y-272500D02*
D03*
Y-282500D02*
D03*
X156500Y-272500D02*
D03*
Y-282500D02*
D03*
X146500Y-272500D02*
D03*
Y-282500D02*
D03*
X136500D02*
D03*
X126500D02*
D03*
X136500Y-272500D02*
D03*
X126500D02*
D03*
X136500Y-262500D02*
D03*
X126500D02*
D03*
X136500Y-252500D02*
D03*
X126500D02*
D03*
X136500Y-242500D02*
D03*
X126500D02*
D03*
X136500Y-232500D02*
D03*
X126500D02*
D03*
X136500Y-222500D02*
D03*
X126500D02*
D03*
X136500Y-212500D02*
D03*
X126500D02*
D03*
X136500Y-202500D02*
D03*
X126500D02*
D03*
X136500Y-192500D02*
D03*
X126500D02*
D03*
X136500Y-182500D02*
D03*
X126500D02*
D03*
X136500Y-172500D02*
D03*
X126500D02*
D03*
X136500Y-162500D02*
D03*
X126500D02*
D03*
X136500Y-152500D02*
D03*
X126500D02*
D03*
X136500Y-142500D02*
D03*
X126500D02*
D03*
X136500Y-132500D02*
D03*
X126500D02*
D03*
X136500Y-122500D02*
D03*
X126500D02*
D03*
X136500Y-112500D02*
D03*
X126500D02*
D03*
X136500Y-102500D02*
D03*
X126500D02*
D03*
X136500Y-92500D02*
D03*
X126500D02*
D03*
X136500Y-82500D02*
D03*
X126500D02*
D03*
X136500Y-72500D02*
D03*
X126500D02*
D03*
X146500Y-82500D02*
D03*
Y-72500D02*
D03*
X156500Y-82500D02*
D03*
Y-72500D02*
D03*
X166500Y-82500D02*
D03*
Y-72500D02*
D03*
X176500Y-82500D02*
D03*
Y-72500D02*
D03*
X186500Y-82500D02*
D03*
Y-72500D02*
D03*
X196500Y-82500D02*
D03*
Y-72500D02*
D03*
X11811Y-381890D02*
D03*
X381890D02*
D03*
Y-11811D02*
D03*
X11811D02*
D03*
D65*
X18000Y-312000D02*
D03*
X95000D02*
D03*
X69333D02*
D03*
X43667D02*
D03*
X95000Y-220000D02*
D03*
X18000D02*
D03*
X69333D02*
D03*
X43667D02*
D03*
X95000Y-128750D02*
D03*
X69333D02*
D03*
X43667D02*
D03*
X18000D02*
D03*
X95000Y-37500D02*
D03*
X69333D02*
D03*
X43667D02*
D03*
X18000D02*
D03*
X377104Y-85878D02*
D03*
X350994Y-85536D02*
D03*
X149500Y-378000D02*
D03*
D66*
X317040Y-14000D02*
D03*
Y-30540D02*
D03*
X300500Y-14000D02*
D03*
Y-30540D02*
D03*
D67*
X382272Y-179920D02*
D03*
Y-228080D02*
D03*
Y-250341D02*
D03*
Y-298501D02*
D03*
D68*
X363728Y-208921D02*
D03*
Y-199079D02*
D03*
X371602D02*
D03*
Y-208921D02*
D03*
X363728Y-279343D02*
D03*
Y-269500D02*
D03*
X371602D02*
D03*
Y-279343D02*
D03*
D69*
X296250Y-313750D02*
D03*
X296000Y-283500D02*
D03*
Y-280500D02*
D03*
X185500Y-300316D02*
D03*
X188500Y-291000D02*
D03*
X355500Y-253500D02*
D03*
Y-261000D02*
D03*
X306870Y-160500D02*
D03*
X246500Y-315000D02*
D03*
X300000Y-127000D02*
D03*
X256500Y-165000D02*
D03*
Y-180000D02*
D03*
Y-195500D02*
D03*
X257311Y-207811D02*
D03*
X151000Y-268500D02*
D03*
Y-265000D02*
D03*
Y-261500D02*
D03*
X355500Y-226500D02*
D03*
Y-222000D02*
D03*
Y-257500D02*
D03*
Y-218000D02*
D03*
X348500Y-292500D02*
D03*
X348917Y-282083D02*
D03*
X349000Y-272500D02*
D03*
X348500Y-263000D02*
D03*
X349000Y-253000D02*
D03*
X348500Y-243500D02*
D03*
Y-229500D02*
D03*
X348202Y-224298D02*
D03*
X296500Y-287000D02*
D03*
X305500Y-272500D02*
D03*
X306000Y-267000D02*
D03*
Y-261000D02*
D03*
X305500Y-253500D02*
D03*
Y-248500D02*
D03*
Y-227000D02*
D03*
X315000Y-230500D02*
D03*
X316000Y-224000D02*
D03*
X169000Y-307000D02*
D03*
X211000Y-264500D02*
D03*
X139000Y-316500D02*
D03*
X298500Y-138500D02*
D03*
X325000Y-202500D02*
D03*
X310500Y-209750D02*
D03*
X313000Y-203500D02*
D03*
Y-206500D02*
D03*
X313744Y-166000D02*
D03*
X317953Y-147051D02*
D03*
X323000Y-171000D02*
D03*
X257000Y-303500D02*
D03*
X291500Y-315000D02*
D03*
X282500Y-340000D02*
D03*
X300000Y-346000D02*
D03*
X233000Y-215500D02*
D03*
Y-219500D02*
D03*
X227000Y-217500D02*
D03*
X230000Y-214500D02*
D03*
X235000Y-144000D02*
D03*
X232500Y-152988D02*
D03*
Y-150293D02*
D03*
X287000Y-322000D02*
D03*
X251000Y-327000D02*
D03*
X304244Y-147222D02*
D03*
X233000Y-211500D02*
D03*
Y-147000D02*
D03*
X232931Y-195069D02*
D03*
X233000Y-163500D02*
D03*
Y-179000D02*
D03*
D70*
X158500Y-318500D02*
D03*
D71*
X296989Y-307500D02*
X296744Y-308090D01*
X283270Y-321756D02*
X290500D01*
D72*
X371080Y-335240D02*
D03*
Y-327760D02*
D03*
X380920Y-331500D02*
D03*
D73*
X365224Y-261000D02*
D03*
X355776D02*
D03*
D74*
X306500Y-172500D02*
D03*
X314374D02*
D03*
D75*
X282500Y-321437D02*
X282501Y-321438D01*
D76*
X249681Y-326756D02*
X254500D01*
X248500Y-327937D02*
X249681Y-326756D01*
M02*
