G04*
G04 #@! TF.GenerationSoftware,Altium Limited,Altium Designer,20.0.2 (26)*
G04*
G04 Layer_Color=8388736*
%FSLAX25Y25*%
%MOIN*%
G70*
G01*
G75*
%ADD18R,0.04891X0.04491*%
%ADD19R,0.03740X0.04134*%
%ADD20R,0.04134X0.03740*%
%ADD21R,0.06693X0.04528*%
%ADD22O,0.02953X0.06567*%
%ADD23R,0.02165X0.07284*%
%ADD24R,0.01791X0.06496*%
%ADD25R,0.04528X0.04134*%
%ADD26R,0.04528X0.04134*%
%ADD27O,0.02165X0.06485*%
%ADD28O,0.02165X0.06485*%
%ADD29R,0.06496X0.01791*%
%ADD30R,0.06496X0.01791*%
%ADD31C,0.07677*%
%ADD32R,0.07677X0.07677*%
%ADD33C,0.10433*%
%ADD34C,0.06591*%
%ADD35R,0.07677X0.07677*%
%ADD36C,0.11614*%
%ADD37C,0.14764*%
%ADD38C,0.07284*%
%ADD39C,0.02953*%
%ADD40C,0.03591*%
D18*
X285500Y-297000D02*
D03*
X271500D02*
D03*
X321776Y-233493D02*
D03*
X328476D02*
D03*
X321776Y-291350D02*
D03*
X328476D02*
D03*
X321776Y-281708D02*
D03*
X328476D02*
D03*
X321776Y-272065D02*
D03*
X328476D02*
D03*
X321776Y-262422D02*
D03*
X328476D02*
D03*
X321776Y-252779D02*
D03*
X328476D02*
D03*
X321776Y-243136D02*
D03*
X328476D02*
D03*
X321776Y-223850D02*
D03*
X328476D02*
D03*
D19*
X343256Y-291798D02*
D03*
X337745D02*
D03*
X343256Y-282083D02*
D03*
X337745D02*
D03*
X343256Y-272500D02*
D03*
X337745D02*
D03*
X343256Y-263000D02*
D03*
X337745D02*
D03*
X343256Y-253000D02*
D03*
X337745D02*
D03*
X343256Y-243500D02*
D03*
X337745D02*
D03*
X343256Y-234012D02*
D03*
X337745D02*
D03*
X343256Y-224298D02*
D03*
X337745D02*
D03*
X263255Y-106000D02*
D03*
X257744D02*
D03*
X263000Y-98500D02*
D03*
X257488D02*
D03*
X322755Y-121500D02*
D03*
X317244D02*
D03*
X308255D02*
D03*
X302744D02*
D03*
X245744Y-348500D02*
D03*
X251255D02*
D03*
X238756Y-336000D02*
D03*
X233245D02*
D03*
D20*
X240500Y-199745D02*
D03*
Y-205256D02*
D03*
X232500Y-205255D02*
D03*
Y-199744D02*
D03*
X240500Y-184160D02*
D03*
Y-189671D02*
D03*
X232500Y-189670D02*
D03*
Y-184159D02*
D03*
X240500Y-168574D02*
D03*
Y-174086D02*
D03*
X232500Y-174085D02*
D03*
Y-168573D02*
D03*
X240500Y-152989D02*
D03*
Y-158501D02*
D03*
X232500Y-158500D02*
D03*
X182000Y-261500D02*
D03*
Y-255988D02*
D03*
X174500D02*
D03*
Y-261500D02*
D03*
X266000Y-326756D02*
D03*
Y-321245D02*
D03*
X263500Y-354012D02*
D03*
Y-348500D02*
D03*
D21*
X250000Y-199937D02*
D03*
Y-207811D02*
D03*
Y-183852D02*
D03*
Y-191726D02*
D03*
Y-167767D02*
D03*
Y-175641D02*
D03*
Y-151682D02*
D03*
Y-159556D02*
D03*
D22*
X323149Y-130839D02*
D03*
X318149D02*
D03*
X313149D02*
D03*
X308149D02*
D03*
X323149Y-152413D02*
D03*
X318149D02*
D03*
X313149D02*
D03*
X308149D02*
D03*
D23*
X320677Y-197524D02*
D03*
X318118Y-197524D02*
D03*
X315559D02*
D03*
X313000Y-197524D02*
D03*
X310441Y-197524D02*
D03*
X307882D02*
D03*
X305323Y-197523D02*
D03*
X305323Y-175476D02*
D03*
X307882D02*
D03*
X310441D02*
D03*
X313000Y-175476D02*
D03*
X315559Y-175476D02*
D03*
X318118D02*
D03*
X320677Y-175477D02*
D03*
D24*
X289563Y-327150D02*
D03*
X291532D02*
D03*
X293500D02*
D03*
X295469D02*
D03*
X297437D02*
D03*
Y-307850D02*
D03*
X295469D02*
D03*
X293500D02*
D03*
X291532D02*
D03*
X289563D02*
D03*
D25*
X287677Y-340000D02*
D03*
Y-346142D02*
D03*
D26*
X295000D02*
D03*
Y-340000D02*
D03*
D27*
X250160Y-335917D02*
D03*
X252720D02*
D03*
X255280D02*
D03*
X257840D02*
D03*
D28*
X250160Y-313083D02*
D03*
X252720D02*
D03*
X255280D02*
D03*
X257840D02*
D03*
D29*
X143350Y-313937D02*
D03*
Y-310000D02*
D03*
X162650Y-306063D02*
D03*
D30*
X143350Y-311968D02*
D03*
Y-308031D02*
D03*
Y-306063D02*
D03*
X162650Y-308031D02*
D03*
Y-310000D02*
D03*
Y-311968D02*
D03*
Y-313937D02*
D03*
D31*
X223000Y-248500D02*
D03*
X17994Y-321851D02*
D03*
Y-331693D02*
D03*
Y-341536D02*
D03*
Y-351378D02*
D03*
Y-361221D02*
D03*
X94994D02*
D03*
Y-351378D02*
D03*
Y-341536D02*
D03*
Y-331693D02*
D03*
Y-321851D02*
D03*
X69327Y-361221D02*
D03*
Y-351378D02*
D03*
Y-341536D02*
D03*
Y-331693D02*
D03*
Y-321851D02*
D03*
X43661Y-361221D02*
D03*
Y-351378D02*
D03*
Y-341536D02*
D03*
Y-331693D02*
D03*
Y-321851D02*
D03*
X95000Y-230000D02*
D03*
Y-240000D02*
D03*
Y-250000D02*
D03*
Y-260000D02*
D03*
Y-270000D02*
D03*
Y-280000D02*
D03*
Y-290000D02*
D03*
X18000Y-230000D02*
D03*
Y-240000D02*
D03*
Y-250000D02*
D03*
Y-260000D02*
D03*
Y-270000D02*
D03*
Y-280000D02*
D03*
Y-290000D02*
D03*
X69333Y-230000D02*
D03*
Y-240000D02*
D03*
Y-250000D02*
D03*
Y-260000D02*
D03*
Y-270000D02*
D03*
Y-280000D02*
D03*
Y-290000D02*
D03*
X43667Y-230000D02*
D03*
Y-240000D02*
D03*
Y-250000D02*
D03*
Y-260000D02*
D03*
Y-270000D02*
D03*
Y-280000D02*
D03*
Y-290000D02*
D03*
X95000Y-138750D02*
D03*
Y-148750D02*
D03*
Y-158750D02*
D03*
Y-168750D02*
D03*
Y-178750D02*
D03*
Y-188750D02*
D03*
Y-198750D02*
D03*
X69333Y-138750D02*
D03*
Y-148750D02*
D03*
Y-158750D02*
D03*
Y-168750D02*
D03*
Y-178750D02*
D03*
Y-188750D02*
D03*
Y-198750D02*
D03*
X43667Y-138750D02*
D03*
Y-148750D02*
D03*
Y-158750D02*
D03*
Y-168750D02*
D03*
Y-178750D02*
D03*
Y-188750D02*
D03*
Y-198750D02*
D03*
X18000Y-138750D02*
D03*
Y-148750D02*
D03*
Y-158750D02*
D03*
Y-168750D02*
D03*
Y-178750D02*
D03*
Y-188750D02*
D03*
Y-198750D02*
D03*
X95000Y-47500D02*
D03*
Y-57500D02*
D03*
Y-67500D02*
D03*
Y-77500D02*
D03*
Y-87500D02*
D03*
Y-97500D02*
D03*
Y-107500D02*
D03*
X69333Y-47500D02*
D03*
Y-57500D02*
D03*
Y-67500D02*
D03*
Y-77500D02*
D03*
Y-87500D02*
D03*
Y-97500D02*
D03*
Y-107500D02*
D03*
X43667Y-47500D02*
D03*
Y-57500D02*
D03*
Y-67500D02*
D03*
Y-77500D02*
D03*
Y-87500D02*
D03*
Y-97500D02*
D03*
Y-107500D02*
D03*
X18000Y-47500D02*
D03*
Y-57500D02*
D03*
Y-67500D02*
D03*
Y-77500D02*
D03*
Y-87500D02*
D03*
Y-97500D02*
D03*
Y-107500D02*
D03*
X257000Y-8539D02*
D03*
X244500D02*
D03*
X232000D02*
D03*
X219500D02*
D03*
X377110Y-36657D02*
D03*
Y-46500D02*
D03*
Y-56342D02*
D03*
Y-66185D02*
D03*
Y-76027D02*
D03*
X351000Y-36315D02*
D03*
Y-46158D02*
D03*
Y-56000D02*
D03*
Y-65843D02*
D03*
Y-75685D02*
D03*
X377500Y-142500D02*
D03*
Y-132500D02*
D03*
Y-122500D02*
D03*
X384342Y-341500D02*
D03*
X364656D02*
D03*
X119500Y-378000D02*
D03*
X129500D02*
D03*
X139500D02*
D03*
D32*
X223000Y-238500D02*
D03*
X257000Y-18539D02*
D03*
X244500D02*
D03*
X232000D02*
D03*
X219500D02*
D03*
X377500Y-112500D02*
D03*
D33*
X195500Y-386500D02*
D03*
X175500D02*
D03*
Y-366500D02*
D03*
X195500D02*
D03*
X185500Y-376500D02*
D03*
X175816Y-18500D02*
D03*
X195501D02*
D03*
X129158D02*
D03*
X148843D02*
D03*
X330938Y-376500D02*
D03*
X340938Y-366500D02*
D03*
X320938D02*
D03*
Y-386500D02*
D03*
X340938D02*
D03*
X282459Y-376500D02*
D03*
X292459Y-366500D02*
D03*
X272459D02*
D03*
Y-386500D02*
D03*
X292459D02*
D03*
X233979Y-376500D02*
D03*
X243979Y-366500D02*
D03*
X223979D02*
D03*
Y-386500D02*
D03*
X243979D02*
D03*
D34*
X276500Y-72500D02*
D03*
X286500D02*
D03*
X276500Y-82500D02*
D03*
X286500D02*
D03*
X276500Y-92500D02*
D03*
X286500D02*
D03*
X276500Y-102500D02*
D03*
X286500D02*
D03*
X276500Y-112500D02*
D03*
X286500D02*
D03*
X276500Y-122500D02*
D03*
X286500D02*
D03*
X276500Y-132500D02*
D03*
X286500D02*
D03*
X276500Y-142500D02*
D03*
X286500D02*
D03*
X276500Y-152500D02*
D03*
X286500D02*
D03*
X276500Y-162500D02*
D03*
X286500D02*
D03*
X276500Y-172500D02*
D03*
X286500D02*
D03*
X276500Y-182500D02*
D03*
X286500D02*
D03*
X276500Y-192500D02*
D03*
X286500D02*
D03*
X276500Y-202500D02*
D03*
X286500D02*
D03*
X276500Y-212500D02*
D03*
X286500D02*
D03*
X276500Y-222500D02*
D03*
X286500D02*
D03*
X276500Y-232500D02*
D03*
X286500D02*
D03*
X276500Y-242500D02*
D03*
X286500D02*
D03*
X276500Y-252500D02*
D03*
X286500D02*
D03*
X276500Y-262500D02*
D03*
X286500D02*
D03*
X276500Y-272500D02*
D03*
X286500D02*
D03*
X276500Y-282500D02*
D03*
X286500D02*
D03*
X266500Y-272500D02*
D03*
Y-282500D02*
D03*
X256500Y-272500D02*
D03*
Y-282500D02*
D03*
X246500Y-272500D02*
D03*
Y-282500D02*
D03*
X236500Y-272500D02*
D03*
Y-282500D02*
D03*
X226500Y-272500D02*
D03*
Y-282500D02*
D03*
X216500Y-272500D02*
D03*
Y-282500D02*
D03*
X206500Y-272500D02*
D03*
Y-282500D02*
D03*
X196500Y-272500D02*
D03*
Y-282500D02*
D03*
X186500Y-272500D02*
D03*
Y-282500D02*
D03*
X176500Y-272500D02*
D03*
Y-282500D02*
D03*
X166500Y-272500D02*
D03*
Y-282500D02*
D03*
X156500Y-272500D02*
D03*
Y-282500D02*
D03*
X146500Y-272500D02*
D03*
Y-282500D02*
D03*
X136500D02*
D03*
X126500D02*
D03*
X136500Y-272500D02*
D03*
X126500D02*
D03*
X136500Y-262500D02*
D03*
X126500D02*
D03*
X136500Y-252500D02*
D03*
X126500D02*
D03*
X136500Y-242500D02*
D03*
X126500D02*
D03*
X136500Y-232500D02*
D03*
X126500D02*
D03*
X136500Y-222500D02*
D03*
X126500D02*
D03*
X136500Y-212500D02*
D03*
X126500D02*
D03*
X136500Y-202500D02*
D03*
X126500D02*
D03*
X136500Y-192500D02*
D03*
X126500D02*
D03*
X136500Y-182500D02*
D03*
X126500D02*
D03*
X136500Y-172500D02*
D03*
X126500D02*
D03*
X136500Y-162500D02*
D03*
X126500D02*
D03*
X136500Y-152500D02*
D03*
X126500D02*
D03*
X136500Y-142500D02*
D03*
X126500D02*
D03*
X136500Y-132500D02*
D03*
X126500D02*
D03*
X136500Y-122500D02*
D03*
X126500D02*
D03*
X136500Y-112500D02*
D03*
X126500D02*
D03*
X136500Y-102500D02*
D03*
X126500D02*
D03*
X136500Y-92500D02*
D03*
X126500D02*
D03*
X136500Y-82500D02*
D03*
X126500D02*
D03*
X136500Y-72500D02*
D03*
X126500D02*
D03*
X146500Y-82500D02*
D03*
Y-72500D02*
D03*
X156500Y-82500D02*
D03*
Y-72500D02*
D03*
X166500Y-82500D02*
D03*
Y-72500D02*
D03*
X176500Y-82500D02*
D03*
Y-72500D02*
D03*
X186500Y-82500D02*
D03*
Y-72500D02*
D03*
X196500Y-82500D02*
D03*
Y-72500D02*
D03*
X11811Y-381890D02*
D03*
X381890D02*
D03*
Y-11811D02*
D03*
X11811D02*
D03*
D35*
X18000Y-312000D02*
D03*
X95000D02*
D03*
X69333D02*
D03*
X43667D02*
D03*
X95000Y-220000D02*
D03*
X18000D02*
D03*
X69333D02*
D03*
X43667D02*
D03*
X95000Y-128750D02*
D03*
X69333D02*
D03*
X43667D02*
D03*
X18000D02*
D03*
X95000Y-37500D02*
D03*
X69333D02*
D03*
X43667D02*
D03*
X18000D02*
D03*
X377104Y-85878D02*
D03*
X350994Y-85536D02*
D03*
X149500Y-378000D02*
D03*
D36*
X317040Y-14000D02*
D03*
Y-30540D02*
D03*
X300500Y-14000D02*
D03*
Y-30540D02*
D03*
D37*
X382272Y-179920D02*
D03*
Y-228080D02*
D03*
Y-250341D02*
D03*
Y-298501D02*
D03*
D38*
X363728Y-208921D02*
D03*
Y-199079D02*
D03*
X371602D02*
D03*
Y-208921D02*
D03*
X363728Y-279343D02*
D03*
Y-269500D02*
D03*
X371602D02*
D03*
Y-279343D02*
D03*
D39*
X296250Y-313750D02*
D03*
X296000Y-283500D02*
D03*
Y-280500D02*
D03*
X185500Y-300316D02*
D03*
X188500Y-291000D02*
D03*
X355500Y-253500D02*
D03*
Y-261000D02*
D03*
X306870Y-160500D02*
D03*
X246500Y-315000D02*
D03*
X300000Y-127000D02*
D03*
X256500Y-165000D02*
D03*
Y-180000D02*
D03*
Y-195500D02*
D03*
X257311Y-207811D02*
D03*
X151000Y-268500D02*
D03*
Y-265000D02*
D03*
Y-261500D02*
D03*
X355500Y-226500D02*
D03*
Y-222000D02*
D03*
Y-257500D02*
D03*
Y-218000D02*
D03*
X348500Y-292500D02*
D03*
X348917Y-282083D02*
D03*
X349000Y-272500D02*
D03*
X348500Y-263000D02*
D03*
X349000Y-253000D02*
D03*
X348500Y-243500D02*
D03*
Y-229500D02*
D03*
X348202Y-224298D02*
D03*
X296500Y-287000D02*
D03*
X305500Y-272500D02*
D03*
X306000Y-267000D02*
D03*
Y-261000D02*
D03*
X305500Y-253500D02*
D03*
Y-248500D02*
D03*
Y-227000D02*
D03*
X315000Y-230500D02*
D03*
X316000Y-224000D02*
D03*
X169000Y-307000D02*
D03*
X211000Y-264500D02*
D03*
X139000Y-316500D02*
D03*
X298500Y-138500D02*
D03*
X325000Y-202500D02*
D03*
X310500Y-209750D02*
D03*
X313000Y-203500D02*
D03*
Y-206500D02*
D03*
X313744Y-166000D02*
D03*
X317953Y-147051D02*
D03*
X323000Y-171000D02*
D03*
X257000Y-303500D02*
D03*
X291500Y-315000D02*
D03*
X282500Y-340000D02*
D03*
X300000Y-346000D02*
D03*
X233000Y-215500D02*
D03*
Y-219500D02*
D03*
X227000Y-217500D02*
D03*
X230000Y-214500D02*
D03*
X235000Y-144000D02*
D03*
X232500Y-152988D02*
D03*
X287000Y-322000D02*
D03*
X251000Y-327000D02*
D03*
X304244Y-147222D02*
D03*
X233000Y-211500D02*
D03*
Y-147000D02*
D03*
X232931Y-195069D02*
D03*
D40*
X158500Y-318500D02*
D03*
M02*
