M48
;Layer_Color=9474304
;FILE_FORMAT=2:5
INCH,TZ
;TYPE=PLATED
T1F00S00C0.01181
T2F00S00C0.01500
T3F00S00C0.03600
T4F00S00C0.03937
T5F00S00C0.04331
T6F00S00C0.04724
T7F00S00C0.05906
T8F00S00C0.06299
T9F00S00C0.07087
T10F00S00C0.09449
T11F00S00C0.11811
%
T01
X282500Y-340000
X300000Y-346000
X296250Y-313750
X291500Y-315000
X287000Y-322000
X296500Y-287000
X296000Y-283500
Y-280500
X305500Y-272500
X306000Y-267000
Y-261000
X305500Y-253500
Y-248500
Y-227000
X315000Y-230500
X316000Y-224000
X310500Y-209750
X313000Y-206500
Y-203500
X325000Y-202500
X348202Y-224298
X348500Y-229500
X355500Y-226500
Y-222000
Y-218000
X348500Y-243500
X349000Y-253000
X355500Y-253500
Y-257500
Y-261000
X348500Y-263000
X349000Y-272500
X348917Y-282083
X348500Y-292500
X257000Y-303500
X246500Y-315000
X251000Y-327000
X185500Y-300316
X188500Y-291000
X169000Y-307000
X139000Y-316500
X151000Y-268500
Y-265000
Y-261500
X211000Y-264500
X227000Y-217500
X230000Y-214500
X233000Y-215500
Y-219500
Y-211500
X232931Y-195069
X256500Y-195500
X257311Y-207811
X256500Y-180000
Y-165000
X233000Y-163500
X232500Y-152988
Y-150293
X233000Y-147000
X235000Y-144000
X233000Y-179000
X306870Y-160500
X313744Y-166000
X323000Y-171000
X317953Y-147051
X304244Y-147222
X298500Y-138500
X300000Y-127000
T02
X158500Y-318500
T03
X276500Y-282500
Y-272500
Y-262500
Y-252500
Y-242500
Y-232500
Y-222500
Y-212500
Y-202500
Y-192500
Y-182500
X286500
Y-192500
Y-202500
Y-212500
Y-222500
Y-232500
Y-242500
Y-252500
Y-262500
Y-272500
Y-282500
X266500
Y-272500
X256500
Y-282500
X246500
Y-272500
X236500
Y-282500
X226500
Y-272500
X216500
Y-282500
X206500
Y-272500
X196500
Y-282500
X186500
Y-272500
X176500
Y-282500
X166500
Y-272500
X156500
Y-282500
X146500
Y-272500
X136500
Y-282500
X126500
Y-272500
Y-262500
X136500
Y-252500
X126500
Y-242500
X136500
Y-232500
X126500
Y-222500
X136500
Y-212500
X126500
Y-202500
X136500
Y-192500
X126500
Y-182500
X136500
Y-172500
X126500
Y-162500
X136500
Y-152500
X126500
Y-142500
X136500
Y-132500
X126500
Y-122500
X136500
Y-112500
X126500
Y-102500
X136500
Y-92500
X126500
Y-82500
X136500
Y-72500
X126500
X146500
Y-82500
X156500
Y-72500
X166500
Y-82500
X176500
Y-72500
X186500
Y-82500
X196500
Y-72500
X276500
X286500
Y-82500
X276500
Y-92500
X286500
Y-102500
X276500
Y-112500
X286500
Y-122500
X276500
Y-132500
X286500
Y-142500
X276500
Y-152500
X286500
Y-162500
X276500
Y-172500
X286500
T04
X364656Y-341500
X384342
T05
X17994Y-361221
Y-351378
Y-341536
X43661
Y-351378
Y-361221
X69327
Y-351378
Y-341536
X94994
Y-351378
Y-361221
X363728Y-279343
X371602
Y-269500
X363728
Y-208921
X371602
Y-199079
X363728
X223000Y-238500
Y-248500
X95000Y-312000
X94994Y-321851
Y-331693
X69327
Y-321851
X69333Y-312000
X43667
X43661Y-321851
Y-331693
X17994
Y-321851
X18000Y-312000
X350994Y-85536
X351000Y-75685
Y-65843
Y-56000
Y-46158
Y-36315
X377110Y-36657
Y-46500
Y-56342
Y-66185
Y-76027
X377104Y-85878
X257000Y-18539
Y-8539
X244500
Y-18539
X232000
Y-8539
X219500
Y-18539
T06
X119500Y-378000
X129500
X139500
X149500
X95000Y-290000
Y-280000
Y-270000
Y-260000
Y-250000
Y-240000
Y-230000
Y-220000
Y-198750
Y-188750
X69333
Y-198750
Y-220000
Y-230000
Y-240000
Y-250000
Y-260000
Y-270000
Y-280000
Y-290000
X43667
Y-280000
Y-270000
Y-260000
Y-250000
Y-240000
Y-230000
Y-220000
Y-198750
Y-188750
X18000
Y-198750
Y-220000
Y-230000
Y-240000
Y-250000
Y-260000
Y-270000
Y-280000
Y-290000
Y-178750
Y-168750
Y-158750
Y-148750
Y-138750
Y-128750
Y-107500
Y-97500
Y-87500
Y-77500
Y-67500
Y-57500
Y-47500
Y-37500
X43667
Y-47500
Y-57500
Y-67500
Y-77500
Y-87500
Y-97500
Y-107500
Y-128750
Y-138750
Y-148750
Y-158750
Y-168750
Y-178750
X69333
Y-168750
Y-158750
Y-148750
Y-138750
Y-128750
Y-107500
Y-97500
Y-87500
Y-77500
Y-67500
Y-57500
Y-47500
Y-37500
X95000
Y-47500
Y-57500
Y-67500
Y-77500
Y-87500
Y-97500
Y-107500
Y-128750
Y-138750
Y-148750
Y-158750
Y-168750
Y-178750
X377500Y-142500
Y-132500
Y-122500
Y-112500
T07
X175500Y-386500
X195500
Y-366500
X175500
X185500Y-376500
X233979
X243979Y-366500
X223979
Y-386500
X243979
X272459
X282459Y-376500
X292459Y-366500
X272459
X292459Y-386500
X320938
X330938Y-376500
X340938Y-366500
X320938
X340938Y-386500
T08
X129158Y-18500
X148843
X175816
X195501
T09
X300500Y-30540
X317040
Y-14000
X300500
T10
X382272Y-298501
Y-250341
Y-228080
Y-179920
T11
X11811Y-381890
X381890
Y-11811
X11811
M30
