G04*
G04 #@! TF.GenerationSoftware,Altium Limited,Altium Designer,20.0.2 (26)*
G04*
G04 Layer_Color=16711935*
%FSLAX25Y25*%
%MOIN*%
G70*
G01*
G75*
%ADD10C,0.01000*%
%ADD14C,0.01200*%
D10*
X393701Y-11811D02*
X393660Y-10836D01*
X393540Y-9867D01*
X393339Y-8912D01*
X393061Y-7976D01*
X392706Y-7067D01*
X392277Y-6190D01*
X391778Y-5351D01*
X391210Y-4557D01*
X390579Y-3812D01*
X389889Y-3121D01*
X389144Y-2490D01*
X388350Y-1923D01*
X387511Y-1424D01*
X386634Y-995D01*
X385725Y-640D01*
X384789Y-361D01*
X383834Y-161D01*
X382865Y-40D01*
X381890Y0D01*
Y-393701D02*
X382865Y-393660D01*
X383834Y-393540D01*
X384789Y-393339D01*
X385725Y-393061D01*
X386634Y-392706D01*
X387511Y-392277D01*
X388350Y-391778D01*
X389144Y-391210D01*
X389889Y-390579D01*
X390579Y-389889D01*
X391210Y-389144D01*
X391778Y-388350D01*
X392277Y-387511D01*
X392706Y-386634D01*
X393061Y-385725D01*
X393339Y-384789D01*
X393540Y-383834D01*
X393660Y-382865D01*
X393701Y-381890D01*
X11811Y0D02*
X10836Y-40D01*
X9867Y-161D01*
X8912Y-361D01*
X7976Y-640D01*
X7067Y-995D01*
X6190Y-1424D01*
X5351Y-1923D01*
X4557Y-2490D01*
X3812Y-3121D01*
X3121Y-3812D01*
X2490Y-4557D01*
X1923Y-5351D01*
X1424Y-6190D01*
X995Y-7067D01*
X640Y-7976D01*
X361Y-8912D01*
X161Y-9867D01*
X40Y-10836D01*
X0Y-11811D01*
X-12Y-382243D02*
X32Y-383242D01*
X162Y-384233D01*
X379Y-385209D01*
X679Y-386162D01*
X1062Y-387086D01*
X1523Y-387972D01*
X2060Y-388815D01*
X2669Y-389608D01*
X3344Y-390345D01*
X4081Y-391020D01*
X4874Y-391629D01*
X5717Y-392166D01*
X6603Y-392627D01*
X7527Y-393010D01*
X8480Y-393310D01*
X9456Y-393527D01*
X10447Y-393657D01*
X11445Y-393701D01*
D14*
X100425Y0D02*
X379890D01*
X11811D02*
X98425D01*
X11445Y-393701D02*
X381890D01*
X377953Y0D02*
X381890D01*
X98425Y0D02*
X100425D01*
X393701Y-381890D02*
Y-11811D01*
X0Y-382243D02*
Y-11811D01*
X379890Y0D02*
Y0D01*
M02*
