G04*
G04 #@! TF.GenerationSoftware,Altium Limited,Altium Designer,20.0.2 (26)*
G04*
G04 Layer_Physical_Order=1*
G04 Layer_Color=255*
%FSLAX25Y25*%
%MOIN*%
G70*
G01*
G75*
%ADD10C,0.01000*%
%ADD16C,0.00800*%
%ADD18C,0.03000*%
%ADD47R,0.06299X0.06299*%
%ADD79C,0.01200*%
%ADD80R,0.04134X0.03543*%
%ADD81R,0.03543X0.04134*%
%ADD82O,0.02480X0.01181*%
%ADD83O,0.01181X0.02480*%
%ADD84R,0.07000X0.07000*%
G04:AMPARAMS|DCode=85|XSize=11.81mil|YSize=82.68mil|CornerRadius=0mil|HoleSize=0mil|Usage=FLASHONLY|Rotation=225.000|XOffset=0mil|YOffset=0mil|HoleType=Round|Shape=Round|*
%AMOVALD85*
21,1,0.07087,0.01181,0.00000,0.00000,315.0*
1,1,0.01181,-0.02506,0.02506*
1,1,0.01181,0.02506,-0.02506*
%
%ADD85OVALD85*%

G04:AMPARAMS|DCode=86|XSize=11.81mil|YSize=82.68mil|CornerRadius=0mil|HoleSize=0mil|Usage=FLASHONLY|Rotation=315.000|XOffset=0mil|YOffset=0mil|HoleType=Round|Shape=Round|*
%AMOVALD86*
21,1,0.07087,0.01181,0.00000,0.00000,45.0*
1,1,0.01181,-0.02506,-0.02506*
1,1,0.01181,0.02506,0.02506*
%
%ADD86OVALD86*%

%ADD87R,0.03543X0.03150*%
%ADD88O,0.02756X0.09843*%
%ADD89R,0.12992X0.09843*%
G04:AMPARAMS|DCode=90|XSize=49.21mil|YSize=35.43mil|CornerRadius=8.86mil|HoleSize=0mil|Usage=FLASHONLY|Rotation=90.000|XOffset=0mil|YOffset=0mil|HoleType=Round|Shape=RoundedRectangle|*
%AMROUNDEDRECTD90*
21,1,0.04921,0.01772,0,0,90.0*
21,1,0.03150,0.03543,0,0,90.0*
1,1,0.01772,0.00886,0.01575*
1,1,0.01772,0.00886,-0.01575*
1,1,0.01772,-0.00886,-0.01575*
1,1,0.01772,-0.00886,0.01575*
%
%ADD90ROUNDEDRECTD90*%
%ADD91R,0.05000X0.02500*%
%ADD92R,0.02362X0.08661*%
%ADD93O,0.02362X0.08661*%
%ADD94O,0.07874X0.01181*%
%ADD95O,0.01181X0.07874*%
%ADD96R,0.08661X0.02362*%
G04:AMPARAMS|DCode=97|XSize=165.35mil|YSize=165.35mil|CornerRadius=16.54mil|HoleSize=0mil|Usage=FLASHONLY|Rotation=90.000|XOffset=0mil|YOffset=0mil|HoleType=Round|Shape=RoundedRectangle|*
%AMROUNDEDRECTD97*
21,1,0.16535,0.13228,0,0,90.0*
21,1,0.13228,0.16535,0,0,90.0*
1,1,0.03307,0.06614,0.06614*
1,1,0.03307,0.06614,-0.06614*
1,1,0.03307,-0.06614,-0.06614*
1,1,0.03307,-0.06614,0.06614*
%
%ADD97ROUNDEDRECTD97*%
%ADD98O,0.02362X0.07480*%
%ADD99R,0.11811X0.09803*%
%ADD100R,0.07677X0.13386*%
%ADD101R,0.13386X0.07677*%
%ADD102R,0.09449X0.12992*%
%ADD103R,0.09449X0.03937*%
%ADD104R,0.05906X0.05906*%
%ADD105R,0.04331X0.02362*%
%ADD106R,0.03150X0.03543*%
%ADD107O,0.09843X0.02756*%
%ADD108R,0.04800X0.02800*%
%ADD109R,0.03937X0.03543*%
%ADD110R,0.03543X0.03937*%
%ADD111C,0.04000*%
%ADD112R,0.05906X0.07480*%
%ADD113R,0.04000X0.11700*%
%ADD114R,0.05118X0.07087*%
%ADD115R,0.05800X0.04000*%
%ADD116R,0.07087X0.05118*%
%ADD117R,0.04300X0.03900*%
%ADD118C,0.02000*%
%ADD119C,0.02500*%
%ADD120C,0.12000*%
%ADD121C,0.05000*%
%ADD122C,0.01500*%
%ADD123C,0.10000*%
%ADD124C,0.06200*%
%ADD125C,0.02362*%
%ADD126C,0.06299*%
%ADD127R,0.06000X0.08000*%
%ADD128O,0.06000X0.08000*%
%ADD129R,0.06000X0.06000*%
%ADD130C,0.06000*%
%ADD131C,0.08500*%
%ADD132C,0.07087*%
G04:AMPARAMS|DCode=133|XSize=70.87mil|YSize=70.87mil|CornerRadius=17.72mil|HoleSize=0mil|Usage=FLASHONLY|Rotation=90.000|XOffset=0mil|YOffset=0mil|HoleType=Round|Shape=RoundedRectangle|*
%AMROUNDEDRECTD133*
21,1,0.07087,0.03543,0,0,90.0*
21,1,0.03543,0.07087,0,0,90.0*
1,1,0.03543,0.01772,0.01772*
1,1,0.03543,0.01772,-0.01772*
1,1,0.03543,-0.01772,-0.01772*
1,1,0.03543,-0.01772,0.01772*
%
%ADD133ROUNDEDRECTD133*%
%ADD134R,0.07874X0.03937*%
%ADD135O,0.07874X0.03937*%
%ADD136C,0.09843*%
%ADD137R,0.09843X0.09843*%
%ADD138R,0.09843X0.09843*%
%ADD139C,0.03937*%
%ADD140C,0.03150*%
G36*
X359000Y-23300D02*
X358800Y-23500D01*
Y-36400D01*
X344600D01*
X341600Y-33400D01*
X341600Y-28500D01*
X326500Y-13400D01*
X242200D01*
X242200Y3600D01*
X242400Y3800D01*
X242914Y4387D01*
X243300Y4400D01*
X331300D01*
X359000Y-23300D01*
D02*
G37*
G36*
X220300Y-44600D02*
X179800D01*
X179800Y-0D01*
X220300Y-0D01*
X220300Y-44600D01*
D02*
G37*
G36*
X163385Y-21445D02*
X135455D01*
X110100Y-46800D01*
X87900D01*
Y-57000D01*
X87100Y-57800D01*
X79141Y-57604D01*
X79100Y-57500D01*
X79100Y-36100D01*
X101100D01*
X124300Y-12900D01*
Y-800D01*
X163385D01*
Y-21445D01*
D02*
G37*
G36*
X327080Y-50094D02*
X327158Y-50485D01*
X327292Y-50685D01*
X327200Y-59300D01*
X315800D01*
X315729Y-59371D01*
X315300Y-59093D01*
Y-43700D01*
X318500Y-40500D01*
X327080D01*
Y-50094D01*
D02*
G37*
G36*
X340800Y-34300D02*
X345300Y-38800D01*
Y-69000D01*
X341417D01*
X336302D01*
X336266Y-68507D01*
Y-61866D01*
X334000Y-59600D01*
X332900D01*
Y-54895D01*
X328100Y-50094D01*
Y-34200D01*
X328800Y-33500D01*
X340000Y-33500D01*
X340800Y-34300D01*
D02*
G37*
G36*
X356700Y-70657D02*
X356557Y-70800D01*
X346557D01*
X346401Y-40518D01*
X346817Y-40100D01*
X356700D01*
Y-70657D01*
D02*
G37*
G36*
X180400Y-51100D02*
X220200D01*
Y-56600D01*
X209200Y-67600D01*
Y-76100D01*
X207700Y-77600D01*
X184600D01*
Y-62300D01*
X179700Y-57400D01*
Y-51107D01*
X180200Y-50900D01*
X180400Y-51100D01*
D02*
G37*
G36*
X70600Y-99300D02*
X65600D01*
Y-101174D01*
X64474Y-102300D01*
X64600Y-102426D01*
Y-104858D01*
X64178Y-105280D01*
X59600D01*
X59584Y-105284D01*
X56100Y-101800D01*
Y-80300D01*
X56100Y-80300D01*
X70600D01*
Y-99300D01*
D02*
G37*
G36*
X77100Y-113300D02*
X76600Y-113800D01*
X69100D01*
X64600Y-109300D01*
X59600D01*
Y-106300D01*
X64600D01*
X69100Y-101800D01*
X77100D01*
Y-113300D01*
D02*
G37*
G36*
X101700Y-49300D02*
Y-92100D01*
X100200Y-93600D01*
Y-114276D01*
X100000Y-114400D01*
X87000D01*
Y-62500D01*
X91300Y-58200D01*
Y-48400D01*
X100800D01*
X101700Y-49300D01*
D02*
G37*
G36*
X68120Y-114262D02*
Y-116178D01*
X60319D01*
X60220Y-116079D01*
Y-112679D01*
X59461D01*
X59420Y-112579D01*
Y-110468D01*
X59600Y-110320D01*
X64178D01*
X68120Y-114262D01*
D02*
G37*
G36*
X209600Y-113400D02*
X202400Y-120600D01*
Y-128902D01*
X202002Y-129300D01*
X199359D01*
X198900Y-128817D01*
X198900Y-120800D01*
X191900Y-113800D01*
X191900Y-96600D01*
X209600D01*
Y-113400D01*
D02*
G37*
G36*
X179638Y-121300D02*
X191800Y-121300D01*
Y-128300D01*
X189000Y-131100D01*
X142900D01*
Y-118100D01*
X176438D01*
X179638Y-121300D01*
D02*
G37*
G36*
X202200Y-134000D02*
Y-139500D01*
X201800Y-139900D01*
X186400D01*
Y-142800D01*
X184200Y-145000D01*
X169200D01*
Y-134000D01*
X169300Y-133900D01*
X198900D01*
X202200Y-134000D01*
D02*
G37*
G36*
X63900Y-195500D02*
X72600Y-204200D01*
Y-238331D01*
X72447Y-238700D01*
X67800D01*
Y-210300D01*
X66300Y-208800D01*
Y-208700D01*
X58700D01*
X54300Y-204300D01*
X30500D01*
X30300Y-204100D01*
X27700Y-206700D01*
X27500D01*
X26900Y-207300D01*
X7386D01*
Y-185900D01*
X13832Y-185900D01*
X63900Y-185900D01*
Y-195500D01*
D02*
G37*
G36*
X342184Y-185765D02*
X350407Y-185765D01*
X350756Y-186123D01*
X350500Y-197400D01*
X350108Y-214646D01*
X349746Y-214991D01*
X341900Y-214800D01*
X322400D01*
Y-197700D01*
Y-194500D01*
X331135Y-185765D01*
X342184Y-185765D01*
D02*
G37*
G36*
X58600Y-215000D02*
X65300D01*
Y-237896D01*
X63339Y-239858D01*
X62781Y-239300D01*
X57400D01*
Y-239000D01*
X53070Y-234670D01*
X47570D01*
X47200Y-234300D01*
X47200Y-221200D01*
X35000Y-209000D01*
Y-206000D01*
X49600D01*
X58600Y-215000D01*
D02*
G37*
G36*
X350200Y-216100D02*
X350200Y-250400D01*
X342113Y-250602D01*
X329171Y-250400D01*
X322600Y-250297D01*
X322600Y-216231D01*
X322955Y-215879D01*
X350200Y-216100D01*
D02*
G37*
G36*
X47900Y-254892D02*
X47392Y-255400D01*
X42542D01*
X41870Y-254728D01*
X41540Y-254507D01*
X41149Y-254430D01*
X40349D01*
X40199Y-254400D01*
X40098D01*
X40000Y-254380D01*
X39620D01*
Y-248680D01*
X39900Y-248400D01*
X47900D01*
Y-254892D01*
D02*
G37*
G36*
X38600Y-248100D02*
Y-255400D01*
X40000D01*
X40248Y-255449D01*
X41149D01*
X42000Y-256300D01*
X41700Y-256600D01*
Y-258800D01*
X42172D01*
Y-259320D01*
X43204D01*
X43580Y-259600D01*
Y-262400D01*
X39000D01*
X25300Y-248700D01*
X14355D01*
X14003Y-248345D01*
X14100Y-237400D01*
X27900D01*
X38600Y-248100D01*
D02*
G37*
G36*
X46000Y-268000D02*
X44700Y-269300D01*
X28200D01*
X28200Y-290000D01*
X27400Y-290800D01*
X14177Y-290800D01*
X13825Y-290445D01*
X14099Y-261141D01*
X14200Y-261100D01*
X36131D01*
X39831Y-264800D01*
X44600D01*
Y-259600D01*
X45017Y-259400D01*
X46000D01*
Y-268000D01*
D02*
G37*
G36*
X52800Y-279900D02*
X51600Y-281100D01*
X30359Y-281100D01*
X29900Y-281000D01*
X29900Y-280641D01*
Y-270700D01*
X52800D01*
X52800Y-279900D01*
D02*
G37*
D10*
X110300Y-209400D02*
X113600D01*
X107000Y-212700D02*
X110300Y-209400D01*
X107000Y-231979D02*
Y-212700D01*
Y-231979D02*
X107084Y-232063D01*
X109432D01*
X107000Y-212700D02*
Y-174300D01*
X57758Y-117997D02*
Y-117800D01*
X58454Y-117300D02*
X69600D01*
X57758Y-117997D02*
X58454Y-117300D01*
X69600Y-111088D02*
X72887Y-107800D01*
X69600Y-117300D02*
Y-111088D01*
X96313Y-120406D02*
Y-107800D01*
X90219Y-126500D02*
X91219D01*
X92119Y-124600D02*
X96313Y-120406D01*
X91219Y-126500D02*
X92119Y-125600D01*
Y-124600D01*
X361100Y-95700D02*
X367800Y-89000D01*
X357519Y-95700D02*
X361100D01*
X367800Y-89000D02*
Y-43900D01*
X367900Y-43800D01*
X364700Y-86700D02*
Y-39600D01*
X356200Y-31100D02*
X364700Y-39600D01*
X347200Y-95700D02*
Y-91476D01*
X349976Y-88700D01*
X362700D01*
X364700Y-86700D01*
X351300Y-31095D02*
X351306Y-31100D01*
X356200D01*
X51285Y-107800D02*
X51285Y-107800D01*
X44700Y-101400D02*
X47360Y-104060D01*
X44700Y-101400D02*
Y-80900D01*
X33100Y-70800D02*
X41500Y-62400D01*
X82194Y-54784D02*
Y-53800D01*
Y-52816D01*
X80135Y-50757D02*
X82194Y-52816D01*
X79151Y-50757D02*
X80135D01*
X45300Y-42600D02*
X70994D01*
X79151Y-50757D01*
X41500Y-62400D02*
Y-46400D01*
X45300Y-42600D01*
X46100Y-49800D02*
X50942Y-54642D01*
X61100D01*
X362600Y-116908D02*
Y-107900D01*
X370775Y-99725D01*
Y-73925D01*
X356500Y-123008D02*
X362600Y-116908D01*
X126000Y-244100D02*
Y-239800D01*
X244000Y-246800D02*
X244069Y-246869D01*
X238095Y-246200D02*
X238163Y-246268D01*
X232900Y-246200D02*
X238095D01*
X96600Y-237900D02*
X107890D01*
X93000Y-241500D02*
X96600Y-237900D01*
X93000Y-271100D02*
Y-241500D01*
X50800Y-313300D02*
X93000Y-271100D01*
X33500Y-321700D02*
X41900Y-313300D01*
X50800D01*
X33500Y-362000D02*
Y-321700D01*
X94600Y-161900D02*
X107000Y-174300D01*
X94500Y-161800D02*
X94600Y-161900D01*
X356500Y-123697D02*
Y-123008D01*
X190418Y-144870D02*
X190437Y-144852D01*
X190418Y-151182D02*
Y-144870D01*
X190400Y-151200D02*
X190418Y-151182D01*
X42669Y-267343D02*
X42865D01*
X45523Y-264685D01*
X46615D01*
X47256Y-264044D01*
Y-260594D01*
X49224Y-249846D02*
Y-239056D01*
X49069Y-238900D02*
X49224Y-239056D01*
X80966Y-102300D02*
Y-99166D01*
X74100Y-92300D02*
X80966Y-99166D01*
X81800Y-124600D02*
X85700Y-120700D01*
X81800Y-125600D02*
Y-124600D01*
X74100Y-92300D02*
Y-77900D01*
X70500Y-74300D02*
X74100Y-77900D01*
X54757Y-74300D02*
X70500D01*
X181600Y-119600D02*
X194700D01*
X179443Y-117443D02*
X181600Y-119600D01*
X179443Y-117443D02*
Y-114800D01*
X194700Y-119600D02*
X195437Y-120337D01*
Y-125206D02*
Y-120337D01*
X89319Y-134940D02*
X90219Y-134040D01*
X86760Y-134940D02*
X89319D01*
X85514Y-136186D02*
X86760Y-134940D01*
X84242Y-140775D02*
X85514Y-139503D01*
Y-136186D01*
X79900Y-126500D02*
X80900D01*
X81800Y-125600D01*
X85700Y-120700D02*
Y-58290D01*
X82194Y-54784D02*
X85700Y-58290D01*
X54757Y-77643D02*
Y-74300D01*
X53700Y-78700D02*
X54757Y-77643D01*
X46900Y-78700D02*
X53700D01*
X44700Y-80900D02*
X46900Y-78700D01*
X47360Y-104060D02*
X51285D01*
X54258Y-66005D02*
X59033Y-61229D01*
X54258Y-66300D02*
Y-66005D01*
Y-66300D02*
X54757Y-66800D01*
Y-74300D02*
Y-66800D01*
X59033Y-61229D02*
X59828D01*
X61100Y-59957D01*
X48100Y-107800D02*
X51285D01*
X46100Y-109800D02*
X48100Y-107800D01*
X46100Y-118642D02*
Y-109800D01*
X52443Y-117800D02*
Y-112221D01*
X51761Y-111540D02*
X52443Y-112221D01*
X51285Y-111540D02*
X51761D01*
D16*
X242027Y-229660D02*
X242100Y-229732D01*
Y-233182D02*
Y-229732D01*
X174800Y-216951D02*
X174970D01*
X175522Y-217502D01*
D18*
X312400Y-254200D02*
X312555Y-254045D01*
X352798D01*
X365000Y-241843D01*
X4900Y-39700D02*
X13900D01*
D47*
X326267Y-81124D02*
D03*
D79*
X158500Y-338600D02*
X158944Y-337935D01*
X159100Y-337152D01*
X281500Y-347000D02*
X285900Y-342600D01*
X277100Y-351400D02*
X281500Y-347000D01*
X282300Y-347800D01*
X296000Y-349700D02*
X300542D01*
X287100Y-362200D02*
Y-360612D01*
X290200Y-357512D01*
Y-342500D01*
X277100Y-362200D02*
Y-351400D01*
X285900Y-342600D02*
Y-320300D01*
X290200Y-342500D02*
X300443D01*
X290200D02*
Y-319700D01*
X283800Y-318200D02*
X285900Y-320300D01*
X168500Y-338600D02*
Y-326592D01*
X159100Y-333100D02*
X189500Y-302700D01*
X158500Y-338600D02*
X159100Y-338000D01*
Y-333100D01*
X102200Y-232600D02*
Y-216800D01*
X95700Y-210300D02*
X102200Y-216800D01*
X316900Y-163400D02*
X318700Y-161600D01*
X310000Y-163400D02*
X316900D01*
X309300Y-162700D02*
X310000Y-163400D01*
X318700Y-161600D02*
Y-143600D01*
Y-179600D02*
Y-161600D01*
X102200Y-216800D02*
Y-177500D01*
X171000Y-190700D02*
X175200Y-194900D01*
X184300D01*
X192200D02*
X192500Y-195200D01*
X184300Y-194900D02*
X192200D01*
X196000Y-214000D02*
Y-206600D01*
X184300Y-194900D02*
X196000Y-206600D01*
X182200Y-198500D02*
X191800Y-208100D01*
X172300Y-198500D02*
X182200D01*
X166300Y-192500D02*
X172300Y-198500D01*
X191800Y-221100D02*
Y-208100D01*
X228700Y-209300D02*
Y-202000D01*
Y-209300D02*
X239300Y-219900D01*
X264900Y-229732D02*
X272468D01*
X246037D02*
X264900D01*
Y-234100D02*
X265200Y-234400D01*
X264900Y-234100D02*
Y-229732D01*
X174800Y-256356D02*
Y-235849D01*
X256900Y-247200D02*
Y-233400D01*
X174800Y-235849D02*
Y-235800D01*
X242500Y-261600D02*
X256900Y-247200D01*
X174800Y-256356D02*
X194658Y-276214D01*
X118100Y-236000D02*
X125968D01*
X235600Y-229700D02*
X238154D01*
X233700Y-235500D02*
X239900D01*
X223300Y-225100D02*
X233700Y-235500D01*
X232200Y-237600D02*
X239000D01*
X196600Y-254100D02*
Y-232300D01*
X257100Y-217400D02*
Y-216000D01*
X320631Y-278269D02*
X330531D01*
X302400Y-296500D02*
X320631Y-278269D01*
X251400Y-296500D02*
X302400D01*
X317900Y-286100D02*
X331800D01*
X304200Y-299800D02*
X317900Y-286100D01*
X250200Y-299800D02*
X304200D01*
X316000Y-294100D02*
X331800D01*
X307000Y-303100D02*
X316000Y-294100D01*
X249200Y-303100D02*
X307000D01*
X230546Y-284446D02*
X249200Y-303100D01*
X232100Y-281700D02*
X250200Y-299800D01*
X234600Y-279700D02*
X251400Y-296500D01*
X279100Y-291800D02*
X279200D01*
X276000Y-288700D02*
X279100Y-291800D01*
X301500Y-314900D02*
Y-314700D01*
Y-314900D02*
X306219Y-319619D01*
X328500Y-306000D02*
X331800Y-302700D01*
X224444Y-306000D02*
X328500D01*
X308219Y-309500D02*
X310519Y-311800D01*
X225160Y-309500D02*
X308219D01*
X217486Y-299042D02*
X224444Y-306000D01*
X310519Y-311800D02*
X331800D01*
X216094Y-300434D02*
X225160Y-309500D01*
X221744Y-281700D02*
X232100D01*
X221795Y-284446D02*
X230546D01*
X331600Y-277200D02*
X331800D01*
X330531Y-278269D02*
X331600Y-277200D01*
X221185Y-279700D02*
X234600D01*
X220385Y-280500D02*
X221185Y-279700D01*
X220160Y-280500D02*
X220385D01*
X216094Y-284566D02*
X220160Y-280500D01*
X216094Y-284566D02*
X216094D01*
X218891Y-287350D02*
X221795Y-284446D01*
X218878Y-287350D02*
X218891D01*
X217486Y-285958D02*
X221744Y-281700D01*
X255758Y-269158D02*
X276000Y-288700D01*
X184996Y-288879D02*
X188017Y-291900D01*
X188300D01*
X199800Y-306600D02*
X200800Y-305600D01*
X206276Y-283129D02*
X206952Y-282453D01*
X238140Y-181637D02*
X238300Y-181797D01*
Y-178000D01*
X357040Y-115407D02*
X357190Y-115557D01*
X47256Y-256204D02*
X51646D01*
X47256D02*
X49206Y-258154D01*
X199748Y-306650D02*
X199800Y-306600D01*
X196050Y-310178D02*
X199748Y-306650D01*
X183014Y-286673D02*
X184996Y-288879D01*
X182930Y-286671D02*
X183014Y-286673D01*
X206952Y-282453D02*
X210526Y-278998D01*
X214800Y-293600D02*
X215000Y-293700D01*
X218878Y-297650D01*
X217300Y-293289D02*
X220270Y-296258D01*
X217300Y-293289D02*
Y-291711D01*
X220270Y-288742D01*
X160740Y-326000D02*
X186306Y-300434D01*
X118300Y-326000D02*
X160740D01*
X160756Y-323200D02*
X184914Y-299042D01*
X110000Y-323200D02*
X160756D01*
X161872Y-319300D02*
X183522Y-297650D01*
X94300Y-319300D02*
X161872D01*
X220270Y-288742D02*
X222800Y-286246D01*
X190000Y-313300D02*
X195286Y-308014D01*
X190000Y-331400D02*
Y-313300D01*
X193300Y-315800D02*
X193400Y-315600D01*
X193700Y-315300D01*
X197442Y-311570D01*
X333846Y-104300D02*
X337389D01*
X322400Y-143500D02*
X322600Y-143300D01*
X272468Y-229732D02*
X322400Y-179800D01*
X332900Y-136400D02*
X342000Y-127300D01*
X322400Y-179800D02*
Y-143500D01*
Y-139400D01*
X325400Y-136400D01*
X337389Y-104300D02*
X342000Y-108911D01*
X325400Y-136400D02*
X332900D01*
X342000Y-127300D02*
Y-108911D01*
X333846Y-99300D02*
X348757D01*
X350800Y-101485D02*
X352555Y-103240D01*
X357519D01*
X350800Y-101485D02*
Y-101343D01*
X348757Y-99300D02*
X350800Y-101343D01*
X357300Y-109942D02*
Y-103459D01*
X357519Y-103240D01*
X84100Y-348000D02*
X84300Y-348200D01*
X84100Y-348000D02*
Y-329500D01*
X94300Y-319300D01*
X103400Y-347400D02*
X104100Y-346700D01*
Y-329100D01*
X110000Y-323200D01*
X114300Y-347100D02*
Y-330000D01*
X118300Y-326000D01*
X113900Y-347500D02*
X114300Y-347100D01*
X49985Y-258173D02*
X51646D01*
X49966Y-258154D02*
X49985Y-258173D01*
X49206Y-258154D02*
X49966D01*
X44000Y-164100D02*
Y-149235D01*
X40900Y-146135D02*
X44000Y-149235D01*
X40900Y-146135D02*
Y-119500D01*
X350990Y-109942D02*
X357300D01*
X357300Y-109942D01*
X276600Y-221700D02*
X318700Y-179600D01*
X355719Y-319619D02*
X358600Y-322500D01*
X306219Y-319619D02*
X355719D01*
X223150Y-269158D02*
X255758D01*
X275349Y-323600D02*
X282400D01*
X220269Y-296258D02*
X224989Y-300978D01*
X220460Y-296700D02*
X220600D01*
X224989Y-300978D02*
X225378D01*
X225600Y-301200D01*
X135705Y-268957D02*
X135800Y-269053D01*
Y-274500D02*
Y-269053D01*
Y-274500D02*
X176240D01*
X106500D02*
X135800D01*
X135705Y-268957D02*
X136000D01*
X212119Y-271814D02*
X217533Y-266400D01*
X212119Y-271837D02*
Y-271814D01*
X207742Y-276214D02*
X212119Y-271837D01*
X66300Y-310600D02*
X118800Y-258100D01*
X286300Y-315800D02*
X290200Y-319700D01*
X225800Y-315800D02*
X286300D01*
X213300Y-303300D02*
X225800Y-315800D01*
X217533Y-266400D02*
X246800D01*
X207700Y-273500D02*
X216900Y-264300D01*
X244100D01*
X259500Y-287600D02*
X262900D01*
X249700Y-277800D02*
X259500Y-287600D01*
X220089Y-277800D02*
X249700D01*
X217207Y-280682D02*
X220089Y-277800D01*
X216700Y-261600D02*
X242500D01*
X206100Y-272200D02*
X216700Y-261600D01*
X209134Y-277606D02*
X213518Y-273222D01*
X213878D01*
X214100Y-273000D01*
X178200Y-285000D02*
X178300D01*
X179300Y-286000D01*
X221634Y-273458D02*
X248758D01*
X215809Y-279283D02*
X221634Y-273458D01*
X211918Y-280390D02*
X223150Y-269158D01*
X47100Y-165200D02*
X57900Y-176000D01*
X184400Y-326900D02*
Y-316300D01*
X193800Y-306900D01*
X184400Y-326900D02*
Y-326100D01*
X184200Y-325900D02*
X184400Y-326100D01*
X255750Y-323550D02*
X255800Y-323500D01*
X247050Y-323550D02*
X255750D01*
X247000Y-323500D02*
X247050Y-323550D01*
X247350Y-338750D02*
X258450D01*
X258600Y-338600D01*
X247200Y-338900D02*
X247350Y-338750D01*
X193787Y-306887D02*
X193800Y-306900D01*
X193773Y-306887D02*
X193787D01*
X193266Y-307394D02*
X193773Y-306887D01*
X180600Y-317276D02*
X191874Y-306002D01*
X180600Y-319600D02*
Y-317276D01*
X221600Y-317100D02*
X231200Y-326700D01*
X211200Y-306700D02*
X221600Y-317100D01*
X231200Y-366100D02*
Y-326700D01*
X221500Y-317100D02*
X221600D01*
X228100Y-369200D02*
X231200Y-366100D01*
X225400Y-369300D02*
X225500Y-369200D01*
X228100D01*
X134027Y-369300D02*
X225400D01*
X208000Y-309100D02*
X219800Y-320900D01*
Y-343500D02*
Y-320900D01*
X207457Y-314068D02*
X216479Y-323090D01*
Y-362300D02*
Y-323090D01*
X208000Y-309100D02*
Y-308900D01*
X358600Y-328300D02*
Y-322500D01*
X289600Y-312700D02*
X320600Y-343700D01*
X214702Y-301826D02*
X225576Y-312700D01*
X289600D01*
X190000Y-331400D02*
X206636Y-348036D01*
X225508Y-318200D02*
X283800D01*
X211918Y-304610D02*
X225508Y-318200D01*
X169200Y-309100D02*
X182300Y-296000D01*
X145257Y-309100D02*
X169200D01*
X139942D02*
X140747Y-308295D01*
Y-305233D01*
X145900Y-300080D01*
Y-300000D01*
X206636Y-362300D02*
Y-348036D01*
X168500Y-326592D02*
X187983Y-307109D01*
X119200Y-206200D02*
X141100Y-228100D01*
X119200Y-206200D02*
Y-200100D01*
X124900Y-206000D02*
X146900Y-228000D01*
X124900Y-206000D02*
Y-200300D01*
X131543Y-234000D02*
X133043Y-232500D01*
X137300D01*
X127900Y-234000D02*
X131543D01*
X125968Y-236000D02*
X144300D01*
X155200Y-225100D01*
X137300Y-243600D02*
X141500Y-247800D01*
X137300Y-243600D02*
Y-242600D01*
X141500Y-247800D02*
X152324D01*
X187698Y-283174D01*
X146500Y-242900D02*
Y-242800D01*
Y-242900D02*
X148300Y-244700D01*
X152008D02*
X189090Y-281782D01*
X148300Y-244700D02*
X152008D01*
X150200Y-240100D02*
X160300Y-250200D01*
Y-250208D02*
Y-250200D01*
Y-250208D02*
X190482Y-280390D01*
X88400Y-176000D02*
X96400Y-184000D01*
X57900Y-176000D02*
X88400D01*
X87300Y-179400D02*
X96400Y-188500D01*
X44872Y-179400D02*
X87300D01*
X164700Y-251824D02*
X191874Y-278998D01*
X164700Y-251824D02*
Y-236100D01*
X169800Y-254140D02*
Y-237000D01*
Y-254140D02*
X193266Y-277606D01*
X169800Y-237000D02*
X170000Y-236800D01*
X174700Y-235700D02*
X174800Y-235800D01*
X190700Y-269400D02*
X195600Y-274300D01*
X190700Y-269400D02*
Y-260000D01*
X196600Y-254100D01*
X244069Y-246869D02*
Y-246268D01*
Y-255231D02*
Y-246869D01*
X197300Y-273000D02*
Y-272600D01*
X212000Y-257900D01*
X241400D01*
X244069Y-255231D01*
X247700Y-206600D02*
X257100Y-216000D01*
X234400Y-200400D02*
X240600Y-206600D01*
X247700D01*
X198800Y-212500D02*
Y-189600D01*
X194700Y-185500D02*
X198800Y-189600D01*
X194700Y-185500D02*
Y-176200D01*
X198800D01*
Y-176300D02*
Y-176200D01*
Y-176452D02*
Y-176300D01*
X200000D01*
X198648D02*
X198800D01*
X196000Y-214000D02*
X204300Y-222300D01*
X198648Y-176300D02*
X198800Y-176452D01*
Y-212500D02*
X206200Y-219900D01*
X204300Y-222300D02*
X238100D01*
X206200Y-219900D02*
X239300D01*
X55300Y-361900D02*
X56300Y-360900D01*
X155200Y-225100D02*
X223300D01*
X234400Y-200400D02*
Y-194700D01*
X331500Y-181700D02*
Y-148400D01*
X246800Y-266400D02*
X331500Y-181700D01*
X244100Y-264300D02*
X325700Y-182700D01*
Y-159800D02*
X325800Y-159700D01*
X325700Y-182700D02*
Y-159800D01*
X176240Y-274500D02*
X186306Y-284566D01*
X104300Y-277400D02*
X176356D01*
X184914Y-285958D01*
X98700Y-271900D02*
X115800Y-254800D01*
X56300Y-314300D02*
X98700Y-271900D01*
X104500Y-272500D02*
X106500Y-274500D01*
X247200Y-221700D02*
X276600D01*
X244246Y-224654D02*
X247200Y-221700D01*
X238163Y-229732D02*
Y-229710D01*
X238154Y-229700D02*
X238163Y-229710D01*
X109409Y-239937D02*
X109432D01*
X109400Y-239946D02*
X109409Y-239937D01*
X109400Y-243800D02*
Y-239946D01*
X155800Y-228500D02*
X223100D01*
X240132Y-246268D02*
Y-238732D01*
X223100Y-228500D02*
X232200Y-237600D01*
X239000D02*
X240132Y-238732D01*
X239900Y-235500D02*
X242100Y-237700D01*
Y-246268D02*
Y-237700D01*
X115800Y-254800D02*
Y-238300D01*
X56300Y-360900D02*
Y-314300D01*
X115800Y-238300D02*
X118100Y-236000D01*
X120400Y-238000D02*
X123400D01*
X118800Y-239600D02*
X120400Y-238000D01*
X118800Y-258100D02*
Y-239600D01*
X66300Y-362000D02*
Y-310600D01*
X146331Y-237969D02*
X155800Y-228500D01*
X125968Y-237969D02*
X146331D01*
X91300Y-235900D02*
X110800D01*
X86900Y-267200D02*
Y-240300D01*
X91300Y-235900D01*
X46500Y-307600D02*
X86900Y-267200D01*
X33900Y-307600D02*
X46500D01*
X23500Y-362000D02*
Y-318000D01*
X33900Y-307600D01*
X239300Y-219900D02*
X242027Y-222627D01*
Y-229660D02*
Y-222627D01*
X238100Y-222300D02*
X240132Y-224332D01*
Y-229732D02*
Y-224332D01*
X89700Y-165000D02*
X102200Y-177500D01*
X74100Y-165000D02*
X89700D01*
X244246Y-227200D02*
Y-224654D01*
X103632Y-234032D02*
X109432D01*
X102200Y-232600D02*
X103632Y-234032D01*
X94600Y-161900D02*
Y-157300D01*
X107700Y-64100D02*
X109800Y-66200D01*
Y-142100D02*
Y-66200D01*
X107600Y-64100D02*
X107700D01*
X60457Y-66800D02*
X60558Y-66900D01*
X65200D01*
X94600Y-157300D02*
X109800Y-142100D01*
X362700Y-101900D02*
Y-100800D01*
X361400Y-99500D02*
X362700Y-100800D01*
X357519Y-99500D02*
X361400D01*
X325800Y-146200D02*
X328100Y-143900D01*
X325800Y-159700D02*
Y-146200D01*
X328100Y-143900D02*
X336500D01*
X338737Y-141663D02*
Y-136200D01*
X336500Y-143900D02*
X338737Y-141663D01*
X166300Y-192500D02*
Y-162100D01*
X177200Y-151200D01*
X190400D01*
X45100Y-165200D02*
X47100D01*
X44000Y-164100D02*
X45100Y-165200D01*
X40900Y-119500D02*
X41758Y-118642D01*
X46100D01*
X43700Y-178228D02*
Y-169037D01*
Y-178228D02*
X44872Y-179400D01*
X100700Y-145600D02*
Y-118800D01*
X89300Y-157000D02*
X100700Y-145600D01*
X80563Y-157000D02*
X89300D01*
X227368Y-142400D02*
X230700D01*
X227243Y-142525D02*
X227368Y-142400D01*
X227158Y-137125D02*
X230996D01*
X223940Y-162437D02*
X223972Y-162469D01*
X227668D01*
X227700Y-162500D01*
X326360Y-139940D02*
X330863D01*
X326300Y-140000D02*
X326360Y-139940D01*
X356500Y-148303D02*
X356500Y-148303D01*
X356500Y-152800D02*
Y-148303D01*
X345900Y-115200D02*
X345957Y-115257D01*
X310905Y-73558D02*
X311200D01*
X308000Y-76462D02*
X310905Y-73558D01*
X308000Y-78000D02*
Y-76462D01*
X309430Y-126333D02*
X309460Y-126363D01*
X309430Y-126333D02*
Y-123030D01*
X309400Y-123000D02*
X309430Y-123030D01*
X345957Y-115257D02*
X350990D01*
X351140Y-115407D02*
X351500Y-115768D01*
X351140Y-115407D02*
X357040D01*
X350990Y-115257D02*
X351140Y-115407D01*
X351500Y-123697D02*
Y-115768D01*
X326800Y-94300D02*
X333846D01*
X326800Y-94300D02*
X326800Y-94300D01*
X224900Y-125000D02*
X230018D01*
X224900Y-125000D02*
X224900Y-125000D01*
X220200Y-154563D02*
X220282Y-154481D01*
X224219D01*
X224300Y-154400D01*
X201257Y-157500D02*
X206100D01*
X206100Y-157500D01*
X221885Y-147315D02*
Y-142482D01*
X210100Y-170100D02*
Y-159100D01*
X194600Y-166100D02*
X202391D01*
X216460Y-167160D02*
Y-162437D01*
Y-167160D02*
X217500Y-168200D01*
X220900D02*
X222758Y-170058D01*
X217500Y-168200D02*
X220900D01*
X222758Y-173800D02*
Y-170058D01*
X210100Y-159100D02*
X221885Y-147315D01*
X202391Y-171100D02*
X209100D01*
X210100Y-170100D01*
X62468Y-252242D02*
Y-248632D01*
X62500Y-248600D01*
X43754Y-238900D02*
X43882Y-238771D01*
Y-232929D01*
X44011Y-232800D01*
X51646Y-252267D02*
X52276D01*
X60002Y-244542D01*
Y-243687D01*
X61173Y-242515D01*
X61469D01*
X68519Y-269508D02*
X68569Y-269458D01*
X62419Y-269508D02*
X68519D01*
X62369Y-269557D02*
X62419Y-269508D01*
X68569Y-264143D02*
Y-257580D01*
X68572Y-257577D01*
X62369Y-264242D02*
Y-257657D01*
X62468Y-257557D01*
X51646Y-254236D02*
X51655Y-254226D01*
X53280D01*
X53306Y-254200D01*
X54300D01*
X57657Y-257557D02*
X62468D01*
X54300Y-254200D02*
X57657Y-257557D01*
X68562Y-252252D02*
X68572Y-252262D01*
X62478Y-252252D02*
X68562D01*
X62468Y-252242D02*
X62478Y-252252D01*
X50568Y-267243D02*
Y-262569D01*
X49224Y-261225D02*
X50568Y-262569D01*
X49224Y-261225D02*
Y-260594D01*
X76300Y-161263D02*
Y-161066D01*
X77275Y-160091D01*
X77472D01*
X80563Y-157000D01*
D80*
X64222Y-156197D02*
D03*
Y-161512D02*
D03*
X55722Y-156197D02*
D03*
Y-161512D02*
D03*
X46100Y-123958D02*
D03*
Y-118642D02*
D03*
X311200Y-68243D02*
D03*
Y-73558D02*
D03*
X136000Y-263643D02*
D03*
Y-268957D02*
D03*
X125100Y-263643D02*
D03*
Y-268957D02*
D03*
X69969Y-237043D02*
D03*
Y-242357D02*
D03*
X68569Y-264142D02*
D03*
Y-269458D02*
D03*
X62369Y-264243D02*
D03*
Y-269557D02*
D03*
X350990Y-109942D02*
D03*
Y-115257D02*
D03*
X61100Y-59957D02*
D03*
Y-54642D02*
D03*
X171000Y-165542D02*
D03*
Y-170858D02*
D03*
X311200Y-56142D02*
D03*
Y-61458D02*
D03*
X61469Y-242515D02*
D03*
Y-237200D02*
D03*
D81*
X217443Y-173800D02*
D03*
X222758D02*
D03*
X336357Y-118130D02*
D03*
X331043D02*
D03*
X354557Y-303500D02*
D03*
X349242D02*
D03*
X354457Y-312400D02*
D03*
X349143D02*
D03*
X354300Y-278218D02*
D03*
X348985D02*
D03*
X354300Y-286809D02*
D03*
X348985D02*
D03*
X354300Y-294500D02*
D03*
X348985D02*
D03*
X217343Y-181100D02*
D03*
X222658D02*
D03*
X336357Y-123830D02*
D03*
X331043D02*
D03*
X195942Y-157500D02*
D03*
X201257D02*
D03*
X310043Y-117400D02*
D03*
X315357D02*
D03*
X145257Y-309100D02*
D03*
X139943D02*
D03*
X262400Y-350100D02*
D03*
X267715D02*
D03*
X305757Y-342500D02*
D03*
X300443D02*
D03*
X305857Y-349700D02*
D03*
X300542D02*
D03*
X84242Y-146675D02*
D03*
X89557D02*
D03*
X221843Y-137125D02*
D03*
X227158D02*
D03*
X54757Y-74300D02*
D03*
X49442D02*
D03*
X60457Y-66800D02*
D03*
X55142D02*
D03*
X331542Y-148500D02*
D03*
X336858D02*
D03*
X49069Y-238900D02*
D03*
X43754D02*
D03*
X49326Y-232800D02*
D03*
X44011D02*
D03*
D82*
X40898Y-258172D02*
D03*
Y-256204D02*
D03*
Y-254236D02*
D03*
Y-252267D02*
D03*
X51646D02*
D03*
Y-254236D02*
D03*
Y-256204D02*
D03*
Y-258172D02*
D03*
D83*
X43319Y-249846D02*
D03*
X45287D02*
D03*
X47256D02*
D03*
X49224D02*
D03*
Y-260594D02*
D03*
X47256D02*
D03*
X45287D02*
D03*
X43319D02*
D03*
D84*
X46272Y-255220D02*
D03*
D85*
X220270Y-296258D02*
D03*
X218878Y-297650D02*
D03*
X217486Y-299042D02*
D03*
X216094Y-300434D02*
D03*
X214702Y-301826D02*
D03*
X213310Y-303218D02*
D03*
X211918Y-304610D02*
D03*
X210526Y-306002D02*
D03*
X209134Y-307394D02*
D03*
X207742Y-308786D02*
D03*
X206350Y-310178D02*
D03*
X204958Y-311570D02*
D03*
X182130Y-288742D02*
D03*
X183522Y-287350D02*
D03*
X184914Y-285958D02*
D03*
X186306Y-284566D02*
D03*
X187698Y-283174D02*
D03*
X189090Y-281782D02*
D03*
X190482Y-280390D02*
D03*
X191874Y-278998D02*
D03*
X193266Y-277606D02*
D03*
X194658Y-276214D02*
D03*
X196050Y-274822D02*
D03*
X197442Y-273430D02*
D03*
D86*
Y-311570D02*
D03*
X196050Y-310178D02*
D03*
X194658Y-308786D02*
D03*
X193266Y-307394D02*
D03*
X191874Y-306002D02*
D03*
X190482Y-304610D02*
D03*
X189090Y-303218D02*
D03*
X187698Y-301826D02*
D03*
X186306Y-300434D02*
D03*
X184914Y-299042D02*
D03*
X183522Y-297650D02*
D03*
X182130Y-296258D02*
D03*
X204958Y-273430D02*
D03*
X206350Y-274822D02*
D03*
X207742Y-276214D02*
D03*
X209134Y-277606D02*
D03*
X210526Y-278998D02*
D03*
X211918Y-280390D02*
D03*
X213310Y-281782D02*
D03*
X214702Y-283174D02*
D03*
X216094Y-284566D02*
D03*
X217486Y-285958D02*
D03*
X218878Y-287350D02*
D03*
X220270Y-288742D02*
D03*
D87*
X146237Y-299940D02*
D03*
Y-292460D02*
D03*
X138363Y-296200D02*
D03*
X330863Y-132460D02*
D03*
Y-139940D02*
D03*
X338737Y-136200D02*
D03*
D88*
X71800Y-5054D02*
D03*
X66800D02*
D03*
X61800D02*
D03*
X56800D02*
D03*
X71800Y-24346D02*
D03*
X66800D02*
D03*
X61800D02*
D03*
X56800D02*
D03*
X94900Y-5254D02*
D03*
X89900D02*
D03*
X84900D02*
D03*
X79900D02*
D03*
X94900Y-24546D02*
D03*
X89900D02*
D03*
X84900D02*
D03*
X79900D02*
D03*
D89*
X20772Y-229302D02*
D03*
Y-202137D02*
D03*
D90*
X351500Y-123697D02*
D03*
X356500D02*
D03*
Y-148303D02*
D03*
X351500D02*
D03*
D91*
X335400Y-213600D02*
D03*
Y-217200D02*
D03*
D92*
X164800Y-235849D02*
D03*
D93*
X169800D02*
D03*
X174800D02*
D03*
X179800D02*
D03*
X164800Y-216951D02*
D03*
X169800D02*
D03*
X174800D02*
D03*
X179800D02*
D03*
D94*
X109432Y-232063D02*
D03*
Y-234032D02*
D03*
Y-236000D02*
D03*
Y-237968D02*
D03*
Y-239937D02*
D03*
X125968Y-232063D02*
D03*
Y-234032D02*
D03*
Y-236000D02*
D03*
Y-237968D02*
D03*
Y-239937D02*
D03*
D95*
X246037Y-229732D02*
D03*
X244069D02*
D03*
X242100D02*
D03*
X240131D02*
D03*
X238163D02*
D03*
X246037Y-246268D02*
D03*
X244069D02*
D03*
X242100D02*
D03*
X240131D02*
D03*
X238163D02*
D03*
D96*
X256451Y-323600D02*
D03*
Y-328600D02*
D03*
Y-333600D02*
D03*
Y-338600D02*
D03*
X275349Y-323600D02*
D03*
Y-328600D02*
D03*
Y-333600D02*
D03*
Y-338600D02*
D03*
D97*
X200700Y-67799D02*
D03*
Y-105201D02*
D03*
D98*
X190437Y-144852D02*
D03*
X195437D02*
D03*
X200437D02*
D03*
X205437D02*
D03*
X190437Y-125206D02*
D03*
X195437D02*
D03*
X200437D02*
D03*
X205437D02*
D03*
D99*
X197937Y-135029D02*
D03*
D100*
X72887Y-107800D02*
D03*
X96313D02*
D03*
D101*
X20969Y-264913D02*
D03*
Y-241488D02*
D03*
D102*
X288383Y-263100D02*
D03*
D103*
X311217Y-254045D02*
D03*
Y-263100D02*
D03*
Y-272155D02*
D03*
D104*
X358600Y-359554D02*
D03*
Y-328846D02*
D03*
X329200Y-359554D02*
D03*
Y-328846D02*
D03*
D105*
X51285Y-111540D02*
D03*
Y-104060D02*
D03*
X61915D02*
D03*
Y-107800D02*
D03*
Y-111540D02*
D03*
X51285Y-107800D02*
D03*
D106*
X47440Y-161163D02*
D03*
X39960D02*
D03*
X43700Y-169037D02*
D03*
X230660Y-181637D02*
D03*
X238140D02*
D03*
X234400Y-173763D02*
D03*
X72560Y-169137D02*
D03*
X80040D02*
D03*
X76300Y-161263D02*
D03*
X216460Y-162437D02*
D03*
X223940D02*
D03*
X220200Y-154563D02*
D03*
X316940Y-126363D02*
D03*
X309460D02*
D03*
X313200Y-134237D02*
D03*
D107*
X49854Y-132900D02*
D03*
Y-137900D02*
D03*
Y-142900D02*
D03*
Y-147900D02*
D03*
X69146Y-132900D02*
D03*
Y-137900D02*
D03*
Y-142900D02*
D03*
Y-147900D02*
D03*
X183100Y-166100D02*
D03*
Y-171100D02*
D03*
Y-176100D02*
D03*
Y-181100D02*
D03*
X202391Y-166100D02*
D03*
Y-171100D02*
D03*
Y-176100D02*
D03*
Y-181100D02*
D03*
X314554Y-94300D02*
D03*
Y-99300D02*
D03*
Y-104300D02*
D03*
Y-109300D02*
D03*
X333846Y-94300D02*
D03*
Y-99300D02*
D03*
Y-104300D02*
D03*
Y-109300D02*
D03*
D108*
X79900Y-134040D02*
D03*
Y-126500D02*
D03*
X90219D02*
D03*
Y-130300D02*
D03*
Y-134040D02*
D03*
X219700Y-128740D02*
D03*
Y-121200D02*
D03*
X230018D02*
D03*
Y-125000D02*
D03*
Y-128740D02*
D03*
X347200Y-103240D02*
D03*
Y-95700D02*
D03*
X357519D02*
D03*
Y-99500D02*
D03*
Y-103240D02*
D03*
D109*
X44243Y-207757D02*
D03*
Y-202442D02*
D03*
X37700Y-207857D02*
D03*
Y-202542D02*
D03*
X50569Y-272557D02*
D03*
Y-267243D02*
D03*
X62469Y-252242D02*
D03*
Y-257558D02*
D03*
X68572Y-252262D02*
D03*
Y-257577D02*
D03*
X357300Y-115258D02*
D03*
Y-109942D02*
D03*
X42669Y-267342D02*
D03*
Y-272657D02*
D03*
D110*
X89557Y-140775D02*
D03*
X84242D02*
D03*
X227243Y-142525D02*
D03*
X221928D02*
D03*
X184757Y-114800D02*
D03*
X179443D02*
D03*
X324830Y-47659D02*
D03*
X330145D02*
D03*
X52443Y-117800D02*
D03*
X57758D02*
D03*
D111*
X113600Y-209400D02*
D03*
X95700Y-210300D02*
D03*
X192500Y-195200D02*
D03*
X228700Y-202000D02*
D03*
X309300Y-162700D02*
D03*
X265200Y-234400D02*
D03*
D112*
X32874Y-277200D02*
D03*
X21063D02*
D03*
X50195Y-84800D02*
D03*
X62006D02*
D03*
X50195Y-94300D02*
D03*
X62006D02*
D03*
X324394Y-55600D02*
D03*
X336206D02*
D03*
D113*
X61772Y-202245D02*
D03*
Y-221194D02*
D03*
D114*
X82195Y-53800D02*
D03*
X94006D02*
D03*
D115*
X180700Y-136700D02*
D03*
Y-128700D02*
D03*
X173468Y-136700D02*
D03*
Y-128700D02*
D03*
D116*
X351300Y-31095D02*
D03*
Y-42906D02*
D03*
X183400Y-53806D02*
D03*
Y-41995D02*
D03*
X191675Y-53806D02*
D03*
Y-41995D02*
D03*
X199900Y-53806D02*
D03*
Y-41995D02*
D03*
X208200Y-42094D02*
D03*
Y-53905D02*
D03*
X216600D02*
D03*
Y-42094D02*
D03*
D117*
X338500Y-277200D02*
D03*
X331800D02*
D03*
X338500Y-286100D02*
D03*
X331800D02*
D03*
X338500Y-294100D02*
D03*
X331800D02*
D03*
X338500Y-302700D02*
D03*
X331800D02*
D03*
X338500Y-311800D02*
D03*
X331800D02*
D03*
D118*
X267100Y-362200D02*
X268400Y-360900D01*
X269900D01*
Y-355900D01*
X257100Y-362200D02*
X259100Y-360200D01*
Y-356300D01*
X267715Y-353715D02*
X269900Y-355900D01*
X267715Y-353715D02*
Y-350100D01*
X262400Y-353000D02*
Y-350100D01*
X259100Y-356300D02*
X262400Y-353000D01*
Y-350100D02*
X263000Y-349500D01*
X267357Y-349743D02*
X267715Y-350100D01*
X267357Y-349743D02*
Y-335543D01*
X176700Y-326600D02*
X177071Y-326971D01*
X188500Y-338600D02*
Y-337600D01*
X177071Y-326971D02*
X177871D01*
X305807Y-349992D02*
Y-342550D01*
X93300Y-347200D02*
X94064Y-347964D01*
Y-369264D02*
Y-347964D01*
X185349Y-235849D02*
X185400Y-235900D01*
X179800Y-235849D02*
X185349D01*
X176621Y-283621D02*
X176719D01*
X119994D02*
X176621D01*
X245200Y-189100D02*
Y-133800D01*
X114357Y-289258D02*
X119994Y-283621D01*
X114357Y-289258D02*
X114357D01*
X178098Y-285000D02*
X178200D01*
X176719Y-283621D02*
X178098Y-285000D01*
X112700Y-347300D02*
X114064Y-348663D01*
Y-369264D02*
Y-348663D01*
X195506Y-157064D02*
X195942Y-157500D01*
X195437Y-144852D02*
X195506Y-144921D01*
Y-157064D02*
Y-144921D01*
X171000Y-165543D02*
X171295D01*
X179338Y-157500D01*
X180900D01*
X195942D01*
X333846Y-109300D02*
X336008D01*
X336357Y-118130D02*
Y-109649D01*
X336008Y-109300D02*
X336357Y-109649D01*
Y-123830D02*
Y-118130D01*
X297700Y-195200D02*
Y-142200D01*
X279700Y-213200D02*
X297700Y-195200D01*
X274200Y-213200D02*
X279700D01*
X261700Y-83600D02*
X262101Y-83200D01*
X289542Y-97642D02*
X297852D01*
X262101Y-83200D02*
X275100D01*
X289542Y-97642D01*
X261258Y-84043D02*
X261700Y-83600D01*
X84064Y-369264D02*
Y-347264D01*
X104064Y-369264D02*
Y-347063D01*
X84027Y-369300D02*
X84064Y-369264D01*
X84000Y-347200D02*
X84064Y-347264D01*
X132000Y-361600D02*
X134000Y-359600D01*
X124027Y-369300D02*
Y-368300D01*
X130727Y-361600D01*
X132000D01*
X94027Y-369300D02*
X94064Y-369264D01*
X104000Y-347000D02*
X104064Y-347063D01*
X104027Y-369300D02*
X104064Y-369264D01*
X114027Y-369300D02*
X114064Y-369264D01*
X124000Y-358600D02*
Y-357600D01*
X134000Y-349000D02*
Y-347800D01*
X132100Y-350900D02*
X134000Y-349000D01*
X130700Y-350900D02*
X132100D01*
X124000Y-357600D02*
X130700Y-350900D01*
X134000Y-359600D02*
Y-358700D01*
X69146Y-151568D02*
Y-147900D01*
X64517Y-156197D02*
X69146Y-151568D01*
X69290Y-143045D02*
X74345D01*
X69290Y-138045D02*
X75145D01*
X77875Y-140775D02*
X84242D01*
X75145Y-138045D02*
X77875Y-140775D01*
X69146Y-142900D02*
X69290Y-143045D01*
X69146Y-137900D02*
X69290Y-138045D01*
X26300Y-64900D02*
X35400Y-55800D01*
Y-50500D02*
X36100Y-49800D01*
X26300Y-91559D02*
X33100Y-98359D01*
X26300Y-91559D02*
Y-64900D01*
X35400Y-55800D02*
Y-50500D01*
X33052Y-177252D02*
Y-143617D01*
Y-177252D02*
X38700Y-182900D01*
X59900D01*
X59600Y-183000D02*
X80400D01*
X91700Y-194300D01*
X96300D01*
X48100Y-151000D02*
Y-148249D01*
X40900Y-35300D02*
X53600D01*
X56655Y-26045D02*
X56900Y-25800D01*
X56655Y-32245D02*
Y-26045D01*
X36100Y-49800D02*
Y-40100D01*
X53600Y-35300D02*
X56655Y-32245D01*
X36100Y-40100D02*
X40900Y-35300D01*
X346200Y-103240D02*
X347200D01*
X354507Y-303550D02*
X354557Y-303500D01*
X354507Y-312350D02*
Y-303550D01*
X354457Y-312400D02*
X354507Y-312350D01*
X354300Y-294500D02*
X354429Y-294629D01*
Y-303371D02*
Y-294629D01*
Y-303371D02*
X354557Y-303500D01*
X354300Y-294500D02*
Y-286809D01*
Y-278218D01*
Y-269900D01*
X347600Y-263200D02*
X354300Y-269900D01*
X323300Y-263200D02*
X347600D01*
X347809Y-311700D02*
X348509Y-312400D01*
X338600Y-311700D02*
X347809D01*
X348509Y-312400D02*
X349143D01*
X338500Y-311800D02*
X338600Y-311700D01*
X349242Y-303500D02*
Y-303472D01*
X348471Y-302700D02*
X349242Y-303472D01*
X339200Y-302700D02*
X348471D01*
X340200Y-277200D02*
X349913D01*
X350685Y-277972D01*
Y-278218D02*
Y-277972D01*
X338500Y-286100D02*
X338855Y-286455D01*
X348630D01*
X348985Y-286809D01*
X338500Y-294100D02*
X338700Y-294300D01*
X348785D01*
X348985Y-294500D01*
X291500Y-263100D02*
X311217D01*
X291300Y-262900D02*
X291500Y-263100D01*
X323250Y-263150D02*
X323300Y-263200D01*
X311267Y-263150D02*
X323250D01*
X311217Y-263100D02*
X311267Y-263150D01*
X256270Y-333781D02*
X256451Y-333600D01*
X250017Y-333781D02*
X256270D01*
X249898Y-333900D02*
X250017Y-333781D01*
X249800Y-333900D02*
X249898D01*
X331850Y-322750D02*
X331900Y-322800D01*
Y-324000D02*
Y-322800D01*
X330200Y-325700D02*
X331900Y-324000D01*
X330200Y-328600D02*
Y-325700D01*
X309362Y-338600D02*
X309800D01*
X305757Y-342500D02*
Y-342205D01*
X309362Y-338600D01*
X125150Y-263593D02*
X135950D01*
X134986Y-264414D02*
X135100Y-264300D01*
X133184Y-264414D02*
X134986D01*
X130698Y-266900D02*
X133184Y-264414D01*
X130600Y-266900D02*
X130698D01*
X135950Y-263593D02*
X136000Y-263643D01*
X125100D02*
X125150Y-263593D01*
X57000Y-5300D02*
Y3800D01*
X329500Y-359100D02*
X329731Y-358869D01*
X335231D01*
X335300Y-358800D01*
X328300Y-330900D02*
X328500D01*
X305757Y-342500D02*
X305807Y-342550D01*
X305800Y-350000D02*
X305807Y-349992D01*
X360700Y-335300D02*
Y-335100D01*
X358900Y-333300D02*
X360700Y-335100D01*
X358900Y-333300D02*
Y-329500D01*
X272419Y-333781D02*
X272600Y-333600D01*
X269119Y-333781D02*
X272419D01*
X267357Y-335543D02*
X269119Y-333781D01*
X263000Y-331272D02*
X265671Y-328600D01*
X263000Y-349500D02*
Y-331272D01*
X272400Y-328600D02*
X272500Y-328700D01*
X265671Y-328600D02*
X272400D01*
X146237Y-292460D02*
X150760D01*
X150800Y-292500D01*
X138166Y-296200D02*
X138363D01*
X125424Y-308943D02*
X138166Y-296200D01*
X114857Y-308943D02*
X125424D01*
X114700Y-309100D02*
X114857Y-308943D01*
X111300Y-194000D02*
X150700D01*
X164800Y-208100D01*
X185700Y-213400D02*
Y-207900D01*
X174800Y-214200D02*
Y-205500D01*
X176000Y-204300D01*
X180300D01*
X182028Y-204228D02*
X185700Y-207900D01*
X180372Y-204228D02*
X182028D01*
X180300Y-204300D02*
X180372Y-204228D01*
X179800Y-208000D02*
X179900Y-207900D01*
X179800Y-216951D02*
Y-208000D01*
X174800Y-216951D02*
X174869Y-217021D01*
X179800Y-216951D02*
X179800Y-216951D01*
X164800Y-216951D02*
Y-208100D01*
X163000Y-197400D02*
Y-166900D01*
X169800Y-216951D02*
Y-204200D01*
X163000Y-197400D02*
X169800Y-204200D01*
X23700Y3800D02*
X57000D01*
X11900Y-8000D02*
X23700Y3800D01*
X11800Y-8000D02*
X11900D01*
X159800Y-163700D02*
X163000Y-166900D01*
X159800Y-163700D02*
Y-144876D01*
X95100Y-25100D02*
Y-21202D01*
X28100Y-39700D02*
X37400Y-30400D01*
X13900Y-39700D02*
X28100D01*
X13800Y-39800D02*
X13900Y-39700D01*
X4200Y-39800D02*
X13800D01*
X4100Y-39900D02*
X4200Y-39800D01*
X4800Y-39600D02*
X4900Y-39700D01*
X42800Y-10900D02*
X43700Y-10000D01*
X43600Y-21400D02*
Y-10200D01*
X43600Y-10200D01*
X33600Y-21400D02*
X33600Y-21400D01*
Y-10300D01*
X33700Y-10200D01*
X23200Y-9600D02*
X23600Y-10000D01*
X23600Y-21400D02*
X23600Y-21400D01*
Y-10000D01*
X84900Y-5254D02*
X89700D01*
X120100Y-5200D02*
Y-200D01*
X98100Y-33300D02*
X114100Y-17300D01*
Y1400D01*
X86700Y-33300D02*
X98100D01*
X84900Y-31500D02*
X86700Y-33300D01*
X84900Y-31500D02*
Y-24546D01*
X89800Y-24500D02*
X90100Y-24800D01*
X166700Y2900D02*
X170900Y-1300D01*
X123200Y2900D02*
X166700D01*
X120100Y-200D02*
X123200Y2900D01*
X114200Y1500D02*
X119900Y7200D01*
X221000D01*
X57000Y3800D02*
X78500D01*
X79800Y-5100D02*
Y2500D01*
X78500Y3800D02*
X79800Y2500D01*
X-5100Y-24900D02*
X11800Y-8000D01*
X-5100Y-51200D02*
Y-24900D01*
X600Y-133300D02*
Y-56900D01*
X-5100Y-51200D02*
X600Y-56900D01*
X72100Y-24000D02*
Y-20000D01*
X69700Y-17600D02*
X72100Y-20000D01*
X69700Y-17600D02*
Y-17300D01*
X91198D02*
X95100Y-21202D01*
X69700Y-17300D02*
X91198D01*
X52000Y-21000D02*
X55700Y-17300D01*
X69700D01*
X48400Y-30400D02*
X52000Y-26800D01*
Y-21000D01*
X37400Y-30400D02*
X48400D01*
X45200Y-10000D02*
X49200Y-14000D01*
X43700Y-10000D02*
X45200D01*
X94900Y-8798D02*
Y-5254D01*
X89698Y-14000D02*
X94900Y-8798D01*
X49200Y-14000D02*
X89698D01*
X66500Y-23800D02*
X66931Y-24231D01*
Y-32631D02*
Y-24231D01*
Y-32631D02*
X67000Y-32700D01*
X84754Y-24400D02*
X84900Y-24546D01*
X80300Y-24400D02*
X84754D01*
X56500Y-24000D02*
X56846Y-24346D01*
X61800D01*
X233300Y-103400D02*
X247900D01*
X227800Y-97900D02*
X233300Y-103400D01*
X227800Y-97900D02*
Y400D01*
X221000Y7200D02*
X227800Y400D01*
X266600Y-128500D02*
X290200Y-104900D01*
X266600Y-189000D02*
Y-128500D01*
X266550Y-189050D02*
X266600Y-189000D01*
X103900Y-153900D02*
X128700D01*
X156500Y-181700D01*
X255157Y-84043D02*
X261258D01*
X253300Y-85900D02*
X255157Y-84043D01*
X253300Y-98000D02*
Y-85900D01*
X247900Y-103400D02*
X253300Y-98000D01*
X153600Y-49600D02*
Y-40500D01*
X157700Y-36400D01*
X164200D02*
X170900Y-29700D01*
X157700Y-36400D02*
X164200D01*
X170900Y-29700D02*
Y-1300D01*
X219143Y-104843D02*
X230018Y-115718D01*
X204700Y-81700D02*
X214300Y-91300D01*
Y-113400D02*
Y-91300D01*
Y-113400D02*
X219700Y-118800D01*
Y-121200D02*
Y-118800D01*
X184500Y-81700D02*
X204700D01*
X344700Y-106702D02*
X345800Y-105602D01*
Y-103640D01*
X321900Y-109300D02*
X321900Y-109300D01*
X344700Y-106800D02*
Y-106702D01*
X345800Y-103640D02*
X346200Y-103240D01*
X279158Y-56142D02*
X311200D01*
X317100Y-68243D02*
X327985D01*
X311200D02*
X317100D01*
X306171Y-113529D02*
X308976Y-116333D01*
X304937Y-112294D02*
X306171Y-113529D01*
X317300Y-77100D02*
Y-68442D01*
X317100Y-68243D02*
X317300Y-68442D01*
X306171Y-113529D02*
Y-88229D01*
X317300Y-77100D01*
X310043Y-117400D02*
Y-117105D01*
X309271Y-116333D02*
X310043Y-117105D01*
X308976Y-116333D02*
X309271D01*
X298900Y-112294D02*
X304937D01*
X261700Y-73600D02*
X279158Y-56142D01*
X327985Y-68243D02*
X330103Y-66124D01*
X331267D01*
X311200Y-68243D02*
Y-61458D01*
X315357Y-117400D02*
X315400Y-117442D01*
Y-121300D02*
Y-117442D01*
X313200Y-134237D02*
Y-123500D01*
X315400Y-121300D01*
X314554Y-109300D02*
X314554Y-109300D01*
X321900D01*
X215540Y-128740D02*
X219700D01*
X215500Y-128700D02*
X215540Y-128740D01*
X177200Y-48195D02*
X180857Y-44538D01*
X169300Y-56094D02*
X177200Y-48195D01*
X182416Y-41995D02*
X183400D01*
X180857Y-43554D02*
X182416Y-41995D01*
X180857Y-44538D02*
Y-43554D01*
X169300Y-90100D02*
Y-56094D01*
X159800Y-99600D02*
X169300Y-90100D01*
X153600Y-49600D02*
X159800Y-55800D01*
Y-72041D02*
Y-55800D01*
X183100Y-181100D02*
X190200D01*
X230391Y-181369D02*
X230660Y-181637D01*
X222926Y-181369D02*
X230391D01*
X222658Y-181100D02*
X222926Y-181369D01*
X217343Y-181100D02*
X217343Y-181100D01*
X202391Y-181100D02*
X217343D01*
X202391Y-181100D02*
X202391Y-181100D01*
X217343Y-181100D02*
X217393Y-181050D01*
Y-173850D01*
X217443Y-173800D01*
X229018Y-128740D02*
X230018D01*
X228618Y-129140D02*
X229018Y-128740D01*
X228618Y-132382D02*
Y-129140D01*
X228200Y-132800D02*
X228618Y-132382D01*
X221800Y-137082D02*
Y-133972D01*
X222972Y-132800D01*
X228200D01*
X221800Y-137082D02*
X221843Y-137125D01*
X221885Y-142482D02*
Y-137167D01*
X221843Y-137125D02*
X221885Y-137167D01*
X177200Y-74400D02*
Y-48195D01*
Y-74400D02*
X184500Y-81700D01*
X216600Y-53905D02*
X217584D01*
X219143Y-55465D01*
Y-104843D02*
Y-55465D01*
X230018Y-121200D02*
Y-115718D01*
X220200Y-154760D02*
Y-154563D01*
X205437Y-144852D02*
Y-143449D01*
X205604Y-143282D01*
X209618D01*
X212000Y-140900D01*
X200368Y-144921D02*
X200437Y-144852D01*
X200368Y-149734D02*
Y-144921D01*
X200200Y-149902D02*
X200368Y-149734D01*
X200200Y-150000D02*
Y-149902D01*
X69890Y-242436D02*
X69969Y-242358D01*
X61547Y-242436D02*
X69890D01*
X61469Y-242515D02*
X61547Y-242436D01*
X20772Y-229302D02*
X20969Y-229499D01*
X78900Y-134040D02*
X79900D01*
X78500Y-133640D02*
X78900Y-134040D01*
X78500Y-133640D02*
Y-131900D01*
X77700Y-131100D02*
X78500Y-131900D01*
X48449Y-147900D02*
X49854D01*
X48100Y-148249D02*
X48449Y-147900D01*
X55548Y-161337D02*
X55722Y-161512D01*
X47615Y-161337D02*
X55548D01*
X47440Y-161163D02*
X47615Y-161337D01*
X184758Y-114800D02*
X191101D01*
X200700Y-105201D01*
X200700D01*
X76300Y-161263D02*
X76340Y-161303D01*
X55427Y-161512D02*
X55722D01*
X54655Y-162283D02*
X55427Y-161512D01*
X72560Y-169137D02*
Y-168940D01*
X65903Y-162283D02*
X72560Y-168940D01*
X64994Y-162283D02*
X65903D01*
X64222Y-161512D02*
X64994Y-162283D01*
X64222Y-156197D02*
X64517D01*
X55722D02*
X64222D01*
X84242Y-146675D02*
Y-140775D01*
X179800Y-220003D02*
Y-216951D01*
D119*
X177871Y-326971D02*
X188500Y-337600D01*
X198941Y-135029D02*
X205368Y-128602D01*
X197937Y-135029D02*
X198941D01*
X323178Y-272178D02*
X323200Y-272200D01*
X311240Y-272178D02*
X323178D01*
X311217Y-272155D02*
X311240Y-272178D01*
X249800Y-328600D02*
X256451D01*
X358600Y-365700D02*
X358700Y-365800D01*
X358600Y-365700D02*
Y-359554D01*
X51057Y-123957D02*
X51100Y-124000D01*
X336858Y-148500D02*
X336956Y-148402D01*
X351402D01*
X351500Y-148303D01*
X330863Y-130960D02*
X330953Y-130870D01*
Y-123920D01*
X331042Y-123830D01*
X330913Y-118000D02*
X331042Y-118130D01*
X325107Y-118000D02*
X330913D01*
X316940Y-126363D02*
Y-126166D01*
X325107Y-118000D01*
X49500Y-74243D02*
Y-71300D01*
X49442Y-74300D02*
X49500Y-74243D01*
X85100Y-130300D02*
X90219D01*
X85100Y-130300D02*
X85100Y-130300D01*
X89557Y-140775D02*
X89583Y-140800D01*
X93500D01*
X89557Y-146675D02*
X93396D01*
X82900Y-169200D02*
X83000Y-169300D01*
X80040Y-169137D02*
X80103Y-169200D01*
X82900D01*
X39960Y-161163D02*
X40000Y-161123D01*
Y-157800D01*
X69146Y-132900D02*
Y-129154D01*
X69200Y-129100D01*
X46100Y-123957D02*
X51057D01*
X205368Y-128602D02*
Y-125275D01*
X205437Y-125206D01*
D120*
X241600Y-89700D02*
Y-81200D01*
X255800Y-194500D02*
Y-122600D01*
Y-194500D02*
X261200Y-199900D01*
X280100D01*
X241600Y-81200D02*
Y-71300D01*
Y-48700D01*
X329700Y-31500D02*
X337850Y-39650D01*
X296600Y-31500D02*
X329700D01*
X280100Y-199900D02*
X280400Y-199600D01*
X251200Y-39100D02*
X289000D01*
X241600Y-48700D02*
X251200Y-39100D01*
X289000D02*
X296600Y-31500D01*
D121*
X50445Y-94050D02*
Y-85050D01*
X18114Y-264913D02*
X20969D01*
X13601Y-143617D02*
X14548D01*
X16776Y-263574D02*
X18114Y-264913D01*
X100Y-244044D02*
Y-157118D01*
Y-244044D02*
X16776Y-260720D01*
X100Y-157118D02*
X13601Y-143617D01*
X16776Y-263574D02*
Y-260720D01*
X341086Y-65943D02*
X341267Y-66124D01*
X50195Y-94300D02*
X50445Y-94050D01*
Y-85050D02*
X50695Y-84800D01*
D122*
X74345Y-143045D02*
X77700Y-146400D01*
Y-151000D02*
Y-146400D01*
X71100Y-157600D02*
X77700Y-151000D01*
X71100Y-162100D02*
X73900Y-164900D01*
X73932D01*
X71100Y-162100D02*
Y-157600D01*
X234400Y-194700D02*
Y-173763D01*
X171000Y-190700D02*
Y-170857D01*
D123*
X20969Y-241487D02*
Y-229499D01*
D124*
X248758Y-273458D02*
D03*
X262900Y-287600D02*
D03*
D125*
X47772Y-256720D02*
D03*
Y-253720D02*
D03*
X44772D02*
D03*
Y-256720D02*
D03*
X282300Y-347800D02*
D03*
X296000Y-349700D02*
D03*
X185400Y-235900D02*
D03*
X256900Y-233400D02*
D03*
X191800Y-221100D02*
D03*
X235600Y-229700D02*
D03*
X196600Y-232300D02*
D03*
X257100Y-217400D02*
D03*
X279200Y-291800D02*
D03*
X301500Y-314700D02*
D03*
X188300Y-291900D02*
D03*
X200800Y-305600D02*
D03*
X206276Y-283129D02*
D03*
X245200Y-133800D02*
D03*
Y-189100D02*
D03*
X238300Y-178000D02*
D03*
X214800Y-293600D02*
D03*
X193300Y-315800D02*
D03*
X48100Y-151000D02*
D03*
X291300Y-262900D02*
D03*
X249800Y-328600D02*
D03*
Y-333900D02*
D03*
X282400Y-323600D02*
D03*
X176621Y-283621D02*
D03*
X225700Y-301400D02*
D03*
X309800Y-338600D02*
D03*
X130600Y-266900D02*
D03*
X358700Y-365800D02*
D03*
X214500Y-272800D02*
D03*
X332200Y-322000D02*
D03*
X335300Y-358800D02*
D03*
X360700Y-335300D02*
D03*
X125300Y-269300D02*
D03*
X184400Y-326900D02*
D03*
X247000Y-323500D02*
D03*
X247200Y-338900D02*
D03*
X180600Y-319600D02*
D03*
X219800Y-343500D02*
D03*
X320600Y-343700D02*
D03*
X150800Y-292500D02*
D03*
X96300Y-194300D02*
D03*
X146900Y-228000D02*
D03*
X137300Y-232500D02*
D03*
Y-242600D02*
D03*
X141100Y-228100D02*
D03*
X146500Y-242800D02*
D03*
X150200Y-240100D02*
D03*
X124900Y-200300D02*
D03*
X96400Y-184000D02*
D03*
X119200Y-200100D02*
D03*
X96400Y-188500D02*
D03*
X111300Y-194000D02*
D03*
X274200Y-213200D02*
D03*
X179900Y-207900D02*
D03*
X185700Y-213400D02*
D03*
X98700Y-271900D02*
D03*
X104300Y-277400D02*
D03*
X232900Y-246200D02*
D03*
X126000Y-244100D02*
D03*
X109400Y-243800D02*
D03*
X318700Y-143600D02*
D03*
X107600Y-64100D02*
D03*
X65200Y-66900D02*
D03*
X362700Y-101900D02*
D03*
X51100Y-124000D02*
D03*
X13800Y-39800D02*
D03*
X333500Y-35600D02*
D03*
X335800Y-37700D02*
D03*
X338500Y-40200D02*
D03*
X329300Y-36900D02*
D03*
X331800Y-39500D02*
D03*
X339200Y-35600D02*
D03*
X342000Y-38600D02*
D03*
X341300Y-42400D02*
D03*
X337700Y-43900D02*
D03*
X334400Y-42100D02*
D03*
X89700Y-5000D02*
D03*
X120100Y-5200D02*
D03*
X90000Y-26500D02*
D03*
X600Y-133300D02*
D03*
X95000Y-25100D02*
D03*
X80000Y-5300D02*
D03*
X72100Y-24100D02*
D03*
X56700Y-5100D02*
D03*
X67000Y-32700D02*
D03*
X230700Y-142400D02*
D03*
X230996Y-137125D02*
D03*
X227700Y-162500D02*
D03*
X326300Y-140000D02*
D03*
X356500Y-152800D02*
D03*
X321200Y-46600D02*
D03*
X322900Y-43000D02*
D03*
X318800Y-43400D02*
D03*
X316900Y-47300D02*
D03*
X320597Y-49891D02*
D03*
X317000Y-52500D02*
D03*
X320000Y-54900D02*
D03*
X317300Y-57600D02*
D03*
X54100Y-220700D02*
D03*
X50100Y-220600D02*
D03*
X53800Y-216200D02*
D03*
X50000Y-216400D02*
D03*
X45800D02*
D03*
X51000Y-212800D02*
D03*
X47000D02*
D03*
X43300Y-212900D02*
D03*
X50400Y-276800D02*
D03*
X46000Y-279300D02*
D03*
X42200Y-277100D02*
D03*
X38500Y-279400D02*
D03*
X38300Y-274900D02*
D03*
X266550Y-189050D02*
D03*
X290200Y-104900D02*
D03*
X156500Y-181700D02*
D03*
X103900Y-153900D02*
D03*
X345800Y-31000D02*
D03*
X344700Y-106800D02*
D03*
X345900Y-115200D02*
D03*
X308000Y-78000D02*
D03*
X370775Y-73925D02*
D03*
X309400Y-123000D02*
D03*
X298900Y-112294D02*
D03*
X351900Y-43800D02*
D03*
X367900D02*
D03*
X321900Y-109300D02*
D03*
X326800Y-94300D02*
D03*
X215500Y-128700D02*
D03*
X224900Y-125000D02*
D03*
X224300Y-154400D02*
D03*
X206100Y-157500D02*
D03*
X186721Y-67247D02*
D03*
Y-73153D02*
D03*
X190200Y-181100D02*
D03*
X194600Y-166100D02*
D03*
X190400Y-151200D02*
D03*
X212000Y-140900D02*
D03*
X200200Y-150000D02*
D03*
X180900Y-157500D02*
D03*
X62500Y-248600D02*
D03*
X49500Y-71300D02*
D03*
X51900Y-89700D02*
D03*
X49100Y-91800D02*
D03*
X48700Y-96700D02*
D03*
X51376Y-94300D02*
D03*
X49400Y-87600D02*
D03*
X51876Y-84800D02*
D03*
X48900Y-82200D02*
D03*
X77700Y-131100D02*
D03*
X85100Y-130300D02*
D03*
X93500Y-140800D02*
D03*
X93396Y-146675D02*
D03*
X83000Y-169300D02*
D03*
X40000Y-157800D02*
D03*
X69200Y-129100D02*
D03*
X63400Y-111600D02*
D03*
X65200Y-114700D02*
D03*
X61800Y-114600D02*
D03*
X100700Y-118800D02*
D03*
X80966Y-102300D02*
D03*
X89234Y-102300D02*
D03*
D126*
X331266Y-66124D02*
D03*
X336266Y-81124D02*
D03*
X341266Y-66124D02*
D03*
X346267Y-81124D02*
D03*
X351267Y-66124D02*
D03*
X356266Y-81124D02*
D03*
D127*
X43600Y-21400D02*
D03*
X43600Y-9900D02*
D03*
X257100Y-362200D02*
D03*
X188500Y-338600D02*
D03*
X134100Y-347900D02*
D03*
X134000Y-358600D02*
D03*
X134027Y-369300D02*
D03*
X66300Y-362000D02*
D03*
X33500Y-362000D02*
D03*
D128*
X33600Y-21400D02*
D03*
X23600D02*
D03*
X33600Y-9900D02*
D03*
X23600D02*
D03*
X297100Y-362200D02*
D03*
X287100D02*
D03*
X277100D02*
D03*
X267100D02*
D03*
X148500Y-338600D02*
D03*
X158500D02*
D03*
X168500D02*
D03*
X178500D02*
D03*
X124100Y-347900D02*
D03*
X114100D02*
D03*
X104100D02*
D03*
X94100D02*
D03*
X84100D02*
D03*
X124000Y-358600D02*
D03*
X114000D02*
D03*
X104000D02*
D03*
X94000D02*
D03*
X84000D02*
D03*
X124027Y-369300D02*
D03*
X114027D02*
D03*
X104027D02*
D03*
X94027D02*
D03*
X84027D02*
D03*
X46300Y-362000D02*
D03*
X56300D02*
D03*
X13500Y-362000D02*
D03*
X23500D02*
D03*
D129*
X236164Y-362300D02*
D03*
X80210Y-76301D02*
D03*
D130*
X226321Y-362300D02*
D03*
X216479D02*
D03*
X206636D02*
D03*
X114357Y-289258D02*
D03*
Y-308943D02*
D03*
X26100Y-49800D02*
D03*
X36100D02*
D03*
X46100D02*
D03*
X143600Y-49600D02*
D03*
X153600D02*
D03*
X163600D02*
D03*
X93989Y-76301D02*
D03*
X370079Y-295276D02*
D03*
X-0D02*
D03*
X370079Y0D02*
D03*
X-0D02*
D03*
D131*
X279348Y-142917D02*
D03*
X297852Y-70083D02*
D03*
Y-97642D02*
D03*
Y-142917D02*
D03*
X159800Y-144876D02*
D03*
Y-99600D02*
D03*
Y-72041D02*
D03*
X141296Y-144876D02*
D03*
X14548Y-143617D02*
D03*
X33052Y-70783D02*
D03*
Y-98342D02*
D03*
Y-143617D02*
D03*
D132*
X261700Y-73600D02*
D03*
Y-83600D02*
D03*
D133*
X261700Y-93600D02*
D03*
D134*
X4100Y-44900D02*
D03*
D135*
Y-39900D02*
D03*
Y-34900D02*
D03*
D136*
X365000Y-241843D02*
D03*
X364500Y-194343D02*
D03*
X268085Y-5100D02*
D03*
X210643Y-5300D02*
D03*
X153542Y-5500D02*
D03*
D137*
X365000Y-222158D02*
D03*
X364500Y-174657D02*
D03*
D138*
X248400Y-5100D02*
D03*
X190957Y-5300D02*
D03*
X133858Y-5500D02*
D03*
D139*
X176700Y-326600D02*
D03*
X347300Y-189100D02*
D03*
X345700Y-247800D02*
D03*
X345600Y-241500D02*
D03*
X345900Y-235800D02*
D03*
X325300D02*
D03*
X325600Y-241500D02*
D03*
X325900Y-247800D02*
D03*
X336700Y-192000D02*
D03*
X345700Y-203900D02*
D03*
X345500Y-197800D02*
D03*
X326400Y-197700D02*
D03*
X326100Y-203900D02*
D03*
X342700Y-191900D02*
D03*
X330500Y-192000D02*
D03*
X338600Y-197500D02*
D03*
X332600Y-197700D02*
D03*
X338600Y-203400D02*
D03*
X332500Y-203300D02*
D03*
X339100Y-247800D02*
D03*
X332500D02*
D03*
X338933Y-241500D02*
D03*
X332267D02*
D03*
X339033Y-235800D02*
D03*
X332167D02*
D03*
X323200Y-272200D02*
D03*
X312400Y-254200D02*
D03*
D140*
X197937Y-135029D02*
D03*
X201000Y-137700D02*
D03*
X194600Y-137600D02*
D03*
X201000Y-132500D02*
D03*
X194700D02*
D03*
X63900Y-82800D02*
D03*
X63600Y-86800D02*
D03*
X323300Y-263200D02*
D03*
X280200Y-200600D02*
D03*
X275400Y-197200D02*
D03*
Y-204000D02*
D03*
X265500Y-197200D02*
D03*
Y-204000D02*
D03*
X260200Y-200500D02*
D03*
X270300Y-200600D02*
D03*
X256000Y-146000D02*
D03*
X259400Y-141200D02*
D03*
X252600D02*
D03*
X259400Y-131300D02*
D03*
X252600D02*
D03*
X256100Y-126000D02*
D03*
X256000Y-136100D02*
D03*
X241600Y-71300D02*
D03*
X241700Y-61200D02*
D03*
X238200Y-66500D02*
D03*
X245000D02*
D03*
X238200Y-76400D02*
D03*
X245000D02*
D03*
X241600Y-81200D02*
D03*
Y-91500D02*
D03*
X245000Y-86700D02*
D03*
X238200D02*
D03*
X16900Y-271500D02*
D03*
X21200Y-271300D02*
D03*
X25300D02*
D03*
X17100Y-283300D02*
D03*
X21400Y-283100D02*
D03*
X25500D02*
D03*
X25700Y-287900D02*
D03*
X21600D02*
D03*
X17300Y-288100D02*
D03*
X161500Y-120100D02*
D03*
X161600Y-124700D02*
D03*
X161700Y-129100D02*
D03*
X156100Y-120200D02*
D03*
X156200Y-124800D02*
D03*
X156300Y-129200D02*
D03*
X151100Y-120200D02*
D03*
X151200Y-124800D02*
D03*
X151300Y-129200D02*
D03*
X145900Y-129100D02*
D03*
X145800Y-124700D02*
D03*
X145700Y-120100D02*
D03*
X64100Y-96700D02*
D03*
X68700Y-96600D02*
D03*
X64000Y-92300D02*
D03*
X68600Y-92200D02*
D03*
Y-86900D02*
D03*
X68500Y-82600D02*
D03*
X38400Y-193800D02*
D03*
Y-189500D02*
D03*
X32900Y-193800D02*
D03*
Y-189500D02*
D03*
X28000Y-193700D02*
D03*
Y-189400D02*
D03*
X23000Y-193700D02*
D03*
Y-189400D02*
D03*
X18000Y-189300D02*
D03*
Y-193600D02*
D03*
M02*
