M48
;Layer_Color=9474304
;FILE_FORMAT=2:5
INCH,TZ
;TYPE=PLATED
T1F00S00C0.01181
T2F00S00C0.01575
T3F00S00C0.01968
T4F00S00C0.02800
T5F00S00C0.02953
T6F00S00C0.03000
T7F00S00C0.03150
T8F00S00C0.03543
T9F00S00C0.03600
T10F00S00C0.03937
T11F00S00C0.04000
T12F00S00C0.04200
T13F00S00C0.04400
T14F00S00C0.05118
T15F00S00C0.11811
%
T01
X184400Y-326900
X219800Y-343500
X247200Y-338900
X249800Y-333900
Y-328600
X282300Y-347800
X296000Y-349700
X309800Y-338600
X320600Y-343700
X335300Y-358800
X358700Y-365800
X360700Y-335300
X332200Y-322000
X301500Y-314700
X282400Y-323600
X279200Y-291800
X291300Y-262900
X256900Y-233400
X257100Y-217400
X274200Y-213200
X266550Y-189050
X245200Y-189100
X238300Y-178000
X235600Y-229700
X232900Y-246200
X214500Y-272800
X206276Y-283129
X214800Y-293600
X225700Y-301400
X247000Y-323500
X193300Y-315800
X180600Y-319600
X200800Y-305600
X188300Y-291900
X176621Y-283621
X150800Y-292500
X130600Y-266900
X125300Y-269300
X126000Y-244100
X137300Y-242600
X146500Y-242800
X150200Y-240100
X146900Y-228000
X141100Y-228100
X137300Y-232500
X109400Y-243800
X104300Y-277400
X98700Y-271900
X50400Y-276800
X47772Y-256720
Y-253720
X62500Y-248600
X54100Y-220700
X50100Y-220600
X50000Y-216400
X53800Y-216200
X51000Y-212800
X47000
X96300Y-194300
X96400Y-188500
Y-184000
X111300Y-194000
X119200Y-200100
X124900Y-200300
X156500Y-181700
X190200Y-181100
X185700Y-213400
X179900Y-207900
X191800Y-221100
X196600Y-232300
X185400Y-235900
X83000Y-169300
X43300Y-212900
X45800Y-216400
X44772Y-253720
Y-256720
X42200Y-277100
X46000Y-279300
X38500Y-279400
X38300Y-274900
X40000Y-157800
X600Y-133300
X13800Y-39800
X67000Y-32700
X72100Y-24100
X90000Y-26500
X95000Y-25100
X107600Y-64100
X65200Y-66900
X49500Y-71300
X48900Y-82200
X51876Y-84800
X51900Y-89700
X49400Y-87600
X49100Y-91800
X51376Y-94300
X48700Y-96700
X63400Y-111600
X61800Y-114600
X65200Y-114700
X69200Y-129100
X77700Y-131100
X85100Y-130300
X93500Y-140800
X93396Y-146675
X103900Y-153900
X100700Y-118800
X89234Y-102300
X80966Y-102300
X51100Y-124000
X48100Y-151000
X180900Y-157500
X190400Y-151200
X200200Y-150000
X194600Y-166100
X186721Y-73153
Y-67247
X215500Y-128700
X224900Y-125000
X230996Y-137125
X230700Y-142400
X224300Y-154400
X227700Y-162500
X206100Y-157500
X212000Y-140900
X245200Y-133800
X290200Y-104900
X298900Y-112294
X309400Y-123000
X321900Y-109300
X326800Y-94300
X344700Y-106800
X345900Y-115200
X326300Y-140000
X318700Y-143600
X356500Y-152800
X351900Y-43800
X341300Y-42400
X342000Y-38600
X338500Y-40200
X337700Y-43900
X334400Y-42100
X331800Y-39500
X329300Y-36900
X333500Y-35600
X335800Y-37700
X339200Y-35600
X345800Y-31000
X322900Y-43000
X318800Y-43400
X321200Y-46600
X320597Y-49891
X320000Y-54900
X317000Y-52500
X316900Y-47300
X317300Y-57600
X308000Y-78000
X370775Y-73925
X367900Y-43800
X362700Y-101900
X120100Y-5200
X89700Y-5000
X80000Y-5300
X56700Y-5100
T02
X260200Y-200500
X265500Y-197200
Y-204000
X270300Y-200600
X275400Y-197200
Y-204000
X280200Y-200600
X323300Y-263200
X25300Y-271300
X21200
X16900Y-271500
X17100Y-283300
X21400Y-283100
X25500
X25700Y-287900
X21600
X17300Y-288100
X18000Y-193600
Y-189300
X23000Y-189400
Y-193700
X28000
Y-189400
X32900Y-189500
Y-193800
X38400
Y-189500
X64100Y-96700
X64000Y-92300
X68600Y-92200
X68700Y-96600
X68600Y-86900
X68500Y-82600
X63900Y-82800
X63600Y-86800
X145700Y-120100
X145800Y-124700
X145900Y-129100
X151300Y-129200
X151200Y-124800
X151100Y-120200
X156100
X156200Y-124800
X156300Y-129200
X161700Y-129100
X161600Y-124700
X161500Y-120100
X194700Y-132500
X194600Y-137600
X197937Y-135029
X201000Y-132500
Y-137700
X252600Y-141200
X259400
X256000Y-146000
Y-136100
X259400Y-131300
X252600
X256100Y-126000
X241600Y-91500
X245000Y-86700
X238200
X241600Y-81200
X238200Y-76400
X245000
X241600Y-71300
X238200Y-66500
X245000
X241700Y-61200
T03
X176700Y-326600
X323200Y-272200
X325900Y-247800
X325600Y-241500
X325300Y-235800
X332167
X332267Y-241500
X332500Y-247800
X339100
X338933Y-241500
X339033Y-235800
X345900
X345600Y-241500
X345700Y-247800
X312400Y-254200
X326100Y-203900
X326400Y-197700
X332600
X332500Y-203300
X338600Y-203400
Y-197500
X345500Y-197800
X345700Y-203900
X342700Y-191900
X336700Y-192000
X330500
X347300Y-189100
T04
X262900Y-287600
X248758Y-273458
T05
X4100Y-44900
Y-39900
Y-34900
X26100Y-49800
X36100
X46100
X143600Y-49600
X153600
X163600
T06
X114357Y-308943
Y-289258
T07
X80210Y-76301
X93989
T08
X261700Y-93600
X261700Y-83600
Y-73600
T09
X13500Y-362000
X23500
X33500
X46300Y-362000
X56300
X66300
X43600Y-21400
X33600
X23600
X23600Y-9900
X33600
X43600
T10
X326267Y-81124
X336266
X346267
X356266
X351267Y-66124
X341266
X331266
T11
X84027Y-369300
X94027
X104027
X114027
X124027
X134027
X134000Y-358600
X124000
X114000
X104000
X94000
X84000
X84100Y-347900
X94100
X104100
X114100
X124100
X134100
T12
X148500Y-338600
X158500
X168500
X178500
X188500
X206636Y-362300
X216479
X226321
X236164
X257100Y-362200
X267100
X277100
X287100
X297100
T13
X14548Y-143617
X33052
Y-98342
Y-70783
X159800Y-72041
Y-99600
Y-144876
X141296
X279348Y-142917
X297852
Y-97642
Y-70083
T14
X365000Y-241843
Y-222158
X364500Y-194343
Y-174657
X268085Y-5100
X248400
X210643Y-5300
X190957
X153542Y-5500
X133858
T15
X370079Y-295276
X-0
X370079Y0
X-0
M30
