G04*
G04 #@! TF.GenerationSoftware,Altium Limited,Altium Designer,20.0.2 (26)*
G04*
G04 Layer_Color=8388736*
%FSLAX25Y25*%
%MOIN*%
G70*
G01*
G75*
%ADD23R,0.04528X0.03937*%
%ADD24R,0.03937X0.04528*%
%ADD25O,0.02874X0.01575*%
%ADD26O,0.01575X0.02874*%
%ADD27R,0.07394X0.07394*%
G04:AMPARAMS|DCode=28|XSize=15.75mil|YSize=86.61mil|CornerRadius=0mil|HoleSize=0mil|Usage=FLASHONLY|Rotation=225.000|XOffset=0mil|YOffset=0mil|HoleType=Round|Shape=Round|*
%AMOVALD28*
21,1,0.07087,0.01575,0.00000,0.00000,315.0*
1,1,0.01575,-0.02506,0.02506*
1,1,0.01575,0.02506,-0.02506*
%
%ADD28OVALD28*%

G04:AMPARAMS|DCode=29|XSize=15.75mil|YSize=86.61mil|CornerRadius=0mil|HoleSize=0mil|Usage=FLASHONLY|Rotation=315.000|XOffset=0mil|YOffset=0mil|HoleType=Round|Shape=Round|*
%AMOVALD29*
21,1,0.07087,0.01575,0.00000,0.00000,45.0*
1,1,0.01575,-0.02506,-0.02506*
1,1,0.01575,0.02506,0.02506*
%
%ADD29OVALD29*%

%ADD30R,0.03937X0.03543*%
%ADD31O,0.03150X0.10236*%
%ADD32R,0.13386X0.10236*%
G04:AMPARAMS|DCode=33|XSize=53.15mil|YSize=39.37mil|CornerRadius=10.83mil|HoleSize=0mil|Usage=FLASHONLY|Rotation=90.000|XOffset=0mil|YOffset=0mil|HoleType=Round|Shape=RoundedRectangle|*
%AMROUNDEDRECTD33*
21,1,0.05315,0.01772,0,0,90.0*
21,1,0.03150,0.03937,0,0,90.0*
1,1,0.02165,0.00886,0.01575*
1,1,0.02165,0.00886,-0.01575*
1,1,0.02165,-0.00886,-0.01575*
1,1,0.02165,-0.00886,0.01575*
%
%ADD33ROUNDEDRECTD33*%
%ADD34R,0.05394X0.02894*%
%ADD35R,0.02756X0.09055*%
%ADD36O,0.02756X0.09055*%
%ADD37O,0.08268X0.01575*%
%ADD38O,0.01575X0.08268*%
%ADD39R,0.09055X0.02756*%
G04:AMPARAMS|DCode=40|XSize=169.29mil|YSize=169.29mil|CornerRadius=18.5mil|HoleSize=0mil|Usage=FLASHONLY|Rotation=90.000|XOffset=0mil|YOffset=0mil|HoleType=Round|Shape=RoundedRectangle|*
%AMROUNDEDRECTD40*
21,1,0.16929,0.13228,0,0,90.0*
21,1,0.13228,0.16929,0,0,90.0*
1,1,0.03701,0.06614,0.06614*
1,1,0.03701,0.06614,-0.06614*
1,1,0.03701,-0.06614,-0.06614*
1,1,0.03701,-0.06614,0.06614*
%
%ADD40ROUNDEDRECTD40*%
%ADD41O,0.02756X0.07874*%
%ADD42R,0.12205X0.10197*%
%ADD43R,0.08071X0.13780*%
%ADD44R,0.13780X0.08071*%
%ADD45R,0.09843X0.13386*%
%ADD46R,0.09843X0.04331*%
%ADD47R,0.06299X0.06299*%
%ADD48R,0.04882X0.02913*%
%ADD49R,0.03543X0.03937*%
%ADD50O,0.10236X0.03150*%
%ADD51R,0.05194X0.03194*%
%ADD52R,0.04331X0.03937*%
%ADD53R,0.03937X0.04331*%
%ADD54C,0.04394*%
%ADD55R,0.06299X0.07874*%
%ADD56R,0.04394X0.12094*%
%ADD57R,0.05512X0.07480*%
%ADD58R,0.06194X0.04394*%
%ADD59R,0.07480X0.05512*%
%ADD60R,0.04694X0.04294*%
%ADD61C,0.06594*%
%ADD62C,0.02756*%
%ADD63R,0.06693X0.06693*%
%ADD64C,0.06693*%
%ADD65R,0.06394X0.08394*%
%ADD66O,0.06394X0.08394*%
%ADD67R,0.06394X0.06394*%
%ADD68C,0.06394*%
%ADD69C,0.08894*%
%ADD70C,0.07480*%
G04:AMPARAMS|DCode=71|XSize=74.8mil|YSize=74.8mil|CornerRadius=19.68mil|HoleSize=0mil|Usage=FLASHONLY|Rotation=90.000|XOffset=0mil|YOffset=0mil|HoleType=Round|Shape=RoundedRectangle|*
%AMROUNDEDRECTD71*
21,1,0.07480,0.03543,0,0,90.0*
21,1,0.03543,0.07480,0,0,90.0*
1,1,0.03937,0.01772,0.01772*
1,1,0.03937,0.01772,-0.01772*
1,1,0.03937,-0.01772,-0.01772*
1,1,0.03937,-0.01772,0.01772*
%
%ADD71ROUNDEDRECTD71*%
%ADD72R,0.08268X0.04331*%
%ADD73O,0.08268X0.04331*%
%ADD74C,0.10236*%
%ADD75R,0.10236X0.10236*%
%ADD76R,0.10236X0.10236*%
%ADD77C,0.04331*%
%ADD78C,0.03543*%
D23*
X64222Y-156197D02*
D03*
Y-161512D02*
D03*
X55722Y-156197D02*
D03*
Y-161512D02*
D03*
X46100Y-123958D02*
D03*
Y-118642D02*
D03*
X311200Y-68243D02*
D03*
Y-73558D02*
D03*
X136000Y-263643D02*
D03*
Y-268957D02*
D03*
X125100Y-263643D02*
D03*
Y-268957D02*
D03*
X69969Y-237043D02*
D03*
Y-242357D02*
D03*
X68569Y-264142D02*
D03*
Y-269458D02*
D03*
X62369Y-264243D02*
D03*
Y-269557D02*
D03*
X350990Y-109942D02*
D03*
Y-115257D02*
D03*
X61100Y-59957D02*
D03*
Y-54642D02*
D03*
X171000Y-165542D02*
D03*
Y-170858D02*
D03*
X311200Y-56142D02*
D03*
Y-61458D02*
D03*
X61469Y-242515D02*
D03*
Y-237200D02*
D03*
D24*
X217443Y-173800D02*
D03*
X222758D02*
D03*
X336357Y-118130D02*
D03*
X331043D02*
D03*
X354557Y-303500D02*
D03*
X349242D02*
D03*
X354457Y-312400D02*
D03*
X349143D02*
D03*
X354300Y-278218D02*
D03*
X348985D02*
D03*
X354300Y-286809D02*
D03*
X348985D02*
D03*
X354300Y-294500D02*
D03*
X348985D02*
D03*
X217343Y-181100D02*
D03*
X222658D02*
D03*
X336357Y-123830D02*
D03*
X331043D02*
D03*
X195942Y-157500D02*
D03*
X201257D02*
D03*
X310043Y-117400D02*
D03*
X315357D02*
D03*
X145257Y-309100D02*
D03*
X139943D02*
D03*
X262400Y-350100D02*
D03*
X267715D02*
D03*
X305757Y-342500D02*
D03*
X300443D02*
D03*
X305857Y-349700D02*
D03*
X300542D02*
D03*
X84242Y-146675D02*
D03*
X89557D02*
D03*
X221843Y-137125D02*
D03*
X227158D02*
D03*
X54757Y-74300D02*
D03*
X49442D02*
D03*
X60457Y-66800D02*
D03*
X55142D02*
D03*
X331542Y-148500D02*
D03*
X336858D02*
D03*
X49069Y-238900D02*
D03*
X43754D02*
D03*
X49326Y-232800D02*
D03*
X44011D02*
D03*
D25*
X40898Y-258172D02*
D03*
Y-256204D02*
D03*
Y-254236D02*
D03*
Y-252267D02*
D03*
X51646D02*
D03*
Y-254236D02*
D03*
Y-256204D02*
D03*
Y-258172D02*
D03*
D26*
X43319Y-249846D02*
D03*
X45287D02*
D03*
X47256D02*
D03*
X49224D02*
D03*
Y-260594D02*
D03*
X47256D02*
D03*
X45287D02*
D03*
X43319D02*
D03*
D27*
X46272Y-255220D02*
D03*
D28*
X220270Y-296258D02*
D03*
X218878Y-297650D02*
D03*
X217486Y-299042D02*
D03*
X216094Y-300434D02*
D03*
X214702Y-301826D02*
D03*
X213310Y-303218D02*
D03*
X211918Y-304610D02*
D03*
X210526Y-306002D02*
D03*
X209134Y-307394D02*
D03*
X207742Y-308786D02*
D03*
X206350Y-310178D02*
D03*
X204958Y-311570D02*
D03*
X182130Y-288742D02*
D03*
X183522Y-287350D02*
D03*
X184914Y-285958D02*
D03*
X186306Y-284566D02*
D03*
X187698Y-283174D02*
D03*
X189090Y-281782D02*
D03*
X190482Y-280390D02*
D03*
X191874Y-278998D02*
D03*
X193266Y-277606D02*
D03*
X194658Y-276214D02*
D03*
X196050Y-274822D02*
D03*
X197442Y-273430D02*
D03*
D29*
Y-311570D02*
D03*
X196050Y-310178D02*
D03*
X194658Y-308786D02*
D03*
X193266Y-307394D02*
D03*
X191874Y-306002D02*
D03*
X190482Y-304610D02*
D03*
X189090Y-303218D02*
D03*
X187698Y-301826D02*
D03*
X186306Y-300434D02*
D03*
X184914Y-299042D02*
D03*
X183522Y-297650D02*
D03*
X182130Y-296258D02*
D03*
X204958Y-273430D02*
D03*
X206350Y-274822D02*
D03*
X207742Y-276214D02*
D03*
X209134Y-277606D02*
D03*
X210526Y-278998D02*
D03*
X211918Y-280390D02*
D03*
X213310Y-281782D02*
D03*
X214702Y-283174D02*
D03*
X216094Y-284566D02*
D03*
X217486Y-285958D02*
D03*
X218878Y-287350D02*
D03*
X220270Y-288742D02*
D03*
D30*
X146237Y-299940D02*
D03*
Y-292460D02*
D03*
X138363Y-296200D02*
D03*
X330863Y-132460D02*
D03*
Y-139940D02*
D03*
X338737Y-136200D02*
D03*
D31*
X71800Y-5054D02*
D03*
X66800D02*
D03*
X61800D02*
D03*
X56800D02*
D03*
X71800Y-24346D02*
D03*
X66800D02*
D03*
X61800D02*
D03*
X56800D02*
D03*
X94900Y-5254D02*
D03*
X89900D02*
D03*
X84900D02*
D03*
X79900D02*
D03*
X94900Y-24546D02*
D03*
X89900D02*
D03*
X84900D02*
D03*
X79900D02*
D03*
D32*
X20772Y-229302D02*
D03*
Y-202137D02*
D03*
D33*
X351500Y-123697D02*
D03*
X356500D02*
D03*
Y-148303D02*
D03*
X351500D02*
D03*
D34*
X335400Y-213600D02*
D03*
Y-217200D02*
D03*
D35*
X164800Y-235849D02*
D03*
D36*
X169800D02*
D03*
X174800D02*
D03*
X179800D02*
D03*
X164800Y-216951D02*
D03*
X169800D02*
D03*
X174800D02*
D03*
X179800D02*
D03*
D37*
X109432Y-232063D02*
D03*
Y-234032D02*
D03*
Y-236000D02*
D03*
Y-237968D02*
D03*
Y-239937D02*
D03*
X125968Y-232063D02*
D03*
Y-234032D02*
D03*
Y-236000D02*
D03*
Y-237968D02*
D03*
Y-239937D02*
D03*
D38*
X246037Y-229732D02*
D03*
X244069D02*
D03*
X242100D02*
D03*
X240131D02*
D03*
X238163D02*
D03*
X246037Y-246268D02*
D03*
X244069D02*
D03*
X242100D02*
D03*
X240131D02*
D03*
X238163D02*
D03*
D39*
X256451Y-323600D02*
D03*
Y-328600D02*
D03*
Y-333600D02*
D03*
Y-338600D02*
D03*
X275349Y-323600D02*
D03*
Y-328600D02*
D03*
Y-333600D02*
D03*
Y-338600D02*
D03*
D40*
X200700Y-67799D02*
D03*
Y-105201D02*
D03*
D41*
X190437Y-144852D02*
D03*
X195437D02*
D03*
X200437D02*
D03*
X205437D02*
D03*
X190437Y-125206D02*
D03*
X195437D02*
D03*
X200437D02*
D03*
X205437D02*
D03*
D42*
X197937Y-135029D02*
D03*
D43*
X72887Y-107800D02*
D03*
X96313D02*
D03*
D44*
X20969Y-264913D02*
D03*
Y-241488D02*
D03*
D45*
X288383Y-263100D02*
D03*
D46*
X311217Y-254045D02*
D03*
Y-263100D02*
D03*
Y-272155D02*
D03*
D47*
X358600Y-359554D02*
D03*
Y-328846D02*
D03*
X329200Y-359554D02*
D03*
Y-328846D02*
D03*
D48*
X51285Y-111540D02*
D03*
Y-104060D02*
D03*
X61915D02*
D03*
Y-107800D02*
D03*
Y-111540D02*
D03*
X51285Y-107800D02*
D03*
D49*
X47440Y-161163D02*
D03*
X39960D02*
D03*
X43700Y-169037D02*
D03*
X230660Y-181637D02*
D03*
X238140D02*
D03*
X234400Y-173763D02*
D03*
X72560Y-169137D02*
D03*
X80040D02*
D03*
X76300Y-161263D02*
D03*
X216460Y-162437D02*
D03*
X223940D02*
D03*
X220200Y-154563D02*
D03*
X316940Y-126363D02*
D03*
X309460D02*
D03*
X313200Y-134237D02*
D03*
D50*
X49854Y-132900D02*
D03*
Y-137900D02*
D03*
Y-142900D02*
D03*
Y-147900D02*
D03*
X69146Y-132900D02*
D03*
Y-137900D02*
D03*
Y-142900D02*
D03*
Y-147900D02*
D03*
X183100Y-166100D02*
D03*
Y-171100D02*
D03*
Y-176100D02*
D03*
Y-181100D02*
D03*
X202391Y-166100D02*
D03*
Y-171100D02*
D03*
Y-176100D02*
D03*
Y-181100D02*
D03*
X314554Y-94300D02*
D03*
Y-99300D02*
D03*
Y-104300D02*
D03*
Y-109300D02*
D03*
X333846Y-94300D02*
D03*
Y-99300D02*
D03*
Y-104300D02*
D03*
Y-109300D02*
D03*
D51*
X79900Y-134040D02*
D03*
Y-126500D02*
D03*
X90219D02*
D03*
Y-130300D02*
D03*
Y-134040D02*
D03*
X219700Y-128740D02*
D03*
Y-121200D02*
D03*
X230018D02*
D03*
Y-125000D02*
D03*
Y-128740D02*
D03*
X347200Y-103240D02*
D03*
Y-95700D02*
D03*
X357519D02*
D03*
Y-99500D02*
D03*
Y-103240D02*
D03*
D52*
X44243Y-207757D02*
D03*
Y-202442D02*
D03*
X37700Y-207857D02*
D03*
Y-202542D02*
D03*
X50569Y-272557D02*
D03*
Y-267243D02*
D03*
X62469Y-252242D02*
D03*
Y-257558D02*
D03*
X68572Y-252262D02*
D03*
Y-257577D02*
D03*
X357300Y-115258D02*
D03*
Y-109942D02*
D03*
X42669Y-267342D02*
D03*
Y-272657D02*
D03*
D53*
X89557Y-140775D02*
D03*
X84242D02*
D03*
X227243Y-142525D02*
D03*
X221928D02*
D03*
X184757Y-114800D02*
D03*
X179443D02*
D03*
X324830Y-47659D02*
D03*
X330145D02*
D03*
X52443Y-117800D02*
D03*
X57758D02*
D03*
D54*
X113600Y-209400D02*
D03*
X95700Y-210300D02*
D03*
X192500Y-195200D02*
D03*
X228700Y-202000D02*
D03*
X309300Y-162700D02*
D03*
X265200Y-234400D02*
D03*
D55*
X32874Y-277200D02*
D03*
X21063D02*
D03*
X50195Y-84800D02*
D03*
X62006D02*
D03*
X50195Y-94300D02*
D03*
X62006D02*
D03*
X324394Y-55600D02*
D03*
X336206D02*
D03*
D56*
X61772Y-202245D02*
D03*
Y-221194D02*
D03*
D57*
X82195Y-53800D02*
D03*
X94006D02*
D03*
D58*
X180700Y-136700D02*
D03*
Y-128700D02*
D03*
X173468Y-136700D02*
D03*
Y-128700D02*
D03*
D59*
X351300Y-31095D02*
D03*
Y-42906D02*
D03*
X183400Y-53806D02*
D03*
Y-41995D02*
D03*
X191675Y-53806D02*
D03*
Y-41995D02*
D03*
X199900Y-53806D02*
D03*
Y-41995D02*
D03*
X208200Y-42094D02*
D03*
Y-53905D02*
D03*
X216600D02*
D03*
Y-42094D02*
D03*
D60*
X338500Y-277200D02*
D03*
X331800D02*
D03*
X338500Y-286100D02*
D03*
X331800D02*
D03*
X338500Y-294100D02*
D03*
X331800D02*
D03*
X338500Y-302700D02*
D03*
X331800D02*
D03*
X338500Y-311800D02*
D03*
X331800D02*
D03*
D61*
X248758Y-273458D02*
D03*
X262900Y-287600D02*
D03*
D62*
X47772Y-256720D02*
D03*
Y-253720D02*
D03*
X44772D02*
D03*
Y-256720D02*
D03*
X282300Y-347800D02*
D03*
X296000Y-349700D02*
D03*
X256900Y-233400D02*
D03*
X235600Y-229700D02*
D03*
X257100Y-217400D02*
D03*
X279200Y-291800D02*
D03*
X301500Y-314700D02*
D03*
X188300Y-291900D02*
D03*
X200800Y-305600D02*
D03*
X206276Y-283129D02*
D03*
X245200Y-133800D02*
D03*
Y-189100D02*
D03*
X238300Y-178000D02*
D03*
X214800Y-293600D02*
D03*
X193300Y-315800D02*
D03*
X48100Y-151000D02*
D03*
X291300Y-262900D02*
D03*
X249800Y-328600D02*
D03*
Y-333900D02*
D03*
X282400Y-323600D02*
D03*
X176621Y-283621D02*
D03*
X225700Y-301400D02*
D03*
X309800Y-338600D02*
D03*
X130600Y-266900D02*
D03*
X358700Y-365800D02*
D03*
X214500Y-272800D02*
D03*
X332200Y-322000D02*
D03*
X335300Y-358800D02*
D03*
X360700Y-335300D02*
D03*
X125300Y-269300D02*
D03*
X184400Y-326900D02*
D03*
X247000Y-323500D02*
D03*
X247200Y-338900D02*
D03*
X180600Y-319600D02*
D03*
X219800Y-343500D02*
D03*
X320600Y-343700D02*
D03*
X150800Y-292500D02*
D03*
X96300Y-194300D02*
D03*
X146900Y-228000D02*
D03*
X137300Y-232500D02*
D03*
Y-242600D02*
D03*
X141100Y-228100D02*
D03*
X146500Y-242800D02*
D03*
X150200Y-240100D02*
D03*
X124900Y-200300D02*
D03*
X96400Y-184000D02*
D03*
X119200Y-200100D02*
D03*
X96400Y-188500D02*
D03*
X111300Y-194000D02*
D03*
X98700Y-271900D02*
D03*
X104300Y-277400D02*
D03*
X232900Y-246200D02*
D03*
X126000Y-244100D02*
D03*
X109400Y-243800D02*
D03*
X318700Y-143600D02*
D03*
X107600Y-64100D02*
D03*
X65200Y-66900D02*
D03*
X362700Y-101900D02*
D03*
X51100Y-124000D02*
D03*
X13800Y-39800D02*
D03*
X333500Y-35600D02*
D03*
X335800Y-37700D02*
D03*
X338500Y-40200D02*
D03*
X329300Y-36900D02*
D03*
X331800Y-39500D02*
D03*
X339200Y-35600D02*
D03*
X342000Y-38600D02*
D03*
X341300Y-42400D02*
D03*
X337700Y-43900D02*
D03*
X334400Y-42100D02*
D03*
X89700Y-5000D02*
D03*
X120100Y-5200D02*
D03*
X90000Y-26500D02*
D03*
X600Y-133300D02*
D03*
X95000Y-25100D02*
D03*
X80000Y-5300D02*
D03*
X72100Y-24100D02*
D03*
X56700Y-5100D02*
D03*
X67000Y-32700D02*
D03*
X230700Y-142400D02*
D03*
X230996Y-137125D02*
D03*
X227700Y-162500D02*
D03*
X326300Y-140000D02*
D03*
X356500Y-152800D02*
D03*
X321200Y-46600D02*
D03*
X322900Y-43000D02*
D03*
X318800Y-43400D02*
D03*
X316900Y-47300D02*
D03*
X320597Y-49891D02*
D03*
X317000Y-52500D02*
D03*
X320000Y-54900D02*
D03*
X317300Y-57600D02*
D03*
X54100Y-220700D02*
D03*
X50100Y-220600D02*
D03*
X53800Y-216200D02*
D03*
X50000Y-216400D02*
D03*
X45800D02*
D03*
X51000Y-212800D02*
D03*
X47000D02*
D03*
X43300Y-212900D02*
D03*
X50400Y-276800D02*
D03*
X46000Y-279300D02*
D03*
X42200Y-277100D02*
D03*
X38500Y-279400D02*
D03*
X38300Y-274900D02*
D03*
X290200Y-104900D02*
D03*
X156500Y-181700D02*
D03*
X103900Y-153900D02*
D03*
X345800Y-31000D02*
D03*
X344700Y-106800D02*
D03*
X345900Y-115200D02*
D03*
X308000Y-78000D02*
D03*
X370775Y-73925D02*
D03*
X309400Y-123000D02*
D03*
X298900Y-112294D02*
D03*
X351900Y-43800D02*
D03*
X367900D02*
D03*
X321900Y-109300D02*
D03*
X326800Y-94300D02*
D03*
X215500Y-128700D02*
D03*
X224900Y-125000D02*
D03*
X224300Y-154400D02*
D03*
X206100Y-157500D02*
D03*
X186721Y-67247D02*
D03*
Y-73153D02*
D03*
X190200Y-181100D02*
D03*
X194600Y-166100D02*
D03*
X190400Y-151200D02*
D03*
X212000Y-140900D02*
D03*
X200200Y-150000D02*
D03*
X180900Y-157500D02*
D03*
X62500Y-248600D02*
D03*
X49500Y-71300D02*
D03*
X51900Y-89700D02*
D03*
X49100Y-91800D02*
D03*
X48700Y-96700D02*
D03*
X51376Y-94300D02*
D03*
X49400Y-87600D02*
D03*
X51876Y-84800D02*
D03*
X48900Y-82200D02*
D03*
X77700Y-131100D02*
D03*
X85100Y-130300D02*
D03*
X93500Y-140800D02*
D03*
X93396Y-146675D02*
D03*
X83000Y-169300D02*
D03*
X40000Y-157800D02*
D03*
X69200Y-129100D02*
D03*
X63400Y-111600D02*
D03*
X65200Y-114700D02*
D03*
X61800Y-114600D02*
D03*
X100700Y-118800D02*
D03*
X80966Y-102300D02*
D03*
X89234Y-102300D02*
D03*
D63*
X326267Y-81124D02*
D03*
D64*
X331266Y-66124D02*
D03*
X336266Y-81124D02*
D03*
X341266Y-66124D02*
D03*
X346267Y-81124D02*
D03*
X351267Y-66124D02*
D03*
X356266Y-81124D02*
D03*
D65*
X43600Y-21400D02*
D03*
X43600Y-9900D02*
D03*
X257100Y-362200D02*
D03*
X188500Y-338600D02*
D03*
X134100Y-347900D02*
D03*
X134000Y-358600D02*
D03*
X134027Y-369300D02*
D03*
X66300Y-362000D02*
D03*
X33500Y-362000D02*
D03*
D66*
X33600Y-21400D02*
D03*
X23600D02*
D03*
X33600Y-9900D02*
D03*
X23600D02*
D03*
X297100Y-362200D02*
D03*
X287100D02*
D03*
X277100D02*
D03*
X267100D02*
D03*
X148500Y-338600D02*
D03*
X158500D02*
D03*
X168500D02*
D03*
X178500D02*
D03*
X124100Y-347900D02*
D03*
X114100D02*
D03*
X104100D02*
D03*
X94100D02*
D03*
X84100D02*
D03*
X124000Y-358600D02*
D03*
X114000D02*
D03*
X104000D02*
D03*
X94000D02*
D03*
X84000D02*
D03*
X124027Y-369300D02*
D03*
X114027D02*
D03*
X104027D02*
D03*
X94027D02*
D03*
X84027D02*
D03*
X46300Y-362000D02*
D03*
X56300D02*
D03*
X13500Y-362000D02*
D03*
X23500D02*
D03*
D67*
X236164Y-362300D02*
D03*
X80210Y-76301D02*
D03*
D68*
X226321Y-362300D02*
D03*
X216479D02*
D03*
X206636D02*
D03*
X114357Y-289258D02*
D03*
Y-308943D02*
D03*
X26100Y-49800D02*
D03*
X36100D02*
D03*
X46100D02*
D03*
X143600Y-49600D02*
D03*
X153600D02*
D03*
X163600D02*
D03*
X93989Y-76301D02*
D03*
X370079Y-295276D02*
D03*
X-0D02*
D03*
X370079Y0D02*
D03*
X-0D02*
D03*
D69*
X279348Y-142917D02*
D03*
X297852Y-70083D02*
D03*
Y-97642D02*
D03*
Y-142917D02*
D03*
X159800Y-144876D02*
D03*
Y-99600D02*
D03*
Y-72041D02*
D03*
X141296Y-144876D02*
D03*
X14548Y-143617D02*
D03*
X33052Y-70783D02*
D03*
Y-98342D02*
D03*
Y-143617D02*
D03*
D70*
X261700Y-73600D02*
D03*
Y-83600D02*
D03*
D71*
X261700Y-93600D02*
D03*
D72*
X4100Y-44900D02*
D03*
D73*
Y-39900D02*
D03*
Y-34900D02*
D03*
D74*
X365000Y-241843D02*
D03*
X364500Y-194343D02*
D03*
X268085Y-5100D02*
D03*
X210643Y-5300D02*
D03*
X153542Y-5500D02*
D03*
D75*
X365000Y-222158D02*
D03*
X364500Y-174657D02*
D03*
D76*
X248400Y-5100D02*
D03*
X190957Y-5300D02*
D03*
X133858Y-5500D02*
D03*
D77*
X176700Y-326600D02*
D03*
X347300Y-189100D02*
D03*
X345700Y-247800D02*
D03*
X345600Y-241500D02*
D03*
X345900Y-235800D02*
D03*
X325300D02*
D03*
X325600Y-241500D02*
D03*
X325900Y-247800D02*
D03*
X336700Y-192000D02*
D03*
X345700Y-203900D02*
D03*
X345500Y-197800D02*
D03*
X326400Y-197700D02*
D03*
X326100Y-203900D02*
D03*
X342700Y-191900D02*
D03*
X330500Y-192000D02*
D03*
X338600Y-197500D02*
D03*
X332600Y-197700D02*
D03*
X338600Y-203400D02*
D03*
X332500Y-203300D02*
D03*
X339100Y-247800D02*
D03*
X332500D02*
D03*
X338933Y-241500D02*
D03*
X332267D02*
D03*
X339033Y-235800D02*
D03*
X332167D02*
D03*
X323200Y-272200D02*
D03*
X312400Y-254200D02*
D03*
D78*
X197937Y-135029D02*
D03*
X201000Y-137700D02*
D03*
X194600Y-137600D02*
D03*
X201000Y-132500D02*
D03*
X194700D02*
D03*
X63900Y-82800D02*
D03*
X63600Y-86800D02*
D03*
X323300Y-263200D02*
D03*
X256000Y-146000D02*
D03*
X259400Y-141200D02*
D03*
X252600D02*
D03*
X259400Y-131300D02*
D03*
X252600D02*
D03*
X256100Y-126000D02*
D03*
X256000Y-136100D02*
D03*
X241600Y-71300D02*
D03*
X241700Y-61200D02*
D03*
X238200Y-66500D02*
D03*
X245000D02*
D03*
X238200Y-76400D02*
D03*
X245000D02*
D03*
X241600Y-81200D02*
D03*
Y-91500D02*
D03*
X245000Y-86700D02*
D03*
X238200D02*
D03*
X16900Y-271500D02*
D03*
X21200Y-271300D02*
D03*
X25300D02*
D03*
X17100Y-283300D02*
D03*
X21400Y-283100D02*
D03*
X25500D02*
D03*
X25700Y-287900D02*
D03*
X21600D02*
D03*
X17300Y-288100D02*
D03*
X161500Y-120100D02*
D03*
X161600Y-124700D02*
D03*
X161700Y-129100D02*
D03*
X156100Y-120200D02*
D03*
X156200Y-124800D02*
D03*
X156300Y-129200D02*
D03*
X151100Y-120200D02*
D03*
X151200Y-124800D02*
D03*
X151300Y-129200D02*
D03*
X145900Y-129100D02*
D03*
X145800Y-124700D02*
D03*
X145700Y-120100D02*
D03*
X64100Y-96700D02*
D03*
X68700Y-96600D02*
D03*
X64000Y-92300D02*
D03*
X68600Y-92200D02*
D03*
Y-86900D02*
D03*
X68500Y-82600D02*
D03*
X38400Y-193800D02*
D03*
Y-189500D02*
D03*
X32900Y-193800D02*
D03*
Y-189500D02*
D03*
X28000Y-193700D02*
D03*
Y-189400D02*
D03*
X23000Y-193700D02*
D03*
Y-189400D02*
D03*
X18000Y-189300D02*
D03*
Y-193600D02*
D03*
M02*
