G04*
G04 #@! TF.GenerationSoftware,Altium Limited,Altium Designer,20.0.2 (26)*
G04*
G04 Layer_Physical_Order=4*
G04 Layer_Color=16711680*
%FSLAX25Y25*%
%MOIN*%
G70*
G01*
G75*
%ADD10C,0.01000*%
%ADD18O,0.07079X0.02362*%
%ADD20R,0.03150X0.03543*%
%ADD22R,0.03150X0.03543*%
%ADD47C,0.01200*%
%ADD48C,0.00578*%
%ADD50C,0.02500*%
%ADD51C,0.03000*%
%ADD52C,0.02000*%
%ADD53C,0.09843*%
%ADD54C,0.06200*%
%ADD55R,0.06200X0.06200*%
%ADD56R,0.06200X0.06200*%
%ADD57C,0.09055*%
%ADD58C,0.11024*%
%ADD59R,0.07087X0.07087*%
%ADD60C,0.07087*%
%ADD61C,0.11811*%
%ADD62C,0.01772*%
%ADD63C,0.02362*%
%ADD64C,0.03150*%
%ADD65C,0.05000*%
%ADD67R,0.26378X0.26378*%
%ADD68R,0.11811X0.06299*%
%ADD69R,0.08500X0.02400*%
%ADD70R,0.02400X0.08500*%
%ADD71R,0.05000X0.02500*%
%ADD72R,0.09100X0.02400*%
G36*
X136919Y71228D02*
X145419D01*
Y58828D01*
X136919D01*
Y71228D01*
D02*
G37*
G36*
X180500Y68800D02*
Y57200D01*
X159017D01*
X158600Y57400D01*
Y68800D01*
X158800Y69000D01*
X180300D01*
X180500Y68800D01*
D02*
G37*
D10*
X90600Y267900D02*
X95000Y263500D01*
X81100Y267900D02*
X90600D01*
X71200Y258000D02*
X81100Y267900D01*
X60300Y258000D02*
X71200D01*
X89400Y206600D02*
X89500Y206500D01*
X81500Y206600D02*
X89400D01*
X60300Y195000D02*
X69900D01*
X81500Y206600D01*
X95000Y263500D02*
X99100D01*
X89500Y206500D02*
X89750D01*
X95750Y200500D01*
X99100D01*
X83700Y195000D02*
X89000D01*
X93500Y190500D01*
X89000Y190000D02*
X93500Y185500D01*
X83700Y190000D02*
X89000D01*
X93500Y165500D02*
X99100D01*
X89000Y170000D02*
X93500Y165500D01*
X83700Y170000D02*
X89000D01*
X93500Y170500D02*
X99100D01*
X89000Y175000D02*
X93500Y170500D01*
X83700Y175000D02*
X89000D01*
X93500Y175500D02*
X99100D01*
X89000Y180000D02*
X93500Y175500D01*
X83700Y180000D02*
X89000D01*
X93500Y180500D02*
X99100D01*
X89000Y185000D02*
X93500Y180500D01*
X83700Y185000D02*
X89000D01*
X93500Y185500D02*
X99100D01*
X93500Y190500D02*
X99100D01*
X93500Y195500D02*
X99100D01*
X89000Y200000D02*
X93500Y195500D01*
X83700Y200000D02*
X89000D01*
X93500Y228500D02*
X99100D01*
X89000Y233000D02*
X93500Y228500D01*
X83700Y233000D02*
X89000D01*
X93500Y233500D02*
X99100D01*
X89000Y238000D02*
X93500Y233500D01*
X83700Y238000D02*
X89000D01*
X83700Y243000D02*
X89000D01*
X93500Y238500D02*
X99100D01*
X89000Y243000D02*
X93500Y238500D01*
Y243500D02*
X99100D01*
X89000Y248000D02*
X93500Y243500D01*
X83700Y248000D02*
X89000D01*
X93500Y248500D02*
X99100D01*
X89000Y253000D02*
X93500Y248500D01*
X83700Y253000D02*
X89000D01*
X93500Y253500D02*
X99100D01*
X89000Y258000D02*
X93500Y253500D01*
X83700Y258000D02*
X89000D01*
X93500Y258500D02*
X99100D01*
X89000Y263000D02*
X93500Y258500D01*
X83700Y263000D02*
X89000D01*
D18*
X60300Y165000D02*
D03*
Y170000D02*
D03*
Y175000D02*
D03*
Y180000D02*
D03*
Y185000D02*
D03*
Y190000D02*
D03*
Y195000D02*
D03*
Y200000D02*
D03*
X83700Y165000D02*
D03*
Y170000D02*
D03*
Y175000D02*
D03*
Y180000D02*
D03*
Y185000D02*
D03*
Y190000D02*
D03*
Y195000D02*
D03*
Y200000D02*
D03*
X60300Y228000D02*
D03*
Y233000D02*
D03*
Y238000D02*
D03*
Y243000D02*
D03*
Y248000D02*
D03*
Y253000D02*
D03*
Y258000D02*
D03*
Y263000D02*
D03*
X83700Y228000D02*
D03*
Y233000D02*
D03*
Y238000D02*
D03*
Y243000D02*
D03*
Y248000D02*
D03*
Y253000D02*
D03*
Y258000D02*
D03*
Y263000D02*
D03*
D20*
X90444Y155700D02*
D03*
X76156Y100100D02*
D03*
X65511Y206500D02*
D03*
X65500Y269500D02*
D03*
D22*
X95956Y155700D02*
D03*
X70644Y100100D02*
D03*
X60000Y206500D02*
D03*
X59989Y269500D02*
D03*
D47*
X99100Y205500D02*
X99010Y206524D01*
X98744Y207518D01*
X98310Y208450D01*
X97720Y209293D01*
X96992Y210020D01*
X96150Y210610D01*
X95218Y211044D01*
X94225Y211310D01*
X93200Y211400D01*
X83700Y224900D02*
X83600Y225000D01*
X83700Y225100D01*
X82200Y211400D02*
X93200D01*
X83700Y225100D02*
Y228000D01*
X65561Y206450D02*
X72050D01*
X72200Y206600D01*
X38300Y169800D02*
Y352100D01*
Y169800D02*
X63200Y144900D01*
X48300Y362100D02*
X86071D01*
X38300Y352100D02*
X48300Y362100D01*
X86071D02*
X94568Y353603D01*
X104411Y346410D02*
Y353603D01*
X93700Y335700D02*
X104411Y346410D01*
X70700Y335700D02*
X93700D01*
X84725Y348025D02*
Y353603D01*
X75100Y338400D02*
X84725Y348025D01*
X69500Y338400D02*
X75100D01*
X74883Y347482D02*
Y353603D01*
X48000Y320600D02*
X74883Y347482D01*
X44800Y322100D02*
X65550Y342850D01*
X65040Y353603D02*
X65550Y353094D01*
Y342850D02*
Y353094D01*
X55190Y337989D02*
Y353597D01*
X41300Y324100D02*
X55190Y337989D01*
X87973Y163400D02*
X89500D01*
X83700Y165000D02*
X86373D01*
X87973Y163400D01*
X64400Y180000D02*
X75700Y168700D01*
Y164900D02*
Y168700D01*
X60300Y185000D02*
X63800D01*
X77400Y171400D01*
X60300Y180000D02*
X64400D01*
X71800Y163100D02*
Y165858D01*
X62658Y175000D02*
X71800Y165858D01*
X60300Y175000D02*
X62658D01*
X68300Y160900D02*
Y164673D01*
X62973Y170000D02*
X68300Y164673D01*
X60300Y170000D02*
X62973D01*
X72000Y144800D02*
X88400D01*
X60300Y156500D02*
X72000Y144800D01*
X60300Y156500D02*
Y165000D01*
X123900Y248500D02*
X134900D01*
X110300Y262100D02*
X123900Y248500D01*
X125000Y254500D02*
X133900D01*
X115300Y264200D02*
X125000Y254500D01*
X119200Y311200D02*
X145900Y337900D01*
X119200Y265100D02*
Y311200D01*
Y265100D02*
X125800Y258500D01*
X126100Y311100D02*
X147700Y332700D01*
X126100Y266500D02*
Y311100D01*
Y266500D02*
X129100Y263500D01*
X145000Y293300D02*
X145200Y293500D01*
X115300Y314400D02*
X144700Y343800D01*
X115300Y264200D02*
Y314400D01*
X110300Y315400D02*
X143700Y348800D01*
X110300Y262100D02*
Y315400D01*
X147700Y332700D02*
X348700D01*
X145900Y337900D02*
X320500D01*
X144700Y343800D02*
X284468D01*
X143700Y348800D02*
X269400D01*
X162500Y106000D02*
Y147300D01*
Y106000D02*
X169100Y99400D01*
Y85700D02*
Y99400D01*
Y85700D02*
X173600Y81200D01*
X144300Y165500D02*
X162500Y147300D01*
X221600Y184300D02*
X229600Y176300D01*
X197500Y184300D02*
X221600D01*
X195800Y186000D02*
X197500Y184300D01*
X133900Y254500D02*
X134900Y253500D01*
X129100Y263500D02*
X134900D01*
X121691Y52309D02*
X121800Y52200D01*
X121691Y52309D02*
Y53074D01*
X116686Y55028D02*
X119736D01*
X121691Y53074D01*
X116686Y75028D02*
X116722Y75064D01*
X124164D01*
X124200Y75100D01*
X83600Y164900D02*
X83700Y165000D01*
X65511Y206500D02*
X65561Y206450D01*
X55000Y228000D02*
X60300D01*
X52900Y225900D02*
X55000Y228000D01*
X52100Y193323D02*
Y214600D01*
Y193323D02*
X55423Y190000D01*
X60300D01*
Y248000D02*
X66700D01*
X71100Y243600D01*
X67000Y218200D02*
X71100Y222300D01*
Y243600D01*
X51300Y218200D02*
X67000D01*
X48900Y215800D02*
X51300Y218200D01*
X48900Y186500D02*
Y215800D01*
Y186500D02*
X50400Y185000D01*
X60300D01*
X68500Y223200D02*
Y240897D01*
X60300Y243000D02*
X66397D01*
X68500Y240897D01*
X65800Y220500D02*
X68500Y223200D01*
X48500Y220500D02*
X65800D01*
X46500Y218500D02*
X48500Y220500D01*
X46500Y181600D02*
Y218500D01*
Y181600D02*
X48100Y180000D01*
X60300D01*
X65800Y224700D02*
Y237297D01*
X60300Y238000D02*
X65097D01*
X65800Y237297D01*
X64100Y223000D02*
X65800Y224700D01*
X47200Y223000D02*
X64100D01*
X44100Y219900D02*
X47200Y223000D01*
X44100Y180400D02*
Y219900D01*
X41300Y179500D02*
Y238200D01*
X44100Y180400D02*
X49500Y175000D01*
X60300D01*
X41300Y179500D02*
X50900Y169900D01*
X60200D01*
X60300Y170000D01*
X53500Y318500D02*
X70700Y335700D01*
X53500Y254900D02*
Y318500D01*
Y254900D02*
X55400Y253000D01*
X60300D01*
X50600Y250200D02*
Y319500D01*
Y250200D02*
X52800Y248000D01*
X50600Y319500D02*
X69500Y338400D01*
X52800Y248000D02*
X60300D01*
X48000Y244800D02*
Y320600D01*
X49800Y243000D02*
X60300D01*
X48000Y244800D02*
X49800Y243000D01*
X44800Y240300D02*
Y322100D01*
Y240300D02*
X47100Y238000D01*
X60300D01*
X46500Y233000D02*
X60300D01*
X41300Y238200D02*
X46500Y233000D01*
X41300Y238200D02*
Y324100D01*
X269400Y348800D02*
X272403Y351803D01*
X272250Y360915D02*
X272403Y360762D01*
Y351803D02*
Y360762D01*
X284468Y343800D02*
X301583Y360915D01*
X320500Y337900D02*
X330917Y348317D01*
Y360915D01*
X360250Y344250D02*
Y360915D01*
X125800Y258500D02*
X134900D01*
X348700Y332700D02*
X360250Y344250D01*
X335012Y251900D02*
X360250Y277138D01*
X273400Y251900D02*
X335012D01*
X253700Y232200D02*
X273400Y251900D01*
X245300Y215900D02*
X253700Y224300D01*
Y232200D01*
X223900Y218600D02*
X226600Y215900D01*
X245300D01*
X175100Y215600D02*
X200100D01*
X203100Y218600D01*
X223900D01*
X162200Y228500D02*
X175100Y215600D01*
X134900Y228500D02*
X162200D01*
X330917Y275417D02*
Y277138D01*
X312200Y256700D02*
X330917Y275417D01*
X269900Y256700D02*
X312200D01*
X248000Y234800D02*
X269900Y256700D01*
X225200Y224700D02*
X235300Y234800D01*
X248000D01*
X213500Y224700D02*
X225200D01*
X212400Y225800D02*
X213500Y224700D01*
X171800Y225800D02*
X212400D01*
X164100Y233500D02*
X171800Y225800D01*
X134900Y233500D02*
X164100D01*
X284845Y260400D02*
X301583Y277138D01*
X265900Y260400D02*
X284845D01*
X246500Y241000D02*
X265900Y260400D01*
X203900Y241000D02*
X246500D01*
X198800Y235900D02*
X203900Y241000D01*
X170125Y235900D02*
X198800D01*
X134900Y238500D02*
X167525D01*
X170125Y235900D01*
X246965Y251853D02*
X272250Y277138D01*
X206753Y251853D02*
X246965D01*
X200800Y245900D02*
X206753Y251853D01*
X176800Y245900D02*
X200800D01*
X174400Y243500D02*
X176800Y245900D01*
X134900Y243500D02*
X174400D01*
X134900Y200500D02*
X154600D01*
X208700Y206400D02*
X208800Y206500D01*
X160500Y206400D02*
X208700D01*
X154600Y200500D02*
X160500Y206400D01*
X208800Y206500D02*
X253800D01*
X265922Y194378D01*
X271649D02*
X272250Y193777D01*
X265922Y194378D02*
X271649D01*
X240900Y190100D02*
X250000Y181000D01*
X211700Y190100D02*
X240900D01*
X250000Y181000D02*
X295600D01*
X301583Y186983D02*
Y193777D01*
X295600Y181000D02*
X301583Y186983D01*
X134900Y195500D02*
X135100Y195700D01*
X206100D01*
X211700Y190100D01*
X301207Y193400D02*
X301583Y193777D01*
X134900Y190500D02*
X135100Y190700D01*
X146600D01*
X151300Y186000D01*
X195800D01*
X229600Y176300D02*
X308000D01*
X324589Y192889D01*
X330029D02*
X330917Y193777D01*
X324589Y192889D02*
X330029D01*
X134900Y185500D02*
X135000Y185600D01*
X146100D01*
X156000Y175700D02*
X199400D01*
X146100Y185600D02*
X156000Y175700D01*
X199400D02*
X203800Y171300D01*
X308400D01*
X320900Y183800D01*
X350273D01*
X360250Y193777D01*
X134900Y165500D02*
X144300D01*
X192200Y81200D02*
X204200Y69200D01*
X173600Y81200D02*
X192200D01*
X204200Y69200D02*
X255000D01*
X261200Y75400D01*
X325235D01*
X360250Y110415D01*
X134900Y170500D02*
X145400D01*
X167000Y148900D01*
Y108500D02*
X174100Y101400D01*
X167000Y108500D02*
Y148900D01*
X174100Y89500D02*
Y101400D01*
Y89500D02*
X177700Y85900D01*
X200300D02*
X205800Y80400D01*
X177700Y85900D02*
X200300D01*
X205800Y80400D02*
X300902D01*
X330917Y110415D01*
X134900Y175500D02*
X146400D01*
X170800Y151100D01*
Y112400D02*
X177300Y105900D01*
X170800Y112400D02*
Y151100D01*
X194700Y105900D02*
X198700Y101900D01*
X177300Y105900D02*
X194700D01*
X198700Y91500D02*
Y101900D01*
Y91500D02*
X203300Y86900D01*
X278068D01*
X301583Y110415D01*
X176900Y135800D02*
X196700D01*
X174500Y138200D02*
X176900Y135800D01*
X174500Y138200D02*
Y152300D01*
X196700Y135800D02*
X200400Y132100D01*
X134900Y180500D02*
X135000Y180400D01*
X146400D01*
X174500Y152300D01*
X200400Y109700D02*
Y132100D01*
Y109700D02*
X207100Y103000D01*
X264835D01*
X272250Y110415D01*
D48*
X371429Y141390D02*
X370770Y140662D01*
X370185Y139874D01*
X369681Y139032D01*
X369261Y138145D01*
X368931Y137221D01*
X368692Y136269D01*
X368548Y135299D01*
X368500Y134318D01*
X363662Y82000D02*
X364810Y82151D01*
X365881Y82595D01*
X366800Y83300D01*
X367391Y83993D01*
X367867Y84769D01*
X368216Y85611D01*
X368428Y86496D01*
X368500Y87404D01*
X355542Y82000D02*
X354562Y81952D01*
X353591Y81808D01*
X352639Y81569D01*
X351715Y81239D01*
X350828Y80819D01*
X349986Y80315D01*
X349198Y79730D01*
X348471Y79071D01*
X347900Y78500D02*
X347239Y77726D01*
X346707Y76858D01*
X346318Y75918D01*
X346080Y74928D01*
X346000Y73913D01*
X344200Y54800D02*
X344826Y55533D01*
X345330Y56356D01*
X345699Y57247D01*
X345924Y58184D01*
X346000Y59146D01*
X339613Y52900D02*
X340628Y52980D01*
X341618Y53218D01*
X342558Y53607D01*
X343426Y54139D01*
X344200Y54800D01*
X323501Y51401D02*
X323500Y51400D01*
X327121Y52900D02*
X326122Y52802D01*
X325162Y52510D01*
X324277Y52037D01*
X323501Y51401D01*
X315558Y47600D02*
X316538Y47648D01*
X317509Y47792D01*
X318461Y48031D01*
X319385Y48361D01*
X320272Y48781D01*
X321114Y49285D01*
X321902Y49870D01*
X322629Y50529D01*
X301442Y47600D02*
X300462Y47552D01*
X299491Y47408D01*
X298539Y47169D01*
X297615Y46839D01*
X296728Y46419D01*
X295886Y45915D01*
X295098Y45330D01*
X294371Y44671D01*
X283143Y37585D02*
X284123Y37633D01*
X285094Y37777D01*
X286046Y38016D01*
X286970Y38346D01*
X287857Y38766D01*
X288699Y39270D01*
X289487Y39855D01*
X290214Y40514D01*
X372878Y132838D02*
X372376Y132086D01*
X372200Y131200D01*
X369271Y79471D02*
X369930Y80198D01*
X370515Y80986D01*
X371019Y81828D01*
X371439Y82715D01*
X371769Y83639D01*
X372008Y84591D01*
X372152Y85562D01*
X372200Y86542D01*
X363500Y76600D02*
X364595Y76686D01*
X365664Y76943D01*
X366679Y77363D01*
X367615Y77937D01*
X368451Y78651D01*
X355201Y75101D02*
X355200Y75100D01*
X358821Y76600D02*
X357822Y76502D01*
X356862Y76210D01*
X355977Y75737D01*
X355201Y75101D01*
X353858Y73758D02*
X353154Y72970D01*
X352543Y72109D01*
X352032Y71185D01*
X351628Y70210D01*
X351336Y69195D01*
X351159Y68154D01*
X351100Y67100D01*
X348171Y50171D02*
X348830Y50898D01*
X349415Y51686D01*
X349919Y52528D01*
X350339Y53415D01*
X350669Y54339D01*
X350908Y55291D01*
X351052Y56262D01*
X351100Y57242D01*
X340947Y46200D02*
X341972Y46267D01*
X342980Y46468D01*
X343952Y46798D01*
X344874Y47252D01*
X345728Y47823D01*
X346500Y48500D01*
X329035Y46200D02*
X328080Y46146D01*
X327136Y45986D01*
X326216Y45721D01*
X325332Y45355D01*
X324494Y44892D01*
X323714Y44338D01*
X323000Y43700D01*
X312743Y37585D02*
X313723Y37633D01*
X314694Y37777D01*
X315646Y38016D01*
X316570Y38346D01*
X317457Y38766D01*
X318299Y39270D01*
X319087Y39855D01*
X319814Y40514D01*
X375854Y125815D02*
X375600Y125200D01*
X372671Y61371D02*
X373330Y62098D01*
X373915Y62886D01*
X374419Y63728D01*
X374839Y64615D01*
X375169Y65539D01*
X375408Y66491D01*
X375552Y67462D01*
X375600Y68442D01*
X344743Y37585D02*
X345723Y37633D01*
X346694Y37777D01*
X347646Y38016D01*
X348570Y38346D01*
X349457Y38766D01*
X350299Y39270D01*
X351087Y39855D01*
X351814Y40514D01*
X378961Y56296D02*
X379620Y57023D01*
X380205Y57811D01*
X380709Y58653D01*
X381129Y59540D01*
X381459Y60464D01*
X381698Y61416D01*
X381842Y62387D01*
X381890Y63367D01*
X365697Y179800D02*
X366677Y179848D01*
X367648Y179992D01*
X368600Y180231D01*
X369524Y180561D01*
X370411Y180981D01*
X371253Y181485D01*
X372041Y182070D01*
X372768Y182729D01*
X332142Y179800D02*
X331162Y179752D01*
X330191Y179608D01*
X329239Y179369D01*
X328315Y179039D01*
X327428Y178619D01*
X326586Y178115D01*
X325798Y177530D01*
X325071Y176871D01*
X316600Y168400D02*
X315895Y167481D01*
X315451Y166410D01*
X315300Y165261D01*
X312371Y138871D02*
X313030Y139598D01*
X313615Y140386D01*
X314119Y141228D01*
X314539Y142115D01*
X314869Y143039D01*
X315108Y143991D01*
X315252Y144962D01*
X315300Y145942D01*
X300958Y131600D02*
X301938Y131648D01*
X302909Y131792D01*
X303861Y132031D01*
X304785Y132361D01*
X305672Y132781D01*
X306514Y133285D01*
X307302Y133870D01*
X308029Y134529D01*
X273667Y124367D02*
X273065Y123634D01*
X272618Y122798D01*
X272343Y121890D01*
X272250Y120947D01*
X371797Y175900D02*
X372777Y175948D01*
X373748Y176092D01*
X374700Y176331D01*
X375624Y176661D01*
X376511Y177081D01*
X377353Y177585D01*
X378141Y178170D01*
X378868Y178829D01*
X335042Y175900D02*
X334062Y175852D01*
X333091Y175708D01*
X332139Y175469D01*
X331215Y175139D01*
X330328Y174719D01*
X329486Y174215D01*
X328698Y173630D01*
X327971Y172971D01*
X323729Y168729D02*
X323070Y168002D01*
X322485Y167214D01*
X321981Y166372D01*
X321561Y165485D01*
X321231Y164561D01*
X320992Y163609D01*
X320848Y162638D01*
X320800Y161658D01*
X317871Y137234D02*
X318530Y137961D01*
X319115Y138750D01*
X319619Y139592D01*
X320039Y140479D01*
X320369Y141403D01*
X320608Y142355D01*
X320752Y143325D01*
X320800Y144306D01*
X359392Y171850D02*
X358412Y171802D01*
X357442Y171658D01*
X356490Y171420D01*
X355566Y171089D01*
X354679Y170670D01*
X353837Y170165D01*
X353049Y169580D01*
X352322Y168921D01*
X347249Y163849D02*
X346536Y163014D01*
X345963Y162078D01*
X345543Y161063D01*
X345286Y159995D01*
X345200Y158900D01*
X342271Y132301D02*
X342930Y133028D01*
X343515Y133816D01*
X344019Y134658D01*
X344439Y135545D01*
X344769Y136469D01*
X345008Y137421D01*
X345152Y138392D01*
X345200Y139372D01*
X362381Y161850D02*
X361428Y161803D01*
X360483Y161663D01*
X359557Y161432D01*
X358658Y161110D01*
X357795Y160702D01*
X356976Y160211D01*
X356208Y159642D01*
X355501Y159001D01*
X352829Y156329D02*
X352170Y155602D01*
X351585Y154814D01*
X351081Y153972D01*
X350661Y153085D01*
X350331Y152161D01*
X350092Y151209D01*
X349948Y150238D01*
X349900Y149258D01*
Y135439D02*
X349948Y134459D01*
X350092Y133488D01*
X350331Y132536D01*
X350661Y131612D01*
X351081Y130725D01*
X351585Y129883D01*
X352170Y129095D01*
X352829Y128368D01*
X371429Y141390D02*
X381890Y151850D01*
X368500Y87404D02*
Y134318D01*
X355542Y82000D02*
X363662D01*
X347900Y78500D02*
X348471Y79071D01*
X327121Y52900D02*
X339613D01*
X323500Y51400D02*
X323501Y51401D01*
X322629Y50529D02*
X323500Y51400D01*
X301442Y47600D02*
X315558D01*
X290214Y40514D02*
X294371Y44671D01*
X272250Y37585D02*
X283143D01*
X346000Y59146D02*
Y73913D01*
X372878Y132838D02*
X381890Y141850D01*
X372878Y132838D02*
X372878Y132838D01*
X372200Y86542D02*
Y131200D01*
X368451Y78651D02*
X369271Y79471D01*
X358821Y76600D02*
X363500D01*
X355200Y75100D02*
X355201Y75101D01*
X353858Y73758D02*
X355200Y75100D01*
X351100Y57242D02*
Y67100D01*
X346500Y48500D02*
X348171Y50171D01*
X329035Y46200D02*
X340947D01*
X319814Y40514D02*
X323000Y43700D01*
X301583Y37585D02*
X312743D01*
X375854Y125815D02*
X381890Y131850D01*
X375600Y68442D02*
Y125200D01*
X351814Y40514D02*
X372671Y61371D01*
X330917Y37585D02*
X344743D01*
X360250D02*
X378961Y56296D01*
X381890Y63367D02*
Y121850D01*
X372768Y182729D02*
X381890Y191850D01*
X332142Y179800D02*
X365697D01*
X316600Y168400D02*
X325071Y176871D01*
X315300Y145942D02*
Y165261D01*
X308029Y134529D02*
X312371Y138871D01*
X280900Y131600D02*
X300958D01*
X273667Y124367D02*
X280900Y131600D01*
X378868Y178829D02*
X381890Y181850D01*
X335042Y175900D02*
X371797D01*
X323729Y168729D02*
X327971Y172971D01*
X320800Y144306D02*
Y161658D01*
X301583Y120947D02*
X317871Y137234D01*
X359392Y171850D02*
X381890D01*
X347249Y163849D02*
X352322Y168921D01*
X347249Y163849D02*
X347249Y163849D01*
X345200Y139372D02*
Y158900D01*
X330917Y120947D02*
X342271Y132301D01*
X362381Y161850D02*
X381890D01*
X352829Y156329D02*
X355501Y159001D01*
X349900Y135439D02*
Y149258D01*
X352829Y128368D02*
X360250Y120947D01*
D50*
X76100Y108700D02*
X76156Y108644D01*
Y100100D02*
Y108644D01*
X93300Y146400D02*
X94500D01*
X90444Y149256D02*
X93300Y146400D01*
X90444Y149256D02*
Y155700D01*
X69328Y65028D02*
X116686D01*
Y70028D02*
X123928D01*
X115900D02*
X116686D01*
X133500Y75500D02*
X155650D01*
X128028Y70028D02*
X133500Y75500D01*
X123928Y70028D02*
X128028D01*
X159950Y71200D02*
X161200D01*
X155650Y75500D02*
X159950Y71200D01*
X107228Y60028D02*
X116686D01*
X104945Y57744D02*
X107228Y60028D01*
X95381Y55845D02*
X97281Y57744D01*
X104945D01*
X69200Y64900D02*
X69328Y65028D01*
D51*
X70644Y99903D02*
Y100100D01*
X70569Y99828D02*
X70644Y99903D01*
X70372Y99828D02*
X70569D01*
X70344Y99800D02*
X70372Y99828D01*
X63200Y99800D02*
X70344D01*
X95956Y155700D02*
X102800D01*
X102900Y155800D01*
D52*
X134900Y276400D02*
X137900Y279400D01*
X134900Y268500D02*
Y276400D01*
X127500Y205500D02*
X134900D01*
X124600Y202600D02*
X127500Y205500D01*
X99100Y268500D02*
Y277800D01*
X134900Y268500D02*
X135200Y268200D01*
X68300Y269500D02*
X78900Y280100D01*
X81500D01*
X65500Y269500D02*
X68300D01*
X60300Y263000D02*
X72600D01*
X82700Y273100D01*
X60300Y200000D02*
X68000D01*
X60167D02*
X60300D01*
X60000Y200167D02*
X60167Y200000D01*
X60000Y200167D02*
Y206500D01*
X60144Y263156D02*
X60300Y263000D01*
X60144Y263156D02*
Y269344D01*
X59989Y269500D02*
X60144Y269344D01*
D53*
X43500Y21200D02*
D03*
X33500Y31200D02*
D03*
X53500D02*
D03*
Y11200D02*
D03*
X33500D02*
D03*
X137900Y20200D02*
D03*
X127900Y30200D02*
D03*
X147900D02*
D03*
Y10200D02*
D03*
X127900D02*
D03*
X90700Y21200D02*
D03*
X80700Y31200D02*
D03*
X100700D02*
D03*
Y11200D02*
D03*
X80700D02*
D03*
D54*
X381890Y121850D02*
D03*
Y131850D02*
D03*
Y141850D02*
D03*
Y151850D02*
D03*
Y161850D02*
D03*
Y171850D02*
D03*
Y181850D02*
D03*
Y191850D02*
D03*
Y201850D02*
D03*
Y211850D02*
D03*
Y221850D02*
D03*
Y231850D02*
D03*
Y241850D02*
D03*
Y251850D02*
D03*
Y261850D02*
D03*
X11500Y91000D02*
D03*
X21500Y101000D02*
D03*
X11500D02*
D03*
X21500Y111000D02*
D03*
X11500D02*
D03*
X21500Y121000D02*
D03*
X11500D02*
D03*
X21500Y131000D02*
D03*
X11500D02*
D03*
X21500Y141000D02*
D03*
X11500D02*
D03*
X21500Y151000D02*
D03*
X11500D02*
D03*
X21500Y161000D02*
D03*
X11500D02*
D03*
X21500Y171000D02*
D03*
X11500D02*
D03*
X21500Y181000D02*
D03*
X11500D02*
D03*
X21500Y191000D02*
D03*
X11500D02*
D03*
X21500Y201000D02*
D03*
X11500D02*
D03*
X21500Y211000D02*
D03*
X11500D02*
D03*
X21500Y221000D02*
D03*
X11500D02*
D03*
X21500Y231000D02*
D03*
X11500D02*
D03*
X21500Y241000D02*
D03*
X11500D02*
D03*
X21500Y251000D02*
D03*
X11500D02*
D03*
X21500Y261000D02*
D03*
X11500D02*
D03*
X21500Y271000D02*
D03*
X11500D02*
D03*
X21500Y281000D02*
D03*
X11500D02*
D03*
X191500D02*
D03*
X181500Y271000D02*
D03*
X191500D02*
D03*
X181500Y261000D02*
D03*
X191500D02*
D03*
X181500Y251000D02*
D03*
X191500D02*
D03*
X181500Y241000D02*
D03*
X191500D02*
D03*
X181500Y231000D02*
D03*
X191500D02*
D03*
X181500Y221000D02*
D03*
X191500D02*
D03*
X181500Y211000D02*
D03*
X191500D02*
D03*
X181500Y201000D02*
D03*
X191500D02*
D03*
X181500Y191000D02*
D03*
X191500D02*
D03*
X181500Y181000D02*
D03*
X191500D02*
D03*
X181500Y171000D02*
D03*
X191500D02*
D03*
X181500Y161000D02*
D03*
X191500D02*
D03*
X181500Y151000D02*
D03*
X191500D02*
D03*
X181500Y141000D02*
D03*
X191500D02*
D03*
X181500Y131000D02*
D03*
X191500D02*
D03*
X181500Y121000D02*
D03*
X191500D02*
D03*
X181500Y111000D02*
D03*
X191500D02*
D03*
X181500Y101000D02*
D03*
X191500D02*
D03*
X181500Y91000D02*
D03*
X191500D02*
D03*
D55*
X381890Y271850D02*
D03*
D56*
X21500Y91000D02*
D03*
X181500Y281000D02*
D03*
D57*
X272250Y110415D02*
D03*
Y37585D02*
D03*
Y65135D02*
D03*
X253750Y110415D02*
D03*
X301583D02*
D03*
Y37585D02*
D03*
Y65135D02*
D03*
X283083Y110415D02*
D03*
X330917D02*
D03*
Y37585D02*
D03*
Y65135D02*
D03*
X312417Y110415D02*
D03*
X360250D02*
D03*
Y37585D02*
D03*
Y65135D02*
D03*
X341750Y110415D02*
D03*
X272250Y193777D02*
D03*
Y120947D02*
D03*
Y148497D02*
D03*
X253750Y193777D02*
D03*
X301583D02*
D03*
Y120947D02*
D03*
Y148497D02*
D03*
X283083Y193777D02*
D03*
X330917D02*
D03*
Y120947D02*
D03*
Y148497D02*
D03*
X312417Y193777D02*
D03*
X360250D02*
D03*
Y120947D02*
D03*
Y148497D02*
D03*
X341750Y193777D02*
D03*
X272250Y277138D02*
D03*
Y204308D02*
D03*
Y231858D02*
D03*
X253750Y277138D02*
D03*
X301583D02*
D03*
Y204308D02*
D03*
Y231858D02*
D03*
X283083Y277138D02*
D03*
X330917D02*
D03*
Y204308D02*
D03*
Y231858D02*
D03*
X312417Y277138D02*
D03*
X360250D02*
D03*
Y204308D02*
D03*
Y231858D02*
D03*
X341750Y277138D02*
D03*
X272250Y360915D02*
D03*
Y288085D02*
D03*
Y315635D02*
D03*
X253750Y360915D02*
D03*
X301583D02*
D03*
Y288085D02*
D03*
Y315635D02*
D03*
X283083Y360915D02*
D03*
X330917D02*
D03*
Y288085D02*
D03*
Y315635D02*
D03*
X312417Y360915D02*
D03*
X360250D02*
D03*
Y288085D02*
D03*
Y315635D02*
D03*
X341750Y360915D02*
D03*
D58*
X196070Y14930D02*
D03*
Y31470D02*
D03*
X179530Y14930D02*
D03*
Y31470D02*
D03*
D59*
X55190Y353597D02*
D03*
X105500Y382000D02*
D03*
X196250D02*
D03*
X287000D02*
D03*
D60*
X65040Y353603D02*
D03*
X74883D02*
D03*
X84725D02*
D03*
X94568D02*
D03*
X104411D02*
D03*
X35500Y382000D02*
D03*
X45500D02*
D03*
X55500D02*
D03*
X65500D02*
D03*
X75500D02*
D03*
X85500D02*
D03*
X95500D02*
D03*
X126250D02*
D03*
X136250D02*
D03*
X146250D02*
D03*
X156250D02*
D03*
X166250D02*
D03*
X176250D02*
D03*
X186250D02*
D03*
X217000D02*
D03*
X227000D02*
D03*
X237000D02*
D03*
X247000D02*
D03*
X257000D02*
D03*
X267000D02*
D03*
X277000D02*
D03*
D61*
X381890Y295276D02*
D03*
X334646Y381890D02*
D03*
Y11811D02*
D03*
X11811D02*
D03*
Y381890D02*
D03*
D62*
X82200Y211400D02*
D03*
X83700Y224900D02*
D03*
X72200Y206600D02*
D03*
X155000Y149700D02*
D03*
X89500Y163400D02*
D03*
X77400Y171400D02*
D03*
X75700Y164900D02*
D03*
X71800Y163100D02*
D03*
X68300Y160900D02*
D03*
X88400Y144800D02*
D03*
X63200Y144900D02*
D03*
X131300Y216600D02*
D03*
X137900Y279400D02*
D03*
X124600Y202600D02*
D03*
X129600Y109100D02*
D03*
X142300Y109200D02*
D03*
X155500Y108800D02*
D03*
X155700Y135800D02*
D03*
X142800Y135700D02*
D03*
X130200Y135800D02*
D03*
X143000Y160700D02*
D03*
X130100D02*
D03*
X143500Y188200D02*
D03*
X124600Y198700D02*
D03*
X143900Y214700D02*
D03*
X156200Y188400D02*
D03*
X156500Y214665D02*
D03*
X156600Y241100D02*
D03*
X157000Y267900D02*
D03*
X157600Y293300D02*
D03*
X125200Y251700D02*
D03*
X144100Y241300D02*
D03*
X122800Y280400D02*
D03*
X144366Y267866D02*
D03*
X158800Y117700D02*
D03*
X204900Y77000D02*
D03*
X159200Y144200D02*
D03*
X206000Y114100D02*
D03*
X162200Y171000D02*
D03*
X205700Y146900D02*
D03*
X205600Y179400D02*
D03*
X161200Y199300D02*
D03*
X161800Y223000D02*
D03*
X209500Y214300D02*
D03*
X207500Y246100D02*
D03*
X162100Y249500D02*
D03*
X207600Y280400D02*
D03*
X162234Y276134D02*
D03*
X205800Y314100D02*
D03*
X160568Y301568D02*
D03*
X124200Y75100D02*
D03*
X233489Y48811D02*
D03*
X239500Y48800D02*
D03*
X228700Y48600D02*
D03*
X52900Y225900D02*
D03*
X52100Y214600D02*
D03*
X232989Y255311D02*
D03*
X239000Y255300D02*
D03*
X228200Y255100D02*
D03*
X233189Y220811D02*
D03*
X239200Y220800D02*
D03*
X228400Y237100D02*
D03*
Y220600D02*
D03*
X233489Y186311D02*
D03*
X239500Y186300D02*
D03*
X228700Y202600D02*
D03*
Y186100D02*
D03*
X233489Y151311D02*
D03*
X239500Y151300D02*
D03*
X228700Y167600D02*
D03*
Y151100D02*
D03*
Y65100D02*
D03*
X233489Y82811D02*
D03*
X239500Y82800D02*
D03*
X228700Y99100D02*
D03*
Y82600D02*
D03*
X233489Y116811D02*
D03*
X239500Y116800D02*
D03*
X228700Y133100D02*
D03*
Y116600D02*
D03*
X232489Y289811D02*
D03*
X238500Y289800D02*
D03*
D63*
X76100Y108700D02*
D03*
X102900Y155800D02*
D03*
X63200Y99800D02*
D03*
X94500Y146400D02*
D03*
X145000Y293300D02*
D03*
X132134Y293266D02*
D03*
X215953Y272547D02*
D03*
X220600Y262400D02*
D03*
X216600Y267400D02*
D03*
X129428Y71428D02*
D03*
X123928Y70028D02*
D03*
X121800Y52200D02*
D03*
X60600Y65700D02*
D03*
X60800Y60300D02*
D03*
Y55800D02*
D03*
X69900Y59900D02*
D03*
X69700Y69300D02*
D03*
Y73700D02*
D03*
X69800Y55900D02*
D03*
X138800Y61400D02*
D03*
X143500D02*
D03*
X133900Y65900D02*
D03*
X140600Y65800D02*
D03*
X100000Y64400D02*
D03*
X361700Y45200D02*
D03*
X368100Y37000D02*
D03*
X357900Y30500D02*
D03*
X353200Y34500D02*
D03*
X337500Y33400D02*
D03*
X334100Y44000D02*
D03*
X323800Y39900D02*
D03*
X328600Y30600D02*
D03*
X308200Y33800D02*
D03*
X304800Y44400D02*
D03*
X294500Y40300D02*
D03*
X299000Y30200D02*
D03*
X269800Y30300D02*
D03*
X265300Y40400D02*
D03*
X275600Y44500D02*
D03*
X279000Y33900D02*
D03*
X359600Y57700D02*
D03*
X354900Y60000D02*
D03*
X364500Y72200D02*
D03*
X368100Y68300D02*
D03*
X338400Y65500D02*
D03*
X337300Y70700D02*
D03*
X323000Y64100D02*
D03*
X326100Y59400D02*
D03*
X309400Y65100D02*
D03*
X308300Y70300D02*
D03*
X294000Y63700D02*
D03*
X297100Y59000D02*
D03*
X267900Y58600D02*
D03*
X264800Y63300D02*
D03*
X279100Y69900D02*
D03*
X280200Y64700D02*
D03*
X365400Y126400D02*
D03*
X359500Y128300D02*
D03*
X353100Y118300D02*
D03*
Y122800D02*
D03*
X352700Y146000D02*
D03*
Y150500D02*
D03*
X367700D02*
D03*
Y146000D02*
D03*
X323500Y118600D02*
D03*
Y123100D02*
D03*
X338500D02*
D03*
Y118600D02*
D03*
X323600Y145800D02*
D03*
Y150300D02*
D03*
X338600D02*
D03*
Y145800D02*
D03*
X294100Y118000D02*
D03*
Y122500D02*
D03*
X309100D02*
D03*
Y118000D02*
D03*
X293900Y145900D02*
D03*
Y150400D02*
D03*
X308900D02*
D03*
Y145900D02*
D03*
X264700Y118700D02*
D03*
Y123200D02*
D03*
X279700D02*
D03*
Y118700D02*
D03*
Y146300D02*
D03*
Y150800D02*
D03*
X264700D02*
D03*
Y146300D02*
D03*
X221100Y158400D02*
D03*
X220400Y163300D02*
D03*
X216000Y256600D02*
D03*
X216600Y283500D02*
D03*
X219915D02*
D03*
X219900Y267300D02*
D03*
X221200Y278500D02*
D03*
X216100D02*
D03*
Y262500D02*
D03*
X216200Y222100D02*
D03*
X216800Y249000D02*
D03*
X220115D02*
D03*
X216800Y232900D02*
D03*
X220100Y232800D02*
D03*
X221400Y244000D02*
D03*
X216153Y238047D02*
D03*
X216300Y244000D02*
D03*
X220800Y227900D02*
D03*
X216300Y228000D02*
D03*
X216500Y187600D02*
D03*
X217100Y214500D02*
D03*
X220415D02*
D03*
X217100Y198400D02*
D03*
X220400Y198300D02*
D03*
X221700Y209500D02*
D03*
X216453Y203547D02*
D03*
X216600Y209500D02*
D03*
X221100Y193400D02*
D03*
X216600Y193500D02*
D03*
X216500Y152600D02*
D03*
X217100Y179500D02*
D03*
X220415D02*
D03*
X217100Y163400D02*
D03*
X221700Y174500D02*
D03*
X216453Y168547D02*
D03*
X216600Y174500D02*
D03*
Y158500D02*
D03*
X216500Y50100D02*
D03*
X217100Y77000D02*
D03*
X220415D02*
D03*
X217100Y60900D02*
D03*
X220400Y60800D02*
D03*
X221700Y72000D02*
D03*
X216453Y66047D02*
D03*
X216600Y72000D02*
D03*
X221100Y55900D02*
D03*
X216600Y56000D02*
D03*
X216500Y84100D02*
D03*
X217100Y111000D02*
D03*
X220415D02*
D03*
X217100Y94900D02*
D03*
X220400Y94800D02*
D03*
X221700Y106000D02*
D03*
X216453Y100047D02*
D03*
X216600Y106000D02*
D03*
X221100Y89900D02*
D03*
X216600Y90000D02*
D03*
X216500Y118100D02*
D03*
X217100Y145000D02*
D03*
X220415D02*
D03*
X217100Y128900D02*
D03*
X220400Y128800D02*
D03*
X221700Y140000D02*
D03*
X216453Y134047D02*
D03*
X216600Y140000D02*
D03*
X221100Y123900D02*
D03*
X216600Y124000D02*
D03*
X220700Y313000D02*
D03*
X215500Y291100D02*
D03*
X220100Y296900D02*
D03*
X215453Y307047D02*
D03*
X215600Y313000D02*
D03*
X219400Y301800D02*
D03*
X216100Y318000D02*
D03*
X219415D02*
D03*
X216100Y301900D02*
D03*
X215600Y297000D02*
D03*
D64*
X53000Y161100D02*
D03*
X175322Y62600D02*
D03*
X171000Y62800D02*
D03*
X99100Y277800D02*
D03*
X95900Y73800D02*
D03*
X81500Y280100D02*
D03*
X106600Y44800D02*
D03*
X74600Y73900D02*
D03*
X75400Y55700D02*
D03*
X91200D02*
D03*
X91800Y73800D02*
D03*
X82700Y273100D02*
D03*
X68000Y200000D02*
D03*
D65*
X95450Y73955D02*
X96100Y74605D01*
X95381Y73955D02*
X95450D01*
D67*
X69200Y64900D02*
D03*
D68*
X95381Y55845D02*
D03*
Y73955D02*
D03*
D69*
X116686Y75028D02*
D03*
Y70028D02*
D03*
Y65028D02*
D03*
Y60028D02*
D03*
Y55028D02*
D03*
D70*
X140900Y65100D02*
D03*
D71*
X161200Y67600D02*
D03*
Y71200D02*
D03*
D72*
X99100Y165500D02*
D03*
Y170500D02*
D03*
Y175500D02*
D03*
Y180500D02*
D03*
Y185500D02*
D03*
Y190500D02*
D03*
Y195500D02*
D03*
Y200500D02*
D03*
Y205500D02*
D03*
X134900Y165500D02*
D03*
Y170500D02*
D03*
Y175500D02*
D03*
Y180500D02*
D03*
Y185500D02*
D03*
Y190500D02*
D03*
Y195500D02*
D03*
Y200500D02*
D03*
Y205500D02*
D03*
X99100Y228500D02*
D03*
Y233500D02*
D03*
Y238500D02*
D03*
Y243500D02*
D03*
Y248500D02*
D03*
Y253500D02*
D03*
Y258500D02*
D03*
Y263500D02*
D03*
Y268500D02*
D03*
X134900Y228500D02*
D03*
Y233500D02*
D03*
Y238500D02*
D03*
Y243500D02*
D03*
Y248500D02*
D03*
Y253500D02*
D03*
Y258500D02*
D03*
Y263500D02*
D03*
Y268500D02*
D03*
M02*
