G04*
G04 #@! TF.GenerationSoftware,Altium Limited,Altium Designer,20.0.2 (26)*
G04*
G04 Layer_Color=8388736*
%FSLAX25Y25*%
%MOIN*%
G70*
G01*
G75*
%ADD26O,0.02756X0.07472*%
%ADD27O,0.07472X0.02756*%
%ADD28R,0.02756X0.05512*%
%ADD29R,0.03543X0.03937*%
%ADD30R,0.03937X0.03543*%
%ADD31R,0.03543X0.03937*%
%ADD32R,0.03937X0.03543*%
%ADD33R,0.04331X0.03937*%
%ADD34O,0.04724X0.01496*%
%ADD35C,0.10236*%
%ADD36C,0.06594*%
%ADD37R,0.06594X0.06594*%
%ADD38R,0.06594X0.06594*%
%ADD39C,0.09449*%
%ADD40C,0.11417*%
%ADD41R,0.07480X0.07480*%
%ADD42C,0.07480*%
%ADD43C,0.12205*%
%ADD44C,0.02165*%
%ADD45C,0.02756*%
%ADD46C,0.03543*%
D26*
X63300Y155000D02*
D03*
X68300Y155000D02*
D03*
X73300Y155000D02*
D03*
X78300D02*
D03*
X83300D02*
D03*
X88300D02*
D03*
X93300Y155000D02*
D03*
X98300Y155000D02*
D03*
X63300Y178400D02*
D03*
X68300Y178400D02*
D03*
X73300Y178400D02*
D03*
X78300D02*
D03*
X83300D02*
D03*
X88300D02*
D03*
X93300Y178400D02*
D03*
X98300Y178400D02*
D03*
D27*
X63200Y139400D02*
D03*
Y134400D02*
D03*
Y129400D02*
D03*
Y124400D02*
D03*
Y119400D02*
D03*
Y114400D02*
D03*
Y109400D02*
D03*
Y104400D02*
D03*
X86600Y139400D02*
D03*
Y134400D02*
D03*
Y129400D02*
D03*
Y124400D02*
D03*
Y119400D02*
D03*
Y114400D02*
D03*
Y109400D02*
D03*
Y104400D02*
D03*
D28*
X154860Y144068D02*
D03*
X158600Y135800D02*
D03*
X151120D02*
D03*
X142100Y144034D02*
D03*
X145840Y135766D02*
D03*
X138360D02*
D03*
X129300Y144034D02*
D03*
X133040Y135766D02*
D03*
X125560D02*
D03*
X154800Y117434D02*
D03*
X158540Y109166D02*
D03*
X151060D02*
D03*
X141800Y117434D02*
D03*
X145540Y109166D02*
D03*
X138060D02*
D03*
X129060Y117400D02*
D03*
X132800Y109132D02*
D03*
X125320D02*
D03*
X127300Y293266D02*
D03*
X134780D02*
D03*
X131040Y301534D02*
D03*
X126460Y241466D02*
D03*
X133940D02*
D03*
X130200Y249734D02*
D03*
X152900Y293300D02*
D03*
X160380D02*
D03*
X156640Y301568D02*
D03*
X140100Y293300D02*
D03*
X147580D02*
D03*
X143840Y301568D02*
D03*
X152160Y241366D02*
D03*
X159640D02*
D03*
X155900Y249634D02*
D03*
X139360Y241466D02*
D03*
X146840D02*
D03*
X143100Y249734D02*
D03*
X151660Y188166D02*
D03*
X159140D02*
D03*
X155400Y196434D02*
D03*
X138860Y188166D02*
D03*
X146340D02*
D03*
X142600Y196434D02*
D03*
X126160Y188166D02*
D03*
X133640D02*
D03*
X129900Y196434D02*
D03*
X151760Y162166D02*
D03*
X159240D02*
D03*
X155500Y170434D02*
D03*
X138960Y162166D02*
D03*
X146440D02*
D03*
X142700Y170434D02*
D03*
X125860Y162066D02*
D03*
X133340D02*
D03*
X129600Y170334D02*
D03*
X126260Y214732D02*
D03*
X133740D02*
D03*
X130000Y223000D02*
D03*
X139260Y214732D02*
D03*
X146740D02*
D03*
X143000Y223000D02*
D03*
X151960Y214732D02*
D03*
X159440D02*
D03*
X155700Y223000D02*
D03*
X156000Y276134D02*
D03*
X159740Y267866D02*
D03*
X152260D02*
D03*
X142900Y276134D02*
D03*
X146640Y267866D02*
D03*
X139160D02*
D03*
X129800Y276134D02*
D03*
X133540Y267866D02*
D03*
X126060D02*
D03*
D29*
X131856Y128900D02*
D03*
X126344Y128900D02*
D03*
X139144Y129000D02*
D03*
X144656Y129000D02*
D03*
X152144Y129100D02*
D03*
X157656Y129100D02*
D03*
X131571Y102466D02*
D03*
X126060Y102466D02*
D03*
X139004Y102366D02*
D03*
X144515Y102366D02*
D03*
X152104Y102466D02*
D03*
X157615Y102466D02*
D03*
X159196Y286934D02*
D03*
X153684Y286934D02*
D03*
X127685Y286834D02*
D03*
X133196Y286834D02*
D03*
X146296Y286834D02*
D03*
X140784Y286834D02*
D03*
X158656Y234900D02*
D03*
X153144Y234900D02*
D03*
X127144Y234800D02*
D03*
X132656Y234800D02*
D03*
X145956Y234800D02*
D03*
X140444Y234800D02*
D03*
X158256Y181800D02*
D03*
X152744Y181800D02*
D03*
X144956Y181800D02*
D03*
X139444Y181800D02*
D03*
X126744Y181800D02*
D03*
X132256Y181800D02*
D03*
X145356Y155500D02*
D03*
X139844Y155500D02*
D03*
X126644Y155400D02*
D03*
X132156Y155400D02*
D03*
X158256Y155500D02*
D03*
X152744Y155500D02*
D03*
X158256Y207966D02*
D03*
X152744Y207966D02*
D03*
X145356Y207966D02*
D03*
X139844Y207966D02*
D03*
X127144Y207966D02*
D03*
X132656Y207966D02*
D03*
X140444Y261300D02*
D03*
X145956Y261300D02*
D03*
X132456Y261300D02*
D03*
X126944Y261300D02*
D03*
X153244Y261300D02*
D03*
X158756Y261300D02*
D03*
X233000Y274000D02*
D03*
X238512Y274000D02*
D03*
X233000Y280000D02*
D03*
X238512Y280000D02*
D03*
X226511Y267500D02*
D03*
X215511D02*
D03*
X226511Y283500D02*
D03*
X215511D02*
D03*
X80400Y65000D02*
D03*
X85912Y65000D02*
D03*
X107356Y77800D02*
D03*
X101844Y77800D02*
D03*
X239012Y135500D02*
D03*
X233500Y135500D02*
D03*
X238756Y239500D02*
D03*
X233244Y239500D02*
D03*
X239012Y141500D02*
D03*
X233500Y141500D02*
D03*
X238756Y245500D02*
D03*
X233244Y245500D02*
D03*
X239012Y170000D02*
D03*
X233500Y170000D02*
D03*
X239012Y67500D02*
D03*
X233500Y67500D02*
D03*
X239012Y176000D02*
D03*
X233500Y176000D02*
D03*
X239012Y73500D02*
D03*
X233500Y73500D02*
D03*
X239000Y205000D02*
D03*
X233489Y205000D02*
D03*
X238000Y308500D02*
D03*
X232489Y308500D02*
D03*
X239012Y101500D02*
D03*
X233500Y101500D02*
D03*
X239000Y211000D02*
D03*
X233489Y211000D02*
D03*
X238000Y314500D02*
D03*
X232489Y314500D02*
D03*
X239012Y107500D02*
D03*
X233500Y107500D02*
D03*
X227011Y129000D02*
D03*
X216011D02*
D03*
X226756Y233000D02*
D03*
X215756D02*
D03*
X227011Y145000D02*
D03*
X216011D02*
D03*
X226756Y249000D02*
D03*
X215756D02*
D03*
X227011Y163500D02*
D03*
X216011D02*
D03*
X227011Y61000D02*
D03*
X216011D02*
D03*
X227011Y179500D02*
D03*
X216011D02*
D03*
X227011Y77000D02*
D03*
X216011D02*
D03*
X227000Y198500D02*
D03*
X216000D02*
D03*
X226000Y302000D02*
D03*
X215000D02*
D03*
X227011Y95000D02*
D03*
X216011D02*
D03*
X227000Y214500D02*
D03*
X216000D02*
D03*
X226000Y318000D02*
D03*
X215000D02*
D03*
X227011Y111000D02*
D03*
X216011D02*
D03*
D30*
X116600Y135444D02*
D03*
X116600Y140956D02*
D03*
X116960Y108410D02*
D03*
X116960Y113922D02*
D03*
X118440Y298189D02*
D03*
X118440Y292678D02*
D03*
X117900Y245856D02*
D03*
X117900Y240344D02*
D03*
X117400Y193456D02*
D03*
X117400Y187944D02*
D03*
X117700Y166856D02*
D03*
X117700Y161344D02*
D03*
X118500Y218922D02*
D03*
X118500Y213410D02*
D03*
X118300Y266444D02*
D03*
X118300Y271956D02*
D03*
X239000Y258244D02*
D03*
X239000Y263756D02*
D03*
X233000Y258244D02*
D03*
X233000Y263756D02*
D03*
X239500Y125256D02*
D03*
X239500Y119744D02*
D03*
X233500Y125256D02*
D03*
X233500Y119744D02*
D03*
X239244Y229256D02*
D03*
X239245Y223744D02*
D03*
X233244Y229256D02*
D03*
X233244Y223744D02*
D03*
X239500Y159756D02*
D03*
X239500Y154244D02*
D03*
X233500Y159756D02*
D03*
X233500Y154244D02*
D03*
X239500Y57256D02*
D03*
X239500Y51744D02*
D03*
X233500Y57256D02*
D03*
X233500Y51744D02*
D03*
X239489Y194756D02*
D03*
X239489Y189244D02*
D03*
X233489Y194756D02*
D03*
X233489Y189244D02*
D03*
X238489Y298256D02*
D03*
X238489Y292744D02*
D03*
X232489Y298256D02*
D03*
X232489Y292744D02*
D03*
X239500Y91256D02*
D03*
X239500Y85744D02*
D03*
X233500Y91256D02*
D03*
X233500Y85744D02*
D03*
D31*
X221000Y267500D02*
D03*
X210000D02*
D03*
X221000Y283500D02*
D03*
X210000D02*
D03*
X85956Y73900D02*
D03*
X80445D02*
D03*
X85656Y55700D02*
D03*
X80145D02*
D03*
X101645Y64100D02*
D03*
X107156D02*
D03*
X107355Y71000D02*
D03*
X101844D02*
D03*
X221500Y129000D02*
D03*
X210500D02*
D03*
X221244Y233000D02*
D03*
X210244D02*
D03*
X221500Y145000D02*
D03*
X210500D02*
D03*
X221244Y249000D02*
D03*
X210244D02*
D03*
X221500Y163500D02*
D03*
X210500D02*
D03*
X221500Y61000D02*
D03*
X210500D02*
D03*
X221500Y179500D02*
D03*
X210500D02*
D03*
X221500Y77000D02*
D03*
X210500D02*
D03*
X221489Y198500D02*
D03*
X210489D02*
D03*
X220489Y302000D02*
D03*
X209489D02*
D03*
X221500Y95000D02*
D03*
X210500D02*
D03*
X221489Y214500D02*
D03*
X210489D02*
D03*
X220489Y318000D02*
D03*
X209489D02*
D03*
X221500Y111000D02*
D03*
X210500D02*
D03*
D32*
X113700Y54355D02*
D03*
Y48844D02*
D03*
D33*
X106600Y54058D02*
D03*
Y48742D02*
D03*
X129500Y71258D02*
D03*
Y65943D02*
D03*
D34*
X212308Y123953D02*
D03*
Y121985D02*
D03*
Y120017D02*
D03*
Y118047D02*
D03*
X225693D02*
D03*
Y120017D02*
D03*
Y121985D02*
D03*
Y123953D02*
D03*
X212052Y227954D02*
D03*
Y225985D02*
D03*
Y224016D02*
D03*
Y222047D02*
D03*
X225437D02*
D03*
Y224016D02*
D03*
Y225985D02*
D03*
Y227954D02*
D03*
X212308Y139953D02*
D03*
Y137985D02*
D03*
Y136016D02*
D03*
Y134047D02*
D03*
X225693D02*
D03*
Y136016D02*
D03*
Y137985D02*
D03*
Y139953D02*
D03*
X212052Y243953D02*
D03*
Y241985D02*
D03*
Y240017D02*
D03*
Y238048D02*
D03*
X225437D02*
D03*
Y240017D02*
D03*
Y241985D02*
D03*
Y243953D02*
D03*
X212308Y158454D02*
D03*
Y156484D02*
D03*
Y154516D02*
D03*
Y152548D02*
D03*
X225693D02*
D03*
Y154516D02*
D03*
Y156484D02*
D03*
Y158454D02*
D03*
X211807Y262454D02*
D03*
Y260485D02*
D03*
Y258517D02*
D03*
Y256547D02*
D03*
X225192D02*
D03*
Y258517D02*
D03*
Y260485D02*
D03*
Y262454D02*
D03*
X212308Y55954D02*
D03*
Y53984D02*
D03*
Y52017D02*
D03*
Y50047D02*
D03*
X225693D02*
D03*
Y52017D02*
D03*
Y53984D02*
D03*
Y55954D02*
D03*
X212308Y174453D02*
D03*
Y172485D02*
D03*
Y170517D02*
D03*
Y168547D02*
D03*
X225693D02*
D03*
Y170517D02*
D03*
Y172485D02*
D03*
Y174453D02*
D03*
X211807Y278453D02*
D03*
Y276484D02*
D03*
Y274517D02*
D03*
Y272548D02*
D03*
X225192D02*
D03*
Y274517D02*
D03*
Y276484D02*
D03*
Y278453D02*
D03*
X212308Y71953D02*
D03*
Y69985D02*
D03*
Y68016D02*
D03*
Y66048D02*
D03*
X225693D02*
D03*
Y68016D02*
D03*
Y69985D02*
D03*
Y71953D02*
D03*
X212296Y193454D02*
D03*
Y191484D02*
D03*
Y189516D02*
D03*
Y187548D02*
D03*
X225681D02*
D03*
Y189516D02*
D03*
Y191484D02*
D03*
Y193454D02*
D03*
X211296Y296954D02*
D03*
Y294985D02*
D03*
Y293017D02*
D03*
Y291048D02*
D03*
X224681D02*
D03*
Y293017D02*
D03*
Y294985D02*
D03*
Y296954D02*
D03*
X212308Y89954D02*
D03*
Y87985D02*
D03*
Y86016D02*
D03*
Y84048D02*
D03*
X225693D02*
D03*
Y86016D02*
D03*
Y87985D02*
D03*
Y89954D02*
D03*
X212296Y209454D02*
D03*
Y207485D02*
D03*
Y205517D02*
D03*
Y203548D02*
D03*
X225681D02*
D03*
Y205517D02*
D03*
Y207485D02*
D03*
Y209454D02*
D03*
X211296Y312953D02*
D03*
Y310984D02*
D03*
Y309016D02*
D03*
Y307048D02*
D03*
X224681D02*
D03*
Y309016D02*
D03*
Y310984D02*
D03*
Y312953D02*
D03*
X212308Y105954D02*
D03*
Y103984D02*
D03*
Y102016D02*
D03*
Y100048D02*
D03*
X225693D02*
D03*
Y102016D02*
D03*
Y103984D02*
D03*
Y105954D02*
D03*
D35*
X43500Y21200D02*
D03*
X33500Y31200D02*
D03*
X53500D02*
D03*
Y11200D02*
D03*
X33500D02*
D03*
X137900Y20200D02*
D03*
X127900Y30200D02*
D03*
X147900D02*
D03*
Y10200D02*
D03*
X127900D02*
D03*
X90700Y21200D02*
D03*
X80700Y31200D02*
D03*
X100700D02*
D03*
Y11200D02*
D03*
X80700D02*
D03*
D36*
X381890Y121850D02*
D03*
Y131850D02*
D03*
Y141850D02*
D03*
Y151850D02*
D03*
Y161850D02*
D03*
Y171850D02*
D03*
Y181850D02*
D03*
Y191850D02*
D03*
Y201850D02*
D03*
Y211850D02*
D03*
Y221850D02*
D03*
Y231850D02*
D03*
Y241850D02*
D03*
Y251850D02*
D03*
Y261850D02*
D03*
X11500Y91000D02*
D03*
X21500Y101000D02*
D03*
X11500D02*
D03*
X21500Y111000D02*
D03*
X11500D02*
D03*
X21500Y121000D02*
D03*
X11500D02*
D03*
X21500Y131000D02*
D03*
X11500D02*
D03*
X21500Y141000D02*
D03*
X11500D02*
D03*
X21500Y151000D02*
D03*
X11500D02*
D03*
X21500Y161000D02*
D03*
X11500D02*
D03*
X21500Y171000D02*
D03*
X11500D02*
D03*
X21500Y181000D02*
D03*
X11500D02*
D03*
X21500Y191000D02*
D03*
X11500D02*
D03*
X21500Y201000D02*
D03*
X11500D02*
D03*
X21500Y211000D02*
D03*
X11500D02*
D03*
X21500Y221000D02*
D03*
X11500D02*
D03*
X21500Y231000D02*
D03*
X11500D02*
D03*
X21500Y241000D02*
D03*
X11500D02*
D03*
X21500Y251000D02*
D03*
X11500D02*
D03*
X21500Y261000D02*
D03*
X11500D02*
D03*
X21500Y271000D02*
D03*
X11500D02*
D03*
X21500Y281000D02*
D03*
X11500D02*
D03*
X191500D02*
D03*
X181500Y271000D02*
D03*
X191500D02*
D03*
X181500Y261000D02*
D03*
X191500D02*
D03*
X181500Y251000D02*
D03*
X191500D02*
D03*
X181500Y241000D02*
D03*
X191500D02*
D03*
X181500Y231000D02*
D03*
X191500D02*
D03*
X181500Y221000D02*
D03*
X191500D02*
D03*
X181500Y211000D02*
D03*
X191500D02*
D03*
X181500Y201000D02*
D03*
X191500D02*
D03*
X181500Y191000D02*
D03*
X191500D02*
D03*
X181500Y181000D02*
D03*
X191500D02*
D03*
X181500Y171000D02*
D03*
X191500D02*
D03*
X181500Y161000D02*
D03*
X191500D02*
D03*
X181500Y151000D02*
D03*
X191500D02*
D03*
X181500Y141000D02*
D03*
X191500D02*
D03*
X181500Y131000D02*
D03*
X191500D02*
D03*
X181500Y121000D02*
D03*
X191500D02*
D03*
X181500Y111000D02*
D03*
X191500D02*
D03*
X181500Y101000D02*
D03*
X191500D02*
D03*
X181500Y91000D02*
D03*
X191500D02*
D03*
D37*
X381890Y271850D02*
D03*
D38*
X21500Y91000D02*
D03*
X181500Y281000D02*
D03*
D39*
X272250Y110415D02*
D03*
Y37585D02*
D03*
Y65135D02*
D03*
X253750Y110415D02*
D03*
X301583D02*
D03*
Y37585D02*
D03*
Y65135D02*
D03*
X283083Y110415D02*
D03*
X330917D02*
D03*
Y37585D02*
D03*
Y65135D02*
D03*
X312417Y110415D02*
D03*
X360250D02*
D03*
Y37585D02*
D03*
Y65135D02*
D03*
X341750Y110415D02*
D03*
X272250Y193777D02*
D03*
Y120947D02*
D03*
Y148497D02*
D03*
X253750Y193777D02*
D03*
X301583D02*
D03*
Y120947D02*
D03*
Y148497D02*
D03*
X283083Y193777D02*
D03*
X330917D02*
D03*
Y120947D02*
D03*
Y148497D02*
D03*
X312417Y193777D02*
D03*
X360250D02*
D03*
Y120947D02*
D03*
Y148497D02*
D03*
X341750Y193777D02*
D03*
X272250Y277138D02*
D03*
Y204308D02*
D03*
Y231858D02*
D03*
X253750Y277138D02*
D03*
X301583D02*
D03*
Y204308D02*
D03*
Y231858D02*
D03*
X283083Y277138D02*
D03*
X330917D02*
D03*
Y204308D02*
D03*
Y231858D02*
D03*
X312417Y277138D02*
D03*
X360250D02*
D03*
Y204308D02*
D03*
Y231858D02*
D03*
X341750Y277138D02*
D03*
X272250Y360915D02*
D03*
Y288085D02*
D03*
Y315635D02*
D03*
X253750Y360915D02*
D03*
X301583D02*
D03*
Y288085D02*
D03*
Y315635D02*
D03*
X283083Y360915D02*
D03*
X330917D02*
D03*
Y288085D02*
D03*
Y315635D02*
D03*
X312417Y360915D02*
D03*
X360250D02*
D03*
Y288085D02*
D03*
Y315635D02*
D03*
X341750Y360915D02*
D03*
D40*
X196070Y14930D02*
D03*
Y31470D02*
D03*
X179530Y14930D02*
D03*
Y31470D02*
D03*
D41*
X55190Y353597D02*
D03*
X105500Y382000D02*
D03*
X196250D02*
D03*
X287000D02*
D03*
D42*
X65040Y353603D02*
D03*
X74883D02*
D03*
X84725D02*
D03*
X94568D02*
D03*
X104411D02*
D03*
X35500Y382000D02*
D03*
X45500D02*
D03*
X55500D02*
D03*
X65500D02*
D03*
X75500D02*
D03*
X85500D02*
D03*
X95500D02*
D03*
X126250D02*
D03*
X136250D02*
D03*
X146250D02*
D03*
X156250D02*
D03*
X166250D02*
D03*
X176250D02*
D03*
X186250D02*
D03*
X217000D02*
D03*
X227000D02*
D03*
X237000D02*
D03*
X247000D02*
D03*
X257000D02*
D03*
X267000D02*
D03*
X277000D02*
D03*
D43*
X381890Y295276D02*
D03*
X334646Y381890D02*
D03*
Y11811D02*
D03*
X11811D02*
D03*
Y381890D02*
D03*
D44*
X82200Y211400D02*
D03*
X83700Y224900D02*
D03*
X72200Y206600D02*
D03*
X155000Y149700D02*
D03*
X89500Y163400D02*
D03*
X77400Y171400D02*
D03*
X75700Y164900D02*
D03*
X71800Y163100D02*
D03*
X68300Y160900D02*
D03*
X88400Y144800D02*
D03*
X63200Y144900D02*
D03*
X131300Y216600D02*
D03*
X137900Y279400D02*
D03*
X124600Y202600D02*
D03*
X129600Y109100D02*
D03*
X142300Y109200D02*
D03*
X155500Y108800D02*
D03*
X155700Y135800D02*
D03*
X142800Y135700D02*
D03*
X130200Y135800D02*
D03*
X143000Y160700D02*
D03*
X130100D02*
D03*
X143500Y188200D02*
D03*
X124600Y198700D02*
D03*
X143900Y214700D02*
D03*
X156200Y188400D02*
D03*
X156500Y214665D02*
D03*
X156600Y241100D02*
D03*
X157000Y267900D02*
D03*
X157600Y293300D02*
D03*
X125200Y251700D02*
D03*
X144100Y241300D02*
D03*
X122800Y280400D02*
D03*
X144366Y267866D02*
D03*
X158800Y117700D02*
D03*
X204900Y77000D02*
D03*
X159200Y144200D02*
D03*
X206000Y114100D02*
D03*
X162200Y171000D02*
D03*
X205700Y146900D02*
D03*
X205600Y179400D02*
D03*
X161200Y199300D02*
D03*
X161800Y223000D02*
D03*
X209500Y214300D02*
D03*
X207500Y246100D02*
D03*
X162100Y249500D02*
D03*
X207600Y280400D02*
D03*
X162234Y276134D02*
D03*
X205800Y314100D02*
D03*
X160568Y301568D02*
D03*
X124200Y75100D02*
D03*
X233489Y48811D02*
D03*
X239500Y48800D02*
D03*
X228700Y48600D02*
D03*
X52900Y225900D02*
D03*
X52100Y214600D02*
D03*
X232989Y255311D02*
D03*
X239000Y255300D02*
D03*
X228200Y255100D02*
D03*
X233189Y220811D02*
D03*
X239200Y220800D02*
D03*
X228400Y237100D02*
D03*
Y220600D02*
D03*
X233489Y186311D02*
D03*
X239500Y186300D02*
D03*
X228700Y202600D02*
D03*
Y186100D02*
D03*
X233489Y151311D02*
D03*
X239500Y151300D02*
D03*
X228700Y167600D02*
D03*
Y151100D02*
D03*
Y65100D02*
D03*
X233489Y82811D02*
D03*
X239500Y82800D02*
D03*
X228700Y99100D02*
D03*
Y82600D02*
D03*
X233489Y116811D02*
D03*
X239500Y116800D02*
D03*
X228700Y133100D02*
D03*
Y116600D02*
D03*
D45*
X76100Y108700D02*
D03*
X102900Y155800D02*
D03*
X63200Y99800D02*
D03*
X94500Y146400D02*
D03*
X145000Y293300D02*
D03*
X132134Y293266D02*
D03*
X215953Y272547D02*
D03*
X220600Y262400D02*
D03*
X216600Y267400D02*
D03*
X129428Y71428D02*
D03*
X123928Y70028D02*
D03*
X121800Y52200D02*
D03*
X60600Y65700D02*
D03*
X60800Y60300D02*
D03*
Y55800D02*
D03*
X69900Y59900D02*
D03*
X69700Y69300D02*
D03*
Y73700D02*
D03*
X69800Y55900D02*
D03*
X138800Y61400D02*
D03*
X143500D02*
D03*
X133900Y65900D02*
D03*
X140600Y65800D02*
D03*
X100000Y64400D02*
D03*
X361700Y45200D02*
D03*
X368100Y37000D02*
D03*
X357900Y30500D02*
D03*
X353200Y34500D02*
D03*
X337500Y33400D02*
D03*
X334100Y44000D02*
D03*
X323800Y39900D02*
D03*
X328600Y30600D02*
D03*
X308200Y33800D02*
D03*
X304800Y44400D02*
D03*
X294500Y40300D02*
D03*
X299000Y30200D02*
D03*
X269800Y30300D02*
D03*
X265300Y40400D02*
D03*
X275600Y44500D02*
D03*
X279000Y33900D02*
D03*
X359600Y57700D02*
D03*
X354900Y60000D02*
D03*
X364500Y72200D02*
D03*
X368100Y68300D02*
D03*
X338400Y65500D02*
D03*
X337300Y70700D02*
D03*
X323000Y64100D02*
D03*
X326100Y59400D02*
D03*
X309400Y65100D02*
D03*
X308300Y70300D02*
D03*
X294000Y63700D02*
D03*
X297100Y59000D02*
D03*
X267900Y58600D02*
D03*
X264800Y63300D02*
D03*
X279100Y69900D02*
D03*
X280200Y64700D02*
D03*
X365400Y126400D02*
D03*
X359500Y128300D02*
D03*
X353100Y118300D02*
D03*
Y122800D02*
D03*
X352700Y146000D02*
D03*
Y150500D02*
D03*
X367700D02*
D03*
Y146000D02*
D03*
X323500Y118600D02*
D03*
Y123100D02*
D03*
X338500D02*
D03*
Y118600D02*
D03*
X323600Y145800D02*
D03*
Y150300D02*
D03*
X338600D02*
D03*
Y145800D02*
D03*
X294100Y118000D02*
D03*
Y122500D02*
D03*
X309100D02*
D03*
Y118000D02*
D03*
X293900Y145900D02*
D03*
Y150400D02*
D03*
X308900D02*
D03*
Y145900D02*
D03*
X264700Y118700D02*
D03*
Y123200D02*
D03*
X279700D02*
D03*
Y118700D02*
D03*
Y146300D02*
D03*
Y150800D02*
D03*
X264700D02*
D03*
Y146300D02*
D03*
X221100Y158400D02*
D03*
X220400Y163300D02*
D03*
X216000Y256600D02*
D03*
X216600Y283500D02*
D03*
X219915D02*
D03*
X219900Y267300D02*
D03*
X221200Y278500D02*
D03*
X216100D02*
D03*
Y262500D02*
D03*
X216200Y222100D02*
D03*
X216800Y249000D02*
D03*
X220115D02*
D03*
X216800Y232900D02*
D03*
X220100Y232800D02*
D03*
X221400Y244000D02*
D03*
X216153Y238047D02*
D03*
X216300Y244000D02*
D03*
X220800Y227900D02*
D03*
X216300Y228000D02*
D03*
X216500Y187600D02*
D03*
X217100Y214500D02*
D03*
X220415D02*
D03*
X217100Y198400D02*
D03*
X220400Y198300D02*
D03*
X221700Y209500D02*
D03*
X216453Y203547D02*
D03*
X216600Y209500D02*
D03*
X221100Y193400D02*
D03*
X216600Y193500D02*
D03*
X216500Y152600D02*
D03*
X217100Y179500D02*
D03*
X220415D02*
D03*
X217100Y163400D02*
D03*
X221700Y174500D02*
D03*
X216453Y168547D02*
D03*
X216600Y174500D02*
D03*
Y158500D02*
D03*
X216500Y50100D02*
D03*
X217100Y77000D02*
D03*
X220415D02*
D03*
X217100Y60900D02*
D03*
X220400Y60800D02*
D03*
X221700Y72000D02*
D03*
X216453Y66047D02*
D03*
X216600Y72000D02*
D03*
X221100Y55900D02*
D03*
X216600Y56000D02*
D03*
X216500Y84100D02*
D03*
X217100Y111000D02*
D03*
X220415D02*
D03*
X217100Y94900D02*
D03*
X220400Y94800D02*
D03*
X221700Y106000D02*
D03*
X216453Y100047D02*
D03*
X216600Y106000D02*
D03*
X221100Y89900D02*
D03*
X216600Y90000D02*
D03*
X216500Y118100D02*
D03*
X217100Y145000D02*
D03*
X220415D02*
D03*
X217100Y128900D02*
D03*
X220400Y128800D02*
D03*
X221700Y140000D02*
D03*
X216453Y134047D02*
D03*
X216600Y140000D02*
D03*
X221100Y123900D02*
D03*
X216600Y124000D02*
D03*
D46*
X53000Y161100D02*
D03*
X175322Y62600D02*
D03*
X171000Y62800D02*
D03*
X99100Y277800D02*
D03*
X95900Y73800D02*
D03*
X81500Y280100D02*
D03*
X106600Y44800D02*
D03*
X74600Y73900D02*
D03*
X75400Y55700D02*
D03*
X91200D02*
D03*
X91800Y73800D02*
D03*
X82700Y273100D02*
D03*
X68000Y200000D02*
D03*
M02*
