G04*
G04 #@! TF.GenerationSoftware,Altium Limited,Altium Designer,20.0.2 (26)*
G04*
G04 Layer_Physical_Order=1*
G04 Layer_Color=255*
%FSLAX25Y25*%
%MOIN*%
G70*
G01*
G75*
%ADD10C,0.01000*%
%ADD17O,0.02362X0.07079*%
%ADD18O,0.07079X0.02362*%
%ADD19R,0.02362X0.05118*%
%ADD20R,0.03150X0.03543*%
%ADD21R,0.03543X0.03150*%
%ADD22R,0.03150X0.03543*%
%ADD23R,0.03543X0.03150*%
%ADD24R,0.03937X0.03543*%
%ADD25O,0.04331X0.01102*%
%ADD47C,0.01200*%
%ADD48C,0.00578*%
%ADD49C,0.01500*%
%ADD50C,0.02500*%
%ADD51C,0.03000*%
%ADD52C,0.02000*%
%ADD53C,0.09843*%
%ADD54C,0.06200*%
%ADD55R,0.06200X0.06200*%
%ADD56R,0.06200X0.06200*%
%ADD57C,0.09055*%
%ADD58C,0.11024*%
%ADD59R,0.07087X0.07087*%
%ADD60C,0.07087*%
%ADD61C,0.11811*%
%ADD62C,0.01772*%
%ADD63C,0.02362*%
%ADD64C,0.03150*%
D10*
X153684Y286934D02*
Y291138D01*
X152900Y291922D02*
X153684Y291138D01*
X152900Y291922D02*
Y293300D01*
X150078Y297500D02*
X152900Y294678D01*
X139300Y297500D02*
X150078D01*
X135266Y301534D02*
X139300Y297500D01*
X131040Y301534D02*
X135266D01*
X152900Y293300D02*
Y294678D01*
X222004Y272596D02*
X224542D01*
X216123Y278477D02*
X222004Y272596D01*
X222204Y238096D02*
X224742D01*
X216323Y243977D02*
X222204Y238096D01*
X222504Y203596D02*
X225042D01*
X216623Y209477D02*
X222504Y203596D01*
Y168596D02*
X225042D01*
X216623Y174477D02*
X222504Y168596D01*
Y66096D02*
X225042D01*
X216623Y71977D02*
X222504Y66096D01*
Y100096D02*
X225042D01*
X216623Y105977D02*
X222504Y100096D01*
Y134096D02*
X225042D01*
X216623Y139977D02*
X222504Y134096D01*
X221504Y307096D02*
X224042D01*
X215623Y312977D02*
X221504Y307096D01*
D17*
X63300Y155000D02*
D03*
X68300Y155000D02*
D03*
X73300Y155000D02*
D03*
X78300D02*
D03*
X83300D02*
D03*
X88300D02*
D03*
X93300Y155000D02*
D03*
X98300Y155000D02*
D03*
X63300Y178400D02*
D03*
X68300Y178400D02*
D03*
X73300Y178400D02*
D03*
X78300D02*
D03*
X83300D02*
D03*
X88300D02*
D03*
X93300Y178400D02*
D03*
X98300Y178400D02*
D03*
D18*
X63200Y139400D02*
D03*
Y134400D02*
D03*
Y129400D02*
D03*
Y124400D02*
D03*
Y119400D02*
D03*
Y114400D02*
D03*
Y109400D02*
D03*
Y104400D02*
D03*
X86600Y139400D02*
D03*
Y134400D02*
D03*
Y129400D02*
D03*
Y124400D02*
D03*
Y119400D02*
D03*
Y114400D02*
D03*
Y109400D02*
D03*
Y104400D02*
D03*
D19*
X154860Y144068D02*
D03*
X158600Y135800D02*
D03*
X151120D02*
D03*
X142100Y144034D02*
D03*
X145840Y135766D02*
D03*
X138360D02*
D03*
X129300Y144034D02*
D03*
X133040Y135766D02*
D03*
X125560D02*
D03*
X154800Y117434D02*
D03*
X158540Y109166D02*
D03*
X151060D02*
D03*
X141800Y117434D02*
D03*
X145540Y109166D02*
D03*
X138060D02*
D03*
X129060Y117400D02*
D03*
X132800Y109132D02*
D03*
X125320D02*
D03*
X127300Y293266D02*
D03*
X134780D02*
D03*
X131040Y301534D02*
D03*
X126460Y241466D02*
D03*
X133940D02*
D03*
X130200Y249734D02*
D03*
X152900Y293300D02*
D03*
X160380D02*
D03*
X156640Y301568D02*
D03*
X140100Y293300D02*
D03*
X147580D02*
D03*
X143840Y301568D02*
D03*
X152160Y241366D02*
D03*
X159640D02*
D03*
X155900Y249634D02*
D03*
X139360Y241466D02*
D03*
X146840D02*
D03*
X143100Y249734D02*
D03*
X151660Y188166D02*
D03*
X159140D02*
D03*
X155400Y196434D02*
D03*
X138860Y188166D02*
D03*
X146340D02*
D03*
X142600Y196434D02*
D03*
X126160Y188166D02*
D03*
X133640D02*
D03*
X129900Y196434D02*
D03*
X151760Y162166D02*
D03*
X159240D02*
D03*
X155500Y170434D02*
D03*
X138960Y162166D02*
D03*
X146440D02*
D03*
X142700Y170434D02*
D03*
X125860Y162066D02*
D03*
X133340D02*
D03*
X129600Y170334D02*
D03*
X126260Y214732D02*
D03*
X133740D02*
D03*
X130000Y223000D02*
D03*
X139260Y214732D02*
D03*
X146740D02*
D03*
X143000Y223000D02*
D03*
X151960Y214732D02*
D03*
X159440D02*
D03*
X155700Y223000D02*
D03*
X156000Y276134D02*
D03*
X159740Y267866D02*
D03*
X152260D02*
D03*
X142900Y276134D02*
D03*
X146640Y267866D02*
D03*
X139160D02*
D03*
X129800Y276134D02*
D03*
X133540Y267866D02*
D03*
X126060D02*
D03*
D20*
X131856Y128900D02*
D03*
X126344Y128900D02*
D03*
X139144Y129000D02*
D03*
X144656Y129000D02*
D03*
X152144Y129100D02*
D03*
X157656Y129100D02*
D03*
X131571Y102466D02*
D03*
X126060Y102466D02*
D03*
X139004Y102366D02*
D03*
X144515Y102366D02*
D03*
X152104Y102466D02*
D03*
X157615Y102466D02*
D03*
X159196Y286934D02*
D03*
X153684Y286934D02*
D03*
X127685Y286834D02*
D03*
X133196Y286834D02*
D03*
X146296Y286834D02*
D03*
X140784Y286834D02*
D03*
X158656Y234900D02*
D03*
X153144Y234900D02*
D03*
X127144Y234800D02*
D03*
X132656Y234800D02*
D03*
X145956Y234800D02*
D03*
X140444Y234800D02*
D03*
X158256Y181800D02*
D03*
X152744Y181800D02*
D03*
X144956Y181800D02*
D03*
X139444Y181800D02*
D03*
X126744Y181800D02*
D03*
X132256Y181800D02*
D03*
X145356Y155500D02*
D03*
X139844Y155500D02*
D03*
X126644Y155400D02*
D03*
X132156Y155400D02*
D03*
X158256Y155500D02*
D03*
X152744Y155500D02*
D03*
X158256Y207966D02*
D03*
X152744Y207966D02*
D03*
X145356Y207966D02*
D03*
X139844Y207966D02*
D03*
X127144Y207966D02*
D03*
X132656Y207966D02*
D03*
X140444Y261300D02*
D03*
X145956Y261300D02*
D03*
X132456Y261300D02*
D03*
X126944Y261300D02*
D03*
X153244Y261300D02*
D03*
X158756Y261300D02*
D03*
X233000Y274000D02*
D03*
X238512Y274000D02*
D03*
X233000Y280000D02*
D03*
X238512Y280000D02*
D03*
X226511Y267500D02*
D03*
X215511D02*
D03*
X226511Y283500D02*
D03*
X215511D02*
D03*
X80400Y65000D02*
D03*
X85912Y65000D02*
D03*
X107356Y77800D02*
D03*
X101844Y77800D02*
D03*
X239012Y135500D02*
D03*
X233500Y135500D02*
D03*
X238756Y239500D02*
D03*
X233244Y239500D02*
D03*
X239012Y141500D02*
D03*
X233500Y141500D02*
D03*
X238756Y245500D02*
D03*
X233244Y245500D02*
D03*
X239012Y170000D02*
D03*
X233500Y170000D02*
D03*
X239012Y67500D02*
D03*
X233500Y67500D02*
D03*
X239012Y176000D02*
D03*
X233500Y176000D02*
D03*
X239012Y73500D02*
D03*
X233500Y73500D02*
D03*
X239000Y205000D02*
D03*
X233489Y205000D02*
D03*
X238000Y308500D02*
D03*
X232489Y308500D02*
D03*
X239012Y101500D02*
D03*
X233500Y101500D02*
D03*
X239000Y211000D02*
D03*
X233489Y211000D02*
D03*
X238000Y314500D02*
D03*
X232489Y314500D02*
D03*
X239012Y107500D02*
D03*
X233500Y107500D02*
D03*
X227011Y129000D02*
D03*
X216011D02*
D03*
X226756Y233000D02*
D03*
X215756D02*
D03*
X227011Y145000D02*
D03*
X216011D02*
D03*
X226756Y249000D02*
D03*
X215756D02*
D03*
X227011Y163500D02*
D03*
X216011D02*
D03*
X227011Y61000D02*
D03*
X216011D02*
D03*
X227011Y179500D02*
D03*
X216011D02*
D03*
X227011Y77000D02*
D03*
X216011D02*
D03*
X227000Y198500D02*
D03*
X216000D02*
D03*
X226000Y302000D02*
D03*
X215000D02*
D03*
X227011Y95000D02*
D03*
X216011D02*
D03*
X227000Y214500D02*
D03*
X216000D02*
D03*
X226000Y318000D02*
D03*
X215000D02*
D03*
X227011Y111000D02*
D03*
X216011D02*
D03*
D21*
X116600Y135444D02*
D03*
X116600Y140956D02*
D03*
X116960Y108410D02*
D03*
X116960Y113922D02*
D03*
X118440Y298189D02*
D03*
X118440Y292678D02*
D03*
X117900Y245856D02*
D03*
X117900Y240344D02*
D03*
X117400Y193456D02*
D03*
X117400Y187944D02*
D03*
X117700Y166856D02*
D03*
X117700Y161344D02*
D03*
X118500Y218922D02*
D03*
X118500Y213410D02*
D03*
X118300Y266444D02*
D03*
X118300Y271956D02*
D03*
X239000Y258244D02*
D03*
X239000Y263756D02*
D03*
X233000Y258244D02*
D03*
X233000Y263756D02*
D03*
X239500Y125256D02*
D03*
X239500Y119744D02*
D03*
X233500Y125256D02*
D03*
X233500Y119744D02*
D03*
X239244Y229256D02*
D03*
X239245Y223744D02*
D03*
X233244Y229256D02*
D03*
X233244Y223744D02*
D03*
X239500Y159756D02*
D03*
X239500Y154244D02*
D03*
X233500Y159756D02*
D03*
X233500Y154244D02*
D03*
X239500Y57256D02*
D03*
X239500Y51744D02*
D03*
X233500Y57256D02*
D03*
X233500Y51744D02*
D03*
X239489Y194756D02*
D03*
X239489Y189244D02*
D03*
X233489Y194756D02*
D03*
X233489Y189244D02*
D03*
X238489Y298256D02*
D03*
X238489Y292744D02*
D03*
X232489Y298256D02*
D03*
X232489Y292744D02*
D03*
X239500Y91256D02*
D03*
X239500Y85744D02*
D03*
X233500Y91256D02*
D03*
X233500Y85744D02*
D03*
D22*
X221000Y267500D02*
D03*
X210000D02*
D03*
X221000Y283500D02*
D03*
X210000D02*
D03*
X85956Y73900D02*
D03*
X80445D02*
D03*
X85656Y55700D02*
D03*
X80145D02*
D03*
X101645Y64100D02*
D03*
X107156D02*
D03*
X107355Y71000D02*
D03*
X101844D02*
D03*
X221500Y129000D02*
D03*
X210500D02*
D03*
X221244Y233000D02*
D03*
X210244D02*
D03*
X221500Y145000D02*
D03*
X210500D02*
D03*
X221244Y249000D02*
D03*
X210244D02*
D03*
X221500Y163500D02*
D03*
X210500D02*
D03*
X221500Y61000D02*
D03*
X210500D02*
D03*
X221500Y179500D02*
D03*
X210500D02*
D03*
X221500Y77000D02*
D03*
X210500D02*
D03*
X221489Y198500D02*
D03*
X210489D02*
D03*
X220489Y302000D02*
D03*
X209489D02*
D03*
X221500Y95000D02*
D03*
X210500D02*
D03*
X221489Y214500D02*
D03*
X210489D02*
D03*
X220489Y318000D02*
D03*
X209489D02*
D03*
X221500Y111000D02*
D03*
X210500D02*
D03*
D23*
X113700Y54355D02*
D03*
Y48844D02*
D03*
D24*
X106600Y54058D02*
D03*
Y48742D02*
D03*
X129500Y71258D02*
D03*
Y65943D02*
D03*
D25*
X212308Y123953D02*
D03*
Y121985D02*
D03*
Y120017D02*
D03*
Y118047D02*
D03*
X225693D02*
D03*
Y120017D02*
D03*
Y121985D02*
D03*
Y123953D02*
D03*
X212052Y227954D02*
D03*
Y225985D02*
D03*
Y224016D02*
D03*
Y222047D02*
D03*
X225437D02*
D03*
Y224016D02*
D03*
Y225985D02*
D03*
Y227954D02*
D03*
X212308Y139953D02*
D03*
Y137985D02*
D03*
Y136016D02*
D03*
Y134047D02*
D03*
X225693D02*
D03*
Y136016D02*
D03*
Y137985D02*
D03*
Y139953D02*
D03*
X212052Y243953D02*
D03*
Y241985D02*
D03*
Y240017D02*
D03*
Y238048D02*
D03*
X225437D02*
D03*
Y240017D02*
D03*
Y241985D02*
D03*
Y243953D02*
D03*
X212308Y158454D02*
D03*
Y156484D02*
D03*
Y154516D02*
D03*
Y152548D02*
D03*
X225693D02*
D03*
Y154516D02*
D03*
Y156484D02*
D03*
Y158454D02*
D03*
X211807Y262454D02*
D03*
Y260485D02*
D03*
Y258517D02*
D03*
Y256547D02*
D03*
X225192D02*
D03*
Y258517D02*
D03*
Y260485D02*
D03*
Y262454D02*
D03*
X212308Y55954D02*
D03*
Y53984D02*
D03*
Y52017D02*
D03*
Y50047D02*
D03*
X225693D02*
D03*
Y52017D02*
D03*
Y53984D02*
D03*
Y55954D02*
D03*
X212308Y174453D02*
D03*
Y172485D02*
D03*
Y170517D02*
D03*
Y168547D02*
D03*
X225693D02*
D03*
Y170517D02*
D03*
Y172485D02*
D03*
Y174453D02*
D03*
X211807Y278453D02*
D03*
Y276484D02*
D03*
Y274517D02*
D03*
Y272548D02*
D03*
X225192D02*
D03*
Y274517D02*
D03*
Y276484D02*
D03*
Y278453D02*
D03*
X212308Y71953D02*
D03*
Y69985D02*
D03*
Y68016D02*
D03*
Y66048D02*
D03*
X225693D02*
D03*
Y68016D02*
D03*
Y69985D02*
D03*
Y71953D02*
D03*
X212296Y193454D02*
D03*
Y191484D02*
D03*
Y189516D02*
D03*
Y187548D02*
D03*
X225681D02*
D03*
Y189516D02*
D03*
Y191484D02*
D03*
Y193454D02*
D03*
X211296Y296954D02*
D03*
Y294985D02*
D03*
Y293017D02*
D03*
Y291048D02*
D03*
X224681D02*
D03*
Y293017D02*
D03*
Y294985D02*
D03*
Y296954D02*
D03*
X212308Y89954D02*
D03*
Y87985D02*
D03*
Y86016D02*
D03*
Y84048D02*
D03*
X225693D02*
D03*
Y86016D02*
D03*
Y87985D02*
D03*
Y89954D02*
D03*
X212296Y209454D02*
D03*
Y207485D02*
D03*
Y205517D02*
D03*
Y203548D02*
D03*
X225681D02*
D03*
Y205517D02*
D03*
Y207485D02*
D03*
Y209454D02*
D03*
X211296Y312953D02*
D03*
Y310984D02*
D03*
Y309016D02*
D03*
Y307048D02*
D03*
X224681D02*
D03*
Y309016D02*
D03*
Y310984D02*
D03*
Y312953D02*
D03*
X212308Y105954D02*
D03*
Y103984D02*
D03*
Y102016D02*
D03*
Y100048D02*
D03*
X225693D02*
D03*
Y102016D02*
D03*
Y103984D02*
D03*
Y105954D02*
D03*
D47*
X210489Y198500D02*
X210567Y197500D01*
X210802Y196524D01*
X211186Y195597D01*
X211710Y194741D01*
X212362Y193978D01*
X210489Y163500D02*
X210567Y162500D01*
X210802Y161524D01*
X211186Y160597D01*
X211710Y159741D01*
X212362Y158978D01*
X210489Y129000D02*
X210567Y128000D01*
X210802Y127024D01*
X211186Y126097D01*
X211710Y125241D01*
X212362Y124478D01*
X210489Y95000D02*
X210567Y94000D01*
X210802Y93024D01*
X211186Y92097D01*
X211710Y91241D01*
X212362Y90478D01*
X210489Y61000D02*
X210567Y60000D01*
X210802Y59024D01*
X211186Y58097D01*
X211710Y57241D01*
X212362Y56478D01*
X209489Y302000D02*
X209567Y301000D01*
X209802Y300024D01*
X210186Y299097D01*
X210710Y298241D01*
X211362Y297478D01*
X209989Y267500D02*
X210067Y266500D01*
X210302Y265524D01*
X210686Y264597D01*
X211210Y263741D01*
X211862Y262978D01*
X224091Y312953D02*
X224755Y313731D01*
X225290Y314603D01*
X225681Y315548D01*
X225920Y316543D01*
X226000Y317563D01*
X224091Y296953D02*
X224755Y297731D01*
X225290Y298603D01*
X225681Y299548D01*
X225920Y300543D01*
X226000Y301563D01*
X224591Y278453D02*
X225255Y279231D01*
X225789Y280103D01*
X226181Y281048D01*
X226420Y282043D01*
X226500Y283063D01*
X224591Y262453D02*
X225255Y263231D01*
X225789Y264103D01*
X226181Y265048D01*
X226420Y266043D01*
X226500Y267063D01*
X225091Y209453D02*
X225755Y210231D01*
X226290Y211103D01*
X226681Y212048D01*
X226920Y213043D01*
X227000Y214063D01*
X224791Y243953D02*
X225455Y244731D01*
X225990Y245603D01*
X226381Y246548D01*
X226620Y247543D01*
X226700Y248563D01*
X224791Y227953D02*
X225455Y228731D01*
X225990Y229603D01*
X226381Y230548D01*
X226620Y231543D01*
X226700Y232563D01*
X225091Y193453D02*
X225755Y194231D01*
X226290Y195103D01*
X226681Y196048D01*
X226920Y197043D01*
X227000Y198063D01*
X225091Y158453D02*
X225755Y159231D01*
X226290Y160103D01*
X226681Y161048D01*
X226920Y162043D01*
X227000Y163063D01*
X225091Y139953D02*
X225755Y140731D01*
X226290Y141603D01*
X226681Y142548D01*
X226920Y143543D01*
X227000Y144563D01*
X225091Y123953D02*
X225755Y124731D01*
X226290Y125603D01*
X226681Y126548D01*
X226920Y127543D01*
X227000Y128563D01*
X225091Y174453D02*
X225755Y175231D01*
X226290Y176103D01*
X226681Y177048D01*
X226920Y178043D01*
X227000Y179063D01*
X225091Y89953D02*
X225755Y90731D01*
X226290Y91603D01*
X226681Y92548D01*
X226920Y93543D01*
X227000Y94563D01*
X225091Y105953D02*
X225755Y106731D01*
X226290Y107603D01*
X226681Y108548D01*
X226920Y109543D01*
X227000Y110563D01*
X225091Y71953D02*
X225755Y72731D01*
X226290Y73603D01*
X226681Y74548D01*
X226920Y75543D01*
X227000Y76563D01*
X225091Y55953D02*
X225755Y56731D01*
X226290Y57603D01*
X226681Y58548D01*
X226920Y59543D01*
X227000Y60563D01*
X123766Y207966D02*
X127144D01*
X103100Y187300D02*
X123766Y207966D01*
X103100Y172800D02*
Y187300D01*
X113400Y225800D02*
X122400Y234800D01*
X113400Y208000D02*
Y225800D01*
X93300Y187900D02*
X113400Y208000D01*
X102300Y271900D02*
X117268Y286868D01*
X102300Y247400D02*
Y271900D01*
X94100Y239200D02*
X102300Y247400D01*
X117268Y286868D02*
Y291703D01*
X109400Y257544D02*
X117128Y265272D01*
X109400Y243200D02*
Y257544D01*
X101800Y235600D02*
X109400Y243200D01*
X112800Y240700D02*
Y252200D01*
X106200Y234100D02*
X112800Y240700D01*
X106200Y212800D02*
Y234100D01*
X105900Y245500D02*
Y269500D01*
X97800Y237400D02*
X105900Y245500D01*
X97800Y215400D02*
Y237400D01*
X73300Y190900D02*
X97800Y215400D01*
X56500Y230500D02*
X69225Y243225D01*
X56500Y210100D02*
Y230500D01*
X211862Y262978D02*
X212387Y262453D01*
X212434Y262500D01*
X211362Y297478D02*
X211887Y296953D01*
X212362Y193978D02*
X212887Y193453D01*
Y158453D02*
X212934Y158500D01*
X212362Y158978D02*
X212887Y158453D01*
X212362Y124478D02*
X212887Y123953D01*
X212934Y124000D01*
X212887Y89953D02*
X212934Y90000D01*
X212887Y55953D02*
X212934Y56000D01*
X212362Y90478D02*
X212887Y89953D01*
X212362Y56478D02*
X212887Y55953D01*
X166400Y28200D02*
Y36500D01*
X154056Y48844D02*
X166400Y36500D01*
X113700Y48844D02*
X154056D01*
X166400Y28200D02*
X171800Y22800D01*
X75800Y165000D02*
X78300Y162500D01*
X77400Y171400D02*
X83300Y165500D01*
Y155000D02*
Y165500D01*
X78300Y155000D02*
Y162500D01*
X71800Y163100D02*
X73300Y161600D01*
Y155000D02*
Y161600D01*
X68300Y155000D02*
Y160900D01*
X88300Y155000D02*
X88350Y154950D01*
Y144850D02*
Y154950D01*
Y144850D02*
X88400Y144800D01*
X63200Y139400D02*
Y144900D01*
X59300Y155000D02*
X63300D01*
X54700Y150400D02*
X59300Y155000D01*
X54700Y117200D02*
Y150400D01*
Y117200D02*
X57500Y114400D01*
X63200D01*
X68300Y152626D02*
Y155000D01*
Y152626D02*
X70400Y150526D01*
Y135300D02*
Y150526D01*
X69500Y134400D02*
X70400Y135300D01*
X63200Y134400D02*
X69500D01*
X73300Y131700D02*
Y155000D01*
X71000Y129400D02*
X73300Y131700D01*
X63200Y129400D02*
X71000D01*
X78300Y144800D02*
Y155000D01*
X76200Y142700D02*
X78300Y144800D01*
X76200Y128400D02*
Y142700D01*
X72200Y124400D02*
X76200Y128400D01*
X63200Y124400D02*
X72200D01*
X83300Y145500D02*
Y155000D01*
X79000Y141200D02*
X83300Y145500D01*
X79000Y121400D02*
Y141200D01*
X77000Y119400D02*
X79000Y121400D01*
X63200Y119400D02*
X77000D01*
X122894Y99300D02*
X126060Y102466D01*
X80300Y99300D02*
X122894D01*
X70200Y109400D02*
X80300Y99300D01*
X63200Y109400D02*
X70200D01*
X107010Y108410D02*
X116960D01*
X103000Y104400D02*
X107010Y108410D01*
X86600Y104400D02*
X103000D01*
X113800Y128900D02*
X126344D01*
X94300Y109400D02*
X113800Y128900D01*
X86600Y109400D02*
X94300D01*
X112544Y135444D02*
X116600D01*
X91500Y114400D02*
X112544Y135444D01*
X86600Y114400D02*
X91500D01*
X86600Y119400D02*
X88958D01*
X123786Y154228D01*
X125670D01*
X126644Y155203D01*
Y155400D01*
X86600Y124400D02*
X88958D01*
X117700Y153142D01*
Y161344D01*
X120300Y181800D02*
X126744D01*
X111900Y173400D02*
X120300Y181800D01*
X111900Y152342D02*
Y173400D01*
X86600Y129400D02*
X88958D01*
X111900Y152342D01*
X117203Y187944D02*
X117400D01*
X116228Y186969D02*
X117203Y187944D01*
X116228Y186772D02*
Y186969D01*
X108300Y178844D02*
X116228Y186772D01*
X108300Y153742D02*
Y178844D01*
X86600Y134400D02*
X88958D01*
X108300Y153742D01*
X93300Y163000D02*
X103100Y172800D01*
X93300Y155000D02*
Y163000D01*
X118500Y207900D02*
Y213410D01*
X98300Y187700D02*
X118500Y207900D01*
X98300Y178400D02*
Y187700D01*
X118243Y292678D02*
X118440D01*
X117268Y291703D02*
X118243Y292678D01*
X94100Y216700D02*
Y239200D01*
X68300Y190900D02*
X94100Y216700D01*
X68300Y178400D02*
Y190900D01*
X123234Y286834D02*
X127685D01*
X105900Y269500D02*
X123234Y286834D01*
X73300Y178400D02*
Y190900D01*
X101800Y214400D02*
Y235600D01*
X78300Y190900D02*
X101800Y214400D01*
X78300Y178400D02*
Y190900D01*
X83300Y189900D02*
X106200Y212800D01*
X83300Y178400D02*
Y189900D01*
X109900Y211500D02*
Y232344D01*
X88300Y189900D02*
X109900Y211500D01*
X88300Y178400D02*
Y189900D01*
X93300Y178400D02*
Y187900D01*
X118103Y266444D02*
X118300D01*
X117128Y265469D02*
X118103Y266444D01*
X117128Y265272D02*
Y265469D01*
X121900Y261300D02*
X126944D01*
X112800Y252200D02*
X121900Y261300D01*
X117703Y240344D02*
X117900D01*
X116728Y239369D02*
X117703Y240344D01*
X116728Y239172D02*
Y239369D01*
X109900Y232344D02*
X116728Y239172D01*
X122400Y234800D02*
X127144D01*
X131300Y216600D02*
X131872D01*
X133740Y214732D01*
X226500Y283063D02*
Y283500D01*
Y267063D02*
Y267500D01*
X226700Y248563D02*
Y249000D01*
Y232563D02*
Y233000D01*
X227000Y179063D02*
Y179500D01*
X225064Y193427D02*
X225091Y193453D01*
X224067Y312977D02*
X224091Y312953D01*
X224064Y296927D02*
X224091Y296953D01*
X224567Y278477D02*
X224591Y278453D01*
X224564Y262427D02*
X224591Y262453D01*
X224767Y243977D02*
X224791Y243953D01*
X224764Y227927D02*
X224791Y227953D01*
X225067Y209477D02*
X225091Y209453D01*
X227000Y163063D02*
Y163500D01*
Y144563D02*
Y145000D01*
Y128563D02*
Y129000D01*
X225064Y158427D02*
X225091Y158453D01*
X225067Y139977D02*
X225091Y139953D01*
X225064Y123927D02*
X225091Y123953D01*
X227000Y110563D02*
Y111000D01*
Y94563D02*
Y95000D01*
Y76563D02*
Y77000D01*
Y60563D02*
Y61000D01*
X225067Y105977D02*
X225091Y105953D01*
X225067Y174477D02*
X225091Y174453D01*
X225064Y89927D02*
X225091Y89953D01*
X225067Y71977D02*
X225091Y71953D01*
X225064Y55927D02*
X225091Y55953D01*
X129600Y109100D02*
X129632Y109132D01*
X132800D01*
X144959Y109200D02*
X145540Y108619D01*
X142300Y109200D02*
X144959D01*
X145540Y107788D02*
Y108619D01*
X142800Y135700D02*
X142866Y135766D01*
X145840D01*
X130200Y135800D02*
X130234Y135766D01*
X133040D01*
X146440Y160788D02*
Y161281D01*
X143000Y160700D02*
X145859D01*
X146440Y161281D02*
Y162166D01*
X145859Y160700D02*
X146440Y161281D01*
X130100Y160700D02*
X132759D01*
X133340Y161281D02*
Y162066D01*
X132759Y160700D02*
X133340Y161281D01*
X143500Y188200D02*
X143534Y188166D01*
X146340D01*
X124600Y195800D02*
Y198700D01*
Y195800D02*
X130275Y190125D01*
X133059D01*
X133640Y188166D02*
Y189544D01*
X133059Y190125D02*
X133640Y189544D01*
X143900Y214700D02*
X143932Y214732D01*
X146740D01*
X125200Y248800D02*
Y251700D01*
Y248800D02*
X130575Y243425D01*
X133940Y241466D02*
Y242844D01*
X133359Y243425D02*
X133940Y242844D01*
X130575Y243425D02*
X133359D01*
X146259Y241300D02*
X146840Y240719D01*
X144100Y241300D02*
X146259D01*
X146840Y240088D02*
Y240719D01*
X122800Y276200D02*
Y280400D01*
Y276200D02*
X127000Y272000D01*
X128200D01*
X130375Y269825D01*
X133540Y267866D02*
Y269244D01*
X132959Y269825D02*
X133540Y269244D01*
X130375Y269825D02*
X132959D01*
X144366Y267866D02*
X146640D01*
X145000Y293300D02*
X147580D01*
X132134Y293266D02*
X134780D01*
X211268Y227953D02*
X212642D01*
X211069Y228152D02*
Y232175D01*
X212666Y227977D02*
X216277D01*
X144515Y102366D02*
Y106764D01*
X145540Y107788D01*
X144656Y129000D02*
Y133204D01*
X145840Y134388D01*
Y135766D01*
X145356Y155500D02*
Y159704D01*
X146440Y160788D01*
X146740Y209548D02*
Y214732D01*
X145356Y208163D02*
X146740Y209548D01*
X145356Y207966D02*
Y208163D01*
X145956Y234800D02*
Y239204D01*
X146840Y240088D01*
X145956Y261300D02*
Y265804D01*
X146640Y266488D01*
Y267866D01*
X146296Y286834D02*
Y290637D01*
X147580Y291922D01*
Y293300D01*
X215953Y272547D02*
X216000Y272500D01*
X212398Y272547D02*
X215953D01*
X220600Y262400D02*
X220627Y262427D01*
X136250Y382000D02*
X137000Y381250D01*
Y356900D02*
Y381250D01*
X121900Y341800D02*
X137000Y356900D01*
X126250Y349550D02*
Y382000D01*
X121200Y344500D02*
X126250Y349550D01*
X238989Y255311D02*
Y258244D01*
X239189Y220811D02*
Y223744D01*
X232989Y255311D02*
Y258244D01*
X233189Y220811D02*
Y223744D01*
X239489Y151311D02*
Y154244D01*
X233489Y151311D02*
Y154244D01*
X219889Y318000D02*
X220189Y317700D01*
X219689Y318000D02*
X220089Y317600D01*
X220889Y214500D02*
X221189Y214200D01*
X220689Y214500D02*
X221089Y214100D01*
X239489Y116811D02*
Y119744D01*
Y82811D02*
Y85744D01*
Y48811D02*
Y51744D01*
X233489Y116811D02*
Y119744D01*
Y82811D02*
Y85744D01*
Y48811D02*
Y51744D01*
X215900Y283100D02*
X216300Y283500D01*
X215000Y302000D02*
X220489D01*
X211887Y291048D02*
X224090D01*
X215500Y267500D02*
X220988D01*
X212387Y256547D02*
X224590D01*
X216100Y248600D02*
X216500Y249000D01*
X216400Y214100D02*
X216800Y214500D01*
X216000Y198500D02*
X221488D01*
X216400Y179100D02*
X216800Y179500D01*
X215700Y233000D02*
X221188D01*
X212587Y222047D02*
X224790D01*
X212887Y187548D02*
X225090D01*
X216000Y179500D02*
X216400Y179100D01*
X215400Y317600D02*
X215800Y318000D01*
X215500Y283500D02*
X215900Y283100D01*
X215700Y249000D02*
X216100Y248600D01*
X216000Y163500D02*
X221488D01*
X216400Y144600D02*
X216800Y145000D01*
X216000D02*
X216400Y144600D01*
X216000Y129000D02*
X221488D01*
X216000Y111000D02*
X216400Y110600D01*
X212887Y152548D02*
X225090D01*
X212887Y118047D02*
X225090D01*
X216000Y95000D02*
X221488D01*
X216400Y110600D02*
X216800Y111000D01*
X216000Y61000D02*
X221488D01*
X216400Y76600D02*
X216800Y77000D01*
X216000D02*
X216400Y76600D01*
X212887Y84048D02*
X225090D01*
X212887Y50047D02*
X225090D01*
X45700Y87200D02*
Y96500D01*
X26200Y116000D02*
X45700Y96500D01*
X78000Y292000D02*
X95500Y309500D01*
X78000Y238300D02*
Y292000D01*
X67100Y227400D02*
X78000Y238300D01*
X75700Y293660D02*
X93740Y311700D01*
X75700Y239600D02*
Y293660D01*
X64300Y228200D02*
X75700Y239600D01*
X71300Y296755D02*
X91072Y316528D01*
X71300Y242100D02*
Y296755D01*
X59000Y229800D02*
X71300Y242100D01*
X73500Y295420D02*
X92080Y314000D01*
X73500Y240900D02*
Y295420D01*
X61500Y228900D02*
X73500Y240900D01*
X69225Y243225D02*
Y298216D01*
X67300Y244500D02*
Y300600D01*
X48800Y226000D02*
X67300Y244500D01*
Y300600D02*
X88000Y321300D01*
X69225Y298216D02*
X90009Y319000D01*
X113700Y54356D02*
X119644D01*
X121800Y52200D01*
X80144Y55700D02*
Y58744D01*
X81700Y60300D01*
X95900D02*
X100000Y64400D01*
X81700Y60300D02*
X95900D01*
X67900Y65000D02*
X80400D01*
X45700Y87200D02*
X67900Y65000D01*
X101113Y70269D02*
X101844Y71000D01*
X98469Y70269D02*
X101113D01*
X93200Y65000D02*
X98469Y70269D01*
X85912Y65000D02*
X93200D01*
X196070Y28870D02*
Y31470D01*
X190000Y22800D02*
X196070Y28870D01*
X171800Y22800D02*
X190000D01*
X122100Y75100D02*
X124200D01*
X115000Y82200D02*
X122100Y75100D01*
X103900Y82200D02*
X115000D01*
X102500Y80800D02*
X103900Y82200D01*
X102500Y78656D02*
Y80800D01*
X101644Y77800D02*
X102500Y78656D01*
X6800Y116000D02*
X26200D01*
X65200Y245700D02*
Y302177D01*
X62900Y246400D02*
Y303130D01*
X60700Y248200D02*
Y305100D01*
X41400Y228900D02*
X60700Y248200D01*
Y305100D02*
X83700Y328100D01*
X43900Y227400D02*
X62900Y246400D01*
Y303130D02*
X85570Y325800D01*
X46200Y226700D02*
X65200Y245700D01*
Y302177D02*
X86623Y323600D01*
X58300Y249400D02*
Y306200D01*
X38800Y229900D02*
X58300Y249400D01*
Y306200D02*
X82400Y330300D01*
X55900Y250700D02*
Y307100D01*
X36200Y231000D02*
X55900Y250700D01*
Y307100D02*
X81600Y332800D01*
X233489Y48811D02*
X233500Y48800D01*
X239489Y48811D02*
X239500Y48800D01*
X224602Y272547D02*
X226698D01*
X224591D02*
X224602D01*
X224846Y238047D02*
X226898D01*
X224791D02*
X224846D01*
X225102Y168547D02*
X227198D01*
X225091D02*
X225102D01*
Y134047D02*
X227198D01*
X225091D02*
X225102D01*
Y100047D02*
X227198D01*
X225091D02*
X225102D01*
Y66047D02*
X227198D01*
X225091D02*
X225102D01*
X224602Y256547D02*
X226698D01*
X224591D02*
X224602D01*
X224846Y222047D02*
X226898D01*
X224791D02*
X224846D01*
X220189Y283500D02*
X220389D01*
X219915D02*
X220189D01*
X216600D02*
X219915D01*
X220389Y249000D02*
X220589D01*
X220115D02*
X220389D01*
X216800D02*
X220115D01*
X220689Y214500D02*
X220889D01*
X220415D02*
X220689D01*
X217100D02*
X220415D01*
X220689Y179500D02*
X220889D01*
X220415D02*
X220689D01*
X217100D02*
X220415D01*
X225102Y152547D02*
X227198D01*
X225091D02*
X225102D01*
Y118047D02*
X227198D01*
X225091D02*
X225102D01*
Y84047D02*
X227198D01*
X225091D02*
X225102D01*
Y50047D02*
X227198D01*
X225091D02*
X225102D01*
X220689Y145000D02*
X220889D01*
X220415D02*
X220689D01*
X217100D02*
X220415D01*
X220689Y111000D02*
X220889D01*
X220415D02*
X220689D01*
X217100D02*
X220415D01*
X220689Y77000D02*
X220889D01*
X220415D02*
X220689D01*
X217100D02*
X220415D01*
X219689Y318000D02*
X219889D01*
X219415D02*
X219689D01*
X216100D02*
X219415D01*
X212387Y272547D02*
X212398D01*
X212642Y238047D02*
X216153D01*
X212587D02*
X212642D01*
X212898Y168547D02*
X216453D01*
X212887D02*
X212898D01*
Y134047D02*
X216453D01*
X212887D02*
X212898D01*
Y100047D02*
X216453D01*
X212887D02*
X212898D01*
Y66047D02*
X216453D01*
X212887D02*
X212898D01*
X228645Y48600D02*
X228700D01*
X4200Y118600D02*
Y183000D01*
Y118600D02*
X6800Y116000D01*
X4200Y183000D02*
X7100Y185900D01*
X287000Y374800D02*
Y382000D01*
X285900Y373700D02*
X287000Y374800D01*
X263400Y364900D02*
X272200Y373700D01*
X285900D01*
X263400Y354800D02*
Y364900D01*
X255300Y346700D02*
X263400Y354800D01*
X177400Y346700D02*
X255300D01*
X260800Y365800D02*
X277000Y382000D01*
X260800Y355500D02*
Y365800D01*
X254300Y349000D02*
X260800Y355500D01*
X266457Y381457D02*
X267000Y382000D01*
X266457Y376657D02*
Y381457D01*
X265100Y375300D02*
X266457Y376657D01*
X256500Y375300D02*
X265100D01*
X247600Y366400D02*
X256500Y375300D01*
X231200Y366400D02*
X247600D01*
X216300Y351500D02*
X231200Y366400D01*
X256600Y380400D02*
Y381600D01*
X245100Y368900D02*
X256600Y380400D01*
X229745Y368900D02*
X245100D01*
X256600Y381600D02*
X257000Y382000D01*
X214672Y353828D02*
X229745Y368900D01*
X246900Y381900D02*
X247000Y382000D01*
X246900Y376300D02*
Y381900D01*
X228509Y371200D02*
X241800D01*
X246900Y376300D01*
X213309Y356000D02*
X228509Y371200D01*
X174280Y351500D02*
X216300D01*
X136780Y314000D02*
X174280Y351500D01*
X175740Y349000D02*
X254300D01*
X138440Y311700D02*
X175740Y349000D01*
X140200Y309500D02*
X177400Y346700D01*
X171709Y356000D02*
X213309D01*
X134709Y319000D02*
X171709Y356000D01*
X91072Y316528D02*
X135772D01*
X173072Y353828D01*
X92080Y314000D02*
X136780D01*
X93740Y311700D02*
X138440D01*
X95500Y309500D02*
X140200D01*
X90009Y319000D02*
X134709D01*
X59000Y209100D02*
Y229800D01*
X61500Y208200D02*
Y228900D01*
X64300Y207300D02*
Y228200D01*
X67100Y206300D02*
Y227400D01*
X52100Y205700D02*
X56500Y210100D01*
X52100Y196800D02*
Y205700D01*
X26400Y171100D02*
X52100Y196800D01*
X21600Y171100D02*
X26400D01*
X21500Y171000D02*
X21600Y171100D01*
X55000Y205100D02*
X59000Y209100D01*
X55000Y195800D02*
Y205100D01*
X25100Y165900D02*
X55000Y195800D01*
X16400Y165900D02*
X25100D01*
X11500Y161000D02*
X16400Y165900D01*
X57700Y194400D02*
Y204400D01*
X61500Y208200D01*
X25257Y161957D02*
X57700Y194400D01*
X22457Y161957D02*
X25257D01*
X21500Y161000D02*
X22457Y161957D01*
X60400Y203400D02*
X64300Y207300D01*
X60400Y191700D02*
Y203400D01*
X24800Y156100D02*
X60400Y191700D01*
X16600Y156100D02*
X24800D01*
X11500Y151000D02*
X16600Y156100D01*
X63000Y202200D02*
X67100Y206300D01*
X63000Y188700D02*
Y202200D01*
X26257Y151957D02*
X63000Y188700D01*
X22457Y151957D02*
X26257D01*
X21500Y151000D02*
X22457Y151957D01*
X173072Y353828D02*
X214672D01*
X88000Y321300D02*
X132900D01*
X170000Y358400D01*
X172500Y370400D02*
X176250Y374150D01*
X164700Y370400D02*
X172500D01*
X127100Y332800D02*
X164700Y370400D01*
X197330Y363100D02*
X216230Y382000D01*
X167770Y363100D02*
X197330D01*
X130470Y325800D02*
X167770Y363100D01*
X205600Y360600D02*
X227000Y382000D01*
X168523Y360600D02*
X205600D01*
X131523Y323600D02*
X168523Y360600D01*
X210800Y358400D02*
X226500Y374100D01*
X170000Y358400D02*
X210800D01*
X237000Y376000D02*
Y382000D01*
X235100Y374100D02*
X237000Y376000D01*
X226500Y374100D02*
X235100D01*
X216230Y382000D02*
X217000D01*
X86623Y323600D02*
X131523D01*
X85570Y325800D02*
X130470D01*
X46200Y202200D02*
Y226700D01*
X48800Y199000D02*
Y226000D01*
X24700Y185900D02*
X43900Y205100D01*
X7100Y185900D02*
X24700D01*
X25400Y181400D02*
X46200Y202200D01*
X21900Y181400D02*
X25400D01*
X21500Y181000D02*
X21900Y181400D01*
X25800Y176000D02*
X48800Y199000D01*
X16500Y176000D02*
X25800D01*
X11500Y171000D02*
X16500Y176000D01*
X43900Y205100D02*
Y227400D01*
X16500Y196000D02*
X26600D01*
X38800Y208200D02*
Y229900D01*
X26600Y196000D02*
X38800Y208200D01*
X11500Y191000D02*
X16500Y196000D01*
X26400Y191000D02*
X41400Y206000D01*
X21500Y191000D02*
X26400D01*
X41400Y206000D02*
Y228900D01*
X196250Y373050D02*
Y382000D01*
X188600Y365400D02*
X196250Y373050D01*
X166400Y365400D02*
X188600D01*
X129100Y328100D02*
X166400Y365400D01*
X83700Y328100D02*
X129100D01*
X186250Y373050D02*
Y382000D01*
X180900Y367700D02*
X186250Y373050D01*
X128000Y330300D02*
X165400Y367700D01*
X180900D01*
X82400Y330300D02*
X128000D01*
X176250Y374150D02*
Y382000D01*
X81600Y332800D02*
X127100D01*
X36200Y210000D02*
Y231000D01*
X27200Y201000D02*
X36200Y210000D01*
X21500Y201000D02*
X27200D01*
X166250Y375450D02*
Y382000D01*
X125800Y335000D02*
X166250Y375450D01*
X53600Y308000D02*
X80600Y335000D01*
X125800D01*
X53600Y252000D02*
Y308000D01*
X33700Y232100D02*
X53600Y252000D01*
X33700Y214500D02*
Y232100D01*
X25200Y206000D02*
X33700Y214500D01*
X17000Y206000D02*
X25200D01*
X11500Y201000D02*
X12000D01*
X17000Y206000D01*
X156250Y382000D02*
X156400Y381850D01*
Y369100D02*
Y381850D01*
X124500Y337200D02*
X156400Y369100D01*
X51300Y309300D02*
X79200Y337200D01*
X124500D01*
X77300Y339400D02*
X123200D01*
X51300Y253100D02*
Y309300D01*
X31200Y233000D02*
X51300Y253100D01*
X31200Y216700D02*
Y233000D01*
X25400Y210900D02*
X31200Y216700D01*
X21500Y211000D02*
X21600Y210900D01*
X25400D01*
X146250Y362450D02*
Y382000D01*
X123200Y339400D02*
X146250Y362450D01*
X48500Y310600D02*
X77300Y339400D01*
X48500Y253900D02*
Y310600D01*
X28700Y234100D02*
X48500Y253900D01*
X28700Y220300D02*
Y234100D01*
X24400Y216000D02*
X28700Y220300D01*
X11500Y211000D02*
X16500Y216000D01*
X24400D01*
X76300Y341800D02*
X121900D01*
X46400Y311900D02*
X76300Y341800D01*
X46400Y256100D02*
Y311900D01*
X26100Y235800D02*
X46400Y256100D01*
X18800Y235800D02*
X26100D01*
X16500Y231200D02*
X16600Y231300D01*
Y233600D01*
X18800Y235800D01*
X16500Y225900D02*
Y231200D01*
X11600Y221000D02*
X16500Y225900D01*
X11500Y221000D02*
X11600D01*
X44300Y313500D02*
X75300Y344500D01*
X121200D01*
X44300Y263800D02*
Y313500D01*
X21500Y241000D02*
X44300Y263800D01*
X94100Y370600D02*
X105500Y382000D01*
X75800Y370600D02*
X94100D01*
X66600Y361400D02*
X75800Y370600D01*
X41600Y361400D02*
X66600D01*
X30600Y350400D02*
X41600Y361400D01*
X30600Y300200D02*
Y350400D01*
Y300200D02*
X41500Y289300D01*
Y267700D02*
Y289300D01*
X25600Y251800D02*
X41500Y267700D01*
X21500Y251000D02*
X22300Y251800D01*
X25600D01*
X86300Y372800D02*
X95500Y382000D01*
X74500Y372800D02*
X86300D01*
X40500Y363700D02*
X65400D01*
X74500Y372800D01*
X28200Y299200D02*
Y351400D01*
X40500Y363700D01*
X28200Y299200D02*
X39300Y288100D01*
X34600Y274400D02*
Y285500D01*
X23200Y296900D02*
X34600Y285500D01*
X39300Y270400D02*
Y288100D01*
X39000Y270000D02*
Y270100D01*
X39300Y270400D01*
X25400Y256400D02*
X39000Y270000D01*
X11500Y251400D02*
X16500Y256400D01*
X25400D01*
X11500Y251000D02*
Y251400D01*
X84374Y380874D02*
X85500Y382000D01*
X84374Y376974D02*
Y380874D01*
X82400Y375000D02*
X84374Y376974D01*
X64100Y366100D02*
X73000Y375000D01*
X82400D01*
X39600Y366100D02*
X64100D01*
X25800Y352300D02*
X39600Y366100D01*
X25800Y298100D02*
Y352300D01*
X37000Y272600D02*
Y286900D01*
X25800Y298100D02*
X37000Y286900D01*
X26357Y261957D02*
X37000Y272600D01*
X21500Y261000D02*
X22457Y261957D01*
X26357D01*
X61800Y368300D02*
X75500Y382000D01*
X38400Y368300D02*
X61800D01*
X23200Y353100D02*
X38400Y368300D01*
X23200Y296900D02*
Y353100D01*
X20500Y314000D02*
Y354000D01*
X20400Y313900D02*
X20500Y314000D01*
X20400Y296200D02*
Y313900D01*
X26000Y265800D02*
X34600Y274400D01*
X17200Y265800D02*
X26000D01*
X11500Y261000D02*
X12400D01*
X17200Y265800D01*
X54300Y370800D02*
X65500Y382000D01*
X20500Y354000D02*
X37300Y370800D01*
X54300D01*
X20400Y296200D02*
X32200Y284400D01*
Y277500D02*
Y284400D01*
X25900Y271200D02*
X32200Y277500D01*
X21500Y271000D02*
X21700Y271200D01*
X25900D01*
X55400Y381900D02*
X55500Y382000D01*
X55400Y377500D02*
Y381900D01*
X36000Y373200D02*
X51100D01*
X55400Y377500D01*
X17700Y354900D02*
X36000Y373200D01*
X17700Y294100D02*
Y354900D01*
Y294100D02*
X29200Y282600D01*
Y279100D02*
Y282600D01*
X26100Y276000D02*
X29200Y279100D01*
X11900Y271000D02*
X16900Y276000D01*
X26100D01*
X11500Y271000D02*
X11900D01*
X44300Y375700D02*
X45257Y376657D01*
X34600Y375700D02*
X44300D01*
X14700Y355800D02*
X34600Y375700D01*
X45257Y381757D02*
X45500Y382000D01*
X45257Y376657D02*
Y381757D01*
X14700Y288800D02*
Y355800D01*
X21500Y281000D02*
Y282000D01*
X14700Y288800D02*
X21500Y282000D01*
X11500Y281000D02*
Y358000D01*
X35500Y382000D01*
X221100Y158400D02*
X221127Y158427D01*
X216300Y283500D02*
X216600D01*
X220589Y283100D02*
X220689Y283200D01*
X220389Y283500D02*
X220689Y283200D01*
X220189Y283500D02*
X220589Y283100D01*
X220988Y267500D02*
X220989Y267500D01*
X215500D02*
X215500Y267500D01*
X232989Y255311D02*
X233000Y255300D01*
X238989Y255311D02*
X239000Y255300D01*
X221223Y278477D02*
X224567D01*
X221200Y278500D02*
X221223Y278477D01*
X224542Y272596D02*
X224591Y272547D01*
X220627Y262427D02*
X224564D01*
X226698Y256547D02*
X228145Y255100D01*
X228200D01*
X224590Y256547D02*
X224591Y256547D01*
X212387D02*
X212387Y256547D01*
X212434Y262500D02*
X216100D01*
X216500Y249000D02*
X216800D01*
X220789Y248600D02*
X220889Y248700D01*
X220589Y249000D02*
X220889Y248700D01*
X220389Y249000D02*
X220789Y248600D01*
X221188Y233000D02*
X221189Y233000D01*
X215700D02*
X215700Y233000D01*
X233189Y220811D02*
X233200Y220800D01*
X239189Y220811D02*
X239200Y220800D01*
X221423Y243977D02*
X224767D01*
X221400Y244000D02*
X221423Y243977D01*
X227735Y237209D02*
X228291D01*
X228400Y237100D01*
X226898Y238047D02*
X227735Y237209D01*
X216153Y238047D02*
X216200Y238000D01*
X224742Y238096D02*
X224791Y238047D01*
X220827Y227927D02*
X224764D01*
X220800Y227900D02*
X220827Y227927D01*
X226898Y222047D02*
X228345Y220600D01*
X228400D01*
X224790Y222047D02*
X224791Y222047D01*
X212587D02*
X212587Y222047D01*
X216800Y214500D02*
X217100D01*
X221089Y214100D02*
X221189Y214200D01*
X216000Y214500D02*
X216400Y214100D01*
X221488Y198500D02*
X221489Y198500D01*
X216000D02*
X216000Y198500D01*
X233489Y186311D02*
Y189244D01*
Y186311D02*
X233500Y186300D01*
X239489Y186311D02*
Y189244D01*
Y186311D02*
X239500Y186300D01*
X227000Y214063D02*
Y214500D01*
X221723Y209477D02*
X225067D01*
X221700Y209500D02*
X221723Y209477D01*
X228035Y202709D02*
X228591D01*
X228700Y202600D01*
X227198Y203547D02*
X228035Y202709D01*
X225091Y203547D02*
X227198D01*
X216453D02*
X216500Y203500D01*
X212887Y203547D02*
X216453D01*
X225042Y203596D02*
X225091Y203547D01*
X227000Y198063D02*
Y198500D01*
X221127Y193427D02*
X225064D01*
X221100Y193400D02*
X221127Y193427D01*
X227198Y187547D02*
X228645Y186100D01*
X228700D01*
X225090Y187548D02*
X225091Y187547D01*
X227198D01*
X212887D02*
X212887Y187548D01*
X212934Y193500D02*
X216600D01*
X212887Y193453D02*
X212934Y193500D01*
X216800Y179500D02*
X217100D01*
X221089Y179100D02*
X221189Y179200D01*
X220889Y179500D02*
X221189Y179200D01*
X220689Y179500D02*
X221089Y179100D01*
X221488Y163500D02*
X221489Y163500D01*
X216000D02*
X216000Y163500D01*
X233489Y151311D02*
X233500Y151300D01*
X239489Y151311D02*
X239500Y151300D01*
X221723Y174477D02*
X225067D01*
X221700Y174500D02*
X221723Y174477D01*
X228035Y167709D02*
X228591D01*
X228700Y167600D01*
X227198Y168547D02*
X228035Y167709D01*
X216453Y168547D02*
X216500Y168500D01*
X225042Y168596D02*
X225091Y168547D01*
X221127Y158427D02*
X225064D01*
X227198Y152547D02*
X228645Y151100D01*
X228700D01*
X225090Y152548D02*
X225091Y152547D01*
X212887D02*
X212887Y152548D01*
X212934Y158500D02*
X216600D01*
X216800Y77000D02*
X217100D01*
X221089Y76600D02*
X221189Y76700D01*
X220889Y77000D02*
X221189Y76700D01*
X220689Y77000D02*
X221089Y76600D01*
X221488Y61000D02*
X221489Y61000D01*
X216000D02*
X216000Y61000D01*
X221723Y71977D02*
X225067D01*
X221700Y72000D02*
X221723Y71977D01*
X228035Y65209D02*
X228591D01*
X228700Y65100D01*
X227198Y66047D02*
X228035Y65209D01*
X216453Y66047D02*
X216500Y66000D01*
X225042Y66096D02*
X225091Y66047D01*
X221127Y55927D02*
X225064D01*
X221100Y55900D02*
X221127Y55927D01*
X227198Y50047D02*
X228645Y48600D01*
X225090Y50047D02*
X225091Y50047D01*
X212887D02*
X212887Y50047D01*
X212934Y56000D02*
X216600D01*
X216800Y111000D02*
X217100D01*
X221089Y110600D02*
X221189Y110700D01*
X220889Y111000D02*
X221189Y110700D01*
X220689Y111000D02*
X221089Y110600D01*
X221488Y95000D02*
X221489Y95000D01*
X216000D02*
X216000Y95000D01*
X233489Y82811D02*
X233500Y82800D01*
X239489Y82811D02*
X239500Y82800D01*
X221723Y105977D02*
X225067D01*
X221700Y106000D02*
X221723Y105977D01*
X228591Y99209D02*
X228700Y99100D01*
X228035Y99209D02*
X228591D01*
X227198Y100047D02*
X228035Y99209D01*
X216453Y100047D02*
X216500Y100000D01*
X225042Y100096D02*
X225091Y100047D01*
X221127Y89927D02*
X225064D01*
X221100Y89900D02*
X221127Y89927D01*
X227198Y84047D02*
X228645Y82600D01*
X228700D01*
X225090Y84048D02*
X225091Y84047D01*
X212887D02*
X212887Y84048D01*
X212934Y90000D02*
X216600D01*
X216800Y145000D02*
X217100D01*
X220889D02*
X221189Y144700D01*
X221089Y144600D02*
X221189Y144700D01*
X220689Y145000D02*
X221089Y144600D01*
X221488Y129000D02*
X221489Y129000D01*
X216000D02*
X216000Y129000D01*
X233489Y116811D02*
X233500Y116800D01*
X239489Y116811D02*
X239500Y116800D01*
X221723Y139977D02*
X225067D01*
X221700Y140000D02*
X221723Y139977D01*
X228035Y133209D02*
X228591D01*
X228700Y133100D01*
X227198Y134047D02*
X228035Y133209D01*
X216453Y134047D02*
X216500Y134000D01*
X225042Y134096D02*
X225091Y134047D01*
X221127Y123927D02*
X225064D01*
X221100Y123900D02*
X221127Y123927D01*
X227198Y118047D02*
X228645Y116600D01*
X228700D01*
X225090Y118047D02*
X225091Y118047D01*
X212887D02*
X212887Y118047D01*
X212934Y124000D02*
X216600D01*
X220723Y312977D02*
X224067D01*
X220700Y313000D02*
X220723Y312977D01*
X220127Y296927D02*
X224064D01*
X220100Y296900D02*
X220127Y296927D01*
X224091Y307047D02*
X226198D01*
X224042Y307096D02*
X224091Y307047D01*
X215453D02*
X215500Y307000D01*
X211887Y307047D02*
X215453D01*
X215800Y318000D02*
X216100D01*
X220089Y317600D02*
X220189Y317700D01*
X215000Y318000D02*
X215400Y317600D01*
X215000Y302000D02*
X215000Y302000D01*
X220489D02*
X220489Y302000D01*
X232489Y289811D02*
X232500Y289800D01*
X238489Y289811D02*
Y292744D01*
Y289811D02*
X238500Y289800D01*
X232489Y289811D02*
Y292744D01*
X224091Y291047D02*
X226198D01*
X211887D02*
X211887Y291048D01*
X224090D02*
X224091Y291047D01*
X211934Y297000D02*
X215600D01*
X211887Y296953D02*
X211934Y297000D01*
X226000Y301563D02*
Y302000D01*
Y317563D02*
Y318000D01*
D48*
X30800Y50200D02*
X30848Y49220D01*
X30992Y48249D01*
X31231Y47297D01*
X31561Y46373D01*
X31981Y45486D01*
X32485Y44644D01*
X33070Y43856D01*
X33729Y43129D01*
X34456Y42470D01*
X35244Y41885D01*
X36086Y41381D01*
X36973Y40961D01*
X37897Y40631D01*
X38849Y40392D01*
X39820Y40248D01*
X40800Y40200D01*
X114600Y28800D02*
X114654Y27837D01*
X114816Y26886D01*
X115083Y25960D01*
X115452Y25069D01*
X115918Y24225D01*
X116476Y23438D01*
X117119Y22719D01*
X117838Y22076D01*
X118624Y21518D01*
X119469Y21052D01*
X120360Y20683D01*
X121286Y20416D01*
X122237Y20254D01*
X123200Y20200D01*
X114600Y30200D02*
X114552Y31180D01*
X114408Y32151D01*
X114169Y33103D01*
X113839Y34027D01*
X113419Y34914D01*
X112915Y35756D01*
X112330Y36544D01*
X111671Y37271D01*
X110944Y37930D01*
X110156Y38515D01*
X109314Y39019D01*
X108427Y39439D01*
X107503Y39769D01*
X106551Y40008D01*
X105580Y40152D01*
X104600Y40200D01*
X21500Y29100D02*
X21568Y28069D01*
X21769Y27055D01*
X22101Y26077D01*
X22558Y25150D01*
X23133Y24291D01*
X23814Y23514D01*
X24591Y22832D01*
X25450Y22258D01*
X26377Y21801D01*
X27355Y21469D01*
X28369Y21268D01*
X29400Y21200D01*
X232489Y308500D02*
X232487Y308502D01*
X29101Y97599D02*
X29100Y97600D01*
X30600Y93979D02*
X30502Y94977D01*
X30210Y95938D01*
X29737Y96823D01*
X29101Y97599D01*
X28629Y98071D02*
X27902Y98730D01*
X27114Y99315D01*
X26272Y99819D01*
X25385Y100239D01*
X24461Y100569D01*
X23509Y100808D01*
X22538Y100952D01*
X21558Y101000D01*
X365297Y219400D02*
X366277Y219448D01*
X367248Y219592D01*
X368200Y219831D01*
X369124Y220161D01*
X370011Y220581D01*
X370853Y221085D01*
X371641Y221670D01*
X372368Y222329D01*
X291484Y219400D02*
X290504Y219352D01*
X289533Y219208D01*
X288581Y218969D01*
X287657Y218639D01*
X286770Y218219D01*
X285928Y217715D01*
X285140Y217130D01*
X284413Y216471D01*
X370997Y215100D02*
X371977Y215148D01*
X372948Y215292D01*
X373900Y215531D01*
X374824Y215861D01*
X375711Y216281D01*
X376553Y216785D01*
X377341Y217370D01*
X378068Y218029D01*
X316517Y215100D02*
X315537Y215052D01*
X314566Y214908D01*
X313614Y214669D01*
X312690Y214339D01*
X311803Y213919D01*
X310962Y213415D01*
X310173Y212830D01*
X309446Y212171D01*
X342601Y211850D02*
X341621Y211802D01*
X340650Y211658D01*
X339698Y211420D01*
X338774Y211089D01*
X337887Y210670D01*
X337045Y210165D01*
X336257Y209580D01*
X335530Y208922D01*
X360250Y204308D02*
X360952Y203681D01*
X361719Y203137D01*
X362543Y202681D01*
X363412Y202321D01*
X364317Y202061D01*
X365244Y201903D01*
X366184Y201850D01*
X294500Y261400D02*
X295315Y260704D01*
X296228Y260144D01*
X297218Y259734D01*
X298260Y259484D01*
X299328Y259400D01*
X345929Y256471D02*
X345202Y257130D01*
X344414Y257715D01*
X343572Y258219D01*
X342685Y258639D01*
X341761Y258969D01*
X340809Y259208D01*
X339838Y259352D01*
X338858Y259400D01*
X357621Y244779D02*
X358348Y244120D01*
X359136Y243536D01*
X359978Y243031D01*
X360865Y242612D01*
X361789Y242281D01*
X362741Y242042D01*
X363712Y241898D01*
X364692Y241850D01*
X291600Y268401D02*
X291648Y267431D01*
X291790Y266470D01*
X292026Y265527D01*
X292354Y264612D01*
X292769Y263734D01*
X293269Y262900D01*
X293847Y262120D01*
X294500Y261400D01*
X290700Y285400D02*
X289933Y286085D01*
X289095Y286680D01*
X288195Y287177D01*
X287246Y287571D01*
X286258Y287855D01*
X285244Y288027D01*
X284218Y288085D01*
X291600Y283227D02*
X291366Y284403D01*
X290700Y285400D01*
X332400Y266800D02*
X332159Y266900D01*
X350029Y263971D02*
X349302Y264630D01*
X348514Y265215D01*
X347672Y265719D01*
X346785Y266139D01*
X345861Y266469D01*
X344909Y266708D01*
X343938Y266852D01*
X342958Y266900D01*
X359221Y254779D02*
X359948Y254120D01*
X360736Y253536D01*
X361578Y253031D01*
X362465Y252612D01*
X363389Y252281D01*
X364341Y252043D01*
X365312Y251899D01*
X366292Y251850D01*
X324000Y269300D02*
X324714Y268662D01*
X325494Y268108D01*
X326332Y267645D01*
X327216Y267279D01*
X328136Y267014D01*
X329080Y266854D01*
X330035Y266800D01*
X322600Y272680D02*
X322692Y271747D01*
X322964Y270851D01*
X323406Y270024D01*
X324000Y269300D01*
X320600Y286300D02*
X319873Y286921D01*
X319057Y287421D01*
X318174Y287787D01*
X317244Y288010D01*
X316291Y288085D01*
X322600Y281472D02*
X322516Y282540D01*
X322266Y283582D01*
X321856Y284572D01*
X321296Y285485D01*
X320600Y286300D01*
X350700Y275942D02*
X350748Y274962D01*
X350892Y273991D01*
X351131Y273039D01*
X351461Y272115D01*
X351881Y271228D01*
X352385Y270386D01*
X352970Y269598D01*
X353629Y268871D01*
X357721Y264779D02*
X358448Y264120D01*
X359236Y263536D01*
X360078Y263031D01*
X360965Y262612D01*
X361889Y262281D01*
X362841Y262042D01*
X363812Y261898D01*
X364792Y261850D01*
X348644Y285156D02*
X347917Y285815D01*
X347129Y286400D01*
X346287Y286904D01*
X345400Y287324D01*
X344476Y287654D01*
X343524Y287893D01*
X342553Y288037D01*
X341573Y288085D01*
X350700Y280500D02*
X350623Y281482D01*
X350393Y282440D01*
X350016Y283350D01*
X349501Y284190D01*
X348862Y284939D01*
X368584Y285156D02*
X367857Y285815D01*
X367069Y286400D01*
X366227Y286904D01*
X365340Y287324D01*
X364416Y287654D01*
X363464Y287893D01*
X362493Y288037D01*
X361513Y288085D01*
X187226Y310984D02*
X186246Y310936D01*
X185275Y310792D01*
X184323Y310553D01*
X183399Y310223D01*
X182512Y309803D01*
X181670Y309299D01*
X180882Y308714D01*
X180155Y308055D01*
X172683Y300583D02*
X172054Y299815D01*
X171586Y298939D01*
X171297Y297989D01*
X171200Y297000D01*
Y265442D02*
X171248Y264462D01*
X171392Y263491D01*
X171631Y262539D01*
X171961Y261615D01*
X172381Y260728D01*
X172885Y259886D01*
X173470Y259098D01*
X174129Y258371D01*
X191358Y309016D02*
X190378Y308968D01*
X189407Y308824D01*
X188455Y308585D01*
X187531Y308255D01*
X186644Y307835D01*
X185802Y307331D01*
X185014Y306746D01*
X184287Y306087D01*
X177129Y298929D02*
X176470Y298202D01*
X175885Y297414D01*
X175381Y296572D01*
X174961Y295685D01*
X174631Y294761D01*
X174392Y293809D01*
X174248Y292838D01*
X174200Y291858D01*
Y272442D02*
X174248Y271462D01*
X174392Y270491D01*
X174631Y269539D01*
X174961Y268615D01*
X175381Y267728D01*
X175885Y266886D01*
X176470Y266098D01*
X177129Y265371D01*
X206141Y294984D02*
X205219Y294893D01*
X204333Y294624D01*
X203516Y294188D01*
X202800Y293600D01*
X201778Y292578D02*
X201202Y291716D01*
X201000Y290700D01*
X198071Y277571D02*
X198730Y278298D01*
X199315Y279086D01*
X199819Y279928D01*
X200239Y280815D01*
X200569Y281739D01*
X200808Y282691D01*
X200952Y283662D01*
X201000Y284642D01*
X208577Y293016D02*
X207701Y292930D01*
X206858Y292674D01*
X206081Y292259D01*
X205400Y291700D01*
X204803Y290922D01*
X204428Y290016D01*
X204300Y289044D01*
X201371Y274971D02*
X202030Y275698D01*
X202615Y276486D01*
X203119Y277328D01*
X203539Y278215D01*
X203869Y279139D01*
X204108Y280091D01*
X204252Y281062D01*
X204300Y282042D01*
X198197Y271797D02*
X197607Y271106D01*
X197132Y270331D01*
X196784Y269491D01*
X196571Y268606D01*
X196500Y267700D01*
X195298Y264798D02*
X195950Y265648D01*
X196360Y266638D01*
X196500Y267700D01*
X210226Y276484D02*
X209246Y276436D01*
X208275Y276292D01*
X207323Y276053D01*
X206399Y275723D01*
X205512Y275303D01*
X204670Y274799D01*
X203882Y274214D01*
X203155Y273555D01*
X201629Y272029D02*
X200970Y271302D01*
X200385Y270514D01*
X199881Y269672D01*
X199461Y268785D01*
X199131Y267861D01*
X198892Y266909D01*
X198748Y265938D01*
X198700Y264958D01*
X197201Y247401D02*
X197837Y248177D01*
X198310Y249062D01*
X198602Y250023D01*
X198700Y251021D01*
X197200Y247400D02*
X197201Y247401D01*
X193700Y245900D02*
X194642Y245993D01*
X195548Y246268D01*
X196382Y246714D01*
X197114Y247314D01*
X190542Y245900D02*
X189562Y245852D01*
X188591Y245708D01*
X187639Y245469D01*
X186715Y245139D01*
X185828Y244719D01*
X184986Y244215D01*
X184198Y243630D01*
X183471Y242971D01*
X209060Y274516D02*
X208050Y274417D01*
X207079Y274122D01*
X206184Y273644D01*
X205400Y273000D01*
X203429Y271029D02*
X202770Y270302D01*
X202185Y269514D01*
X201681Y268672D01*
X201261Y267785D01*
X200931Y266861D01*
X200692Y265909D01*
X200548Y264938D01*
X200500Y263958D01*
X199300Y245500D02*
X199951Y246349D01*
X200360Y247337D01*
X200500Y248397D01*
X191500Y241000D02*
X192540Y241068D01*
X193562Y241271D01*
X194549Y241606D01*
X195483Y242067D01*
X196350Y242646D01*
X197133Y243333D01*
X205086Y260484D02*
X204400Y260200D01*
X202695Y258494D02*
X202200Y257300D01*
X199271Y242332D02*
X199930Y243059D01*
X200515Y243847D01*
X201019Y244689D01*
X201439Y245576D01*
X201769Y246500D01*
X202008Y247452D01*
X202152Y248423D01*
X202200Y249403D01*
X190238Y236000D02*
X191363Y236068D01*
X192471Y236271D01*
X193546Y236606D01*
X190238Y236000D02*
X189090Y235849D01*
X188019Y235405D01*
X187100Y234700D01*
X186600Y233493D01*
X184691Y224191D02*
X185355Y224969D01*
X185889Y225841D01*
X186281Y226786D01*
X186520Y227780D01*
X186600Y228800D01*
X206216Y258516D02*
X205108Y258219D01*
X204297Y257408D01*
X204000Y256300D01*
X201071Y241671D02*
X201730Y242398D01*
X202315Y243186D01*
X202819Y244028D01*
X203239Y244915D01*
X203569Y245839D01*
X203808Y246791D01*
X203952Y247762D01*
X204000Y248742D01*
X199129Y239729D02*
X198470Y239002D01*
X197885Y238214D01*
X197381Y237372D01*
X196961Y236485D01*
X196631Y235561D01*
X196392Y234609D01*
X196248Y233638D01*
X196200Y232658D01*
X191500Y221000D02*
X192546Y221118D01*
X193539Y221465D01*
X194430Y222025D01*
X195175Y222770D01*
X195735Y223661D01*
X196082Y224654D01*
X196200Y225700D01*
X207900Y241984D02*
X206920Y241936D01*
X205949Y241792D01*
X204997Y241553D01*
X204073Y241223D01*
X203186Y240803D01*
X202344Y240299D01*
X201556Y239714D01*
X200829Y239055D01*
X200170Y238328D01*
X199585Y237540D01*
X199081Y236698D01*
X198661Y235811D01*
X198331Y234887D01*
X198092Y233935D01*
X197948Y232964D01*
X197900Y231984D01*
X194600Y215900D02*
X195620Y216061D01*
X196540Y216530D01*
X197270Y217260D01*
X197739Y218180D01*
X197900Y219200D01*
X186400Y215900D02*
X185444Y215806D01*
X184525Y215527D01*
X183678Y215074D01*
X182935Y214465D01*
X182326Y213722D01*
X181873Y212875D01*
X181594Y211956D01*
X181500Y211000D01*
X210000Y240016D02*
X209020Y239968D01*
X208049Y239824D01*
X207097Y239585D01*
X206173Y239255D01*
X205286Y238835D01*
X204444Y238331D01*
X203656Y237746D01*
X202929Y237087D01*
X202270Y236360D01*
X201685Y235572D01*
X201181Y234730D01*
X200761Y233843D01*
X200431Y232919D01*
X200192Y231967D01*
X200048Y230996D01*
X200000Y230016D01*
X193600Y211000D02*
X194601Y211079D01*
X195578Y211313D01*
X196505Y211698D01*
X197362Y212222D01*
X198126Y212875D01*
X198778Y213638D01*
X199302Y214494D01*
X199687Y215422D01*
X199921Y216399D01*
X200000Y217400D01*
X208124Y225984D02*
X207069Y225880D01*
X206054Y225572D01*
X205119Y225073D01*
X204300Y224400D01*
X203706Y223676D01*
X203264Y222849D01*
X202992Y221953D01*
X202900Y221020D01*
X199971Y209371D02*
X200630Y210098D01*
X201215Y210886D01*
X201719Y211728D01*
X202139Y212615D01*
X202469Y213539D01*
X202708Y214491D01*
X202852Y215462D01*
X202900Y216442D01*
X196599Y205999D02*
X196600Y206000D01*
X196599Y205999D02*
X196600Y206000D01*
X196599Y205999D02*
X196600Y206000D01*
X196115Y205800D02*
X196599Y205999D01*
X196599Y205999D01*
X190600Y205800D02*
X189769Y205635D01*
X189064Y205164D01*
X181500Y201000D02*
X182571Y201070D01*
X183624Y201280D01*
X184641Y201625D01*
X185604Y202100D01*
X186497Y202696D01*
X187304Y203404D01*
X192158Y201000D02*
X193138Y201048D01*
X194109Y201192D01*
X195061Y201431D01*
X195985Y201761D01*
X196872Y202181D01*
X197714Y202685D01*
X198502Y203270D01*
X199229Y203929D01*
X208953Y224016D02*
X208055Y223898D01*
X207218Y223551D01*
X206500Y223000D01*
X205982Y222225D01*
X205800Y221310D01*
X204929Y209629D02*
X205406Y210480D01*
X205700Y211410D01*
X205800Y212380D01*
X207684Y207484D02*
X206717Y207408D01*
X205773Y207181D01*
X204876Y206810D01*
X204049Y206303D01*
X203311Y205673D01*
X202681Y204935D01*
X202174Y204107D01*
X201803Y203211D01*
X201576Y202267D01*
X201500Y201300D01*
X195800Y195600D02*
X196790Y195687D01*
X197749Y195944D01*
X198650Y196364D01*
X199464Y196933D01*
X200167Y197636D01*
X200736Y198450D01*
X201156Y199351D01*
X201413Y200310D01*
X201500Y201300D01*
X186100Y195600D02*
X185076Y195485D01*
X184104Y195144D01*
X183232Y194596D01*
X182504Y193868D01*
X181956Y192996D01*
X181615Y192024D01*
X181500Y191000D01*
X209516Y205516D02*
X208541Y205431D01*
X207595Y205177D01*
X206708Y204764D01*
X205906Y204202D01*
X205214Y203510D01*
X204652Y202708D01*
X204239Y201821D01*
X203985Y200875D01*
X203900Y199900D01*
X195000Y191000D02*
X195996Y191056D01*
X196980Y191223D01*
X197940Y191499D01*
X198862Y191881D01*
X199735Y192364D01*
X200549Y192942D01*
X201293Y193607D01*
X201958Y194351D01*
X202536Y195165D01*
X203019Y196038D01*
X203400Y196960D01*
X203677Y197919D01*
X203844Y198904D01*
X203900Y199900D01*
X208826Y191484D02*
X207846Y191436D01*
X206875Y191292D01*
X205923Y191053D01*
X204999Y190723D01*
X204112Y190303D01*
X203270Y189799D01*
X202482Y189214D01*
X201755Y188555D01*
X196213Y185700D02*
X197228Y185780D01*
X198218Y186018D01*
X199158Y186407D01*
X200026Y186939D01*
X200800Y187600D01*
X190342Y185700D02*
X189362Y185652D01*
X188391Y185508D01*
X187439Y185269D01*
X186515Y184939D01*
X185628Y184519D01*
X184786Y184015D01*
X183998Y183430D01*
X183271Y182771D01*
X210640Y189516D02*
X209664Y189468D01*
X208698Y189325D01*
X207750Y189087D01*
X206830Y188758D01*
X205947Y188340D01*
X205109Y187838D01*
X204324Y187256D01*
X203600Y186600D01*
X193858Y181000D02*
X194838Y181048D01*
X195809Y181192D01*
X196761Y181431D01*
X197685Y181761D01*
X198572Y182181D01*
X199414Y182685D01*
X200202Y183270D01*
X200929Y183929D01*
X198900Y174700D02*
X197981Y175405D01*
X196910Y175849D01*
X195762Y176000D01*
X198900Y174700D02*
X199644Y174048D01*
X200467Y173498D01*
X201355Y173060D01*
X202292Y172742D01*
X203262Y172549D01*
X204250Y172484D01*
X188200Y176000D02*
X187138Y175860D01*
X186148Y175450D01*
X185298Y174798D01*
X191500Y171000D02*
X192668Y170516D01*
X202900Y158700D02*
X203644Y158047D01*
X204467Y157498D01*
X205355Y157060D01*
X206292Y156742D01*
X207262Y156549D01*
X208250Y156484D01*
X202900Y158700D02*
X202128Y159377D01*
X201274Y159948D01*
X200352Y160402D01*
X199380Y160732D01*
X198372Y160933D01*
X197347Y161000D01*
X185453Y157047D02*
X186392Y156420D01*
X187500Y156200D01*
X204400Y155100D02*
X203622Y155697D01*
X202716Y156072D01*
X201744Y156200D01*
X204400Y155100D02*
X205047Y154668D01*
X205810Y154516D01*
X204887Y140913D02*
X205614Y140254D01*
X206402Y139669D01*
X207244Y139165D01*
X208131Y138745D01*
X209055Y138415D01*
X210007Y138176D01*
X210978Y138032D01*
X211958Y137984D01*
X197133Y148667D02*
X196350Y149354D01*
X195483Y149933D01*
X194549Y150394D01*
X193562Y150728D01*
X192540Y150932D01*
X191500Y151000D01*
X203655Y138945D02*
X204382Y138286D01*
X205170Y137701D01*
X206012Y137197D01*
X206899Y136777D01*
X207823Y136447D01*
X208775Y136208D01*
X209746Y136064D01*
X210726Y136016D01*
X199729Y142871D02*
X199002Y143530D01*
X198214Y144115D01*
X197372Y144619D01*
X196485Y145039D01*
X195561Y145369D01*
X194609Y145608D01*
X193638Y145752D01*
X192658Y145800D01*
X183804Y148696D02*
X184524Y148044D01*
X185304Y147466D01*
X186137Y146967D01*
X187014Y146553D01*
X187928Y146226D01*
X188870Y145990D01*
X189830Y145848D01*
X190800Y145800D01*
X200887Y124913D02*
X201614Y124254D01*
X202402Y123669D01*
X203244Y123165D01*
X204131Y122745D01*
X205055Y122415D01*
X206007Y122176D01*
X206978Y122032D01*
X207958Y121984D01*
X197133Y128667D02*
X196350Y129354D01*
X195483Y129933D01*
X194549Y130394D01*
X193562Y130728D01*
X192540Y130932D01*
X191500Y131000D01*
X200500Y122500D02*
X201209Y121866D01*
X201985Y121316D01*
X202817Y120856D01*
X203696Y120492D01*
X204610Y120229D01*
X205547Y120069D01*
X206497Y120016D01*
X184651Y127849D02*
X185486Y127136D01*
X186422Y126563D01*
X187437Y126143D01*
X188505Y125886D01*
X189600Y125800D01*
X200129Y122871D02*
X199402Y123530D01*
X198614Y124115D01*
X197772Y124619D01*
X196885Y125039D01*
X195961Y125369D01*
X195009Y125608D01*
X194038Y125752D01*
X193058Y125800D01*
X207297Y106303D02*
X208076Y105620D01*
X208938Y105045D01*
X209867Y104587D01*
X210848Y104254D01*
X211864Y104052D01*
X212898Y103984D01*
X193378Y120222D02*
X192516Y120798D01*
X191500Y121000D01*
X205555Y104945D02*
X206282Y104286D01*
X207070Y103701D01*
X207912Y103197D01*
X208799Y102777D01*
X209723Y102447D01*
X210675Y102208D01*
X211646Y102064D01*
X212626Y102016D01*
X185427Y117073D02*
X186327Y116382D01*
X187375Y115948D01*
X188500Y115800D01*
X196000Y114500D02*
X195081Y115205D01*
X194010Y115649D01*
X192861Y115800D01*
X203000Y90790D02*
X203182Y89875D01*
X203700Y89100D01*
X204489Y88494D01*
X205408Y88114D01*
X206394Y87984D01*
X195939Y109161D02*
X195189Y109801D01*
X194350Y110316D01*
X193440Y110693D01*
X192482Y110923D01*
X191500Y111000D01*
X203000Y97958D02*
X202952Y98938D01*
X202808Y99909D01*
X202569Y100861D01*
X202239Y101785D01*
X201819Y102672D01*
X201315Y103514D01*
X200730Y104302D01*
X200071Y105029D01*
X196758Y103642D02*
X196056Y104269D01*
X195289Y104814D01*
X194465Y105269D01*
X193596Y105629D01*
X192692Y105890D01*
X191764Y106047D01*
X190824Y106100D01*
X183800Y106800D02*
X184575Y106282D01*
X185490Y106100D01*
X202489Y87211D02*
X203334Y86563D01*
X204318Y86155D01*
X205374Y86016D01*
X201100Y95158D02*
X201052Y96138D01*
X200908Y97109D01*
X200669Y98061D01*
X200339Y98985D01*
X199919Y99872D01*
X199415Y100714D01*
X198830Y101502D01*
X198171Y102229D01*
X201100Y89800D02*
X201321Y88691D01*
X201948Y87752D01*
X181500Y111000D02*
X181588Y110105D01*
X181849Y109245D01*
X182273Y108452D01*
X182843Y107756D01*
X197600Y89230D02*
X197539Y90166D01*
X197356Y91085D01*
X197054Y91974D01*
X196640Y92814D01*
X196119Y93594D01*
X195501Y94299D01*
X197600Y77742D02*
X197648Y76762D01*
X197792Y75791D01*
X198031Y74839D01*
X198361Y73915D01*
X198781Y73028D01*
X199285Y72186D01*
X199870Y71398D01*
X200529Y70671D01*
X200529Y70671D02*
X201287Y69994D01*
X202116Y69405D01*
X203006Y68914D01*
X203945Y68525D01*
X204922Y68243D01*
X205924Y68073D01*
X206939Y68016D01*
X194671Y95129D02*
X193984Y95656D01*
X193185Y95987D01*
X192327Y96100D01*
X183471Y99029D02*
X184198Y98370D01*
X184986Y97785D01*
X185828Y97281D01*
X186715Y96861D01*
X187639Y96531D01*
X188591Y96292D01*
X189562Y96148D01*
X190542Y96100D01*
X194429Y56871D02*
X195146Y56221D01*
X195923Y55645D01*
X196752Y55148D01*
X197627Y54734D01*
X198538Y54409D01*
X199476Y54173D01*
X200433Y54031D01*
X201399Y53984D01*
X191500Y63942D02*
X191548Y62962D01*
X191692Y61991D01*
X191931Y61039D01*
X192261Y60115D01*
X192681Y59228D01*
X193185Y58386D01*
X193770Y57598D01*
X194429Y56871D01*
X202529Y71471D02*
X203298Y70840D01*
X204176Y70371D01*
X205129Y70082D01*
X206119Y69984D01*
X199600Y78542D02*
X199648Y77562D01*
X199792Y76591D01*
X200031Y75639D01*
X200361Y74715D01*
X200781Y73828D01*
X201285Y72986D01*
X201870Y72198D01*
X202529Y71471D01*
X199600Y86888D02*
X199563Y87923D01*
X199452Y88954D01*
X199268Y89973D01*
X199012Y90977D01*
X198685Y91960D01*
X198288Y92917D01*
X197825Y93844D01*
X197296Y94735D01*
X196705Y95586D01*
X196055Y96393D01*
X195349Y97151D01*
X181500Y62016D02*
X181548Y61036D01*
X181692Y60065D01*
X181931Y59113D01*
X182261Y58189D01*
X182681Y57302D01*
X183185Y56460D01*
X183770Y55672D01*
X184429Y54945D01*
X185156Y54286D01*
X185944Y53701D01*
X186786Y53197D01*
X187673Y52777D01*
X188597Y52447D01*
X189549Y52208D01*
X190520Y52064D01*
X191500Y52016D01*
X239489Y66321D02*
X239000Y67500D01*
X272250Y65135D02*
X271456Y65831D01*
X270578Y66418D01*
X269630Y66885D01*
X268630Y67225D01*
X267594Y67431D01*
X266540Y67500D01*
X296147Y70571D02*
X295420Y71230D01*
X294632Y71815D01*
X293790Y72319D01*
X292903Y72739D01*
X291979Y73069D01*
X291027Y73308D01*
X290056Y73452D01*
X289076Y73500D01*
X236733Y88500D02*
X237787Y88710D01*
X238681Y89307D01*
X239279Y90201D01*
X239489Y91256D01*
X256873Y88327D02*
X256146Y88986D01*
X255358Y89571D01*
X254516Y90075D01*
X253629Y90495D01*
X252705Y90825D01*
X251753Y91064D01*
X250782Y91208D01*
X249802Y91256D01*
X263864Y81336D02*
X264613Y80697D01*
X265453Y80183D01*
X266362Y79807D01*
X267319Y79577D01*
X268300Y79500D01*
X319481Y76571D02*
X318754Y77230D01*
X317965Y77815D01*
X317124Y78319D01*
X316236Y78739D01*
X315312Y79069D01*
X314360Y79308D01*
X313390Y79452D01*
X312409Y79500D01*
X247029Y104571D02*
X246302Y105230D01*
X245514Y105815D01*
X244672Y106319D01*
X243785Y106739D01*
X242861Y107069D01*
X241909Y107308D01*
X240938Y107452D01*
X239958Y107500D01*
X360250Y73682D02*
X360105Y74787D01*
X359678Y75816D01*
X359000Y76700D01*
X265571Y86029D02*
X266298Y85370D01*
X267086Y84785D01*
X267928Y84281D01*
X268815Y83861D01*
X269739Y83531D01*
X270691Y83292D01*
X271662Y83148D01*
X272642Y83100D01*
X355529Y80171D02*
X354802Y80830D01*
X354014Y81415D01*
X353172Y81919D01*
X352285Y82339D01*
X351361Y82669D01*
X350409Y82908D01*
X349438Y83052D01*
X348458Y83100D01*
X255111Y135500D02*
X256091Y135548D01*
X257062Y135692D01*
X258014Y135931D01*
X258938Y136261D01*
X259825Y136681D01*
X260667Y137185D01*
X261455Y137770D01*
X262182Y138429D01*
X239489Y134321D02*
X239000Y135500D01*
X292968Y157112D02*
X292128Y157757D01*
X291150Y158162D01*
X290100Y158300D01*
X259954D02*
X258974Y158252D01*
X258003Y158108D01*
X257051Y157869D01*
X256127Y157539D01*
X255240Y157119D01*
X254398Y156615D01*
X253610Y156030D01*
X252883Y155371D01*
X239489Y168821D02*
X239000Y170000D01*
X312342Y167071D02*
X311615Y167730D01*
X310827Y168315D01*
X309985Y168819D01*
X309098Y169239D01*
X308174Y169569D01*
X307222Y169808D01*
X306251Y169952D01*
X305271Y170000D01*
X335676Y173071D02*
X334948Y173730D01*
X334160Y174315D01*
X333318Y174819D01*
X332431Y175239D01*
X331507Y175569D01*
X330555Y175808D01*
X329585Y175952D01*
X328605Y176000D01*
X262479Y231858D02*
X261575Y231769D01*
X260704Y231505D01*
X259903Y231077D01*
X259200Y230500D01*
X258552Y229761D01*
X258006Y228944D01*
X257572Y228063D01*
X257256Y227133D01*
X257064Y226169D01*
X257000Y225189D01*
X254172Y217972D02*
X254808Y218674D01*
X255373Y219435D01*
X255860Y220248D01*
X256265Y221105D01*
X256584Y221997D01*
X256814Y222916D01*
X256954Y223853D01*
X257000Y224800D01*
X239489Y203821D02*
X239000Y205000D01*
X240036Y205102D01*
X241031Y205404D01*
X241949Y205894D01*
X242753Y206553D01*
X295542Y237900D02*
X294809Y238526D01*
X293988Y239030D01*
X293098Y239399D01*
X292161Y239624D01*
X291200Y239700D01*
X257346D02*
X256384Y239624D01*
X255447Y239399D01*
X254556Y239030D01*
X253733Y238526D01*
X253000Y237900D01*
X251978Y236878D02*
X251290Y236071D01*
X250736Y235167D01*
X250330Y234188D01*
X250083Y233157D01*
X250000Y232100D01*
X247071Y219071D02*
X247730Y219798D01*
X248315Y220586D01*
X248819Y221428D01*
X249239Y222315D01*
X249569Y223239D01*
X249808Y224191D01*
X249952Y225162D01*
X250000Y226142D01*
X323004Y239771D02*
X322277Y240430D01*
X321488Y241015D01*
X320647Y241519D01*
X319760Y241939D01*
X318836Y242269D01*
X317884Y242508D01*
X316913Y242652D01*
X315933Y242700D01*
X246098D02*
X245118Y242652D01*
X244147Y242508D01*
X243195Y242269D01*
X242271Y241939D01*
X241384Y241519D01*
X240542Y241015D01*
X239754Y240430D01*
X239027Y239771D01*
X239189Y238321D02*
X238700Y239500D01*
X346037Y246071D02*
X345310Y246730D01*
X344522Y247315D01*
X343680Y247819D01*
X342793Y248239D01*
X341869Y248569D01*
X340917Y248808D01*
X339946Y248952D01*
X338966Y249000D01*
X246398D02*
X245418Y248952D01*
X244447Y248808D01*
X243495Y248569D01*
X242571Y248239D01*
X241684Y247819D01*
X240842Y247315D01*
X240054Y246730D01*
X239327Y246071D01*
X330300Y317124D02*
X330460Y316318D01*
X330917Y315635D01*
X260942Y327300D02*
X259962Y327252D01*
X258991Y327108D01*
X258039Y326869D01*
X257116Y326539D01*
X256228Y326119D01*
X255387Y325615D01*
X254598Y325030D01*
X253871Y324371D01*
X328329Y324371D02*
X327602Y325030D01*
X326814Y325615D01*
X325972Y326119D01*
X325085Y326539D01*
X324161Y326869D01*
X323209Y327108D01*
X322238Y327252D01*
X321258Y327300D01*
X238489Y307321D02*
X238000Y308500D01*
X235733Y295500D02*
X236787Y295710D01*
X237681Y296307D01*
X238279Y297201D01*
X238489Y298256D01*
X230383Y295500D02*
X229900Y295300D01*
X228899Y294299D02*
X228900Y294300D01*
X225800Y293016D02*
X226935Y293165D01*
X227992Y293603D01*
X228899Y294299D01*
X266235Y315635D02*
X265207Y315581D01*
X264190Y315420D01*
X263196Y315154D01*
X262235Y314785D01*
X261317Y314317D01*
X260454Y313757D01*
X259654Y313109D01*
X258926Y312381D01*
X258278Y311581D01*
X257718Y310718D01*
X257250Y309800D01*
X256881Y308839D01*
X256615Y307845D01*
X256454Y306828D01*
X256400Y305800D01*
X253471Y288960D02*
X254130Y289687D01*
X254715Y290475D01*
X255219Y291317D01*
X255639Y292204D01*
X255969Y293128D01*
X256208Y294080D01*
X256352Y295050D01*
X256400Y296030D01*
X238989Y272821D02*
X238500Y274000D01*
X294776Y322442D02*
X294074Y323019D01*
X293273Y323447D01*
X292404Y323711D01*
X291500Y323800D01*
X261870D02*
X260934Y323739D01*
X260014Y323556D01*
X259126Y323254D01*
X258285Y322839D01*
X257505Y322318D01*
X256800Y321700D01*
X255429Y320329D02*
X254770Y319602D01*
X254185Y318814D01*
X253681Y317972D01*
X253261Y317085D01*
X252931Y316161D01*
X252692Y315209D01*
X252548Y314238D01*
X252500Y313258D01*
X249571Y291059D02*
X250230Y291787D01*
X250815Y292575D01*
X251319Y293417D01*
X251739Y294304D01*
X252069Y295228D01*
X252308Y296180D01*
X252452Y297150D01*
X252500Y298130D01*
X360250Y320200D02*
X360202Y321180D01*
X360058Y322151D01*
X359819Y323103D01*
X359489Y324027D01*
X359069Y324914D01*
X358565Y325756D01*
X357980Y326544D01*
X357321Y327271D01*
X356594Y327930D01*
X355806Y328515D01*
X354964Y329019D01*
X354077Y329439D01*
X353153Y329769D01*
X352201Y330008D01*
X351230Y330152D01*
X350250Y330200D01*
X256842D02*
X255862Y330152D01*
X254891Y330008D01*
X253939Y329769D01*
X253015Y329439D01*
X252128Y329019D01*
X251286Y328515D01*
X250498Y327930D01*
X249771Y327271D01*
X237076Y314576D02*
X236188Y314338D01*
X235538Y313688D01*
X235300Y312800D01*
X237576Y280076D02*
X236688Y279838D01*
X236038Y279188D01*
X235800Y278300D01*
X232989Y263756D02*
X233621Y264454D01*
X234182Y265211D01*
X234667Y266019D01*
X235069Y266870D01*
X235387Y267757D01*
X235616Y268671D01*
X235754Y269602D01*
X235800Y270543D01*
X225528Y276484D02*
X226508Y276532D01*
X227479Y276676D01*
X228431Y276915D01*
X229355Y277245D01*
X230242Y277665D01*
X231083Y278169D01*
X231872Y278754D01*
X232599Y279413D01*
X232989Y274000D02*
X232987Y274002D01*
X231743Y274516D01*
X232332Y263756D02*
X231222Y263610D01*
X230188Y263181D01*
X229300Y262500D01*
X228087Y261287D02*
X228088Y261288D01*
X226148Y260484D02*
X227197Y260693D01*
X228087Y261287D01*
X236233Y261000D02*
X237287Y261210D01*
X238181Y261807D01*
X238779Y262701D01*
X238989Y263756D01*
X230607Y261000D02*
X229400Y260500D01*
X226095Y258516D02*
X226921Y258625D01*
X227690Y258943D01*
X228350Y259450D01*
X237776Y245576D02*
X236888Y245338D01*
X236238Y244688D01*
X236000Y243800D01*
X233189Y229256D02*
X233821Y229954D01*
X234382Y230711D01*
X234867Y231519D01*
X235269Y232370D01*
X235587Y233257D01*
X235816Y234171D01*
X235954Y235103D01*
X236000Y236043D01*
X225728Y241984D02*
X226708Y242032D01*
X227679Y242176D01*
X228630Y242415D01*
X229555Y242745D01*
X230442Y243165D01*
X231283Y243669D01*
X232072Y244254D01*
X232799Y244913D01*
X233189Y239500D02*
X233187Y239502D01*
X231943Y240016D01*
X232532Y229256D02*
X231422Y229110D01*
X230388Y228681D01*
X229500Y228000D01*
X228287Y226787D02*
X228288Y226788D01*
X226347Y225984D02*
X227397Y226193D01*
X228287Y226787D01*
X236433Y226500D02*
X237487Y226710D01*
X238381Y227307D01*
X238979Y228201D01*
X239189Y229256D01*
X230807Y226500D02*
X229600Y226000D01*
X226295Y224016D02*
X227120Y224125D01*
X227890Y224443D01*
X228550Y224950D01*
X238076Y211076D02*
X237188Y210838D01*
X236538Y210188D01*
X236300Y209300D01*
X233489Y194756D02*
X234121Y195454D01*
X234682Y196211D01*
X235167Y197019D01*
X235569Y197870D01*
X235887Y198757D01*
X236116Y199671D01*
X236254Y200603D01*
X236300Y201543D01*
X226028Y207484D02*
X227008Y207532D01*
X227979Y207676D01*
X228930Y207915D01*
X229854Y208245D01*
X230742Y208665D01*
X231583Y209169D01*
X232372Y209754D01*
X233099Y210413D01*
X233489Y205000D02*
X233487Y205002D01*
X232243Y205516D01*
X232832Y194756D02*
X231722Y194610D01*
X230688Y194182D01*
X229800Y193500D01*
X228587Y192287D02*
X228588Y192288D01*
X226647Y191484D02*
X227697Y191693D01*
X228587Y192287D01*
X236733Y192000D02*
X237787Y192210D01*
X238681Y192807D01*
X239279Y193701D01*
X239489Y194756D01*
X231107Y192000D02*
X229900Y191500D01*
X226595Y189516D02*
X227420Y189625D01*
X228190Y189943D01*
X228850Y190450D01*
X238076Y176076D02*
X237188Y175838D01*
X236538Y175188D01*
X236300Y174300D01*
X233489Y159756D02*
X234121Y160454D01*
X234682Y161211D01*
X235167Y162019D01*
X235569Y162870D01*
X235887Y163757D01*
X236116Y164671D01*
X236254Y165603D01*
X236300Y166543D01*
X226028Y172484D02*
X227008Y172532D01*
X227979Y172676D01*
X228930Y172915D01*
X229854Y173245D01*
X230742Y173665D01*
X231583Y174169D01*
X232372Y174754D01*
X233099Y175413D01*
X233489Y170000D02*
X233487Y170002D01*
X232243Y170516D01*
X232832Y159756D02*
X231722Y159610D01*
X230688Y159181D01*
X229800Y158500D01*
X228587Y157287D02*
X228588Y157288D01*
X226647Y156484D02*
X227697Y156693D01*
X228587Y157287D01*
X236733Y157000D02*
X237787Y157210D01*
X238681Y157807D01*
X239279Y158701D01*
X239489Y159756D01*
X231107Y157000D02*
X229900Y156500D01*
X226595Y154516D02*
X227420Y154625D01*
X228190Y154943D01*
X228850Y155450D01*
X238076Y73576D02*
X237188Y73338D01*
X236538Y72688D01*
X236300Y71800D01*
X233489Y57256D02*
X234121Y57954D01*
X234682Y58711D01*
X235167Y59518D01*
X235569Y60370D01*
X235887Y61257D01*
X236116Y62171D01*
X236254Y63103D01*
X236300Y64043D01*
X226028Y69984D02*
X227008Y70032D01*
X227979Y70176D01*
X228930Y70415D01*
X229854Y70745D01*
X230742Y71165D01*
X231583Y71669D01*
X232372Y72254D01*
X233099Y72913D01*
X233489Y67500D02*
X233487Y67502D01*
X232243Y68016D01*
X232832Y57256D02*
X231722Y57110D01*
X230688Y56682D01*
X229800Y56000D01*
X228587Y54787D02*
X228588Y54788D01*
X226647Y53984D02*
X227697Y54193D01*
X228587Y54787D01*
X236733Y54500D02*
X237787Y54710D01*
X238681Y55307D01*
X239279Y56201D01*
X239489Y57256D01*
X231107Y54500D02*
X229900Y54000D01*
X226595Y52016D02*
X227420Y52125D01*
X228190Y52443D01*
X228850Y52950D01*
X238076Y107576D02*
X237188Y107338D01*
X236538Y106688D01*
X236300Y105800D01*
X233489Y91256D02*
X234121Y91954D01*
X234682Y92711D01*
X235167Y93519D01*
X235569Y94370D01*
X235887Y95257D01*
X236116Y96171D01*
X236254Y97102D01*
X236300Y98043D01*
X239489Y100321D02*
X239000Y101500D01*
X226028Y103984D02*
X227008Y104032D01*
X227979Y104176D01*
X228930Y104415D01*
X229854Y104745D01*
X230742Y105165D01*
X231583Y105669D01*
X232372Y106254D01*
X233099Y106913D01*
X233489Y101500D02*
X233487Y101502D01*
X232243Y102016D01*
X232832Y91256D02*
X231722Y91110D01*
X230688Y90681D01*
X229800Y90000D01*
X228587Y88787D02*
X228588Y88788D01*
X226647Y87984D02*
X227697Y88193D01*
X228587Y88787D01*
X231107Y88500D02*
X229900Y88000D01*
X226595Y86016D02*
X227420Y86125D01*
X228190Y86443D01*
X228850Y86950D01*
X238076Y141576D02*
X237188Y141338D01*
X236538Y140688D01*
X236300Y139800D01*
X233489Y125256D02*
X234121Y125954D01*
X234682Y126711D01*
X235167Y127518D01*
X235569Y128370D01*
X235887Y129257D01*
X236116Y130171D01*
X236254Y131103D01*
X236300Y132043D01*
X226028Y137984D02*
X227008Y138032D01*
X227979Y138176D01*
X228930Y138415D01*
X229854Y138745D01*
X230742Y139165D01*
X231583Y139669D01*
X232372Y140254D01*
X233099Y140913D01*
X233489Y135500D02*
X233487Y135502D01*
X232243Y136016D01*
X232832Y125256D02*
X231722Y125110D01*
X230688Y124681D01*
X229800Y124000D01*
X228587Y122787D02*
X228588Y122788D01*
X226647Y121984D02*
X227697Y122193D01*
X228587Y122787D01*
X236733Y122500D02*
X237787Y122710D01*
X238681Y123307D01*
X239279Y124201D01*
X239489Y125256D01*
X231107Y122500D02*
X229900Y122000D01*
X226595Y120016D02*
X227420Y120125D01*
X228190Y120443D01*
X228850Y120950D01*
X231832Y298256D02*
X230722Y298110D01*
X229688Y297681D01*
X228800Y297000D01*
X232489Y298256D02*
X233121Y298954D01*
X233682Y299711D01*
X234167Y300518D01*
X234569Y301370D01*
X234887Y302257D01*
X235116Y303171D01*
X235254Y304102D01*
X235300Y305043D01*
X227587Y295787D02*
X227588Y295788D01*
X225647Y294984D02*
X226697Y295193D01*
X227587Y295787D01*
X232487Y308502D02*
X231243Y309016D01*
X225028Y310984D02*
X226008Y311032D01*
X226979Y311176D01*
X227930Y311415D01*
X228854Y311745D01*
X229742Y312165D01*
X230583Y312669D01*
X231372Y313254D01*
X232099Y313913D01*
X30600Y65842D02*
Y93979D01*
Y50100D02*
Y65742D01*
X123200Y20200D02*
X137900D01*
X40800Y40200D02*
X104600D01*
X114600Y28800D02*
Y30200D01*
X29400Y21200D02*
X43500D01*
X90700D01*
X21500Y29100D02*
Y91000D01*
X187226Y310984D02*
X211887D01*
X224091Y309016D02*
X228443D01*
X221291D02*
X224091D01*
X228443D02*
X232489Y308500D01*
X29100Y97600D02*
X29101Y97599D01*
X28629Y98071D02*
X29100Y97600D01*
X21500Y101000D02*
X21558D01*
X372368Y222329D02*
X381890Y231850D01*
X291484Y219400D02*
X365297D01*
X272250Y204308D02*
X284413Y216471D01*
X378068Y218029D02*
X381890Y221850D01*
X316517Y215100D02*
X370997D01*
X301583Y204308D02*
X309446Y212171D01*
X342601Y211850D02*
X381890D01*
X330917Y204308D02*
X335530Y208922D01*
X366184Y201850D02*
X381890D01*
X299328Y259400D02*
X338858D01*
X364692Y241850D02*
X381890D01*
X345929Y256471D02*
X357621Y244779D01*
X272250Y288085D02*
X284218D01*
X291600Y268401D02*
Y283227D01*
X332159Y266900D02*
X342958D01*
X330035Y266800D02*
X332400D01*
X366292Y251850D02*
X381890D01*
X350029Y263971D02*
X359221Y254779D01*
X301583Y288085D02*
X316291D01*
X322600Y272680D02*
Y281472D01*
X350700Y275942D02*
Y280500D01*
X353629Y268871D02*
X357721Y264779D01*
X364792Y261850D02*
X381890D01*
X330917Y288085D02*
X341573D01*
X348644Y285156D02*
X348862Y284939D01*
X368584Y285156D02*
X381890Y271850D01*
X360250Y288085D02*
X361513D01*
X172683Y300583D02*
X180155Y308055D01*
X174129Y258371D02*
X181500Y251000D01*
X171200Y265442D02*
Y297000D01*
X191358Y309016D02*
X211887D01*
X177129Y298929D02*
X184287Y306087D01*
X177129Y265371D02*
X181500Y261000D01*
X174200Y272442D02*
Y291858D01*
X206141Y294984D02*
X211887D01*
X201778Y292578D02*
X202800Y293600D01*
X201000Y284642D02*
Y290700D01*
X191500Y271000D02*
X198071Y277571D01*
X208577Y293016D02*
X211887D01*
X204300Y282042D02*
Y289044D01*
X198197Y271797D02*
X201371Y274971D01*
X191500Y261000D02*
X195298Y264798D01*
X210226Y276484D02*
X212398D01*
X201629Y272029D02*
X203155Y273555D01*
X198700Y251021D02*
Y264958D01*
X197200Y247400D02*
X197201Y247401D01*
X197114Y247314D02*
X197200Y247400D01*
X190542Y245900D02*
X193700D01*
X181500Y241000D02*
X183471Y242971D01*
X209060Y274516D02*
X212398D01*
X203429Y271029D02*
X205400Y273000D01*
X200500Y248397D02*
Y263958D01*
X197133Y243333D02*
X199300Y245500D01*
X205086Y260484D02*
X212398D01*
X202695Y258494D02*
X204400Y260200D01*
X202200Y249403D02*
Y257300D01*
X193546Y236606D02*
X199271Y242332D01*
X193546Y236606D02*
X193546Y236606D01*
X186600Y228800D02*
Y233493D01*
X181500Y221000D02*
X184691Y224191D01*
X204000Y248742D02*
Y256300D01*
X199129Y239729D02*
X201071Y241671D01*
X196200Y225700D02*
Y232658D01*
X206216Y258516D02*
X212398D01*
X207900Y241984D02*
X212642D01*
X197900Y219200D02*
Y231984D01*
X186400Y215900D02*
X194600D01*
X210000Y240016D02*
X212642D01*
X200000Y217400D02*
Y230016D01*
X191500Y211000D02*
X193600D01*
X208124Y225984D02*
X212642D01*
X202900Y216442D02*
Y221020D01*
X196600Y206000D02*
X199971Y209371D01*
X196599Y205999D02*
X196600Y206000D01*
X190600Y205800D02*
X196115D01*
X187304Y203404D02*
X189064Y205164D01*
X199229Y203929D02*
X204929Y209629D01*
X191500Y201000D02*
X192158D01*
X208953Y224016D02*
X212642D01*
X205800Y212380D02*
Y221310D01*
X204929Y209629D02*
X205000Y209700D01*
X207684Y207484D02*
X212887D01*
X186100Y195600D02*
X195800D01*
X209516Y205516D02*
X212887D01*
X191500Y191000D02*
X195000D01*
X208826Y191484D02*
X212887D01*
X200800Y187600D02*
X201755Y188555D01*
X190342Y185700D02*
X196213D01*
X181500Y181000D02*
X183271Y182771D01*
X210640Y189516D02*
X212887D01*
X200929Y183929D02*
X203600Y186600D01*
X191500Y181000D02*
X193858D01*
X204250Y172484D02*
X212898D01*
X188200Y176000D02*
X195762D01*
X181500Y171000D02*
X185298Y174798D01*
X192668Y170516D02*
X212898D01*
X208250Y156484D02*
X212898D01*
X191500Y161000D02*
X197347D01*
X181500D02*
X185453Y157047D01*
X187500Y156200D02*
X201744D01*
X205810Y154516D02*
X212898D01*
X211958Y137984D02*
X212898D01*
X197133Y148667D02*
X204887Y140913D01*
X181500Y151000D02*
X183804Y148696D01*
X210726Y136016D02*
X212898D01*
X199729Y142871D02*
X203655Y138945D01*
X190800Y145800D02*
X192658D01*
X207958Y121984D02*
X212898D01*
X197133Y128667D02*
X200887Y124913D01*
X181500Y131000D02*
X184651Y127849D01*
X200129Y122871D02*
X200500Y122500D01*
X206497Y120016D02*
X212898D01*
X189600Y125800D02*
X193058D01*
X193378Y120222D02*
X207297Y106303D01*
X196000Y114500D02*
X205555Y104945D01*
X212626Y102016D02*
X212898D01*
X181500Y121000D02*
X185427Y117073D01*
X188500Y115800D02*
X192861D01*
X206394Y87984D02*
X212898D01*
X203000Y90790D02*
Y97958D01*
X195939Y109161D02*
X200071Y105029D01*
X185490Y106100D02*
X190824D01*
X196758Y103642D02*
X198171Y102229D01*
X182843Y107756D02*
X183800Y106800D01*
X205374Y86016D02*
X212898D01*
X201100Y89800D02*
Y95158D01*
X201948Y87752D02*
X202489Y87211D01*
X197600Y77742D02*
Y89230D01*
X206939Y68016D02*
X212898D01*
X190542Y96100D02*
X192327D01*
X181500Y101000D02*
X183471Y99029D01*
X195500Y94300D02*
X195501Y94299D01*
X194671Y95129D02*
X195500Y94300D01*
X201399Y53984D02*
X212898D01*
X191500Y63942D02*
Y91000D01*
X202529Y71471D02*
X202529Y71471D01*
X199600Y78542D02*
Y86888D01*
X206119Y69984D02*
X212898D01*
X191500Y101000D02*
X195349Y97151D01*
X190200Y271000D02*
X191500D01*
Y52016D02*
X212898D01*
X181500Y62016D02*
Y91000D01*
X239012Y67500D02*
X266540D01*
X239000D02*
X239012D01*
Y73500D02*
X289076D01*
X296147Y70571D02*
X301583Y65135D01*
X239489Y91256D02*
Y100321D01*
X239500Y91256D02*
X249802D01*
X256873Y88327D02*
X263864Y81336D01*
X268300Y79500D02*
X312409D01*
X319481Y76571D02*
X330917Y65135D01*
X239012Y107500D02*
X239958D01*
X360250Y65135D02*
Y73682D01*
X247029Y104571D02*
X265571Y86029D01*
X272642Y83100D02*
X348458D01*
X355529Y80171D02*
X359000Y76700D01*
X262182Y138429D02*
X272250Y148497D01*
X239012Y135500D02*
X255111D01*
X259954Y158300D02*
X290100D01*
X239012Y141500D02*
X252883Y155371D01*
X292968Y157112D02*
X301583Y148497D01*
X239012Y170000D02*
X305271D01*
X239000D02*
X239012D01*
X312342Y167071D02*
X330917Y148497D01*
X239012Y176000D02*
X328605D01*
X335676Y173071D02*
X360250Y148497D01*
X262479Y231858D02*
X272250D01*
X257000Y224800D02*
Y225189D01*
X242753Y206553D02*
X254172Y217972D01*
X257346Y239700D02*
X291200D01*
X251978Y236878D02*
X253000Y237900D01*
X251978Y236878D02*
X251978Y236878D01*
X250000Y226142D02*
Y232100D01*
X239000Y211000D02*
X247071Y219071D01*
X295542Y237900D02*
X301583Y231858D01*
X246098Y242700D02*
X315933D01*
X238756Y239500D02*
X239027Y239771D01*
X346037Y246071D02*
X360250Y231858D01*
X246398Y249000D02*
X338966D01*
X238756Y245500D02*
X239327Y246071D01*
X323004Y239771D02*
X330917Y231858D01*
X330300Y317124D02*
Y322400D01*
X260942Y327300D02*
X321258D01*
X238000Y308500D02*
X253871Y324371D01*
X238489Y298256D02*
Y307321D01*
X230383Y295500D02*
X235733D01*
X228900Y294300D02*
X229900Y295300D01*
X228899Y294299D02*
X228900Y294300D01*
X224091Y293016D02*
X225800D01*
X266235Y315635D02*
X272250D01*
X256400Y296030D02*
Y305800D01*
X238512Y274000D02*
X253471Y288960D01*
X261870Y323800D02*
X291500D01*
X255429Y320329D02*
X256800Y321700D01*
X238512Y280000D02*
X249571Y291059D01*
X294776Y322442D02*
X301583Y315635D01*
X252500Y298130D02*
Y313258D01*
X328329Y324371D02*
X330300Y322400D01*
X360250Y315635D02*
Y320200D01*
X256842Y330200D02*
X350250D01*
X237076Y314500D02*
X238000D01*
X237076Y314576D02*
X249771Y327271D01*
X237576Y280000D02*
X238500D01*
X235800Y270543D02*
Y278300D01*
X238989Y263756D02*
Y272821D01*
X232599Y279413D02*
X232989Y279803D01*
X224591Y276484D02*
X225528D01*
X224591Y274516D02*
X231743D01*
X224591D02*
X224591Y274517D01*
X232332Y263756D02*
X232989D01*
X228088Y261288D02*
X229300Y262500D01*
X228087Y261287D02*
X228088Y261288D01*
X224591Y260484D02*
X226148D01*
X230607Y261000D02*
X236233D01*
X228350Y259450D02*
X229400Y260500D01*
X224591Y258516D02*
X226095D01*
X237776Y245500D02*
X238700D01*
X236000Y236043D02*
Y243800D01*
X239189Y229256D02*
Y238321D01*
X232799Y244913D02*
X233189Y245303D01*
X224791Y241984D02*
X225728D01*
X224791Y240016D02*
X231943D01*
X224791D02*
X224791Y240017D01*
X232532Y229256D02*
X233189D01*
X228288Y226788D02*
X229500Y228000D01*
X228287Y226787D02*
X228288Y226788D01*
X224791Y225984D02*
X226347D01*
X230807Y226500D02*
X236433D01*
X228550Y224950D02*
X229600Y226000D01*
X224791Y224016D02*
X226295D01*
X238076Y211000D02*
X239000D01*
X236300Y201543D02*
Y209300D01*
X239489Y194756D02*
Y203821D01*
X233099Y210413D02*
X233489Y210803D01*
X225091Y207484D02*
X226028D01*
X225091Y205516D02*
X232243D01*
X225091D02*
X225091Y205517D01*
X232832Y194756D02*
X233489D01*
X228588Y192288D02*
X229800Y193500D01*
X228587Y192287D02*
X228588Y192288D01*
X225091Y191484D02*
X226647D01*
X231107Y192000D02*
X236733D01*
X228850Y190450D02*
X229900Y191500D01*
X225091Y189516D02*
X226595D01*
X238076Y176000D02*
X239000D01*
X236300Y166543D02*
Y174300D01*
X239489Y159756D02*
Y168821D01*
X233099Y175413D02*
X233489Y175803D01*
X225091Y172484D02*
X226028D01*
X225091Y170516D02*
X232243D01*
X225091D02*
X225091Y170517D01*
X232832Y159756D02*
X233489D01*
X228588Y157288D02*
X229800Y158500D01*
X228587Y157287D02*
X228588Y157288D01*
X225091Y156484D02*
X226647D01*
X231107Y157000D02*
X236733D01*
X228850Y155450D02*
X229900Y156500D01*
X225091Y154516D02*
X226595D01*
X238076Y73500D02*
X239000D01*
X236300Y64043D02*
Y71800D01*
X239489Y57256D02*
Y66321D01*
X233099Y72913D02*
X233489Y73303D01*
X225091Y69984D02*
X226028D01*
X225091Y68016D02*
X232243D01*
X225091D02*
X225091Y68016D01*
X232832Y57256D02*
X233489D01*
X228588Y54788D02*
X229800Y56000D01*
X228587Y54787D02*
X228588Y54788D01*
X225091Y53984D02*
X226647D01*
X231107Y54500D02*
X236733D01*
X228850Y52950D02*
X229900Y54000D01*
X225091Y52016D02*
X226595D01*
X238076Y107500D02*
X239000D01*
X236300Y98043D02*
Y105800D01*
X233099Y106913D02*
X233489Y107303D01*
X225091Y103984D02*
X226028D01*
X225091Y102016D02*
X232243D01*
X225091D02*
X225091Y102016D01*
X232832Y91256D02*
X233489D01*
X228588Y88788D02*
X229800Y90000D01*
X228587Y88787D02*
X228588Y88788D01*
X225091Y87984D02*
X226647D01*
X231107Y88500D02*
X236733D01*
X228850Y86950D02*
X229900Y88000D01*
X225091Y86016D02*
X226595D01*
X238076Y141500D02*
X239000D01*
X236300Y132043D02*
Y139800D01*
X239489Y125256D02*
Y134321D01*
X233099Y140913D02*
X233489Y141303D01*
X225091Y137984D02*
X226028D01*
X225091Y136016D02*
X232243D01*
X225091D02*
X225091Y136016D01*
X232832Y125256D02*
X233489D01*
X228588Y122788D02*
X229800Y124000D01*
X228587Y122787D02*
X228588Y122788D01*
X225091Y121984D02*
X226647D01*
X231107Y122500D02*
X236733D01*
X228850Y120950D02*
X229900Y122000D01*
X225091Y120016D02*
X226595D01*
X231832Y298256D02*
X232489D01*
X235300Y305043D02*
Y312800D01*
X227588Y295788D02*
X228800Y297000D01*
X227587Y295787D02*
X227588Y295788D01*
X224091Y294984D02*
X225647D01*
X232099Y313913D02*
X232489Y314303D01*
X224091Y310984D02*
X225028D01*
X221291Y309016D02*
X224091Y309016D01*
D49*
X159309Y267900D02*
X159740Y267469D01*
X159209Y241100D02*
X159640Y240669D01*
X158256Y152956D02*
Y155500D01*
X155000Y149700D02*
X158256Y152956D01*
X158540Y107788D02*
Y109166D01*
X155500Y108800D02*
X155600Y108900D01*
X158274D01*
X158540Y109166D01*
X155700Y135800D02*
X158600D01*
X156200Y188400D02*
X158906D01*
X159140Y188166D01*
X156500Y214665D02*
X156568Y214732D01*
X159440D01*
X156600Y241100D02*
X159209D01*
X159640Y239988D02*
Y240669D01*
X157000Y267900D02*
X159309D01*
X159740Y266488D02*
Y267469D01*
X157600Y293300D02*
X160380D01*
X154750Y117700D02*
X158800D01*
X154750Y117484D02*
Y117700D01*
Y117484D02*
X154800Y117434D01*
X204900Y77000D02*
X210500D01*
X211524Y71953D02*
X212898D01*
X211325Y72152D02*
X211524Y71953D01*
X211325Y72152D02*
Y76175D01*
X210500Y77000D02*
X211325Y76175D01*
X154860Y144068D02*
X154992Y144200D01*
X159200D01*
X206000Y114100D02*
X207597D01*
X210500Y111000D02*
Y111197D01*
X207597Y114100D02*
X210500Y111197D01*
X211524Y105953D02*
X212898D01*
X211325Y106152D02*
X211524Y105953D01*
X211325Y106152D02*
Y110175D01*
X210500Y111000D02*
X211325Y110175D01*
X155500Y170434D02*
Y170569D01*
X155931Y171000D01*
X162200D01*
X205700Y146800D02*
X207500Y145000D01*
X205700Y146800D02*
Y146900D01*
X207500Y145000D02*
X210500D01*
X211524Y139953D02*
X212898D01*
X211325Y140152D02*
X211524Y139953D01*
X211325Y140152D02*
Y144175D01*
X210500Y145000D02*
X211325Y144175D01*
X155700Y199300D02*
X161200D01*
X155400Y199000D02*
X155700Y199300D01*
X155400Y196434D02*
Y199000D01*
X211091Y174453D02*
X212898D01*
X206196Y179348D02*
X211091Y174453D01*
X205652Y179348D02*
X206196D01*
X205600Y179400D02*
X205652Y179348D01*
X205773Y179500D02*
X210500D01*
X205674Y179400D02*
X205773Y179500D01*
X205600Y179400D02*
X205674D01*
X155700Y223000D02*
X161800D01*
X209500Y214300D02*
X210289D01*
X210489Y214500D01*
X211512Y209453D02*
X212887D01*
X211314Y209652D02*
X211512Y209453D01*
X211314Y209652D02*
Y213675D01*
X210489Y214500D02*
X211314Y213675D01*
X210244Y233000D02*
X211069Y232175D01*
X216277Y227977D02*
X216300Y228000D01*
X210835Y243953D02*
X212642D01*
X208740Y246048D02*
X210835Y243953D01*
X207552Y246048D02*
X208740D01*
X207500Y246100D02*
X207552Y246048D01*
X210244Y248803D02*
Y249000D01*
X207541Y246100D02*
X210244Y248803D01*
X207500Y246100D02*
X207541D01*
X161966Y249634D02*
X162100Y249500D01*
X155900Y249634D02*
X161966D01*
X210591Y278453D02*
X212398D01*
X208696Y280348D02*
X210591Y278453D01*
X207652Y280348D02*
X208696D01*
X207600Y280400D02*
X207652Y280348D01*
X210000Y283303D02*
Y283500D01*
X207652Y280955D02*
X210000Y283303D01*
X207652Y280452D02*
Y280955D01*
X207600Y280400D02*
X207652Y280452D01*
X156000Y276134D02*
X162234D01*
X206881Y313093D02*
X210372D01*
X210512Y312953D01*
X210314Y313152D02*
X210372Y313093D01*
X210512Y312953D02*
X211887D01*
X210314Y313152D02*
Y317175D01*
X209489Y318000D02*
X210314Y317175D01*
X205873Y314100D02*
X206881Y313093D01*
X205800Y314100D02*
X205873D01*
X156640Y301568D02*
X160568D01*
X141800Y117434D02*
X154800D01*
X157615Y102466D02*
Y106863D01*
X158540Y107788D01*
X152104Y102466D02*
Y106744D01*
X151060Y107788D02*
X152104Y106744D01*
X151060Y107788D02*
Y109166D01*
X138954Y102416D02*
X139004Y102366D01*
X131621Y102416D02*
X138954D01*
X131571Y102466D02*
X131621Y102416D01*
X139004Y102366D02*
Y106844D01*
X138060Y107788D02*
X139004Y106844D01*
X138060Y107788D02*
Y109166D01*
X129060Y117400D02*
X132500D01*
X136662Y113238D01*
X151060Y109166D02*
Y110544D01*
X148366Y113238D02*
X151060Y110544D01*
X136662Y113238D02*
X148366D01*
X125320Y109132D02*
Y110510D01*
X121908Y113922D02*
X125320Y110510D01*
X116960Y113922D02*
X121908D01*
X142134Y144068D02*
X154860D01*
X142100Y144034D02*
X142134Y144068D01*
X129300Y142656D02*
Y144034D01*
Y142656D02*
X129731Y142225D01*
X131109D01*
X133134Y140200D01*
X151120Y135800D02*
Y137178D01*
X148098Y140200D02*
X151120Y137178D01*
X133134Y140200D02*
X148098D01*
X157656Y129100D02*
Y133478D01*
X158600Y134422D01*
Y135800D01*
X152144Y129100D02*
Y133398D01*
X151120Y134422D02*
X152144Y133398D01*
X151120Y134422D02*
Y135800D01*
X139094Y128950D02*
X139144Y129000D01*
X131906Y128950D02*
X139094D01*
X131856Y128900D02*
X131906Y128950D01*
X139144Y129000D02*
Y133604D01*
X138360Y134388D02*
X139144Y133604D01*
X138360Y134388D02*
Y135766D01*
X125560D02*
Y137144D01*
X121748Y140956D02*
X125560Y137144D01*
X116600Y140956D02*
X121748D01*
X158256Y155500D02*
Y159804D01*
X159240Y160788D01*
Y162166D01*
X152744Y155500D02*
Y159804D01*
X151760Y160788D02*
X152744Y159804D01*
X151760Y160788D02*
Y162166D01*
X142700Y170434D02*
X155500D01*
X129600Y168956D02*
Y170334D01*
Y168956D02*
X130031Y168525D01*
X131409D01*
X133734Y166200D01*
X149104D01*
X151760Y162166D02*
Y163544D01*
X149104Y166200D02*
X151760Y163544D01*
X139019Y156325D02*
X139844Y155500D01*
X139019Y156325D02*
Y157341D01*
X138960Y157401D02*
X139019Y157341D01*
X138960Y157401D02*
Y162166D01*
X132156Y155400D02*
X132206Y155450D01*
X139794D01*
X139844Y155500D01*
X125860Y162066D02*
Y163444D01*
X122448Y166856D02*
X125860Y163444D01*
X117700Y166856D02*
X122448D01*
X132256Y181800D02*
X139444D01*
Y186204D01*
X138860Y186788D02*
X139444Y186204D01*
X138860Y186788D02*
Y188166D01*
X142600Y196434D02*
X155400D01*
X158256Y181800D02*
Y185904D01*
X159140Y186788D01*
Y188166D01*
X152744Y181800D02*
Y185704D01*
X151660Y186788D02*
X152744Y185704D01*
X151660Y186788D02*
Y188166D01*
X129900Y195056D02*
Y196434D01*
Y195056D02*
X130331Y194625D01*
X131709D01*
X134034Y192300D01*
X148904D01*
X151660Y188166D02*
Y189544D01*
X148904Y192300D02*
X151660Y189544D01*
X126160Y188166D02*
Y189544D01*
X122248Y193456D02*
X126160Y189544D01*
X117400Y193456D02*
X122248D01*
X143000Y223000D02*
X155700D01*
X130000D02*
X134400D01*
X138500Y218900D01*
X149170D01*
X151960Y216110D01*
Y214732D02*
Y216110D01*
X158256Y207966D02*
Y212170D01*
X159440Y213354D01*
Y214732D01*
X152744Y207966D02*
Y212570D01*
X151960Y213354D02*
X152744Y212570D01*
X151960Y213354D02*
Y214732D01*
X139260D02*
X139552Y214440D01*
Y208258D02*
Y214440D01*
Y208258D02*
X139844Y207966D01*
X132656D02*
X139844D01*
X126260Y214732D02*
Y216110D01*
X123448Y218922D02*
X126260Y216110D01*
X118500Y218922D02*
X123448D01*
X158656Y234900D02*
Y239004D01*
X159640Y239988D01*
X153144Y234900D02*
Y239004D01*
X152160Y239988D02*
X153144Y239004D01*
X152160Y239988D02*
Y241366D01*
X126460Y241466D02*
Y242844D01*
X123448Y245856D02*
X126460Y242844D01*
X117900Y245856D02*
X123448D01*
X132656Y234800D02*
X140444D01*
Y239004D01*
X139360Y240088D02*
X140444Y239004D01*
X139360Y240088D02*
Y241466D01*
X130200Y248356D02*
Y249734D01*
Y248356D02*
X130631Y247925D01*
X133875D01*
X136100Y245700D01*
X152160Y241366D02*
Y242744D01*
X149204Y245700D02*
X152160Y242744D01*
X136100Y245700D02*
X149204D01*
X143200Y249634D02*
X155900D01*
X143100Y249734D02*
X143200Y249634D01*
X126060Y267866D02*
Y269244D01*
X123348Y271956D02*
X126060Y269244D01*
X118300Y271956D02*
X123348D01*
X132456Y261300D02*
X140444D01*
X152260Y267866D02*
Y269244D01*
Y266488D02*
Y267866D01*
X153244Y261300D02*
Y265504D01*
X152260Y266488D02*
X153244Y265504D01*
X140444Y261300D02*
Y265204D01*
X139160Y266488D02*
X140444Y265204D01*
X139160Y266488D02*
Y267866D01*
X129800Y274756D02*
Y276134D01*
Y274756D02*
X130231Y274325D01*
X131609D01*
X133934Y272000D01*
X149504D01*
X152260Y269244D01*
X142900Y276134D02*
X156000D01*
X158756Y261300D02*
Y265504D01*
X159740Y266488D01*
X127300Y293266D02*
Y294644D01*
X123755Y298189D02*
X127300Y294644D01*
X118440Y298189D02*
X123755D01*
X140784Y286834D02*
Y291238D01*
X140100Y291922D02*
X140784Y291238D01*
X140100Y291922D02*
Y293300D01*
X133196Y286834D02*
X140784D01*
X159196Y286934D02*
Y290738D01*
X160380Y291922D01*
Y293300D01*
D50*
X53000Y161100D02*
Y165880D01*
X63300Y176180D02*
Y178400D01*
X53000Y165880D02*
X63300Y176180D01*
X129500Y65943D02*
X140457D01*
X140600Y65800D01*
X106600Y44800D02*
Y48742D01*
X93018Y54058D02*
X106600D01*
X91376Y55700D02*
X93018Y54058D01*
X91200Y55700D02*
X91376D01*
X107156Y64100D02*
X107256Y64200D01*
Y70900D01*
X107356Y71000D01*
X101744Y71100D02*
X101844Y71000D01*
X101744Y71100D02*
Y77700D01*
X101644Y77800D02*
X101744Y77700D01*
X74600Y73900D02*
X80444D01*
X75400Y55700D02*
X80144D01*
X85656D02*
X91200D01*
X85956Y73900D02*
X91700D01*
X91800Y73800D01*
D51*
X98300Y155000D02*
Y155481D01*
X98619Y155800D01*
X102900D01*
X63200Y99800D02*
Y104400D01*
D52*
X94500Y144942D02*
Y146400D01*
X86600Y139400D02*
X88958D01*
X94500Y144942D01*
X144956Y181800D02*
Y181997D01*
X146340Y183382D01*
Y188166D01*
X143840Y301568D02*
X156640D01*
X123928Y70028D02*
X128270D01*
X120772D02*
X123928D01*
X107356Y77800D02*
X113000D01*
X107156D02*
X107356D01*
X128270Y70028D02*
X129500Y71258D01*
X113000Y77800D02*
X120772Y70028D01*
D53*
X43500Y21200D02*
D03*
X33500Y31200D02*
D03*
X53500D02*
D03*
Y11200D02*
D03*
X33500D02*
D03*
X137900Y20200D02*
D03*
X127900Y30200D02*
D03*
X147900D02*
D03*
Y10200D02*
D03*
X127900D02*
D03*
X90700Y21200D02*
D03*
X80700Y31200D02*
D03*
X100700D02*
D03*
Y11200D02*
D03*
X80700D02*
D03*
D54*
X381890Y121850D02*
D03*
Y131850D02*
D03*
Y141850D02*
D03*
Y151850D02*
D03*
Y161850D02*
D03*
Y171850D02*
D03*
Y181850D02*
D03*
Y191850D02*
D03*
Y201850D02*
D03*
Y211850D02*
D03*
Y221850D02*
D03*
Y231850D02*
D03*
Y241850D02*
D03*
Y251850D02*
D03*
Y261850D02*
D03*
X11500Y91000D02*
D03*
X21500Y101000D02*
D03*
X11500D02*
D03*
X21500Y111000D02*
D03*
X11500D02*
D03*
X21500Y121000D02*
D03*
X11500D02*
D03*
X21500Y131000D02*
D03*
X11500D02*
D03*
X21500Y141000D02*
D03*
X11500D02*
D03*
X21500Y151000D02*
D03*
X11500D02*
D03*
X21500Y161000D02*
D03*
X11500D02*
D03*
X21500Y171000D02*
D03*
X11500D02*
D03*
X21500Y181000D02*
D03*
X11500D02*
D03*
X21500Y191000D02*
D03*
X11500D02*
D03*
X21500Y201000D02*
D03*
X11500D02*
D03*
X21500Y211000D02*
D03*
X11500D02*
D03*
X21500Y221000D02*
D03*
X11500D02*
D03*
X21500Y231000D02*
D03*
X11500D02*
D03*
X21500Y241000D02*
D03*
X11500D02*
D03*
X21500Y251000D02*
D03*
X11500D02*
D03*
X21500Y261000D02*
D03*
X11500D02*
D03*
X21500Y271000D02*
D03*
X11500D02*
D03*
X21500Y281000D02*
D03*
X11500D02*
D03*
X191500D02*
D03*
X181500Y271000D02*
D03*
X191500D02*
D03*
X181500Y261000D02*
D03*
X191500D02*
D03*
X181500Y251000D02*
D03*
X191500D02*
D03*
X181500Y241000D02*
D03*
X191500D02*
D03*
X181500Y231000D02*
D03*
X191500D02*
D03*
X181500Y221000D02*
D03*
X191500D02*
D03*
X181500Y211000D02*
D03*
X191500D02*
D03*
X181500Y201000D02*
D03*
X191500D02*
D03*
X181500Y191000D02*
D03*
X191500D02*
D03*
X181500Y181000D02*
D03*
X191500D02*
D03*
X181500Y171000D02*
D03*
X191500D02*
D03*
X181500Y161000D02*
D03*
X191500D02*
D03*
X181500Y151000D02*
D03*
X191500D02*
D03*
X181500Y141000D02*
D03*
X191500D02*
D03*
X181500Y131000D02*
D03*
X191500D02*
D03*
X181500Y121000D02*
D03*
X191500D02*
D03*
X181500Y111000D02*
D03*
X191500D02*
D03*
X181500Y101000D02*
D03*
X191500D02*
D03*
X181500Y91000D02*
D03*
X191500D02*
D03*
D55*
X381890Y271850D02*
D03*
D56*
X21500Y91000D02*
D03*
X181500Y281000D02*
D03*
D57*
X272250Y110415D02*
D03*
Y37585D02*
D03*
Y65135D02*
D03*
X253750Y110415D02*
D03*
X301583D02*
D03*
Y37585D02*
D03*
Y65135D02*
D03*
X283083Y110415D02*
D03*
X330917D02*
D03*
Y37585D02*
D03*
Y65135D02*
D03*
X312417Y110415D02*
D03*
X360250D02*
D03*
Y37585D02*
D03*
Y65135D02*
D03*
X341750Y110415D02*
D03*
X272250Y193777D02*
D03*
Y120947D02*
D03*
Y148497D02*
D03*
X253750Y193777D02*
D03*
X301583D02*
D03*
Y120947D02*
D03*
Y148497D02*
D03*
X283083Y193777D02*
D03*
X330917D02*
D03*
Y120947D02*
D03*
Y148497D02*
D03*
X312417Y193777D02*
D03*
X360250D02*
D03*
Y120947D02*
D03*
Y148497D02*
D03*
X341750Y193777D02*
D03*
X272250Y277138D02*
D03*
Y204308D02*
D03*
Y231858D02*
D03*
X253750Y277138D02*
D03*
X301583D02*
D03*
Y204308D02*
D03*
Y231858D02*
D03*
X283083Y277138D02*
D03*
X330917D02*
D03*
Y204308D02*
D03*
Y231858D02*
D03*
X312417Y277138D02*
D03*
X360250D02*
D03*
Y204308D02*
D03*
Y231858D02*
D03*
X341750Y277138D02*
D03*
X272250Y360915D02*
D03*
Y288085D02*
D03*
Y315635D02*
D03*
X253750Y360915D02*
D03*
X301583D02*
D03*
Y288085D02*
D03*
Y315635D02*
D03*
X283083Y360915D02*
D03*
X330917D02*
D03*
Y288085D02*
D03*
Y315635D02*
D03*
X312417Y360915D02*
D03*
X360250D02*
D03*
Y288085D02*
D03*
Y315635D02*
D03*
X341750Y360915D02*
D03*
D58*
X196070Y14930D02*
D03*
Y31470D02*
D03*
X179530Y14930D02*
D03*
Y31470D02*
D03*
D59*
X55190Y353597D02*
D03*
X105500Y382000D02*
D03*
X196250D02*
D03*
X287000D02*
D03*
D60*
X65040Y353603D02*
D03*
X74883D02*
D03*
X84725D02*
D03*
X94568D02*
D03*
X104411D02*
D03*
X35500Y382000D02*
D03*
X45500D02*
D03*
X55500D02*
D03*
X65500D02*
D03*
X75500D02*
D03*
X85500D02*
D03*
X95500D02*
D03*
X126250D02*
D03*
X136250D02*
D03*
X146250D02*
D03*
X156250D02*
D03*
X166250D02*
D03*
X176250D02*
D03*
X186250D02*
D03*
X217000D02*
D03*
X227000D02*
D03*
X237000D02*
D03*
X247000D02*
D03*
X257000D02*
D03*
X267000D02*
D03*
X277000D02*
D03*
D61*
X381890Y295276D02*
D03*
X334646Y381890D02*
D03*
Y11811D02*
D03*
X11811D02*
D03*
Y381890D02*
D03*
D62*
X82200Y211400D02*
D03*
X83700Y224900D02*
D03*
X72200Y206600D02*
D03*
X155000Y149700D02*
D03*
X89500Y163400D02*
D03*
X77400Y171400D02*
D03*
X75700Y164900D02*
D03*
X71800Y163100D02*
D03*
X68300Y160900D02*
D03*
X88400Y144800D02*
D03*
X63200Y144900D02*
D03*
X131300Y216600D02*
D03*
X137900Y279400D02*
D03*
X124600Y202600D02*
D03*
X129600Y109100D02*
D03*
X142300Y109200D02*
D03*
X155500Y108800D02*
D03*
X155700Y135800D02*
D03*
X142800Y135700D02*
D03*
X130200Y135800D02*
D03*
X143000Y160700D02*
D03*
X130100D02*
D03*
X143500Y188200D02*
D03*
X124600Y198700D02*
D03*
X143900Y214700D02*
D03*
X156200Y188400D02*
D03*
X156500Y214665D02*
D03*
X156600Y241100D02*
D03*
X157000Y267900D02*
D03*
X157600Y293300D02*
D03*
X125200Y251700D02*
D03*
X144100Y241300D02*
D03*
X122800Y280400D02*
D03*
X144366Y267866D02*
D03*
X158800Y117700D02*
D03*
X204900Y77000D02*
D03*
X159200Y144200D02*
D03*
X206000Y114100D02*
D03*
X162200Y171000D02*
D03*
X205700Y146900D02*
D03*
X205600Y179400D02*
D03*
X161200Y199300D02*
D03*
X161800Y223000D02*
D03*
X209500Y214300D02*
D03*
X207500Y246100D02*
D03*
X162100Y249500D02*
D03*
X207600Y280400D02*
D03*
X162234Y276134D02*
D03*
X205800Y314100D02*
D03*
X160568Y301568D02*
D03*
X124200Y75100D02*
D03*
X233489Y48811D02*
D03*
X239500Y48800D02*
D03*
X228700Y48600D02*
D03*
X52900Y225900D02*
D03*
X52100Y214600D02*
D03*
X232989Y255311D02*
D03*
X239000Y255300D02*
D03*
X228200Y255100D02*
D03*
X233189Y220811D02*
D03*
X239200Y220800D02*
D03*
X228400Y237100D02*
D03*
Y220600D02*
D03*
X233489Y186311D02*
D03*
X239500Y186300D02*
D03*
X228700Y202600D02*
D03*
Y186100D02*
D03*
X233489Y151311D02*
D03*
X239500Y151300D02*
D03*
X228700Y167600D02*
D03*
Y151100D02*
D03*
Y65100D02*
D03*
X233489Y82811D02*
D03*
X239500Y82800D02*
D03*
X228700Y99100D02*
D03*
Y82600D02*
D03*
X233489Y116811D02*
D03*
X239500Y116800D02*
D03*
X228700Y133100D02*
D03*
Y116600D02*
D03*
X232489Y289811D02*
D03*
X238500Y289800D02*
D03*
D63*
X76100Y108700D02*
D03*
X102900Y155800D02*
D03*
X63200Y99800D02*
D03*
X94500Y146400D02*
D03*
X145000Y293300D02*
D03*
X132134Y293266D02*
D03*
X215953Y272547D02*
D03*
X220600Y262400D02*
D03*
X216600Y267400D02*
D03*
X129428Y71428D02*
D03*
X123928Y70028D02*
D03*
X121800Y52200D02*
D03*
X60600Y65700D02*
D03*
X60800Y60300D02*
D03*
Y55800D02*
D03*
X69900Y59900D02*
D03*
X69700Y69300D02*
D03*
Y73700D02*
D03*
X69800Y55900D02*
D03*
X138800Y61400D02*
D03*
X143500D02*
D03*
X133900Y65900D02*
D03*
X140600Y65800D02*
D03*
X100000Y64400D02*
D03*
X361700Y45200D02*
D03*
X368100Y37000D02*
D03*
X357900Y30500D02*
D03*
X353200Y34500D02*
D03*
X337500Y33400D02*
D03*
X334100Y44000D02*
D03*
X323800Y39900D02*
D03*
X328600Y30600D02*
D03*
X308200Y33800D02*
D03*
X304800Y44400D02*
D03*
X294500Y40300D02*
D03*
X299000Y30200D02*
D03*
X269800Y30300D02*
D03*
X265300Y40400D02*
D03*
X275600Y44500D02*
D03*
X279000Y33900D02*
D03*
X359600Y57700D02*
D03*
X354900Y60000D02*
D03*
X364500Y72200D02*
D03*
X368100Y68300D02*
D03*
X338400Y65500D02*
D03*
X337300Y70700D02*
D03*
X323000Y64100D02*
D03*
X326100Y59400D02*
D03*
X309400Y65100D02*
D03*
X308300Y70300D02*
D03*
X294000Y63700D02*
D03*
X297100Y59000D02*
D03*
X267900Y58600D02*
D03*
X264800Y63300D02*
D03*
X279100Y69900D02*
D03*
X280200Y64700D02*
D03*
X365400Y126400D02*
D03*
X359500Y128300D02*
D03*
X353100Y118300D02*
D03*
Y122800D02*
D03*
X352700Y146000D02*
D03*
Y150500D02*
D03*
X367700D02*
D03*
Y146000D02*
D03*
X323500Y118600D02*
D03*
Y123100D02*
D03*
X338500D02*
D03*
Y118600D02*
D03*
X323600Y145800D02*
D03*
Y150300D02*
D03*
X338600D02*
D03*
Y145800D02*
D03*
X294100Y118000D02*
D03*
Y122500D02*
D03*
X309100D02*
D03*
Y118000D02*
D03*
X293900Y145900D02*
D03*
Y150400D02*
D03*
X308900D02*
D03*
Y145900D02*
D03*
X264700Y118700D02*
D03*
Y123200D02*
D03*
X279700D02*
D03*
Y118700D02*
D03*
Y146300D02*
D03*
Y150800D02*
D03*
X264700D02*
D03*
Y146300D02*
D03*
X221100Y158400D02*
D03*
X220400Y163300D02*
D03*
X216000Y256600D02*
D03*
X216600Y283500D02*
D03*
X219915D02*
D03*
X219900Y267300D02*
D03*
X221200Y278500D02*
D03*
X216100D02*
D03*
Y262500D02*
D03*
X216200Y222100D02*
D03*
X216800Y249000D02*
D03*
X220115D02*
D03*
X216800Y232900D02*
D03*
X220100Y232800D02*
D03*
X221400Y244000D02*
D03*
X216153Y238047D02*
D03*
X216300Y244000D02*
D03*
X220800Y227900D02*
D03*
X216300Y228000D02*
D03*
X216500Y187600D02*
D03*
X217100Y214500D02*
D03*
X220415D02*
D03*
X217100Y198400D02*
D03*
X220400Y198300D02*
D03*
X221700Y209500D02*
D03*
X216453Y203547D02*
D03*
X216600Y209500D02*
D03*
X221100Y193400D02*
D03*
X216600Y193500D02*
D03*
X216500Y152600D02*
D03*
X217100Y179500D02*
D03*
X220415D02*
D03*
X217100Y163400D02*
D03*
X221700Y174500D02*
D03*
X216453Y168547D02*
D03*
X216600Y174500D02*
D03*
Y158500D02*
D03*
X216500Y50100D02*
D03*
X217100Y77000D02*
D03*
X220415D02*
D03*
X217100Y60900D02*
D03*
X220400Y60800D02*
D03*
X221700Y72000D02*
D03*
X216453Y66047D02*
D03*
X216600Y72000D02*
D03*
X221100Y55900D02*
D03*
X216600Y56000D02*
D03*
X216500Y84100D02*
D03*
X217100Y111000D02*
D03*
X220415D02*
D03*
X217100Y94900D02*
D03*
X220400Y94800D02*
D03*
X221700Y106000D02*
D03*
X216453Y100047D02*
D03*
X216600Y106000D02*
D03*
X221100Y89900D02*
D03*
X216600Y90000D02*
D03*
X216500Y118100D02*
D03*
X217100Y145000D02*
D03*
X220415D02*
D03*
X217100Y128900D02*
D03*
X220400Y128800D02*
D03*
X221700Y140000D02*
D03*
X216453Y134047D02*
D03*
X216600Y140000D02*
D03*
X221100Y123900D02*
D03*
X216600Y124000D02*
D03*
X220700Y313000D02*
D03*
X215500Y291100D02*
D03*
X220100Y296900D02*
D03*
X215453Y307047D02*
D03*
X215600Y313000D02*
D03*
X219400Y301800D02*
D03*
X216100Y318000D02*
D03*
X219415D02*
D03*
X216100Y301900D02*
D03*
X215600Y297000D02*
D03*
D64*
X53000Y161100D02*
D03*
X175322Y62600D02*
D03*
X171000Y62800D02*
D03*
X99100Y277800D02*
D03*
X95900Y73800D02*
D03*
X81500Y280100D02*
D03*
X106600Y44800D02*
D03*
X74600Y73900D02*
D03*
X75400Y55700D02*
D03*
X91200D02*
D03*
X91800Y73800D02*
D03*
X82700Y273100D02*
D03*
X68000Y200000D02*
D03*
M02*
