G04*
G04 #@! TF.GenerationSoftware,Altium Limited,Altium Designer,20.0.2 (26)*
G04*
G04 Layer_Color=128*
%FSLAX25Y25*%
%MOIN*%
G70*
G01*
G75*
%ADD18O,0.07079X0.02362*%
%ADD20R,0.03150X0.03543*%
%ADD22R,0.03150X0.03543*%
%ADD68R,0.11811X0.06299*%
%ADD69R,0.08500X0.02400*%
%ADD70R,0.02400X0.08500*%
%ADD71R,0.05000X0.02500*%
%ADD72R,0.09100X0.02400*%
G36*
X81090Y70569D02*
X74869D01*
Y76790D01*
X81090D01*
Y70569D01*
D02*
G37*
G36*
X72310D02*
X66090D01*
Y76790D01*
X72310D01*
Y70569D01*
D02*
G37*
G36*
X63531D02*
X57310D01*
Y76790D01*
X63531D01*
Y70569D01*
D02*
G37*
G36*
X81090Y61790D02*
X74869D01*
Y68010D01*
X81090D01*
Y61790D01*
D02*
G37*
G36*
X72310D02*
X66090D01*
Y68010D01*
X72310D01*
Y61790D01*
D02*
G37*
G36*
X63531D02*
X57310D01*
Y68010D01*
X63531D01*
Y61790D01*
D02*
G37*
G36*
X145419Y58828D02*
X136919D01*
Y71228D01*
X145419D01*
Y58828D01*
D02*
G37*
G36*
X81090Y53010D02*
X74869D01*
Y59231D01*
X81090D01*
Y53010D01*
D02*
G37*
G36*
X72310D02*
X66090D01*
Y59231D01*
X72310D01*
Y53010D01*
D02*
G37*
G36*
X63531D02*
X57310D01*
Y59231D01*
X63531D01*
Y53010D01*
D02*
G37*
D18*
X60300Y165000D02*
D03*
Y170000D02*
D03*
Y175000D02*
D03*
Y180000D02*
D03*
Y185000D02*
D03*
Y190000D02*
D03*
Y195000D02*
D03*
Y200000D02*
D03*
X83700Y165000D02*
D03*
Y170000D02*
D03*
Y175000D02*
D03*
Y180000D02*
D03*
Y185000D02*
D03*
Y190000D02*
D03*
Y195000D02*
D03*
Y200000D02*
D03*
X60300Y228000D02*
D03*
Y233000D02*
D03*
Y238000D02*
D03*
Y243000D02*
D03*
Y248000D02*
D03*
Y253000D02*
D03*
Y258000D02*
D03*
Y263000D02*
D03*
X83700Y228000D02*
D03*
Y233000D02*
D03*
Y238000D02*
D03*
Y243000D02*
D03*
Y248000D02*
D03*
Y253000D02*
D03*
Y258000D02*
D03*
Y263000D02*
D03*
D20*
X90444Y155700D02*
D03*
X76156Y100100D02*
D03*
X65511Y206500D02*
D03*
X65500Y269500D02*
D03*
D22*
X95956Y155700D02*
D03*
X70644Y100100D02*
D03*
X60000Y206500D02*
D03*
X59989Y269500D02*
D03*
D68*
X95381Y55845D02*
D03*
Y73955D02*
D03*
D69*
X116686Y75028D02*
D03*
Y70028D02*
D03*
Y65028D02*
D03*
Y60028D02*
D03*
Y55028D02*
D03*
D70*
X140900Y65100D02*
D03*
D71*
X161200Y67600D02*
D03*
Y71200D02*
D03*
D72*
X99100Y165500D02*
D03*
Y170500D02*
D03*
Y175500D02*
D03*
Y180500D02*
D03*
Y185500D02*
D03*
Y190500D02*
D03*
Y195500D02*
D03*
Y200500D02*
D03*
Y205500D02*
D03*
X134900Y165500D02*
D03*
Y170500D02*
D03*
Y175500D02*
D03*
Y180500D02*
D03*
Y185500D02*
D03*
Y190500D02*
D03*
Y195500D02*
D03*
Y200500D02*
D03*
Y205500D02*
D03*
X99100Y228500D02*
D03*
Y233500D02*
D03*
Y238500D02*
D03*
Y243500D02*
D03*
Y248500D02*
D03*
Y253500D02*
D03*
Y258500D02*
D03*
Y263500D02*
D03*
Y268500D02*
D03*
X134900Y228500D02*
D03*
Y233500D02*
D03*
Y238500D02*
D03*
Y243500D02*
D03*
Y248500D02*
D03*
Y253500D02*
D03*
Y258500D02*
D03*
Y263500D02*
D03*
Y268500D02*
D03*
M02*
