M48
;Layer_Color=9474304
;FILE_FORMAT=2:4
INCH,TZ
;TYPE=PLATED
T1F00S00C0.0079
T2F00S00C0.0118
T3F00S00C0.0157
T4F00S00C0.0350
T5F00S00C0.0433
T6F00S00C0.0472
T7F00S00C0.0512
T8F00S00C0.0591
T9F00S00C0.0709
;TYPE=NON_PLATED
T10F00S00C0.1181
%
T01
X22870Y4860
X23349Y4881
X23950Y4880
X22870Y6510
Y8260
X23349Y8281
X23950Y8280
X22870Y9910
Y11660
X23349Y11681
X23950Y11680
X22870Y13310
Y15110
X23349Y15131
X23950Y15130
X22870Y16760
Y18610
X23349Y18631
X23950Y18630
X22870Y20260
X20560Y17940
X20570Y14690
X20600Y11410
X20490Y7700
X15550Y10880
X15880Y11770
X15570Y13580
X15920Y14420
X15500Y14970
X14300Y16070
X14280Y13570
X14230Y10920
X14350Y18820
X15620Y18840
X16120Y19930
X16220Y17100
X13010Y16070
X13020Y13580
X12960Y10910
X12420Y7510
X8840Y14480
X8950Y16340
X7570Y16490
X7180Y16310
X6830Y16090
X7740Y17140
X7220Y20660
X12460Y20260
Y19870
X6320Y14490
X5210Y21460
X5290Y22590
X8370Y22490
X8220Y21140
X13130Y21660
X12520Y25170
X12280Y28040
X13790Y27940
X14437Y26787
X15700Y26790
X16223Y27613
X15760Y29330
X16057Y30157
X16210Y24950
X15660Y24110
X14410Y24130
X14390Y21470
X15650Y21466
X16180Y22300
X20950Y21430
X22840Y22060
X23319Y22081
X23920Y22080
X22840Y23710
X22820Y25510
X23299Y25531
X23900Y25530
X23850Y28980
X23249Y28981
X20760Y28040
X20750Y24610
X20580Y31410
T02
X12180Y5220
X21650Y5010
X26530Y4040
X27560Y4450
X27900Y3390
X26980Y3030
X29900Y3020
X30820Y3380
X30480Y4440
X29450Y4030
X32380Y3990
X32860Y3060
X33750Y3340
X33410Y4400
X35320Y3450
X35790Y3050
X36810Y3700
X36170Y4520
X35960Y5770
X35490Y6000
X36810Y6830
X36450Y7220
X33730Y7070
X33840Y6550
X32300Y6410
X32610Y5940
X30940Y6510
X30830Y7030
X29400Y6370
X29710Y5900
X29410Y11800
Y12250
X30910
Y11800
X32350Y11860
Y12310
X33850
Y11860
X35310Y11830
Y12280
X35950Y12830
X36540Y12640
X36770Y14600
Y15050
X35270
Y14600
X33860Y14580
Y15030
X32360
Y14580
X30890Y14590
Y15040
X29390
Y14590
X27970Y14630
Y15080
X26470
Y14630
Y12320
Y11870
X27970
Y12320
X27910Y6990
X28020Y6470
X26480Y6330
X26790Y5860
X22110Y5590
X21660Y5600
X21710Y6090
X22040Y6080
X21645Y6605
X21660Y7200
X22170
X22041Y7700
X21710
X21650Y8410
X21660Y9000
X22110Y8990
X22040Y9480
X21710Y9490
X21645Y10005
X21660Y10600
X22170
X22041Y11100
X21710
X21650Y11810
X21660Y12400
X22110Y12390
X22040Y12880
X21710Y12890
X21645Y13405
X21660Y14000
X22170
X22041Y14500
X21710
X21650Y15260
X21660Y15850
X22110Y15840
X22040Y16330
X21710Y16340
X21645Y16855
X21660Y17450
X22170
X22041Y17950
X21710
X21650Y18760
X21660Y19350
X22110Y19340
X22040Y19830
X21710Y19840
X21645Y20355
X21660Y20950
X22170
X14060Y6580
X13880Y6140
X14350
X13390Y6590
X12943Y7143
X12393Y7003
X10000Y6440
X6990Y5990
X6980Y5590
X6080Y5580
Y6030
X6060Y6570
X6970Y6930
Y7370
X6320Y9980
X7610Y10870
X9450Y14640
X10290Y15580
X13213Y29327
X14500Y29330
X21550Y29110
X21560Y29700
X22010Y29690
X21940Y30180
X21610Y30190
X21545Y30705
X21560Y31300
X22070
X21941Y31800
X21610
X21660Y28350
X21992
X22120Y27850
X21610
X21595Y27255
X21660Y26740
X21990Y26730
X22060Y26240
X21610Y26250
X21600Y25660
X21680Y24900
X22011
X22140Y24400
X21630
X21615Y23805
X21680Y23290
X22010Y23280
X22080Y22790
X21630Y22800
X21620Y22210
X21710Y21450
X22041
T03
X10660Y4480
X17100Y6280
X17532Y6260
X9590Y7380
X9180
X7460Y7390
X7540Y5570
X9120
X5300Y16110
X6800Y20000
X8270Y27310
X8150Y28010
X9910Y27780
T04
X38189Y12185
Y13185
Y14185
Y15185
Y16185
Y17185
Y18185
Y19185
Y20185
X19150Y20100
X18150
Y19100
X19150
Y18100
X18150
Y17100
X19150
Y16100
X18150
Y15100
X19150
Y14100
X18150
Y13100
X19150
Y12100
X18150
Y11100
X19150
Y10100
X18150
Y9100
X19150
X2150
X1150
Y10100
X2150
Y11100
X1150
Y12100
X2150
Y13100
X1150
Y14100
X2150
Y15100
X1150
Y16100
X2150
Y17100
X1150
Y18100
X2150
Y19100
X1150
Y20100
X2150
Y21100
X1150
Y22100
X2150
Y23100
X1150
Y24100
X2150
Y25100
X1150
Y26100
X2150
Y27100
X1150
Y28100
X2150
X18150
X19150
Y27100
X18150
Y26100
X19150
Y25100
X18150
Y24100
X19150
Y23100
X18150
Y22100
X19150
Y21100
X18150
X38189Y21185
Y22185
Y23185
Y24185
Y25185
Y26185
Y27185
T05
X5519Y35360
X6504Y35360
X7488
X8473
X9457
X10441
T06
X13625Y38200
X14625
X15625
X16625
X17625
X18625
X19625
X21700
X22700
X23700
X24700
X25700
X26700
X27700
X28700
X12625
X10550
X9550
X8550
X7550
X6550
X5550
X4550
X3550
T07
X27225Y3758
X30158
X33092
X36025
Y6514
X33092
X30158
Y11042
Y12095
X31242Y11042
X33092
Y12095
X34175Y11042
X36025
Y12095
Y14850
X33092
X30158
Y19378
Y20431
X31242Y19378
X33092
Y20431
X34175Y19378
X36025
Y20431
X28308Y19378
X27225
Y20431
X25375Y19378
X27225Y14850
Y12095
Y11042
X28308
X25375
X27225Y6514
Y23186
Y27714
X28308
X27225Y28809
Y31563
Y36091
X28308
X25375
Y27714
X30158
X31242
X33092
X34175
X36025
Y28809
Y31563
X33092
Y28809
X30158
Y31563
Y36091
X31242
X33092
X34175
X36025
Y23186
X33092
X30158
T08
X3350Y1120
X4350Y2120
X3350Y3120
X5350
Y1120
X8070
X9070Y2120
X8070Y3120
X10070
Y1120
X12790Y1020
Y3020
X13790Y2020
X14790Y3020
Y1020
T09
X17953Y1493
X19607
Y3147
X17953
T10
X1181Y1181
X33465
X38189Y29528
X33465Y38189
X1181
M30
