G04*
G04 #@! TF.GenerationSoftware,Altium Limited,Altium Designer,20.0.2 (26)*
G04*
G04 Layer_Color=16711935*
%FSLAX25Y25*%
%MOIN*%
G70*
G01*
G75*
%ADD18R,0.04724X0.04134*%
%ADD19R,0.04134X0.04724*%
%ADD23R,0.04134X0.03740*%
%ADD25R,0.06693X0.04528*%
%ADD28O,0.16591X0.12591*%
%ADD29R,0.16591X0.12591*%
%ADD30C,0.06591*%
%ADD32C,0.09091*%
%ADD33O,0.07591X0.09591*%
%ADD34R,0.07591X0.09591*%
%ADD35C,0.10433*%
%ADD36R,0.10433X0.10433*%
%ADD37C,0.02953*%
%ADD38C,0.03740*%
%ADD85R,0.09252X0.14370*%
%ADD86R,0.09252X0.04921*%
%ADD87R,0.09252X0.04921*%
%ADD88R,0.08465X0.02953*%
%ADD89R,0.04528X0.02756*%
%ADD90R,0.04528X0.02756*%
%ADD91R,0.10591X0.10591*%
%ADD92R,0.03543X0.04528*%
%ADD93R,0.04134X0.03740*%
%ADD94R,0.08465X0.23425*%
%ADD95R,0.05315X0.06102*%
%ADD96R,0.06102X0.04921*%
%ADD97R,0.04921X0.06102*%
G36*
X287713Y-698354D02*
Y-700028D01*
X285764D01*
Y-703591D01*
X287713D01*
Y-716189D01*
X290665D01*
Y-714221D01*
X302713D01*
Y-716189D01*
X305665D01*
Y-703591D01*
X307614D01*
Y-700028D01*
X305665D01*
Y-698354D01*
X287713D01*
D02*
G37*
G36*
Y-609354D02*
Y-611028D01*
X285764D01*
Y-614591D01*
X287713D01*
Y-627189D01*
X290665D01*
Y-625220D01*
X302713D01*
Y-627189D01*
X305665D01*
Y-614591D01*
X307614D01*
Y-611028D01*
X305665D01*
Y-609354D01*
X287713D01*
D02*
G37*
G36*
Y-520354D02*
Y-522028D01*
X285764D01*
Y-525591D01*
X287713D01*
Y-538189D01*
X290665D01*
Y-536221D01*
X302713D01*
Y-538189D01*
X305665D01*
Y-525591D01*
X307614D01*
Y-522028D01*
X305665D01*
Y-520354D01*
X287713D01*
D02*
G37*
G36*
Y-431354D02*
Y-433028D01*
X285764D01*
Y-436591D01*
X287713D01*
Y-449189D01*
X290665D01*
Y-447221D01*
X302713D01*
Y-449189D01*
X305665D01*
Y-436591D01*
X307614D01*
Y-433028D01*
X305665D01*
Y-431354D01*
X287713D01*
D02*
G37*
G36*
Y-342354D02*
Y-344028D01*
X285764D01*
Y-347591D01*
X287713D01*
Y-360189D01*
X290665D01*
Y-358221D01*
X302713D01*
Y-360189D01*
X305665D01*
Y-347591D01*
X307614D01*
Y-344028D01*
X305665D01*
Y-342354D01*
X287713D01*
D02*
G37*
G36*
Y-253354D02*
Y-255028D01*
X285764D01*
Y-258591D01*
X287713D01*
Y-271189D01*
X290665D01*
Y-269220D01*
X302713D01*
Y-271189D01*
X305665D01*
Y-258591D01*
X307614D01*
Y-255028D01*
X305665D01*
Y-253354D01*
X287713D01*
D02*
G37*
G36*
Y-164354D02*
Y-166028D01*
X285764D01*
Y-169591D01*
X287713D01*
Y-182189D01*
X290665D01*
Y-180220D01*
X302713D01*
Y-182189D01*
X305665D01*
Y-169591D01*
X307614D01*
Y-166028D01*
X305665D01*
Y-164354D01*
X287713D01*
D02*
G37*
G36*
Y-75354D02*
Y-77028D01*
X285764D01*
Y-80591D01*
X287713D01*
Y-93189D01*
X290665D01*
Y-91220D01*
X302713D01*
Y-93189D01*
X305665D01*
Y-80591D01*
X307614D01*
Y-77028D01*
X305665D01*
Y-75354D01*
X287713D01*
D02*
G37*
D18*
X-7500Y-529185D02*
D03*
Y-534500D02*
D03*
X-2000Y-529185D02*
D03*
Y-534500D02*
D03*
X4000Y-529185D02*
D03*
Y-534500D02*
D03*
X327689Y-688350D02*
D03*
Y-693665D02*
D03*
Y-599350D02*
D03*
Y-604665D02*
D03*
Y-510350D02*
D03*
Y-515665D02*
D03*
Y-421350D02*
D03*
Y-426665D02*
D03*
Y-332350D02*
D03*
Y-337665D02*
D03*
Y-243350D02*
D03*
Y-248665D02*
D03*
Y-154350D02*
D03*
Y-159665D02*
D03*
Y-65350D02*
D03*
Y-70665D02*
D03*
Y-700350D02*
D03*
Y-705665D02*
D03*
Y-611350D02*
D03*
Y-616665D02*
D03*
Y-522350D02*
D03*
Y-527665D02*
D03*
Y-433350D02*
D03*
Y-438665D02*
D03*
Y-344350D02*
D03*
Y-349665D02*
D03*
Y-255350D02*
D03*
Y-260665D02*
D03*
Y-166350D02*
D03*
Y-171665D02*
D03*
Y-77350D02*
D03*
Y-82665D02*
D03*
D19*
X317846Y-707008D02*
D03*
X312531D02*
D03*
X317846Y-618008D02*
D03*
X312531D02*
D03*
X317846Y-529008D02*
D03*
X312531D02*
D03*
X317846Y-440008D02*
D03*
X312531D02*
D03*
X317846Y-351008D02*
D03*
X312531D02*
D03*
X317846Y-262008D02*
D03*
X312531D02*
D03*
X317846Y-173008D02*
D03*
X312531D02*
D03*
X317846Y-84008D02*
D03*
X312531D02*
D03*
D23*
X153500Y-40989D02*
D03*
Y-46500D02*
D03*
X2197Y-98036D02*
D03*
Y-92524D02*
D03*
Y-80024D02*
D03*
Y-85536D02*
D03*
X19197Y-100036D02*
D03*
Y-94524D02*
D03*
D25*
X108000Y-46374D02*
D03*
Y-38500D02*
D03*
D28*
X18689Y-436881D02*
D03*
Y-421281D02*
D03*
Y-405681D02*
D03*
Y-343391D02*
D03*
Y-358991D02*
D03*
Y-374591D02*
D03*
D29*
Y-390091D02*
D03*
Y-327800D02*
D03*
D30*
X0Y-0D02*
D03*
X370079Y-468504D02*
D03*
Y-295276D02*
D03*
X0D02*
D03*
Y-468504D02*
D03*
Y-763780D02*
D03*
X370079D02*
D03*
Y0D02*
D03*
D32*
X75441Y-222925D02*
D03*
Y-177650D02*
D03*
Y-150091D02*
D03*
X56937Y-222925D02*
D03*
X257937Y-133925D02*
D03*
X276441Y-61091D02*
D03*
Y-88650D02*
D03*
Y-133925D02*
D03*
Y-222925D02*
D03*
Y-177650D02*
D03*
Y-150091D02*
D03*
X257937Y-222925D02*
D03*
Y-311925D02*
D03*
X276441Y-239091D02*
D03*
Y-266650D02*
D03*
Y-311925D02*
D03*
Y-400925D02*
D03*
Y-355650D02*
D03*
Y-328091D02*
D03*
X257937Y-400925D02*
D03*
Y-489925D02*
D03*
X276441Y-417091D02*
D03*
Y-444650D02*
D03*
Y-489925D02*
D03*
Y-578925D02*
D03*
Y-533650D02*
D03*
Y-506091D02*
D03*
X257937Y-578925D02*
D03*
Y-667925D02*
D03*
X276441Y-595091D02*
D03*
Y-622650D02*
D03*
Y-667925D02*
D03*
Y-756925D02*
D03*
Y-711650D02*
D03*
Y-684091D02*
D03*
X257937Y-756925D02*
D03*
X224437Y-133925D02*
D03*
X242941Y-61091D02*
D03*
Y-88650D02*
D03*
Y-133925D02*
D03*
Y-222925D02*
D03*
Y-177650D02*
D03*
Y-150091D02*
D03*
X224437Y-222925D02*
D03*
Y-311925D02*
D03*
X242941Y-239091D02*
D03*
Y-266650D02*
D03*
Y-311925D02*
D03*
Y-400925D02*
D03*
Y-355650D02*
D03*
Y-328091D02*
D03*
X224437Y-400925D02*
D03*
Y-489925D02*
D03*
X242941Y-417091D02*
D03*
Y-444650D02*
D03*
Y-489925D02*
D03*
Y-578925D02*
D03*
Y-533650D02*
D03*
Y-506091D02*
D03*
X224437Y-578925D02*
D03*
Y-667925D02*
D03*
X242941Y-595091D02*
D03*
Y-622650D02*
D03*
Y-667925D02*
D03*
Y-756925D02*
D03*
Y-711650D02*
D03*
Y-684091D02*
D03*
X224437Y-756925D02*
D03*
X190937Y-133925D02*
D03*
X209441Y-61091D02*
D03*
Y-88650D02*
D03*
Y-133925D02*
D03*
Y-222925D02*
D03*
Y-177650D02*
D03*
Y-150091D02*
D03*
X190937Y-222925D02*
D03*
Y-311925D02*
D03*
X209441Y-239091D02*
D03*
Y-266650D02*
D03*
Y-311925D02*
D03*
Y-400925D02*
D03*
Y-355650D02*
D03*
Y-328091D02*
D03*
X190937Y-400925D02*
D03*
Y-489925D02*
D03*
X209441Y-417091D02*
D03*
Y-444650D02*
D03*
Y-489925D02*
D03*
Y-578925D02*
D03*
Y-533650D02*
D03*
Y-506091D02*
D03*
X190937Y-578925D02*
D03*
Y-667925D02*
D03*
X209441Y-595091D02*
D03*
Y-622650D02*
D03*
Y-667925D02*
D03*
Y-756925D02*
D03*
Y-711650D02*
D03*
Y-684091D02*
D03*
X190937Y-756925D02*
D03*
X123937Y-133925D02*
D03*
X142441Y-61091D02*
D03*
Y-88650D02*
D03*
Y-133925D02*
D03*
Y-222925D02*
D03*
Y-177650D02*
D03*
Y-150091D02*
D03*
X123937Y-222925D02*
D03*
Y-311925D02*
D03*
X142441Y-239091D02*
D03*
Y-266650D02*
D03*
Y-311925D02*
D03*
Y-400925D02*
D03*
Y-355650D02*
D03*
Y-328091D02*
D03*
X123937Y-400925D02*
D03*
Y-489925D02*
D03*
X142441Y-417091D02*
D03*
Y-444650D02*
D03*
Y-489925D02*
D03*
Y-578925D02*
D03*
Y-533650D02*
D03*
Y-506091D02*
D03*
X123937Y-578925D02*
D03*
Y-667925D02*
D03*
X142441Y-595091D02*
D03*
Y-622650D02*
D03*
Y-667925D02*
D03*
Y-756925D02*
D03*
Y-711650D02*
D03*
Y-684091D02*
D03*
X123937Y-756925D02*
D03*
X157437Y-133925D02*
D03*
X175941Y-61091D02*
D03*
Y-88650D02*
D03*
Y-133925D02*
D03*
Y-222925D02*
D03*
Y-177650D02*
D03*
Y-150091D02*
D03*
X157437Y-222925D02*
D03*
Y-311925D02*
D03*
X175941Y-239091D02*
D03*
Y-266650D02*
D03*
Y-311925D02*
D03*
Y-400925D02*
D03*
Y-355650D02*
D03*
Y-328091D02*
D03*
X157437Y-400925D02*
D03*
Y-489925D02*
D03*
X175941Y-417091D02*
D03*
Y-444650D02*
D03*
Y-489925D02*
D03*
Y-578925D02*
D03*
Y-533650D02*
D03*
Y-506091D02*
D03*
X157437Y-578925D02*
D03*
Y-667925D02*
D03*
X175941Y-595091D02*
D03*
Y-622650D02*
D03*
Y-667925D02*
D03*
Y-756925D02*
D03*
Y-711650D02*
D03*
Y-684091D02*
D03*
X157437Y-756925D02*
D03*
X90437Y-133925D02*
D03*
X108941Y-61091D02*
D03*
Y-88650D02*
D03*
Y-133925D02*
D03*
Y-222925D02*
D03*
Y-177650D02*
D03*
Y-150091D02*
D03*
X90437Y-222925D02*
D03*
Y-311925D02*
D03*
X108941Y-239091D02*
D03*
Y-266650D02*
D03*
Y-311925D02*
D03*
Y-400925D02*
D03*
Y-355650D02*
D03*
Y-328091D02*
D03*
X90437Y-400925D02*
D03*
Y-489925D02*
D03*
X108941Y-417091D02*
D03*
Y-444650D02*
D03*
Y-489925D02*
D03*
Y-578925D02*
D03*
Y-533650D02*
D03*
Y-506091D02*
D03*
X90437Y-578925D02*
D03*
Y-667925D02*
D03*
X108941Y-595091D02*
D03*
Y-622650D02*
D03*
Y-667925D02*
D03*
Y-756925D02*
D03*
Y-711650D02*
D03*
Y-684091D02*
D03*
X90437Y-756925D02*
D03*
X56937Y-133925D02*
D03*
X75441Y-61091D02*
D03*
Y-88650D02*
D03*
Y-133925D02*
D03*
X56937Y-311925D02*
D03*
X75441Y-239091D02*
D03*
Y-266650D02*
D03*
Y-311925D02*
D03*
Y-400925D02*
D03*
Y-355650D02*
D03*
Y-328091D02*
D03*
X56937Y-400925D02*
D03*
Y-489925D02*
D03*
X75441Y-417091D02*
D03*
Y-444650D02*
D03*
Y-489925D02*
D03*
Y-578925D02*
D03*
Y-533650D02*
D03*
Y-506091D02*
D03*
X56937Y-578925D02*
D03*
Y-667925D02*
D03*
X75441Y-595091D02*
D03*
Y-622650D02*
D03*
Y-667925D02*
D03*
Y-756925D02*
D03*
Y-711650D02*
D03*
Y-684091D02*
D03*
X56937Y-756925D02*
D03*
D33*
X23347Y-25091D02*
D03*
X33189D02*
D03*
X335874Y-26091D02*
D03*
X326031D02*
D03*
X316189D02*
D03*
X306347D02*
D03*
X296504D02*
D03*
D34*
X43031Y-25091D02*
D03*
X345717Y-26091D02*
D03*
D35*
X85689Y-6591D02*
D03*
X130689D02*
D03*
X175689D02*
D03*
X220689D02*
D03*
X265374D02*
D03*
D36*
X66004D02*
D03*
X111004D02*
D03*
X156004D02*
D03*
X201004D02*
D03*
X245689D02*
D03*
D37*
X31500Y-759500D02*
D03*
X24500Y-105000D02*
D03*
X11000Y-108354D02*
D03*
X500Y-551500D02*
D03*
X-7526Y-676500D02*
D03*
X3500Y-555000D02*
D03*
X-2000D02*
D03*
X-4181Y-551710D02*
D03*
X-6500Y-555000D02*
D03*
X-9000Y-552000D02*
D03*
X3000Y-666000D02*
D03*
X28100Y-679000D02*
D03*
X26400Y-675600D02*
D03*
X7000Y-532842D02*
D03*
X4000Y-525500D02*
D03*
X-2000D02*
D03*
X-7500D02*
D03*
X500Y-669000D02*
D03*
X-2000Y-671500D02*
D03*
X-4500Y-674000D02*
D03*
X40000Y-610000D02*
D03*
X30500Y-606500D02*
D03*
X36000Y-650500D02*
D03*
X38500Y-653000D02*
D03*
X40159Y-68711D02*
D03*
X13000Y-144500D02*
D03*
X20500Y-161500D02*
D03*
X22205Y-155506D02*
D03*
X9500Y-226570D02*
D03*
X25000Y-93500D02*
D03*
X3500Y-108354D02*
D03*
X1400Y-203000D02*
D03*
X900Y-140500D02*
D03*
X26100Y-112600D02*
D03*
X4441Y-90280D02*
D03*
X6600Y-714600D02*
D03*
X6400Y-650000D02*
D03*
X340400Y-74400D02*
D03*
X327600Y-61700D02*
D03*
X336400Y-80700D02*
D03*
X345500Y-83300D02*
D03*
X340300Y-132800D02*
D03*
X340500Y-150100D02*
D03*
X327600Y-150000D02*
D03*
X336400Y-169700D02*
D03*
X345500Y-172300D02*
D03*
X340300Y-221600D02*
D03*
Y-239300D02*
D03*
X327700Y-239200D02*
D03*
X336400Y-258800D02*
D03*
X345400Y-261700D02*
D03*
X340300Y-311700D02*
D03*
X340200Y-325800D02*
D03*
X327700Y-328000D02*
D03*
X336400Y-347400D02*
D03*
X345400Y-350500D02*
D03*
X344000Y-365600D02*
D03*
X345146Y-360954D02*
D03*
X340200Y-400700D02*
D03*
X340300Y-688000D02*
D03*
Y-417400D02*
D03*
X327700Y-417300D02*
D03*
X336500Y-435900D02*
D03*
X345400Y-439400D02*
D03*
X340300Y-505800D02*
D03*
X327700Y-506000D02*
D03*
X340100Y-595200D02*
D03*
X327700Y-595300D02*
D03*
X340300Y-489600D02*
D03*
X336400Y-525000D02*
D03*
X345300Y-528400D02*
D03*
X340300Y-578500D02*
D03*
X357138Y-645008D02*
D03*
X359638Y-561008D02*
D03*
X362138Y-566008D02*
D03*
Y-388008D02*
D03*
X359638Y-650008D02*
D03*
X362138Y-655008D02*
D03*
X297579Y-680780D02*
D03*
X336400Y-613600D02*
D03*
X344000Y-616500D02*
D03*
X340300Y-667400D02*
D03*
X328600Y-683800D02*
D03*
X344300Y-706400D02*
D03*
X340300Y-755100D02*
D03*
X336400Y-714200D02*
D03*
X344200Y-721700D02*
D03*
X344500Y-751500D02*
D03*
X344400Y-746700D02*
D03*
X344300Y-741200D02*
D03*
X344400Y-736500D02*
D03*
X344300Y-731700D02*
D03*
X344000Y-726600D02*
D03*
X344500Y-717200D02*
D03*
X344100Y-663300D02*
D03*
Y-657600D02*
D03*
X343900Y-652600D02*
D03*
Y-647400D02*
D03*
X344000Y-642300D02*
D03*
X344400Y-637500D02*
D03*
X344200Y-632700D02*
D03*
X345200Y-628300D02*
D03*
X344000Y-573200D02*
D03*
X344100Y-568400D02*
D03*
X344000Y-563600D02*
D03*
X343900Y-558300D02*
D03*
Y-553300D02*
D03*
X344000Y-548500D02*
D03*
X344100Y-543600D02*
D03*
X344946Y-539554D02*
D03*
X344500Y-484500D02*
D03*
X344000Y-479500D02*
D03*
Y-474400D02*
D03*
X344100Y-469300D02*
D03*
X344300Y-464500D02*
D03*
Y-459700D02*
D03*
X344200Y-454800D02*
D03*
X344900Y-450600D02*
D03*
X344400Y-395800D02*
D03*
X344700Y-390000D02*
D03*
X344600Y-385400D02*
D03*
X344000Y-380100D02*
D03*
X344100Y-375400D02*
D03*
X344000Y-370300D02*
D03*
Y-306900D02*
D03*
X344200Y-301400D02*
D03*
X344300Y-296200D02*
D03*
X344100Y-291100D02*
D03*
X344000Y-286500D02*
D03*
X344100Y-281700D02*
D03*
X344400Y-276900D02*
D03*
X344746Y-272654D02*
D03*
X344800Y-217400D02*
D03*
X344500Y-212800D02*
D03*
X344800Y-207200D02*
D03*
X344600Y-202200D02*
D03*
Y-197900D02*
D03*
X344400Y-192400D02*
D03*
X344100Y-187600D02*
D03*
X344700Y-183100D02*
D03*
X344600Y-128200D02*
D03*
Y-123400D02*
D03*
X344200Y-118300D02*
D03*
X344500Y-113100D02*
D03*
X344100Y-94600D02*
D03*
Y-98600D02*
D03*
X344300Y-103700D02*
D03*
X344100Y-108600D02*
D03*
X50438Y-172008D02*
D03*
X13138Y-137708D02*
D03*
X22238Y-146208D02*
D03*
X3638Y-220208D02*
D03*
X18638Y-133008D02*
D03*
X27638Y-195008D02*
D03*
X-4362D02*
D03*
X-6081Y-190008D02*
D03*
X-2181Y-132508D02*
D03*
Y-180508D02*
D03*
X-8362Y-117508D02*
D03*
Y-175008D02*
D03*
X-3862Y-127508D02*
D03*
Y-71508D02*
D03*
X-6062Y-112808D02*
D03*
X3888Y-271758D02*
D03*
X888Y-274258D02*
D03*
X-5112Y-278508D02*
D03*
X-2112Y-276508D02*
D03*
Y-74758D02*
D03*
X-5862Y-64008D02*
D03*
X-7862Y-60508D02*
D03*
X20138Y-138008D02*
D03*
X22638Y-120508D02*
D03*
X21638Y-125508D02*
D03*
X22638Y-129508D02*
D03*
X32138Y-48508D02*
D03*
X43638Y-185008D02*
D03*
X38638Y-127508D02*
D03*
Y-56508D02*
D03*
X339638Y-769508D02*
D03*
X342638Y-766508D02*
D03*
X345638Y-763508D02*
D03*
X348638Y-760508D02*
D03*
X366638Y-285008D02*
D03*
Y-303508D02*
D03*
X362138Y-744008D02*
D03*
Y-304008D02*
D03*
X359638Y-294008D02*
D03*
X357138Y-289008D02*
D03*
X378138Y-306508D02*
D03*
X366638Y-459008D02*
D03*
X367138Y-477508D02*
D03*
X341138Y-40508D02*
D03*
X359419Y-473783D02*
D03*
X372138Y-751508D02*
D03*
X47138Y-706008D02*
D03*
X42138Y-703758D02*
D03*
X49638Y-702258D02*
D03*
X42138Y-699008D02*
D03*
X52888Y-698758D02*
D03*
X42138Y-695008D02*
D03*
X378138Y-126008D02*
D03*
Y-215008D02*
D03*
Y-393008D02*
D03*
Y-482008D02*
D03*
Y-571008D02*
D03*
Y-660008D02*
D03*
Y-749008D02*
D03*
X362138Y-121008D02*
D03*
Y-210008D02*
D03*
Y-477008D02*
D03*
X359638Y-383008D02*
D03*
Y-205008D02*
D03*
Y-116008D02*
D03*
X357138Y-556008D02*
D03*
X359638Y-739008D02*
D03*
X357138Y-734008D02*
D03*
Y-378008D02*
D03*
Y-200008D02*
D03*
Y-111008D02*
D03*
Y-467008D02*
D03*
X287079Y-687780D02*
D03*
X290579D02*
D03*
X294079D02*
D03*
X297579D02*
D03*
Y-684280D02*
D03*
X294079D02*
D03*
X290579D02*
D03*
X287079D02*
D03*
X294079Y-680780D02*
D03*
X290579D02*
D03*
X287079D02*
D03*
Y-598780D02*
D03*
X290579D02*
D03*
X294079D02*
D03*
X297579D02*
D03*
Y-595280D02*
D03*
X294079D02*
D03*
X290579D02*
D03*
X287079D02*
D03*
X297579Y-591780D02*
D03*
X294079D02*
D03*
X290579D02*
D03*
X287079D02*
D03*
Y-509780D02*
D03*
X290579D02*
D03*
X294079D02*
D03*
X297579D02*
D03*
Y-506280D02*
D03*
X294079D02*
D03*
X290579D02*
D03*
X287079D02*
D03*
X297579Y-502780D02*
D03*
X294079D02*
D03*
X290579D02*
D03*
X287079D02*
D03*
Y-420780D02*
D03*
X290579D02*
D03*
X294079D02*
D03*
X297579D02*
D03*
Y-417280D02*
D03*
X294079D02*
D03*
X290579D02*
D03*
X287079D02*
D03*
X297579Y-413780D02*
D03*
X294079D02*
D03*
X290579D02*
D03*
X287079D02*
D03*
Y-331780D02*
D03*
X290579D02*
D03*
X294079D02*
D03*
X297579D02*
D03*
Y-328280D02*
D03*
X294079D02*
D03*
X290579D02*
D03*
X287079D02*
D03*
X297579Y-324780D02*
D03*
X294079D02*
D03*
X290579D02*
D03*
X287079D02*
D03*
Y-242780D02*
D03*
X290579D02*
D03*
X294079D02*
D03*
X297579D02*
D03*
Y-239280D02*
D03*
X294079D02*
D03*
X290579D02*
D03*
X287079D02*
D03*
X297579Y-235780D02*
D03*
X294079D02*
D03*
X290579D02*
D03*
X287079D02*
D03*
Y-64780D02*
D03*
X290579D02*
D03*
X294079D02*
D03*
X297579D02*
D03*
Y-61280D02*
D03*
X294079D02*
D03*
X290579D02*
D03*
X287079D02*
D03*
X297579Y-57780D02*
D03*
X294079D02*
D03*
X290579D02*
D03*
X287079D02*
D03*
Y-146780D02*
D03*
X290579D02*
D03*
X294079D02*
D03*
X297579D02*
D03*
X287079Y-150280D02*
D03*
X290579D02*
D03*
X294079D02*
D03*
X297579D02*
D03*
Y-153780D02*
D03*
X294079D02*
D03*
X290579D02*
D03*
X287079D02*
D03*
D38*
X28500Y-15000D02*
D03*
X3200Y-19500D02*
D03*
D85*
X143200Y-37500D02*
D03*
D86*
X118800Y-28445D02*
D03*
Y-46555D02*
D03*
D87*
Y-37500D02*
D03*
D88*
X351693Y-716508D02*
D03*
Y-721508D02*
D03*
Y-726508D02*
D03*
Y-731508D02*
D03*
Y-736508D02*
D03*
Y-741508D02*
D03*
Y-746508D02*
D03*
Y-751508D02*
D03*
Y-756508D02*
D03*
X314685D02*
D03*
Y-751508D02*
D03*
Y-746508D02*
D03*
Y-741508D02*
D03*
Y-736508D02*
D03*
Y-731508D02*
D03*
Y-726508D02*
D03*
Y-721508D02*
D03*
Y-716508D02*
D03*
X351693Y-627508D02*
D03*
Y-632508D02*
D03*
Y-637508D02*
D03*
Y-642508D02*
D03*
Y-647508D02*
D03*
Y-652508D02*
D03*
Y-657508D02*
D03*
Y-662508D02*
D03*
Y-667508D02*
D03*
X314685D02*
D03*
Y-662508D02*
D03*
Y-657508D02*
D03*
Y-652508D02*
D03*
Y-647508D02*
D03*
Y-642508D02*
D03*
Y-637508D02*
D03*
Y-632508D02*
D03*
Y-627508D02*
D03*
X351693Y-538508D02*
D03*
Y-543508D02*
D03*
Y-548508D02*
D03*
Y-553508D02*
D03*
Y-558508D02*
D03*
Y-563508D02*
D03*
Y-568508D02*
D03*
Y-573508D02*
D03*
Y-578508D02*
D03*
X314685D02*
D03*
Y-573508D02*
D03*
Y-568508D02*
D03*
Y-563508D02*
D03*
Y-558508D02*
D03*
Y-553508D02*
D03*
Y-548508D02*
D03*
Y-543508D02*
D03*
Y-538508D02*
D03*
X351693Y-449508D02*
D03*
Y-454508D02*
D03*
Y-459508D02*
D03*
Y-464508D02*
D03*
Y-469508D02*
D03*
Y-474508D02*
D03*
Y-479508D02*
D03*
Y-484508D02*
D03*
Y-489508D02*
D03*
X314685D02*
D03*
Y-484508D02*
D03*
Y-479508D02*
D03*
Y-474508D02*
D03*
Y-469508D02*
D03*
Y-464508D02*
D03*
Y-459508D02*
D03*
Y-454508D02*
D03*
Y-449508D02*
D03*
X351693Y-360508D02*
D03*
Y-365508D02*
D03*
Y-370508D02*
D03*
Y-375508D02*
D03*
Y-380508D02*
D03*
Y-385508D02*
D03*
Y-390508D02*
D03*
Y-395508D02*
D03*
Y-400508D02*
D03*
X314685D02*
D03*
Y-395508D02*
D03*
Y-390508D02*
D03*
Y-385508D02*
D03*
Y-380508D02*
D03*
Y-375508D02*
D03*
Y-370508D02*
D03*
Y-365508D02*
D03*
Y-360508D02*
D03*
X351693Y-271508D02*
D03*
Y-276508D02*
D03*
Y-281508D02*
D03*
Y-286508D02*
D03*
Y-291508D02*
D03*
Y-296508D02*
D03*
Y-301508D02*
D03*
Y-306508D02*
D03*
Y-311508D02*
D03*
X314685D02*
D03*
Y-306508D02*
D03*
Y-301508D02*
D03*
Y-296508D02*
D03*
Y-291508D02*
D03*
Y-286508D02*
D03*
Y-281508D02*
D03*
Y-276508D02*
D03*
Y-271508D02*
D03*
X351693Y-182508D02*
D03*
Y-187508D02*
D03*
Y-192508D02*
D03*
Y-197508D02*
D03*
Y-202508D02*
D03*
Y-207508D02*
D03*
Y-212508D02*
D03*
Y-217508D02*
D03*
Y-222508D02*
D03*
X314685D02*
D03*
Y-217508D02*
D03*
Y-212508D02*
D03*
Y-207508D02*
D03*
Y-202508D02*
D03*
Y-197508D02*
D03*
Y-192508D02*
D03*
Y-187508D02*
D03*
Y-182508D02*
D03*
X351693Y-93508D02*
D03*
Y-98508D02*
D03*
Y-103508D02*
D03*
Y-108508D02*
D03*
Y-113508D02*
D03*
Y-118508D02*
D03*
Y-123508D02*
D03*
Y-128508D02*
D03*
Y-133508D02*
D03*
X314685D02*
D03*
Y-128508D02*
D03*
Y-123508D02*
D03*
Y-118508D02*
D03*
Y-113508D02*
D03*
Y-108508D02*
D03*
Y-103508D02*
D03*
Y-98508D02*
D03*
Y-93508D02*
D03*
D89*
X10291Y-79039D02*
D03*
Y-86520D02*
D03*
X22102D02*
D03*
Y-79039D02*
D03*
D90*
Y-82780D02*
D03*
D91*
X296689Y-707008D02*
D03*
Y-618008D02*
D03*
Y-529008D02*
D03*
Y-440008D02*
D03*
Y-351008D02*
D03*
Y-262008D02*
D03*
Y-173008D02*
D03*
Y-84008D02*
D03*
D92*
X304189Y-692508D02*
D03*
X299189D02*
D03*
X294189D02*
D03*
X289189D02*
D03*
X304189Y-603508D02*
D03*
X299189D02*
D03*
X294189D02*
D03*
X289189D02*
D03*
X304189Y-514508D02*
D03*
X299189D02*
D03*
X294189D02*
D03*
X289189D02*
D03*
X304189Y-425508D02*
D03*
X299189D02*
D03*
X294189D02*
D03*
X289189D02*
D03*
X304189Y-336508D02*
D03*
X299189D02*
D03*
X294189D02*
D03*
X289189D02*
D03*
X304189Y-247508D02*
D03*
X299189D02*
D03*
X294189D02*
D03*
X289189D02*
D03*
X304189Y-158508D02*
D03*
X299189D02*
D03*
X294189D02*
D03*
X289189D02*
D03*
X304189Y-69508D02*
D03*
X299189D02*
D03*
X294189D02*
D03*
X289189D02*
D03*
D93*
X312252Y-696508D02*
D03*
X320126Y-700248D02*
D03*
Y-692768D02*
D03*
X312252Y-607508D02*
D03*
X320126Y-611248D02*
D03*
Y-603768D02*
D03*
X312252Y-518508D02*
D03*
X320126Y-522248D02*
D03*
Y-514768D02*
D03*
X312252Y-429508D02*
D03*
X320126Y-433248D02*
D03*
Y-425768D02*
D03*
X312252Y-340508D02*
D03*
X320126Y-344248D02*
D03*
Y-336768D02*
D03*
X312252Y-251508D02*
D03*
X320126Y-255248D02*
D03*
Y-247768D02*
D03*
X312252Y-162508D02*
D03*
X320126Y-166248D02*
D03*
Y-158768D02*
D03*
X312252Y-73508D02*
D03*
X320126Y-77248D02*
D03*
Y-69768D02*
D03*
D94*
X2642Y-48780D02*
D03*
X20752D02*
D03*
D95*
X31390Y-68780D02*
D03*
X18004D02*
D03*
D96*
X30697Y-91732D02*
D03*
Y-85827D02*
D03*
X10697Y-101232D02*
D03*
Y-95327D02*
D03*
D97*
X3244Y-68280D02*
D03*
X9150D02*
D03*
M02*
