M48
;Layer_Color=9474304
;FILE_FORMAT=2:5
INCH,TZ
;TYPE=PLATED
T1F00S00C0.01181
T2F00S00C0.01575
T3F00S00C0.04200
T4F00S00C0.04400
T5F00S00C0.05118
T6F00S00C0.06690
T7F00S00C0.11811
;TYPE=NON_PLATED
T8F00S00C0.11811
%
T01
X339638Y-769508
X342638Y-766508
X345638Y-763508
X348638Y-760508
X344500Y-751500
X344400Y-746700
X344300Y-741200
X344400Y-736500
X344300Y-731700
X344000Y-726600
X344200Y-721700
X344500Y-717200
X344300Y-706400
X336400Y-714200
X357138Y-734008
X359638Y-739008
X362138Y-744008
X372138Y-751508
X378138Y-749008
X340300Y-755100
X31500Y-759500
X42138Y-703758
Y-699008
Y-695008
X52888Y-698758
X49638Y-702258
X47138Y-706008
X6600Y-714600
X500Y-669000
X-2000Y-671500
X-4500Y-674000
X-7526Y-676500
X3000Y-666000
X6400Y-650000
X36000Y-650500
X38500Y-653000
X26400Y-675600
X28100Y-679000
X30500Y-606500
X40000Y-610000
X3500Y-555000
X-2000
X-6500
X-9000Y-552000
X-4181Y-551710
X500Y-551500
X287079Y-591780
Y-595280
Y-598780
X290579
X294079
Y-595280
X290579
Y-591780
X294079
Y-680780
Y-684280
Y-687780
X290579
X287079
Y-684280
X290579
Y-680780
X287079
X297579
Y-684280
Y-687780
X328600Y-683800
X340300Y-688000
Y-667400
X344100Y-663300
Y-657600
X343900Y-652600
Y-647400
X344000Y-642300
X344400Y-637500
X344200Y-632700
X345200Y-628300
X344000Y-616500
X336400Y-613600
X340100Y-595200
X327700Y-595300
X340300Y-578500
X344000Y-573200
X344100Y-568400
X344000Y-563600
X343900Y-558300
Y-553300
X344000Y-548500
X344100Y-543600
X344946Y-539554
X357138Y-556008
X359638Y-561008
X362138Y-566008
X378138Y-571008
Y-660008
X362138Y-655008
X359638Y-650008
X357138Y-645008
X297579Y-598780
Y-595280
Y-591780
Y-509780
Y-506280
Y-502780
X327700Y-506000
X340300Y-505800
Y-489600
X344500Y-484500
X344000Y-479500
Y-474400
X344100Y-469300
X344300Y-464500
Y-459700
X344200Y-454800
X344900Y-450600
X345400Y-439400
X336500Y-435900
X340300Y-417400
X327700Y-417300
X340200Y-400700
X344400Y-395800
X344700Y-390000
X344600Y-385400
X344000Y-380100
X357138Y-378008
X359638Y-383008
X362138Y-388008
X378138Y-393008
X366638Y-459008
X357138Y-467008
X359419Y-473783
X362138Y-477008
X367138Y-477508
X378138Y-482008
X345300Y-528400
X336400Y-525000
X297579Y-420780
Y-417280
Y-413780
X294079
Y-417280
Y-420780
X290579
X287079
Y-417280
X290579
Y-413780
X287079
Y-502780
Y-506280
Y-509780
X290579
X294079
Y-506280
X290579
Y-502780
X294079
X4000Y-525500
X-2000
X-7500
X7000Y-532842
X3888Y-271758
X888Y-274258
X-2112Y-276508
X-5112Y-278508
X9500Y-226570
X287079Y-235780
Y-239280
Y-242780
X290579
X294079
Y-239280
X290579
Y-235780
X294079
Y-324780
Y-328280
Y-331780
X290579
X287079
Y-328280
X290579
Y-324780
X287079
X297579
Y-328280
Y-331780
X327700Y-328000
X340200Y-325800
X340300Y-311700
X344000Y-306900
X344200Y-301400
X344300Y-296200
X344100Y-291100
X344000Y-286500
X344100Y-281700
X344400Y-276900
X344746Y-272654
X345400Y-261700
X336400Y-258800
X340300Y-239300
X327700Y-239200
X340300Y-221600
X297579Y-235780
Y-239280
Y-242780
X357138Y-289008
X359638Y-294008
X362138Y-304008
X366638Y-303508
X378138Y-306508
X366638Y-285008
X345400Y-350500
X345146Y-360954
X344000Y-365600
Y-370300
X344100Y-375400
X336400Y-347400
X344800Y-217400
X344500Y-212800
X344800Y-207200
X344600Y-202200
Y-197900
X344400Y-192400
X344100Y-187600
X344700Y-183100
X345500Y-172300
X336400Y-169700
X340500Y-150100
X327600Y-150000
X340300Y-132800
X344600Y-128200
Y-123400
X344200Y-118300
X344500Y-113100
X344100Y-108600
X344300Y-103700
X344100Y-98600
Y-94600
X345500Y-83300
X336400Y-80700
X340400Y-74400
X297579Y-64780
Y-146780
Y-150280
Y-153780
X362138Y-121008
X359638Y-116008
X357138Y-111008
X378138Y-126008
Y-215008
X362138Y-210008
X359638Y-205008
X357138Y-200008
X294079Y-153780
Y-150280
Y-146780
X290579
X287079
Y-150280
X290579
Y-153780
X287079
Y-64780
X290579
X294079
X40159Y-68711
X25000Y-93500
X24500Y-105000
X26100Y-112600
X22638Y-120508
X21638Y-125508
X22638Y-129508
X18638Y-133008
X20138Y-138008
X13138Y-137708
X13000Y-144500
X22238Y-146208
X22205Y-155506
X20500Y-161500
X50438Y-172008
X43638Y-185008
X27638Y-195008
X-4362
X-6081Y-190008
X-2181Y-180508
X-8362Y-175008
X1400Y-203000
X3638Y-220208
X900Y-140500
X-2181Y-132508
X-3862Y-127508
X-8362Y-117508
X-6062Y-112808
X3500Y-108354
X11000
X4441Y-90280
X-2112Y-74758
X-3862Y-71508
X38638Y-127508
Y-56508
X32138Y-48508
X-7862Y-60508
X-5862Y-64008
X287079Y-61280
X290579
X294079
Y-57780
X290579
X287079
X297579
Y-61280
X327600Y-61700
X341138Y-40508
T02
X3200Y-19500
X28500Y-15000
T03
X23347Y-25091
X33189
X43031
X296504Y-26091
X306347
X316189
X326031
X335874
X345717
T04
X142441Y-756925
X157437
X175941
X190937
X209441
X224437
X242941
X257937
X276441
Y-711650
X242941
X209441
X175941
X142441
X108941
X75441
Y-756925
X90437
X108941
X123937
X56937
Y-667925
X75441
X90437
X108941
X123937
X108941Y-684091
X75441
Y-622650
Y-595091
Y-578925
X90437
X108941
X123937
X108941Y-595091
Y-622650
Y-533650
X75441
X56937Y-578925
X142441
X157437
X175941
X190937
X209441
X224437
X242941
X257937
X276441
Y-595091
Y-622650
X242941
Y-595091
X209441
Y-622650
X175941
Y-595091
X142441
Y-622650
Y-667925
X157437
X175941
X190937
X209441
X224437
X242941
X257937
X276441
Y-684091
X242941
X209441
X175941
X142441
Y-533650
X175941
X209441
X242941
X276441
Y-506091
Y-489925
X257937
X242941
Y-506091
X209441
Y-489925
X224437
X190937
X175941
Y-506091
X142441
Y-489925
X157437
X142441Y-444650
Y-417091
Y-400925
X157437
X175941
X190937
X209441
X224437
X242941
X257937
X276441
Y-417091
Y-444650
X242941
Y-417091
X209441
Y-444650
X175941
Y-417091
X108941
Y-400925
X123937
X90437
X75441
Y-417091
Y-444650
X108941
Y-489925
X123937
X108941Y-506091
X75441
Y-489925
X90437
X56937
Y-400925
X75441Y-355650
Y-328091
Y-311925
X90437
X108941
X123937
X108941Y-328091
Y-355650
Y-266650
Y-239091
Y-222925
X123937
X90437
X75441
Y-239091
Y-266650
X56937Y-222925
Y-311925
X142441
X157437
X175941
X190937
X209441
X224437
X242941
X257937
X276441
Y-328091
Y-355650
X242941
Y-328091
X209441
Y-355650
X175941
Y-328091
X142441
Y-355650
Y-266650
Y-239091
Y-222925
X157437
X175941
X190937
X209441
X224437
X242941
X257937
X276441
Y-239091
Y-266650
X242941
Y-239091
X209441
Y-266650
X175941
Y-239091
Y-177650
Y-150091
Y-133925
X190937
X209441
X224437
X242941
X257937
X276441
Y-150091
Y-177650
X242941
Y-150091
X209441
Y-177650
X142441
Y-150091
Y-133925
X157437
X142441Y-88650
X175941
X209441
X242941
X276441
X108941
X75441
Y-133925
X90437
X108941
X123937
X108941Y-150091
Y-177650
X75441
Y-150091
X56937Y-133925
X75441Y-61091
X108941
X142441
X175941
X209441
X242941
X276441
T05
X66004Y-6591
X85689
X111004
X130689
X156004
X175689
X201004
X220689
X245689
X265374
T06
X18689Y-436881
Y-421281
Y-405681
Y-390091
Y-374591
Y-358991
Y-343391
Y-327800
T07
X370079Y-763780
X0
X0Y-0
X370079Y0
T08
X370079Y-468504
X0
Y-295276
X370079
M30
