G04*
G04 #@! TF.GenerationSoftware,Altium Limited,Altium Designer,20.0.2 (26)*
G04*
G04 Layer_Color=8388736*
%FSLAX25Y25*%
%MOIN*%
G70*
G01*
G75*
%ADD17R,0.03740X0.03740*%
%ADD18R,0.04724X0.04134*%
%ADD19R,0.04134X0.04724*%
%ADD20O,0.02953X0.07669*%
%ADD21R,0.04528X0.06693*%
%ADD22R,0.03740X0.04134*%
%ADD23R,0.04134X0.03740*%
%ADD24O,0.09646X0.02953*%
%ADD25R,0.06693X0.04528*%
%ADD26O,0.09252X0.02953*%
%ADD27R,0.04134X0.04528*%
%ADD28O,0.16591X0.12591*%
%ADD29R,0.16591X0.12591*%
%ADD30C,0.06591*%
%ADD31C,0.06091*%
%ADD32C,0.09091*%
%ADD33O,0.07591X0.09591*%
%ADD34R,0.07591X0.09591*%
%ADD35C,0.10433*%
%ADD36R,0.10433X0.10433*%
%ADD37C,0.02953*%
%ADD38C,0.03740*%
D17*
X12500Y-737953D02*
D03*
Y-732047D02*
D03*
X19500Y-738000D02*
D03*
Y-732094D02*
D03*
X26500Y-737953D02*
D03*
Y-732047D02*
D03*
D18*
Y-750000D02*
D03*
Y-744685D02*
D03*
X19500Y-750157D02*
D03*
Y-744842D02*
D03*
X12500Y-750157D02*
D03*
Y-744842D02*
D03*
X-6000Y-509000D02*
D03*
Y-503685D02*
D03*
D19*
X17343Y-509500D02*
D03*
X22658D02*
D03*
X658Y-564333D02*
D03*
X-4657D02*
D03*
X658Y-570500D02*
D03*
X-4657D02*
D03*
X658Y-576667D02*
D03*
X-4657D02*
D03*
X658Y-582833D02*
D03*
X-4657D02*
D03*
X658Y-589000D02*
D03*
X-4657D02*
D03*
X658Y-595167D02*
D03*
X-4657D02*
D03*
X658Y-601333D02*
D03*
X-4657D02*
D03*
D20*
X-7500Y-541700D02*
D03*
X-2500D02*
D03*
X2500D02*
D03*
X7500D02*
D03*
X12500D02*
D03*
X17500D02*
D03*
X22500D02*
D03*
X27500D02*
D03*
X-7500Y-518300D02*
D03*
X-2500D02*
D03*
X2500D02*
D03*
X7500D02*
D03*
X12500D02*
D03*
X17500D02*
D03*
X22500D02*
D03*
X27500D02*
D03*
X8500Y-588700D02*
D03*
X13500D02*
D03*
X18500D02*
D03*
X23500D02*
D03*
X28500D02*
D03*
X33500D02*
D03*
X38500D02*
D03*
X43500D02*
D03*
X8500Y-565300D02*
D03*
X13500D02*
D03*
X18500D02*
D03*
X23500D02*
D03*
X28500D02*
D03*
X33500D02*
D03*
X38500D02*
D03*
X43500D02*
D03*
D21*
X49874Y-41000D02*
D03*
X42000D02*
D03*
X21626Y-166500D02*
D03*
X29500D02*
D03*
D22*
X47511Y-49500D02*
D03*
X42000D02*
D03*
D23*
X43000Y-63244D02*
D03*
Y-68755D02*
D03*
X6500Y-155500D02*
D03*
Y-161011D02*
D03*
D24*
X7260Y-175008D02*
D03*
Y-180008D02*
D03*
Y-185008D02*
D03*
Y-190008D02*
D03*
Y-195008D02*
D03*
Y-200008D02*
D03*
Y-205008D02*
D03*
Y-210008D02*
D03*
X33638Y-175008D02*
D03*
Y-180008D02*
D03*
Y-185008D02*
D03*
Y-190008D02*
D03*
Y-195008D02*
D03*
Y-200008D02*
D03*
Y-205008D02*
D03*
Y-210008D02*
D03*
X32827Y-86508D02*
D03*
Y-81508D02*
D03*
Y-76508D02*
D03*
Y-71508D02*
D03*
Y-66508D02*
D03*
Y-61508D02*
D03*
Y-56508D02*
D03*
Y-51508D02*
D03*
X6449Y-86508D02*
D03*
Y-81508D02*
D03*
Y-76508D02*
D03*
Y-71508D02*
D03*
Y-66508D02*
D03*
Y-61508D02*
D03*
Y-56508D02*
D03*
Y-51508D02*
D03*
X32827Y-147508D02*
D03*
Y-142508D02*
D03*
Y-137508D02*
D03*
Y-132508D02*
D03*
Y-127508D02*
D03*
Y-122508D02*
D03*
Y-117508D02*
D03*
Y-112508D02*
D03*
X6449Y-147508D02*
D03*
Y-142508D02*
D03*
Y-137508D02*
D03*
Y-132508D02*
D03*
Y-127508D02*
D03*
Y-122508D02*
D03*
Y-117508D02*
D03*
Y-112508D02*
D03*
D25*
X35000Y-98063D02*
D03*
Y-105937D02*
D03*
D26*
X33976Y-644780D02*
D03*
Y-639780D02*
D03*
Y-634780D02*
D03*
Y-629780D02*
D03*
Y-624780D02*
D03*
Y-619780D02*
D03*
Y-614780D02*
D03*
Y-609780D02*
D03*
X11079Y-644780D02*
D03*
Y-639780D02*
D03*
Y-634780D02*
D03*
Y-629780D02*
D03*
Y-624780D02*
D03*
Y-619780D02*
D03*
Y-614780D02*
D03*
Y-609780D02*
D03*
X34087Y-711591D02*
D03*
Y-706591D02*
D03*
Y-701591D02*
D03*
Y-696591D02*
D03*
Y-691591D02*
D03*
Y-686591D02*
D03*
Y-681591D02*
D03*
Y-676591D02*
D03*
X11189Y-711591D02*
D03*
Y-706591D02*
D03*
Y-701591D02*
D03*
Y-696591D02*
D03*
Y-691591D02*
D03*
Y-686591D02*
D03*
Y-681591D02*
D03*
Y-676591D02*
D03*
X351138Y-754008D02*
D03*
Y-749008D02*
D03*
Y-744008D02*
D03*
Y-739008D02*
D03*
Y-734008D02*
D03*
Y-729008D02*
D03*
Y-724008D02*
D03*
Y-719008D02*
D03*
X328240Y-754008D02*
D03*
Y-749008D02*
D03*
Y-744008D02*
D03*
Y-739008D02*
D03*
Y-734008D02*
D03*
Y-729008D02*
D03*
Y-724008D02*
D03*
Y-719008D02*
D03*
X351138Y-665008D02*
D03*
Y-660008D02*
D03*
Y-655008D02*
D03*
Y-650008D02*
D03*
Y-645008D02*
D03*
Y-640008D02*
D03*
Y-635008D02*
D03*
Y-630008D02*
D03*
X328240Y-665008D02*
D03*
Y-660008D02*
D03*
Y-655008D02*
D03*
Y-650008D02*
D03*
Y-645008D02*
D03*
Y-640008D02*
D03*
Y-635008D02*
D03*
Y-630008D02*
D03*
X351138Y-576008D02*
D03*
Y-571008D02*
D03*
Y-566008D02*
D03*
Y-561008D02*
D03*
Y-556008D02*
D03*
Y-551008D02*
D03*
Y-546008D02*
D03*
Y-541008D02*
D03*
X328240Y-576008D02*
D03*
Y-571008D02*
D03*
Y-566008D02*
D03*
Y-561008D02*
D03*
Y-556008D02*
D03*
Y-551008D02*
D03*
Y-546008D02*
D03*
Y-541008D02*
D03*
X351138Y-487008D02*
D03*
Y-482008D02*
D03*
Y-477008D02*
D03*
Y-472008D02*
D03*
Y-467008D02*
D03*
Y-462008D02*
D03*
Y-457008D02*
D03*
Y-452008D02*
D03*
X328240Y-487008D02*
D03*
Y-482008D02*
D03*
Y-477008D02*
D03*
Y-472008D02*
D03*
Y-467008D02*
D03*
Y-462008D02*
D03*
Y-457008D02*
D03*
Y-452008D02*
D03*
X351138Y-398008D02*
D03*
Y-393008D02*
D03*
Y-388008D02*
D03*
Y-383008D02*
D03*
Y-378008D02*
D03*
Y-373008D02*
D03*
Y-368008D02*
D03*
Y-363008D02*
D03*
X328240Y-398008D02*
D03*
Y-393008D02*
D03*
Y-388008D02*
D03*
Y-383008D02*
D03*
Y-378008D02*
D03*
Y-373008D02*
D03*
Y-368008D02*
D03*
Y-363008D02*
D03*
X351138Y-309008D02*
D03*
Y-304008D02*
D03*
Y-299008D02*
D03*
Y-294008D02*
D03*
Y-289008D02*
D03*
Y-284008D02*
D03*
Y-279008D02*
D03*
Y-274008D02*
D03*
X328240Y-309008D02*
D03*
Y-304008D02*
D03*
Y-299008D02*
D03*
Y-294008D02*
D03*
Y-289008D02*
D03*
Y-284008D02*
D03*
Y-279008D02*
D03*
Y-274008D02*
D03*
X351138Y-220008D02*
D03*
Y-215008D02*
D03*
Y-210008D02*
D03*
Y-205008D02*
D03*
Y-200008D02*
D03*
Y-195008D02*
D03*
Y-190008D02*
D03*
Y-185008D02*
D03*
X328240Y-220008D02*
D03*
Y-215008D02*
D03*
Y-210008D02*
D03*
Y-205008D02*
D03*
Y-200008D02*
D03*
Y-195008D02*
D03*
Y-190008D02*
D03*
Y-185008D02*
D03*
X351138Y-131008D02*
D03*
Y-126008D02*
D03*
Y-121008D02*
D03*
Y-116008D02*
D03*
Y-111008D02*
D03*
Y-106008D02*
D03*
Y-101008D02*
D03*
Y-96008D02*
D03*
X328240Y-131008D02*
D03*
Y-126008D02*
D03*
Y-121008D02*
D03*
Y-116008D02*
D03*
Y-111008D02*
D03*
Y-106008D02*
D03*
Y-101008D02*
D03*
Y-96008D02*
D03*
D27*
X34295Y-603008D02*
D03*
X28980D02*
D03*
X35545Y-669758D02*
D03*
X30230D02*
D03*
X350847Y-710008D02*
D03*
X345532D02*
D03*
X350847Y-621008D02*
D03*
X345532D02*
D03*
X350847Y-532008D02*
D03*
X345532D02*
D03*
X350847Y-443008D02*
D03*
X345532D02*
D03*
X350847Y-354008D02*
D03*
X345532D02*
D03*
X350847Y-265008D02*
D03*
X345532D02*
D03*
X350847Y-176008D02*
D03*
X345532D02*
D03*
X350847Y-87008D02*
D03*
X345532D02*
D03*
D28*
X18689Y-436881D02*
D03*
Y-421281D02*
D03*
Y-405681D02*
D03*
Y-343391D02*
D03*
Y-358991D02*
D03*
Y-374591D02*
D03*
D29*
Y-390091D02*
D03*
Y-327800D02*
D03*
D30*
X0Y-0D02*
D03*
X370079Y-468504D02*
D03*
Y-295276D02*
D03*
X0D02*
D03*
Y-468504D02*
D03*
Y-763780D02*
D03*
X370079D02*
D03*
Y0D02*
D03*
D31*
X75441Y-222925D02*
D03*
X56937D02*
D03*
X257937Y-133925D02*
D03*
X276441D02*
D03*
Y-222925D02*
D03*
X257937D02*
D03*
Y-311925D02*
D03*
X276441D02*
D03*
Y-400925D02*
D03*
X257937D02*
D03*
Y-489925D02*
D03*
X276441D02*
D03*
Y-578925D02*
D03*
X257937D02*
D03*
Y-667925D02*
D03*
X276441D02*
D03*
Y-756925D02*
D03*
X257937D02*
D03*
X224437Y-133925D02*
D03*
X242941D02*
D03*
Y-222925D02*
D03*
X224437D02*
D03*
Y-311925D02*
D03*
X242941D02*
D03*
Y-400925D02*
D03*
X224437D02*
D03*
Y-489925D02*
D03*
X242941D02*
D03*
Y-578925D02*
D03*
X224437D02*
D03*
Y-667925D02*
D03*
X242941D02*
D03*
Y-756925D02*
D03*
X224437D02*
D03*
X190937Y-133925D02*
D03*
X209441D02*
D03*
Y-222925D02*
D03*
X190937D02*
D03*
Y-311925D02*
D03*
X209441D02*
D03*
Y-400925D02*
D03*
X190937D02*
D03*
Y-489925D02*
D03*
X209441D02*
D03*
Y-578925D02*
D03*
X190937D02*
D03*
Y-667925D02*
D03*
X209441D02*
D03*
Y-756925D02*
D03*
X190937D02*
D03*
X123937Y-133925D02*
D03*
X142441D02*
D03*
Y-222925D02*
D03*
X123937D02*
D03*
Y-311925D02*
D03*
X142441D02*
D03*
Y-400925D02*
D03*
X123937D02*
D03*
Y-489925D02*
D03*
X142441D02*
D03*
Y-578925D02*
D03*
X123937D02*
D03*
Y-667925D02*
D03*
X142441D02*
D03*
Y-756925D02*
D03*
X123937D02*
D03*
X157437Y-133925D02*
D03*
X175941D02*
D03*
Y-222925D02*
D03*
X157437D02*
D03*
Y-311925D02*
D03*
X175941D02*
D03*
Y-400925D02*
D03*
X157437D02*
D03*
Y-489925D02*
D03*
X175941D02*
D03*
Y-578925D02*
D03*
X157437D02*
D03*
Y-667925D02*
D03*
X175941D02*
D03*
Y-756925D02*
D03*
X157437D02*
D03*
X90437Y-133925D02*
D03*
X108941D02*
D03*
Y-222925D02*
D03*
X90437D02*
D03*
Y-311925D02*
D03*
X108941D02*
D03*
Y-400925D02*
D03*
X90437D02*
D03*
Y-489925D02*
D03*
X108941D02*
D03*
Y-578925D02*
D03*
X90437D02*
D03*
Y-667925D02*
D03*
X108941D02*
D03*
Y-756925D02*
D03*
X90437D02*
D03*
X56937Y-133925D02*
D03*
X75441D02*
D03*
X56937Y-311925D02*
D03*
X75441D02*
D03*
Y-400925D02*
D03*
X56937D02*
D03*
Y-489925D02*
D03*
X75441D02*
D03*
Y-578925D02*
D03*
X56937D02*
D03*
Y-667925D02*
D03*
X75441D02*
D03*
Y-756925D02*
D03*
X56937D02*
D03*
D32*
X75441Y-177650D02*
D03*
Y-150091D02*
D03*
X276441Y-61091D02*
D03*
Y-88650D02*
D03*
Y-177650D02*
D03*
Y-150091D02*
D03*
Y-239091D02*
D03*
Y-266650D02*
D03*
Y-355650D02*
D03*
Y-328091D02*
D03*
Y-417091D02*
D03*
Y-444650D02*
D03*
Y-533650D02*
D03*
Y-506091D02*
D03*
Y-595091D02*
D03*
Y-622650D02*
D03*
Y-711650D02*
D03*
Y-684091D02*
D03*
X242941Y-61091D02*
D03*
Y-88650D02*
D03*
Y-177650D02*
D03*
Y-150091D02*
D03*
Y-239091D02*
D03*
Y-266650D02*
D03*
Y-355650D02*
D03*
Y-328091D02*
D03*
Y-417091D02*
D03*
Y-444650D02*
D03*
Y-533650D02*
D03*
Y-506091D02*
D03*
Y-595091D02*
D03*
Y-622650D02*
D03*
Y-711650D02*
D03*
Y-684091D02*
D03*
X209441Y-61091D02*
D03*
Y-88650D02*
D03*
Y-177650D02*
D03*
Y-150091D02*
D03*
Y-239091D02*
D03*
Y-266650D02*
D03*
Y-355650D02*
D03*
Y-328091D02*
D03*
Y-417091D02*
D03*
Y-444650D02*
D03*
Y-533650D02*
D03*
Y-506091D02*
D03*
Y-595091D02*
D03*
Y-622650D02*
D03*
Y-711650D02*
D03*
Y-684091D02*
D03*
X142441Y-61091D02*
D03*
Y-88650D02*
D03*
Y-177650D02*
D03*
Y-150091D02*
D03*
Y-239091D02*
D03*
Y-266650D02*
D03*
Y-355650D02*
D03*
Y-328091D02*
D03*
Y-417091D02*
D03*
Y-444650D02*
D03*
Y-533650D02*
D03*
Y-506091D02*
D03*
Y-595091D02*
D03*
Y-622650D02*
D03*
Y-711650D02*
D03*
Y-684091D02*
D03*
X175941Y-61091D02*
D03*
Y-88650D02*
D03*
Y-177650D02*
D03*
Y-150091D02*
D03*
Y-239091D02*
D03*
Y-266650D02*
D03*
Y-355650D02*
D03*
Y-328091D02*
D03*
Y-417091D02*
D03*
Y-444650D02*
D03*
Y-533650D02*
D03*
Y-506091D02*
D03*
Y-595091D02*
D03*
Y-622650D02*
D03*
Y-711650D02*
D03*
Y-684091D02*
D03*
X108941Y-61091D02*
D03*
Y-88650D02*
D03*
Y-177650D02*
D03*
Y-150091D02*
D03*
Y-239091D02*
D03*
Y-266650D02*
D03*
Y-355650D02*
D03*
Y-328091D02*
D03*
Y-417091D02*
D03*
Y-444650D02*
D03*
Y-533650D02*
D03*
Y-506091D02*
D03*
Y-595091D02*
D03*
Y-622650D02*
D03*
Y-711650D02*
D03*
Y-684091D02*
D03*
X75441Y-61091D02*
D03*
Y-88650D02*
D03*
Y-239091D02*
D03*
Y-266650D02*
D03*
Y-355650D02*
D03*
Y-328091D02*
D03*
Y-417091D02*
D03*
Y-444650D02*
D03*
Y-533650D02*
D03*
Y-506091D02*
D03*
Y-595091D02*
D03*
Y-622650D02*
D03*
Y-711650D02*
D03*
Y-684091D02*
D03*
D33*
X23347Y-25091D02*
D03*
X33189D02*
D03*
X335874Y-26091D02*
D03*
X326031D02*
D03*
X316189D02*
D03*
X306347D02*
D03*
X296504D02*
D03*
D34*
X43031Y-25091D02*
D03*
X345717Y-26091D02*
D03*
D35*
X85689Y-6591D02*
D03*
X130689D02*
D03*
X175689D02*
D03*
X220689D02*
D03*
X265374D02*
D03*
D36*
X66004D02*
D03*
X111004D02*
D03*
X156004D02*
D03*
X201004D02*
D03*
X245689D02*
D03*
D37*
X31500Y-759500D02*
D03*
X24500Y-105000D02*
D03*
X11000Y-108354D02*
D03*
X500Y-551500D02*
D03*
X-7526Y-676500D02*
D03*
X3500Y-555000D02*
D03*
X-2000D02*
D03*
X-4181Y-551710D02*
D03*
X-6500Y-555000D02*
D03*
X-9000Y-552000D02*
D03*
X3000Y-666000D02*
D03*
X28100Y-679000D02*
D03*
X26400Y-675600D02*
D03*
X7000Y-532842D02*
D03*
X4000Y-525500D02*
D03*
X-2000D02*
D03*
X-7500D02*
D03*
X500Y-669000D02*
D03*
X-2000Y-671500D02*
D03*
X-4500Y-674000D02*
D03*
X40000Y-610000D02*
D03*
X30500Y-606500D02*
D03*
X36000Y-650500D02*
D03*
X38500Y-653000D02*
D03*
X40159Y-68711D02*
D03*
X13000Y-144500D02*
D03*
X20500Y-161500D02*
D03*
X22205Y-155506D02*
D03*
X9500Y-226570D02*
D03*
X25000Y-93500D02*
D03*
X3500Y-108354D02*
D03*
X1400Y-203000D02*
D03*
X900Y-140500D02*
D03*
X26100Y-112600D02*
D03*
X4441Y-90280D02*
D03*
X6600Y-714600D02*
D03*
X6400Y-650000D02*
D03*
X340400Y-74400D02*
D03*
X327600Y-61700D02*
D03*
X336400Y-80700D02*
D03*
X345500Y-83300D02*
D03*
X340300Y-132800D02*
D03*
X340500Y-150100D02*
D03*
X327600Y-150000D02*
D03*
X336400Y-169700D02*
D03*
X345500Y-172300D02*
D03*
X340300Y-221600D02*
D03*
Y-239300D02*
D03*
X327700Y-239200D02*
D03*
X336400Y-258800D02*
D03*
X345400Y-261700D02*
D03*
X340300Y-311700D02*
D03*
X340200Y-325800D02*
D03*
X327700Y-328000D02*
D03*
X336400Y-347400D02*
D03*
X345400Y-350500D02*
D03*
X344000Y-365600D02*
D03*
X345146Y-360954D02*
D03*
X340200Y-400700D02*
D03*
X340300Y-688000D02*
D03*
Y-417400D02*
D03*
X327700Y-417300D02*
D03*
X336500Y-435900D02*
D03*
X345400Y-439400D02*
D03*
X340300Y-505800D02*
D03*
X327700Y-506000D02*
D03*
X340100Y-595200D02*
D03*
X327700Y-595300D02*
D03*
X340300Y-489600D02*
D03*
X336400Y-525000D02*
D03*
X345300Y-528400D02*
D03*
X340300Y-578500D02*
D03*
X357138Y-645008D02*
D03*
X359638Y-561008D02*
D03*
X362138Y-566008D02*
D03*
Y-388008D02*
D03*
X359638Y-650008D02*
D03*
X362138Y-655008D02*
D03*
X297579Y-680780D02*
D03*
X336400Y-613600D02*
D03*
X344000Y-616500D02*
D03*
X340300Y-667400D02*
D03*
X328600Y-683800D02*
D03*
X344300Y-706400D02*
D03*
X340300Y-755100D02*
D03*
X336400Y-714200D02*
D03*
X344200Y-721700D02*
D03*
X344500Y-751500D02*
D03*
X344400Y-746700D02*
D03*
X344300Y-741200D02*
D03*
X344400Y-736500D02*
D03*
X344300Y-731700D02*
D03*
X344000Y-726600D02*
D03*
X344500Y-717200D02*
D03*
X344100Y-663300D02*
D03*
Y-657600D02*
D03*
X343900Y-652600D02*
D03*
Y-647400D02*
D03*
X344000Y-642300D02*
D03*
X344400Y-637500D02*
D03*
X344200Y-632700D02*
D03*
X345200Y-628300D02*
D03*
X344000Y-573200D02*
D03*
X344100Y-568400D02*
D03*
X344000Y-563600D02*
D03*
X343900Y-558300D02*
D03*
Y-553300D02*
D03*
X344000Y-548500D02*
D03*
X344100Y-543600D02*
D03*
X344946Y-539554D02*
D03*
X344500Y-484500D02*
D03*
X344000Y-479500D02*
D03*
Y-474400D02*
D03*
X344100Y-469300D02*
D03*
X344300Y-464500D02*
D03*
Y-459700D02*
D03*
X344200Y-454800D02*
D03*
X344900Y-450600D02*
D03*
X344400Y-395800D02*
D03*
X344700Y-390000D02*
D03*
X344600Y-385400D02*
D03*
X344000Y-380100D02*
D03*
X344100Y-375400D02*
D03*
X344000Y-370300D02*
D03*
Y-306900D02*
D03*
X344200Y-301400D02*
D03*
X344300Y-296200D02*
D03*
X344100Y-291100D02*
D03*
X344000Y-286500D02*
D03*
X344100Y-281700D02*
D03*
X344400Y-276900D02*
D03*
X344746Y-272654D02*
D03*
X344800Y-217400D02*
D03*
X344500Y-212800D02*
D03*
X344800Y-207200D02*
D03*
X344600Y-202200D02*
D03*
Y-197900D02*
D03*
X344400Y-192400D02*
D03*
X344100Y-187600D02*
D03*
X344700Y-183100D02*
D03*
X344600Y-128200D02*
D03*
Y-123400D02*
D03*
X344200Y-118300D02*
D03*
X344500Y-113100D02*
D03*
X344100Y-94600D02*
D03*
Y-98600D02*
D03*
X344300Y-103700D02*
D03*
X344100Y-108600D02*
D03*
X50438Y-172008D02*
D03*
X13138Y-137708D02*
D03*
X22238Y-146208D02*
D03*
X3638Y-220208D02*
D03*
X18638Y-133008D02*
D03*
X27638Y-195008D02*
D03*
X-4362D02*
D03*
X-6081Y-190008D02*
D03*
X-2181Y-132508D02*
D03*
Y-180508D02*
D03*
X-8362Y-117508D02*
D03*
Y-175008D02*
D03*
X-3862Y-127508D02*
D03*
Y-71508D02*
D03*
X-6062Y-112808D02*
D03*
X3888Y-271758D02*
D03*
X888Y-274258D02*
D03*
X-5112Y-278508D02*
D03*
X-2112Y-276508D02*
D03*
Y-74758D02*
D03*
X-5862Y-64008D02*
D03*
X-7862Y-60508D02*
D03*
X20138Y-138008D02*
D03*
X22638Y-120508D02*
D03*
X21638Y-125508D02*
D03*
X22638Y-129508D02*
D03*
X32138Y-48508D02*
D03*
X43638Y-185008D02*
D03*
X38638Y-127508D02*
D03*
Y-56508D02*
D03*
X339638Y-769508D02*
D03*
X342638Y-766508D02*
D03*
X345638Y-763508D02*
D03*
X348638Y-760508D02*
D03*
X366638Y-285008D02*
D03*
Y-303508D02*
D03*
X362138Y-744008D02*
D03*
Y-304008D02*
D03*
X359638Y-294008D02*
D03*
X357138Y-289008D02*
D03*
X378138Y-306508D02*
D03*
X366638Y-459008D02*
D03*
X367138Y-477508D02*
D03*
X341138Y-40508D02*
D03*
X359419Y-473783D02*
D03*
X372138Y-751508D02*
D03*
X47138Y-706008D02*
D03*
X42138Y-703758D02*
D03*
X49638Y-702258D02*
D03*
X42138Y-699008D02*
D03*
X52888Y-698758D02*
D03*
X42138Y-695008D02*
D03*
X378138Y-126008D02*
D03*
Y-215008D02*
D03*
Y-393008D02*
D03*
Y-482008D02*
D03*
Y-571008D02*
D03*
Y-660008D02*
D03*
Y-749008D02*
D03*
X362138Y-121008D02*
D03*
Y-210008D02*
D03*
Y-477008D02*
D03*
X359638Y-383008D02*
D03*
Y-205008D02*
D03*
Y-116008D02*
D03*
X357138Y-556008D02*
D03*
X359638Y-739008D02*
D03*
X357138Y-734008D02*
D03*
Y-378008D02*
D03*
Y-200008D02*
D03*
Y-111008D02*
D03*
Y-467008D02*
D03*
X287079Y-687780D02*
D03*
X290579D02*
D03*
X294079D02*
D03*
X297579D02*
D03*
Y-684280D02*
D03*
X294079D02*
D03*
X290579D02*
D03*
X287079D02*
D03*
X294079Y-680780D02*
D03*
X290579D02*
D03*
X287079D02*
D03*
Y-598780D02*
D03*
X290579D02*
D03*
X294079D02*
D03*
X297579D02*
D03*
Y-595280D02*
D03*
X294079D02*
D03*
X290579D02*
D03*
X287079D02*
D03*
X297579Y-591780D02*
D03*
X294079D02*
D03*
X290579D02*
D03*
X287079D02*
D03*
Y-509780D02*
D03*
X290579D02*
D03*
X294079D02*
D03*
X297579D02*
D03*
Y-506280D02*
D03*
X294079D02*
D03*
X290579D02*
D03*
X287079D02*
D03*
X297579Y-502780D02*
D03*
X294079D02*
D03*
X290579D02*
D03*
X287079D02*
D03*
Y-420780D02*
D03*
X290579D02*
D03*
X294079D02*
D03*
X297579D02*
D03*
Y-417280D02*
D03*
X294079D02*
D03*
X290579D02*
D03*
X287079D02*
D03*
X297579Y-413780D02*
D03*
X294079D02*
D03*
X290579D02*
D03*
X287079D02*
D03*
Y-331780D02*
D03*
X290579D02*
D03*
X294079D02*
D03*
X297579D02*
D03*
Y-328280D02*
D03*
X294079D02*
D03*
X290579D02*
D03*
X287079D02*
D03*
X297579Y-324780D02*
D03*
X294079D02*
D03*
X290579D02*
D03*
X287079D02*
D03*
Y-242780D02*
D03*
X290579D02*
D03*
X294079D02*
D03*
X297579D02*
D03*
Y-239280D02*
D03*
X294079D02*
D03*
X290579D02*
D03*
X287079D02*
D03*
X297579Y-235780D02*
D03*
X294079D02*
D03*
X290579D02*
D03*
X287079D02*
D03*
Y-64780D02*
D03*
X290579D02*
D03*
X294079D02*
D03*
X297579D02*
D03*
Y-61280D02*
D03*
X294079D02*
D03*
X290579D02*
D03*
X287079D02*
D03*
X297579Y-57780D02*
D03*
X294079D02*
D03*
X290579D02*
D03*
X287079D02*
D03*
Y-146780D02*
D03*
X290579D02*
D03*
X294079D02*
D03*
X297579D02*
D03*
X287079Y-150280D02*
D03*
X290579D02*
D03*
X294079D02*
D03*
X297579D02*
D03*
Y-153780D02*
D03*
X294079D02*
D03*
X290579D02*
D03*
X287079D02*
D03*
D38*
X28500Y-15000D02*
D03*
X3200Y-19500D02*
D03*
M02*
