G04*
G04 #@! TF.GenerationSoftware,Altium Limited,Altium Designer,20.0.2 (26)*
G04*
G04 Layer_Color=65535*
%FSLAX25Y25*%
%MOIN*%
G70*
G01*
G75*
%ADD10C,0.01000*%
%ADD11C,0.00984*%
%ADD12C,0.02362*%
%ADD13C,0.00591*%
%ADD14C,0.00394*%
%ADD15C,0.00787*%
%ADD16C,0.00600*%
G36*
X317943Y-650614D02*
X317946Y-651262D01*
X317949Y-651893D01*
X317951Y-652506D01*
X317953Y-653103D01*
X317954Y-653683D01*
X317954Y-654246D01*
X317954Y-654791D01*
X317953Y-655318D01*
X317952Y-655829D01*
X317950Y-656321D01*
X317947Y-656796D01*
X317943Y-657252D01*
X317939Y-657690D01*
X317935Y-658111D01*
X317929Y-658512D01*
X317923Y-658896D01*
X317917Y-659260D01*
X317910Y-659606D01*
X317902Y-659933D01*
X317893Y-660241D01*
X317884Y-660530D01*
X317875Y-660799D01*
X317864Y-661049D01*
X317854Y-661279D01*
X317842Y-661490D01*
X317830Y-661681D01*
X317818Y-661852D01*
X317804Y-662003D01*
X317791Y-662134D01*
X317776Y-662245D01*
X317761Y-662335D01*
X317745Y-662404D01*
X317731Y-662455D01*
X317715Y-662508D01*
X317697Y-662562D01*
X317678Y-662617D01*
X317657Y-662674D01*
X317634Y-662732D01*
X317610Y-662790D01*
X317585Y-662850D01*
X317558Y-662910D01*
X317530Y-662971D01*
X317502Y-663033D01*
X317472Y-663094D01*
X317440Y-663156D01*
X317408Y-663219D01*
X317375Y-663281D01*
X317341Y-663343D01*
X317307Y-663405D01*
X317271Y-663467D01*
X317235Y-663528D01*
X317199Y-663588D01*
X317162Y-663648D01*
X317124Y-663708D01*
X317086Y-663766D01*
X317048Y-663823D01*
X317010Y-663879D01*
X316971Y-663934D01*
X316932Y-663988D01*
X316893Y-664040D01*
X316854Y-664090D01*
X316815Y-664139D01*
X316776Y-664186D01*
X316738Y-664231D01*
X315992Y-665082D01*
X314745Y-665350D01*
X314666Y-665366D01*
X314577Y-665381D01*
X314480Y-665396D01*
X314374Y-665410D01*
X314260Y-665424D01*
X314138Y-665438D01*
X314009Y-665451D01*
X313873Y-665463D01*
X313729Y-665475D01*
X313579Y-665486D01*
X313423Y-665497D01*
X313260Y-665508D01*
X313092Y-665518D01*
X312918Y-665527D01*
X312739Y-665536D01*
X312555Y-665544D01*
X312366Y-665552D01*
X312173Y-665559D01*
X311976Y-665566D01*
X311775Y-665573D01*
X311571Y-665579D01*
X311364Y-665584D01*
X311154Y-665589D01*
X310941Y-665593D01*
X310725Y-665597D01*
X310508Y-665601D01*
X310289Y-665603D01*
X310069Y-665606D01*
X309847Y-665608D01*
X309625Y-665609D01*
X309402Y-665610D01*
X309178Y-665610D01*
X308955Y-665610D01*
X308732Y-665610D01*
X308510Y-665609D01*
X308288Y-665607D01*
X308068Y-665605D01*
X307849Y-665602D01*
X307631Y-665599D01*
X307416Y-665595D01*
X307204Y-665591D01*
X306993Y-665586D01*
X306786Y-665581D01*
X306582Y-665576D01*
X306381Y-665569D01*
X306184Y-665563D01*
X305992Y-665555D01*
X305803Y-665548D01*
X305619Y-665540D01*
X305441Y-665531D01*
X305267Y-665522D01*
X305099Y-665512D01*
X304937Y-665502D01*
X304780Y-665491D01*
X304630Y-665480D01*
X304487Y-665468D01*
X304351Y-665456D01*
X304222Y-665443D01*
X304101Y-665430D01*
X303987Y-665416D01*
X303882Y-665402D01*
X303785Y-665387D01*
X303696Y-665371D01*
X303617Y-665356D01*
X302397Y-665093D01*
X301603Y-664272D01*
X301521Y-664185D01*
X301439Y-664092D01*
X301358Y-663996D01*
X301277Y-663896D01*
X301199Y-663794D01*
X301123Y-663690D01*
X301049Y-663584D01*
X300978Y-663479D01*
X300912Y-663375D01*
X300849Y-663271D01*
X300792Y-663170D01*
X300739Y-663072D01*
X300693Y-662978D01*
X300652Y-662888D01*
X300619Y-662804D01*
X300592Y-662726D01*
X300591Y-662721D01*
X300590Y-662716D01*
X300588Y-662710D01*
X300587Y-662704D01*
X300586Y-662697D01*
X300584Y-662690D01*
X300583Y-662682D01*
X300581Y-662674D01*
X300580Y-662666D01*
X300579Y-662657D01*
X300577Y-662648D01*
X300576Y-662638D01*
X300574Y-662628D01*
X300573Y-662617D01*
X300572Y-662606D01*
X300570Y-662595D01*
X300569Y-662583D01*
X300568Y-662571D01*
X300566Y-662558D01*
X300565Y-662545D01*
X300564Y-662531D01*
X300562Y-662517D01*
X300561Y-662503D01*
X300559Y-662488D01*
X300558Y-662473D01*
X300557Y-662457D01*
X300555Y-662441D01*
X300554Y-662425D01*
X300553Y-662408D01*
X300551Y-662391D01*
X300550Y-662373D01*
X300549Y-662355D01*
X300547Y-662336D01*
X300546Y-662318D01*
X300545Y-662298D01*
X300543Y-662279D01*
X300542Y-662259D01*
X300541Y-662238D01*
X300539Y-662217D01*
X300538Y-662196D01*
X300537Y-662175D01*
X300535Y-662153D01*
X300534Y-662130D01*
X300533Y-662107D01*
X300531Y-662084D01*
X300530Y-662061D01*
X300529Y-662037D01*
X300527Y-662012D01*
X300526Y-661988D01*
X300525Y-661963D01*
X300523Y-661937D01*
X300522Y-661911D01*
X300521Y-661885D01*
X300520Y-661859D01*
X300518Y-661832D01*
X300517Y-661805D01*
X300516Y-661777D01*
X300514Y-661749D01*
X300513Y-661721D01*
X300512Y-661692D01*
X300511Y-661663D01*
X300509Y-661633D01*
X300508Y-661604D01*
X300507Y-661573D01*
X300505Y-661543D01*
X300504Y-661512D01*
X300503Y-661481D01*
X300502Y-661449D01*
X300500Y-661417D01*
X300499Y-661385D01*
X300498Y-661352D01*
X300497Y-661319D01*
X300496Y-661286D01*
X300494Y-661253D01*
X300493Y-661219D01*
X300492Y-661184D01*
X300491Y-661150D01*
X300489Y-661115D01*
X300488Y-661079D01*
X300487Y-661044D01*
X300486Y-661008D01*
X300485Y-660971D01*
X300483Y-660935D01*
X300482Y-660898D01*
X300481Y-660861D01*
X300480Y-660823D01*
X300479Y-660785D01*
X300477Y-660747D01*
X300476Y-660708D01*
X300475Y-660669D01*
X300474Y-660630D01*
X300473Y-660591D01*
X300471Y-660551D01*
X300470Y-660511D01*
X300469Y-660470D01*
X300468Y-660429D01*
X300467Y-660388D01*
X300466Y-660347D01*
X300465Y-660305D01*
X300464Y-660263D01*
X300462Y-660221D01*
X300461Y-660179D01*
X300460Y-660136D01*
X300459Y-660092D01*
X300458Y-660049D01*
X300457Y-660005D01*
X300456Y-659961D01*
X300454Y-659917D01*
X300453Y-659872D01*
X300452Y-659827D01*
X300451Y-659782D01*
X300450Y-659737D01*
X300449Y-659691D01*
X300448Y-659645D01*
X300447Y-659598D01*
X300446Y-659552D01*
X300445Y-659505D01*
X300444Y-659458D01*
X300443Y-659410D01*
X300442Y-659363D01*
X300441Y-659315D01*
X300440Y-659267D01*
X300438Y-659218D01*
X300437Y-659169D01*
X300436Y-659120D01*
X300435Y-659071D01*
X300434Y-659021D01*
X300433Y-658971D01*
X300432Y-658921D01*
X300431Y-658871D01*
X300430Y-658820D01*
X300429Y-658770D01*
X300428Y-658718D01*
X300427Y-658667D01*
X300427Y-658615D01*
X300426Y-658564D01*
X300425Y-658511D01*
X300424Y-658459D01*
X300423Y-658406D01*
X300422Y-658354D01*
X300421Y-658300D01*
X300420Y-658247D01*
X300419Y-658193D01*
X300418Y-658140D01*
X300417Y-658086D01*
X300416Y-658031D01*
X300415Y-657977D01*
X300414Y-657922D01*
X300413Y-657867D01*
X300412Y-657812D01*
X300412Y-657756D01*
X300411Y-657701D01*
X300410Y-657645D01*
X300409Y-657589D01*
X300408Y-657532D01*
X300407Y-657476D01*
X300406Y-657419D01*
X300406Y-657362D01*
X300405Y-657305D01*
X300404Y-657247D01*
X300403Y-657190D01*
X300402Y-657132D01*
X300401Y-657074D01*
X300400Y-657016D01*
X300400Y-656957D01*
X300399Y-656899D01*
X300398Y-656840D01*
X300397Y-656781D01*
X300396Y-656721D01*
X300396Y-656662D01*
X300395Y-656602D01*
X300394Y-656542D01*
X300393Y-656482D01*
X300393Y-656422D01*
X300392Y-656361D01*
X300391Y-656301D01*
X300390Y-656240D01*
X300390Y-656179D01*
X300389Y-656118D01*
X300388Y-656056D01*
X300388Y-655995D01*
X300387Y-655933D01*
X300386Y-655871D01*
X300385Y-655809D01*
X300385Y-655747D01*
X300384Y-655684D01*
X300383Y-655622D01*
X300383Y-655559D01*
X300382Y-655496D01*
X300381Y-655433D01*
X300381Y-655369D01*
X300380Y-655306D01*
X300379Y-655242D01*
X300379Y-655178D01*
X300378Y-655115D01*
X300378Y-655050D01*
X300377Y-654986D01*
X300377Y-654922D01*
X300376Y-654857D01*
X300375Y-654792D01*
X300375Y-654727D01*
X300374Y-654662D01*
X300374Y-654597D01*
X300373Y-654531D01*
X300373Y-654466D01*
X300372Y-654400D01*
X300371Y-654334D01*
X300371Y-654269D01*
X300370Y-654203D01*
X300370Y-654136D01*
X300369Y-654070D01*
X300369Y-654003D01*
X300368Y-653937D01*
X300368Y-653870D01*
X300367Y-653803D01*
X300367Y-653736D01*
X300366Y-653669D01*
X300366Y-653601D01*
X300366Y-653534D01*
X300365Y-653466D01*
X300365Y-653399D01*
X300364Y-653331D01*
X300364Y-653263D01*
X300363Y-653195D01*
X300363Y-653127D01*
X300363Y-653058D01*
X300362Y-652990D01*
X300362Y-652922D01*
X300362Y-652853D01*
X300361Y-652784D01*
X300361Y-652715D01*
X300360Y-652646D01*
X300360Y-652577D01*
X300360Y-652508D01*
X300360Y-652439D01*
X300359Y-652369D01*
X300359Y-652300D01*
X300359Y-652230D01*
X300358Y-652161D01*
X300358Y-652091D01*
X300358Y-652021D01*
X300358Y-651951D01*
X300357Y-651881D01*
X300357Y-651811D01*
X300357Y-651741D01*
X300357Y-651670D01*
X300356Y-651600D01*
X300356Y-651530D01*
X300356Y-651459D01*
X300356Y-651388D01*
X300356Y-651318D01*
X300355Y-651247D01*
X300355Y-651176D01*
X300355Y-651105D01*
X300355Y-651034D01*
X300355Y-650963D01*
X300333Y-639925D01*
X304315D01*
Y-650104D01*
Y-660284D01*
X304627Y-660712D01*
X304940Y-661140D01*
X309293Y-661072D01*
X313647Y-661003D01*
X313772Y-650401D01*
X313896Y-639800D01*
X317878D01*
X317943Y-650614D01*
D02*
G37*
G36*
X304315Y-670057D02*
Y-670798D01*
X303755Y-670949D01*
X303695Y-670964D01*
X303631Y-670979D01*
X303563Y-670993D01*
X303492Y-671007D01*
X303419Y-671021D01*
X303344Y-671033D01*
X303268Y-671045D01*
X303191Y-671056D01*
X303114Y-671066D01*
X303037Y-671075D01*
X302961Y-671083D01*
X302887Y-671089D01*
X302816Y-671095D01*
X302747Y-671099D01*
X302681Y-671101D01*
X302620Y-671102D01*
X302574Y-671103D01*
X302526Y-671106D01*
X302477Y-671111D01*
X302426Y-671117D01*
X302373Y-671125D01*
X302318Y-671135D01*
X302262Y-671146D01*
X302205Y-671158D01*
X302146Y-671173D01*
X302085Y-671188D01*
X302024Y-671206D01*
X301961Y-671224D01*
X301896Y-671244D01*
X301831Y-671266D01*
X301764Y-671288D01*
X301697Y-671312D01*
X301628Y-671338D01*
X301559Y-671364D01*
X301488Y-671392D01*
X301417Y-671421D01*
X301345Y-671452D01*
X301272Y-671483D01*
X301198Y-671516D01*
X301124Y-671550D01*
X301049Y-671584D01*
X300974Y-671620D01*
X300898Y-671657D01*
X300822Y-671695D01*
X300745Y-671733D01*
X300668Y-671773D01*
X300591Y-671814D01*
X300513Y-671855D01*
X300436Y-671897D01*
X300358Y-671940D01*
X300280Y-671984D01*
X300202Y-672029D01*
X300125Y-672074D01*
X300047Y-672120D01*
X299970Y-672167D01*
X299892Y-672214D01*
X299816Y-672262D01*
X299739Y-672310D01*
X299663Y-672360D01*
X299587Y-672409D01*
X299511Y-672459D01*
X299437Y-672510D01*
X299362Y-672561D01*
X299289Y-672612D01*
X299216Y-672664D01*
X299144Y-672716D01*
X299072Y-672768D01*
X299002Y-672821D01*
X298932Y-672874D01*
X298864Y-672927D01*
X298796Y-672980D01*
X298730Y-673034D01*
X298664Y-673087D01*
X298600Y-673141D01*
X298537Y-673195D01*
X298475Y-673249D01*
X298415Y-673303D01*
X298356Y-673357D01*
X298299Y-673411D01*
X298243Y-673465D01*
X298184Y-673522D01*
X298125Y-673583D01*
X298065Y-673647D01*
X298003Y-673715D01*
X297940Y-673785D01*
X297877Y-673857D01*
X297813Y-673933D01*
X297748Y-674010D01*
X297683Y-674090D01*
X297618Y-674172D01*
X297552Y-674255D01*
X297486Y-674341D01*
X297421Y-674428D01*
X297355Y-674515D01*
X297289Y-674605D01*
X297224Y-674695D01*
X297160Y-674786D01*
X297096Y-674878D01*
X297033Y-674970D01*
X296971Y-675062D01*
X296910Y-675155D01*
X296850Y-675247D01*
X296791Y-675340D01*
X296734Y-675431D01*
X296678Y-675523D01*
X296623Y-675613D01*
X296571Y-675703D01*
X296520Y-675792D01*
X296471Y-675879D01*
X296425Y-675965D01*
X296380Y-676049D01*
X296338Y-676132D01*
X296178Y-676451D01*
X296027Y-676751D01*
X295889Y-677025D01*
X295766Y-677266D01*
X295663Y-677468D01*
X295582Y-677623D01*
X295527Y-677726D01*
X295502Y-677769D01*
X295495Y-677773D01*
X295482Y-677776D01*
X295465Y-677778D01*
X295442Y-677778D01*
X295415Y-677776D01*
X295384Y-677773D01*
X295349Y-677769D01*
X295310Y-677763D01*
X295269Y-677757D01*
X295224Y-677748D01*
X295176Y-677739D01*
X295127Y-677729D01*
X295075Y-677717D01*
X295021Y-677705D01*
X294966Y-677692D01*
X294910Y-677677D01*
X294879Y-677669D01*
X294849Y-677661D01*
X294820Y-677652D01*
X294792Y-677643D01*
X294764Y-677634D01*
X294738Y-677625D01*
X294713Y-677616D01*
X294689Y-677606D01*
X294666Y-677597D01*
X294644Y-677587D01*
X294622Y-677576D01*
X294602Y-677565D01*
X294583Y-677554D01*
X294564Y-677542D01*
X294547Y-677530D01*
X294531Y-677518D01*
X294515Y-677504D01*
X294501Y-677491D01*
X294487Y-677477D01*
X294475Y-677462D01*
X294463Y-677447D01*
X294453Y-677431D01*
X294443Y-677414D01*
X294434Y-677397D01*
X294427Y-677379D01*
X294420Y-677360D01*
X294414Y-677341D01*
X294409Y-677321D01*
X294406Y-677300D01*
X294403Y-677278D01*
X294401Y-677255D01*
X294400Y-677231D01*
X294400Y-677207D01*
X294401Y-677181D01*
X294403Y-677155D01*
X294406Y-677128D01*
X294410Y-677099D01*
X294415Y-677070D01*
X294421Y-677039D01*
X294427Y-677007D01*
X294435Y-676975D01*
X294444Y-676941D01*
X294453Y-676906D01*
X294464Y-676869D01*
X294476Y-676832D01*
X294488Y-676793D01*
X294502Y-676753D01*
X294516Y-676712D01*
X294531Y-676669D01*
X294548Y-676625D01*
X294565Y-676580D01*
X294583Y-676533D01*
X294602Y-676485D01*
X294623Y-676435D01*
X294644Y-676384D01*
X294666Y-676331D01*
X294689Y-676277D01*
X294713Y-676221D01*
X294738Y-676163D01*
X294764Y-676104D01*
X294791Y-676044D01*
X294818Y-675981D01*
X294847Y-675917D01*
X294877Y-675852D01*
X294914Y-675771D01*
X294951Y-675691D01*
X294989Y-675611D01*
X295027Y-675532D01*
X295066Y-675453D01*
X295106Y-675375D01*
X295145Y-675297D01*
X295186Y-675219D01*
X295227Y-675142D01*
X295269Y-675066D01*
X295311Y-674990D01*
X295353Y-674914D01*
X295396Y-674838D01*
X295440Y-674763D01*
X295484Y-674689D01*
X295529Y-674615D01*
X295574Y-674541D01*
X295619Y-674468D01*
X295666Y-674396D01*
X295712Y-674323D01*
X295759Y-674252D01*
X295807Y-674180D01*
X295855Y-674109D01*
X295904Y-674039D01*
X295953Y-673969D01*
X296002Y-673899D01*
X296052Y-673830D01*
X296103Y-673762D01*
X296154Y-673694D01*
X296205Y-673626D01*
X296257Y-673559D01*
X296310Y-673492D01*
X296363Y-673426D01*
X296416Y-673360D01*
X296470Y-673294D01*
X296525Y-673230D01*
X296579Y-673165D01*
X296635Y-673101D01*
X296690Y-673038D01*
X296747Y-672975D01*
X296803Y-672912D01*
X296860Y-672851D01*
X296918Y-672789D01*
X296976Y-672728D01*
X297035Y-672667D01*
X297093Y-672607D01*
X297153Y-672548D01*
X297213Y-672489D01*
X297273Y-672430D01*
X297334Y-672372D01*
X297395Y-672315D01*
X297456Y-672257D01*
X297518Y-672201D01*
X297581Y-672145D01*
X297643Y-672089D01*
X297707Y-672034D01*
X297771Y-671979D01*
X297835Y-671925D01*
X297899Y-671872D01*
X297964Y-671819D01*
X298030Y-671766D01*
X298095Y-671714D01*
X298162Y-671663D01*
X298228Y-671612D01*
X298295Y-671561D01*
X298363Y-671511D01*
X298431Y-671462D01*
X298499Y-671413D01*
X298568Y-671364D01*
X298637Y-671316D01*
X298706Y-671269D01*
X298776Y-671222D01*
X298846Y-671176D01*
X298917Y-671130D01*
X298988Y-671085D01*
X299059Y-671040D01*
X299131Y-670996D01*
X299203Y-670953D01*
X299276Y-670909D01*
X299349Y-670867D01*
X299422Y-670825D01*
X299496Y-670783D01*
X299570Y-670743D01*
X299644Y-670702D01*
X299719Y-670662D01*
X299794Y-670623D01*
X299870Y-670584D01*
X299946Y-670546D01*
X300022Y-670508D01*
X300099Y-670471D01*
X300176Y-670435D01*
X300253Y-670399D01*
X300331Y-670364D01*
X300409Y-670329D01*
X300487Y-670294D01*
X300566Y-670261D01*
X300645Y-670227D01*
X300725Y-670195D01*
X300804Y-670163D01*
X300884Y-670131D01*
X300965Y-670101D01*
X301046Y-670070D01*
X301127Y-670041D01*
X301208Y-670011D01*
X301290Y-669983D01*
X301372Y-669955D01*
X301454Y-669928D01*
X301537Y-669901D01*
X301620Y-669874D01*
X301704Y-669849D01*
X301787Y-669824D01*
X301871Y-669799D01*
X301956Y-669775D01*
X302041Y-669752D01*
X302126Y-669729D01*
X302211Y-669707D01*
X302296Y-669686D01*
X302382Y-669665D01*
X302468Y-669644D01*
X302555Y-669625D01*
X302642Y-669606D01*
X302729Y-669587D01*
X302816Y-669569D01*
X302904Y-669552D01*
X302992Y-669535D01*
X303080Y-669519D01*
X303169Y-669504D01*
X303257Y-669489D01*
X304315Y-669316D01*
Y-670057D01*
D02*
G37*
G36*
Y-673062D02*
Y-674292D01*
X303216Y-674457D01*
X303150Y-674468D01*
X303084Y-674479D01*
X303018Y-674493D01*
X302952Y-674507D01*
X302886Y-674523D01*
X302819Y-674540D01*
X302753Y-674558D01*
X302686Y-674578D01*
X302619Y-674598D01*
X302553Y-674620D01*
X302486Y-674643D01*
X302419Y-674668D01*
X302352Y-674693D01*
X302285Y-674720D01*
X302218Y-674748D01*
X302151Y-674777D01*
X302084Y-674807D01*
X302017Y-674838D01*
X301951Y-674870D01*
X301884Y-674904D01*
X301818Y-674938D01*
X301752Y-674974D01*
X301686Y-675011D01*
X301620Y-675048D01*
X301554Y-675087D01*
X301488Y-675127D01*
X301423Y-675167D01*
X301358Y-675209D01*
X301294Y-675252D01*
X301229Y-675295D01*
X301165Y-675340D01*
X301101Y-675386D01*
X301038Y-675432D01*
X300975Y-675479D01*
X300912Y-675528D01*
X300850Y-675577D01*
X300787Y-675627D01*
X300726Y-675678D01*
X300665Y-675730D01*
X300604Y-675782D01*
X300544Y-675836D01*
X300485Y-675890D01*
X300426Y-675945D01*
X300367Y-676000D01*
X300309Y-676057D01*
X300252Y-676114D01*
X300195Y-676172D01*
X300138Y-676231D01*
X300083Y-676291D01*
X300028Y-676351D01*
X299974Y-676412D01*
X299920Y-676474D01*
X299867Y-676536D01*
X299815Y-676599D01*
X299763Y-676662D01*
X299712Y-676726D01*
X299662Y-676791D01*
X299613Y-676857D01*
X299565Y-676923D01*
X299517Y-676989D01*
X299470Y-677057D01*
X299425Y-677124D01*
X299379Y-677193D01*
X299335Y-677261D01*
X299188Y-677497D01*
X299047Y-677726D01*
X298917Y-677944D01*
X298799Y-678144D01*
X298698Y-678322D01*
X298617Y-678470D01*
X298559Y-678584D01*
X298527Y-678658D01*
X298521Y-678672D01*
X298514Y-678685D01*
X298504Y-678697D01*
X298493Y-678708D01*
X298480Y-678718D01*
X298465Y-678727D01*
X298448Y-678734D01*
X298430Y-678741D01*
X298410Y-678746D01*
X298388Y-678751D01*
X298365Y-678754D01*
X298340Y-678756D01*
X298313Y-678757D01*
X298285Y-678757D01*
X298255Y-678756D01*
X298223Y-678754D01*
X298191Y-678751D01*
X298156Y-678747D01*
X298120Y-678741D01*
X298082Y-678735D01*
X298043Y-678727D01*
X298003Y-678719D01*
X297961Y-678709D01*
X297918Y-678698D01*
X297873Y-678686D01*
X297827Y-678674D01*
X297779Y-678659D01*
X297731Y-678645D01*
X297680Y-678628D01*
X297629Y-678611D01*
X297576Y-678593D01*
X297522Y-678574D01*
X297337Y-678503D01*
X297164Y-678428D01*
X297008Y-678353D01*
X296871Y-678278D01*
X296758Y-678207D01*
X296673Y-678142D01*
X296619Y-678085D01*
X296600Y-678038D01*
X296601Y-678013D01*
X296604Y-677987D01*
X296607Y-677958D01*
X296613Y-677928D01*
X296620Y-677895D01*
X296628Y-677861D01*
X296638Y-677825D01*
X296649Y-677787D01*
X296662Y-677747D01*
X296676Y-677706D01*
X296691Y-677663D01*
X296707Y-677619D01*
X296725Y-677573D01*
X296744Y-677526D01*
X296764Y-677477D01*
X296785Y-677427D01*
X296807Y-677376D01*
X296830Y-677324D01*
X296854Y-677270D01*
X296880Y-677215D01*
X296906Y-677160D01*
X296933Y-677103D01*
X296961Y-677046D01*
X296990Y-676988D01*
X297020Y-676929D01*
X297051Y-676869D01*
X297082Y-676808D01*
X297114Y-676747D01*
X297147Y-676686D01*
X297181Y-676624D01*
X297215Y-676561D01*
X297250Y-676498D01*
X297285Y-676435D01*
X297321Y-676372D01*
X297357Y-676308D01*
X297394Y-676244D01*
X297431Y-676180D01*
X297469Y-676117D01*
X297507Y-676053D01*
X297546Y-675989D01*
X297585Y-675925D01*
X297624Y-675862D01*
X297663Y-675799D01*
X297703Y-675736D01*
X297742Y-675673D01*
X297782Y-675611D01*
X297822Y-675550D01*
X297863Y-675489D01*
X297903Y-675429D01*
X297943Y-675369D01*
X297983Y-675310D01*
X298024Y-675252D01*
X298064Y-675195D01*
X298104Y-675138D01*
X298144Y-675083D01*
X298183Y-675028D01*
X298223Y-674975D01*
X298262Y-674923D01*
X298301Y-674872D01*
X298340Y-674822D01*
X298378Y-674774D01*
X298416Y-674727D01*
X298454Y-674681D01*
X298491Y-674637D01*
X298536Y-674586D01*
X298583Y-674534D01*
X298632Y-674482D01*
X298683Y-674430D01*
X298736Y-674378D01*
X298790Y-674326D01*
X298847Y-674273D01*
X298905Y-674220D01*
X298965Y-674168D01*
X299027Y-674115D01*
X299090Y-674062D01*
X299155Y-674009D01*
X299221Y-673957D01*
X299289Y-673904D01*
X299358Y-673852D01*
X299429Y-673799D01*
X299501Y-673747D01*
X299574Y-673695D01*
X299648Y-673643D01*
X299724Y-673591D01*
X299800Y-673540D01*
X299878Y-673489D01*
X299956Y-673438D01*
X300036Y-673388D01*
X300116Y-673338D01*
X300197Y-673288D01*
X300279Y-673239D01*
X300362Y-673190D01*
X300445Y-673142D01*
X300529Y-673095D01*
X300614Y-673047D01*
X300699Y-673001D01*
X300785Y-672955D01*
X300871Y-672910D01*
X300957Y-672865D01*
X301044Y-672821D01*
X301131Y-672778D01*
X301218Y-672735D01*
X301305Y-672694D01*
X301392Y-672653D01*
X301480Y-672613D01*
X301567Y-672574D01*
X301654Y-672535D01*
X301742Y-672498D01*
X301829Y-672462D01*
X301915Y-672426D01*
X302002Y-672392D01*
X302088Y-672358D01*
X302174Y-672326D01*
X302259Y-672295D01*
X302344Y-672265D01*
X302429Y-672236D01*
X302513Y-672208D01*
X302596Y-672181D01*
X302679Y-672156D01*
X302760Y-672132D01*
X302841Y-672109D01*
X302922Y-672087D01*
X303001Y-672067D01*
X303079Y-672048D01*
X303156Y-672031D01*
X303233Y-672015D01*
X303308Y-672001D01*
X303382Y-671987D01*
X304315Y-671832D01*
Y-673062D01*
D02*
G37*
G36*
X303902Y-675374D02*
X303952Y-675380D01*
X303999Y-675391D01*
X304042Y-675405D01*
X304082Y-675423D01*
X304118Y-675445D01*
X304152Y-675472D01*
X304183Y-675502D01*
X304211Y-675536D01*
X304236Y-675575D01*
X304259Y-675617D01*
X304279Y-675664D01*
X304298Y-675715D01*
X304314Y-675770D01*
X304328Y-675829D01*
X304341Y-675893D01*
X304351Y-675960D01*
X304361Y-676032D01*
X304439Y-676718D01*
X311470Y-676785D01*
X318500Y-676851D01*
Y-678963D01*
Y-681076D01*
X311719Y-681142D01*
X304937Y-681208D01*
X304870Y-686384D01*
X304803Y-691561D01*
X300831D01*
Y-685693D01*
Y-679826D01*
X300209Y-679542D01*
X300144Y-679511D01*
X300082Y-679482D01*
X300025Y-679453D01*
X299971Y-679425D01*
X299922Y-679397D01*
X299876Y-679369D01*
X299834Y-679341D01*
X299796Y-679313D01*
X299762Y-679285D01*
X299731Y-679256D01*
X299704Y-679226D01*
X299681Y-679196D01*
X299661Y-679164D01*
X299645Y-679132D01*
X299633Y-679098D01*
X299624Y-679062D01*
X299619Y-679025D01*
X299617Y-678985D01*
X299619Y-678944D01*
X299624Y-678900D01*
X299632Y-678854D01*
X299644Y-678806D01*
X299659Y-678755D01*
X299677Y-678700D01*
X299699Y-678643D01*
X299724Y-678582D01*
X299752Y-678518D01*
X299783Y-678451D01*
X299817Y-678379D01*
X299854Y-678304D01*
X299894Y-678224D01*
X299938Y-678140D01*
X299962Y-678095D01*
X299987Y-678050D01*
X300012Y-678005D01*
X300039Y-677960D01*
X300066Y-677915D01*
X300094Y-677870D01*
X300123Y-677825D01*
X300153Y-677780D01*
X300183Y-677735D01*
X300215Y-677690D01*
X300247Y-677645D01*
X300280Y-677600D01*
X300313Y-677556D01*
X300347Y-677511D01*
X300382Y-677467D01*
X300418Y-677423D01*
X300454Y-677379D01*
X300491Y-677335D01*
X300529Y-677291D01*
X300567Y-677248D01*
X300605Y-677204D01*
X300645Y-677161D01*
X300684Y-677118D01*
X300725Y-677076D01*
X300766Y-677034D01*
X300807Y-676992D01*
X300850Y-676950D01*
X300892Y-676908D01*
X300935Y-676867D01*
X300978Y-676827D01*
X301022Y-676786D01*
X301067Y-676746D01*
X301112Y-676706D01*
X301157Y-676667D01*
X301202Y-676628D01*
X301248Y-676590D01*
X301294Y-676552D01*
X301341Y-676514D01*
X301388Y-676477D01*
X301435Y-676440D01*
X301483Y-676404D01*
X301531Y-676368D01*
X301579Y-676333D01*
X301628Y-676298D01*
X301676Y-676264D01*
X301725Y-676230D01*
X301774Y-676197D01*
X301823Y-676165D01*
X301873Y-676133D01*
X301923Y-676102D01*
X301973Y-676071D01*
X302022Y-676041D01*
X302073Y-676012D01*
X302123Y-675983D01*
X302173Y-675955D01*
X302223Y-675927D01*
X302274Y-675900D01*
X302324Y-675874D01*
X302375Y-675849D01*
X302425Y-675824D01*
X302476Y-675801D01*
X302526Y-675778D01*
X302577Y-675755D01*
X302627Y-675734D01*
X302747Y-675684D01*
X302862Y-675638D01*
X302971Y-675595D01*
X303075Y-675556D01*
X303173Y-675521D01*
X303267Y-675490D01*
X303355Y-675462D01*
X303439Y-675437D01*
X303518Y-675417D01*
X303592Y-675400D01*
X303663Y-675387D01*
X303729Y-675378D01*
X303790Y-675373D01*
X303848Y-675372D01*
X303902Y-675374D01*
D02*
G37*
G36*
X317964Y-698233D02*
X317878Y-701663D01*
X317251Y-702785D01*
X316625Y-703906D01*
X310961Y-708787D01*
X310383Y-709287D01*
X309817Y-709778D01*
X309267Y-710257D01*
X308735Y-710721D01*
X308226Y-711168D01*
X307742Y-711595D01*
X307286Y-712000D01*
X306861Y-712378D01*
X306471Y-712729D01*
X306118Y-713048D01*
X305805Y-713334D01*
X305536Y-713583D01*
X305313Y-713792D01*
X305140Y-713960D01*
X305020Y-714083D01*
X304956Y-714158D01*
X304921Y-714211D01*
X304886Y-714269D01*
X304851Y-714331D01*
X304817Y-714396D01*
X304783Y-714465D01*
X304750Y-714537D01*
X304719Y-714610D01*
X304689Y-714685D01*
X304661Y-714760D01*
X304634Y-714836D01*
X304610Y-714911D01*
X304588Y-714986D01*
X304568Y-715059D01*
X304551Y-715130D01*
X304538Y-715199D01*
X304527Y-715264D01*
X304439Y-715882D01*
X311221Y-715948D01*
X318002Y-716014D01*
Y-718131D01*
Y-720247D01*
X309292D01*
Y-721494D01*
Y-722742D01*
X311034D01*
X311395Y-722747D01*
X311726Y-722760D01*
X312023Y-722783D01*
X312279Y-722813D01*
X312488Y-722850D01*
X312644Y-722892D01*
X312742Y-722939D01*
X312776Y-722991D01*
X312774Y-723004D01*
X312768Y-723017D01*
X312757Y-723030D01*
X312742Y-723043D01*
X312723Y-723055D01*
X312701Y-723067D01*
X312674Y-723079D01*
X312644Y-723090D01*
X312610Y-723101D01*
X312573Y-723112D01*
X312532Y-723123D01*
X312488Y-723133D01*
X312440Y-723142D01*
X312389Y-723152D01*
X312335Y-723161D01*
X312279Y-723169D01*
X312219Y-723177D01*
X312156Y-723185D01*
X312091Y-723192D01*
X312023Y-723199D01*
X311952Y-723206D01*
X311879Y-723211D01*
X311804Y-723217D01*
X311726Y-723222D01*
X311647Y-723226D01*
X311565Y-723230D01*
X311481Y-723233D01*
X311395Y-723236D01*
X311307Y-723238D01*
X311218Y-723239D01*
X311127Y-723240D01*
X311034Y-723241D01*
X310684Y-723243D01*
X310358Y-723251D01*
X310062Y-723263D01*
X309804Y-723278D01*
X309591Y-723297D01*
X309430Y-723319D01*
X309328Y-723343D01*
X309292Y-723369D01*
X309293Y-723373D01*
X309294Y-723380D01*
X309297Y-723388D01*
X309300Y-723399D01*
X309305Y-723411D01*
X309311Y-723426D01*
X309317Y-723442D01*
X309325Y-723461D01*
X309334Y-723481D01*
X309343Y-723503D01*
X309354Y-723527D01*
X309365Y-723553D01*
X309377Y-723581D01*
X309391Y-723610D01*
X309405Y-723641D01*
X309420Y-723674D01*
X309436Y-723708D01*
X309452Y-723745D01*
X309470Y-723782D01*
X309488Y-723822D01*
X309507Y-723863D01*
X309527Y-723905D01*
X309548Y-723949D01*
X309569Y-723995D01*
X309592Y-724042D01*
X309615Y-724090D01*
X309638Y-724140D01*
X309663Y-724192D01*
X309688Y-724244D01*
X309714Y-724298D01*
X309740Y-724353D01*
X309767Y-724410D01*
X309795Y-724468D01*
X309823Y-724527D01*
X309853Y-724587D01*
X309882Y-724648D01*
X309913Y-724711D01*
X309944Y-724775D01*
X309975Y-724839D01*
X310007Y-724905D01*
X310039Y-724972D01*
X310073Y-725040D01*
X310106Y-725108D01*
X310140Y-725178D01*
X310175Y-725249D01*
X310210Y-725320D01*
X310246Y-725393D01*
X310282Y-725466D01*
X310318Y-725540D01*
X310355Y-725615D01*
X310392Y-725691D01*
X310430Y-725768D01*
X310468Y-725845D01*
X310507Y-725923D01*
X310546Y-726001D01*
X310585Y-726080D01*
X310624Y-726160D01*
X310664Y-726240D01*
X310704Y-726321D01*
X310745Y-726403D01*
X310786Y-726484D01*
X310827Y-726567D01*
X310868Y-726650D01*
X310910Y-726733D01*
X311235Y-727385D01*
X311538Y-727999D01*
X311812Y-728561D01*
X312052Y-729056D01*
X312250Y-729471D01*
X312400Y-729792D01*
X312494Y-730005D01*
X312527Y-730097D01*
X312525Y-730103D01*
X312519Y-730110D01*
X312509Y-730116D01*
X312494Y-730123D01*
X312476Y-730129D01*
X312454Y-730135D01*
X312429Y-730141D01*
X312400Y-730147D01*
X312367Y-730152D01*
X312331Y-730158D01*
X312292Y-730163D01*
X312250Y-730168D01*
X312205Y-730173D01*
X312157Y-730178D01*
X312106Y-730183D01*
X312052Y-730187D01*
X311996Y-730192D01*
X311937Y-730196D01*
X311876Y-730199D01*
X311812Y-730203D01*
X311747Y-730206D01*
X311679Y-730209D01*
X311609Y-730212D01*
X311538Y-730215D01*
X311464Y-730217D01*
X311389Y-730219D01*
X311313Y-730221D01*
X311235Y-730222D01*
X311155Y-730224D01*
X311074Y-730224D01*
X310993Y-730225D01*
X310910Y-730225D01*
X309292D01*
Y-731597D01*
Y-732969D01*
X310297D01*
X310230Y-738644D01*
X310163Y-744319D01*
X307426D01*
Y-738706D01*
Y-733094D01*
X307986Y-733014D01*
X308546Y-732934D01*
Y-731580D01*
Y-730225D01*
X307052D01*
X306746Y-730220D01*
X306463Y-730206D01*
X306209Y-730183D01*
X305989Y-730152D01*
X305809Y-730115D01*
X305674Y-730072D01*
X305589Y-730024D01*
X305559Y-729972D01*
X305560Y-729964D01*
X305561Y-729955D01*
X305564Y-729943D01*
X305567Y-729930D01*
X305572Y-729915D01*
X305577Y-729898D01*
X305584Y-729879D01*
X305591Y-729859D01*
X305599Y-729836D01*
X305608Y-729812D01*
X305619Y-729786D01*
X305629Y-729759D01*
X305641Y-729730D01*
X305654Y-729699D01*
X305667Y-729667D01*
X305682Y-729633D01*
X305697Y-729597D01*
X305713Y-729560D01*
X305730Y-729522D01*
X305747Y-729482D01*
X305766Y-729440D01*
X305785Y-729397D01*
X305805Y-729353D01*
X305825Y-729307D01*
X305847Y-729260D01*
X305869Y-729212D01*
X305892Y-729163D01*
X305915Y-729112D01*
X305939Y-729060D01*
X305964Y-729006D01*
X305989Y-728952D01*
X306015Y-728896D01*
X306042Y-728840D01*
X306069Y-728782D01*
X306097Y-728723D01*
X306126Y-728663D01*
X306155Y-728602D01*
X306185Y-728540D01*
X306215Y-728477D01*
X306245Y-728413D01*
X306277Y-728348D01*
X306309Y-728283D01*
X306341Y-728216D01*
X306374Y-728149D01*
X306407Y-728081D01*
X306440Y-728012D01*
X306475Y-727942D01*
X306509Y-727872D01*
X306544Y-727800D01*
X306580Y-727729D01*
X306615Y-727656D01*
X306652Y-727583D01*
X306688Y-727509D01*
X306725Y-727435D01*
X306763Y-727360D01*
X306800Y-727285D01*
X306838Y-727209D01*
X306876Y-727133D01*
X306915Y-727056D01*
X306954Y-726979D01*
X306993Y-726901D01*
X307032Y-726823D01*
X307072Y-726745D01*
X307112Y-726667D01*
X307271Y-726355D01*
X307426Y-726050D01*
X307576Y-725753D01*
X307722Y-725467D01*
X307861Y-725192D01*
X307993Y-724931D01*
X308118Y-724685D01*
X308234Y-724456D01*
X308340Y-724246D01*
X308436Y-724055D01*
X308521Y-723886D01*
X308594Y-723741D01*
X308655Y-723621D01*
X308701Y-723527D01*
X308734Y-723462D01*
X308750Y-723428D01*
X308752Y-723418D01*
X308750Y-723409D01*
X308743Y-723399D01*
X308732Y-723390D01*
X308716Y-723381D01*
X308696Y-723372D01*
X308672Y-723363D01*
X308645Y-723355D01*
X308613Y-723347D01*
X308577Y-723339D01*
X308539Y-723331D01*
X308496Y-723323D01*
X308450Y-723316D01*
X308401Y-723309D01*
X308348Y-723302D01*
X308293Y-723295D01*
X308235Y-723289D01*
X308173Y-723283D01*
X308109Y-723278D01*
X308042Y-723273D01*
X307973Y-723268D01*
X307901Y-723263D01*
X307827Y-723259D01*
X307751Y-723255D01*
X307673Y-723252D01*
X307592Y-723249D01*
X307510Y-723246D01*
X307426Y-723244D01*
X307340Y-723243D01*
X307252Y-723242D01*
X307164Y-723241D01*
X307073Y-723241D01*
X306708Y-723236D01*
X306372Y-723222D01*
X306072Y-723199D01*
X305813Y-723169D01*
X305602Y-723133D01*
X305444Y-723090D01*
X305345Y-723043D01*
X305311Y-722991D01*
X305313Y-722978D01*
X305319Y-722965D01*
X305330Y-722952D01*
X305345Y-722939D01*
X305363Y-722927D01*
X305386Y-722915D01*
X305413Y-722903D01*
X305443Y-722892D01*
X305477Y-722881D01*
X305514Y-722870D01*
X305555Y-722860D01*
X305599Y-722850D01*
X305647Y-722840D01*
X305697Y-722830D01*
X305751Y-722821D01*
X305808Y-722813D01*
X305868Y-722805D01*
X305931Y-722797D01*
X305996Y-722790D01*
X306064Y-722783D01*
X306134Y-722777D01*
X306207Y-722771D01*
X306283Y-722765D01*
X306360Y-722760D01*
X306440Y-722756D01*
X306522Y-722752D01*
X306606Y-722749D01*
X306692Y-722747D01*
X306780Y-722744D01*
X306869Y-722743D01*
X306960Y-722742D01*
X307052Y-722742D01*
X308794D01*
Y-721494D01*
Y-720247D01*
X300286D01*
X300372Y-716776D01*
X300458Y-713304D01*
X301215Y-712223D01*
X301225Y-712209D01*
X301236Y-712194D01*
X301248Y-712179D01*
X301260Y-712162D01*
X301273Y-712145D01*
X301288Y-712128D01*
X301302Y-712109D01*
X301318Y-712090D01*
X301335Y-712071D01*
X301352Y-712051D01*
X301370Y-712030D01*
X301388Y-712008D01*
X301408Y-711986D01*
X301428Y-711963D01*
X301449Y-711940D01*
X301470Y-711916D01*
X301493Y-711892D01*
X301516Y-711867D01*
X301540Y-711841D01*
X301564Y-711814D01*
X301589Y-711788D01*
X301615Y-711760D01*
X301642Y-711732D01*
X301669Y-711703D01*
X301697Y-711674D01*
X301725Y-711645D01*
X301754Y-711615D01*
X301784Y-711584D01*
X301815Y-711552D01*
X301846Y-711521D01*
X301878Y-711488D01*
X301910Y-711455D01*
X301943Y-711422D01*
X301977Y-711388D01*
X302011Y-711354D01*
X302046Y-711319D01*
X302081Y-711283D01*
X302117Y-711248D01*
X302154Y-711211D01*
X302191Y-711174D01*
X302229Y-711137D01*
X302268Y-711099D01*
X302306Y-711061D01*
X302346Y-711023D01*
X302386Y-710984D01*
X302427Y-710944D01*
X302468Y-710904D01*
X302509Y-710864D01*
X302552Y-710823D01*
X302594Y-710781D01*
X302638Y-710740D01*
X302681Y-710698D01*
X302726Y-710655D01*
X302770Y-710612D01*
X302816Y-710569D01*
X302861Y-710526D01*
X302908Y-710482D01*
X302955Y-710437D01*
X303002Y-710393D01*
X303049Y-710347D01*
X303098Y-710302D01*
X303146Y-710256D01*
X303195Y-710210D01*
X303245Y-710163D01*
X303294Y-710116D01*
X303345Y-710069D01*
X303396Y-710022D01*
X303447Y-709974D01*
X303498Y-709926D01*
X303550Y-709877D01*
X303603Y-709829D01*
X303656Y-709780D01*
X303709Y-709730D01*
X303762Y-709681D01*
X303816Y-709631D01*
X303871Y-709581D01*
X303925Y-709530D01*
X303980Y-709479D01*
X304036Y-709429D01*
X304091Y-709377D01*
X304148Y-709326D01*
X304204Y-709274D01*
X304261Y-709222D01*
X304318Y-709170D01*
X304375Y-709118D01*
X304433Y-709065D01*
X304491Y-709012D01*
X304549Y-708959D01*
X304608Y-708906D01*
X304667Y-708852D01*
X304726Y-708799D01*
X304785Y-708745D01*
X304845Y-708691D01*
X304905Y-708637D01*
X304965Y-708582D01*
X305026Y-708528D01*
X305087Y-708473D01*
X305148Y-708418D01*
X305209Y-708363D01*
X305271Y-708308D01*
X305332Y-708253D01*
X305394Y-708197D01*
X305456Y-708142D01*
X305519Y-708086D01*
X305581Y-708031D01*
X305644Y-707975D01*
X305707Y-707919D01*
X305770Y-707863D01*
X305834Y-707806D01*
X305897Y-707750D01*
X305961Y-707694D01*
X306025Y-707637D01*
X306088Y-707581D01*
X306153Y-707524D01*
X306217Y-707468D01*
X306281Y-707411D01*
X306346Y-707354D01*
X306410Y-707298D01*
X306475Y-707241D01*
X306540Y-707184D01*
X306605Y-707127D01*
X306670Y-707070D01*
X306735Y-707013D01*
X306801Y-706956D01*
X306866Y-706899D01*
X306932Y-706843D01*
X306997Y-706786D01*
X307063Y-706729D01*
X307593Y-706268D01*
X308096Y-705831D01*
X308571Y-705416D01*
X309020Y-705023D01*
X309442Y-704652D01*
X309840Y-704300D01*
X310213Y-703968D01*
X310563Y-703654D01*
X310890Y-703359D01*
X311194Y-703080D01*
X311477Y-702818D01*
X311740Y-702572D01*
X311982Y-702341D01*
X312205Y-702123D01*
X312410Y-701919D01*
X312597Y-701728D01*
X312767Y-701548D01*
X312920Y-701380D01*
X313058Y-701221D01*
X313181Y-701073D01*
X313291Y-700933D01*
X313386Y-700801D01*
X313469Y-700676D01*
X313541Y-700557D01*
X313601Y-700445D01*
X313650Y-700337D01*
X313691Y-700233D01*
X313722Y-700133D01*
X313745Y-700035D01*
X313760Y-699940D01*
X313769Y-699845D01*
X313772Y-699751D01*
Y-699044D01*
X300333D01*
Y-696924D01*
Y-694803D01*
X318050D01*
X317964Y-698233D01*
D02*
G37*
G36*
X315576Y-724540D02*
X317629Y-724613D01*
Y-735713D01*
Y-746813D01*
X317007Y-748044D01*
X316968Y-748119D01*
X316929Y-748193D01*
X316889Y-748265D01*
X316849Y-748336D01*
X316808Y-748406D01*
X316766Y-748474D01*
X316724Y-748541D01*
X316681Y-748607D01*
X316638Y-748671D01*
X316595Y-748733D01*
X316550Y-748795D01*
X316506Y-748854D01*
X316460Y-748913D01*
X316415Y-748970D01*
X316368Y-749025D01*
X316322Y-749079D01*
X316274Y-749132D01*
X316227Y-749183D01*
X316179Y-749232D01*
X316130Y-749281D01*
X316081Y-749327D01*
X316031Y-749372D01*
X315982Y-749415D01*
X315931Y-749458D01*
X315880Y-749498D01*
X315829Y-749537D01*
X315778Y-749574D01*
X315726Y-749610D01*
X315673Y-749644D01*
X315620Y-749677D01*
X315567Y-749707D01*
X315514Y-749737D01*
X314643Y-750200D01*
X308546Y-750128D01*
X302449Y-750056D01*
X301752Y-749583D01*
X301712Y-749555D01*
X301672Y-749527D01*
X301633Y-749498D01*
X301594Y-749468D01*
X301556Y-749438D01*
X301518Y-749406D01*
X301481Y-749375D01*
X301444Y-749343D01*
X301407Y-749310D01*
X301371Y-749276D01*
X301336Y-749242D01*
X301301Y-749207D01*
X301266Y-749171D01*
X301232Y-749135D01*
X301198Y-749098D01*
X301165Y-749060D01*
X301132Y-749022D01*
X301099Y-748983D01*
X301067Y-748943D01*
X301036Y-748903D01*
X301005Y-748862D01*
X300974Y-748821D01*
X300944Y-748778D01*
X300914Y-748735D01*
X300885Y-748692D01*
X300856Y-748647D01*
X300828Y-748602D01*
X300800Y-748557D01*
X300772Y-748511D01*
X300745Y-748464D01*
X300718Y-748416D01*
X300692Y-748368D01*
X300667Y-748319D01*
X300641Y-748269D01*
X300617Y-748219D01*
X300592Y-748168D01*
X300568Y-748116D01*
X300545Y-748064D01*
X300521Y-748010D01*
X300499Y-747957D01*
X300477Y-747902D01*
X300455Y-747847D01*
X300434Y-747792D01*
X300413Y-747735D01*
X300392Y-747678D01*
X300372Y-747620D01*
X300353Y-747562D01*
X300334Y-747503D01*
X300315Y-747443D01*
X300297Y-747382D01*
X300279Y-747321D01*
X300262Y-747259D01*
X300245Y-747197D01*
X300228Y-747133D01*
X300212Y-747070D01*
X300197Y-747005D01*
X300182Y-746940D01*
X300167Y-746874D01*
X300152Y-746807D01*
X300139Y-746740D01*
X300125Y-746672D01*
X300112Y-746603D01*
X300100Y-746533D01*
X300088Y-746463D01*
X300086Y-746456D01*
X300085Y-746448D01*
X300084Y-746439D01*
X300083Y-746430D01*
X300081Y-746421D01*
X300080Y-746412D01*
X300079Y-746402D01*
X300078Y-746391D01*
X300076Y-746380D01*
X300075Y-746369D01*
X300074Y-746357D01*
X300073Y-746345D01*
X300072Y-746333D01*
X300070Y-746320D01*
X300069Y-746307D01*
X300068Y-746293D01*
X300066Y-746279D01*
X300065Y-746265D01*
X300064Y-746250D01*
X300063Y-746235D01*
X300062Y-746219D01*
X300060Y-746203D01*
X300059Y-746187D01*
X300058Y-746170D01*
X300057Y-746153D01*
X300056Y-746136D01*
X300054Y-746118D01*
X300053Y-746100D01*
X300052Y-746081D01*
X300051Y-746062D01*
X300049Y-746043D01*
X300048Y-746023D01*
X300047Y-746003D01*
X300046Y-745983D01*
X300044Y-745962D01*
X300043Y-745941D01*
X300042Y-745919D01*
X300041Y-745897D01*
X300040Y-745875D01*
X300039Y-745852D01*
X300037Y-745829D01*
X300036Y-745806D01*
X300035Y-745782D01*
X300034Y-745758D01*
X300032Y-745734D01*
X300031Y-745709D01*
X300030Y-745684D01*
X300029Y-745659D01*
X300028Y-745633D01*
X300027Y-745607D01*
X300025Y-745580D01*
X300024Y-745554D01*
X300023Y-745527D01*
X300022Y-745499D01*
X300021Y-745471D01*
X300020Y-745443D01*
X300018Y-745415D01*
X300017Y-745386D01*
X300016Y-745357D01*
X300015Y-745327D01*
X300014Y-745297D01*
X300012Y-745267D01*
X300011Y-745237D01*
X300010Y-745206D01*
X300009Y-745175D01*
X300008Y-745144D01*
X300007Y-745112D01*
X300006Y-745080D01*
X300005Y-745048D01*
X300003Y-745015D01*
X300002Y-744982D01*
X300001Y-744949D01*
X300000Y-744915D01*
X299999Y-744881D01*
X299998Y-744847D01*
X299996Y-744812D01*
X299995Y-744778D01*
X299994Y-744742D01*
X299993Y-744707D01*
X299992Y-744671D01*
X299991Y-744635D01*
X299990Y-744599D01*
X299989Y-744562D01*
X299988Y-744525D01*
X299987Y-744488D01*
X299985Y-744451D01*
X299984Y-744413D01*
X299983Y-744375D01*
X299982Y-744336D01*
X299981Y-744298D01*
X299980Y-744259D01*
X299979Y-744220D01*
X299978Y-744180D01*
X299977Y-744140D01*
X299976Y-744100D01*
X299975Y-744060D01*
X299974Y-744019D01*
X299973Y-743978D01*
X299972Y-743937D01*
X299970Y-743896D01*
X299969Y-743854D01*
X299968Y-743812D01*
X299967Y-743770D01*
X299966Y-743727D01*
X299965Y-743684D01*
X299964Y-743642D01*
X299963Y-743598D01*
X299962Y-743555D01*
X299961Y-743511D01*
X299960Y-743467D01*
X299959Y-743422D01*
X299958Y-743378D01*
X299957Y-743333D01*
X299956Y-743288D01*
X299955Y-743243D01*
X299954Y-743197D01*
X299953Y-743151D01*
X299952Y-743105D01*
X299951Y-743059D01*
X299950Y-743012D01*
X299949Y-742965D01*
X299948Y-742918D01*
X299947Y-742871D01*
X299946Y-742823D01*
X299945Y-742776D01*
X299944Y-742728D01*
X299943Y-742679D01*
X299942Y-742631D01*
X299941Y-742582D01*
X299940Y-742533D01*
X299940Y-742484D01*
X299939Y-742435D01*
X299938Y-742385D01*
X299937Y-742335D01*
X299936Y-742285D01*
X299935Y-742235D01*
X299934Y-742184D01*
X299933Y-742134D01*
X299932Y-742083D01*
X299931Y-742032D01*
X299931Y-741980D01*
X299930Y-741929D01*
X299929Y-741877D01*
X299928Y-741825D01*
X299927Y-741773D01*
X299926Y-741720D01*
X299925Y-741668D01*
X299924Y-741615D01*
X299923Y-741562D01*
X299923Y-741509D01*
X299922Y-741456D01*
X299921Y-741402D01*
X299920Y-741348D01*
X299919Y-741294D01*
X299918Y-741240D01*
X299918Y-741186D01*
X299917Y-741131D01*
X299916Y-741076D01*
X299915Y-741021D01*
X299914Y-740966D01*
X299914Y-740911D01*
X299913Y-740856D01*
X299912Y-740800D01*
X299911Y-740744D01*
X299910Y-740688D01*
X299910Y-740632D01*
X299909Y-740575D01*
X299908Y-740519D01*
X299907Y-740462D01*
X299907Y-740405D01*
X299906Y-740348D01*
X299905Y-740291D01*
X299904Y-740233D01*
X299904Y-740176D01*
X299903Y-740118D01*
X299902Y-740060D01*
X299902Y-740002D01*
X299901Y-739944D01*
X299900Y-739886D01*
X299899Y-739827D01*
X299899Y-739768D01*
X299898Y-739709D01*
X299897Y-739650D01*
X299897Y-739591D01*
X299896Y-739532D01*
X299895Y-739472D01*
X299895Y-739413D01*
X299894Y-739353D01*
X299893Y-739293D01*
X299893Y-739233D01*
X299892Y-739173D01*
X299891Y-739113D01*
X299891Y-739052D01*
X299890Y-738992D01*
X299890Y-738931D01*
X299889Y-738870D01*
X299888Y-738809D01*
X299888Y-738748D01*
X299887Y-738687D01*
X299887Y-738625D01*
X299886Y-738564D01*
X299886Y-738502D01*
X299885Y-738441D01*
X299884Y-738379D01*
X299884Y-738317D01*
X299883Y-738254D01*
X299883Y-738192D01*
X299882Y-738130D01*
X299882Y-738067D01*
X299881Y-738005D01*
X299881Y-737942D01*
X299880Y-737879D01*
X299880Y-737816D01*
X299879Y-737753D01*
X299879Y-737690D01*
X299878Y-737627D01*
X299878Y-737564D01*
X299877Y-737500D01*
X299877Y-737437D01*
X299876Y-737373D01*
X299876Y-737309D01*
X299875Y-737245D01*
X299875Y-737181D01*
X299875Y-737117D01*
X299874Y-737053D01*
X299874Y-736989D01*
X299873Y-736925D01*
X299873Y-736860D01*
X299873Y-736796D01*
X299872Y-736731D01*
X299872Y-736667D01*
X299871Y-736602D01*
X299871Y-736537D01*
X299871Y-736472D01*
X299870Y-736407D01*
X299870Y-736342D01*
X299870Y-736277D01*
X299869Y-736212D01*
X299869Y-736146D01*
X299869Y-736081D01*
X299868Y-736016D01*
X299868Y-735950D01*
X299868Y-735885D01*
X299868Y-735819D01*
X299867Y-735753D01*
X299867Y-735688D01*
X299867Y-735622D01*
X299867Y-735556D01*
X299866Y-735490D01*
X299866Y-735424D01*
X299866Y-735358D01*
X299866Y-735292D01*
X299865Y-735226D01*
X299865Y-735159D01*
X299865Y-735093D01*
X299865Y-735027D01*
X299836Y-724737D01*
X304066D01*
Y-735080D01*
Y-745424D01*
X304548Y-745682D01*
X304554Y-745685D01*
X304562Y-745689D01*
X304570Y-745692D01*
X304578Y-745696D01*
X304587Y-745699D01*
X304597Y-745703D01*
X304607Y-745706D01*
X304618Y-745709D01*
X304629Y-745713D01*
X304641Y-745716D01*
X304654Y-745719D01*
X304667Y-745722D01*
X304680Y-745726D01*
X304694Y-745729D01*
X304709Y-745732D01*
X304724Y-745735D01*
X304740Y-745739D01*
X304756Y-745742D01*
X304773Y-745745D01*
X304791Y-745748D01*
X304809Y-745751D01*
X304827Y-745754D01*
X304846Y-745757D01*
X304866Y-745760D01*
X304886Y-745764D01*
X304906Y-745767D01*
X304927Y-745770D01*
X304948Y-745773D01*
X304971Y-745776D01*
X304993Y-745779D01*
X305016Y-745782D01*
X305039Y-745784D01*
X305063Y-745787D01*
X305088Y-745790D01*
X305113Y-745793D01*
X305138Y-745796D01*
X305164Y-745799D01*
X305190Y-745802D01*
X305217Y-745804D01*
X305244Y-745807D01*
X305272Y-745810D01*
X305300Y-745813D01*
X305328Y-745815D01*
X305357Y-745818D01*
X305386Y-745821D01*
X305416Y-745823D01*
X305447Y-745826D01*
X305477Y-745828D01*
X305508Y-745831D01*
X305540Y-745833D01*
X305572Y-745836D01*
X305604Y-745838D01*
X305637Y-745841D01*
X305670Y-745843D01*
X305704Y-745846D01*
X305738Y-745848D01*
X305772Y-745851D01*
X305807Y-745853D01*
X305842Y-745855D01*
X305877Y-745857D01*
X305913Y-745860D01*
X305949Y-745862D01*
X305986Y-745864D01*
X306023Y-745866D01*
X306060Y-745868D01*
X306098Y-745871D01*
X306136Y-745873D01*
X306174Y-745875D01*
X306213Y-745877D01*
X306252Y-745879D01*
X306292Y-745881D01*
X306331Y-745883D01*
X306371Y-745885D01*
X306412Y-745887D01*
X306452Y-745889D01*
X306493Y-745890D01*
X306535Y-745892D01*
X306577Y-745894D01*
X306619Y-745896D01*
X306661Y-745897D01*
X306703Y-745899D01*
X306746Y-745901D01*
X306790Y-745902D01*
X306833Y-745904D01*
X306877Y-745906D01*
X306921Y-745907D01*
X306965Y-745909D01*
X307010Y-745910D01*
X307055Y-745912D01*
X307100Y-745913D01*
X307145Y-745914D01*
X307191Y-745916D01*
X307237Y-745917D01*
X307283Y-745918D01*
X307329Y-745920D01*
X307376Y-745921D01*
X307423Y-745922D01*
X307470Y-745923D01*
X307518Y-745924D01*
X307565Y-745925D01*
X307613Y-745926D01*
X307661Y-745927D01*
X307709Y-745928D01*
X307758Y-745929D01*
X307807Y-745930D01*
X307856Y-745931D01*
X307905Y-745932D01*
X307954Y-745932D01*
X308003Y-745933D01*
X308053Y-745934D01*
X308103Y-745935D01*
X308153Y-745935D01*
X308204Y-745936D01*
X308254Y-745936D01*
X308305Y-745937D01*
X308355Y-745937D01*
X308406Y-745938D01*
X308458Y-745938D01*
X308509Y-745939D01*
X308560Y-745939D01*
X308612Y-745939D01*
X308664Y-745940D01*
X308716Y-745940D01*
X308768Y-745940D01*
X308820Y-745940D01*
X308872Y-745940D01*
X308925Y-745940D01*
X308977Y-745940D01*
X312926D01*
X313224Y-745641D01*
X313523Y-745342D01*
Y-734905D01*
Y-724468D01*
X315576Y-724540D01*
D02*
G37*
G36*
X317943Y-65614D02*
X317946Y-66262D01*
X317949Y-66892D01*
X317951Y-67506D01*
X317953Y-68103D01*
X317954Y-68683D01*
X317954Y-69246D01*
X317954Y-69791D01*
X317953Y-70319D01*
X317952Y-70829D01*
X317950Y-71321D01*
X317947Y-71796D01*
X317943Y-72252D01*
X317939Y-72690D01*
X317935Y-73111D01*
X317929Y-73512D01*
X317923Y-73896D01*
X317917Y-74260D01*
X317910Y-74606D01*
X317902Y-74933D01*
X317893Y-75241D01*
X317884Y-75529D01*
X317875Y-75799D01*
X317864Y-76049D01*
X317854Y-76279D01*
X317842Y-76490D01*
X317830Y-76681D01*
X317818Y-76852D01*
X317804Y-77003D01*
X317791Y-77134D01*
X317776Y-77245D01*
X317761Y-77335D01*
X317745Y-77404D01*
X317731Y-77455D01*
X317715Y-77508D01*
X317697Y-77562D01*
X317678Y-77618D01*
X317657Y-77674D01*
X317634Y-77732D01*
X317610Y-77790D01*
X317585Y-77850D01*
X317558Y-77910D01*
X317530Y-77971D01*
X317502Y-78033D01*
X317472Y-78094D01*
X317440Y-78156D01*
X317408Y-78219D01*
X317375Y-78281D01*
X317341Y-78343D01*
X317307Y-78405D01*
X317271Y-78466D01*
X317235Y-78528D01*
X317199Y-78588D01*
X317162Y-78648D01*
X317124Y-78708D01*
X317086Y-78766D01*
X317048Y-78823D01*
X317010Y-78879D01*
X316971Y-78934D01*
X316932Y-78988D01*
X316893Y-79040D01*
X316854Y-79090D01*
X316815Y-79139D01*
X316776Y-79186D01*
X316738Y-79231D01*
X315992Y-80082D01*
X314745Y-80350D01*
X314666Y-80366D01*
X314577Y-80381D01*
X314480Y-80396D01*
X314374Y-80410D01*
X314260Y-80424D01*
X314138Y-80438D01*
X314009Y-80451D01*
X313873Y-80463D01*
X313729Y-80475D01*
X313579Y-80486D01*
X313423Y-80497D01*
X313260Y-80508D01*
X313092Y-80518D01*
X312918Y-80527D01*
X312739Y-80536D01*
X312555Y-80544D01*
X312366Y-80552D01*
X312173Y-80559D01*
X311976Y-80566D01*
X311775Y-80573D01*
X311571Y-80579D01*
X311364Y-80584D01*
X311154Y-80589D01*
X310941Y-80593D01*
X310725Y-80597D01*
X310508Y-80601D01*
X310289Y-80603D01*
X310069Y-80606D01*
X309847Y-80608D01*
X309625Y-80609D01*
X309402Y-80610D01*
X309178Y-80610D01*
X308955Y-80610D01*
X308732Y-80610D01*
X308510Y-80608D01*
X308288Y-80607D01*
X308068Y-80605D01*
X307849Y-80602D01*
X307631Y-80599D01*
X307416Y-80595D01*
X307204Y-80591D01*
X306993Y-80586D01*
X306786Y-80581D01*
X306582Y-80576D01*
X306381Y-80569D01*
X306184Y-80563D01*
X305992Y-80555D01*
X305803Y-80548D01*
X305619Y-80540D01*
X305441Y-80531D01*
X305267Y-80522D01*
X305099Y-80512D01*
X304937Y-80502D01*
X304780Y-80491D01*
X304630Y-80480D01*
X304487Y-80468D01*
X304351Y-80456D01*
X304222Y-80443D01*
X304101Y-80430D01*
X303987Y-80416D01*
X303882Y-80401D01*
X303785Y-80387D01*
X303696Y-80371D01*
X303617Y-80356D01*
X302397Y-80093D01*
X301603Y-79272D01*
X301521Y-79185D01*
X301439Y-79092D01*
X301358Y-78996D01*
X301277Y-78896D01*
X301199Y-78794D01*
X301123Y-78689D01*
X301049Y-78584D01*
X300978Y-78479D01*
X300912Y-78374D01*
X300849Y-78271D01*
X300792Y-78170D01*
X300739Y-78072D01*
X300693Y-77978D01*
X300652Y-77888D01*
X300619Y-77804D01*
X300592Y-77726D01*
X300591Y-77721D01*
X300590Y-77716D01*
X300588Y-77710D01*
X300587Y-77704D01*
X300586Y-77697D01*
X300584Y-77690D01*
X300583Y-77682D01*
X300581Y-77674D01*
X300580Y-77666D01*
X300579Y-77657D01*
X300577Y-77648D01*
X300576Y-77638D01*
X300574Y-77628D01*
X300573Y-77617D01*
X300572Y-77606D01*
X300570Y-77595D01*
X300569Y-77583D01*
X300568Y-77571D01*
X300566Y-77558D01*
X300565Y-77545D01*
X300564Y-77531D01*
X300562Y-77517D01*
X300561Y-77503D01*
X300559Y-77488D01*
X300558Y-77473D01*
X300557Y-77457D01*
X300555Y-77441D01*
X300554Y-77425D01*
X300553Y-77408D01*
X300551Y-77391D01*
X300550Y-77373D01*
X300549Y-77355D01*
X300547Y-77337D01*
X300546Y-77318D01*
X300545Y-77298D01*
X300543Y-77279D01*
X300542Y-77259D01*
X300541Y-77238D01*
X300539Y-77217D01*
X300538Y-77196D01*
X300537Y-77175D01*
X300535Y-77153D01*
X300534Y-77130D01*
X300533Y-77107D01*
X300531Y-77084D01*
X300530Y-77061D01*
X300529Y-77037D01*
X300527Y-77012D01*
X300526Y-76988D01*
X300525Y-76963D01*
X300523Y-76937D01*
X300522Y-76911D01*
X300521Y-76885D01*
X300520Y-76859D01*
X300518Y-76832D01*
X300517Y-76805D01*
X300516Y-76777D01*
X300514Y-76749D01*
X300513Y-76721D01*
X300512Y-76692D01*
X300511Y-76663D01*
X300509Y-76633D01*
X300508Y-76604D01*
X300507Y-76573D01*
X300505Y-76543D01*
X300504Y-76512D01*
X300503Y-76481D01*
X300502Y-76449D01*
X300500Y-76417D01*
X300499Y-76385D01*
X300498Y-76353D01*
X300497Y-76319D01*
X300496Y-76286D01*
X300494Y-76253D01*
X300493Y-76219D01*
X300492Y-76184D01*
X300491Y-76150D01*
X300489Y-76115D01*
X300488Y-76079D01*
X300487Y-76044D01*
X300486Y-76008D01*
X300485Y-75971D01*
X300483Y-75935D01*
X300482Y-75898D01*
X300481Y-75861D01*
X300480Y-75823D01*
X300479Y-75785D01*
X300477Y-75747D01*
X300476Y-75708D01*
X300475Y-75669D01*
X300474Y-75630D01*
X300473Y-75591D01*
X300471Y-75551D01*
X300470Y-75511D01*
X300469Y-75470D01*
X300468Y-75429D01*
X300467Y-75388D01*
X300466Y-75347D01*
X300465Y-75305D01*
X300464Y-75263D01*
X300462Y-75221D01*
X300461Y-75179D01*
X300460Y-75136D01*
X300459Y-75093D01*
X300458Y-75049D01*
X300457Y-75005D01*
X300456Y-74961D01*
X300454Y-74917D01*
X300453Y-74872D01*
X300452Y-74827D01*
X300451Y-74782D01*
X300450Y-74737D01*
X300449Y-74691D01*
X300448Y-74645D01*
X300447Y-74599D01*
X300446Y-74552D01*
X300445Y-74505D01*
X300444Y-74458D01*
X300443Y-74410D01*
X300442Y-74363D01*
X300441Y-74315D01*
X300440Y-74266D01*
X300438Y-74218D01*
X300437Y-74169D01*
X300436Y-74120D01*
X300435Y-74071D01*
X300434Y-74021D01*
X300433Y-73971D01*
X300432Y-73921D01*
X300431Y-73871D01*
X300430Y-73820D01*
X300429Y-73769D01*
X300428Y-73718D01*
X300427Y-73667D01*
X300427Y-73615D01*
X300426Y-73563D01*
X300425Y-73511D01*
X300424Y-73459D01*
X300423Y-73406D01*
X300422Y-73353D01*
X300421Y-73300D01*
X300420Y-73247D01*
X300419Y-73194D01*
X300418Y-73140D01*
X300417Y-73086D01*
X300416Y-73031D01*
X300415Y-72977D01*
X300414Y-72922D01*
X300413Y-72867D01*
X300412Y-72812D01*
X300412Y-72756D01*
X300411Y-72701D01*
X300410Y-72645D01*
X300409Y-72589D01*
X300408Y-72532D01*
X300407Y-72476D01*
X300406Y-72419D01*
X300406Y-72362D01*
X300405Y-72305D01*
X300404Y-72247D01*
X300403Y-72190D01*
X300402Y-72132D01*
X300401Y-72074D01*
X300400Y-72016D01*
X300400Y-71957D01*
X300399Y-71899D01*
X300398Y-71840D01*
X300397Y-71781D01*
X300396Y-71721D01*
X300396Y-71662D01*
X300395Y-71602D01*
X300394Y-71542D01*
X300393Y-71482D01*
X300393Y-71422D01*
X300392Y-71362D01*
X300391Y-71301D01*
X300390Y-71240D01*
X300390Y-71179D01*
X300389Y-71118D01*
X300388Y-71056D01*
X300388Y-70995D01*
X300387Y-70933D01*
X300386Y-70871D01*
X300385Y-70809D01*
X300385Y-70747D01*
X300384Y-70684D01*
X300383Y-70622D01*
X300383Y-70559D01*
X300382Y-70496D01*
X300381Y-70433D01*
X300381Y-70369D01*
X300380Y-70306D01*
X300379Y-70242D01*
X300379Y-70178D01*
X300378Y-70114D01*
X300378Y-70050D01*
X300377Y-69986D01*
X300377Y-69922D01*
X300376Y-69857D01*
X300375Y-69792D01*
X300375Y-69727D01*
X300374Y-69662D01*
X300374Y-69597D01*
X300373Y-69532D01*
X300373Y-69466D01*
X300372Y-69400D01*
X300371Y-69335D01*
X300371Y-69269D01*
X300370Y-69203D01*
X300370Y-69136D01*
X300369Y-69070D01*
X300369Y-69003D01*
X300368Y-68937D01*
X300368Y-68870D01*
X300367Y-68803D01*
X300367Y-68736D01*
X300366Y-68669D01*
X300366Y-68601D01*
X300366Y-68534D01*
X300365Y-68466D01*
X300365Y-68399D01*
X300364Y-68331D01*
X300364Y-68263D01*
X300363Y-68195D01*
X300363Y-68127D01*
X300363Y-68059D01*
X300362Y-67990D01*
X300362Y-67922D01*
X300362Y-67853D01*
X300361Y-67784D01*
X300361Y-67715D01*
X300360Y-67646D01*
X300360Y-67577D01*
X300360Y-67508D01*
X300360Y-67439D01*
X300359Y-67370D01*
X300359Y-67300D01*
X300359Y-67230D01*
X300358Y-67161D01*
X300358Y-67091D01*
X300358Y-67021D01*
X300358Y-66951D01*
X300357Y-66881D01*
X300357Y-66811D01*
X300357Y-66741D01*
X300357Y-66670D01*
X300356Y-66600D01*
X300356Y-66530D01*
X300356Y-66459D01*
X300356Y-66388D01*
X300356Y-66318D01*
X300355Y-66247D01*
X300355Y-66176D01*
X300355Y-66105D01*
X300355Y-66034D01*
X300355Y-65963D01*
X300333Y-54925D01*
X304315D01*
Y-65104D01*
Y-75284D01*
X304627Y-75712D01*
X304940Y-76140D01*
X309293Y-76072D01*
X313647Y-76003D01*
X313772Y-65402D01*
X313896Y-54800D01*
X317878D01*
X317943Y-65614D01*
D02*
G37*
G36*
X304315Y-85057D02*
Y-85798D01*
X303755Y-85948D01*
X303695Y-85964D01*
X303631Y-85979D01*
X303563Y-85993D01*
X303492Y-86007D01*
X303419Y-86020D01*
X303344Y-86033D01*
X303268Y-86045D01*
X303191Y-86056D01*
X303114Y-86066D01*
X303037Y-86075D01*
X302961Y-86083D01*
X302887Y-86089D01*
X302816Y-86095D01*
X302747Y-86099D01*
X302681Y-86101D01*
X302620Y-86102D01*
X302574Y-86103D01*
X302526Y-86106D01*
X302477Y-86111D01*
X302426Y-86117D01*
X302373Y-86125D01*
X302318Y-86135D01*
X302262Y-86146D01*
X302205Y-86158D01*
X302146Y-86173D01*
X302085Y-86188D01*
X302024Y-86206D01*
X301961Y-86224D01*
X301896Y-86244D01*
X301831Y-86265D01*
X301764Y-86288D01*
X301697Y-86312D01*
X301628Y-86338D01*
X301559Y-86365D01*
X301488Y-86392D01*
X301417Y-86422D01*
X301345Y-86452D01*
X301272Y-86483D01*
X301198Y-86516D01*
X301124Y-86550D01*
X301049Y-86584D01*
X300974Y-86620D01*
X300898Y-86657D01*
X300822Y-86695D01*
X300745Y-86733D01*
X300668Y-86773D01*
X300591Y-86814D01*
X300513Y-86855D01*
X300436Y-86897D01*
X300358Y-86940D01*
X300280Y-86984D01*
X300202Y-87029D01*
X300125Y-87074D01*
X300047Y-87120D01*
X299970Y-87167D01*
X299892Y-87214D01*
X299816Y-87262D01*
X299739Y-87311D01*
X299663Y-87360D01*
X299587Y-87409D01*
X299511Y-87459D01*
X299437Y-87510D01*
X299362Y-87561D01*
X299289Y-87612D01*
X299216Y-87664D01*
X299144Y-87716D01*
X299072Y-87768D01*
X299002Y-87821D01*
X298932Y-87874D01*
X298864Y-87927D01*
X298796Y-87980D01*
X298730Y-88034D01*
X298664Y-88087D01*
X298600Y-88141D01*
X298537Y-88195D01*
X298475Y-88249D01*
X298415Y-88303D01*
X298356Y-88357D01*
X298299Y-88411D01*
X298243Y-88465D01*
X298184Y-88522D01*
X298125Y-88583D01*
X298065Y-88647D01*
X298003Y-88715D01*
X297940Y-88785D01*
X297877Y-88857D01*
X297813Y-88933D01*
X297748Y-89010D01*
X297683Y-89090D01*
X297618Y-89172D01*
X297552Y-89255D01*
X297486Y-89341D01*
X297421Y-89428D01*
X297355Y-89516D01*
X297289Y-89605D01*
X297224Y-89695D01*
X297160Y-89786D01*
X297096Y-89878D01*
X297033Y-89970D01*
X296971Y-90062D01*
X296910Y-90155D01*
X296850Y-90247D01*
X296791Y-90339D01*
X296734Y-90431D01*
X296678Y-90523D01*
X296623Y-90613D01*
X296571Y-90703D01*
X296520Y-90792D01*
X296471Y-90879D01*
X296425Y-90965D01*
X296380Y-91049D01*
X296338Y-91132D01*
X296178Y-91451D01*
X296027Y-91751D01*
X295889Y-92025D01*
X295766Y-92266D01*
X295663Y-92468D01*
X295582Y-92623D01*
X295527Y-92726D01*
X295502Y-92769D01*
X295495Y-92773D01*
X295482Y-92776D01*
X295465Y-92778D01*
X295442Y-92778D01*
X295415Y-92776D01*
X295384Y-92773D01*
X295349Y-92769D01*
X295310Y-92763D01*
X295269Y-92757D01*
X295224Y-92748D01*
X295176Y-92739D01*
X295127Y-92729D01*
X295075Y-92717D01*
X295021Y-92705D01*
X294966Y-92692D01*
X294910Y-92677D01*
X294879Y-92669D01*
X294849Y-92660D01*
X294820Y-92652D01*
X294792Y-92643D01*
X294764Y-92634D01*
X294738Y-92625D01*
X294713Y-92616D01*
X294689Y-92607D01*
X294666Y-92597D01*
X294644Y-92586D01*
X294622Y-92576D01*
X294602Y-92565D01*
X294583Y-92554D01*
X294564Y-92542D01*
X294547Y-92530D01*
X294531Y-92518D01*
X294515Y-92505D01*
X294501Y-92491D01*
X294487Y-92477D01*
X294475Y-92462D01*
X294463Y-92447D01*
X294453Y-92431D01*
X294443Y-92414D01*
X294434Y-92397D01*
X294427Y-92379D01*
X294420Y-92360D01*
X294414Y-92341D01*
X294409Y-92321D01*
X294406Y-92300D01*
X294403Y-92278D01*
X294401Y-92255D01*
X294400Y-92231D01*
X294400Y-92207D01*
X294401Y-92181D01*
X294403Y-92155D01*
X294406Y-92128D01*
X294410Y-92099D01*
X294415Y-92070D01*
X294421Y-92039D01*
X294427Y-92007D01*
X294435Y-91975D01*
X294444Y-91941D01*
X294453Y-91906D01*
X294464Y-91869D01*
X294476Y-91832D01*
X294488Y-91793D01*
X294502Y-91753D01*
X294516Y-91712D01*
X294531Y-91669D01*
X294548Y-91625D01*
X294565Y-91580D01*
X294583Y-91533D01*
X294602Y-91485D01*
X294623Y-91435D01*
X294644Y-91384D01*
X294666Y-91331D01*
X294689Y-91277D01*
X294713Y-91221D01*
X294738Y-91163D01*
X294764Y-91104D01*
X294791Y-91044D01*
X294818Y-90981D01*
X294847Y-90917D01*
X294877Y-90852D01*
X294914Y-90771D01*
X294951Y-90691D01*
X294989Y-90611D01*
X295027Y-90532D01*
X295066Y-90453D01*
X295106Y-90375D01*
X295145Y-90297D01*
X295186Y-90219D01*
X295227Y-90142D01*
X295269Y-90066D01*
X295311Y-89990D01*
X295353Y-89914D01*
X295396Y-89838D01*
X295440Y-89763D01*
X295484Y-89689D01*
X295529Y-89615D01*
X295574Y-89541D01*
X295619Y-89468D01*
X295666Y-89395D01*
X295712Y-89323D01*
X295759Y-89252D01*
X295807Y-89180D01*
X295855Y-89109D01*
X295904Y-89039D01*
X295953Y-88969D01*
X296002Y-88899D01*
X296052Y-88830D01*
X296103Y-88762D01*
X296154Y-88693D01*
X296205Y-88626D01*
X296257Y-88559D01*
X296310Y-88492D01*
X296363Y-88426D01*
X296416Y-88360D01*
X296470Y-88295D01*
X296525Y-88230D01*
X296579Y-88165D01*
X296635Y-88101D01*
X296690Y-88038D01*
X296747Y-87975D01*
X296803Y-87912D01*
X296860Y-87850D01*
X296918Y-87789D01*
X296976Y-87728D01*
X297035Y-87667D01*
X297093Y-87607D01*
X297153Y-87548D01*
X297213Y-87489D01*
X297273Y-87430D01*
X297334Y-87372D01*
X297395Y-87314D01*
X297456Y-87257D01*
X297518Y-87201D01*
X297581Y-87145D01*
X297643Y-87089D01*
X297707Y-87034D01*
X297771Y-86979D01*
X297835Y-86925D01*
X297899Y-86872D01*
X297964Y-86819D01*
X298030Y-86766D01*
X298095Y-86714D01*
X298162Y-86663D01*
X298228Y-86612D01*
X298295Y-86561D01*
X298363Y-86511D01*
X298431Y-86462D01*
X298499Y-86413D01*
X298568Y-86364D01*
X298637Y-86317D01*
X298706Y-86269D01*
X298776Y-86222D01*
X298846Y-86176D01*
X298917Y-86130D01*
X298988Y-86085D01*
X299059Y-86040D01*
X299131Y-85996D01*
X299203Y-85953D01*
X299276Y-85909D01*
X299349Y-85867D01*
X299422Y-85825D01*
X299496Y-85783D01*
X299570Y-85742D01*
X299644Y-85702D01*
X299719Y-85662D01*
X299794Y-85623D01*
X299870Y-85584D01*
X299946Y-85546D01*
X300022Y-85508D01*
X300099Y-85471D01*
X300176Y-85435D01*
X300253Y-85399D01*
X300331Y-85364D01*
X300409Y-85329D01*
X300487Y-85294D01*
X300566Y-85261D01*
X300645Y-85228D01*
X300725Y-85195D01*
X300804Y-85163D01*
X300884Y-85132D01*
X300965Y-85101D01*
X301046Y-85070D01*
X301127Y-85041D01*
X301208Y-85011D01*
X301290Y-84983D01*
X301372Y-84955D01*
X301454Y-84927D01*
X301537Y-84901D01*
X301620Y-84874D01*
X301704Y-84849D01*
X301787Y-84824D01*
X301871Y-84799D01*
X301956Y-84775D01*
X302041Y-84752D01*
X302126Y-84729D01*
X302211Y-84707D01*
X302296Y-84686D01*
X302382Y-84665D01*
X302468Y-84645D01*
X302555Y-84625D01*
X302642Y-84606D01*
X302729Y-84587D01*
X302816Y-84569D01*
X302904Y-84552D01*
X302992Y-84535D01*
X303080Y-84519D01*
X303169Y-84504D01*
X303257Y-84489D01*
X304315Y-84316D01*
Y-85057D01*
D02*
G37*
G36*
Y-88062D02*
Y-89292D01*
X303216Y-89457D01*
X303150Y-89468D01*
X303084Y-89480D01*
X303018Y-89493D01*
X302952Y-89507D01*
X302886Y-89523D01*
X302819Y-89540D01*
X302753Y-89558D01*
X302686Y-89578D01*
X302619Y-89598D01*
X302553Y-89620D01*
X302486Y-89643D01*
X302419Y-89668D01*
X302352Y-89693D01*
X302285Y-89720D01*
X302218Y-89748D01*
X302151Y-89777D01*
X302084Y-89807D01*
X302017Y-89838D01*
X301951Y-89871D01*
X301884Y-89904D01*
X301818Y-89938D01*
X301752Y-89974D01*
X301686Y-90011D01*
X301620Y-90048D01*
X301554Y-90087D01*
X301488Y-90127D01*
X301423Y-90167D01*
X301358Y-90209D01*
X301294Y-90252D01*
X301229Y-90295D01*
X301165Y-90340D01*
X301101Y-90386D01*
X301038Y-90432D01*
X300975Y-90479D01*
X300912Y-90528D01*
X300850Y-90577D01*
X300787Y-90627D01*
X300726Y-90678D01*
X300665Y-90729D01*
X300604Y-90782D01*
X300544Y-90835D01*
X300485Y-90890D01*
X300426Y-90945D01*
X300367Y-91000D01*
X300309Y-91057D01*
X300252Y-91114D01*
X300195Y-91172D01*
X300138Y-91231D01*
X300083Y-91291D01*
X300028Y-91351D01*
X299974Y-91412D01*
X299920Y-91474D01*
X299867Y-91536D01*
X299815Y-91599D01*
X299763Y-91662D01*
X299712Y-91726D01*
X299662Y-91791D01*
X299613Y-91857D01*
X299565Y-91923D01*
X299517Y-91989D01*
X299470Y-92057D01*
X299425Y-92124D01*
X299379Y-92193D01*
X299335Y-92261D01*
X299188Y-92497D01*
X299047Y-92726D01*
X298917Y-92944D01*
X298799Y-93144D01*
X298698Y-93322D01*
X298617Y-93470D01*
X298559Y-93584D01*
X298527Y-93658D01*
X298521Y-93672D01*
X298514Y-93685D01*
X298504Y-93697D01*
X298493Y-93708D01*
X298480Y-93718D01*
X298465Y-93727D01*
X298448Y-93734D01*
X298430Y-93741D01*
X298410Y-93746D01*
X298388Y-93751D01*
X298365Y-93754D01*
X298340Y-93756D01*
X298313Y-93757D01*
X298285Y-93757D01*
X298255Y-93756D01*
X298223Y-93754D01*
X298191Y-93751D01*
X298156Y-93747D01*
X298120Y-93741D01*
X298082Y-93735D01*
X298043Y-93727D01*
X298003Y-93719D01*
X297961Y-93709D01*
X297918Y-93698D01*
X297873Y-93686D01*
X297827Y-93673D01*
X297779Y-93660D01*
X297731Y-93644D01*
X297680Y-93628D01*
X297629Y-93611D01*
X297576Y-93593D01*
X297522Y-93574D01*
X297337Y-93502D01*
X297164Y-93428D01*
X297008Y-93353D01*
X296871Y-93278D01*
X296758Y-93208D01*
X296673Y-93142D01*
X296619Y-93085D01*
X296600Y-93037D01*
X296601Y-93013D01*
X296604Y-92987D01*
X296607Y-92958D01*
X296613Y-92928D01*
X296620Y-92895D01*
X296628Y-92861D01*
X296638Y-92825D01*
X296649Y-92787D01*
X296662Y-92747D01*
X296676Y-92706D01*
X296691Y-92663D01*
X296707Y-92619D01*
X296725Y-92573D01*
X296744Y-92526D01*
X296764Y-92477D01*
X296785Y-92427D01*
X296807Y-92376D01*
X296830Y-92324D01*
X296854Y-92270D01*
X296880Y-92216D01*
X296906Y-92160D01*
X296933Y-92103D01*
X296961Y-92046D01*
X296990Y-91988D01*
X297020Y-91929D01*
X297051Y-91869D01*
X297082Y-91808D01*
X297114Y-91747D01*
X297147Y-91686D01*
X297181Y-91624D01*
X297215Y-91561D01*
X297250Y-91498D01*
X297285Y-91435D01*
X297321Y-91372D01*
X297357Y-91308D01*
X297394Y-91244D01*
X297431Y-91180D01*
X297469Y-91116D01*
X297507Y-91053D01*
X297546Y-90989D01*
X297585Y-90925D01*
X297624Y-90862D01*
X297663Y-90799D01*
X297703Y-90736D01*
X297742Y-90673D01*
X297782Y-90611D01*
X297822Y-90550D01*
X297863Y-90489D01*
X297903Y-90429D01*
X297943Y-90369D01*
X297983Y-90310D01*
X298024Y-90252D01*
X298064Y-90195D01*
X298104Y-90138D01*
X298144Y-90083D01*
X298183Y-90028D01*
X298223Y-89975D01*
X298262Y-89923D01*
X298301Y-89872D01*
X298340Y-89822D01*
X298378Y-89774D01*
X298416Y-89727D01*
X298454Y-89681D01*
X298491Y-89637D01*
X298536Y-89586D01*
X298583Y-89534D01*
X298632Y-89482D01*
X298683Y-89430D01*
X298736Y-89378D01*
X298790Y-89325D01*
X298847Y-89273D01*
X298905Y-89220D01*
X298965Y-89168D01*
X299027Y-89115D01*
X299090Y-89062D01*
X299155Y-89009D01*
X299221Y-88957D01*
X299289Y-88904D01*
X299358Y-88852D01*
X299429Y-88799D01*
X299501Y-88747D01*
X299574Y-88695D01*
X299648Y-88643D01*
X299724Y-88591D01*
X299800Y-88540D01*
X299878Y-88489D01*
X299956Y-88438D01*
X300036Y-88388D01*
X300116Y-88338D01*
X300197Y-88288D01*
X300279Y-88239D01*
X300362Y-88190D01*
X300445Y-88142D01*
X300529Y-88095D01*
X300614Y-88047D01*
X300699Y-88001D01*
X300785Y-87955D01*
X300871Y-87910D01*
X300957Y-87865D01*
X301044Y-87821D01*
X301131Y-87778D01*
X301218Y-87735D01*
X301305Y-87694D01*
X301392Y-87653D01*
X301480Y-87613D01*
X301567Y-87574D01*
X301654Y-87535D01*
X301742Y-87498D01*
X301829Y-87462D01*
X301915Y-87426D01*
X302002Y-87392D01*
X302088Y-87358D01*
X302174Y-87326D01*
X302259Y-87295D01*
X302344Y-87265D01*
X302429Y-87236D01*
X302513Y-87208D01*
X302596Y-87181D01*
X302679Y-87156D01*
X302760Y-87132D01*
X302841Y-87109D01*
X302922Y-87087D01*
X303001Y-87067D01*
X303079Y-87048D01*
X303156Y-87031D01*
X303233Y-87015D01*
X303308Y-87001D01*
X303382Y-86988D01*
X304315Y-86831D01*
Y-88062D01*
D02*
G37*
G36*
X303902Y-90374D02*
X303952Y-90380D01*
X303999Y-90391D01*
X304042Y-90405D01*
X304082Y-90423D01*
X304118Y-90445D01*
X304152Y-90472D01*
X304183Y-90502D01*
X304211Y-90536D01*
X304236Y-90575D01*
X304259Y-90617D01*
X304279Y-90664D01*
X304298Y-90715D01*
X304314Y-90770D01*
X304328Y-90829D01*
X304341Y-90893D01*
X304351Y-90960D01*
X304361Y-91032D01*
X304439Y-91718D01*
X311470Y-91785D01*
X318500Y-91851D01*
Y-93963D01*
Y-96076D01*
X311719Y-96142D01*
X304937Y-96208D01*
X304870Y-101384D01*
X304803Y-106561D01*
X300831D01*
Y-100693D01*
Y-94826D01*
X300209Y-94542D01*
X300144Y-94511D01*
X300082Y-94482D01*
X300025Y-94453D01*
X299971Y-94425D01*
X299922Y-94397D01*
X299876Y-94369D01*
X299834Y-94341D01*
X299796Y-94313D01*
X299762Y-94285D01*
X299731Y-94256D01*
X299704Y-94226D01*
X299681Y-94196D01*
X299661Y-94164D01*
X299645Y-94132D01*
X299633Y-94098D01*
X299624Y-94062D01*
X299619Y-94024D01*
X299617Y-93985D01*
X299619Y-93944D01*
X299624Y-93900D01*
X299632Y-93854D01*
X299644Y-93806D01*
X299659Y-93755D01*
X299677Y-93700D01*
X299699Y-93643D01*
X299724Y-93582D01*
X299752Y-93518D01*
X299783Y-93451D01*
X299817Y-93379D01*
X299854Y-93304D01*
X299894Y-93224D01*
X299938Y-93140D01*
X299962Y-93095D01*
X299987Y-93050D01*
X300012Y-93005D01*
X300039Y-92960D01*
X300066Y-92915D01*
X300094Y-92870D01*
X300123Y-92825D01*
X300153Y-92780D01*
X300183Y-92735D01*
X300215Y-92690D01*
X300247Y-92645D01*
X300280Y-92601D01*
X300313Y-92556D01*
X300347Y-92511D01*
X300382Y-92467D01*
X300418Y-92423D01*
X300454Y-92379D01*
X300491Y-92335D01*
X300529Y-92291D01*
X300567Y-92248D01*
X300605Y-92204D01*
X300645Y-92161D01*
X300684Y-92119D01*
X300725Y-92076D01*
X300766Y-92034D01*
X300807Y-91992D01*
X300850Y-91950D01*
X300892Y-91908D01*
X300935Y-91867D01*
X300978Y-91827D01*
X301022Y-91786D01*
X301067Y-91746D01*
X301112Y-91706D01*
X301157Y-91667D01*
X301202Y-91628D01*
X301248Y-91590D01*
X301294Y-91552D01*
X301341Y-91514D01*
X301388Y-91477D01*
X301435Y-91440D01*
X301483Y-91404D01*
X301531Y-91368D01*
X301579Y-91333D01*
X301628Y-91298D01*
X301676Y-91264D01*
X301725Y-91230D01*
X301774Y-91197D01*
X301823Y-91165D01*
X301873Y-91133D01*
X301923Y-91102D01*
X301973Y-91071D01*
X302022Y-91041D01*
X302073Y-91012D01*
X302123Y-90983D01*
X302173Y-90955D01*
X302223Y-90927D01*
X302274Y-90900D01*
X302324Y-90874D01*
X302375Y-90849D01*
X302425Y-90825D01*
X302476Y-90801D01*
X302526Y-90778D01*
X302577Y-90755D01*
X302627Y-90734D01*
X302747Y-90684D01*
X302862Y-90638D01*
X302971Y-90595D01*
X303075Y-90556D01*
X303173Y-90521D01*
X303267Y-90490D01*
X303355Y-90462D01*
X303439Y-90437D01*
X303518Y-90417D01*
X303592Y-90400D01*
X303663Y-90387D01*
X303729Y-90378D01*
X303790Y-90373D01*
X303848Y-90372D01*
X303902Y-90374D01*
D02*
G37*
G36*
X317964Y-113233D02*
X317878Y-116663D01*
X317251Y-117785D01*
X316625Y-118906D01*
X310961Y-123787D01*
X310383Y-124287D01*
X309817Y-124778D01*
X309267Y-125257D01*
X308735Y-125721D01*
X308226Y-126168D01*
X307742Y-126595D01*
X307286Y-127000D01*
X306861Y-127378D01*
X306471Y-127729D01*
X306118Y-128048D01*
X305805Y-128334D01*
X305536Y-128583D01*
X305313Y-128792D01*
X305140Y-128960D01*
X305020Y-129083D01*
X304956Y-129158D01*
X304921Y-129211D01*
X304886Y-129269D01*
X304851Y-129331D01*
X304817Y-129396D01*
X304783Y-129465D01*
X304750Y-129537D01*
X304719Y-129610D01*
X304689Y-129685D01*
X304661Y-129760D01*
X304634Y-129836D01*
X304610Y-129911D01*
X304588Y-129986D01*
X304568Y-130059D01*
X304551Y-130130D01*
X304538Y-130199D01*
X304527Y-130264D01*
X304439Y-130882D01*
X311221Y-130948D01*
X318002Y-131015D01*
Y-133131D01*
Y-135247D01*
X309292D01*
Y-136494D01*
Y-137742D01*
X311034D01*
X311395Y-137747D01*
X311726Y-137760D01*
X312023Y-137783D01*
X312279Y-137813D01*
X312488Y-137849D01*
X312644Y-137892D01*
X312742Y-137939D01*
X312776Y-137991D01*
X312774Y-138004D01*
X312768Y-138017D01*
X312757Y-138030D01*
X312742Y-138043D01*
X312723Y-138055D01*
X312701Y-138067D01*
X312674Y-138079D01*
X312644Y-138090D01*
X312610Y-138101D01*
X312573Y-138112D01*
X312532Y-138123D01*
X312488Y-138133D01*
X312440Y-138142D01*
X312389Y-138152D01*
X312335Y-138161D01*
X312279Y-138169D01*
X312219Y-138177D01*
X312156Y-138185D01*
X312091Y-138192D01*
X312023Y-138199D01*
X311952Y-138206D01*
X311879Y-138211D01*
X311804Y-138217D01*
X311726Y-138222D01*
X311647Y-138226D01*
X311565Y-138230D01*
X311481Y-138233D01*
X311395Y-138236D01*
X311307Y-138238D01*
X311218Y-138239D01*
X311127Y-138240D01*
X311034Y-138241D01*
X310684Y-138243D01*
X310358Y-138251D01*
X310062Y-138263D01*
X309804Y-138278D01*
X309591Y-138297D01*
X309430Y-138319D01*
X309328Y-138343D01*
X309292Y-138369D01*
X309293Y-138373D01*
X309294Y-138380D01*
X309297Y-138388D01*
X309300Y-138399D01*
X309305Y-138411D01*
X309311Y-138426D01*
X309317Y-138442D01*
X309325Y-138461D01*
X309334Y-138481D01*
X309343Y-138503D01*
X309354Y-138527D01*
X309365Y-138553D01*
X309377Y-138581D01*
X309391Y-138610D01*
X309405Y-138641D01*
X309420Y-138674D01*
X309436Y-138708D01*
X309452Y-138745D01*
X309470Y-138783D01*
X309488Y-138822D01*
X309507Y-138863D01*
X309527Y-138905D01*
X309548Y-138949D01*
X309569Y-138995D01*
X309592Y-139042D01*
X309615Y-139091D01*
X309638Y-139140D01*
X309663Y-139192D01*
X309688Y-139244D01*
X309714Y-139298D01*
X309740Y-139353D01*
X309767Y-139410D01*
X309795Y-139468D01*
X309823Y-139527D01*
X309853Y-139587D01*
X309882Y-139648D01*
X309913Y-139711D01*
X309944Y-139775D01*
X309975Y-139839D01*
X310007Y-139905D01*
X310039Y-139972D01*
X310073Y-140040D01*
X310106Y-140108D01*
X310140Y-140178D01*
X310175Y-140249D01*
X310210Y-140321D01*
X310246Y-140393D01*
X310282Y-140466D01*
X310318Y-140541D01*
X310355Y-140615D01*
X310392Y-140691D01*
X310430Y-140768D01*
X310468Y-140845D01*
X310507Y-140923D01*
X310546Y-141001D01*
X310585Y-141080D01*
X310624Y-141160D01*
X310664Y-141240D01*
X310704Y-141321D01*
X310745Y-141402D01*
X310786Y-141484D01*
X310827Y-141567D01*
X310868Y-141650D01*
X310910Y-141733D01*
X311235Y-142385D01*
X311538Y-142999D01*
X311812Y-143561D01*
X312052Y-144056D01*
X312250Y-144471D01*
X312400Y-144792D01*
X312494Y-145005D01*
X312527Y-145097D01*
X312525Y-145103D01*
X312519Y-145110D01*
X312509Y-145116D01*
X312494Y-145123D01*
X312476Y-145129D01*
X312454Y-145135D01*
X312429Y-145141D01*
X312400Y-145147D01*
X312367Y-145152D01*
X312331Y-145158D01*
X312292Y-145163D01*
X312250Y-145168D01*
X312205Y-145173D01*
X312157Y-145178D01*
X312106Y-145183D01*
X312052Y-145187D01*
X311996Y-145192D01*
X311937Y-145196D01*
X311876Y-145199D01*
X311812Y-145203D01*
X311747Y-145206D01*
X311679Y-145210D01*
X311609Y-145212D01*
X311538Y-145215D01*
X311464Y-145217D01*
X311389Y-145219D01*
X311313Y-145221D01*
X311235Y-145222D01*
X311155Y-145223D01*
X311074Y-145224D01*
X310993Y-145225D01*
X310910Y-145225D01*
X309292D01*
Y-146597D01*
Y-147969D01*
X310297D01*
X310230Y-153644D01*
X310163Y-159319D01*
X307426D01*
Y-153706D01*
Y-148094D01*
X307986Y-148014D01*
X308546Y-147934D01*
Y-146580D01*
Y-145225D01*
X307052D01*
X306746Y-145220D01*
X306463Y-145206D01*
X306209Y-145183D01*
X305989Y-145152D01*
X305809Y-145115D01*
X305674Y-145072D01*
X305589Y-145024D01*
X305559Y-144972D01*
X305560Y-144964D01*
X305561Y-144955D01*
X305564Y-144943D01*
X305567Y-144930D01*
X305572Y-144915D01*
X305577Y-144898D01*
X305584Y-144879D01*
X305591Y-144859D01*
X305599Y-144836D01*
X305608Y-144812D01*
X305619Y-144786D01*
X305629Y-144759D01*
X305641Y-144730D01*
X305654Y-144699D01*
X305667Y-144667D01*
X305682Y-144633D01*
X305697Y-144597D01*
X305713Y-144560D01*
X305730Y-144521D01*
X305747Y-144482D01*
X305766Y-144440D01*
X305785Y-144397D01*
X305805Y-144353D01*
X305825Y-144307D01*
X305847Y-144260D01*
X305869Y-144212D01*
X305892Y-144163D01*
X305915Y-144112D01*
X305939Y-144060D01*
X305964Y-144006D01*
X305989Y-143952D01*
X306015Y-143896D01*
X306042Y-143840D01*
X306069Y-143782D01*
X306097Y-143723D01*
X306126Y-143663D01*
X306155Y-143602D01*
X306185Y-143540D01*
X306215Y-143477D01*
X306245Y-143413D01*
X306277Y-143349D01*
X306309Y-143283D01*
X306341Y-143216D01*
X306374Y-143149D01*
X306407Y-143081D01*
X306440Y-143012D01*
X306475Y-142942D01*
X306509Y-142872D01*
X306544Y-142800D01*
X306580Y-142729D01*
X306615Y-142656D01*
X306652Y-142583D01*
X306688Y-142509D01*
X306725Y-142435D01*
X306763Y-142360D01*
X306800Y-142285D01*
X306838Y-142209D01*
X306876Y-142133D01*
X306915Y-142056D01*
X306954Y-141979D01*
X306993Y-141901D01*
X307032Y-141823D01*
X307072Y-141745D01*
X307112Y-141667D01*
X307271Y-141355D01*
X307426Y-141050D01*
X307576Y-140753D01*
X307722Y-140467D01*
X307861Y-140192D01*
X307993Y-139931D01*
X308118Y-139685D01*
X308234Y-139456D01*
X308340Y-139246D01*
X308436Y-139055D01*
X308521Y-138886D01*
X308594Y-138741D01*
X308655Y-138621D01*
X308701Y-138528D01*
X308734Y-138462D01*
X308750Y-138428D01*
X308752Y-138418D01*
X308750Y-138409D01*
X308743Y-138399D01*
X308732Y-138390D01*
X308716Y-138381D01*
X308696Y-138372D01*
X308672Y-138363D01*
X308645Y-138355D01*
X308613Y-138347D01*
X308577Y-138339D01*
X308539Y-138331D01*
X308496Y-138323D01*
X308450Y-138316D01*
X308401Y-138309D01*
X308348Y-138302D01*
X308293Y-138295D01*
X308235Y-138289D01*
X308173Y-138283D01*
X308109Y-138278D01*
X308042Y-138273D01*
X307973Y-138268D01*
X307901Y-138263D01*
X307827Y-138259D01*
X307751Y-138255D01*
X307673Y-138252D01*
X307592Y-138249D01*
X307510Y-138247D01*
X307426Y-138244D01*
X307340Y-138243D01*
X307252Y-138242D01*
X307164Y-138241D01*
X307073Y-138241D01*
X306708Y-138236D01*
X306372Y-138222D01*
X306072Y-138199D01*
X305813Y-138169D01*
X305602Y-138133D01*
X305444Y-138090D01*
X305345Y-138043D01*
X305311Y-137991D01*
X305313Y-137978D01*
X305319Y-137965D01*
X305330Y-137952D01*
X305345Y-137939D01*
X305363Y-137927D01*
X305386Y-137915D01*
X305413Y-137903D01*
X305443Y-137892D01*
X305477Y-137881D01*
X305514Y-137870D01*
X305555Y-137860D01*
X305599Y-137849D01*
X305647Y-137840D01*
X305697Y-137830D01*
X305751Y-137821D01*
X305808Y-137813D01*
X305868Y-137805D01*
X305931Y-137797D01*
X305996Y-137790D01*
X306064Y-137783D01*
X306134Y-137777D01*
X306207Y-137771D01*
X306283Y-137765D01*
X306360Y-137760D01*
X306440Y-137756D01*
X306522Y-137752D01*
X306606Y-137749D01*
X306692Y-137747D01*
X306780Y-137744D01*
X306869Y-137743D01*
X306960Y-137742D01*
X307052Y-137742D01*
X308794D01*
Y-136494D01*
Y-135247D01*
X300286D01*
X300372Y-131776D01*
X300458Y-128304D01*
X301215Y-127223D01*
X301225Y-127209D01*
X301236Y-127194D01*
X301248Y-127179D01*
X301260Y-127162D01*
X301273Y-127145D01*
X301288Y-127128D01*
X301302Y-127109D01*
X301318Y-127090D01*
X301335Y-127071D01*
X301352Y-127051D01*
X301370Y-127030D01*
X301388Y-127008D01*
X301408Y-126986D01*
X301428Y-126963D01*
X301449Y-126940D01*
X301470Y-126916D01*
X301493Y-126892D01*
X301516Y-126866D01*
X301540Y-126841D01*
X301564Y-126814D01*
X301589Y-126788D01*
X301615Y-126760D01*
X301642Y-126732D01*
X301669Y-126704D01*
X301697Y-126674D01*
X301725Y-126645D01*
X301754Y-126614D01*
X301784Y-126584D01*
X301815Y-126552D01*
X301846Y-126521D01*
X301878Y-126488D01*
X301910Y-126455D01*
X301943Y-126422D01*
X301977Y-126388D01*
X302011Y-126354D01*
X302046Y-126319D01*
X302081Y-126284D01*
X302117Y-126248D01*
X302154Y-126211D01*
X302191Y-126174D01*
X302229Y-126137D01*
X302268Y-126099D01*
X302306Y-126061D01*
X302346Y-126023D01*
X302386Y-125984D01*
X302427Y-125944D01*
X302468Y-125904D01*
X302509Y-125864D01*
X302552Y-125823D01*
X302594Y-125782D01*
X302638Y-125740D01*
X302681Y-125698D01*
X302726Y-125655D01*
X302770Y-125612D01*
X302816Y-125569D01*
X302861Y-125526D01*
X302908Y-125482D01*
X302955Y-125437D01*
X303002Y-125392D01*
X303049Y-125347D01*
X303098Y-125302D01*
X303146Y-125256D01*
X303195Y-125210D01*
X303245Y-125163D01*
X303294Y-125117D01*
X303345Y-125069D01*
X303396Y-125022D01*
X303447Y-124974D01*
X303498Y-124926D01*
X303550Y-124877D01*
X303603Y-124829D01*
X303656Y-124780D01*
X303709Y-124730D01*
X303762Y-124681D01*
X303816Y-124631D01*
X303871Y-124581D01*
X303925Y-124530D01*
X303980Y-124479D01*
X304036Y-124428D01*
X304091Y-124377D01*
X304148Y-124326D01*
X304204Y-124274D01*
X304261Y-124222D01*
X304318Y-124170D01*
X304375Y-124118D01*
X304433Y-124065D01*
X304491Y-124012D01*
X304549Y-123959D01*
X304608Y-123906D01*
X304667Y-123852D01*
X304726Y-123799D01*
X304785Y-123745D01*
X304845Y-123691D01*
X304905Y-123637D01*
X304965Y-123582D01*
X305026Y-123528D01*
X305087Y-123473D01*
X305148Y-123418D01*
X305209Y-123363D01*
X305271Y-123308D01*
X305332Y-123253D01*
X305394Y-123197D01*
X305456Y-123142D01*
X305519Y-123086D01*
X305581Y-123030D01*
X305644Y-122975D01*
X305707Y-122919D01*
X305770Y-122863D01*
X305834Y-122806D01*
X305897Y-122750D01*
X305961Y-122694D01*
X306025Y-122637D01*
X306088Y-122581D01*
X306153Y-122524D01*
X306217Y-122468D01*
X306281Y-122411D01*
X306346Y-122354D01*
X306410Y-122298D01*
X306475Y-122241D01*
X306540Y-122184D01*
X306605Y-122127D01*
X306670Y-122070D01*
X306735Y-122013D01*
X306801Y-121956D01*
X306866Y-121899D01*
X306932Y-121843D01*
X306997Y-121786D01*
X307063Y-121729D01*
X307593Y-121268D01*
X308096Y-120831D01*
X308571Y-120416D01*
X309020Y-120024D01*
X309442Y-119652D01*
X309840Y-119300D01*
X310213Y-118968D01*
X310563Y-118654D01*
X310890Y-118359D01*
X311194Y-118080D01*
X311477Y-117818D01*
X311740Y-117572D01*
X311982Y-117341D01*
X312205Y-117123D01*
X312410Y-116919D01*
X312597Y-116728D01*
X312767Y-116548D01*
X312920Y-116380D01*
X313058Y-116221D01*
X313181Y-116072D01*
X313291Y-115933D01*
X313386Y-115800D01*
X313469Y-115676D01*
X313541Y-115557D01*
X313601Y-115445D01*
X313650Y-115337D01*
X313691Y-115233D01*
X313722Y-115133D01*
X313745Y-115035D01*
X313760Y-114940D01*
X313769Y-114845D01*
X313772Y-114751D01*
Y-114044D01*
X300333D01*
Y-111924D01*
Y-109803D01*
X318050D01*
X317964Y-113233D01*
D02*
G37*
G36*
X315576Y-139540D02*
X317629Y-139612D01*
Y-150713D01*
Y-161813D01*
X317007Y-163044D01*
X316968Y-163119D01*
X316929Y-163193D01*
X316889Y-163265D01*
X316849Y-163336D01*
X316808Y-163406D01*
X316766Y-163474D01*
X316724Y-163541D01*
X316681Y-163607D01*
X316638Y-163671D01*
X316595Y-163733D01*
X316550Y-163795D01*
X316506Y-163855D01*
X316460Y-163913D01*
X316415Y-163970D01*
X316368Y-164025D01*
X316322Y-164079D01*
X316274Y-164132D01*
X316227Y-164183D01*
X316179Y-164233D01*
X316130Y-164280D01*
X316081Y-164327D01*
X316031Y-164372D01*
X315982Y-164416D01*
X315931Y-164457D01*
X315880Y-164498D01*
X315829Y-164537D01*
X315778Y-164574D01*
X315726Y-164610D01*
X315673Y-164644D01*
X315620Y-164676D01*
X315567Y-164707D01*
X315514Y-164737D01*
X314643Y-165200D01*
X308546Y-165128D01*
X302449Y-165056D01*
X301752Y-164583D01*
X301712Y-164555D01*
X301672Y-164526D01*
X301633Y-164497D01*
X301594Y-164468D01*
X301556Y-164437D01*
X301518Y-164407D01*
X301481Y-164375D01*
X301444Y-164343D01*
X301407Y-164310D01*
X301371Y-164276D01*
X301336Y-164242D01*
X301301Y-164207D01*
X301266Y-164171D01*
X301232Y-164135D01*
X301198Y-164098D01*
X301165Y-164060D01*
X301132Y-164022D01*
X301099Y-163983D01*
X301067Y-163943D01*
X301036Y-163903D01*
X301005Y-163862D01*
X300974Y-163821D01*
X300944Y-163778D01*
X300914Y-163735D01*
X300885Y-163692D01*
X300856Y-163647D01*
X300828Y-163602D01*
X300800Y-163557D01*
X300772Y-163511D01*
X300745Y-163464D01*
X300718Y-163416D01*
X300692Y-163368D01*
X300667Y-163319D01*
X300641Y-163269D01*
X300617Y-163219D01*
X300592Y-163168D01*
X300568Y-163116D01*
X300545Y-163064D01*
X300521Y-163011D01*
X300499Y-162957D01*
X300477Y-162902D01*
X300455Y-162847D01*
X300434Y-162792D01*
X300413Y-162735D01*
X300392Y-162678D01*
X300372Y-162620D01*
X300353Y-162562D01*
X300334Y-162503D01*
X300315Y-162443D01*
X300297Y-162382D01*
X300279Y-162321D01*
X300262Y-162259D01*
X300245Y-162197D01*
X300228Y-162134D01*
X300212Y-162070D01*
X300197Y-162005D01*
X300182Y-161940D01*
X300167Y-161874D01*
X300152Y-161807D01*
X300139Y-161740D01*
X300125Y-161672D01*
X300112Y-161603D01*
X300100Y-161533D01*
X300088Y-161463D01*
X300086Y-161456D01*
X300085Y-161448D01*
X300084Y-161439D01*
X300083Y-161431D01*
X300081Y-161421D01*
X300080Y-161412D01*
X300079Y-161402D01*
X300078Y-161391D01*
X300076Y-161380D01*
X300075Y-161369D01*
X300074Y-161357D01*
X300073Y-161345D01*
X300072Y-161333D01*
X300070Y-161320D01*
X300069Y-161307D01*
X300068Y-161293D01*
X300066Y-161279D01*
X300065Y-161265D01*
X300064Y-161250D01*
X300063Y-161235D01*
X300062Y-161219D01*
X300060Y-161203D01*
X300059Y-161187D01*
X300058Y-161170D01*
X300057Y-161153D01*
X300056Y-161136D01*
X300054Y-161118D01*
X300053Y-161100D01*
X300052Y-161081D01*
X300051Y-161062D01*
X300049Y-161043D01*
X300048Y-161023D01*
X300047Y-161003D01*
X300046Y-160983D01*
X300044Y-160962D01*
X300043Y-160941D01*
X300042Y-160919D01*
X300041Y-160897D01*
X300040Y-160875D01*
X300039Y-160852D01*
X300037Y-160829D01*
X300036Y-160806D01*
X300035Y-160782D01*
X300034Y-160758D01*
X300032Y-160734D01*
X300031Y-160709D01*
X300030Y-160684D01*
X300029Y-160659D01*
X300028Y-160633D01*
X300027Y-160607D01*
X300025Y-160580D01*
X300024Y-160554D01*
X300023Y-160527D01*
X300022Y-160499D01*
X300021Y-160471D01*
X300020Y-160443D01*
X300018Y-160415D01*
X300017Y-160386D01*
X300016Y-160357D01*
X300015Y-160327D01*
X300014Y-160298D01*
X300012Y-160267D01*
X300011Y-160237D01*
X300010Y-160206D01*
X300009Y-160175D01*
X300008Y-160144D01*
X300007Y-160112D01*
X300006Y-160080D01*
X300005Y-160048D01*
X300003Y-160015D01*
X300002Y-159982D01*
X300001Y-159949D01*
X300000Y-159915D01*
X299999Y-159881D01*
X299998Y-159847D01*
X299996Y-159812D01*
X299995Y-159778D01*
X299994Y-159742D01*
X299993Y-159707D01*
X299992Y-159671D01*
X299991Y-159635D01*
X299990Y-159599D01*
X299989Y-159562D01*
X299988Y-159525D01*
X299987Y-159488D01*
X299985Y-159451D01*
X299984Y-159413D01*
X299983Y-159375D01*
X299982Y-159336D01*
X299981Y-159298D01*
X299980Y-159259D01*
X299979Y-159220D01*
X299978Y-159180D01*
X299977Y-159140D01*
X299976Y-159100D01*
X299975Y-159060D01*
X299974Y-159019D01*
X299973Y-158978D01*
X299972Y-158937D01*
X299970Y-158896D01*
X299969Y-158854D01*
X299968Y-158812D01*
X299967Y-158770D01*
X299966Y-158727D01*
X299965Y-158685D01*
X299964Y-158642D01*
X299963Y-158598D01*
X299962Y-158555D01*
X299961Y-158511D01*
X299960Y-158467D01*
X299959Y-158422D01*
X299958Y-158378D01*
X299957Y-158333D01*
X299956Y-158288D01*
X299955Y-158242D01*
X299954Y-158197D01*
X299953Y-158151D01*
X299952Y-158105D01*
X299951Y-158059D01*
X299950Y-158012D01*
X299949Y-157965D01*
X299948Y-157918D01*
X299947Y-157871D01*
X299946Y-157823D01*
X299945Y-157776D01*
X299944Y-157728D01*
X299943Y-157679D01*
X299942Y-157631D01*
X299941Y-157582D01*
X299940Y-157533D01*
X299940Y-157484D01*
X299939Y-157435D01*
X299938Y-157385D01*
X299937Y-157335D01*
X299936Y-157285D01*
X299935Y-157235D01*
X299934Y-157185D01*
X299933Y-157134D01*
X299932Y-157083D01*
X299931Y-157032D01*
X299931Y-156980D01*
X299930Y-156929D01*
X299929Y-156877D01*
X299928Y-156825D01*
X299927Y-156773D01*
X299926Y-156720D01*
X299925Y-156668D01*
X299924Y-156615D01*
X299923Y-156562D01*
X299923Y-156509D01*
X299922Y-156456D01*
X299921Y-156402D01*
X299920Y-156348D01*
X299919Y-156294D01*
X299918Y-156240D01*
X299918Y-156186D01*
X299917Y-156131D01*
X299916Y-156076D01*
X299915Y-156021D01*
X299914Y-155966D01*
X299914Y-155911D01*
X299913Y-155855D01*
X299912Y-155800D01*
X299911Y-155744D01*
X299910Y-155688D01*
X299910Y-155632D01*
X299909Y-155575D01*
X299908Y-155519D01*
X299907Y-155462D01*
X299907Y-155405D01*
X299906Y-155348D01*
X299905Y-155291D01*
X299904Y-155233D01*
X299904Y-155176D01*
X299903Y-155118D01*
X299902Y-155060D01*
X299902Y-155002D01*
X299901Y-154944D01*
X299900Y-154885D01*
X299899Y-154827D01*
X299899Y-154768D01*
X299898Y-154709D01*
X299897Y-154650D01*
X299897Y-154591D01*
X299896Y-154532D01*
X299895Y-154472D01*
X299895Y-154413D01*
X299894Y-154353D01*
X299893Y-154293D01*
X299893Y-154233D01*
X299892Y-154173D01*
X299891Y-154113D01*
X299891Y-154052D01*
X299890Y-153992D01*
X299890Y-153931D01*
X299889Y-153870D01*
X299888Y-153809D01*
X299888Y-153748D01*
X299887Y-153687D01*
X299887Y-153625D01*
X299886Y-153564D01*
X299886Y-153502D01*
X299885Y-153440D01*
X299884Y-153379D01*
X299884Y-153317D01*
X299883Y-153254D01*
X299883Y-153192D01*
X299882Y-153130D01*
X299882Y-153067D01*
X299881Y-153005D01*
X299881Y-152942D01*
X299880Y-152879D01*
X299880Y-152816D01*
X299879Y-152753D01*
X299879Y-152690D01*
X299878Y-152627D01*
X299878Y-152564D01*
X299877Y-152500D01*
X299877Y-152437D01*
X299876Y-152373D01*
X299876Y-152309D01*
X299875Y-152245D01*
X299875Y-152181D01*
X299875Y-152117D01*
X299874Y-152053D01*
X299874Y-151989D01*
X299873Y-151925D01*
X299873Y-151860D01*
X299873Y-151796D01*
X299872Y-151731D01*
X299872Y-151667D01*
X299871Y-151602D01*
X299871Y-151537D01*
X299871Y-151472D01*
X299870Y-151407D01*
X299870Y-151342D01*
X299870Y-151277D01*
X299869Y-151212D01*
X299869Y-151146D01*
X299869Y-151081D01*
X299868Y-151016D01*
X299868Y-150950D01*
X299868Y-150885D01*
X299868Y-150819D01*
X299867Y-150753D01*
X299867Y-150688D01*
X299867Y-150622D01*
X299867Y-150556D01*
X299866Y-150490D01*
X299866Y-150424D01*
X299866Y-150358D01*
X299866Y-150292D01*
X299865Y-150226D01*
X299865Y-150160D01*
X299865Y-150093D01*
X299865Y-150027D01*
X299836Y-139737D01*
X304066D01*
Y-150081D01*
Y-160424D01*
X304548Y-160682D01*
X304554Y-160686D01*
X304562Y-160689D01*
X304570Y-160692D01*
X304578Y-160696D01*
X304587Y-160699D01*
X304597Y-160703D01*
X304607Y-160706D01*
X304618Y-160709D01*
X304629Y-160713D01*
X304641Y-160716D01*
X304654Y-160719D01*
X304667Y-160722D01*
X304680Y-160726D01*
X304694Y-160729D01*
X304709Y-160732D01*
X304724Y-160735D01*
X304740Y-160739D01*
X304756Y-160742D01*
X304773Y-160745D01*
X304791Y-160748D01*
X304809Y-160751D01*
X304827Y-160754D01*
X304846Y-160757D01*
X304866Y-160760D01*
X304886Y-160764D01*
X304906Y-160767D01*
X304927Y-160770D01*
X304948Y-160773D01*
X304971Y-160776D01*
X304993Y-160779D01*
X305016Y-160782D01*
X305039Y-160784D01*
X305063Y-160787D01*
X305088Y-160790D01*
X305113Y-160793D01*
X305138Y-160796D01*
X305164Y-160799D01*
X305190Y-160802D01*
X305217Y-160804D01*
X305244Y-160807D01*
X305272Y-160810D01*
X305300Y-160813D01*
X305328Y-160815D01*
X305357Y-160818D01*
X305386Y-160821D01*
X305416Y-160823D01*
X305447Y-160826D01*
X305477Y-160828D01*
X305508Y-160831D01*
X305540Y-160834D01*
X305572Y-160836D01*
X305604Y-160838D01*
X305637Y-160841D01*
X305670Y-160843D01*
X305704Y-160846D01*
X305738Y-160848D01*
X305772Y-160851D01*
X305807Y-160853D01*
X305842Y-160855D01*
X305877Y-160857D01*
X305913Y-160860D01*
X305949Y-160862D01*
X305986Y-160864D01*
X306023Y-160866D01*
X306060Y-160869D01*
X306098Y-160871D01*
X306136Y-160873D01*
X306174Y-160875D01*
X306213Y-160877D01*
X306252Y-160879D01*
X306292Y-160881D01*
X306331Y-160883D01*
X306371Y-160885D01*
X306412Y-160887D01*
X306452Y-160889D01*
X306493Y-160890D01*
X306535Y-160892D01*
X306577Y-160894D01*
X306619Y-160896D01*
X306661Y-160897D01*
X306703Y-160899D01*
X306746Y-160901D01*
X306790Y-160902D01*
X306833Y-160904D01*
X306877Y-160906D01*
X306921Y-160907D01*
X306965Y-160909D01*
X307010Y-160910D01*
X307055Y-160912D01*
X307100Y-160913D01*
X307145Y-160914D01*
X307191Y-160916D01*
X307237Y-160917D01*
X307283Y-160918D01*
X307329Y-160919D01*
X307376Y-160921D01*
X307423Y-160922D01*
X307470Y-160923D01*
X307518Y-160924D01*
X307565Y-160925D01*
X307613Y-160926D01*
X307661Y-160927D01*
X307709Y-160928D01*
X307758Y-160929D01*
X307807Y-160930D01*
X307856Y-160931D01*
X307905Y-160932D01*
X307954Y-160933D01*
X308003Y-160933D01*
X308053Y-160934D01*
X308103Y-160935D01*
X308153Y-160935D01*
X308204Y-160936D01*
X308254Y-160936D01*
X308305Y-160937D01*
X308355Y-160938D01*
X308406Y-160938D01*
X308458Y-160938D01*
X308509Y-160939D01*
X308560Y-160939D01*
X308612Y-160939D01*
X308664Y-160940D01*
X308716Y-160940D01*
X308768Y-160940D01*
X308820Y-160940D01*
X308872Y-160940D01*
X308925Y-160940D01*
X308977Y-160940D01*
X312926D01*
X313224Y-160641D01*
X313523Y-160342D01*
Y-149905D01*
Y-139468D01*
X315576Y-139540D01*
D02*
G37*
D10*
X-9500Y-532300D02*
X-8467Y-532105D01*
X-7629Y-531471D01*
X-7160Y-530531D01*
X-7157Y-529480D01*
X-7622Y-528538D01*
X-8457Y-527900D01*
X-9488Y-527700D01*
X6500Y-579300D02*
X7533Y-579105D01*
X8371Y-578471D01*
X8840Y-577531D01*
X8843Y-576480D01*
X8378Y-575538D01*
X7543Y-574900D01*
X6511Y-574699D01*
X52039Y-45094D02*
X52827Y-44307D01*
X52827Y-37693D02*
X52039Y-36906D01*
X39047Y-44307D02*
X39835Y-45094D01*
Y-36906D02*
X39047Y-37693D01*
X49036Y-52271D02*
X49898Y-51914D01*
X50256Y-51051D01*
Y-47902D02*
X49898Y-47039D01*
X49036Y-46682D01*
X39250Y-51028D02*
X39607Y-51891D01*
X40469Y-52248D01*
Y-46659D02*
X39607Y-47016D01*
X39250Y-47879D01*
X45771Y-61720D02*
X45414Y-60857D01*
X44551Y-60500D01*
X41402D02*
X40539Y-60857D01*
X40182Y-61720D01*
X44528Y-71506D02*
X45391Y-71149D01*
X45748Y-70286D01*
X40159D02*
X40516Y-71149D01*
X41379Y-71506D01*
X9271Y-153976D02*
X8914Y-153113D01*
X8051Y-152756D01*
X4902D02*
X4039Y-153113D01*
X3682Y-153976D01*
X8028Y-163762D02*
X8891Y-163405D01*
X9248Y-162542D01*
X3659D02*
X4016Y-163405D01*
X4879Y-163762D01*
X19461Y-162406D02*
X18673Y-163193D01*
X18673Y-169807D02*
X19461Y-170595D01*
X32453Y-163193D02*
X31665Y-162406D01*
Y-170595D02*
X32453Y-169807D01*
X39094Y-95898D02*
X38307Y-95110D01*
X31693Y-95110D02*
X30906Y-95898D01*
X38307Y-108890D02*
X39094Y-108102D01*
X30906D02*
X31693Y-108890D01*
X23500Y-752343D02*
Y-748343D01*
Y-752343D02*
X24000Y-752843D01*
X29000D01*
X29500Y-752343D01*
Y-748343D01*
X23500Y-746343D02*
Y-742842D01*
Y-742343D01*
X24000Y-741843D01*
X29000D01*
X29500Y-742343D01*
Y-746343D02*
Y-742343D01*
X16500Y-752500D02*
Y-748500D01*
Y-752500D02*
X17000Y-753000D01*
X22000D01*
X22500Y-752500D01*
Y-748500D01*
X16500Y-746500D02*
Y-743000D01*
Y-742500D01*
X17000Y-742000D01*
X22000D01*
X22500Y-742500D01*
Y-746500D02*
Y-742500D01*
X9500Y-752500D02*
Y-748500D01*
Y-752500D02*
X10000Y-753000D01*
X15000D01*
X15500Y-752500D01*
Y-748500D01*
X9500Y-746500D02*
Y-743000D01*
Y-742500D01*
X10000Y-742000D01*
X15000D01*
X15500Y-742500D01*
Y-746500D02*
Y-742500D01*
X15000Y-506500D02*
X19000D01*
X14500Y-507000D02*
X15000Y-506500D01*
X14500Y-512000D02*
Y-507000D01*
Y-512000D02*
X15000Y-512500D01*
X19000D01*
X21000Y-506500D02*
X24500D01*
X25000D01*
X25500Y-507000D01*
Y-512000D02*
Y-507000D01*
X25000Y-512500D02*
X25500Y-512000D01*
X21000Y-512500D02*
X25000D01*
X-9000Y-511342D02*
Y-507342D01*
Y-511342D02*
X-8500Y-511842D01*
X-3500D01*
X-3000Y-511342D01*
Y-507342D01*
X-9000Y-505342D02*
Y-501842D01*
Y-501342D01*
X-8500Y-500843D01*
X-3500D01*
X-3000Y-501342D01*
Y-505342D02*
Y-501342D01*
X-9000Y-641000D02*
X-5500Y-644500D01*
X-9000Y-641000D02*
Y-561500D01*
X-9500Y-537300D02*
Y-532300D01*
X-9590Y-527700D02*
Y-522800D01*
X29590D01*
Y-537300D02*
Y-522800D01*
X-9400Y-537300D02*
X29590D01*
X6500Y-584300D02*
Y-579300D01*
X6410Y-574699D02*
Y-569800D01*
X45590D01*
Y-584300D02*
Y-569800D01*
X6600Y-584300D02*
X45590D01*
X-1000Y-567333D02*
X3000D01*
X3500Y-566833D01*
Y-561833D01*
X3000Y-561333D02*
X3500Y-561833D01*
X-1000Y-561333D02*
X3000D01*
X-6500Y-567333D02*
X-3000D01*
X-7000D02*
X-6500D01*
X-7500Y-566833D02*
X-7000Y-567333D01*
X-7500Y-566833D02*
Y-561833D01*
X-7000Y-561333D01*
X-3000D01*
X-1000Y-573500D02*
X3000D01*
X3500Y-573000D01*
Y-568000D01*
X3000Y-567500D02*
X3500Y-568000D01*
X-1000Y-567500D02*
X3000D01*
X-6500Y-573500D02*
X-3000D01*
X-7000D02*
X-6500D01*
X-7500Y-573000D02*
X-7000Y-573500D01*
X-7500Y-573000D02*
Y-568000D01*
X-7000Y-567500D01*
X-3000D01*
X-1000Y-579667D02*
X3000D01*
X3500Y-579167D01*
Y-574167D01*
X3000Y-573667D02*
X3500Y-574167D01*
X-1000Y-573667D02*
X3000D01*
X-6500Y-579667D02*
X-3000D01*
X-7000D02*
X-6500D01*
X-7500Y-579167D02*
X-7000Y-579667D01*
X-7500Y-579167D02*
Y-574167D01*
X-7000Y-573667D01*
X-3000D01*
X-1000Y-585833D02*
X3000D01*
X3500Y-585333D01*
Y-580333D01*
X3000Y-579833D02*
X3500Y-580333D01*
X-1000Y-579833D02*
X3000D01*
X-6500Y-585833D02*
X-3000D01*
X-7000D02*
X-6500D01*
X-7500Y-585333D02*
X-7000Y-585833D01*
X-7500Y-585333D02*
Y-580333D01*
X-7000Y-579833D01*
X-3000D01*
X-1000Y-592000D02*
X3000D01*
X3500Y-591500D01*
Y-586500D01*
X3000Y-586000D02*
X3500Y-586500D01*
X-1000Y-586000D02*
X3000D01*
X-6500Y-592000D02*
X-3000D01*
X-7000D02*
X-6500D01*
X-7500Y-591500D02*
X-7000Y-592000D01*
X-7500Y-591500D02*
Y-586500D01*
X-7000Y-586000D01*
X-3000D01*
X-1000Y-598167D02*
X3000D01*
X3500Y-597667D01*
Y-592667D01*
X3000Y-592167D02*
X3500Y-592667D01*
X-1000Y-592167D02*
X3000D01*
X-6500Y-598167D02*
X-3000D01*
X-7000D02*
X-6500D01*
X-7500Y-597667D02*
X-7000Y-598167D01*
X-7500Y-597667D02*
Y-592667D01*
X-7000Y-592167D01*
X-3000D01*
X-1000Y-604333D02*
X3000D01*
X3500Y-603833D01*
Y-598833D01*
X3000Y-598333D02*
X3500Y-598833D01*
X-1000Y-598333D02*
X3000D01*
X-6500Y-604333D02*
X-3000D01*
X-7000D02*
X-6500D01*
X-7500Y-603833D02*
X-7000Y-604333D01*
X-7500Y-603833D02*
Y-598833D01*
X-7000Y-598333D01*
X-3000D01*
X39047Y-44150D02*
Y-37850D01*
X52827Y-37850D02*
X52827Y-44150D01*
X39835Y-36906D02*
X43968D01*
X39835Y-45094D02*
X43968D01*
X47905Y-36906D02*
X52039D01*
X47905Y-45094D02*
X52039D01*
X52827Y-44228D02*
Y-44150D01*
Y-44307D02*
Y-44150D01*
X52827Y-37850D02*
Y-37693D01*
X39047Y-44307D02*
Y-44150D01*
Y-37850D02*
Y-37693D01*
X50256Y-51051D02*
Y-47902D01*
X45886Y-46682D02*
X49036D01*
X45886Y-52271D02*
X49036D01*
X40469Y-46659D02*
X43619D01*
X39250Y-51028D02*
Y-47879D01*
X40469Y-52248D02*
X43619D01*
X41402Y-60500D02*
X44551D01*
X40182Y-64869D02*
Y-61720D01*
X45771Y-64869D02*
Y-61720D01*
X40159Y-70286D02*
Y-67137D01*
X41379Y-71506D02*
X44528D01*
X45748Y-70286D02*
Y-67137D01*
X4902Y-152756D02*
X8051D01*
X3682Y-157125D02*
Y-153976D01*
X9271Y-157125D02*
Y-153976D01*
X3659Y-162542D02*
Y-159392D01*
X4879Y-163762D02*
X8028D01*
X9248Y-162542D02*
Y-159392D01*
X32453Y-169650D02*
Y-163350D01*
X18673D02*
X18673Y-169650D01*
X27531Y-170595D02*
X31665D01*
X27531Y-162406D02*
X31665D01*
X19461Y-170595D02*
X23595D01*
X19461Y-162406D02*
X23595D01*
X18673Y-163350D02*
Y-163272D01*
Y-163350D02*
Y-163193D01*
X18673Y-169807D02*
Y-169650D01*
X32453Y-163350D02*
Y-163193D01*
Y-169807D02*
Y-169650D01*
X31850Y-108890D02*
X38150D01*
X31850Y-95110D02*
X38150Y-95110D01*
X30906Y-108102D02*
Y-103969D01*
X39094Y-108102D02*
Y-103969D01*
X30906Y-100031D02*
Y-95898D01*
X39094Y-100031D02*
Y-95898D01*
X38150Y-95110D02*
X38228D01*
X38150D02*
X38307D01*
X31693Y-95110D02*
X31850D01*
X38150Y-108890D02*
X38307D01*
X31693D02*
X31850D01*
X-34067Y-382532D02*
X-9657D01*
X-34067Y-413240D02*
Y-382532D01*
Y-443740D02*
Y-413031D01*
Y-381450D02*
Y-350741D01*
Y-350950D02*
Y-320241D01*
X-9657D01*
X51189Y-144508D02*
X81689D01*
Y-228508D02*
Y-144508D01*
X51189Y-228508D02*
X81689D01*
X51189D02*
Y-144508D01*
X252189Y-139508D02*
Y-55508D01*
Y-139508D02*
X282689D01*
Y-55508D01*
X252189D02*
X282689D01*
X252189Y-144508D02*
X282689D01*
Y-228508D02*
Y-144508D01*
X252189Y-228508D02*
X282689D01*
X252189D02*
Y-144508D01*
Y-317508D02*
Y-233508D01*
Y-317508D02*
X282689D01*
Y-233508D01*
X252189D02*
X282689D01*
X252189Y-322508D02*
X282689D01*
Y-406508D02*
Y-322508D01*
X252189Y-406508D02*
X282689D01*
X252189D02*
Y-322508D01*
Y-495508D02*
Y-411508D01*
Y-495508D02*
X282689D01*
Y-411508D01*
X252189D02*
X282689D01*
X252189Y-500508D02*
X282689D01*
Y-584508D02*
Y-500508D01*
X252189Y-584508D02*
X282689D01*
X252189D02*
Y-500508D01*
Y-673508D02*
Y-589508D01*
Y-673508D02*
X282689D01*
Y-589508D01*
X252189D02*
X282689D01*
X252189Y-678508D02*
X282689D01*
Y-762508D02*
Y-678508D01*
X252189Y-762508D02*
X282689D01*
X252189D02*
Y-678508D01*
X218689Y-139508D02*
Y-55508D01*
Y-139508D02*
X249189D01*
Y-55508D01*
X218689D02*
X249189D01*
X218689Y-144508D02*
X249189D01*
Y-228508D02*
Y-144508D01*
X218689Y-228508D02*
X249189D01*
X218689D02*
Y-144508D01*
Y-317508D02*
Y-233508D01*
Y-317508D02*
X249189D01*
Y-233508D01*
X218689D02*
X249189D01*
X218689Y-322508D02*
X249189D01*
Y-406508D02*
Y-322508D01*
X218689Y-406508D02*
X249189D01*
X218689D02*
Y-322508D01*
Y-495508D02*
Y-411508D01*
Y-495508D02*
X249189D01*
Y-411508D01*
X218689D02*
X249189D01*
X218689Y-500508D02*
X249189D01*
Y-584508D02*
Y-500508D01*
X218689Y-584508D02*
X249189D01*
X218689D02*
Y-500508D01*
Y-673508D02*
Y-589508D01*
Y-673508D02*
X249189D01*
Y-589508D01*
X218689D02*
X249189D01*
X218689Y-678508D02*
X249189D01*
Y-762508D02*
Y-678508D01*
X218689Y-762508D02*
X249189D01*
X218689D02*
Y-678508D01*
X185189Y-139508D02*
Y-55508D01*
Y-139508D02*
X215689D01*
Y-55508D01*
X185189D02*
X215689D01*
X185189Y-144508D02*
X215689D01*
Y-228508D02*
Y-144508D01*
X185189Y-228508D02*
X215689D01*
X185189D02*
Y-144508D01*
Y-317508D02*
Y-233508D01*
Y-317508D02*
X215689D01*
Y-233508D01*
X185189D02*
X215689D01*
X185189Y-322508D02*
X215689D01*
Y-406508D02*
Y-322508D01*
X185189Y-406508D02*
X215689D01*
X185189D02*
Y-322508D01*
Y-495508D02*
Y-411508D01*
Y-495508D02*
X215689D01*
Y-411508D01*
X185189D02*
X215689D01*
X185189Y-500508D02*
X215689D01*
Y-584508D02*
Y-500508D01*
X185189Y-584508D02*
X215689D01*
X185189D02*
Y-500508D01*
Y-673508D02*
Y-589508D01*
Y-673508D02*
X215689D01*
Y-589508D01*
X185189D02*
X215689D01*
X185189Y-678508D02*
X215689D01*
Y-762508D02*
Y-678508D01*
X185189Y-762508D02*
X215689D01*
X185189D02*
Y-678508D01*
X118189Y-139508D02*
Y-55508D01*
Y-139508D02*
X148689D01*
Y-55508D01*
X118189D02*
X148689D01*
X118189Y-144508D02*
X148689D01*
Y-228508D02*
Y-144508D01*
X118189Y-228508D02*
X148689D01*
X118189D02*
Y-144508D01*
Y-317508D02*
Y-233508D01*
Y-317508D02*
X148689D01*
Y-233508D01*
X118189D02*
X148689D01*
X118189Y-322508D02*
X148689D01*
Y-406508D02*
Y-322508D01*
X118189Y-406508D02*
X148689D01*
X118189D02*
Y-322508D01*
Y-495508D02*
Y-411508D01*
Y-495508D02*
X148689D01*
Y-411508D01*
X118189D02*
X148689D01*
X118189Y-500508D02*
X148689D01*
Y-584508D02*
Y-500508D01*
X118189Y-584508D02*
X148689D01*
X118189D02*
Y-500508D01*
Y-673508D02*
Y-589508D01*
Y-673508D02*
X148689D01*
Y-589508D01*
X118189D02*
X148689D01*
X118189Y-678508D02*
X148689D01*
Y-762508D02*
Y-678508D01*
X118189Y-762508D02*
X148689D01*
X118189D02*
Y-678508D01*
X151689Y-139508D02*
Y-55508D01*
Y-139508D02*
X182189D01*
Y-55508D01*
X151689D02*
X182189D01*
X151689Y-144508D02*
X182189D01*
Y-228508D02*
Y-144508D01*
X151689Y-228508D02*
X182189D01*
X151689D02*
Y-144508D01*
Y-317508D02*
Y-233508D01*
Y-317508D02*
X182189D01*
Y-233508D01*
X151689D02*
X182189D01*
X151689Y-322508D02*
X182189D01*
Y-406508D02*
Y-322508D01*
X151689Y-406508D02*
X182189D01*
X151689D02*
Y-322508D01*
Y-495508D02*
Y-411508D01*
Y-495508D02*
X182189D01*
Y-411508D01*
X151689D02*
X182189D01*
X151689Y-500508D02*
X182189D01*
Y-584508D02*
Y-500508D01*
X151689Y-584508D02*
X182189D01*
X151689D02*
Y-500508D01*
Y-673508D02*
Y-589508D01*
Y-673508D02*
X182189D01*
Y-589508D01*
X151689D02*
X182189D01*
X151689Y-678508D02*
X182189D01*
Y-762508D02*
Y-678508D01*
X151689Y-762508D02*
X182189D01*
X151689D02*
Y-678508D01*
X84689Y-139508D02*
Y-55508D01*
Y-139508D02*
X115189D01*
Y-55508D01*
X84689D02*
X115189D01*
X84689Y-144508D02*
X115189D01*
Y-228508D02*
Y-144508D01*
X84689Y-228508D02*
X115189D01*
X84689D02*
Y-144508D01*
Y-317508D02*
Y-233508D01*
Y-317508D02*
X115189D01*
Y-233508D01*
X84689D02*
X115189D01*
X84689Y-322508D02*
X115189D01*
Y-406508D02*
Y-322508D01*
X84689Y-406508D02*
X115189D01*
X84689D02*
Y-322508D01*
Y-495508D02*
Y-411508D01*
Y-495508D02*
X115189D01*
Y-411508D01*
X84689D02*
X115189D01*
X84689Y-500508D02*
X115189D01*
Y-584508D02*
Y-500508D01*
X84689Y-584508D02*
X115189D01*
X84689D02*
Y-500508D01*
Y-673508D02*
Y-589508D01*
Y-673508D02*
X115189D01*
Y-589508D01*
X84689D02*
X115189D01*
X84689Y-678508D02*
X115189D01*
Y-762508D02*
Y-678508D01*
X84689Y-762508D02*
X115189D01*
X84689D02*
Y-678508D01*
X51189Y-139508D02*
Y-55508D01*
Y-139508D02*
X81689D01*
Y-55508D01*
X51189D02*
X81689D01*
X51189Y-317508D02*
Y-233508D01*
Y-317508D02*
X81689D01*
Y-233508D01*
X51189D02*
X81689D01*
X51189Y-322508D02*
X81689D01*
Y-406508D02*
Y-322508D01*
X51189Y-406508D02*
X81689D01*
X51189D02*
Y-322508D01*
Y-495508D02*
Y-411508D01*
Y-495508D02*
X81689D01*
Y-411508D01*
X51189D02*
X81689D01*
X51189Y-500508D02*
X81689D01*
Y-584508D02*
Y-500508D01*
X51189Y-584508D02*
X81689D01*
X51189D02*
Y-500508D01*
Y-673508D02*
Y-589508D01*
Y-673508D02*
X81689D01*
Y-589508D01*
X51189D02*
X81689D01*
X51189Y-678508D02*
X81689D01*
Y-762508D02*
Y-678508D01*
X51189Y-762508D02*
X81689D01*
X51189D02*
Y-678508D01*
X286004Y10909D02*
X356504D01*
X286004Y-35728D02*
X356504D01*
X286004D02*
Y10909D01*
X356504Y-35728D02*
Y10909D01*
X68500Y-43500D02*
X65168D01*
X63502Y-41834D01*
X65168Y-40168D01*
X68500D01*
X66001D01*
Y-43500D01*
X64335Y-35169D02*
X63502Y-36002D01*
Y-37669D01*
X64335Y-38502D01*
X67667D01*
X68500Y-37669D01*
Y-36002D01*
X67667Y-35169D01*
X66001D01*
Y-36836D01*
X68500Y-33503D02*
X63502D01*
X68500Y-30171D01*
X63502D01*
Y-28505D02*
X68500D01*
Y-26006D01*
X67667Y-25173D01*
X64335D01*
X63502Y-26006D01*
Y-28505D01*
X86835Y-42535D02*
Y-39203D01*
X85169Y-40869D02*
X88501D01*
X89334Y-37537D02*
Y-35871D01*
Y-36704D01*
X84336D01*
X85169Y-37537D01*
X89334Y-30039D02*
Y-33371D01*
X86002Y-30039D01*
X85169D01*
X84336Y-30872D01*
Y-32538D01*
X85169Y-33371D01*
X84336Y-28373D02*
X87668D01*
X89334Y-26707D01*
X87668Y-25041D01*
X84336D01*
X111501Y-39000D02*
Y-35668D01*
X109835Y-37334D02*
X113167D01*
X109002Y-30669D02*
Y-34002D01*
X111501D01*
X110668Y-32335D01*
Y-31502D01*
X111501Y-30669D01*
X113167D01*
X114000Y-31502D01*
Y-33169D01*
X113167Y-34002D01*
X109002Y-29003D02*
X112334D01*
X114000Y-27337D01*
X112334Y-25671D01*
X109002D01*
X130002Y-38500D02*
X133334D01*
X135000Y-36834D01*
X133334Y-35168D01*
X130002D01*
Y-31002D02*
Y-32669D01*
X130835Y-33502D01*
X134167D01*
X135000Y-32669D01*
Y-31002D01*
X134167Y-30169D01*
X130835D01*
X130002Y-31002D01*
Y-28503D02*
X135000D01*
Y-25171D01*
X159000Y-37000D02*
X155668D01*
X154002Y-35334D01*
X155668Y-33668D01*
X159000D01*
X156501D01*
Y-37000D01*
Y-32002D02*
Y-28669D01*
X179500Y-37000D02*
X176168D01*
X174502Y-35334D01*
X176168Y-33668D01*
X179500D01*
X177001D01*
Y-37000D01*
Y-32002D02*
Y-28669D01*
X175335Y-30336D02*
X178667D01*
X198002Y-39000D02*
X201334D01*
X203000Y-37334D01*
X201334Y-35668D01*
X198002D01*
X198835Y-30669D02*
X198002Y-31502D01*
Y-33169D01*
X198835Y-34002D01*
X199668D01*
X200501Y-33169D01*
Y-31502D01*
X201334Y-30669D01*
X202167D01*
X203000Y-31502D01*
Y-33169D01*
X202167Y-34002D01*
X198835Y-29003D02*
X198002Y-28170D01*
Y-26504D01*
X198835Y-25671D01*
X199668D01*
X200501Y-26504D01*
Y-27337D01*
Y-26504D01*
X201334Y-25671D01*
X202167D01*
X203000Y-26504D01*
Y-28170D01*
X202167Y-29003D01*
X219002Y-39000D02*
X222334D01*
X224000Y-37334D01*
X222334Y-35668D01*
X219002D01*
X219835Y-30669D02*
X219002Y-31502D01*
Y-33169D01*
X219835Y-34002D01*
X220668D01*
X221501Y-33169D01*
Y-31502D01*
X222334Y-30669D01*
X223167D01*
X224000Y-31502D01*
Y-33169D01*
X223167Y-34002D01*
X224000Y-25671D02*
Y-29003D01*
X220668Y-25671D01*
X219835D01*
X219002Y-26504D01*
Y-28170D01*
X219835Y-29003D01*
X242502Y-38500D02*
X245834D01*
X247500Y-36834D01*
X245834Y-35168D01*
X242502D01*
X243335Y-30169D02*
X242502Y-31002D01*
Y-32669D01*
X243335Y-33502D01*
X244168D01*
X245001Y-32669D01*
Y-31002D01*
X245834Y-30169D01*
X246667D01*
X247500Y-31002D01*
Y-32669D01*
X246667Y-33502D01*
X247500Y-28503D02*
Y-26837D01*
Y-27670D01*
X242502D01*
X243335Y-28503D01*
X264835Y-35668D02*
X264002Y-36501D01*
Y-38167D01*
X264835Y-39000D01*
X268167D01*
X269000Y-38167D01*
Y-36501D01*
X268167Y-35668D01*
X266501D01*
Y-37334D01*
X269000Y-34002D02*
X264002D01*
X269000Y-30669D01*
X264002D01*
Y-29003D02*
X269000D01*
Y-26504D01*
X268167Y-25671D01*
X264835D01*
X264002Y-26504D01*
Y-29003D01*
D11*
X7752Y-171661D02*
X7014Y-171235D01*
Y-172088D01*
X7752Y-171661D01*
X6941Y-48162D02*
X6203Y-47735D01*
Y-48588D01*
X6941Y-48162D01*
Y-109161D02*
X6203Y-108735D01*
Y-109588D01*
X6941Y-109161D01*
D12*
X18480Y-175776D02*
X18036Y-174852D01*
X17036Y-174624D01*
X16235Y-175263D01*
Y-176288D01*
X17036Y-176927D01*
X18036Y-176699D01*
X18480Y-175776D01*
X17669Y-52276D02*
X17225Y-51352D01*
X16225Y-51124D01*
X15424Y-51763D01*
Y-52788D01*
X16225Y-53427D01*
X17225Y-53199D01*
X17669Y-52276D01*
Y-113276D02*
X17225Y-112352D01*
X16225Y-112124D01*
X15424Y-112763D01*
Y-113788D01*
X16225Y-114427D01*
X17225Y-114199D01*
X17669Y-113276D01*
D13*
X9744Y-729000D02*
X10500D01*
X9744Y-740906D02*
Y-729000D01*
Y-740500D02*
X11500D01*
X13500D02*
X15256D01*
Y-740906D02*
Y-729000D01*
X14500D02*
X15256D01*
X9744Y-741000D02*
Y-740500D01*
Y-741000D02*
X11500D01*
Y-740500D01*
X15256Y-741000D02*
Y-740500D01*
X13500Y-741000D02*
X15256D01*
X13500D02*
Y-740500D01*
X9744Y-735000D02*
X11122D01*
X13878D02*
X15256D01*
X16744Y-729047D02*
X17500D01*
X16744Y-740953D02*
Y-729047D01*
Y-740547D02*
X18500D01*
X20500D02*
X22256D01*
Y-740953D02*
Y-729047D01*
X21500D02*
X22256D01*
X16744Y-741047D02*
Y-740547D01*
Y-741047D02*
X18500D01*
Y-740547D01*
X22256Y-741047D02*
Y-740547D01*
X20500Y-741047D02*
X22256D01*
X20500D02*
Y-740547D01*
X16744Y-735047D02*
X18122D01*
X20878D02*
X22256D01*
X23744Y-729000D02*
X24500D01*
X23744Y-740906D02*
Y-729000D01*
Y-740500D02*
X25500D01*
X27500D02*
X29256D01*
Y-740906D02*
Y-729000D01*
X28500D02*
X29256D01*
X23744Y-741000D02*
Y-740500D01*
Y-741000D02*
X25500D01*
Y-740500D01*
X29256Y-741000D02*
Y-740500D01*
X27500Y-741000D02*
X29256D01*
X27500D02*
Y-740500D01*
X23744Y-735000D02*
X25122D01*
X27878D02*
X29256D01*
X95531Y-22535D02*
Y9354D01*
X56161D02*
X95531D01*
X56161Y-22535D02*
Y9354D01*
Y-22535D02*
X95531D01*
X56161Y5220D02*
X95531D01*
X140532Y-22535D02*
Y9354D01*
X101161D02*
X140532D01*
X101161Y-22535D02*
Y9354D01*
Y-22535D02*
X140532D01*
X101161Y5220D02*
X140532D01*
X185531Y-22535D02*
Y9354D01*
X146161D02*
X185531D01*
X146161Y-22535D02*
Y9354D01*
Y-22535D02*
X185531D01*
X146161Y5220D02*
X185531D01*
X230532Y-22535D02*
Y9354D01*
X191161D02*
X230532D01*
X191161Y-22535D02*
Y9354D01*
Y-22535D02*
X230532D01*
X191161Y5220D02*
X230532D01*
X275217Y-22535D02*
Y9354D01*
X235846D02*
X275217D01*
X235846Y-22535D02*
Y9354D01*
Y-22535D02*
X275217D01*
X235846Y5220D02*
X275217D01*
D14*
X12500Y-735689D02*
X13484Y-734311D01*
X12500D02*
X13484D01*
X12500Y-735689D02*
X13386D01*
X11614D02*
X12500D01*
X11516Y-734311D02*
X12500D01*
X11516D02*
X12500Y-735689D01*
X19500Y-735736D02*
X20484Y-734358D01*
X19500D02*
X20484D01*
X19500Y-735736D02*
X20386D01*
X18614D02*
X19500D01*
X18516Y-734358D02*
X19500D01*
X18516D02*
X19500Y-735736D01*
X26500Y-735689D02*
X27484Y-734311D01*
X26500D02*
X27484D01*
X26500Y-735689D02*
X27386D01*
X25614D02*
X26500D01*
X25516Y-734311D02*
X26500D01*
X25516D02*
X26500Y-735689D01*
D15*
X13362Y-213177D02*
Y-171839D01*
X27536Y-213177D02*
Y-171839D01*
X13362D02*
X27536D01*
X13362Y-213177D02*
X27536D01*
X-9657Y-443886D02*
X3335D01*
Y-382413D01*
X-9657Y-443886D02*
Y-382413D01*
X3335D01*
X-33823Y-443886D02*
X-9665D01*
X-33823Y-381595D02*
X-9665D01*
X-9657Y-320123D02*
X3335D01*
X-9657Y-381595D02*
Y-320123D01*
X3335Y-381595D02*
Y-320123D01*
X-9657Y-381595D02*
X3335D01*
X12551Y-89677D02*
X26724D01*
X12551Y-48339D02*
X26724D01*
Y-89677D02*
Y-48339D01*
X12551Y-89677D02*
Y-48339D01*
Y-150677D02*
X26724D01*
X12551Y-109339D02*
X26724D01*
Y-150677D02*
Y-109339D01*
X12551Y-150677D02*
Y-109339D01*
X13701Y11130D02*
X52677D01*
Y-34146D02*
Y11130D01*
X52665Y-34146D02*
X52677D01*
X13701D02*
X52677D01*
X13701D02*
Y11130D01*
D16*
X24500Y-556801D02*
Y-559467D01*
X25033Y-560000D01*
X26100D01*
X26633Y-559467D01*
Y-556801D01*
X27699D02*
X29832D01*
Y-557334D01*
X27699Y-559467D01*
Y-560000D01*
X3000Y-509801D02*
Y-512467D01*
X3533Y-513000D01*
X4600D01*
X5133Y-512467D01*
Y-509801D01*
X8332D02*
X7265Y-510334D01*
X6199Y-511401D01*
Y-512467D01*
X6732Y-513000D01*
X7798D01*
X8332Y-512467D01*
Y-511934D01*
X7798Y-511401D01*
X6199D01*
X-5843Y-642333D02*
Y-639134D01*
X-4243D01*
X-3710Y-639668D01*
Y-640734D01*
X-4243Y-641267D01*
X-5843D01*
X-4776D02*
X-3710Y-642333D01*
X-511D02*
X-2644D01*
X-511Y-640201D01*
Y-639668D01*
X-1044Y-639134D01*
X-2110D01*
X-2644Y-639668D01*
X555Y-642333D02*
X1622D01*
X1089D01*
Y-639134D01*
X555Y-639668D01*
X-6342Y-637333D02*
Y-634134D01*
X-4743D01*
X-4210Y-634667D01*
Y-635734D01*
X-4743Y-636267D01*
X-6342D01*
X-5276D02*
X-4210Y-637333D01*
X-1011D02*
X-3144D01*
X-1011Y-635201D01*
Y-634667D01*
X-1544Y-634134D01*
X-2610D01*
X-3144Y-634667D01*
X55D02*
X589Y-634134D01*
X1655D01*
X2188Y-634667D01*
Y-636800D01*
X1655Y-637333D01*
X589D01*
X55Y-636800D01*
Y-634667D01*
X-6342Y-632333D02*
Y-629134D01*
X-4743D01*
X-4210Y-629668D01*
Y-630734D01*
X-4743Y-631267D01*
X-6342D01*
X-5276D02*
X-4210Y-632333D01*
X-3144D02*
X-2077D01*
X-2610D01*
Y-629134D01*
X-3144Y-629668D01*
X-478Y-631800D02*
X55Y-632333D01*
X1122D01*
X1655Y-631800D01*
Y-629668D01*
X1122Y-629134D01*
X55D01*
X-478Y-629668D01*
Y-630201D01*
X55Y-630734D01*
X1655D01*
X-6342Y-627333D02*
Y-624134D01*
X-4743D01*
X-4210Y-624668D01*
Y-625734D01*
X-4743Y-626267D01*
X-6342D01*
X-5276D02*
X-4210Y-627333D01*
X-3144D02*
X-2077D01*
X-2610D01*
Y-624134D01*
X-3144Y-624668D01*
X-478D02*
X55Y-624134D01*
X1122D01*
X1655Y-624668D01*
Y-625201D01*
X1122Y-625734D01*
X1655Y-626267D01*
Y-626800D01*
X1122Y-627333D01*
X55D01*
X-478Y-626800D01*
Y-626267D01*
X55Y-625734D01*
X-478Y-625201D01*
Y-624668D01*
X55Y-625734D02*
X1122D01*
X-6342Y-622333D02*
Y-619134D01*
X-4743D01*
X-4210Y-619667D01*
Y-620734D01*
X-4743Y-621267D01*
X-6342D01*
X-5276D02*
X-4210Y-622333D01*
X-3144D02*
X-2077D01*
X-2610D01*
Y-619134D01*
X-3144Y-619667D01*
X-478Y-619134D02*
X1655D01*
Y-619667D01*
X-478Y-621800D01*
Y-622333D01*
X-6342Y-616833D02*
Y-613634D01*
X-4743D01*
X-4210Y-614167D01*
Y-615234D01*
X-4743Y-615767D01*
X-6342D01*
X-5276D02*
X-4210Y-616833D01*
X-3144D02*
X-2077D01*
X-2610D01*
Y-613634D01*
X-3144Y-614167D01*
X1655Y-613634D02*
X589Y-614167D01*
X-478Y-615234D01*
Y-616300D01*
X55Y-616833D01*
X1122D01*
X1655Y-616300D01*
Y-615767D01*
X1122Y-615234D01*
X-478D01*
X-6842Y-611833D02*
Y-608634D01*
X-5243D01*
X-4710Y-609167D01*
Y-610234D01*
X-5243Y-610767D01*
X-6842D01*
X-5776D02*
X-4710Y-611833D01*
X-3644D02*
X-2577D01*
X-3110D01*
Y-608634D01*
X-3644Y-609167D01*
X1155Y-608634D02*
X-978D01*
Y-610234D01*
X89Y-609701D01*
X622D01*
X1155Y-610234D01*
Y-611300D01*
X622Y-611833D01*
X-445D01*
X-978Y-611300D01*
X16000Y-505000D02*
Y-501801D01*
X17600D01*
X18133Y-502334D01*
Y-503401D01*
X17600Y-503934D01*
X16000D01*
X17066D02*
X18133Y-505000D01*
X19199D02*
X20265D01*
X19732D01*
Y-501801D01*
X19199Y-502334D01*
X23464Y-505000D02*
Y-501801D01*
X21865Y-503401D01*
X23997D01*
X-4500Y-500000D02*
X-7699D01*
Y-498400D01*
X-7166Y-497867D01*
X-6100D01*
X-5566Y-498400D01*
Y-500000D01*
Y-498934D02*
X-4500Y-497867D01*
Y-496801D02*
Y-495735D01*
Y-496268D01*
X-7699D01*
X-7166Y-496801D01*
Y-494135D02*
X-7699Y-493602D01*
Y-492536D01*
X-7166Y-492003D01*
X-5033D01*
X-4500Y-492536D01*
Y-493602D01*
X-5033Y-494135D01*
X-7166D01*
X14500Y-759500D02*
X11301D01*
Y-757900D01*
X11834Y-757367D01*
X12900D01*
X13434Y-757900D01*
Y-759500D01*
Y-758434D02*
X14500Y-757367D01*
X13967Y-756301D02*
X14500Y-755768D01*
Y-754702D01*
X13967Y-754168D01*
X11834D01*
X11301Y-754702D01*
Y-755768D01*
X11834Y-756301D01*
X12367D01*
X12900Y-755768D01*
Y-754168D01*
X21000Y-759500D02*
X17801D01*
Y-757900D01*
X18334Y-757367D01*
X19400D01*
X19934Y-757900D01*
Y-759500D01*
Y-758434D02*
X21000Y-757367D01*
X18334Y-756301D02*
X17801Y-755768D01*
Y-754702D01*
X18334Y-754168D01*
X18867D01*
X19400Y-754702D01*
X19934Y-754168D01*
X20467D01*
X21000Y-754702D01*
Y-755768D01*
X20467Y-756301D01*
X19934D01*
X19400Y-755768D01*
X18867Y-756301D01*
X18334D01*
X19400Y-755768D02*
Y-754702D01*
X28500Y-759500D02*
X25301D01*
Y-757900D01*
X25834Y-757367D01*
X26901D01*
X27434Y-757900D01*
Y-759500D01*
Y-758434D02*
X28500Y-757367D01*
X25301Y-756301D02*
Y-754168D01*
X25834D01*
X27967Y-756301D01*
X28500D01*
X10801Y-727500D02*
X14000D01*
Y-725901D01*
X13467Y-725367D01*
X11334D01*
X10801Y-725901D01*
Y-727500D01*
X14000Y-722702D02*
X10801D01*
X12400Y-724301D01*
Y-722168D01*
X17801Y-727547D02*
X21000D01*
Y-725948D01*
X20467Y-725415D01*
X18334D01*
X17801Y-725948D01*
Y-727547D01*
X18334Y-724348D02*
X17801Y-723815D01*
Y-722749D01*
X18334Y-722216D01*
X18867D01*
X19400Y-722749D01*
Y-723282D01*
Y-722749D01*
X19934Y-722216D01*
X20467D01*
X21000Y-722749D01*
Y-723815D01*
X20467Y-724348D01*
X24801Y-727547D02*
X28000D01*
Y-725948D01*
X27467Y-725415D01*
X25334D01*
X24801Y-725948D01*
Y-727547D01*
X28000Y-722216D02*
Y-724348D01*
X25867Y-722216D01*
X25334D01*
X24801Y-722749D01*
Y-723815D01*
X25334Y-724348D01*
X24633Y-158334D02*
X24100Y-157801D01*
X23033D01*
X22500Y-158334D01*
Y-160467D01*
X23033Y-161000D01*
X24100D01*
X24633Y-160467D01*
X25699Y-161000D02*
X26765D01*
X26232D01*
Y-157801D01*
X25699Y-158334D01*
X29964Y-161000D02*
Y-157801D01*
X28365Y-159400D01*
X30497D01*
X41133Y-72834D02*
X40600Y-72301D01*
X39533D01*
X39000Y-72834D01*
Y-74967D01*
X39533Y-75500D01*
X40600D01*
X41133Y-74967D01*
X42199Y-75500D02*
X43265D01*
X42732D01*
Y-72301D01*
X42199Y-72834D01*
X44865D02*
X45398Y-72301D01*
X46464D01*
X46997Y-72834D01*
Y-73367D01*
X46464Y-73901D01*
X45931D01*
X46464D01*
X46997Y-74434D01*
Y-74967D01*
X46464Y-75500D01*
X45398D01*
X44865Y-74967D01*
X26834Y-103367D02*
X26301Y-103901D01*
Y-104967D01*
X26834Y-105500D01*
X28967D01*
X29500Y-104967D01*
Y-103901D01*
X28967Y-103367D01*
X29500Y-102301D02*
Y-101235D01*
Y-101768D01*
X26301D01*
X26834Y-102301D01*
X29500Y-97503D02*
Y-99635D01*
X27367Y-97503D01*
X26834D01*
X26301Y-98036D01*
Y-99102D01*
X26834Y-99635D01*
X-166Y-159867D02*
X-699Y-160400D01*
Y-161467D01*
X-166Y-162000D01*
X1967D01*
X2500Y-161467D01*
Y-160400D01*
X1967Y-159867D01*
X2500Y-158801D02*
Y-157735D01*
Y-158268D01*
X-699D01*
X-166Y-158801D01*
X2500Y-156135D02*
Y-155069D01*
Y-155602D01*
X-699D01*
X-166Y-156135D01*
X34834Y-42867D02*
X34301Y-43400D01*
Y-44467D01*
X34834Y-45000D01*
X36967D01*
X37500Y-44467D01*
Y-43400D01*
X36967Y-42867D01*
X37500Y-41801D02*
Y-40735D01*
Y-41268D01*
X34301D01*
X34834Y-41801D01*
Y-39135D02*
X34301Y-38602D01*
Y-37536D01*
X34834Y-37003D01*
X36967D01*
X37500Y-37536D01*
Y-38602D01*
X36967Y-39135D01*
X34834D01*
X54133Y-48334D02*
X53600Y-47801D01*
X52533D01*
X52000Y-48334D01*
Y-50467D01*
X52533Y-51000D01*
X53600D01*
X54133Y-50467D01*
X55199D02*
X55732Y-51000D01*
X56798D01*
X57332Y-50467D01*
Y-48334D01*
X56798Y-47801D01*
X55732D01*
X55199Y-48334D01*
Y-48867D01*
X55732Y-49400D01*
X57332D01*
X52742Y-159591D02*
X55941D01*
X54875D01*
X52742Y-157458D01*
X54342Y-159057D01*
X55941Y-157458D01*
X52742Y-156392D02*
Y-154259D01*
X53275D01*
X55408Y-156392D01*
X55941D01*
X56474Y-153193D02*
Y-151060D01*
X55941Y-149994D02*
X52742D01*
Y-148394D01*
X53275Y-147861D01*
X54342D01*
X54875Y-148394D01*
Y-149994D01*
X55941Y-144662D02*
Y-146795D01*
X53808Y-144662D01*
X53275D01*
X52742Y-145195D01*
Y-146262D01*
X53275Y-146795D01*
X75722Y-15492D02*
X74655D01*
X75188D01*
Y-18157D01*
X74655Y-18691D01*
X74122D01*
X73589Y-18157D01*
X78921Y-15492D02*
X76788D01*
Y-17091D01*
X77854Y-16558D01*
X78387D01*
X78921Y-17091D01*
Y-18157D01*
X78387Y-18691D01*
X77321D01*
X76788Y-18157D01*
X120722Y-15492D02*
X119655D01*
X120188D01*
Y-18157D01*
X119655Y-18691D01*
X119122D01*
X118589Y-18157D01*
X123387Y-18691D02*
Y-15492D01*
X121788Y-17091D01*
X123921D01*
X165679Y-15492D02*
X164613D01*
X165146D01*
Y-18157D01*
X164613Y-18691D01*
X164080D01*
X163547Y-18157D01*
X166745Y-16025D02*
X167279Y-15492D01*
X168345D01*
X168878Y-16025D01*
Y-16558D01*
X168345Y-17091D01*
X167812D01*
X168345D01*
X168878Y-17624D01*
Y-18157D01*
X168345Y-18691D01*
X167279D01*
X166745Y-18157D01*
X209979Y-15892D02*
X208913D01*
X209446D01*
Y-18557D01*
X208913Y-19091D01*
X208380D01*
X207846Y-18557D01*
X213178Y-19091D02*
X211045D01*
X213178Y-16958D01*
Y-16425D01*
X212645Y-15892D01*
X211579D01*
X211045Y-16425D01*
X255664Y-14892D02*
X254598D01*
X255131D01*
Y-17557D01*
X254598Y-18091D01*
X254065D01*
X253532Y-17557D01*
X256731Y-18091D02*
X257797D01*
X257264D01*
Y-14892D01*
X256731Y-15425D01*
X-3010Y-355458D02*
Y-356524D01*
Y-355991D01*
X-344D01*
X189Y-356524D01*
Y-357057D01*
X-344Y-357591D01*
Y-354392D02*
X189Y-353858D01*
Y-352792D01*
X-344Y-352259D01*
X-2477D01*
X-3010Y-352792D01*
Y-353858D01*
X-2477Y-354392D01*
X-1944D01*
X-1410Y-353858D01*
Y-352259D01*
X-3010Y-416458D02*
Y-417524D01*
Y-416991D01*
X-344D01*
X189Y-417524D01*
Y-418057D01*
X-344Y-418591D01*
X-2477Y-415392D02*
X-3010Y-414858D01*
Y-413792D01*
X-2477Y-413259D01*
X-1944D01*
X-1410Y-413792D01*
X-877Y-413259D01*
X-344D01*
X189Y-413792D01*
Y-414858D01*
X-344Y-415392D01*
X-877D01*
X-1410Y-414858D01*
X-1944Y-415392D01*
X-2477D01*
X-1410Y-414858D02*
Y-413792D01*
X4000Y-42301D02*
Y-44967D01*
X4533Y-45500D01*
X5599D01*
X6133Y-44967D01*
Y-42301D01*
X8798Y-45500D02*
Y-42301D01*
X7199Y-43900D01*
X9332D01*
X9000Y-166801D02*
Y-169467D01*
X9533Y-170000D01*
X10599D01*
X11133Y-169467D01*
Y-166801D01*
X12199Y-167334D02*
X12732Y-166801D01*
X13798D01*
X14332Y-167334D01*
Y-167867D01*
X13798Y-168401D01*
X13265D01*
X13798D01*
X14332Y-168934D01*
Y-169467D01*
X13798Y-170000D01*
X12732D01*
X12199Y-169467D01*
X3500Y-102701D02*
Y-105367D01*
X4033Y-105900D01*
X5099D01*
X5633Y-105367D01*
Y-102701D01*
X8832Y-105900D02*
X6699D01*
X8832Y-103767D01*
Y-103234D01*
X8298Y-102701D01*
X7232D01*
X6699Y-103234D01*
X52742Y-693591D02*
X55941D01*
X54875D01*
X52742Y-691458D01*
X54342Y-693057D01*
X55941Y-691458D01*
X52742Y-690392D02*
Y-688259D01*
X53275D01*
X55408Y-690392D01*
X55941D01*
X56474Y-687193D02*
Y-685060D01*
X55941Y-683994D02*
X52742D01*
Y-682394D01*
X53275Y-681861D01*
X54342D01*
X54875Y-682394D01*
Y-683994D01*
X53275Y-680795D02*
X52742Y-680262D01*
Y-679195D01*
X53275Y-678662D01*
X53808D01*
X54342Y-679195D01*
X54875Y-678662D01*
X55408D01*
X55941Y-679195D01*
Y-680262D01*
X55408Y-680795D01*
X54875D01*
X54342Y-680262D01*
X53808Y-680795D01*
X53275D01*
X54342Y-680262D02*
Y-679195D01*
X52742Y-604591D02*
X55941D01*
X54875D01*
X52742Y-602458D01*
X54342Y-604057D01*
X55941Y-602458D01*
X52742Y-601392D02*
Y-599259D01*
X53275D01*
X55408Y-601392D01*
X55941D01*
X56474Y-598193D02*
Y-596060D01*
X55941Y-594994D02*
X52742D01*
Y-593394D01*
X53275Y-592861D01*
X54342D01*
X54875Y-593394D01*
Y-594994D01*
X52742Y-591795D02*
Y-589662D01*
X53275D01*
X55408Y-591795D01*
X55941D01*
X52742Y-515591D02*
X55941D01*
X54875D01*
X52742Y-513458D01*
X54342Y-515057D01*
X55941Y-513458D01*
X52742Y-512392D02*
Y-510259D01*
X53275D01*
X55408Y-512392D01*
X55941D01*
X56474Y-509193D02*
Y-507060D01*
X55941Y-505994D02*
X52742D01*
Y-504394D01*
X53275Y-503861D01*
X54342D01*
X54875Y-504394D01*
Y-505994D01*
X52742Y-500662D02*
X53275Y-501728D01*
X54342Y-502795D01*
X55408D01*
X55941Y-502262D01*
Y-501195D01*
X55408Y-500662D01*
X54875D01*
X54342Y-501195D01*
Y-502795D01*
X52742Y-426591D02*
X55941D01*
X54875D01*
X52742Y-424458D01*
X54342Y-426057D01*
X55941Y-424458D01*
X52742Y-423392D02*
Y-421259D01*
X53275D01*
X55408Y-423392D01*
X55941D01*
X56474Y-420193D02*
Y-418060D01*
X55941Y-416994D02*
X52742D01*
Y-415394D01*
X53275Y-414861D01*
X54342D01*
X54875Y-415394D01*
Y-416994D01*
X52742Y-411662D02*
Y-413795D01*
X54342D01*
X53808Y-412728D01*
Y-412195D01*
X54342Y-411662D01*
X55408D01*
X55941Y-412195D01*
Y-413262D01*
X55408Y-413795D01*
X52742Y-337591D02*
X55941D01*
X54875D01*
X52742Y-335458D01*
X54342Y-337057D01*
X55941Y-335458D01*
X52742Y-334392D02*
Y-332259D01*
X53275D01*
X55408Y-334392D01*
X55941D01*
X56474Y-331193D02*
Y-329060D01*
X55941Y-327994D02*
X52742D01*
Y-326394D01*
X53275Y-325861D01*
X54342D01*
X54875Y-326394D01*
Y-327994D01*
X55941Y-323195D02*
X52742D01*
X54342Y-324795D01*
Y-322662D01*
X52742Y-248591D02*
X55941D01*
X54875D01*
X52742Y-246458D01*
X54342Y-248057D01*
X55941Y-246458D01*
X52742Y-245392D02*
Y-243259D01*
X53275D01*
X55408Y-245392D01*
X55941D01*
X56474Y-242193D02*
Y-240060D01*
X55941Y-238994D02*
X52742D01*
Y-237394D01*
X53275Y-236861D01*
X54342D01*
X54875Y-237394D01*
Y-238994D01*
X53275Y-235795D02*
X52742Y-235262D01*
Y-234195D01*
X53275Y-233662D01*
X53808D01*
X54342Y-234195D01*
Y-234728D01*
Y-234195D01*
X54875Y-233662D01*
X55408D01*
X55941Y-234195D01*
Y-235262D01*
X55408Y-235795D01*
X52742Y-70591D02*
X55941D01*
X54875D01*
X52742Y-68458D01*
X54342Y-70057D01*
X55941Y-68458D01*
X52742Y-67392D02*
Y-65259D01*
X53275D01*
X55408Y-67392D01*
X55941D01*
X56474Y-64193D02*
Y-62060D01*
X55941Y-60994D02*
X52742D01*
Y-59394D01*
X53275Y-58861D01*
X54342D01*
X54875Y-59394D01*
Y-60994D01*
X55941Y-57795D02*
Y-56728D01*
Y-57262D01*
X52742D01*
X53275Y-57795D01*
X86242Y-694091D02*
X89441D01*
X88375D01*
X86242Y-691958D01*
X87841Y-693557D01*
X89441Y-691958D01*
X86242Y-688759D02*
X86775Y-689825D01*
X87841Y-690892D01*
X88908D01*
X89441Y-690358D01*
Y-689292D01*
X88908Y-688759D01*
X88375D01*
X87841Y-689292D01*
Y-690892D01*
X89974Y-687693D02*
Y-685560D01*
X89441Y-684494D02*
X86242D01*
Y-682894D01*
X86775Y-682361D01*
X87841D01*
X88375Y-682894D01*
Y-684494D01*
X86775Y-681295D02*
X86242Y-680762D01*
Y-679695D01*
X86775Y-679162D01*
X87308D01*
X87841Y-679695D01*
X88375Y-679162D01*
X88908D01*
X89441Y-679695D01*
Y-680762D01*
X88908Y-681295D01*
X88375D01*
X87841Y-680762D01*
X87308Y-681295D01*
X86775D01*
X87841Y-680762D02*
Y-679695D01*
X86242Y-605091D02*
X89441D01*
X88375D01*
X86242Y-602958D01*
X87841Y-604557D01*
X89441Y-602958D01*
X86242Y-599759D02*
X86775Y-600825D01*
X87841Y-601892D01*
X88908D01*
X89441Y-601359D01*
Y-600292D01*
X88908Y-599759D01*
X88375D01*
X87841Y-600292D01*
Y-601892D01*
X89974Y-598693D02*
Y-596560D01*
X89441Y-595494D02*
X86242D01*
Y-593894D01*
X86775Y-593361D01*
X87841D01*
X88375Y-593894D01*
Y-595494D01*
X86242Y-592295D02*
Y-590162D01*
X86775D01*
X88908Y-592295D01*
X89441D01*
X86242Y-516091D02*
X89441D01*
X88375D01*
X86242Y-513958D01*
X87841Y-515557D01*
X89441Y-513958D01*
X86242Y-510759D02*
X86775Y-511825D01*
X87841Y-512892D01*
X88908D01*
X89441Y-512359D01*
Y-511292D01*
X88908Y-510759D01*
X88375D01*
X87841Y-511292D01*
Y-512892D01*
X89974Y-509693D02*
Y-507560D01*
X89441Y-506494D02*
X86242D01*
Y-504894D01*
X86775Y-504361D01*
X87841D01*
X88375Y-504894D01*
Y-506494D01*
X86242Y-501162D02*
X86775Y-502228D01*
X87841Y-503295D01*
X88908D01*
X89441Y-502762D01*
Y-501695D01*
X88908Y-501162D01*
X88375D01*
X87841Y-501695D01*
Y-503295D01*
X86242Y-427091D02*
X89441D01*
X88375D01*
X86242Y-424958D01*
X87841Y-426557D01*
X89441Y-424958D01*
X86242Y-421759D02*
X86775Y-422825D01*
X87841Y-423892D01*
X88908D01*
X89441Y-423358D01*
Y-422292D01*
X88908Y-421759D01*
X88375D01*
X87841Y-422292D01*
Y-423892D01*
X89974Y-420693D02*
Y-418560D01*
X89441Y-417494D02*
X86242D01*
Y-415894D01*
X86775Y-415361D01*
X87841D01*
X88375Y-415894D01*
Y-417494D01*
X86242Y-412162D02*
Y-414295D01*
X87841D01*
X87308Y-413228D01*
Y-412695D01*
X87841Y-412162D01*
X88908D01*
X89441Y-412695D01*
Y-413762D01*
X88908Y-414295D01*
X86242Y-338091D02*
X89441D01*
X88375D01*
X86242Y-335958D01*
X87841Y-337557D01*
X89441Y-335958D01*
X86242Y-332759D02*
X86775Y-333825D01*
X87841Y-334892D01*
X88908D01*
X89441Y-334359D01*
Y-333292D01*
X88908Y-332759D01*
X88375D01*
X87841Y-333292D01*
Y-334892D01*
X89974Y-331693D02*
Y-329560D01*
X89441Y-328494D02*
X86242D01*
Y-326894D01*
X86775Y-326361D01*
X87841D01*
X88375Y-326894D01*
Y-328494D01*
X89441Y-323695D02*
X86242D01*
X87841Y-325295D01*
Y-323162D01*
X86242Y-249091D02*
X89441D01*
X88375D01*
X86242Y-246958D01*
X87841Y-248557D01*
X89441Y-246958D01*
X86242Y-243759D02*
X86775Y-244825D01*
X87841Y-245892D01*
X88908D01*
X89441Y-245358D01*
Y-244292D01*
X88908Y-243759D01*
X88375D01*
X87841Y-244292D01*
Y-245892D01*
X89974Y-242693D02*
Y-240560D01*
X89441Y-239494D02*
X86242D01*
Y-237894D01*
X86775Y-237361D01*
X87841D01*
X88375Y-237894D01*
Y-239494D01*
X86775Y-236295D02*
X86242Y-235762D01*
Y-234695D01*
X86775Y-234162D01*
X87308D01*
X87841Y-234695D01*
Y-235228D01*
Y-234695D01*
X88375Y-234162D01*
X88908D01*
X89441Y-234695D01*
Y-235762D01*
X88908Y-236295D01*
X86242Y-160091D02*
X89441D01*
X88375D01*
X86242Y-157958D01*
X87841Y-159557D01*
X89441Y-157958D01*
X86242Y-154759D02*
X86775Y-155825D01*
X87841Y-156892D01*
X88908D01*
X89441Y-156359D01*
Y-155292D01*
X88908Y-154759D01*
X88375D01*
X87841Y-155292D01*
Y-156892D01*
X89974Y-153693D02*
Y-151560D01*
X89441Y-150494D02*
X86242D01*
Y-148894D01*
X86775Y-148361D01*
X87841D01*
X88375Y-148894D01*
Y-150494D01*
X89441Y-145162D02*
Y-147295D01*
X87308Y-145162D01*
X86775D01*
X86242Y-145695D01*
Y-146762D01*
X86775Y-147295D01*
X86242Y-71091D02*
X89441D01*
X88375D01*
X86242Y-68958D01*
X87841Y-70557D01*
X89441Y-68958D01*
X86242Y-65759D02*
X86775Y-66825D01*
X87841Y-67892D01*
X88908D01*
X89441Y-67358D01*
Y-66292D01*
X88908Y-65759D01*
X88375D01*
X87841Y-66292D01*
Y-67892D01*
X89974Y-64693D02*
Y-62560D01*
X89441Y-61494D02*
X86242D01*
Y-59894D01*
X86775Y-59361D01*
X87841D01*
X88375Y-59894D01*
Y-61494D01*
X89441Y-58295D02*
Y-57228D01*
Y-57762D01*
X86242D01*
X86775Y-58295D01*
X153742Y-694091D02*
X156941D01*
X155875D01*
X153742Y-691958D01*
X155341Y-693557D01*
X156941Y-691958D01*
X153742Y-688759D02*
Y-690892D01*
X155341D01*
X154808Y-689825D01*
Y-689292D01*
X155341Y-688759D01*
X156408D01*
X156941Y-689292D01*
Y-690358D01*
X156408Y-690892D01*
X157474Y-687693D02*
Y-685560D01*
X156941Y-684494D02*
X153742D01*
Y-682894D01*
X154275Y-682361D01*
X155341D01*
X155875Y-682894D01*
Y-684494D01*
X154275Y-681295D02*
X153742Y-680762D01*
Y-679695D01*
X154275Y-679162D01*
X154808D01*
X155341Y-679695D01*
X155875Y-679162D01*
X156408D01*
X156941Y-679695D01*
Y-680762D01*
X156408Y-681295D01*
X155875D01*
X155341Y-680762D01*
X154808Y-681295D01*
X154275D01*
X155341Y-680762D02*
Y-679695D01*
X153742Y-605091D02*
X156941D01*
X155875D01*
X153742Y-602958D01*
X155341Y-604557D01*
X156941Y-602958D01*
X153742Y-599759D02*
Y-601892D01*
X155341D01*
X154808Y-600825D01*
Y-600292D01*
X155341Y-599759D01*
X156408D01*
X156941Y-600292D01*
Y-601359D01*
X156408Y-601892D01*
X157474Y-598693D02*
Y-596560D01*
X156941Y-595494D02*
X153742D01*
Y-593894D01*
X154275Y-593361D01*
X155341D01*
X155875Y-593894D01*
Y-595494D01*
X153742Y-592295D02*
Y-590162D01*
X154275D01*
X156408Y-592295D01*
X156941D01*
X153742Y-516091D02*
X156941D01*
X155875D01*
X153742Y-513958D01*
X155341Y-515557D01*
X156941Y-513958D01*
X153742Y-510759D02*
Y-512892D01*
X155341D01*
X154808Y-511825D01*
Y-511292D01*
X155341Y-510759D01*
X156408D01*
X156941Y-511292D01*
Y-512359D01*
X156408Y-512892D01*
X157474Y-509693D02*
Y-507560D01*
X156941Y-506494D02*
X153742D01*
Y-504894D01*
X154275Y-504361D01*
X155341D01*
X155875Y-504894D01*
Y-506494D01*
X153742Y-501162D02*
X154275Y-502228D01*
X155341Y-503295D01*
X156408D01*
X156941Y-502762D01*
Y-501695D01*
X156408Y-501162D01*
X155875D01*
X155341Y-501695D01*
Y-503295D01*
X153742Y-427091D02*
X156941D01*
X155875D01*
X153742Y-424958D01*
X155341Y-426557D01*
X156941Y-424958D01*
X153742Y-421759D02*
Y-423892D01*
X155341D01*
X154808Y-422825D01*
Y-422292D01*
X155341Y-421759D01*
X156408D01*
X156941Y-422292D01*
Y-423358D01*
X156408Y-423892D01*
X157474Y-420693D02*
Y-418560D01*
X156941Y-417494D02*
X153742D01*
Y-415894D01*
X154275Y-415361D01*
X155341D01*
X155875Y-415894D01*
Y-417494D01*
X153742Y-412162D02*
Y-414295D01*
X155341D01*
X154808Y-413228D01*
Y-412695D01*
X155341Y-412162D01*
X156408D01*
X156941Y-412695D01*
Y-413762D01*
X156408Y-414295D01*
X153742Y-338091D02*
X156941D01*
X155875D01*
X153742Y-335958D01*
X155341Y-337557D01*
X156941Y-335958D01*
X153742Y-332759D02*
Y-334892D01*
X155341D01*
X154808Y-333825D01*
Y-333292D01*
X155341Y-332759D01*
X156408D01*
X156941Y-333292D01*
Y-334359D01*
X156408Y-334892D01*
X157474Y-331693D02*
Y-329560D01*
X156941Y-328494D02*
X153742D01*
Y-326894D01*
X154275Y-326361D01*
X155341D01*
X155875Y-326894D01*
Y-328494D01*
X156941Y-323695D02*
X153742D01*
X155341Y-325295D01*
Y-323162D01*
X153742Y-249091D02*
X156941D01*
X155875D01*
X153742Y-246958D01*
X155341Y-248557D01*
X156941Y-246958D01*
X153742Y-243759D02*
Y-245892D01*
X155341D01*
X154808Y-244825D01*
Y-244292D01*
X155341Y-243759D01*
X156408D01*
X156941Y-244292D01*
Y-245358D01*
X156408Y-245892D01*
X157474Y-242693D02*
Y-240560D01*
X156941Y-239494D02*
X153742D01*
Y-237894D01*
X154275Y-237361D01*
X155341D01*
X155875Y-237894D01*
Y-239494D01*
X154275Y-236295D02*
X153742Y-235762D01*
Y-234695D01*
X154275Y-234162D01*
X154808D01*
X155341Y-234695D01*
Y-235228D01*
Y-234695D01*
X155875Y-234162D01*
X156408D01*
X156941Y-234695D01*
Y-235762D01*
X156408Y-236295D01*
X153742Y-160091D02*
X156941D01*
X155875D01*
X153742Y-157958D01*
X155341Y-159557D01*
X156941Y-157958D01*
X153742Y-154759D02*
Y-156892D01*
X155341D01*
X154808Y-155825D01*
Y-155292D01*
X155341Y-154759D01*
X156408D01*
X156941Y-155292D01*
Y-156359D01*
X156408Y-156892D01*
X157474Y-153693D02*
Y-151560D01*
X156941Y-150494D02*
X153742D01*
Y-148894D01*
X154275Y-148361D01*
X155341D01*
X155875Y-148894D01*
Y-150494D01*
X156941Y-145162D02*
Y-147295D01*
X154808Y-145162D01*
X154275D01*
X153742Y-145695D01*
Y-146762D01*
X154275Y-147295D01*
X153742Y-71091D02*
X156941D01*
X155875D01*
X153742Y-68958D01*
X155341Y-70557D01*
X156941Y-68958D01*
X153742Y-65759D02*
Y-67892D01*
X155341D01*
X154808Y-66825D01*
Y-66292D01*
X155341Y-65759D01*
X156408D01*
X156941Y-66292D01*
Y-67358D01*
X156408Y-67892D01*
X157474Y-64693D02*
Y-62560D01*
X156941Y-61494D02*
X153742D01*
Y-59894D01*
X154275Y-59361D01*
X155341D01*
X155875Y-59894D01*
Y-61494D01*
X156941Y-58295D02*
Y-57228D01*
Y-57762D01*
X153742D01*
X154275Y-58295D01*
X119742Y-694091D02*
X122941D01*
X121875D01*
X119742Y-691958D01*
X121342Y-693557D01*
X122941Y-691958D01*
Y-689292D02*
X119742D01*
X121342Y-690892D01*
Y-688759D01*
X123474Y-687693D02*
Y-685560D01*
X122941Y-684494D02*
X119742D01*
Y-682894D01*
X120275Y-682361D01*
X121342D01*
X121875Y-682894D01*
Y-684494D01*
X120275Y-681295D02*
X119742Y-680762D01*
Y-679695D01*
X120275Y-679162D01*
X120808D01*
X121342Y-679695D01*
X121875Y-679162D01*
X122408D01*
X122941Y-679695D01*
Y-680762D01*
X122408Y-681295D01*
X121875D01*
X121342Y-680762D01*
X120808Y-681295D01*
X120275D01*
X121342Y-680762D02*
Y-679695D01*
X119742Y-605091D02*
X122941D01*
X121875D01*
X119742Y-602958D01*
X121342Y-604557D01*
X122941Y-602958D01*
Y-600292D02*
X119742D01*
X121342Y-601892D01*
Y-599759D01*
X123474Y-598693D02*
Y-596560D01*
X122941Y-595494D02*
X119742D01*
Y-593894D01*
X120275Y-593361D01*
X121342D01*
X121875Y-593894D01*
Y-595494D01*
X119742Y-592295D02*
Y-590162D01*
X120275D01*
X122408Y-592295D01*
X122941D01*
X119742Y-516091D02*
X122941D01*
X121875D01*
X119742Y-513958D01*
X121342Y-515557D01*
X122941Y-513958D01*
Y-511292D02*
X119742D01*
X121342Y-512892D01*
Y-510759D01*
X123474Y-509693D02*
Y-507560D01*
X122941Y-506494D02*
X119742D01*
Y-504894D01*
X120275Y-504361D01*
X121342D01*
X121875Y-504894D01*
Y-506494D01*
X119742Y-501162D02*
X120275Y-502228D01*
X121342Y-503295D01*
X122408D01*
X122941Y-502762D01*
Y-501695D01*
X122408Y-501162D01*
X121875D01*
X121342Y-501695D01*
Y-503295D01*
X119742Y-427091D02*
X122941D01*
X121875D01*
X119742Y-424958D01*
X121342Y-426557D01*
X122941Y-424958D01*
Y-422292D02*
X119742D01*
X121342Y-423892D01*
Y-421759D01*
X123474Y-420693D02*
Y-418560D01*
X122941Y-417494D02*
X119742D01*
Y-415894D01*
X120275Y-415361D01*
X121342D01*
X121875Y-415894D01*
Y-417494D01*
X119742Y-412162D02*
Y-414295D01*
X121342D01*
X120808Y-413228D01*
Y-412695D01*
X121342Y-412162D01*
X122408D01*
X122941Y-412695D01*
Y-413762D01*
X122408Y-414295D01*
X119742Y-338091D02*
X122941D01*
X121875D01*
X119742Y-335958D01*
X121342Y-337557D01*
X122941Y-335958D01*
Y-333292D02*
X119742D01*
X121342Y-334892D01*
Y-332759D01*
X123474Y-331693D02*
Y-329560D01*
X122941Y-328494D02*
X119742D01*
Y-326894D01*
X120275Y-326361D01*
X121342D01*
X121875Y-326894D01*
Y-328494D01*
X122941Y-323695D02*
X119742D01*
X121342Y-325295D01*
Y-323162D01*
X119742Y-249091D02*
X122941D01*
X121875D01*
X119742Y-246958D01*
X121342Y-248557D01*
X122941Y-246958D01*
Y-244292D02*
X119742D01*
X121342Y-245892D01*
Y-243759D01*
X123474Y-242693D02*
Y-240560D01*
X122941Y-239494D02*
X119742D01*
Y-237894D01*
X120275Y-237361D01*
X121342D01*
X121875Y-237894D01*
Y-239494D01*
X120275Y-236295D02*
X119742Y-235762D01*
Y-234695D01*
X120275Y-234162D01*
X120808D01*
X121342Y-234695D01*
Y-235228D01*
Y-234695D01*
X121875Y-234162D01*
X122408D01*
X122941Y-234695D01*
Y-235762D01*
X122408Y-236295D01*
X119742Y-160091D02*
X122941D01*
X121875D01*
X119742Y-157958D01*
X121342Y-159557D01*
X122941Y-157958D01*
Y-155292D02*
X119742D01*
X121342Y-156892D01*
Y-154759D01*
X123474Y-153693D02*
Y-151560D01*
X122941Y-150494D02*
X119742D01*
Y-148894D01*
X120275Y-148361D01*
X121342D01*
X121875Y-148894D01*
Y-150494D01*
X122941Y-145162D02*
Y-147295D01*
X120808Y-145162D01*
X120275D01*
X119742Y-145695D01*
Y-146762D01*
X120275Y-147295D01*
X119742Y-71091D02*
X122941D01*
X121875D01*
X119742Y-68958D01*
X121342Y-70557D01*
X122941Y-68958D01*
Y-66292D02*
X119742D01*
X121342Y-67892D01*
Y-65759D01*
X123474Y-64693D02*
Y-62560D01*
X122941Y-61494D02*
X119742D01*
Y-59894D01*
X120275Y-59361D01*
X121342D01*
X121875Y-59894D01*
Y-61494D01*
X122941Y-58295D02*
Y-57228D01*
Y-57762D01*
X119742D01*
X120275Y-58295D01*
X187242Y-694091D02*
X190441D01*
X189375D01*
X187242Y-691958D01*
X188841Y-693557D01*
X190441Y-691958D01*
X187775Y-690892D02*
X187242Y-690358D01*
Y-689292D01*
X187775Y-688759D01*
X188308D01*
X188841Y-689292D01*
Y-689825D01*
Y-689292D01*
X189375Y-688759D01*
X189908D01*
X190441Y-689292D01*
Y-690358D01*
X189908Y-690892D01*
X190974Y-687693D02*
Y-685560D01*
X190441Y-684494D02*
X187242D01*
Y-682894D01*
X187775Y-682361D01*
X188841D01*
X189375Y-682894D01*
Y-684494D01*
X187775Y-681295D02*
X187242Y-680762D01*
Y-679695D01*
X187775Y-679162D01*
X188308D01*
X188841Y-679695D01*
X189375Y-679162D01*
X189908D01*
X190441Y-679695D01*
Y-680762D01*
X189908Y-681295D01*
X189375D01*
X188841Y-680762D01*
X188308Y-681295D01*
X187775D01*
X188841Y-680762D02*
Y-679695D01*
X187242Y-605091D02*
X190441D01*
X189375D01*
X187242Y-602958D01*
X188841Y-604557D01*
X190441Y-602958D01*
X187775Y-601892D02*
X187242Y-601359D01*
Y-600292D01*
X187775Y-599759D01*
X188308D01*
X188841Y-600292D01*
Y-600825D01*
Y-600292D01*
X189375Y-599759D01*
X189908D01*
X190441Y-600292D01*
Y-601359D01*
X189908Y-601892D01*
X190974Y-598693D02*
Y-596560D01*
X190441Y-595494D02*
X187242D01*
Y-593894D01*
X187775Y-593361D01*
X188841D01*
X189375Y-593894D01*
Y-595494D01*
X187242Y-592295D02*
Y-590162D01*
X187775D01*
X189908Y-592295D01*
X190441D01*
X187242Y-516091D02*
X190441D01*
X189375D01*
X187242Y-513958D01*
X188841Y-515557D01*
X190441Y-513958D01*
X187775Y-512892D02*
X187242Y-512359D01*
Y-511292D01*
X187775Y-510759D01*
X188308D01*
X188841Y-511292D01*
Y-511825D01*
Y-511292D01*
X189375Y-510759D01*
X189908D01*
X190441Y-511292D01*
Y-512359D01*
X189908Y-512892D01*
X190974Y-509693D02*
Y-507560D01*
X190441Y-506494D02*
X187242D01*
Y-504894D01*
X187775Y-504361D01*
X188841D01*
X189375Y-504894D01*
Y-506494D01*
X187242Y-501162D02*
X187775Y-502228D01*
X188841Y-503295D01*
X189908D01*
X190441Y-502762D01*
Y-501695D01*
X189908Y-501162D01*
X189375D01*
X188841Y-501695D01*
Y-503295D01*
X187242Y-427091D02*
X190441D01*
X189375D01*
X187242Y-424958D01*
X188841Y-426557D01*
X190441Y-424958D01*
X187775Y-423892D02*
X187242Y-423358D01*
Y-422292D01*
X187775Y-421759D01*
X188308D01*
X188841Y-422292D01*
Y-422825D01*
Y-422292D01*
X189375Y-421759D01*
X189908D01*
X190441Y-422292D01*
Y-423358D01*
X189908Y-423892D01*
X190974Y-420693D02*
Y-418560D01*
X190441Y-417494D02*
X187242D01*
Y-415894D01*
X187775Y-415361D01*
X188841D01*
X189375Y-415894D01*
Y-417494D01*
X187242Y-412162D02*
Y-414295D01*
X188841D01*
X188308Y-413228D01*
Y-412695D01*
X188841Y-412162D01*
X189908D01*
X190441Y-412695D01*
Y-413762D01*
X189908Y-414295D01*
X187242Y-338091D02*
X190441D01*
X189375D01*
X187242Y-335958D01*
X188841Y-337557D01*
X190441Y-335958D01*
X187775Y-334892D02*
X187242Y-334359D01*
Y-333292D01*
X187775Y-332759D01*
X188308D01*
X188841Y-333292D01*
Y-333825D01*
Y-333292D01*
X189375Y-332759D01*
X189908D01*
X190441Y-333292D01*
Y-334359D01*
X189908Y-334892D01*
X190974Y-331693D02*
Y-329560D01*
X190441Y-328494D02*
X187242D01*
Y-326894D01*
X187775Y-326361D01*
X188841D01*
X189375Y-326894D01*
Y-328494D01*
X190441Y-323695D02*
X187242D01*
X188841Y-325295D01*
Y-323162D01*
X187242Y-249091D02*
X190441D01*
X189375D01*
X187242Y-246958D01*
X188841Y-248557D01*
X190441Y-246958D01*
X187775Y-245892D02*
X187242Y-245358D01*
Y-244292D01*
X187775Y-243759D01*
X188308D01*
X188841Y-244292D01*
Y-244825D01*
Y-244292D01*
X189375Y-243759D01*
X189908D01*
X190441Y-244292D01*
Y-245358D01*
X189908Y-245892D01*
X190974Y-242693D02*
Y-240560D01*
X190441Y-239494D02*
X187242D01*
Y-237894D01*
X187775Y-237361D01*
X188841D01*
X189375Y-237894D01*
Y-239494D01*
X187775Y-236295D02*
X187242Y-235762D01*
Y-234695D01*
X187775Y-234162D01*
X188308D01*
X188841Y-234695D01*
Y-235228D01*
Y-234695D01*
X189375Y-234162D01*
X189908D01*
X190441Y-234695D01*
Y-235762D01*
X189908Y-236295D01*
X187242Y-160091D02*
X190441D01*
X189375D01*
X187242Y-157958D01*
X188841Y-159557D01*
X190441Y-157958D01*
X187775Y-156892D02*
X187242Y-156359D01*
Y-155292D01*
X187775Y-154759D01*
X188308D01*
X188841Y-155292D01*
Y-155825D01*
Y-155292D01*
X189375Y-154759D01*
X189908D01*
X190441Y-155292D01*
Y-156359D01*
X189908Y-156892D01*
X190974Y-153693D02*
Y-151560D01*
X190441Y-150494D02*
X187242D01*
Y-148894D01*
X187775Y-148361D01*
X188841D01*
X189375Y-148894D01*
Y-150494D01*
X190441Y-145162D02*
Y-147295D01*
X188308Y-145162D01*
X187775D01*
X187242Y-145695D01*
Y-146762D01*
X187775Y-147295D01*
X187242Y-71091D02*
X190441D01*
X189375D01*
X187242Y-68958D01*
X188841Y-70557D01*
X190441Y-68958D01*
X187775Y-67892D02*
X187242Y-67358D01*
Y-66292D01*
X187775Y-65759D01*
X188308D01*
X188841Y-66292D01*
Y-66825D01*
Y-66292D01*
X189375Y-65759D01*
X189908D01*
X190441Y-66292D01*
Y-67358D01*
X189908Y-67892D01*
X190974Y-64693D02*
Y-62560D01*
X190441Y-61494D02*
X187242D01*
Y-59894D01*
X187775Y-59361D01*
X188841D01*
X189375Y-59894D01*
Y-61494D01*
X190441Y-58295D02*
Y-57228D01*
Y-57762D01*
X187242D01*
X187775Y-58295D01*
X220742Y-694091D02*
X223941D01*
X222875D01*
X220742Y-691958D01*
X222341Y-693557D01*
X223941Y-691958D01*
Y-688759D02*
Y-690892D01*
X221808Y-688759D01*
X221275D01*
X220742Y-689292D01*
Y-690358D01*
X221275Y-690892D01*
X224474Y-687693D02*
Y-685560D01*
X223941Y-684494D02*
X220742D01*
Y-682894D01*
X221275Y-682361D01*
X222341D01*
X222875Y-682894D01*
Y-684494D01*
X221275Y-681295D02*
X220742Y-680762D01*
Y-679695D01*
X221275Y-679162D01*
X221808D01*
X222341Y-679695D01*
X222875Y-679162D01*
X223408D01*
X223941Y-679695D01*
Y-680762D01*
X223408Y-681295D01*
X222875D01*
X222341Y-680762D01*
X221808Y-681295D01*
X221275D01*
X222341Y-680762D02*
Y-679695D01*
X220742Y-605091D02*
X223941D01*
X222875D01*
X220742Y-602958D01*
X222341Y-604557D01*
X223941Y-602958D01*
Y-599759D02*
Y-601892D01*
X221808Y-599759D01*
X221275D01*
X220742Y-600292D01*
Y-601359D01*
X221275Y-601892D01*
X224474Y-598693D02*
Y-596560D01*
X223941Y-595494D02*
X220742D01*
Y-593894D01*
X221275Y-593361D01*
X222341D01*
X222875Y-593894D01*
Y-595494D01*
X220742Y-592295D02*
Y-590162D01*
X221275D01*
X223408Y-592295D01*
X223941D01*
X220742Y-516091D02*
X223941D01*
X222875D01*
X220742Y-513958D01*
X222341Y-515557D01*
X223941Y-513958D01*
Y-510759D02*
Y-512892D01*
X221808Y-510759D01*
X221275D01*
X220742Y-511292D01*
Y-512359D01*
X221275Y-512892D01*
X224474Y-509693D02*
Y-507560D01*
X223941Y-506494D02*
X220742D01*
Y-504894D01*
X221275Y-504361D01*
X222341D01*
X222875Y-504894D01*
Y-506494D01*
X220742Y-501162D02*
X221275Y-502228D01*
X222341Y-503295D01*
X223408D01*
X223941Y-502762D01*
Y-501695D01*
X223408Y-501162D01*
X222875D01*
X222341Y-501695D01*
Y-503295D01*
X220742Y-427091D02*
X223941D01*
X222875D01*
X220742Y-424958D01*
X222341Y-426557D01*
X223941Y-424958D01*
Y-421759D02*
Y-423892D01*
X221808Y-421759D01*
X221275D01*
X220742Y-422292D01*
Y-423358D01*
X221275Y-423892D01*
X224474Y-420693D02*
Y-418560D01*
X223941Y-417494D02*
X220742D01*
Y-415894D01*
X221275Y-415361D01*
X222341D01*
X222875Y-415894D01*
Y-417494D01*
X220742Y-412162D02*
Y-414295D01*
X222341D01*
X221808Y-413228D01*
Y-412695D01*
X222341Y-412162D01*
X223408D01*
X223941Y-412695D01*
Y-413762D01*
X223408Y-414295D01*
X220742Y-338091D02*
X223941D01*
X222875D01*
X220742Y-335958D01*
X222341Y-337557D01*
X223941Y-335958D01*
Y-332759D02*
Y-334892D01*
X221808Y-332759D01*
X221275D01*
X220742Y-333292D01*
Y-334359D01*
X221275Y-334892D01*
X224474Y-331693D02*
Y-329560D01*
X223941Y-328494D02*
X220742D01*
Y-326894D01*
X221275Y-326361D01*
X222341D01*
X222875Y-326894D01*
Y-328494D01*
X223941Y-323695D02*
X220742D01*
X222341Y-325295D01*
Y-323162D01*
X220742Y-249091D02*
X223941D01*
X222875D01*
X220742Y-246958D01*
X222341Y-248557D01*
X223941Y-246958D01*
Y-243759D02*
Y-245892D01*
X221808Y-243759D01*
X221275D01*
X220742Y-244292D01*
Y-245358D01*
X221275Y-245892D01*
X224474Y-242693D02*
Y-240560D01*
X223941Y-239494D02*
X220742D01*
Y-237894D01*
X221275Y-237361D01*
X222341D01*
X222875Y-237894D01*
Y-239494D01*
X221275Y-236295D02*
X220742Y-235762D01*
Y-234695D01*
X221275Y-234162D01*
X221808D01*
X222341Y-234695D01*
Y-235228D01*
Y-234695D01*
X222875Y-234162D01*
X223408D01*
X223941Y-234695D01*
Y-235762D01*
X223408Y-236295D01*
X220742Y-160091D02*
X223941D01*
X222875D01*
X220742Y-157958D01*
X222341Y-159557D01*
X223941Y-157958D01*
Y-154759D02*
Y-156892D01*
X221808Y-154759D01*
X221275D01*
X220742Y-155292D01*
Y-156359D01*
X221275Y-156892D01*
X224474Y-153693D02*
Y-151560D01*
X223941Y-150494D02*
X220742D01*
Y-148894D01*
X221275Y-148361D01*
X222341D01*
X222875Y-148894D01*
Y-150494D01*
X223941Y-145162D02*
Y-147295D01*
X221808Y-145162D01*
X221275D01*
X220742Y-145695D01*
Y-146762D01*
X221275Y-147295D01*
X220742Y-71091D02*
X223941D01*
X222875D01*
X220742Y-68958D01*
X222341Y-70557D01*
X223941Y-68958D01*
Y-65759D02*
Y-67892D01*
X221808Y-65759D01*
X221275D01*
X220742Y-66292D01*
Y-67358D01*
X221275Y-67892D01*
X224474Y-64693D02*
Y-62560D01*
X223941Y-61494D02*
X220742D01*
Y-59894D01*
X221275Y-59361D01*
X222341D01*
X222875Y-59894D01*
Y-61494D01*
X223941Y-58295D02*
Y-57228D01*
Y-57762D01*
X220742D01*
X221275Y-58295D01*
X254242Y-694091D02*
X257441D01*
X256375D01*
X254242Y-691958D01*
X255841Y-693557D01*
X257441Y-691958D01*
Y-690892D02*
Y-689825D01*
Y-690358D01*
X254242D01*
X254775Y-690892D01*
X257974Y-688226D02*
Y-686093D01*
X257441Y-685027D02*
X254242D01*
Y-683427D01*
X254775Y-682894D01*
X255841D01*
X256375Y-683427D01*
Y-685027D01*
X254775Y-681828D02*
X254242Y-681295D01*
Y-680228D01*
X254775Y-679695D01*
X255308D01*
X255841Y-680228D01*
X256375Y-679695D01*
X256908D01*
X257441Y-680228D01*
Y-681295D01*
X256908Y-681828D01*
X256375D01*
X255841Y-681295D01*
X255308Y-681828D01*
X254775D01*
X255841Y-681295D02*
Y-680228D01*
X254242Y-605091D02*
X257441D01*
X256375D01*
X254242Y-602958D01*
X255841Y-604557D01*
X257441Y-602958D01*
Y-601892D02*
Y-600825D01*
Y-601359D01*
X254242D01*
X254775Y-601892D01*
X257974Y-599226D02*
Y-597093D01*
X257441Y-596027D02*
X254242D01*
Y-594427D01*
X254775Y-593894D01*
X255841D01*
X256375Y-594427D01*
Y-596027D01*
X254242Y-592828D02*
Y-590695D01*
X254775D01*
X256908Y-592828D01*
X257441D01*
X254242Y-516091D02*
X257441D01*
X256375D01*
X254242Y-513958D01*
X255841Y-515557D01*
X257441Y-513958D01*
Y-512892D02*
Y-511825D01*
Y-512359D01*
X254242D01*
X254775Y-512892D01*
X257974Y-510226D02*
Y-508093D01*
X257441Y-507027D02*
X254242D01*
Y-505427D01*
X254775Y-504894D01*
X255841D01*
X256375Y-505427D01*
Y-507027D01*
X254242Y-501695D02*
X254775Y-502762D01*
X255841Y-503828D01*
X256908D01*
X257441Y-503295D01*
Y-502228D01*
X256908Y-501695D01*
X256375D01*
X255841Y-502228D01*
Y-503828D01*
X254242Y-427091D02*
X257441D01*
X256375D01*
X254242Y-424958D01*
X255841Y-426557D01*
X257441Y-424958D01*
Y-423892D02*
Y-422825D01*
Y-423358D01*
X254242D01*
X254775Y-423892D01*
X257974Y-421226D02*
Y-419093D01*
X257441Y-418027D02*
X254242D01*
Y-416427D01*
X254775Y-415894D01*
X255841D01*
X256375Y-416427D01*
Y-418027D01*
X254242Y-412695D02*
Y-414828D01*
X255841D01*
X255308Y-413762D01*
Y-413228D01*
X255841Y-412695D01*
X256908D01*
X257441Y-413228D01*
Y-414295D01*
X256908Y-414828D01*
X254242Y-338091D02*
X257441D01*
X256375D01*
X254242Y-335958D01*
X255841Y-337557D01*
X257441Y-335958D01*
Y-334892D02*
Y-333825D01*
Y-334359D01*
X254242D01*
X254775Y-334892D01*
X257974Y-332226D02*
Y-330093D01*
X257441Y-329027D02*
X254242D01*
Y-327427D01*
X254775Y-326894D01*
X255841D01*
X256375Y-327427D01*
Y-329027D01*
X257441Y-324228D02*
X254242D01*
X255841Y-325828D01*
Y-323695D01*
X254242Y-249091D02*
X257441D01*
X256375D01*
X254242Y-246958D01*
X255841Y-248557D01*
X257441Y-246958D01*
Y-245892D02*
Y-244825D01*
Y-245358D01*
X254242D01*
X254775Y-245892D01*
X257974Y-243226D02*
Y-241093D01*
X257441Y-240027D02*
X254242D01*
Y-238427D01*
X254775Y-237894D01*
X255841D01*
X256375Y-238427D01*
Y-240027D01*
X254775Y-236828D02*
X254242Y-236295D01*
Y-235228D01*
X254775Y-234695D01*
X255308D01*
X255841Y-235228D01*
Y-235762D01*
Y-235228D01*
X256375Y-234695D01*
X256908D01*
X257441Y-235228D01*
Y-236295D01*
X256908Y-236828D01*
X254242Y-160091D02*
X257441D01*
X256375D01*
X254242Y-157958D01*
X255841Y-159557D01*
X257441Y-157958D01*
Y-156892D02*
Y-155825D01*
Y-156359D01*
X254242D01*
X254775Y-156892D01*
X257974Y-154226D02*
Y-152093D01*
X257441Y-151027D02*
X254242D01*
Y-149427D01*
X254775Y-148894D01*
X255841D01*
X256375Y-149427D01*
Y-151027D01*
X257441Y-145695D02*
Y-147828D01*
X255308Y-145695D01*
X254775D01*
X254242Y-146228D01*
Y-147295D01*
X254775Y-147828D01*
X254242Y-71091D02*
X257441D01*
X256375D01*
X254242Y-68958D01*
X255841Y-70557D01*
X257441Y-68958D01*
Y-67892D02*
Y-66825D01*
Y-67358D01*
X254242D01*
X254775Y-67892D01*
X257974Y-65226D02*
Y-63093D01*
X257441Y-62027D02*
X254242D01*
Y-60427D01*
X254775Y-59894D01*
X255841D01*
X256375Y-60427D01*
Y-62027D01*
X257441Y-58828D02*
Y-57762D01*
Y-58295D01*
X254242D01*
X254775Y-58828D01*
X8647Y-12958D02*
Y-14024D01*
Y-13491D01*
X11313D01*
X11846Y-14024D01*
Y-14557D01*
X11313Y-15091D01*
X8647Y-11892D02*
Y-9759D01*
X9181D01*
X11313Y-11892D01*
X11846D01*
X281805Y2042D02*
Y976D01*
Y1509D01*
X284471D01*
X285004Y976D01*
Y443D01*
X284471Y-91D01*
X281805Y5241D02*
X282338Y4175D01*
X283404Y3108D01*
X284471D01*
X285004Y3641D01*
Y4708D01*
X284471Y5241D01*
X283938D01*
X283404Y4708D01*
Y3108D01*
X7089Y-600492D02*
Y-603691D01*
X8688D01*
X9222Y-603157D01*
Y-601025D01*
X8688Y-600492D01*
X7089D01*
X10288D02*
Y-603691D01*
X11887D01*
X12421Y-603157D01*
Y-601025D01*
X11887Y-600492D01*
X10288D01*
X13487Y-601025D02*
X14020Y-600492D01*
X15086D01*
X15620Y-601025D01*
Y-601558D01*
X15086Y-602091D01*
X14553D01*
X15086D01*
X15620Y-602624D01*
Y-603157D01*
X15086Y-603691D01*
X14020D01*
X13487Y-603157D01*
X7189Y-667292D02*
Y-670491D01*
X8788D01*
X9322Y-669957D01*
Y-667825D01*
X8788Y-667292D01*
X7189D01*
X10388D02*
Y-670491D01*
X11987D01*
X12521Y-669957D01*
Y-667825D01*
X11987Y-667292D01*
X10388D01*
X15720Y-670491D02*
X13587D01*
X15720Y-668358D01*
Y-667825D01*
X15186Y-667292D01*
X14120D01*
X13587Y-667825D01*
X325500Y-710801D02*
Y-714000D01*
X327099D01*
X327633Y-713467D01*
Y-711334D01*
X327099Y-710801D01*
X325500D01*
X328699D02*
Y-714000D01*
X330298D01*
X330832Y-713467D01*
Y-711334D01*
X330298Y-710801D01*
X328699D01*
X331898Y-714000D02*
X332964D01*
X332431D01*
Y-710801D01*
X331898Y-711334D01*
X334564Y-714533D02*
X336696D01*
X337763Y-714000D02*
Y-710801D01*
X339362D01*
X339895Y-711334D01*
Y-712400D01*
X339362Y-712934D01*
X337763D01*
X340962Y-711334D02*
X341495Y-710801D01*
X342561D01*
X343094Y-711334D01*
Y-711867D01*
X342561Y-712400D01*
X343094Y-712934D01*
Y-713467D01*
X342561Y-714000D01*
X341495D01*
X340962Y-713467D01*
Y-712934D01*
X341495Y-712400D01*
X340962Y-711867D01*
Y-711334D01*
X341495Y-712400D02*
X342561D01*
X325500Y-621801D02*
Y-625000D01*
X327099D01*
X327633Y-624467D01*
Y-622334D01*
X327099Y-621801D01*
X325500D01*
X328699D02*
Y-625000D01*
X330298D01*
X330832Y-624467D01*
Y-622334D01*
X330298Y-621801D01*
X328699D01*
X331898Y-625000D02*
X332964D01*
X332431D01*
Y-621801D01*
X331898Y-622334D01*
X334564Y-625533D02*
X336696D01*
X337763Y-625000D02*
Y-621801D01*
X339362D01*
X339895Y-622334D01*
Y-623400D01*
X339362Y-623934D01*
X337763D01*
X340962Y-621801D02*
X343094D01*
Y-622334D01*
X340962Y-624467D01*
Y-625000D01*
X325500Y-532301D02*
Y-535500D01*
X327099D01*
X327633Y-534967D01*
Y-532834D01*
X327099Y-532301D01*
X325500D01*
X328699D02*
Y-535500D01*
X330298D01*
X330832Y-534967D01*
Y-532834D01*
X330298Y-532301D01*
X328699D01*
X331898Y-535500D02*
X332964D01*
X332431D01*
Y-532301D01*
X331898Y-532834D01*
X334564Y-536033D02*
X336696D01*
X337763Y-535500D02*
Y-532301D01*
X339362D01*
X339895Y-532834D01*
Y-533900D01*
X339362Y-534434D01*
X337763D01*
X343094Y-532301D02*
X342028Y-532834D01*
X340962Y-533900D01*
Y-534967D01*
X341495Y-535500D01*
X342561D01*
X343094Y-534967D01*
Y-534434D01*
X342561Y-533900D01*
X340962D01*
X325500Y-443801D02*
Y-447000D01*
X327099D01*
X327633Y-446467D01*
Y-444334D01*
X327099Y-443801D01*
X325500D01*
X328699D02*
Y-447000D01*
X330298D01*
X330832Y-446467D01*
Y-444334D01*
X330298Y-443801D01*
X328699D01*
X331898Y-447000D02*
X332964D01*
X332431D01*
Y-443801D01*
X331898Y-444334D01*
X334564Y-447533D02*
X336696D01*
X337763Y-447000D02*
Y-443801D01*
X339362D01*
X339895Y-444334D01*
Y-445400D01*
X339362Y-445934D01*
X337763D01*
X343094Y-443801D02*
X340962D01*
Y-445400D01*
X342028Y-444867D01*
X342561D01*
X343094Y-445400D01*
Y-446467D01*
X342561Y-447000D01*
X341495D01*
X340962Y-446467D01*
X325500Y-355801D02*
Y-359000D01*
X327099D01*
X327633Y-358467D01*
Y-356334D01*
X327099Y-355801D01*
X325500D01*
X328699D02*
Y-359000D01*
X330298D01*
X330832Y-358467D01*
Y-356334D01*
X330298Y-355801D01*
X328699D01*
X331898Y-359000D02*
X332964D01*
X332431D01*
Y-355801D01*
X331898Y-356334D01*
X334564Y-359533D02*
X336696D01*
X337763Y-359000D02*
Y-355801D01*
X339362D01*
X339895Y-356334D01*
Y-357400D01*
X339362Y-357934D01*
X337763D01*
X342561Y-359000D02*
Y-355801D01*
X340962Y-357400D01*
X343094D01*
X325500Y-265801D02*
Y-269000D01*
X327099D01*
X327633Y-268467D01*
Y-266334D01*
X327099Y-265801D01*
X325500D01*
X328699D02*
Y-269000D01*
X330298D01*
X330832Y-268467D01*
Y-266334D01*
X330298Y-265801D01*
X328699D01*
X331898Y-269000D02*
X332964D01*
X332431D01*
Y-265801D01*
X331898Y-266334D01*
X334564Y-269533D02*
X336696D01*
X337763Y-269000D02*
Y-265801D01*
X339362D01*
X339895Y-266334D01*
Y-267401D01*
X339362Y-267934D01*
X337763D01*
X340962Y-266334D02*
X341495Y-265801D01*
X342561D01*
X343094Y-266334D01*
Y-266867D01*
X342561Y-267401D01*
X342028D01*
X342561D01*
X343094Y-267934D01*
Y-268467D01*
X342561Y-269000D01*
X341495D01*
X340962Y-268467D01*
X325500Y-177301D02*
Y-180500D01*
X327099D01*
X327633Y-179967D01*
Y-177834D01*
X327099Y-177301D01*
X325500D01*
X328699D02*
Y-180500D01*
X330298D01*
X330832Y-179967D01*
Y-177834D01*
X330298Y-177301D01*
X328699D01*
X331898Y-180500D02*
X332964D01*
X332431D01*
Y-177301D01*
X331898Y-177834D01*
X334564Y-181033D02*
X336696D01*
X337763Y-180500D02*
Y-177301D01*
X339362D01*
X339895Y-177834D01*
Y-178901D01*
X339362Y-179434D01*
X337763D01*
X343094Y-180500D02*
X340962D01*
X343094Y-178367D01*
Y-177834D01*
X342561Y-177301D01*
X341495D01*
X340962Y-177834D01*
X326500Y-87801D02*
Y-91000D01*
X328099D01*
X328633Y-90467D01*
Y-88334D01*
X328099Y-87801D01*
X326500D01*
X329699D02*
Y-91000D01*
X331298D01*
X331832Y-90467D01*
Y-88334D01*
X331298Y-87801D01*
X329699D01*
X332898Y-91000D02*
X333964D01*
X333431D01*
Y-87801D01*
X332898Y-88334D01*
X335564Y-91533D02*
X337696D01*
X338763Y-91000D02*
Y-87801D01*
X340362D01*
X340895Y-88334D01*
Y-89401D01*
X340362Y-89934D01*
X338763D01*
X341962Y-91000D02*
X343028D01*
X342495D01*
Y-87801D01*
X341962Y-88334D01*
X28922Y-594725D02*
X28389Y-594192D01*
X27322D01*
X26789Y-594725D01*
Y-596857D01*
X27322Y-597391D01*
X28389D01*
X28922Y-596857D01*
X29988Y-594725D02*
X30521Y-594192D01*
X31587D01*
X32121Y-594725D01*
Y-595258D01*
X31587Y-595791D01*
X31054D01*
X31587D01*
X32121Y-596324D01*
Y-596857D01*
X31587Y-597391D01*
X30521D01*
X29988Y-596857D01*
X30770Y-663842D02*
X30237Y-663309D01*
X29171D01*
X28638Y-663842D01*
Y-665975D01*
X29171Y-666508D01*
X30237D01*
X30770Y-665975D01*
X33969Y-666508D02*
X31837D01*
X33969Y-664375D01*
Y-663842D01*
X33436Y-663309D01*
X32370D01*
X31837Y-663842D01*
X345522Y-701125D02*
X344988Y-700592D01*
X343922D01*
X343389Y-701125D01*
Y-703257D01*
X343922Y-703791D01*
X344988D01*
X345522Y-703257D01*
X346588Y-703791D02*
X347654D01*
X347121D01*
Y-700592D01*
X346588Y-701125D01*
X349254Y-704324D02*
X351386D01*
X352453Y-703791D02*
Y-700592D01*
X354052D01*
X354585Y-701125D01*
Y-702191D01*
X354052Y-702724D01*
X352453D01*
X355652Y-701125D02*
X356185Y-700592D01*
X357251D01*
X357784Y-701125D01*
Y-701658D01*
X357251Y-702191D01*
X357784Y-702724D01*
Y-703257D01*
X357251Y-703791D01*
X356185D01*
X355652Y-703257D01*
Y-702724D01*
X356185Y-702191D01*
X355652Y-701658D01*
Y-701125D01*
X356185Y-702191D02*
X357251D01*
X345522Y-612125D02*
X344988Y-611592D01*
X343922D01*
X343389Y-612125D01*
Y-614257D01*
X343922Y-614791D01*
X344988D01*
X345522Y-614257D01*
X346588Y-614791D02*
X347654D01*
X347121D01*
Y-611592D01*
X346588Y-612125D01*
X349254Y-615324D02*
X351386D01*
X352453Y-614791D02*
Y-611592D01*
X354052D01*
X354585Y-612125D01*
Y-613191D01*
X354052Y-613724D01*
X352453D01*
X355652Y-611592D02*
X357784D01*
Y-612125D01*
X355652Y-614257D01*
Y-614791D01*
X345522Y-523125D02*
X344988Y-522592D01*
X343922D01*
X343389Y-523125D01*
Y-525257D01*
X343922Y-525791D01*
X344988D01*
X345522Y-525257D01*
X346588Y-525791D02*
X347654D01*
X347121D01*
Y-522592D01*
X346588Y-523125D01*
X349254Y-526324D02*
X351386D01*
X352453Y-525791D02*
Y-522592D01*
X354052D01*
X354585Y-523125D01*
Y-524191D01*
X354052Y-524724D01*
X352453D01*
X357784Y-522592D02*
X356718Y-523125D01*
X355652Y-524191D01*
Y-525257D01*
X356185Y-525791D01*
X357251D01*
X357784Y-525257D01*
Y-524724D01*
X357251Y-524191D01*
X355652D01*
X345522Y-434125D02*
X344988Y-433592D01*
X343922D01*
X343389Y-434125D01*
Y-436257D01*
X343922Y-436791D01*
X344988D01*
X345522Y-436257D01*
X346588Y-436791D02*
X347654D01*
X347121D01*
Y-433592D01*
X346588Y-434125D01*
X349254Y-437324D02*
X351386D01*
X352453Y-436791D02*
Y-433592D01*
X354052D01*
X354585Y-434125D01*
Y-435191D01*
X354052Y-435724D01*
X352453D01*
X357784Y-433592D02*
X355652D01*
Y-435191D01*
X356718Y-434658D01*
X357251D01*
X357784Y-435191D01*
Y-436257D01*
X357251Y-436791D01*
X356185D01*
X355652Y-436257D01*
X345522Y-345125D02*
X344988Y-344592D01*
X343922D01*
X343389Y-345125D01*
Y-347257D01*
X343922Y-347791D01*
X344988D01*
X345522Y-347257D01*
X346588Y-347791D02*
X347654D01*
X347121D01*
Y-344592D01*
X346588Y-345125D01*
X349254Y-348324D02*
X351386D01*
X352453Y-347791D02*
Y-344592D01*
X354052D01*
X354585Y-345125D01*
Y-346191D01*
X354052Y-346724D01*
X352453D01*
X357251Y-347791D02*
Y-344592D01*
X355652Y-346191D01*
X357784D01*
X345522Y-256125D02*
X344988Y-255592D01*
X343922D01*
X343389Y-256125D01*
Y-258257D01*
X343922Y-258791D01*
X344988D01*
X345522Y-258257D01*
X346588Y-258791D02*
X347654D01*
X347121D01*
Y-255592D01*
X346588Y-256125D01*
X349254Y-259324D02*
X351386D01*
X352453Y-258791D02*
Y-255592D01*
X354052D01*
X354585Y-256125D01*
Y-257191D01*
X354052Y-257724D01*
X352453D01*
X355652Y-256125D02*
X356185Y-255592D01*
X357251D01*
X357784Y-256125D01*
Y-256658D01*
X357251Y-257191D01*
X356718D01*
X357251D01*
X357784Y-257724D01*
Y-258257D01*
X357251Y-258791D01*
X356185D01*
X355652Y-258257D01*
X345522Y-167125D02*
X344988Y-166592D01*
X343922D01*
X343389Y-167125D01*
Y-169257D01*
X343922Y-169791D01*
X344988D01*
X345522Y-169257D01*
X346588Y-169791D02*
X347654D01*
X347121D01*
Y-166592D01*
X346588Y-167125D01*
X349254Y-170324D02*
X351386D01*
X352453Y-169791D02*
Y-166592D01*
X354052D01*
X354585Y-167125D01*
Y-168191D01*
X354052Y-168724D01*
X352453D01*
X357784Y-169791D02*
X355652D01*
X357784Y-167658D01*
Y-167125D01*
X357251Y-166592D01*
X356185D01*
X355652Y-167125D01*
X345522Y-78125D02*
X344988Y-77592D01*
X343922D01*
X343389Y-78125D01*
Y-80257D01*
X343922Y-80791D01*
X344988D01*
X345522Y-80257D01*
X346588Y-80791D02*
X347654D01*
X347121D01*
Y-77592D01*
X346588Y-78125D01*
X349254Y-81324D02*
X351386D01*
X352453Y-80791D02*
Y-77592D01*
X354052D01*
X354585Y-78125D01*
Y-79191D01*
X354052Y-79724D01*
X352453D01*
X355652Y-80791D02*
X356718D01*
X356185D01*
Y-77592D01*
X355652Y-78125D01*
M02*
